<svg width="100%" height="100%" viewBox="0 0 24 24" fill="none" xmlns="http://www.w3.org/2000/svg">
<g id="Icons/system">
<g id="Vector">
<path d="M5 11H7V13H5V11Z" fill="currentColor"/>
<path d="M5 9H7V11H5V9Z" fill="currentColor"/>
<path d="M5 15H7V13H5V15Z" fill="currentColor"/>
<path d="M7 7H9V9H7V7Z" fill="currentColor"/>
<path d="M7 17H9V15H7V17Z" fill="currentColor"/>
<path d="M9 5H11V7H9V5Z" fill="currentColor"/>
<path d="M9 19H11V17H9V19Z" fill="currentColor"/>
<path d="M7 9H9V11H7V9Z" fill="currentColor"/>
<path d="M7 15H9V13H7V15Z" fill="currentColor"/>
<path d="M9 7H11V9H9V7Z" fill="currentColor"/>
<path d="M9 17H11V15H9V17Z" fill="currentColor"/>
<path d="M11 5H13V7H11V5Z" fill="currentColor"/>
<path d="M11 19H13V17H11V19Z" fill="currentColor"/>
<path d="M3 11H5V13H3V11Z" fill="currentColor"/>
<path d="M7 11H9V13H7V11Z" fill="currentColor"/>
<path d="M9 11H11V13H9V11Z" fill="currentColor"/>
<path d="M11 11H13V13H11V11Z" fill="currentColor"/>
<path d="M13 11H15V13H13V11Z" fill="currentColor"/>
<path d="M15 11H17V13H15V11Z" fill="currentColor"/>
<path d="M17 11H19V13H17V11Z" fill="currentColor"/>
<path d="M19 11H21V13H19V11Z" fill="currentColor"/>
</g>
</g>
</svg>
