<svg width="20" height="20" viewBox="0 0 20 20" fill="none" xmlns="http://www.w3.org/2000/svg">
    <path d="M16.667 6.667H15V5h1.667v1.667zM15 6.667h-1.666V5H15v1.667zM16.667 10H15V8.334h1.667V10zM15 10h-1.666V8.334H15V10zM15 13.334h-1.666v-1.667H15v1.667zM13.334 15h-1.667v-1.666h1.667V15zM13.334 16.667h-1.667V15h1.667v1.667z" fill="#37474F"/>
    <path d="M13.334 18.334h-1.667v-1.667h1.667v1.666zM11.667 18.334H10v-1.667h1.667v1.666zM10 16.667H8.334V15H10v1.667zM10 15H8.334v-1.666H10V15zM10 13.334H8.334v-1.667H10v1.667zM10 11.667H8.334V10H10v1.667zM8.334 11.667H6.667V10h1.667v1.667zM6.667 11.667H5V10h1.667v1.667zM5 10H3.334V8.333H5V10z" fill="#37474F"/>
    <path d="M5 8.334H3.334V6.666H5v1.667z" fill="#37474F"/>
    <path d="M5 6.667H3.334V5H5v1.667zM11.667 11.667H10V10h1.667v1.667zM16.667 5H15V3.333h1.667V5zM15 5h-1.666V3.333H15V5zM15 3.333h-1.666V1.667H15v1.666zM13.334 3.333h-1.667V1.667h1.667v1.666zM11.667 3.333H10V1.667h1.667v1.666zM10 3.333H8.334V1.667H10v1.666zM8.334 3.333H6.667V1.667h1.667v1.666zM6.667 3.333H5V1.667h1.667v1.666zM5 5H3.334V3.333H5V5zM16.667 8.334H15V6.667h1.667v1.667zM15 8.334h-1.666V6.667H15v1.667zM16.667 11.667H15V10h1.667v1.667zM15 11.667h-1.666V10H15v1.667z" fill="#37474F"/>
    <path d="M11.666 16.666H10V15h1.666v1.666zM11.666 15H10v-1.667h1.666V15zM13.333 13.333h-1.667v-1.667h1.667v1.667z" fill="#fff"/>
    <path d="M11.666 13.334H10v-1.667h1.666v1.667zM13.333 11.667h-1.667V10h1.667v1.667zM13.333 10h-1.667V8.334h1.667V10zM11.666 10H10V8.334h1.666V10zM10 10H8.333V8.334H10V10zM8.333 10H6.666V8.334h1.667V10zM6.666 10H5V8.334h1.666V10zM13.333 8.334h-1.667V6.667h1.667v1.667zM11.666 8.334H10V6.667h1.666v1.667zM10 8.334H8.333V6.667H10v1.667zM8.333 8.334H6.666V6.667h1.667v1.667z" fill="#EDEFF1"/>
    <path d="M6.666 8.334H5V6.667h1.666v1.667zM13.333 6.667h-1.667V5h1.667v1.667zM11.666 6.667H10V5h1.666v1.667zM10 6.667H8.333V5H10v1.667zM8.333 6.667H6.666V5h1.667v1.667z" fill="#CFD8DB"/>
    <path d="M6.666 6.667H5V5h1.666v1.667zM13.333 5h-1.667V3.333h1.667V5zM11.666 5H10V3.333h1.666V5zM10 5H8.333V3.333H10V5zM8.333 5H6.666V3.333h1.667V5zM6.666 5H5V3.333h1.666V5z" fill="#B0BEC5"/>
</svg>
