<svg width="21" height="20" viewBox="0 0 21 20" fill="none" xmlns="http://www.w3.org/2000/svg">
    <path d="M3.833 13.334H5.5V15H3.833v-1.666zM5.5 13.334h1.667V15H5.5v-1.666zM3.833 10H5.5v1.667H3.833V10zM5.5 10h1.667v1.667H5.5V10zM5.5 6.667h1.667v1.666H5.5V6.667zM7.167 5h1.666v1.667H7.166V5zM7.167 3.333h1.666V5H7.167V3.333zM7.167 1.667h1.666v1.666H7.167V1.667zM8.833 1.667H10.5v1.666H8.833V1.667zM10.5 3.333h1.666V5H10.5V3.333zM10.5 5h1.666v1.667H10.5V5z" fill="#37474F"/>
    <path d="M10.5 6.667h1.666v1.667H10.5V6.666z" fill="#37474F"/>
    <path d="M10.5 8.333h1.666V10H10.5V8.333zM12.166 8.334h1.667V10h-1.667V8.334zM13.833 8.334H15.5V10h-1.667V8.334zM15.5 10h1.666v1.667H15.5V10zM15.5 11.667h1.666v1.667H15.5v-1.667zM15.5 13.334h1.666V15H15.5v-1.666zM8.833 8.333H10.5V10H8.833V8.333zM3.833 15H5.5v1.667H3.833V15zM5.5 15h1.667v1.667H5.5V15zM5.5 16.667h1.667v1.666H5.5v-1.666z" fill="#37474F"/>
    <path d="M7.167 16.667h1.666v1.666H7.166v-1.666zM8.833 16.667H10.5v1.666H8.833v-1.666zM10.5 16.667h1.666v1.666H10.5v-1.666zM12.166 16.667h1.667v1.666h-1.667v-1.666zM13.833 16.667H15.5v1.666h-1.667v-1.666zM15.5 15h1.666v1.667H15.5V15zM3.833 11.667H5.5v1.667H3.833v-1.667zM5.5 11.667h1.667v1.667H5.5v-1.667zM3.833 8.333H5.5V10H3.833V8.333zM5.5 8.333h1.667V10H5.5V8.333z" fill="#37474F"/>
    <path d="M8.833 3.333H10.5V5H8.833V3.333zM8.833 5H10.5v1.667H8.833V5zM7.167 6.667h1.666v1.667H7.166V6.667z" fill="#fff"/>
    <path d="M8.833 6.667H10.5v1.667H8.833V6.667zM7.167 8.334h1.666V10H7.167V8.334zM7.167 10h1.666v1.667H7.167V10zM8.833 10H10.5v1.667H8.833V10zM10.5 10h1.667v1.667H10.5V10zM12.167 10h1.666v1.667h-1.666V10zM13.833 10H15.5v1.667h-1.667V10zM7.167 11.667h1.666v1.667H7.167v-1.667zM8.833 11.667H10.5v1.667H8.833v-1.667zM10.5 11.667h1.667v1.667H10.5v-1.667zM12.167 11.667h1.666v1.667h-1.666v-1.667z" fill="#FCE9E6"/>
    <path d="M13.833 11.666H15.5v1.667h-1.667v-1.667zM7.167 13.333h1.666V15H7.166v-1.667zM8.833 13.333H10.5V15H8.833v-1.667zM10.5 13.333h1.666V15H10.5v-1.667zM12.166 13.333h1.667V15h-1.667v-1.667z" fill="#FFCBB8"/>
    <path d="M13.833 13.333H15.5V15h-1.667v-1.667zM7.167 15h1.666v1.666H7.167V15zM8.833 15H10.5v1.666H8.833V15zM10.5 15h1.667v1.666H10.5V15zM12.167 15h1.666v1.666h-1.666V15zM13.833 15H15.5v1.666h-1.667V15z" fill="#FF5601"/>
</svg>
