<svg width="100%" height="100%" viewBox="0 0 16 16" fill="none" xmlns="http://www.w3.org/2000/svg">
    <path d="M9.333 2.667H8V1.333h1.333v1.334zM9.333 10.667H8V12h1.333v-1.333zM8.666 12H7.333v1.333h1.333V12zM8.666 13.333H7.333v1.334h1.333v-1.334zM6.667 2.667H8V1.333H6.667v1.334zM6.667 10.667H8V12H6.667v-1.333zM10.666 4H9.333V2.667h1.333V4zM10.666 9.333H9.333v1.334h1.333V9.333zM5.333 4h1.333V2.667H5.333V4zM5.333 9.333h1.333v1.334H5.333V9.333zM12 5.333h-1.334V4H12v1.333zM12 8h-1.334v1.333H12V8zM4 5.333h1.333V4H4v1.333zM4 8h1.333v1.333H4V8zM13.333 5.333H12V4h1.333v1.333zM13.333 8H12v1.333h1.333V8zM2.667 5.333H4V4H2.667v1.333zM2.667 8H4v1.333H2.667V8zM13.333 6.667H12V5.333h1.333v1.334zM13.333 6.667H12V8h1.333V6.667zM2.667 6.667H4V5.333H2.667v1.334zM2.667 6.667H4V8H2.667V6.667zM10.666 2.667H9.333V1.333h1.333v1.334zM10.666 10.667H9.333V12h1.333v-1.333zM5.333 2.667h1.333V1.333H5.333v1.334zM5.333 10.667h1.333V12H5.333v-1.333zM12 4h-1.334V2.667H12V4zM12 9.333h-1.334v1.334H12V9.333zM4 4h1.333V2.667H4V4zM4 9.333h1.333v1.334H4V9.333z" fill="#37474F"/>
    <path d="M6.667 2.667h2.666V4H6.667V2.667zM5.333 4H8v1.333H5.333V4zM8 4h2.667v1.333H8V4zM4 5.333h8v1.334H4V5.333zM6.667 10.667h2.666V9.333H6.667v1.334zM5.333 9.333H8V8H5.333v1.333zM8 9.333h2.667V8H8v1.333zM4 8h8V6.667H4V8z" fill="#FFAA8A"/>
    <path fill="#fff" d="M6.667 4H8v1.333H6.667z"/>
    <path d="M5.333 4h1.333v1.333H5.333V4zM6.666 5.333H8v1.334H6.666V5.333zM8 4h1.333v1.333H8V4zM6.666 2.667H8V4H6.666V2.667z" fill="#FFCBB8"/>
    <path d="M6.667 9.333h2.666v1.334H6.666V9.333zM9.333 8h1.333v1.333H9.333V8zM10.666 6.667H12V8h-1.334V6.667zM8 8h1.333v1.333H8V8zM9.333 6.667h1.333V8H9.333V6.667zM10.666 5.333H12v1.334h-1.334V5.333z" fill="#FF5601"/>
</svg>
