<svg width="24" height="24" viewBox="0 0 24 24" fill="none" xmlns="http://www.w3.org/2000/svg">
<path d="M20 16H22V18H20V16Z" fill="#37474F"/>
<path d="M8 16H10V18H8V16Z" fill="#37474F"/>
<path d="M20 18H22V20H20V18Z" fill="#37474F"/>
<path d="M8 18H10V20H8V18Z" fill="#37474F"/>
<path d="M18 20H20V22H18V20Z" fill="#37474F"/>
<path d="M6 20H8V22H6V20Z" fill="#37474F"/>
<path d="M16 18H18V20H16V18Z" fill="#37474F"/>
<path d="M4 18H6V20H4V18Z" fill="#37474F"/>
<path d="M16 16H18V18H16V16Z" fill="#37474F"/>
<path d="M4 16H6V18H4V16Z" fill="#37474F"/>
<path d="M16 14H18V16H16V14Z" fill="#37474F"/>
<path d="M4 14H6V16H4V14Z" fill="#37474F"/>
<path d="M20 14H22V16H20V14Z" fill="#37474F"/>
<path d="M8 14H10V16H8V14Z" fill="#37474F"/>
<path d="M18 12H20V14H18V12Z" fill="#37474F"/>
<path d="M6 12H8V14H6V12Z" fill="#37474F"/>
<path d="M6 10H8V12H6V10Z" fill="#37474F"/>
<path d="M6 8H8V10H6V8Z" fill="#37474F"/>
<path d="M6 6H8V8H6V6Z" fill="#37474F"/>
<path d="M2 6H4V8H2V6Z" fill="#37474F"/>
<path d="M12 6H10V8H12V6Z" fill="#37474F"/>
<path d="M4 8H6V10H4V8Z" fill="#37474F"/>
<path d="M10 8H8V10H10V8Z" fill="#37474F"/>
<path d="M6 4H8V6H6V4Z" fill="#37474F"/>
<path d="M2 4H4V6H2V4Z" fill="#37474F"/>
<path d="M12 4H10V6H12V4Z" fill="#37474F"/>
<path d="M6 2H8V4H6V2Z" fill="#37474F"/>
<path d="M2 2H4V4H2V2Z" fill="#37474F"/>
<path d="M12 2H10V4H12V2Z" fill="#37474F"/>
<path d="M20 10H22V12H20V10Z" fill="#37474F"/>
<path d="M20 8H22V10H20V8Z" fill="#37474F"/>
<path d="M20 6H22V8H20V6Z" fill="#37474F"/>
<path d="M20 4H22V6H20V4Z" fill="#37474F"/>
<path d="M18 2H20V4H18V2Z" fill="#37474F"/>
<path d="M16 4H18V6H16V4Z" fill="#37474F"/>
<path d="M14 6H16V8H14V6Z" fill="#37474F"/>
<path d="M14 8H16V10H14V8Z" fill="#37474F"/>
<path d="M14 10H16V12H14V10Z" fill="#37474F"/>
<path d="M16 10H18V12H16V10Z" fill="#37474F"/>
<path d="M8 14H6V16H8V14Z" fill="#FFAA8A"/>
<path d="M8 16H6V18H8V16Z" fill="#FFAA8A"/>
<path d="M8 18H6V20H8V18Z" fill="#FFAA8A"/>
<path d="M20 14H18V16H20V14Z" fill="#FFAA8A"/>
<path d="M20 16H18V18H20V16Z" fill="#FFAA8A"/>
<path d="M20 18H18V20H20V18Z" fill="#FFAA8A"/>
<path d="M20 4H18V6H20V4Z" fill="#B0BEC5"/>
<path d="M20 6H18V8H20V6Z" fill="#B0BEC5"/>
<path d="M20 8H18V10H20V8Z" fill="#B0BEC5"/>
<path d="M6 18H8V20H6V18Z" fill="#FF5601"/>
<path d="M18 18H20V20H18V18Z" fill="#FF5601"/>
<rect x="18" y="10" width="2" height="2" fill="#546E7A"/>
<path d="M6 14H8V16H6V14Z" fill="#FFCBB8"/>
<path d="M18 14H20V16H18V14Z" fill="#FFCBB8"/>
<path d="M18 4H20V6H18V4Z" fill="#CFD8DB"/>
<path d="M16 6H18V8H16V6Z" fill="#CFD8DB"/>
<path d="M16 8H18V10H16V8Z" fill="#CFD8DB"/>
</svg>
