<svg width="100%" height="100%" viewBox="0 0 16 16" fill="none" xmlns="http://www.w3.org/2000/svg">
<path d="M9.33317 2.66666H7.99984V1.33333H9.33317V2.66666Z" fill="#37474F"/>
<path d="M9.33317 10.6667H7.99984V12H9.33317V10.6667Z" fill="#37474F"/>
<path d="M8.6665 12H7.33317V13.3333H8.6665V12Z" fill="#37474F"/>
<path d="M8.6665 13.3333H7.33317V14.6667H8.6665V13.3333Z" fill="#37474F"/>
<path d="M6.6665 2.66666H7.99984V1.33333H6.6665V2.66666Z" fill="#37474F"/>
<path d="M6.6665 10.6667H7.99984V12H6.6665V10.6667Z" fill="#37474F"/>
<path d="M10.6665 3.99999H9.33317V2.66666H10.6665V3.99999Z" fill="#37474F"/>
<path d="M10.6665 9.33333H9.33317V10.6667H10.6665V9.33333Z" fill="#37474F"/>
<path d="M5.33317 3.99999H6.6665V2.66666H5.33317V3.99999Z" fill="#37474F"/>
<path d="M5.33317 9.33333H6.6665V10.6667H5.33317V9.33333Z" fill="#37474F"/>
<path d="M11.9998 5.33333H10.6665V3.99999H11.9998V5.33333Z" fill="#37474F"/>
<path d="M11.9998 8H10.6665V9.33333H11.9998V8Z" fill="#37474F"/>
<path d="M3.99984 5.33333H5.33317V3.99999H3.99984V5.33333Z" fill="#37474F"/>
<path d="M3.99984 8H5.33317V9.33333H3.99984V8Z" fill="#37474F"/>
<path d="M13.3332 5.33333H11.9998V3.99999H13.3332V5.33333Z" fill="#37474F"/>
<path d="M13.3332 8H11.9998V9.33333H13.3332V8Z" fill="#37474F"/>
<path d="M2.6665 5.33333H3.99984V3.99999H2.6665V5.33333Z" fill="#37474F"/>
<path d="M2.6665 8H3.99984V9.33333H2.6665V8Z" fill="#37474F"/>
<path d="M13.3332 6.66666H11.9998V5.33333H13.3332V6.66666Z" fill="#37474F"/>
<path d="M13.3332 6.66666H11.9998V8H13.3332V6.66666Z" fill="#37474F"/>
<path d="M2.6665 6.66666H3.99984V5.33333H2.6665V6.66666Z" fill="#37474F"/>
<path d="M2.6665 6.66666H3.99984V8H2.6665V6.66666Z" fill="#37474F"/>
<path d="M10.6665 2.66666H9.33317V1.33333H10.6665V2.66666Z" fill="#37474F"/>
<path d="M10.6665 10.6667H9.33317V12H10.6665V10.6667Z" fill="#37474F"/>
<path d="M5.33317 2.66666H6.6665V1.33333H5.33317V2.66666Z" fill="#37474F"/>
<path d="M5.33317 10.6667H6.6665V12H5.33317V10.6667Z" fill="#37474F"/>
<path d="M11.9998 3.99999H10.6665V2.66666H11.9998V3.99999Z" fill="#37474F"/>
<path d="M11.9998 9.33333H10.6665V10.6667H11.9998V9.33333Z" fill="#37474F"/>
<path d="M3.99984 3.99999H5.33317V2.66666H3.99984V3.99999Z" fill="#37474F"/>
<path d="M3.99984 9.33333H5.33317V10.6667H3.99984V9.33333Z" fill="#37474F"/>
<path d="M6.66667 2.66666H9.33333V3.99999H6.66667V2.66666Z" fill="#FFAA8A"/>
<path d="M5.33333 3.99999H8V5.33332H5.33333V3.99999Z" fill="#FFAA8A"/>
<path d="M8 3.99999H10.6667V5.33332H8V3.99999Z" fill="#FFAA8A"/>
<path d="M4 5.33332H12V6.66666H4V5.33332Z" fill="#FFAA8A"/>
<path d="M6.66667 10.6667H9.33333V9.33332H6.66667V10.6667Z" fill="#FFAA8A"/>
<path d="M5.33333 9.33332H8V7.99999H5.33333V9.33332Z" fill="#FFAA8A"/>
<path d="M8 9.33332H10.6667V7.99999H8V9.33332Z" fill="#FFAA8A"/>
<path d="M4 7.99999H12V6.66666H4V7.99999Z" fill="#FFAA8A"/>
<rect x="6.6665" y="4" width="1.33333" height="1.33333" fill="white"/>
<path d="M5.33301 3.99999H6.66634V5.33332H5.33301V3.99999Z" fill="#FFCBB8"/>
<path d="M6.66634 5.33332H7.99967V6.66666H6.66634V5.33332Z" fill="#FFCBB8"/>
<path d="M7.99967 3.99999H9.33301V5.33332H7.99967V3.99999Z" fill="#FFCBB8"/>
<path d="M6.66634 2.66666H7.99967V3.99999H6.66634V2.66666Z" fill="#FFCBB8"/>
<path d="M6.6665 9.33333H9.33317V10.6667H6.6665V9.33333Z" fill="#FF5601"/>
<path d="M9.33317 7.99999H10.6665V9.33333H9.33317V7.99999Z" fill="#FF5601"/>
<path d="M10.6665 6.66666H11.9998V7.99999H10.6665V6.66666Z" fill="#FF5601"/>
<path d="M7.99984 7.99999H9.33317V9.33333H7.99984V7.99999Z" fill="#FF5601"/>
<path d="M9.33317 6.66666H10.6665V7.99999H9.33317V6.66666Z" fill="#FF5601"/>
<path d="M10.6665 5.33333H11.9998V6.66666H10.6665V5.33333Z" fill="#FF5601"/>
</svg>
