<svg width="100%" height="100%" viewBox="0 0 16 16" fill="none" xmlns="http://www.w3.org/2000/svg">
    <path d="M5.333 2.667h5.333v4h2.667v6.666H2.667V6.666h2.666v-4z" fill="#FFAA8A"/>
    <path d="M5.333 1.333h5.334v1.334H5.334V1.334zM5.333 4H4V2.667h1.333V4zM6 8H4.667v2.667H6V12h1.333v-1.333h1.334V12H10v-1.333h1.334V8H10v2.667H8.667V9.334H7.334v1.333H6V8z" fill="#37474F"/>
    <path fill-rule="evenodd" clip-rule="evenodd" d="M6.667 5.333V4H5.334v1.333H4v1.334H2.667V8H1.334v4h1.333v1.334H4v1.333h8v-1.333h1.334V12h1.333V8h-1.333V6.667H12V5.334h-1.333V4H12V2.667h-1.333V4H9.334v1.333H6.667zm0 0v1.334h2.667V5.334h1.333v1.333H12V8h1.334v4H12v1.334H4V12H2.667V8H4V6.667h1.333V5.334h1.334z" fill="#37474F"/>
    <path d="M5.333 2.667H8V4H5.333V2.667zM6.667 5.333H5.332v1.333H4V8H2.667v4H4V8h1.333V6.667h1.333V5.332z" fill="#FFCBB8"/>
    <path d="M10.667 5.333H9.333v1.334H6.667V8h2.666V6.667h1.334V5.334zM13.333 8H12v4h-2v1.334h2V12h1.333V8zM6 12H4v1.334h2V12z" fill="#FF5601"/>
</svg>
