<svg width="24" height="24" viewBox="0 0 24 24" fill="none" xmlns="http://www.w3.org/2000/svg">
<path d="M10 4H14V12H10V4Z" fill="#FFAA8A"/>
<path d="M4 8H8V12H4V8Z" fill="#FFAA8A"/>
<path d="M6 6H8V8H6V6Z" fill="#FFAA8A"/>
<path d="M16 6H18V8H16V6Z" fill="#FFAA8A"/>
<path d="M16 8H20V12H16V8Z" fill="#FFAA8A"/>
<path d="M10 2H12V4H10V2Z" fill="#37474F"/>
<path d="M14 2H12V4H14V2Z" fill="#37474F"/>
<path d="M8 2H10V4H8V2Z" fill="#37474F"/>
<path d="M16 2H14V4H16V2Z" fill="#37474F"/>
<path d="M6 2H8V4H6V2Z" fill="#37474F"/>
<path d="M18 2H16V4H18V2Z" fill="#37474F"/>
<path d="M4 4H6V6H4V4Z" fill="#37474F"/>
<path d="M20 4H18V6H20V4Z" fill="#37474F"/>
<path d="M4 6H6V8H4V6Z" fill="#37474F"/>
<path d="M20 6H18V8H20V6Z" fill="#37474F"/>
<path d="M2 8H4V10H2V8Z" fill="#37474F"/>
<path d="M22 8H20V10H22V8Z" fill="#37474F"/>
<path d="M2 10H4V12H2V10Z" fill="#37474F"/>
<path d="M22 10H20V12H22V10Z" fill="#37474F"/>
<path d="M4 12H6V14H4V12Z" fill="#37474F"/>
<path d="M4 14H6V16H4V14Z" fill="#37474F"/>
<path d="M4 16H6V18H4V16Z" fill="#37474F"/>
<path d="M4 18H6V20H4V18Z" fill="#37474F"/>
<path d="M4 20H6V22H4V20Z" fill="#37474F"/>
<path d="M6 20H8V22H6V20Z" fill="#37474F"/>
<path d="M8 20H10V22H8V20Z" fill="#37474F"/>
<path d="M8 18H10V20H8V18Z" fill="#37474F"/>
<path d="M8 16H10V18H8V16Z" fill="#37474F"/>
<path d="M10 16H12V18H10V16Z" fill="#37474F"/>
<path d="M12 16H14V18H12V16Z" fill="#37474F"/>
<path d="M12 18H14V20H12V18Z" fill="#37474F"/>
<path d="M12 20H14V22H12V20Z" fill="#37474F"/>
<path d="M14 20H16V22H14V20Z" fill="#37474F"/>
<path d="M16 20H18V22H16V20Z" fill="#37474F"/>
<path d="M18 20H20V22H18V20Z" fill="#37474F"/>
<path d="M18 18H20V20H18V18Z" fill="#37474F"/>
<path d="M18 16H20V18H18V16Z" fill="#37474F"/>
<path d="M18 14H20V16H18V14Z" fill="#37474F"/>
<path d="M20 12H18V14H20V12Z" fill="#37474F"/>
<path d="M6 12H8V14H6V12Z" fill="#37474F"/>
<path d="M18 12H16V14H18V12Z" fill="#37474F"/>
<path d="M8 10H10V12H8V10Z" fill="#37474F"/>
<path d="M16 10H14V12H16V10Z" fill="#37474F"/>
<path d="M10 12H12V14H10V12Z" fill="#37474F"/>
<path d="M14 12H12V14H14V12Z" fill="#37474F"/>
<path d="M6 4H8V6H6V4Z" fill="#FFCBB8"/>
<path d="M10 4H12V6H10V4Z" fill="#FFCBB8"/>
<path d="M12 4H14V6H12V4Z" fill="#FFCBB8"/>
<path d="M16 4H18V6H16V4Z" fill="#FFCBB8"/>
<path d="M4 8H6V10H4V8Z" fill="#FFCBB8"/>
<path d="M8 4H10V10H8V4Z" fill="white"/>
<path d="M14 4H16V10H14V4Z" fill="white"/>
<path d="M4 10H8V12H4V10Z" fill="#FF5601"/>
<path d="M10 10H14V12H10V10Z" fill="#FF5601"/>
<path d="M16 10H18V8H20V10V12H16V10Z" fill="#FF5601"/>
<path d="M8 12H10V14H8V12Z" fill="#B0BEC5"/>
<path d="M6 14H18V16H6V14Z" fill="#B0BEC5"/>
<path d="M14 12H16V14H14V12Z" fill="#B0BEC5"/>
<path d="M6 16H8V20H6V16Z" fill="#CFD8DB"/>
<path d="M14 16H18V20H14V16Z" fill="#CFD8DB"/>
</svg>
