<svg width="100%" height="100%" viewBox="0 0 16 16" fill="none" xmlns="http://www.w3.org/2000/svg">
    <path d="M3.333 3.333h9.334V10H3.334V3.333zM6 10h1.333v1.334H6V10z" fill="#fff"/>
    <path d="M2 4.667h1.333V6H2V4.667zM2 6h1.333v1.333H2V6zM2 7.333h1.333v1.334H2V7.333zM3.333 8.667h1.334V10H3.333V8.667zM4.667 10H6v1.333H4.667V10zM6 11.333h1.333v1.334H6v-1.334zM7.333 10h1.334v1.333H7.333V10zM8.667 10H10v1.333H8.667V10zM10 10h1.333v1.333H10V10zM11.333 8.667h1.334V10h-1.334V8.667zM12.667 7.333H14v1.334h-1.333V7.333zM12.667 6H14v1.333h-1.333V6zM12.667 4.667H14V6h-1.333V4.667zM11.333 3.333h1.334v1.334h-1.334V3.333zM10 2h1.333v1.333H10V2zM8.667 2H10v1.333H8.667V2zM7.333 2h1.334v1.333H7.333V2zM6 2h1.333v1.333H6V2zM4.667 2H6v1.333H4.667V2zM3.333 3.333h1.334v1.334H3.333V3.333zM4.667 6H6v1.333H4.667V6zM7.333 6h1.334v1.333H7.333V6zM10 6h1.333v1.333H10V6zM4.667 11.333H6v1.334H4.667v-1.334zM3.333 12.667h1.334V14H3.333v-1.333z" fill="#37474F"/>
</svg>
