<svg width="160" height="160" viewBox="0 0 160 160" fill="none" xmlns="http://www.w3.org/2000/svg">
<rect opacity="0.5" x="28" y="28" width="104" height="104" fill="#D9D9D9"/>
<rect width="5.33333" height="5.33333" transform="matrix(-1 0 0 1 80 138.667)" fill="black"/>
<rect x="80" y="138.667" width="5.33333" height="5.33333" fill="black"/>
<rect width="5.33333" height="5.33333" transform="matrix(-1 0 0 1 74.6667 138.667)" fill="black"/>
<rect x="85.3333" y="138.667" width="5.33333" height="5.33333" fill="black"/>
<rect width="5.33333" height="5.33333" transform="matrix(-1 0 0 1 69.3333 138.667)" fill="black"/>
<rect x="90.6667" y="138.667" width="5.33333" height="5.33333" fill="black"/>
<rect width="5.33333" height="5.33333" transform="matrix(-1 0 0 1 64 138.667)" fill="black"/>
<rect x="96" y="138.667" width="5.33333" height="5.33333" fill="black"/>
<rect width="5.33333" height="5.33333" transform="matrix(-1 0 0 1 58.6667 133.333)" fill="black"/>
<rect x="101.333" y="133.333" width="5.33333" height="5.33333" fill="black"/>
<rect width="5.33333" height="5.33333" transform="matrix(-1 0 0 1 53.3333 133.333)" fill="black"/>
<rect x="106.667" y="133.333" width="5.33333" height="5.33333" fill="black"/>
<rect width="5.33333" height="5.33333" transform="matrix(-1 0 0 1 48 128)" fill="black"/>
<rect x="112" y="128" width="5.33333" height="5.33333" fill="black"/>
<rect width="5.33333" height="5.33333" transform="matrix(-1 0 0 1 42.6667 122.667)" fill="black"/>
<rect x="117.333" y="122.667" width="5.33333" height="5.33333" fill="black"/>
<rect width="5.33333" height="5.33333" transform="matrix(-1 0 0 1 37.3333 117.333)" fill="black"/>
<rect x="122.667" y="117.333" width="5.33333" height="5.33333" fill="black"/>
<rect width="5.33333" height="5.33333" transform="matrix(-1 0 0 1 80 16)" fill="black"/>
<rect x="80" y="16" width="5.33333" height="5.33333" fill="black"/>
<rect width="5.33333" height="5.33333" transform="matrix(-1 0 0 1 74.6667 16)" fill="black"/>
<rect x="85.3333" y="16" width="5.33333" height="5.33333" fill="black"/>
<rect width="5.33333" height="5.33333" transform="matrix(-1 0 0 1 69.3333 16)" fill="black"/>
<rect x="90.6667" y="16" width="5.33333" height="5.33333" fill="black"/>
<rect width="5.33333" height="5.33333" transform="matrix(-1 0 0 1 69.3333 16)" fill="black"/>
<rect x="90.6667" y="16" width="5.33333" height="5.33333" fill="black"/>
<rect width="5.33333" height="5.33333" transform="matrix(-1 0 0 1 64 16)" fill="black"/>
<rect x="96" y="16" width="5.33333" height="5.33333" fill="black"/>
<rect width="5.33333" height="5.33333" transform="matrix(-1 0 0 1 58.6667 16)" fill="black"/>
<rect x="101.333" y="16" width="5.33333" height="5.33333" fill="black"/>
<rect width="5.33333" height="5.33333" transform="matrix(-1 0 0 1 53.3333 21.3333)" fill="black"/>
<rect x="106.667" y="21.3333" width="5.33333" height="5.33333" fill="black"/>
<rect width="5.33333" height="5.33333" transform="matrix(-1 0 0 1 48 21.3333)" fill="black"/>
<rect x="112" y="21.3333" width="5.33333" height="5.33333" fill="black"/>
<rect width="5.33333" height="5.33333" transform="matrix(-1 0 0 1 42.6667 26.6665)" fill="black"/>
<rect x="117.333" y="26.6665" width="5.33333" height="5.33333" fill="black"/>
<rect width="5.33333" height="5.33333" transform="matrix(-1 0 0 1 37.3333 26.6665)" fill="black"/>
<rect x="32" y="117.333" width="5.33333" height="5.33333" transform="rotate(180 32 117.333)" fill="black"/>
<rect x="122.667" y="26.6665" width="5.33333" height="5.33333" fill="black"/>
<rect width="5.33333" height="5.33333" transform="matrix(1 0 0 -1 128 117.333)" fill="black"/>
<rect width="5.33333" height="5.33333" transform="matrix(-1 0 0 1 32 32)" fill="black"/>
<rect x="26.6667" y="112" width="5.33333" height="5.33333" transform="rotate(180 26.6667 112)" fill="black"/>
<rect width="5.33333" height="5.33333" transform="matrix(-1 0 0 1 26.6667 37.3333)" fill="black"/>
<rect x="26.6667" y="106.667" width="5.33333" height="5.33333" transform="rotate(180 26.6667 106.667)" fill="black"/>
<rect x="37.3333" y="101.333" width="5.33333" height="5.33333" transform="rotate(180 37.3333 101.333)" fill="black"/>
<rect x="133.333" y="96" width="5.33333" height="5.33333" transform="rotate(180 133.333 96)" fill="black"/>
<rect x="32" y="96" width="5.33333" height="5.33333" transform="rotate(180 32 96)" fill="black"/>
<rect width="5.33333" height="5.33333" transform="matrix(1 0 0 -1 122.667 101.333)" fill="black"/>
<rect x="42.6667" y="106.667" width="5.33333" height="5.33333" transform="rotate(180 42.6667 106.667)" fill="black"/>
<rect width="5.33333" height="5.33333" transform="matrix(1 0 0 -1 117.333 106.667)" fill="black"/>
<rect x="53.3333" y="112" width="5.33333" height="5.33333" transform="rotate(180 53.3333 112)" fill="black"/>
<rect width="5.33333" height="5.33333" transform="matrix(1 0 0 -1 106.667 112)" fill="black"/>
<rect x="64" y="112" width="5.33333" height="5.33333" transform="rotate(180 64 112)" fill="black"/>
<rect width="5.33333" height="5.33333" transform="matrix(1 0 0 -1 96 112)" fill="black"/>
<rect x="48" y="106.667" width="5.33333" height="5.33333" transform="rotate(180 48 106.667)" fill="black"/>
<rect width="5.33333" height="5.33333" transform="matrix(1 0 0 -1 112 106.667)" fill="black"/>
<rect x="58.6667" y="112" width="5.33333" height="5.33333" transform="rotate(180 58.6667 112)" fill="black"/>
<rect width="5.33333" height="5.33333" transform="matrix(1 0 0 -1 101.333 112)" fill="black"/>
<rect x="69.3333" y="112" width="5.33333" height="5.33333" transform="rotate(180 69.3333 112)" fill="black"/>
<rect width="5.33333" height="5.33333" transform="matrix(1 0 0 -1 90.6667 112)" fill="black"/>
<rect x="74.6667" y="112" width="5.33333" height="5.33333" transform="rotate(180 74.6667 112)" fill="black"/>
<rect width="5.33333" height="5.33333" transform="matrix(1 0 0 -1 85.3333 112)" fill="black"/>
<rect x="80" y="112" width="5.33333" height="5.33333" transform="rotate(180 80 112)" fill="black"/>
<rect width="5.33333" height="5.33333" transform="matrix(1 0 0 -1 80 112)" fill="black"/>
<rect x="133.333" y="37.3333" width="5.33333" height="5.33333" fill="black"/>
<rect width="5.33333" height="5.33333" transform="matrix(1 0 0 -1 133.333 106.667)" fill="black"/>
<rect x="128" y="32" width="5.33333" height="5.33333" fill="black"/>
<rect width="5.33333" height="5.33333" transform="matrix(1 0 0 -1 133.333 112)" fill="black"/>
<rect width="5.33333" height="5.33333" transform="matrix(-1 0 0 1 16 58.6665)" fill="black"/>
<rect width="5.33333" height="5.33333" transform="matrix(-1 0 0 1 16 53.3333)" fill="black"/>
<rect width="5.33333" height="5.33333" transform="matrix(-1 0 0 1 16 48)" fill="black"/>
<rect width="5.33333" height="5.33333" transform="matrix(-1 0 0 1 21.3333 42.6665)" fill="black"/>
<rect x="21.3333" y="101.333" width="5.33333" height="5.33333" transform="rotate(180 21.3333 101.333)" fill="black"/>
<rect x="144" y="58.6665" width="5.33333" height="5.33333" fill="black"/>
<rect x="144" y="53.3333" width="5.33333" height="5.33333" fill="black"/>
<rect x="144" y="48" width="5.33333" height="5.33333" fill="black"/>
<rect x="138.667" y="42.6665" width="5.33333" height="5.33333" fill="black"/>
<rect width="5.33333" height="5.33333" transform="matrix(1 0 0 -1 138.667 101.333)" fill="black"/>
<rect width="5.33333" height="5.33333" transform="matrix(-1 0 0 1 16 64)" fill="black"/>
<rect x="144" y="64" width="5.33333" height="5.33333" fill="black"/>
<rect width="5.33333" height="5.33333" transform="matrix(-1 0 0 1 16 69.3333)" fill="black"/>
<rect x="144" y="69.3333" width="5.33333" height="5.33333" fill="black"/>
<rect width="5.33333" height="5.33333" transform="matrix(-1 0 0 1 16 74.6665)" fill="black"/>
<rect x="144" y="74.6665" width="5.33333" height="5.33333" fill="black"/>
<rect width="5.33333" height="5.33333" transform="matrix(-1 0 0 1 16 80)" fill="black"/>
<rect width="5.33333" height="5.33333" transform="matrix(-1 0 0 1 16 90.6665)" fill="black"/>
<rect width="5.33333" height="5.33333" transform="matrix(-1 0 0 1 16 85.3333)" fill="black"/>
<rect x="144" y="90.6665" width="5.33333" height="5.33333" fill="black"/>
<rect x="144" y="85.3333" width="5.33333" height="5.33333" fill="black"/>
<rect x="144" y="80" width="5.33333" height="5.33333" fill="black"/>
<rect x="32" y="112" width="5.33333" height="5.33333" transform="rotate(180 32 112)" fill="#313131"/>
<rect x="37.3333" y="117.333" width="5.33333" height="5.33333" transform="rotate(180 37.3333 117.333)" fill="#313131"/>
<rect x="42.6667" y="122.667" width="5.33333" height="5.33333" transform="rotate(180 42.6667 122.667)" fill="#313131"/>
<rect x="144" y="74.6665" width="5.33333" height="5.33333" transform="rotate(180 144 74.6665)" fill="#313131"/>
<rect x="144" y="69.3333" width="5.33333" height="5.33333" transform="rotate(180 144 69.3333)" fill="#313131"/>
<rect x="144" y="64" width="5.33333" height="5.33333" transform="rotate(180 144 64)" fill="#313131"/>
<rect x="144" y="58.6665" width="5.33333" height="5.33333" transform="rotate(180 144 58.6665)" fill="#313131"/>
<rect x="144" y="53.3333" width="5.33333" height="5.33333" transform="rotate(180 144 53.3333)" fill="#313131"/>
<rect x="138.667" y="48" width="5.33333" height="5.33333" transform="rotate(180 138.667 48)" fill="#313131"/>
<rect x="133.333" y="42.6665" width="5.33333" height="5.33333" transform="rotate(180 133.333 42.6665)" fill="#313131"/>
<rect x="128" y="37.3333" width="5.33333" height="5.33333" transform="rotate(180 128 37.3333)" fill="#313131"/>
<rect x="122.667" y="37.3333" width="5.33333" height="5.33333" transform="rotate(180 122.667 37.3333)" fill="#313131"/>
<rect x="117.333" y="32" width="5.33333" height="5.33333" transform="rotate(180 117.333 32)" fill="#313131"/>
<rect x="112" y="32" width="5.33333" height="5.33333" transform="rotate(180 112 32)" fill="#313131"/>
<rect x="106.667" y="26.6665" width="5.33333" height="5.33333" transform="rotate(180 106.667 26.6665)" fill="#313131"/>
<rect x="101.333" y="26.6665" width="5.33333" height="5.33333" transform="rotate(180 101.333 26.6665)" fill="#313131"/>
<rect x="96" y="26.6665" width="5.33333" height="5.33333" transform="rotate(180 96 26.6665)" fill="#313131"/>
<rect x="90.6667" y="26.6665" width="5.33333" height="5.33333" transform="rotate(180 90.6667 26.6665)" fill="#313131"/>
<rect x="85.3333" y="26.6665" width="5.33333" height="5.33333" transform="rotate(180 85.3333 26.6665)" fill="#313131"/>
<rect x="80" y="26.6665" width="5.33333" height="5.33333" transform="rotate(180 80 26.6665)" fill="#313131"/>
<rect x="74.6667" y="26.6665" width="5.33333" height="5.33333" transform="rotate(180 74.6667 26.6665)" fill="#313131"/>
<rect x="69.3333" y="26.6665" width="5.33333" height="5.33333" transform="rotate(180 69.3333 26.6665)" fill="#313131"/>
<rect x="64" y="26.6665" width="5.33333" height="5.33333" transform="rotate(180 64 26.6665)" fill="#313131"/>
<rect x="58.6667" y="26.6665" width="5.33333" height="5.33333" transform="rotate(180 58.6667 26.6665)" fill="#313131"/>
<rect x="53.3333" y="32" width="5.33333" height="5.33333" transform="rotate(180 53.3333 32)" fill="#313131"/>
<rect x="48" y="32" width="5.33333" height="5.33333" transform="rotate(180 48 32)" fill="#313131"/>
<rect x="42.6667" y="37.3333" width="5.33333" height="5.33333" transform="rotate(180 42.6667 37.3333)" fill="#313131"/>
<rect x="37.3333" y="37.3333" width="5.33333" height="5.33333" transform="rotate(180 37.3333 37.3333)" fill="#313131"/>
<rect x="32" y="42.6665" width="5.33333" height="5.33333" transform="rotate(180 32 42.6665)" fill="#313131"/>
<rect x="26.6667" y="48" width="5.33333" height="5.33333" transform="rotate(180 26.6667 48)" fill="#313131"/>
<rect x="21.3333" y="53.3333" width="5.33333" height="5.33333" transform="rotate(180 21.3333 53.3333)" fill="#313131"/>
<rect x="21.3333" y="58.6665" width="5.33333" height="5.33333" transform="rotate(180 21.3333 58.6665)" fill="#313131"/>
<rect x="21.3333" y="64" width="5.33333" height="5.33333" transform="rotate(180 21.3333 64)" fill="#313131"/>
<rect x="21.3333" y="69.3333" width="5.33333" height="5.33333" transform="rotate(180 21.3333 69.3333)" fill="#313131"/>
<rect x="21.3333" y="74.6665" width="5.33333" height="5.33333" transform="rotate(180 21.3333 74.6665)" fill="#313131"/>
<rect x="21.3333" y="80" width="5.33333" height="5.33333" transform="rotate(180 21.3333 80)" fill="#313131"/>
<rect x="21.3333" y="96" width="5.33333" height="5.33333" transform="rotate(180 21.3333 96)" fill="#313131"/>
<rect x="26.6667" y="101.333" width="5.33333" height="5.33333" transform="rotate(180 26.6667 101.333)" fill="#313131"/>
<rect x="32" y="106.667" width="5.33333" height="5.33333" transform="rotate(180 32 106.667)" fill="#313131"/>
<rect x="37.3333" y="112" width="5.33333" height="5.33333" transform="rotate(180 37.3333 112)" fill="#313131"/>
<rect x="42.6667" y="117.333" width="5.33333" height="5.33333" transform="rotate(180 42.6667 117.333)" fill="#313131"/>
<rect x="48" y="117.333" width="5.33333" height="5.33333" transform="rotate(180 48 117.333)" fill="#313131"/>
<rect x="48" y="122.667" width="5.33333" height="5.33333" transform="rotate(180 48 122.667)" fill="#313131"/>
<rect x="53.3333" y="128" width="5.33333" height="5.33333" transform="rotate(180 53.3333 128)" fill="#313131"/>
<rect x="53.3333" y="122.667" width="5.33333" height="5.33333" transform="rotate(180 53.3333 122.667)" fill="#313131"/>
<rect x="58.6667" y="128" width="5.33333" height="5.33333" transform="rotate(180 58.6667 128)" fill="#313131"/>
<rect x="58.6667" y="122.667" width="5.33333" height="5.33333" transform="rotate(180 58.6667 122.667)" fill="#313131"/>
<rect x="64" y="128" width="5.33333" height="5.33333" transform="rotate(180 64 128)" fill="#313131"/>
<rect x="64" y="122.667" width="5.33333" height="5.33333" transform="rotate(180 64 122.667)" fill="#313131"/>
<rect x="69.3333" y="128" width="5.33333" height="5.33333" transform="rotate(180 69.3333 128)" fill="#313131"/>
<rect x="69.3333" y="122.667" width="5.33333" height="5.33333" transform="rotate(180 69.3333 122.667)" fill="#313131"/>
<rect x="74.6667" y="128" width="5.33333" height="5.33333" transform="rotate(180 74.6667 128)" fill="#313131"/>
<rect x="74.6667" y="122.667" width="5.33333" height="5.33333" transform="rotate(180 74.6667 122.667)" fill="#313131"/>
<rect x="80" y="128" width="5.33333" height="5.33333" transform="rotate(180 80 128)" fill="#313131"/>
<rect x="80" y="122.667" width="5.33333" height="5.33333" transform="rotate(180 80 122.667)" fill="#313131"/>
<rect x="85.3333" y="128" width="5.33333" height="5.33333" transform="rotate(180 85.3333 128)" fill="#313131"/>
<rect x="85.3333" y="122.667" width="5.33333" height="5.33333" transform="rotate(180 85.3333 122.667)" fill="#313131"/>
<rect x="90.6667" y="128" width="5.33333" height="5.33333" transform="rotate(180 90.6667 128)" fill="#313131"/>
<rect x="90.6667" y="122.667" width="5.33333" height="5.33333" transform="rotate(180 90.6667 122.667)" fill="#313131"/>
<rect x="96" y="122.667" width="5.33333" height="5.33333" transform="rotate(180 96 122.667)" fill="#313131"/>
<rect x="48" y="128" width="5.33333" height="5.33333" transform="rotate(180 48 128)" fill="#313131"/>
<rect x="53.3333" y="133.333" width="5.33333" height="5.33333" transform="rotate(180 53.3333 133.333)" fill="#313131"/>
<rect x="58.6667" y="133.333" width="5.33333" height="5.33333" transform="rotate(180 58.6667 133.333)" fill="#313131"/>
<rect x="64" y="133.333" width="5.33333" height="5.33333" transform="rotate(180 64 133.333)" fill="#313131"/>
<rect x="64" y="138.667" width="5.33333" height="5.33333" transform="rotate(180 64 138.667)" fill="#313131"/>
<rect x="69.3333" y="133.333" width="5.33333" height="5.33333" transform="rotate(180 69.3333 133.333)" fill="#313131"/>
<rect x="69.3333" y="138.667" width="5.33333" height="5.33333" transform="rotate(180 69.3333 138.667)" fill="#313131"/>
<rect x="74.6667" y="133.333" width="5.33333" height="5.33333" transform="rotate(180 74.6667 133.333)" fill="#313131"/>
<rect x="74.6667" y="138.667" width="5.33333" height="5.33333" transform="rotate(180 74.6667 138.667)" fill="#313131"/>
<rect x="80" y="133.333" width="5.33333" height="5.33333" transform="rotate(180 80 133.333)" fill="#313131"/>
<rect x="80" y="138.667" width="5.33333" height="5.33333" transform="rotate(180 80 138.667)" fill="#313131"/>
<rect x="85.3333" y="133.333" width="5.33333" height="5.33333" transform="rotate(180 85.3333 133.333)" fill="#313131"/>
<rect x="96" y="128" width="5.33333" height="5.33333" transform="rotate(180 96 128)" fill="#181818"/>
<rect x="85.3333" y="138.667" width="5.33333" height="5.33333" transform="rotate(180 85.3333 138.667)" fill="#181818"/>
<rect x="90.6667" y="133.333" width="5.33333" height="5.33333" transform="rotate(180 90.6667 133.333)" fill="#181818"/>
<rect x="106.667" y="122.667" width="5.33333" height="5.33333" transform="rotate(180 106.667 122.667)" fill="#181818"/>
<rect x="106.667" y="117.333" width="5.33333" height="5.33333" transform="rotate(180 106.667 117.333)" fill="#181818"/>
<rect x="112" y="122.667" width="5.33333" height="5.33333" transform="rotate(180 112 122.667)" fill="#181818"/>
<rect x="112" y="117.333" width="5.33333" height="5.33333" transform="rotate(180 112 117.333)" fill="#181818"/>
<rect x="117.333" y="117.333" width="5.33333" height="5.33333" transform="rotate(180 117.333 117.333)" fill="#181818"/>
<rect x="117.333" y="112" width="5.33333" height="5.33333" transform="rotate(180 117.333 112)" fill="#181818"/>
<rect x="122.667" y="117.333" width="5.33333" height="5.33333" transform="rotate(180 122.667 117.333)" fill="#181818"/>
<rect x="122.667" y="112" width="5.33333" height="5.33333" transform="rotate(180 122.667 112)" fill="#181818"/>
<rect x="128" y="106.667" width="5.33333" height="5.33333" transform="rotate(180 128 106.667)" fill="#181818"/>
<rect x="133.333" y="101.333" width="5.33333" height="5.33333" transform="rotate(180 133.333 101.333)" fill="#181818"/>
<rect x="138.667" y="96" width="5.33333" height="5.33333" transform="rotate(180 138.667 96)" fill="#181818"/>
<rect x="128" y="112" width="5.33333" height="5.33333" transform="rotate(180 128 112)" fill="#181818"/>
<rect x="133.333" y="106.667" width="5.33333" height="5.33333" transform="rotate(180 133.333 106.667)" fill="#181818"/>
<rect x="138.667" y="101.333" width="5.33333" height="5.33333" transform="rotate(180 138.667 101.333)" fill="#181818"/>
<rect x="144" y="96" width="5.33333" height="5.33333" transform="rotate(180 144 96)" fill="#181818"/>
<rect x="144" y="90.6665" width="5.33333" height="5.33333" transform="rotate(180 144 90.6665)" fill="#181818"/>
<rect x="144" y="85.3333" width="5.33333" height="5.33333" transform="rotate(180 144 85.3333)" fill="#181818"/>
<rect x="144" y="80" width="5.33333" height="5.33333" transform="rotate(180 144 80)" fill="#181818"/>
<rect x="101.333" y="128" width="5.33333" height="5.33333" transform="rotate(180 101.333 128)" fill="#181818"/>
<rect x="101.333" y="122.667" width="5.33333" height="5.33333" transform="rotate(180 101.333 122.667)" fill="#181818"/>
<rect x="106.667" y="128" width="5.33333" height="5.33333" transform="rotate(180 106.667 128)" fill="#181818"/>
<rect x="112" y="128" width="5.33333" height="5.33333" transform="rotate(180 112 128)" fill="#181818"/>
<rect x="117.333" y="122.667" width="5.33333" height="5.33333" transform="rotate(180 117.333 122.667)" fill="#181818"/>
<rect x="122.667" y="122.667" width="5.33333" height="5.33333" transform="rotate(180 122.667 122.667)" fill="#181818"/>
<rect x="128" y="117.333" width="5.33333" height="5.33333" transform="rotate(180 128 117.333)" fill="#181818"/>
<rect x="133.333" y="112" width="5.33333" height="5.33333" transform="rotate(180 133.333 112)" fill="#181818"/>
<rect x="90.6667" y="138.667" width="5.33333" height="5.33333" transform="rotate(180 90.6667 138.667)" fill="#181818"/>
<rect x="96" y="133.333" width="5.33333" height="5.33333" transform="rotate(180 96 133.333)" fill="#181818"/>
<rect x="96" y="138.667" width="5.33333" height="5.33333" transform="rotate(180 96 138.667)" fill="#181818"/>
<rect x="101.333" y="133.333" width="5.33333" height="5.33333" transform="rotate(180 101.333 133.333)" fill="#181818"/>
<rect x="101.333" y="138.667" width="5.33333" height="5.33333" transform="rotate(180 101.333 138.667)" fill="#181818"/>
<rect x="106.667" y="133.333" width="5.33333" height="5.33333" transform="rotate(180 106.667 133.333)" fill="#181818"/>
<rect x="112" y="133.333" width="5.33333" height="5.33333" transform="rotate(180 112 133.333)" fill="#181818"/>
<rect x="117.333" y="128" width="5.33333" height="5.33333" transform="rotate(180 117.333 128)" fill="#181818"/>
<rect x="26.6667" y="96" width="5.33333" height="5.33333" transform="rotate(180 26.6667 96)" fill="#737373"/>
<rect x="32" y="101.333" width="5.33333" height="5.33333" transform="rotate(180 32 101.333)" fill="#737373"/>
<rect x="37.3333" y="106.667" width="5.33333" height="5.33333" transform="rotate(180 37.3333 106.667)" fill="#737373"/>
<rect x="42.6667" y="112" width="5.33333" height="5.33333" transform="rotate(180 42.6667 112)" fill="#737373"/>
<rect x="48" y="112" width="5.33333" height="5.33333" transform="rotate(180 48 112)" fill="#737373"/>
<rect x="53.3333" y="117.333" width="5.33333" height="5.33333" transform="rotate(180 53.3333 117.333)" fill="#737373"/>
<rect x="58.6667" y="117.333" width="5.33333" height="5.33333" transform="rotate(180 58.6667 117.333)" fill="#737373"/>
<rect x="64" y="117.333" width="5.33333" height="5.33333" transform="rotate(180 64 117.333)" fill="#737373"/>
<rect x="69.3333" y="117.333" width="5.33333" height="5.33333" transform="rotate(180 69.3333 117.333)" fill="#737373"/>
<rect x="74.6667" y="117.333" width="5.33333" height="5.33333" transform="rotate(180 74.6667 117.333)" fill="#737373"/>
<rect x="80" y="117.333" width="5.33333" height="5.33333" transform="rotate(180 80 117.333)" fill="#737373"/>
<rect x="85.3333" y="117.333" width="5.33333" height="5.33333" transform="rotate(180 85.3333 117.333)" fill="#737373"/>
<rect x="90.6667" y="117.333" width="5.33333" height="5.33333" transform="rotate(180 90.6667 117.333)" fill="#737373"/>
<rect x="96" y="117.333" width="5.33333" height="5.33333" transform="rotate(180 96 117.333)" fill="#737373"/>
<rect x="101.333" y="117.333" width="5.33333" height="5.33333" transform="rotate(180 101.333 117.333)" fill="#737373"/>
<rect x="21.3333" y="85.3333" width="5.33333" height="5.33333" transform="rotate(180 21.3333 85.3333)" fill="#737373"/>
<rect x="21.3333" y="90.6665" width="5.33333" height="5.33333" transform="rotate(180 21.3333 90.6665)" fill="#737373"/>
<rect width="5.33333" height="5.33333" transform="matrix(-1 0 0 1 58.6667 32)" fill="#1D5025"/>
<rect width="5.33333" height="5.33333" transform="matrix(-1 0 0 1 53.3333 32)" fill="#EF8F00"/>
<rect width="5.33333" height="5.33333" transform="matrix(-1 0 0 1 48 32)" fill="#BD3400"/>
<rect width="5.33333" height="5.33333" transform="matrix(-1 0 0 1 64 26.6665)" fill="#BD3400"/>
<rect width="5.33333" height="5.33333" transform="matrix(-1 0 0 1 58.6667 26.6665)" fill="#EF8F00"/>
<rect width="5.33333" height="5.33333" transform="matrix(-1 0 0 1 64 32)" fill="#1D5025"/>
<rect width="5.33333" height="5.33333" transform="matrix(-1 0 0 1 69.3333 26.6665)" fill="#EF8F00"/>
<rect width="5.33333" height="5.33333" transform="matrix(-1 0 0 1 69.3333 32)" fill="#BD3400"/>
<rect width="5.33333" height="5.33333" transform="matrix(-1 0 0 1 74.6667 26.6665)" fill="#BD3400"/>
<rect width="5.33333" height="5.33333" transform="matrix(-1 0 0 1 74.6667 32)" fill="#BD3400"/>
<rect width="5.33333" height="5.33333" transform="matrix(-1 0 0 1 80 26.6665)" fill="#BD3400"/>
<rect width="5.33333" height="5.33333" transform="matrix(-1 0 0 1 80 32)" fill="#BD3400"/>
<rect width="5.33333" height="5.33333" transform="matrix(-1 0 0 1 85.3333 26.6665)" fill="#EF8F00"/>
<rect width="5.33333" height="5.33333" transform="matrix(-1 0 0 1 85.3333 32)" fill="#BD3400"/>
<rect width="5.33333" height="5.33333" transform="matrix(-1 0 0 1 90.6667 26.6665)" fill="#BD3400"/>
<rect width="5.33333" height="5.33333" transform="matrix(-1 0 0 1 90.6667 32)" fill="#BD3400"/>
<rect width="5.33333" height="5.33333" transform="matrix(-1 0 0 1 96 26.6665)" fill="#EF8F00"/>
<rect width="5.33333" height="5.33333" transform="matrix(-1 0 0 1 96 32)" fill="#BD3400"/>
<rect width="5.33333" height="5.33333" transform="matrix(-1 0 0 1 96 37.3333)" fill="#FFCB66"/>
<rect width="5.33333" height="5.33333" transform="matrix(-1 0 0 1 101.333 42.6665)" fill="#DEAC4A"/>
<rect width="5.33333" height="5.33333" transform="matrix(-1 0 0 1 106.667 48)" fill="#E4C377"/>
<rect width="5.33333" height="5.33333" transform="matrix(-1 0 0 1 106.667 53.3333)" fill="#E3C697"/>
<rect width="5.33333" height="5.33333" transform="matrix(-1 0 0 1 106.667 58.6665)" fill="#24710F"/>
<rect width="5.33333" height="5.33333" transform="matrix(-1 0 0 1 101.333 58.6665)" fill="#24710F"/>
<rect width="5.33333" height="5.33333" transform="matrix(-1 0 0 1 106.667 64)" fill="#E4C377"/>
<rect width="5.33333" height="5.33333" transform="matrix(-1 0 0 1 96 64)" fill="#24710F"/>
<rect width="5.33333" height="5.33333" transform="matrix(-1 0 0 1 96 69.3333)" fill="#D1AA53"/>
<rect width="5.33333" height="5.33333" transform="matrix(-1 0 0 1 90.6667 69.3333)" fill="#E3C697"/>
<rect width="5.33333" height="5.33333" transform="matrix(-1 0 0 1 85.3333 69.3333)" fill="#E3C697"/>
<rect width="5.33333" height="5.33333" transform="matrix(-1 0 0 1 80 69.3333)" fill="#5B412A"/>
<rect width="5.33333" height="5.33333" transform="matrix(-1 0 0 1 74.6667 69.3333)" fill="#865022"/>
<rect width="5.33333" height="5.33333" transform="matrix(-1 0 0 1 69.3333 69.3333)" fill="#865022"/>
<rect width="5.33333" height="5.33333" transform="matrix(-1 0 0 1 69.3333 64)" fill="#E4C377"/>
<rect width="5.33333" height="5.33333" transform="matrix(-1 0 0 1 64 69.3333)" fill="#44B525"/>
<rect width="5.33333" height="5.33333" transform="matrix(-1 0 0 1 64 64)" fill="#5A9749"/>
<rect width="5.33333" height="5.33333" transform="matrix(-1 0 0 1 64 58.6665)" fill="#24710F"/>
<rect width="5.33333" height="5.33333" transform="matrix(-1 0 0 1 64 53.3333)" fill="#44B525"/>
<rect width="5.33333" height="5.33333" transform="matrix(-1 0 0 1 64 48)" fill="#FFCB66"/>
<rect width="5.33333" height="5.33333" transform="matrix(-1 0 0 1 64 42.6665)" fill="#FFCB66"/>
<rect width="5.33333" height="5.33333" transform="matrix(-1 0 0 1 69.3333 37.3333)" fill="#BD3400"/>
<rect width="5.33333" height="5.33333" transform="matrix(-1 0 0 1 58.6667 69.3333)" fill="#D3B175"/>
<rect width="5.33333" height="5.33333" transform="matrix(-1 0 0 1 58.6667 64)" fill="#24710F"/>
<rect width="5.33333" height="5.33333" transform="matrix(-1 0 0 1 58.6667 58.6665)" fill="#5A9749"/>
<rect width="5.33333" height="5.33333" transform="matrix(-1 0 0 1 58.6667 53.3333)" fill="#FFCB66"/>
<rect width="5.33333" height="5.33333" transform="matrix(-1 0 0 1 58.6667 48)" fill="#DEAC4A"/>
<rect width="5.33333" height="5.33333" transform="matrix(-1 0 0 1 58.6667 42.6665)" fill="#BD3400"/>
<rect width="5.33333" height="5.33333" transform="matrix(-1 0 0 1 64 37.3333)" fill="#BD3400"/>
<rect width="5.33333" height="5.33333" transform="matrix(-1 0 0 1 53.3333 69.3333)" fill="#DABF89"/>
<rect width="5.33333" height="5.33333" transform="matrix(-1 0 0 1 53.3333 64)" fill="#D3B175"/>
<rect width="5.33333" height="5.33333" transform="matrix(-1 0 0 1 53.3333 58.6665)" fill="#872500"/>
<rect width="5.33333" height="5.33333" transform="matrix(-1 0 0 1 53.3333 53.3333)" fill="#872500"/>
<rect width="5.33333" height="5.33333" transform="matrix(-1 0 0 1 53.3333 48)" fill="#872500"/>
<rect width="5.33333" height="5.33333" transform="matrix(-1 0 0 1 53.3333 42.6665)" fill="#BD3400"/>
<rect width="5.33333" height="5.33333" transform="matrix(-1 0 0 1 58.6667 37.3333)" fill="#BD3400"/>
<rect width="5.33333" height="5.33333" transform="matrix(-1 0 0 1 48 69.3333)" fill="#E8D6B2"/>
<rect width="5.33333" height="5.33333" transform="matrix(-1 0 0 1 48 64)" fill="#D3B175"/>
<rect width="5.33333" height="5.33333" transform="matrix(-1 0 0 1 48 58.6665)" fill="#E8D6B2"/>
<rect width="5.33333" height="5.33333" transform="matrix(-1 0 0 1 48 53.3333)" fill="#872500"/>
<rect width="5.33333" height="5.33333" transform="matrix(-1 0 0 1 48 48)" fill="#BD3400"/>
<rect width="5.33333" height="5.33333" transform="matrix(-1 0 0 1 48 42.6665)" fill="#BD3400"/>
<rect width="5.33333" height="5.33333" transform="matrix(-1 0 0 1 53.3333 37.3333)" fill="#1D5025"/>
<rect width="5.33333" height="5.33333" transform="matrix(-1 0 0 1 42.6667 69.3333)" fill="#D3B175"/>
<rect width="5.33333" height="5.33333" transform="matrix(-1 0 0 1 42.6667 64)" fill="#E8D6B2"/>
<rect width="5.33333" height="5.33333" transform="matrix(-1 0 0 1 42.6667 58.6665)" fill="#E8D6B2"/>
<rect width="5.33333" height="5.33333" transform="matrix(-1 0 0 1 42.6667 53.3333)" fill="#DABF89"/>
<rect width="5.33333" height="5.33333" transform="matrix(-1 0 0 1 42.6667 48)" fill="#BD3400"/>
<rect width="5.33333" height="5.33333" transform="matrix(-1 0 0 1 42.6667 42.6665)" fill="#BD3400"/>
<rect width="5.33333" height="5.33333" transform="matrix(-1 0 0 1 48 37.3333)" fill="#1D5025"/>
<rect width="5.33333" height="5.33333" transform="matrix(-1 0 0 1 37.3333 69.3333)" fill="#E8D6B2"/>
<rect width="5.33333" height="5.33333" transform="matrix(-1 0 0 1 37.3333 64)" fill="#E8D6B2"/>
<rect width="5.33333" height="5.33333" transform="matrix(-1 0 0 1 37.3333 58.6665)" fill="#DABF89"/>
<rect width="5.33333" height="5.33333" transform="matrix(-1 0 0 1 37.3333 53.3333)" fill="#BD3400"/>
<rect width="5.33333" height="5.33333" transform="matrix(-1 0 0 1 37.3333 48)" fill="#BD3400"/>
<rect width="5.33333" height="5.33333" transform="matrix(-1 0 0 1 37.3333 42.6665)" fill="#BD3400"/>
<rect width="5.33333" height="5.33333" transform="matrix(-1 0 0 1 37.3333 37.3333)" fill="#872500"/>
<rect width="5.33333" height="5.33333" transform="matrix(-1 0 0 1 42.6667 37.3333)" fill="#EF8F00"/>
<rect width="5.33333" height="5.33333" transform="matrix(-1 0 0 1 32 69.3333)" fill="#DABF89"/>
<rect width="5.33333" height="5.33333" transform="matrix(-1 0 0 1 32 64)" fill="#E8D6B2"/>
<rect width="5.33333" height="5.33333" transform="matrix(-1 0 0 1 32 58.6665)" fill="#BD3400"/>
<rect width="5.33333" height="5.33333" transform="matrix(-1 0 0 1 32 53.3333)" fill="#BD3400"/>
<rect width="5.33333" height="5.33333" transform="matrix(-1 0 0 1 32 48)" fill="#BD3400"/>
<rect width="5.33333" height="5.33333" transform="matrix(-1 0 0 1 32 42.6665)" fill="#EF8F00"/>
<rect width="5.33333" height="5.33333" transform="matrix(-1 0 0 1 26.6667 69.3333)" fill="#BD3400"/>
<rect width="5.33333" height="5.33333" transform="matrix(-1 0 0 1 26.6667 64)" fill="#BD3400"/>
<rect width="5.33333" height="5.33333" transform="matrix(-1 0 0 1 26.6667 58.6665)" fill="#BD3400"/>
<rect width="5.33333" height="5.33333" transform="matrix(-1 0 0 1 26.6667 53.3333)" fill="#EF8F00"/>
<rect width="5.33333" height="5.33333" transform="matrix(-1 0 0 1 26.6667 48)" fill="#EF8F00"/>
<rect width="5.33333" height="5.33333" transform="matrix(-1 0 0 1 96 74.6665)" fill="#D1AA53"/>
<rect width="5.33333" height="5.33333" transform="matrix(-1 0 0 1 90.6667 74.6665)" fill="#D1AA53"/>
<rect width="5.33333" height="5.33333" transform="matrix(-1 0 0 1 85.3333 74.6665)" fill="#E3C697"/>
<rect width="5.33333" height="5.33333" transform="matrix(-1 0 0 1 80 74.6665)" fill="#D1AA53"/>
<rect width="5.33333" height="5.33333" transform="matrix(-1 0 0 1 74.6667 74.6665)" fill="#5B412A"/>
<rect width="5.33333" height="5.33333" transform="matrix(-1 0 0 1 69.3333 74.6665)" fill="#BD3400"/>
<rect width="5.33333" height="5.33333" transform="matrix(-1 0 0 1 64 74.6665)" fill="#872500"/>
<rect width="5.33333" height="5.33333" transform="matrix(-1 0 0 1 58.6667 74.6665)" fill="#E8D6B2"/>
<rect width="5.33333" height="5.33333" transform="matrix(-1 0 0 1 53.3333 74.6665)" fill="#E8D6B2"/>
<rect width="5.33333" height="5.33333" transform="matrix(-1 0 0 1 48 74.6665)" fill="#E8D6B2"/>
<rect width="5.33333" height="5.33333" transform="matrix(-1 0 0 1 42.6667 74.6665)" fill="#D3B175"/>
<rect width="5.33333" height="5.33333" transform="matrix(-1 0 0 1 37.3333 74.6665)" fill="#E8D6B2"/>
<rect width="5.33333" height="5.33333" transform="matrix(-1 0 0 1 32 74.6665)" fill="#E8D6B2"/>
<rect width="5.33333" height="5.33333" transform="matrix(-1 0 0 1 26.6667 74.6665)" fill="#872500"/>
<rect width="5.33333" height="5.33333" transform="matrix(-1 0 0 1 96 80)" fill="#D1AA53"/>
<rect width="5.33333" height="5.33333" transform="matrix(-1 0 0 1 90.6667 80)" fill="#E4C377"/>
<rect width="5.33333" height="5.33333" transform="matrix(-1 0 0 1 85.3333 80)" fill="#D1AA53"/>
<rect width="5.33333" height="5.33333" transform="matrix(-1 0 0 1 80 80)" fill="#D1AA53"/>
<rect width="5.33333" height="5.33333" transform="matrix(-1 0 0 1 74.6667 80)" fill="#872500"/>
<rect width="5.33333" height="5.33333" transform="matrix(-1 0 0 1 69.3333 80)" fill="#BD3400"/>
<rect width="5.33333" height="5.33333" transform="matrix(-1 0 0 1 64 80)" fill="#E8D6B2"/>
<rect width="5.33333" height="5.33333" transform="matrix(-1 0 0 1 58.6667 80)" fill="#DABF89"/>
<rect width="5.33333" height="5.33333" transform="matrix(-1 0 0 1 53.3333 80)" fill="#E8D6B2"/>
<rect width="5.33333" height="5.33333" transform="matrix(-1 0 0 1 48 80)" fill="#DABF89"/>
<rect width="5.33333" height="5.33333" transform="matrix(-1 0 0 1 42.6667 80)" fill="#D3B175"/>
<rect width="5.33333" height="5.33333" transform="matrix(-1 0 0 1 37.3333 80)" fill="#DABF89"/>
<rect width="5.33333" height="5.33333" transform="matrix(-1 0 0 1 32 80)" fill="#EF8F00"/>
<rect width="5.33333" height="5.33333" transform="matrix(-1 0 0 1 26.6667 80)" fill="#872500"/>
<rect width="5.33333" height="5.33333" transform="matrix(-1 0 0 1 96 85.3333)" fill="#5B412A"/>
<rect width="5.33333" height="5.33333" transform="matrix(-1 0 0 1 90.6667 85.3333)" fill="#D1AA53"/>
<rect width="5.33333" height="5.33333" transform="matrix(-1 0 0 1 85.3333 85.3333)" fill="#E4C377"/>
<rect width="5.33333" height="5.33333" transform="matrix(-1 0 0 1 80 85.3333)" fill="#E4C377"/>
<rect width="5.33333" height="5.33333" transform="matrix(-1 0 0 1 74.6667 85.3333)" fill="#5B412A"/>
<rect width="5.33333" height="5.33333" transform="matrix(-1 0 0 1 69.3333 85.3333)" fill="#BD3400"/>
<rect width="5.33333" height="5.33333" transform="matrix(-1 0 0 1 64 85.3333)" fill="#E8D6B2"/>
<rect width="5.33333" height="5.33333" transform="matrix(-1 0 0 1 58.6667 85.3333)" fill="#E8D6B2"/>
<rect width="5.33333" height="5.33333" transform="matrix(-1 0 0 1 53.3333 85.3333)" fill="#E8D6B2"/>
<rect width="5.33333" height="5.33333" transform="matrix(-1 0 0 1 48 85.3333)" fill="#E8D6B2"/>
<rect width="5.33333" height="5.33333" transform="matrix(-1 0 0 1 42.6667 85.3333)" fill="#D3B175"/>
<rect width="5.33333" height="5.33333" transform="matrix(-1 0 0 1 37.3333 85.3333)" fill="#EF8F00"/>
<rect width="5.33333" height="5.33333" transform="matrix(-1 0 0 1 32 85.3333)" fill="#872500"/>
<rect width="5.33333" height="5.33333" transform="matrix(-1 0 0 1 26.6667 85.3333)" fill="black"/>
<rect width="5.33333" height="5.33333" transform="matrix(-1 0 0 1 96 90.6665)" fill="#5B412A"/>
<rect width="5.33333" height="5.33333" transform="matrix(-1 0 0 1 90.6667 90.6665)" fill="#865022"/>
<rect width="5.33333" height="5.33333" transform="matrix(-1 0 0 1 85.3333 90.6665)" fill="#5B412A"/>
<rect width="5.33333" height="5.33333" transform="matrix(-1 0 0 1 80 90.6665)" fill="#5B412A"/>
<rect width="5.33333" height="5.33333" transform="matrix(-1 0 0 1 74.6667 90.6665)" fill="#BD3400"/>
<rect width="5.33333" height="5.33333" transform="matrix(-1 0 0 1 69.3333 90.6665)" fill="#BD3400"/>
<rect width="5.33333" height="5.33333" transform="matrix(-1 0 0 1 58.6667 101.333)" fill="#BD3400"/>
<rect width="5.33333" height="5.33333" transform="matrix(-1 0 0 1 53.3333 101.333)" fill="#BD3400"/>
<rect width="5.33333" height="5.33333" transform="matrix(-1 0 0 1 85.3333 101.333)" fill="#872500"/>
<rect width="5.33333" height="5.33333" transform="matrix(-1 0 0 1 90.6667 101.333)" fill="#EF8F00"/>
<rect width="5.33333" height="5.33333" transform="matrix(-1 0 0 1 106.667 101.333)" fill="#872500"/>
<rect width="5.33333" height="5.33333" transform="matrix(-1 0 0 1 64 90.6665)" fill="#EF8F00"/>
<rect width="5.33333" height="5.33333" transform="matrix(-1 0 0 1 58.6667 90.6665)" fill="#DABF89"/>
<rect width="5.33333" height="5.33333" transform="matrix(-1 0 0 1 53.3333 90.6665)" fill="#E8D6B2"/>
<rect width="5.33333" height="5.33333" transform="matrix(-1 0 0 1 48 90.6665)" fill="#EF8F00"/>
<rect width="5.33333" height="5.33333" transform="matrix(-1 0 0 1 42.6667 90.6665)" fill="#EF8F00"/>
<rect width="5.33333" height="5.33333" transform="matrix(-1 0 0 1 37.3333 90.6665)" fill="#BD3400"/>
<rect width="5.33333" height="5.33333" transform="matrix(-1 0 0 1 96 96)" fill="#872500"/>
<rect width="5.33333" height="5.33333" transform="matrix(-1 0 0 1 90.6667 96)" fill="#BD3400"/>
<rect width="5.33333" height="5.33333" transform="matrix(-1 0 0 1 85.3333 96)" fill="#BD3400"/>
<rect width="5.33333" height="5.33333" transform="matrix(-1 0 0 1 80 96)" fill="#BD3400"/>
<rect width="5.33333" height="5.33333" transform="matrix(-1 0 0 1 74.6667 96)" fill="#BD3400"/>
<rect width="5.33333" height="5.33333" transform="matrix(-1 0 0 1 80 101.333)" fill="#BD3400"/>
<rect width="5.33333" height="5.33333" transform="matrix(-1 0 0 1 64 101.333)" fill="#EF8F00"/>
<rect width="5.33333" height="5.33333" transform="matrix(-1 0 0 1 69.3333 96)" fill="#BD3400"/>
<rect width="5.33333" height="5.33333" transform="matrix(-1 0 0 1 64 96)" fill="#872500"/>
<rect width="5.33333" height="5.33333" transform="matrix(-1 0 0 1 69.3333 101.333)" fill="#BD3400"/>
<rect width="5.33333" height="5.33333" transform="matrix(-1 0 0 1 74.6667 101.333)" fill="#EF8F00"/>
<rect width="5.33333" height="5.33333" transform="matrix(-1 0 0 1 58.6667 96)" fill="#EF8F00"/>
<rect width="5.33333" height="5.33333" transform="matrix(-1 0 0 1 53.3333 96)" fill="#EF8F00"/>
<rect width="5.33333" height="5.33333" transform="matrix(-1 0 0 1 48 96)" fill="#872500"/>
<rect width="5.33333" height="5.33333" transform="matrix(-1 0 0 1 42.6667 96)" fill="#872500"/>
<rect width="5.33333" height="5.33333" transform="matrix(-1 0 0 1 106.667 69.3333)" fill="#5B412A"/>
<rect width="5.33333" height="5.33333" transform="matrix(-1 0 0 1 106.667 74.6665)" fill="#865022"/>
<rect width="5.33333" height="5.33333" transform="matrix(-1 0 0 1 106.667 80)" fill="#5B412A"/>
<rect width="5.33333" height="5.33333" transform="matrix(-1 0 0 1 106.667 85.3333)" fill="#E4C377"/>
<rect width="5.33333" height="5.33333" transform="matrix(-1 0 0 1 106.667 90.6665)" fill="#1D5025"/>
<rect width="5.33333" height="5.33333" transform="matrix(-1 0 0 1 106.667 96)" fill="#BD3400"/>
<rect width="5.33333" height="5.33333" transform="matrix(-1 0 0 1 101.333 26.6665)" fill="#EF8F00"/>
<rect width="5.33333" height="5.33333" transform="matrix(-1 0 0 1 101.333 32)" fill="#BD3400"/>
<rect width="5.33333" height="5.33333" transform="matrix(-1 0 0 1 101.333 37.3333)" fill="#FFD600"/>
<rect width="5.33333" height="5.33333" transform="matrix(-1 0 0 1 106.667 42.6665)" fill="#872500"/>
<rect width="5.33333" height="5.33333" transform="matrix(-1 0 0 1 112 48)" fill="#E3C697"/>
<rect width="5.33333" height="5.33333" transform="matrix(-1 0 0 1 112 53.3333)" fill="#E3C697"/>
<rect width="5.33333" height="5.33333" transform="matrix(-1 0 0 1 112 58.6665)" fill="#E3C697"/>
<rect width="5.33333" height="5.33333" transform="matrix(-1 0 0 1 112 64)" fill="#D1AA53"/>
<rect width="5.33333" height="5.33333" transform="matrix(-1 0 0 1 101.333 64)" fill="#BD3400"/>
<rect width="5.33333" height="5.33333" transform="matrix(-1 0 0 1 101.333 69.3333)" fill="#E4C377"/>
<rect width="5.33333" height="5.33333" transform="matrix(-1 0 0 1 101.333 74.6665)" fill="#E4C377"/>
<rect width="5.33333" height="5.33333" transform="matrix(-1 0 0 1 101.333 80)" fill="#865022"/>
<rect width="5.33333" height="5.33333" transform="matrix(-1 0 0 1 101.333 85.3333)" fill="#5B412A"/>
<rect width="5.33333" height="5.33333" transform="matrix(-1 0 0 1 101.333 90.6665)" fill="#872500"/>
<rect width="5.33333" height="5.33333" transform="matrix(-1 0 0 1 101.333 96)" fill="#1D5025"/>
<rect width="5.33333" height="5.33333" transform="matrix(-1 0 0 1 112 101.333)" fill="#BD3400"/>
<rect width="5.33333" height="5.33333" transform="matrix(-1 0 0 1 122.667 96)" fill="#EF8F00"/>
<rect width="5.33333" height="5.33333" transform="matrix(-1 0 0 1 101.333 101.333)" fill="#EF8F00"/>
<rect width="5.33333" height="5.33333" transform="matrix(-1 0 0 1 96 101.333)" fill="#BD3400"/>
<rect width="5.33333" height="5.33333" transform="matrix(-1 0 0 1 112 69.3333)" fill="#865022"/>
<rect width="5.33333" height="5.33333" transform="matrix(-1 0 0 1 112 74.6665)" fill="#E3C697"/>
<rect width="5.33333" height="5.33333" transform="matrix(-1 0 0 1 112 80)" fill="#D1AA53"/>
<rect width="5.33333" height="5.33333" transform="matrix(-1 0 0 1 112 85.3333)" fill="#D1AA53"/>
<rect width="5.33333" height="5.33333" transform="matrix(-1 0 0 1 112 90.6665)" fill="#1D5025"/>
<rect width="5.33333" height="5.33333" transform="matrix(-1 0 0 1 112 96)" fill="#1D5025"/>
<rect width="5.33333" height="5.33333" transform="matrix(-1 0 0 1 106.667 26.6665)" fill="#EF8F00"/>
<rect width="5.33333" height="5.33333" transform="matrix(-1 0 0 1 106.667 32)" fill="#BD3400"/>
<rect width="5.33333" height="5.33333" transform="matrix(-1 0 0 1 106.667 37.3333)" fill="#872500"/>
<rect width="5.33333" height="5.33333" transform="matrix(-1 0 0 1 112 42.6665)" fill="#872500"/>
<rect width="5.33333" height="5.33333" transform="matrix(-1 0 0 1 117.333 48)" fill="#872500"/>
<rect width="5.33333" height="5.33333" transform="matrix(-1 0 0 1 117.333 53.3333)" fill="#D1AA53"/>
<rect width="5.33333" height="5.33333" transform="matrix(-1 0 0 1 117.333 58.6665)" fill="#E3C697"/>
<rect width="5.33333" height="5.33333" transform="matrix(-1 0 0 1 117.333 64)" fill="#D1AA53"/>
<rect width="5.33333" height="5.33333" transform="matrix(-1 0 0 1 117.333 69.3333)" fill="#5B412A"/>
<rect width="5.33333" height="5.33333" transform="matrix(-1 0 0 1 117.333 74.6665)" fill="#5B412A"/>
<rect width="5.33333" height="5.33333" transform="matrix(-1 0 0 1 117.333 80)" fill="#E4C377"/>
<rect width="5.33333" height="5.33333" transform="matrix(-1 0 0 1 117.333 85.3333)" fill="#1D5025"/>
<rect width="5.33333" height="5.33333" transform="matrix(-1 0 0 1 117.333 90.6665)" fill="#BD3400"/>
<rect width="5.33333" height="5.33333" transform="matrix(-1 0 0 1 117.333 96)" fill="#BD3400"/>
<rect width="5.33333" height="5.33333" transform="matrix(-1 0 0 1 112 32)" fill="#BD3400"/>
<rect width="5.33333" height="5.33333" transform="matrix(-1 0 0 1 112 37.3333)" fill="#872500"/>
<rect width="5.33333" height="5.33333" transform="matrix(-1 0 0 1 117.333 42.6665)" fill="#872500"/>
<rect width="5.33333" height="5.33333" transform="matrix(-1 0 0 1 122.667 48)" fill="#BD3400"/>
<rect width="5.33333" height="5.33333" transform="matrix(-1 0 0 1 122.667 53.3333)" fill="#865022"/>
<rect width="5.33333" height="5.33333" transform="matrix(-1 0 0 1 122.667 58.6665)" fill="#E4C377"/>
<rect width="5.33333" height="5.33333" transform="matrix(-1 0 0 1 122.667 64)" fill="#865022"/>
<rect width="5.33333" height="5.33333" transform="matrix(-1 0 0 1 122.667 69.3333)" fill="#5B412A"/>
<rect width="5.33333" height="5.33333" transform="matrix(-1 0 0 1 122.667 74.6665)" fill="#E3C697"/>
<rect width="5.33333" height="5.33333" transform="matrix(-1 0 0 1 122.667 80)" fill="#D1AA53"/>
<rect width="5.33333" height="5.33333" transform="matrix(-1 0 0 1 122.667 85.3333)" fill="#1D5025"/>
<rect width="5.33333" height="5.33333" transform="matrix(-1 0 0 1 122.667 90.6665)" fill="#BD3400"/>
<rect width="5.33333" height="5.33333" transform="matrix(-1 0 0 1 133.333 48)" fill="#BD3400"/>
<rect width="5.33333" height="5.33333" transform="matrix(-1 0 0 1 133.333 42.6665)" fill="#BD3400"/>
<rect width="5.33333" height="5.33333" transform="matrix(-1 0 0 1 133.333 53.3333)" fill="#BD3400"/>
<rect width="5.33333" height="5.33333" transform="matrix(-1 0 0 1 133.333 58.6665)" fill="#BD3400"/>
<rect width="5.33333" height="5.33333" transform="matrix(-1 0 0 1 133.333 64)" fill="#BD3400"/>
<rect width="5.33333" height="5.33333" transform="matrix(-1 0 0 1 133.333 69.3333)" fill="#BD3400"/>
<rect width="5.33333" height="5.33333" transform="matrix(-1 0 0 1 133.333 74.6665)" fill="#BD3400"/>
<rect width="5.33333" height="5.33333" transform="matrix(-1 0 0 1 138.667 85.3333)" fill="black"/>
<rect width="5.33333" height="5.33333" transform="matrix(-1 0 0 1 133.333 80)" fill="#BD3400"/>
<rect width="5.33333" height="5.33333" transform="matrix(-1 0 0 1 133.333 85.3333)" fill="#BD3400"/>
<rect width="5.33333" height="5.33333" transform="matrix(-1 0 0 1 128 42.6665)" fill="#BD3400"/>
<rect width="5.33333" height="5.33333" transform="matrix(-1 0 0 1 122.667 37.3333)" fill="#872500"/>
<rect width="5.33333" height="5.33333" transform="matrix(-1 0 0 1 117.333 32)" fill="#EF8F00"/>
<rect width="5.33333" height="5.33333" transform="matrix(-1 0 0 1 117.333 37.3333)" fill="#BD3400"/>
<rect width="5.33333" height="5.33333" transform="matrix(-1 0 0 1 122.667 42.6665)" fill="#BD3400"/>
<rect width="5.33333" height="5.33333" transform="matrix(-1 0 0 1 128 48)" fill="#BD3400"/>
<rect width="5.33333" height="5.33333" transform="matrix(-1 0 0 1 128 53.3333)" fill="#BD3400"/>
<rect width="5.33333" height="5.33333" transform="matrix(-1 0 0 1 128 58.6665)" fill="#5B412A"/>
<rect width="5.33333" height="5.33333" transform="matrix(-1 0 0 1 128 64)" fill="#5B412A"/>
<rect width="5.33333" height="5.33333" transform="matrix(-1 0 0 1 128 69.3333)" fill="#872500"/>
<rect width="5.33333" height="5.33333" transform="matrix(-1 0 0 1 128 74.6665)" fill="#BD3400"/>
<rect width="5.33333" height="5.33333" transform="matrix(-1 0 0 1 128 80)" fill="#BD3400"/>
<rect width="5.33333" height="5.33333" transform="matrix(-1 0 0 1 128 85.3333)" fill="#BD3400"/>
<rect width="5.33333" height="5.33333" transform="matrix(-1 0 0 1 128 90.6665)" fill="#EF8F00"/>
<rect width="5.33333" height="5.33333" transform="matrix(-1 0 0 1 138.667 53.3333)" fill="#EF8F00"/>
<rect width="5.33333" height="5.33333" transform="matrix(-1 0 0 1 138.667 48)" fill="#BD3400"/>
<rect width="5.33333" height="5.33333" transform="matrix(-1 0 0 1 138.667 58.6665)" fill="#872500"/>
<rect width="5.33333" height="5.33333" transform="matrix(-1 0 0 1 138.667 64)" fill="#872500"/>
<rect width="5.33333" height="5.33333" transform="matrix(-1 0 0 1 138.667 69.3333)" fill="#BD3400"/>
<rect width="5.33333" height="5.33333" transform="matrix(-1 0 0 1 138.667 74.6665)" fill="#EF8F00"/>
<rect width="5.33333" height="5.33333" transform="matrix(-1 0 0 1 138.667 80)" fill="#EF8F00"/>
<rect width="5.33333" height="5.33333" transform="matrix(-1 0 0 1 128 37.3333)" fill="#EF8F00"/>
<rect x="69.3333" y="42.6665" width="5.33333" height="5.33333" fill="#DEAC4A"/>
<rect x="64" y="42.6665" width="5.33333" height="5.33333" fill="#DEAC4A"/>
<rect x="64" y="48" width="5.33333" height="5.33333" fill="#FFCB66"/>
<rect x="69.3333" y="37.3333" width="5.33333" height="5.33333" fill="#BD3400"/>
<rect x="74.6667" y="37.3333" width="5.33333" height="5.33333" fill="#FFCB66"/>
<rect x="80" y="37.3333" width="5.33333" height="5.33333" fill="#DEAC4A"/>
<rect x="85.3333" y="37.3333" width="5.33333" height="5.33333" fill="#FFCB66"/>
<rect x="85.3333" y="42.6665" width="5.33333" height="5.33333" fill="#44B525"/>
<rect x="90.6667" y="42.6665" width="5.33333" height="5.33333" fill="#5A9749"/>
<rect x="64" y="53.3333" width="5.33333" height="5.33333" fill="#5A9749"/>
<rect x="69.3333" y="53.3333" width="5.33333" height="5.33333" fill="#5A9749"/>
<rect x="69.3333" y="58.6665" width="5.33333" height="5.33333" fill="#24710F"/>
<rect x="74.6667" y="58.6665" width="5.33333" height="5.33333" fill="#44B525"/>
<rect x="80" y="58.6665" width="5.33333" height="5.33333" fill="#44B525"/>
<rect x="85.3333" y="58.6665" width="5.33333" height="5.33333" fill="#5A9749"/>
<rect x="85.3333" y="53.3333" width="5.33333" height="5.33333" fill="#24710F"/>
<rect x="90.6667" y="53.3333" width="5.33333" height="5.33333" fill="#44B525"/>
<rect x="90.6667" y="48" width="5.33333" height="5.33333" fill="#24710F"/>
<rect x="96" y="48" width="5.33333" height="5.33333" fill="#5A9749"/>
<rect x="74.6667" y="42.6665" width="5.33333" height="5.33333" fill="#FFCB66"/>
<rect x="80" y="48" width="5.33333" height="5.33333" fill="#5A9749"/>
<rect x="69.3333" y="48" width="5.33333" height="5.33333" fill="#FFCB66"/>
<rect x="74.6667" y="53.3333" width="5.33333" height="5.33333" fill="#24710F"/>
<rect x="80" y="42.6665" width="5.33333" height="5.33333" fill="#DEAC4A"/>
<rect x="85.3333" y="48" width="5.33333" height="5.33333" fill="#5A9749"/>
<rect x="74.6667" y="48" width="5.33333" height="5.33333" fill="#44B525"/>
<rect x="80" y="53.3333" width="5.33333" height="5.33333" fill="#24710F"/>
<rect x="96" y="53.3333" width="5.33333" height="5.33333" fill="#5A9749"/>
<rect x="90.6667" y="58.6665" width="5.33333" height="5.33333" fill="#24710F"/>
<rect x="85.3333" y="64" width="5.33333" height="5.33333" fill="#24710F"/>
<rect x="80" y="64" width="5.33333" height="5.33333" fill="#5B412A"/>
<rect x="74.6667" y="64" width="5.33333" height="5.33333" fill="#5A9749"/>
<rect x="69.3333" y="64" width="5.33333" height="5.33333" fill="#D1AA53"/>
<rect x="64" y="58.6665" width="5.33333" height="5.33333" fill="#24710F"/>
<rect x="5.33331" y="85.3333" width="5.33333" height="5.33333" fill="white"/>
<rect x="5.33331" y="90.6665" width="5.33333" height="5.33333" fill="white"/>
<rect x="5.33331" y="96" width="5.33333" height="5.33333" fill="white"/>
<rect x="10.6667" y="101.333" width="5.33333" height="5.33333" fill="white"/>
<rect x="10.6667" y="96" width="5.33333" height="5.33333" fill="white"/>
<rect x="16" y="101.333" width="5.33333" height="5.33333" fill="white"/>
<rect x="16" y="106.667" width="5.33333" height="5.33333" fill="white"/>
<rect x="16" y="112" width="5.33333" height="5.33333" fill="white"/>
<rect x="21.3333" y="117.333" width="5.33333" height="5.33333" fill="white"/>
<rect x="26.6667" y="122.667" width="5.33333" height="5.33333" fill="white"/>
<rect x="32" y="128" width="5.33333" height="5.33333" fill="white"/>
<rect x="37.3333" y="133.333" width="5.33333" height="5.33333" fill="white"/>
<rect x="42.6667" y="138.667" width="5.33333" height="5.33333" fill="white"/>
<rect x="21.3333" y="112" width="5.33333" height="5.33333" fill="white"/>
<rect x="26.6667" y="117.333" width="5.33333" height="5.33333" fill="white"/>
<rect x="32" y="122.667" width="5.33333" height="5.33333" fill="white"/>
<rect x="37.3333" y="128" width="5.33333" height="5.33333" fill="white"/>
<rect x="42.6667" y="133.333" width="5.33333" height="5.33333" fill="white"/>
<rect x="48" y="138.667" width="5.33333" height="5.33333" fill="white"/>
<rect x="53.3333" y="144" width="5.33333" height="5.33333" fill="white"/>
<rect x="64" y="144" width="5.33333" height="5.33333" fill="white"/>
<rect x="74.6667" y="144" width="5.33333" height="5.33333" fill="white"/>
<rect x="85.3333" y="144" width="5.33333" height="5.33333" fill="white"/>
<rect x="96" y="144" width="5.33333" height="5.33333" fill="white"/>
<rect x="101.333" y="138.667" width="5.33333" height="5.33333" fill="white"/>
<rect x="53.3333" y="138.667" width="5.33333" height="5.33333" fill="white"/>
<rect x="58.6667" y="144" width="5.33333" height="5.33333" fill="white"/>
<rect x="69.3333" y="144" width="5.33333" height="5.33333" fill="white"/>
<rect x="80" y="144" width="5.33333" height="5.33333" fill="white"/>
<rect x="90.6667" y="144" width="5.33333" height="5.33333" fill="white"/>
<rect x="101.333" y="144" width="5.33333" height="5.33333" fill="white"/>
<rect x="106.667" y="138.667" width="5.33333" height="5.33333" fill="white"/>
<rect x="112" y="133.333" width="5.33333" height="5.33333" fill="white"/>
<rect x="117.333" y="128" width="5.33333" height="5.33333" fill="white"/>
<rect x="122.667" y="122.667" width="5.33333" height="5.33333" fill="white"/>
<rect x="128" y="117.333" width="5.33333" height="5.33333" fill="white"/>
<rect x="133.333" y="112" width="5.33333" height="5.33333" fill="white"/>
<rect x="138.667" y="106.667" width="5.33333" height="5.33333" fill="white"/>
<rect x="112" y="138.667" width="5.33333" height="5.33333" fill="white"/>
<rect x="117.333" y="133.333" width="5.33333" height="5.33333" fill="white"/>
<rect x="122.667" y="128" width="5.33333" height="5.33333" fill="white"/>
<rect x="128" y="122.667" width="5.33333" height="5.33333" fill="white"/>
<rect x="133.333" y="117.333" width="5.33333" height="5.33333" fill="white"/>
<rect x="138.667" y="112" width="5.33333" height="5.33333" fill="white"/>
<rect x="144" y="96" width="5.33333" height="5.33333" fill="white"/>
<rect x="149.333" y="96" width="5.33333" height="5.33333" fill="white"/>
<rect x="149.333" y="90.6665" width="5.33333" height="5.33333" fill="white"/>
<rect x="149.333" y="85.3333" width="5.33333" height="5.33333" fill="white"/>
<rect x="149.333" y="80" width="5.33333" height="5.33333" fill="white"/>
<rect x="149.333" y="74.6665" width="5.33333" height="5.33333" fill="white"/>
<rect x="149.333" y="69.3333" width="5.33333" height="5.33333" fill="white"/>
<rect x="149.333" y="64" width="5.33333" height="5.33333" fill="white"/>
<rect x="149.333" y="58.6665" width="5.33333" height="5.33333" fill="white"/>
<rect x="149.333" y="53.3333" width="5.33333" height="5.33333" fill="white"/>
<rect x="149.333" y="48" width="5.33333" height="5.33333" fill="white"/>
<rect x="149.333" y="42.6665" width="5.33333" height="5.33333" fill="white"/>
<rect x="144" y="37.3333" width="5.33333" height="5.33333" fill="white"/>
<rect x="138.667" y="32" width="5.33333" height="5.33333" fill="white"/>
<rect x="133.333" y="26.6665" width="5.33333" height="5.33333" fill="white"/>
<rect x="128" y="21.3333" width="5.33333" height="5.33333" fill="white"/>
<rect x="117.333" y="16" width="5.33333" height="5.33333" fill="white"/>
<rect x="106.667" y="10.6665" width="5.33333" height="5.33333" fill="white"/>
<rect x="90.6667" y="10.6665" width="5.33333" height="5.33333" fill="white"/>
<rect x="74.6667" y="10.6665" width="5.33333" height="5.33333" fill="white"/>
<rect x="58.6667" y="10.6665" width="5.33333" height="5.33333" fill="white"/>
<rect x="48" y="16" width="5.33333" height="5.33333" fill="white"/>
<rect x="37.3333" y="21.3333" width="5.33333" height="5.33333" fill="white"/>
<rect x="26.6667" y="26.6665" width="5.33333" height="5.33333" fill="white"/>
<rect x="21.3333" y="32" width="5.33333" height="5.33333" fill="white"/>
<rect x="16" y="37.3333" width="5.33333" height="5.33333" fill="white"/>
<rect x="10.6667" y="42.6665" width="5.33333" height="5.33333" fill="white"/>
<rect x="144" y="42.6665" width="5.33333" height="5.33333" fill="white"/>
<rect x="138.667" y="37.3333" width="5.33333" height="5.33333" fill="white"/>
<rect x="133.333" y="32" width="5.33333" height="5.33333" fill="white"/>
<rect x="128" y="26.6665" width="5.33333" height="5.33333" fill="white"/>
<rect x="122.667" y="21.3333" width="5.33333" height="5.33333" fill="white"/>
<rect x="112" y="16" width="5.33333" height="5.33333" fill="white"/>
<rect x="101.333" y="10.6665" width="5.33333" height="5.33333" fill="white"/>
<rect x="85.3333" y="10.6665" width="5.33333" height="5.33333" fill="white"/>
<rect x="69.3333" y="10.6665" width="5.33333" height="5.33333" fill="white"/>
<rect x="53.3333" y="10.6665" width="5.33333" height="5.33333" fill="white"/>
<rect x="42.6667" y="16" width="5.33333" height="5.33333" fill="white"/>
<rect x="32" y="21.3333" width="5.33333" height="5.33333" fill="white"/>
<rect x="21.3333" y="26.6665" width="5.33333" height="5.33333" fill="white"/>
<rect x="16" y="32" width="5.33333" height="5.33333" fill="white"/>
<rect x="10.6667" y="37.3333" width="5.33333" height="5.33333" fill="white"/>
<rect x="5.33331" y="42.6665" width="5.33333" height="5.33333" fill="white"/>
<rect x="5.33331" y="48" width="5.33333" height="5.33333" fill="white"/>
<rect x="5.33331" y="53.3333" width="5.33333" height="5.33333" fill="white"/>
<rect x="5.33331" y="58.6665" width="5.33333" height="5.33333" fill="white"/>
<rect x="5.33331" y="64" width="5.33333" height="5.33333" fill="white"/>
<rect x="5.33331" y="69.3333" width="5.33333" height="5.33333" fill="white"/>
<rect x="5.33331" y="74.6665" width="5.33333" height="5.33333" fill="white"/>
<rect x="5.33331" y="80" width="5.33333" height="5.33333" fill="white"/>
<rect x="117.333" y="21.3333" width="5.33333" height="5.33333" fill="white"/>
<rect x="106.667" y="16" width="5.33333" height="5.33333" fill="white"/>
<rect x="96" y="10.6665" width="5.33333" height="5.33333" fill="white"/>
<rect x="80" y="10.6665" width="5.33333" height="5.33333" fill="white"/>
<rect x="64" y="10.6665" width="5.33333" height="5.33333" fill="white"/>
<rect x="48" y="10.6665" width="5.33333" height="5.33333" fill="white"/>
<rect x="37.3333" y="16" width="5.33333" height="5.33333" fill="white"/>
<rect x="26.6667" y="21.3333" width="5.33333" height="5.33333" fill="white"/>
<rect x="144" y="101.333" width="5.33333" height="5.33333" fill="white"/>
<rect x="138.667" y="101.333" width="5.33333" height="5.33333" fill="white"/>
<rect x="154.667" y="80" width="5.33333" height="5.33333" fill="#FFCB29"/>
<rect x="154.667" y="85.3333" width="5.33333" height="5.33333" fill="#FFCB29"/>
<rect x="154.667" y="90.6665" width="5.33333" height="5.33333" fill="#FFCB29"/>
<rect x="154.667" y="96" width="5.33333" height="5.33333" fill="#FFCB29"/>
<rect x="149.333" y="101.333" width="5.33333" height="5.33333" fill="#FFCB29"/>
<rect x="144" y="106.667" width="5.33333" height="5.33333" fill="#FFCB29"/>
<rect x="144" y="112" width="5.33333" height="5.33333" fill="#FFCB29"/>
<rect x="138.667" y="117.333" width="5.33333" height="5.33333" fill="#FFCB29"/>
<rect x="133.333" y="122.667" width="5.33333" height="5.33333" fill="#FFCB29"/>
<rect x="128" y="128" width="5.33333" height="5.33333" fill="#FFCB29"/>
<rect x="122.667" y="133.333" width="5.33333" height="5.33333" fill="#FFCB29"/>
<rect x="112" y="144" width="5.33333" height="5.33333" fill="#FFCB29"/>
<rect x="117.333" y="138.667" width="5.33333" height="5.33333" fill="#FFCB29"/>
<rect x="101.333" y="149.333" width="5.33333" height="5.33333" fill="#FFCB29"/>
<rect x="106.667" y="144" width="5.33333" height="5.33333" fill="#FFCB29"/>
<rect x="90.6667" y="149.333" width="5.33333" height="5.33333" fill="#FFCB29"/>
<rect x="80" y="149.333" width="5.33333" height="5.33333" fill="#FFCB29"/>
<rect x="69.3333" y="149.333" width="5.33333" height="5.33333" fill="#FFCB29"/>
<rect x="58.6667" y="149.333" width="5.33333" height="5.33333" fill="#FFCB29"/>
<rect x="96" y="149.333" width="5.33333" height="5.33333" fill="#FFCB29"/>
<rect x="85.3333" y="149.333" width="5.33333" height="5.33333" fill="#FFCB29"/>
<rect x="74.6667" y="149.333" width="5.33333" height="5.33333" fill="#FFCB29"/>
<rect x="64" y="149.333" width="5.33333" height="5.33333" fill="#FFCB29"/>
<rect x="53.3333" y="149.333" width="5.33333" height="5.33333" fill="#FFCB29"/>
<rect x="48" y="144" width="5.33333" height="5.33333" fill="#FFCB29"/>
<rect x="42.6667" y="144" width="5.33333" height="5.33333" fill="#FFCB29"/>
<rect x="37.3333" y="138.667" width="5.33333" height="5.33333" fill="#FFCB29"/>
<rect x="32" y="133.333" width="5.33333" height="5.33333" fill="#FFCB29"/>
<rect x="26.6667" y="128" width="5.33333" height="5.33333" fill="#FFCB29"/>
<rect x="21.3333" y="122.667" width="5.33333" height="5.33333" fill="#FFCB29"/>
<rect x="10.6667" y="112" width="5.33333" height="5.33333" fill="#FFCB29"/>
<rect x="16" y="117.333" width="5.33333" height="5.33333" fill="#FFCB29"/>
<rect x="5.33331" y="101.333" width="5.33333" height="5.33333" fill="#FFCB29"/>
<rect x="10.6667" y="106.667" width="5.33333" height="5.33333" fill="#FFCB29"/>
<rect y="90.6665" width="5.33333" height="5.33333" fill="#FFCB29"/>
<rect y="96" width="5.33333" height="5.33333" fill="#FFCB29"/>
<rect y="85.3333" width="5.33333" height="5.33333" fill="#FFCB29"/>
<rect y="80" width="5.33333" height="5.33333" fill="#FFCB29"/>
<rect y="74.6665" width="5.33333" height="5.33333" fill="#FFCB29"/>
<rect y="69.3333" width="5.33333" height="5.33333" fill="#FFCB29"/>
<rect y="64" width="5.33333" height="5.33333" fill="#FFCB29"/>
<rect y="58.6665" width="5.33333" height="5.33333" fill="#FFCB29"/>
<rect y="53.3333" width="5.33333" height="5.33333" fill="#FFCB29"/>
<rect y="48" width="5.33333" height="5.33333" fill="#FFCB29"/>
<rect y="42.6665" width="5.33333" height="5.33333" fill="#FFCB29"/>
<rect x="5.33331" y="37.3333" width="5.33333" height="5.33333" fill="#FFCB29"/>
<rect x="10.6667" y="32" width="5.33333" height="5.33333" fill="#FFCB29"/>
<rect x="16" y="26.6665" width="5.33333" height="5.33333" fill="#FFCB29"/>
<rect x="21.3333" y="21.3333" width="5.33333" height="5.33333" fill="#FFCB29"/>
<rect x="26.6667" y="16" width="5.33333" height="5.33333" fill="#FFCB29"/>
<rect x="37.3333" y="10.6665" width="5.33333" height="5.33333" fill="#FFCB29"/>
<rect x="48" y="5.33325" width="5.33333" height="5.33333" fill="#FFCB29"/>
<rect x="64" y="5.33325" width="5.33333" height="5.33333" fill="#FFCB29"/>
<rect x="80" y="5.33325" width="5.33333" height="5.33333" fill="#FFCB29"/>
<rect x="96" y="5.33325" width="5.33333" height="5.33333" fill="#FFCB29"/>
<rect x="32" y="16" width="5.33333" height="5.33333" fill="#FFCB29"/>
<rect x="42.6667" y="10.6665" width="5.33333" height="5.33333" fill="#FFCB29"/>
<rect x="53.3333" y="5.33325" width="5.33333" height="5.33333" fill="#FFCB29"/>
<rect x="69.3333" y="5.33325" width="5.33333" height="5.33333" fill="#FFCB29"/>
<rect x="85.3333" y="5.33325" width="5.33333" height="5.33333" fill="#FFCB29"/>
<rect x="101.333" y="5.33325" width="5.33333" height="5.33333" fill="#FFCB29"/>
<rect x="112" y="10.6665" width="5.33333" height="5.33333" fill="#FFCB29"/>
<rect x="122.667" y="16" width="5.33333" height="5.33333" fill="#FFCB29"/>
<rect x="58.6667" y="5.33325" width="5.33333" height="5.33333" fill="#FFCB29"/>
<rect x="74.6667" y="5.33325" width="5.33333" height="5.33333" fill="#FFCB29"/>
<rect x="90.6667" y="5.33325" width="5.33333" height="5.33333" fill="#FFCB29"/>
<rect x="106.667" y="5.33325" width="5.33333" height="5.33333" fill="#FFCB29"/>
<rect x="117.333" y="10.6665" width="5.33333" height="5.33333" fill="#FFCB29"/>
<rect x="128" y="16" width="5.33333" height="5.33333" fill="#FFCB29"/>
<rect x="133.333" y="21.3333" width="5.33333" height="5.33333" fill="#FFCB29"/>
<rect x="138.667" y="26.6665" width="5.33333" height="5.33333" fill="#FFCB29"/>
<rect x="144" y="32" width="5.33333" height="5.33333" fill="#FFCB29"/>
<rect x="154.667" y="42.6665" width="5.33333" height="5.33333" fill="#FFCB29"/>
<rect x="149.333" y="37.3333" width="5.33333" height="5.33333" fill="#FFCB29"/>
<rect x="154.667" y="48" width="5.33333" height="5.33333" fill="#FFCB29"/>
<rect x="154.667" y="53.3333" width="5.33333" height="5.33333" fill="#FFCB29"/>
<rect x="154.667" y="58.6665" width="5.33333" height="5.33333" fill="#FFCB29"/>
<rect x="154.667" y="64" width="5.33333" height="5.33333" fill="#FFCB29"/>
<rect x="154.667" y="69.3333" width="5.33333" height="5.33333" fill="#FFCB29"/>
<rect x="154.667" y="74.6665" width="5.33333" height="5.33333" fill="#FFCB29"/>
</svg>
