<svg width="160" height="160" viewBox="0 0 160 160" fill="none" xmlns="http://www.w3.org/2000/svg">
<rect x="48" y="133.333" width="5.33333" height="5.33333" fill="black"/>
<rect x="48" y="138.667" width="5.33333" height="5.33333" fill="white"/>
<rect x="48" y="144" width="5.33333" height="5.33333" fill="#FFCB29"/>
<rect x="42.6667" y="133.333" width="5.33333" height="5.33333" fill="black"/>
<rect x="42.6667" y="138.667" width="5.33333" height="5.33333" fill="white"/>
<rect x="42.6667" y="144" width="5.33333" height="5.33333" fill="#FFCB29"/>
<rect x="37.3333" y="133.333" width="5.33333" height="5.33333" fill="white"/>
<rect x="37.3333" y="138.667" width="5.33333" height="5.33333" fill="white"/>
<rect x="37.3333" y="144" width="5.33333" height="5.33333" fill="#FFCB29"/>
<rect x="37.3333" y="128" width="5.33333" height="5.33333" fill="black"/>
<rect x="32" y="128" width="5.33333" height="5.33333" fill="white"/>
<rect x="32" y="133.333" width="5.33333" height="5.33333" fill="white"/>
<rect x="32" y="138.667" width="5.33333" height="5.33333" fill="#FFCB29"/>
<rect x="32" y="122.667" width="5.33333" height="5.33333" fill="black"/>
<rect x="26.6667" y="122.667" width="5.33333" height="5.33333" fill="white"/>
<rect x="26.6667" y="128" width="5.33333" height="5.33333" fill="white"/>
<rect x="26.6667" y="133.333" width="5.33333" height="5.33333" fill="#FFCB29"/>
<rect x="26.6667" y="117.333" width="5.33333" height="5.33333" fill="black"/>
<rect x="21.3333" y="117.333" width="5.33333" height="5.33333" fill="white"/>
<rect x="21.3333" y="122.667" width="5.33333" height="5.33333" fill="white"/>
<rect x="21.3333" y="128" width="5.33333" height="5.33333" fill="#FFCB29"/>
<rect x="21.3333" y="112" width="5.33333" height="5.33333" fill="black"/>
<rect x="16" y="112" width="5.33333" height="5.33333" fill="white"/>
<rect x="16" y="117.333" width="5.33333" height="5.33333" fill="white"/>
<rect x="16" y="122.667" width="5.33333" height="5.33333" fill="#FFCB29"/>
<rect x="16" y="96" width="5.33333" height="5.33333" fill="black"/>
<rect x="10.6667" y="96" width="5.33333" height="5.33333" fill="white"/>
<rect x="5.33333" y="96" width="5.33333" height="5.33333" fill="#FFCB29"/>
<rect x="16" y="101.333" width="5.33333" height="5.33333" fill="black"/>
<rect x="10.6667" y="101.333" width="5.33333" height="5.33333" fill="white"/>
<rect x="5.33333" y="101.333" width="5.33333" height="5.33333" fill="#FFCB29"/>
<rect x="16" y="106.667" width="5.33333" height="5.33333" fill="black"/>
<rect x="10.6667" y="106.667" width="5.33333" height="5.33333" fill="white"/>
<rect x="5.33333" y="106.667" width="5.33333" height="5.33333" fill="#FFCB29"/>
<rect x="10.6667" y="112" width="5.33333" height="5.33333" fill="white"/>
<rect x="5.33333" y="112" width="5.33333" height="5.33333" fill="#FFCB29"/>
<rect x="10.6667" y="117.333" width="5.33333" height="5.33333" fill="#FFCB29"/>
<rect x="16" y="90.6665" width="5.33333" height="5.33333" fill="black"/>
<rect x="10.6667" y="90.6665" width="5.33333" height="5.33333" fill="white"/>
<rect x="5.33333" y="90.6665" width="5.33333" height="5.33333" fill="#FFCB29"/>
<rect x="16" y="85.333" width="5.33333" height="5.33333" fill="black"/>
<rect x="10.6667" y="85.333" width="5.33333" height="5.33333" fill="white"/>
<rect x="5.33333" y="85.333" width="5.33333" height="5.33333" fill="#FFCB29"/>
<rect x="16" y="80" width="5.33333" height="5.33333" fill="black"/>
<rect x="10.6667" y="80" width="5.33333" height="5.33333" fill="white"/>
<rect x="5.33333" y="80" width="5.33333" height="5.33333" fill="#FFCB29"/>
<rect x="16" y="74.6665" width="5.33333" height="5.33333" fill="black"/>
<rect x="10.6667" y="74.6665" width="5.33333" height="5.33333" fill="white"/>
<rect x="5.33333" y="74.6665" width="5.33333" height="5.33333" fill="#FFCB29"/>
<rect x="21.3333" y="80" width="5.33333" height="5.33333" fill="#F0B967"/>
<rect x="21.3333" y="69.333" width="5.33333" height="5.33333" fill="#F0B967"/>
<rect x="26.6667" y="69.333" width="5.33333" height="5.33333" fill="#F0B967"/>
<rect x="32" y="64" width="5.33333" height="5.33333" fill="#F0B967"/>
<rect x="37.3333" y="64" width="5.33333" height="5.33333" fill="#F0B967"/>
<rect x="21.3333" y="74.6665" width="5.33333" height="5.33333" fill="#F0B967"/>
<rect x="21.3333" y="85.333" width="5.33333" height="5.33333" fill="#7C3C00"/>
<rect x="21.3333" y="90.6665" width="5.33333" height="5.33333" fill="#F0B967"/>
<rect x="21.3333" y="96" width="5.33333" height="5.33333" fill="#CB9C56"/>
<rect x="26.6667" y="101.333" width="5.33333" height="5.33333" fill="#CB9C56"/>
<rect x="32" y="106.667" width="5.33333" height="5.33333" fill="#CB9C56"/>
<rect x="37.3333" y="112" width="5.33333" height="5.33333" fill="#CB9C56"/>
<rect x="42.6667" y="117.333" width="5.33333" height="5.33333" fill="#CB9C56"/>
<rect x="48" y="117.333" width="5.33333" height="5.33333" fill="#CB9C56"/>
<rect x="53.3333" y="117.333" width="5.33333" height="5.33333" fill="#BD7E20"/>
<rect x="58.6667" y="112" width="5.33333" height="5.33333" fill="#BD7E20"/>
<rect x="64" y="112" width="5.33333" height="5.33333" fill="#BD7E20"/>
<rect x="69.3333" y="106.667" width="5.33333" height="5.33333" fill="#BD7E20"/>
<rect x="74.6667" y="106.667" width="5.33333" height="5.33333" fill="#BD7E20"/>
<rect x="80" y="101.333" width="5.33333" height="5.33333" fill="#BD7E20"/>
<rect x="85.3333" y="101.333" width="5.33333" height="5.33333" fill="#BD7E20"/>
<rect x="90.6667" y="96" width="5.33333" height="5.33333" fill="#BD7E20"/>
<rect x="96" y="96" width="5.33333" height="5.33333" fill="#BD7E20"/>
<rect x="101.333" y="90.6665" width="5.33333" height="5.33333" fill="#BD7E20"/>
<rect x="106.667" y="90.6665" width="5.33333" height="5.33333" fill="#BD7E20"/>
<rect x="112" y="85.333" width="5.33333" height="5.33333" fill="#BD7E20"/>
<rect x="117.333" y="85.333" width="5.33333" height="5.33333" fill="#BD7E20"/>
<rect x="122.667" y="80" width="5.33333" height="5.33333" fill="#BD7E20"/>
<rect x="128" y="80" width="5.33333" height="5.33333" fill="#BD7E20"/>
<rect x="128" y="74.6665" width="5.33333" height="5.33333" fill="#BD7E20"/>
<rect x="133.333" y="80" width="5.33333" height="5.33333" fill="#BD7E20"/>
<rect x="133.333" y="74.6665" width="5.33333" height="5.33333" fill="#BD7E20"/>
<rect x="21.3333" y="101.333" width="5.33333" height="5.33333" fill="#CB9C56"/>
<rect x="26.6667" y="106.667" width="5.33333" height="5.33333" fill="#CB9C56"/>
<rect x="32" y="112" width="5.33333" height="5.33333" fill="#CB9C56"/>
<rect x="37.3333" y="117.333" width="5.33333" height="5.33333" fill="#CB9C56"/>
<rect x="42.6667" y="122.667" width="5.33333" height="5.33333" fill="#CB9C56"/>
<rect x="48" y="122.667" width="5.33333" height="5.33333" fill="#CB9C56"/>
<rect x="53.3333" y="122.667" width="5.33333" height="5.33333" fill="#BD7E20"/>
<rect x="58.6667" y="117.333" width="5.33333" height="5.33333" fill="#BD7E20"/>
<rect x="64" y="117.333" width="5.33333" height="5.33333" fill="#BD7E20"/>
<rect x="69.3333" y="112" width="5.33333" height="5.33333" fill="#BD7E20"/>
<rect x="74.6667" y="112" width="5.33333" height="5.33333" fill="#BD7E20"/>
<rect x="80" y="106.667" width="5.33333" height="5.33333" fill="#BD7E20"/>
<rect x="85.3333" y="106.667" width="5.33333" height="5.33333" fill="#BD7E20"/>
<rect x="90.6667" y="101.333" width="5.33333" height="5.33333" fill="#BD7E20"/>
<rect x="96" y="101.333" width="5.33333" height="5.33333" fill="#BD7E20"/>
<rect x="101.333" y="96" width="5.33333" height="5.33333" fill="#BD7E20"/>
<rect x="106.667" y="96" width="5.33333" height="5.33333" fill="#BD7E20"/>
<rect x="112" y="90.6665" width="5.33333" height="5.33333" fill="#BD7E20"/>
<rect x="117.333" y="90.6665" width="5.33333" height="5.33333" fill="#BD7E20"/>
<rect x="122.667" y="85.333" width="5.33333" height="5.33333" fill="#BD7E20"/>
<rect x="128" y="85.333" width="5.33333" height="5.33333" fill="#BD7E20"/>
<rect x="133.333" y="85.333" width="5.33333" height="5.33333" fill="#BD7E20"/>
<rect x="21.3333" y="106.667" width="5.33333" height="5.33333" fill="#CB9C56"/>
<rect x="26.6667" y="112" width="5.33333" height="5.33333" fill="#CB9C56"/>
<rect x="32" y="117.333" width="5.33333" height="5.33333" fill="#CB9C56"/>
<rect x="37.3333" y="122.667" width="5.33333" height="5.33333" fill="#CB9C56"/>
<rect x="42.6667" y="128" width="5.33333" height="5.33333" fill="#CB9C56"/>
<rect x="48" y="128" width="5.33333" height="5.33333" fill="#CB9C56"/>
<rect x="53.3333" y="128" width="5.33333" height="5.33333" fill="#BD7E20"/>
<rect x="58.6667" y="122.667" width="5.33333" height="5.33333" fill="#BD7E20"/>
<rect x="64" y="122.667" width="5.33333" height="5.33333" fill="#BD7E20"/>
<rect x="69.3333" y="117.333" width="5.33333" height="5.33333" fill="#BD7E20"/>
<rect x="74.6667" y="117.333" width="5.33333" height="5.33333" fill="#BD7E20"/>
<rect x="80" y="112" width="5.33333" height="5.33333" fill="#BD7E20"/>
<rect x="85.3333" y="112" width="5.33333" height="5.33333" fill="#BD7E20"/>
<rect x="90.6667" y="106.667" width="5.33333" height="5.33333" fill="#BD7E20"/>
<rect x="96" y="106.667" width="5.33333" height="5.33333" fill="#BD7E20"/>
<rect x="101.333" y="101.333" width="5.33333" height="5.33333" fill="#BD7E20"/>
<rect x="106.667" y="101.333" width="5.33333" height="5.33333" fill="#BD7E20"/>
<rect x="112" y="96" width="5.33333" height="5.33333" fill="#BD7E20"/>
<rect x="117.333" y="96" width="5.33333" height="5.33333" fill="#BD7E20"/>
<rect x="122.667" y="90.6665" width="5.33333" height="5.33333" fill="#BD7E20"/>
<rect x="128" y="90.6665" width="5.33333" height="5.33333" fill="#BD7E20"/>
<rect x="133.333" y="90.6665" width="5.33333" height="5.33333" fill="#BD7E20"/>
<rect x="26.6667" y="90.6665" width="5.33333" height="5.33333" fill="#7C3C00"/>
<rect x="26.6667" y="96" width="5.33333" height="5.33333" fill="#F0B967"/>
<rect x="32" y="96" width="5.33333" height="5.33333" fill="#7C3C00"/>
<rect x="32" y="101.333" width="5.33333" height="5.33333" fill="#F0B967"/>
<rect x="37.3333" y="101.333" width="5.33333" height="5.33333" fill="#7C3C00"/>
<rect x="37.3333" y="106.667" width="5.33333" height="5.33333" fill="#F0B967"/>
<rect x="42.6667" y="106.667" width="5.33333" height="5.33333" fill="#7C3C00"/>
<rect x="42.6667" y="112" width="5.33333" height="5.33333" fill="#F0B967"/>
<rect x="48" y="106.667" width="5.33333" height="5.33333" fill="#7C3C00"/>
<rect x="48" y="112" width="5.33333" height="5.33333" fill="#F0B967"/>
<rect x="53.3333" y="106.667" width="5.33333" height="5.33333" fill="#7C3C00"/>
<rect x="53.3333" y="112" width="5.33333" height="5.33333" fill="#F0B967"/>
<rect x="58.6667" y="101.333" width="5.33333" height="5.33333" fill="#7C3C00"/>
<rect x="58.6667" y="106.667" width="5.33333" height="5.33333" fill="#F0B967"/>
<rect x="64" y="101.333" width="5.33333" height="5.33333" fill="#7C3C00"/>
<rect x="64" y="106.667" width="5.33333" height="5.33333" fill="#F0B967"/>
<rect x="69.3333" y="96" width="5.33333" height="5.33333" fill="#7C3C00"/>
<rect x="69.3333" y="101.333" width="5.33333" height="5.33333" fill="#F0B967"/>
<rect x="74.6667" y="96" width="5.33333" height="5.33333" fill="#7C3C00"/>
<rect x="74.6667" y="101.333" width="5.33333" height="5.33333" fill="#F0B967"/>
<rect x="80" y="90.6665" width="5.33333" height="5.33333" fill="#7C3C00"/>
<rect x="80" y="96" width="5.33333" height="5.33333" fill="#F0B967"/>
<rect x="90.6667" y="85.333" width="5.33333" height="5.33333" fill="#7C3C00"/>
<rect x="90.6667" y="90.6665" width="5.33333" height="5.33333" fill="#F0B967"/>
<rect x="101.333" y="80" width="5.33333" height="5.33333" fill="#7C3C00"/>
<rect x="101.333" y="85.333" width="5.33333" height="5.33333" fill="#F0B967"/>
<rect x="112" y="74.6665" width="5.33333" height="5.33333" fill="#7C3C00"/>
<rect x="112" y="80" width="5.33333" height="5.33333" fill="#F0B967"/>
<rect x="85.3333" y="90.6665" width="5.33333" height="5.33333" fill="#7C3C00"/>
<rect x="85.3333" y="96" width="5.33333" height="5.33333" fill="#F0B967"/>
<rect x="96" y="85.333" width="5.33333" height="5.33333" fill="#7C3C00"/>
<rect x="96" y="90.6665" width="5.33333" height="5.33333" fill="#F0B967"/>
<rect x="90.6667" y="80" width="5.33333" height="5.33333" fill="#F0B967"/>
<rect x="85.3333" y="74.6665" width="5.33333" height="5.33333" fill="#F0B967"/>
<rect x="80" y="69.333" width="5.33333" height="5.33333" fill="#F0B967"/>
<rect x="74.6667" y="64" width="5.33333" height="5.33333" fill="#F0B967"/>
<rect x="69.3333" y="58.6665" width="5.33333" height="5.33333" fill="#F0B967"/>
<rect x="64" y="53.333" width="5.33333" height="5.33333" fill="#BD7E20"/>
<rect x="106.667" y="80" width="5.33333" height="5.33333" fill="#7C3C00"/>
<rect x="106.667" y="85.333" width="5.33333" height="5.33333" fill="#F0B967"/>
<rect x="117.333" y="74.6665" width="5.33333" height="5.33333" fill="#7C3C00"/>
<rect x="117.333" y="80" width="5.33333" height="5.33333" fill="#F0B967"/>
<rect x="122.667" y="69.333" width="5.33333" height="5.33333" fill="#7C3C00"/>
<rect x="122.667" y="74.6665" width="5.33333" height="5.33333" fill="#F0B967"/>
<rect x="128" y="64" width="5.33333" height="5.33333" fill="#7C3C00"/>
<rect x="128" y="69.333" width="5.33333" height="5.33333" fill="#F0B967"/>
<rect x="133.333" y="64" width="5.33333" height="5.33333" fill="#7C3C00"/>
<rect x="133.333" y="69.333" width="5.33333" height="5.33333" fill="#F0B967"/>
<rect x="16" y="69.333" width="5.33333" height="5.33333" fill="black"/>
<rect x="10.6667" y="69.333" width="5.33333" height="5.33333" fill="white"/>
<rect x="5.33333" y="69.333" width="5.33333" height="5.33333" fill="#FFCB29"/>
<rect x="10.6667" y="64" width="5.33333" height="5.33333" fill="white"/>
<rect x="5.33333" y="64" width="5.33333" height="5.33333" fill="#FFCB29"/>
<rect x="10.6667" y="58.6665" width="5.33333" height="5.33333" fill="#FFCB29"/>
<rect x="16" y="64" width="5.33333" height="5.33333" fill="white"/>
<rect x="16" y="58.6665" width="5.33333" height="5.33333" fill="white"/>
<rect x="16" y="53.333" width="5.33333" height="5.33333" fill="#FFCB29"/>
<rect x="21.3333" y="64" width="5.33333" height="5.33333" fill="black"/>
<rect x="21.3333" y="58.6665" width="5.33333" height="5.33333" fill="white"/>
<rect x="21.3333" y="53.333" width="5.33333" height="5.33333" fill="#FFCB29"/>
<rect x="26.6667" y="64" width="5.33333" height="5.33333" fill="black"/>
<rect x="26.6667" y="58.6665" width="5.33333" height="5.33333" fill="white"/>
<rect x="26.6667" y="53.333" width="5.33333" height="5.33333" fill="white"/>
<rect x="26.6667" y="48" width="5.33333" height="5.33333" fill="#FFCB29"/>
<rect x="32" y="58.6665" width="5.33333" height="5.33333" fill="black"/>
<rect x="32" y="53.333" width="5.33333" height="5.33333" fill="white"/>
<rect x="32" y="48" width="5.33333" height="5.33333" fill="#FFCB29"/>
<rect x="37.3333" y="58.6665" width="5.33333" height="5.33333" fill="black"/>
<rect x="37.3333" y="53.333" width="5.33333" height="5.33333" fill="white"/>
<rect x="37.3333" y="48" width="5.33333" height="5.33333" fill="white"/>
<rect x="37.3333" y="42.6665" width="5.33333" height="5.33333" fill="#FFCB29"/>
<rect x="42.6667" y="53.333" width="5.33333" height="5.33333" fill="black"/>
<rect x="42.6667" y="48" width="5.33333" height="5.33333" fill="white"/>
<rect x="42.6667" y="42.6665" width="5.33333" height="5.33333" fill="#FFCB29"/>
<rect x="42.6667" y="58.6665" width="5.33333" height="5.33333" fill="#F0B967"/>
<rect x="48" y="69.333" width="5.33333" height="5.33333" fill="#FFBE29"/>
<rect x="48" y="64" width="5.33333" height="5.33333" fill="#BD7E20"/>
<rect x="42.6667" y="64" width="5.33333" height="5.33333" fill="#BD7E20"/>
<rect x="42.6667" y="69.333" width="5.33333" height="5.33333" fill="#FEFCFD"/>
<rect x="37.3333" y="69.333" width="5.33333" height="5.33333" fill="#BD7E20"/>
<rect x="37.3333" y="74.6665" width="5.33333" height="5.33333" fill="#FEFCFD"/>
<rect x="37.3333" y="80" width="5.33333" height="5.33333" fill="#FEFCFD"/>
<rect x="42.6667" y="85.333" width="5.33333" height="5.33333" fill="#FEFCFD"/>
<rect x="48" y="90.6665" width="5.33333" height="5.33333" fill="#FEFCFD"/>
<rect x="64" y="90.6665" width="5.33333" height="5.33333" fill="#FEFCFD"/>
<rect x="64" y="85.333" width="5.33333" height="5.33333" fill="#FEFCFD"/>
<rect x="69.3333" y="85.333" width="5.33333" height="5.33333" fill="#FEFCFD"/>
<rect x="74.6667" y="85.333" width="5.33333" height="5.33333" fill="#FEFCFD"/>
<rect x="80" y="80" width="5.33333" height="5.33333" fill="#FEFCFD"/>
<rect x="74.6667" y="80" width="5.33333" height="5.33333" fill="#FEFCFD"/>
<rect x="74.6667" y="74.6665" width="5.33333" height="5.33333" fill="#FEFCFD"/>
<rect x="69.3333" y="69.333" width="5.33333" height="5.33333" fill="#FEFCFD"/>
<rect x="69.3333" y="80" width="5.33333" height="5.33333" fill="#FEFCFD"/>
<rect x="69.3333" y="74.6665" width="5.33333" height="5.33333" fill="#FEFCFD"/>
<rect x="64" y="69.333" width="5.33333" height="5.33333" fill="#FEFCFD"/>
<rect x="58.6667" y="69.333" width="5.33333" height="5.33333" fill="#FDA900"/>
<rect x="58.6667" y="64" width="5.33333" height="5.33333" fill="#FEFCFD"/>
<rect x="53.3333" y="96" width="5.33333" height="5.33333" fill="#FEFCFD"/>
<rect x="32" y="69.333" width="5.33333" height="5.33333" fill="#BD7E20"/>
<rect x="32" y="74.6665" width="5.33333" height="5.33333" fill="#FEFCFD"/>
<rect x="32" y="80" width="5.33333" height="5.33333" fill="#FEFCFD"/>
<rect x="37.3333" y="85.333" width="5.33333" height="5.33333" fill="#FEFCFD"/>
<rect x="42.6667" y="90.6665" width="5.33333" height="5.33333" fill="#FEFCFD"/>
<rect x="58.6667" y="90.6665" width="5.33333" height="5.33333" fill="#FEFCFD"/>
<rect x="58.6667" y="96" width="5.33333" height="5.33333" fill="#FEFCFD"/>
<rect x="42.6667" y="96" width="5.33333" height="5.33333" fill="#FEFCFD"/>
<rect x="37.3333" y="90.6665" width="5.33333" height="5.33333" fill="#FEFCFD"/>
<rect x="53.3333" y="90.6665" width="5.33333" height="5.33333" fill="#FEFCFD"/>
<rect x="48" y="96" width="5.33333" height="5.33333" fill="#FEFCFD"/>
<rect x="53.3333" y="58.6665" width="5.33333" height="5.33333" fill="#BD7E20"/>
<rect x="48" y="74.6665" width="5.33333" height="5.33333" fill="#FFE6BC"/>
<rect x="42.6667" y="74.6665" width="5.33333" height="5.33333" fill="#FFBE29"/>
<rect x="42.6667" y="80" width="5.33333" height="5.33333" fill="#FFBE29"/>
<rect x="48" y="80" width="5.33333" height="5.33333" fill="#FFBE29"/>
<rect x="48" y="53.333" width="5.33333" height="5.33333" fill="black"/>
<rect x="48" y="48" width="5.33333" height="5.33333" fill="white"/>
<rect x="48" y="42.6665" width="5.33333" height="5.33333" fill="white"/>
<rect x="48" y="37.333" width="5.33333" height="5.33333" fill="#FFCB29"/>
<rect x="48" y="58.6665" width="5.33333" height="5.33333" fill="#F0B967"/>
<rect x="53.3333" y="69.333" width="5.33333" height="5.33333" fill="#FFBE29"/>
<rect x="53.3333" y="64" width="5.33333" height="5.33333" fill="#FEFCFD"/>
<rect x="58.6667" y="58.6665" width="5.33333" height="5.33333" fill="#BD7E20"/>
<rect x="64" y="58.6665" width="5.33333" height="5.33333" fill="#F4F5EB"/>
<rect x="64" y="64" width="5.33333" height="5.33333" fill="#E4E1DB"/>
<rect x="69.3333" y="64" width="5.33333" height="5.33333" fill="#E4E1DB"/>
<rect x="74.6667" y="69.333" width="5.33333" height="5.33333" fill="#F4F5EB"/>
<rect x="80" y="74.6665" width="5.33333" height="5.33333" fill="#E4E1DB"/>
<rect x="85.3333" y="80" width="5.33333" height="5.33333" fill="#F4F5EB"/>
<rect x="85.3333" y="85.333" width="5.33333" height="5.33333" fill="#F4F5EB"/>
<rect x="80" y="85.333" width="5.33333" height="5.33333" fill="#E4E1DB"/>
<rect x="74.6667" y="90.6665" width="5.33333" height="5.33333" fill="#E4E1DB"/>
<rect x="69.3333" y="90.6665" width="5.33333" height="5.33333" fill="#E4E1DB"/>
<rect x="64" y="96" width="5.33333" height="5.33333" fill="#F4F5EB"/>
<rect x="53.3333" y="101.333" width="5.33333" height="5.33333" fill="#E4E1DB"/>
<rect x="48" y="101.333" width="5.33333" height="5.33333" fill="#E4E1DB"/>
<rect x="42.6667" y="101.333" width="5.33333" height="5.33333" fill="#E4E1DB"/>
<rect x="37.3333" y="96" width="5.33333" height="5.33333" fill="#F4F5EB"/>
<rect x="32" y="90.6665" width="5.33333" height="5.33333" fill="#F4F5EB"/>
<rect x="32" y="85.333" width="5.33333" height="5.33333" fill="#E4E1DB"/>
<rect x="26.6667" y="85.333" width="5.33333" height="5.33333" fill="#F4F5EB"/>
<rect x="26.6667" y="80" width="5.33333" height="5.33333" fill="#F4F5EB"/>
<rect x="26.6667" y="74.6665" width="5.33333" height="5.33333" fill="#BD7E20"/>
<rect x="53.3333" y="74.6665" width="5.33333" height="5.33333" fill="#FFBE29"/>
<rect x="53.3333" y="80" width="5.33333" height="5.33333" fill="#FFBE29"/>
<rect x="58.6667" y="74.6665" width="5.33333" height="5.33333" fill="#FFBE29"/>
<rect x="58.6667" y="80" width="5.33333" height="5.33333" fill="#FFBE29"/>
<rect x="64" y="74.6665" width="5.33333" height="5.33333" fill="#FDA900"/>
<rect x="64" y="80" width="5.33333" height="5.33333" fill="#FDA900"/>
<rect x="58.6667" y="85.333" width="5.33333" height="5.33333" fill="#FDA900"/>
<rect x="53.3333" y="85.333" width="5.33333" height="5.33333" fill="#FDA900"/>
<rect x="48" y="85.333" width="5.33333" height="5.33333" fill="#FDA900"/>
<rect x="53.3333" y="48" width="5.33333" height="5.33333" fill="black"/>
<rect x="53.3333" y="42.6665" width="5.33333" height="5.33333" fill="white"/>
<rect x="53.3333" y="37.333" width="5.33333" height="5.33333" fill="#FFCB29"/>
<rect x="53.3333" y="53.333" width="5.33333" height="5.33333" fill="#F0B967"/>
<rect x="58.6667" y="48" width="5.33333" height="5.33333" fill="black"/>
<rect x="58.6667" y="42.6665" width="5.33333" height="5.33333" fill="white"/>
<rect x="58.6667" y="37.333" width="5.33333" height="5.33333" fill="white"/>
<rect x="58.6667" y="32" width="5.33333" height="5.33333" fill="#FFCB29"/>
<rect x="58.6667" y="53.333" width="5.33333" height="5.33333" fill="#F0B967"/>
<rect x="64" y="42.6665" width="5.33333" height="5.33333" fill="black"/>
<rect x="64" y="37.333" width="5.33333" height="5.33333" fill="white"/>
<rect x="64" y="32" width="5.33333" height="5.33333" fill="white"/>
<rect x="64" y="26.6665" width="5.33333" height="5.33333" fill="#FFCB29"/>
<rect x="64" y="48" width="5.33333" height="5.33333" fill="#F0B967"/>
<rect x="69.3333" y="37.333" width="5.33333" height="5.33333" fill="black"/>
<rect x="69.3333" y="32" width="5.33333" height="5.33333" fill="white"/>
<rect x="69.3333" y="26.6665" width="5.33333" height="5.33333" fill="#FFCB29"/>
<rect x="69.3333" y="42.6665" width="5.33333" height="5.33333" fill="#F0B967"/>
<rect x="69.3333" y="48" width="5.33333" height="5.33333" fill="#BD7E20"/>
<rect x="69.3333" y="53.333" width="5.33333" height="5.33333" fill="#D97062"/>
<rect x="74.6667" y="58.6665" width="5.33333" height="5.33333" fill="#FFC5BD"/>
<rect x="74.6667" y="37.333" width="5.33333" height="5.33333" fill="black"/>
<rect x="74.6667" y="32" width="5.33333" height="5.33333" fill="white"/>
<rect x="74.6667" y="26.6665" width="5.33333" height="5.33333" fill="white"/>
<rect x="74.6667" y="21.333" width="5.33333" height="5.33333" fill="#FFCB29"/>
<rect x="74.6667" y="42.6665" width="5.33333" height="5.33333" fill="#F0B967"/>
<rect x="74.6667" y="48" width="5.33333" height="5.33333" fill="#BD7E20"/>
<rect x="80" y="48" width="5.33333" height="5.33333" fill="#FFC5BD"/>
<rect x="85.3333" y="48" width="5.33333" height="5.33333" fill="#FF9D8F"/>
<rect x="90.6667" y="42.6665" width="5.33333" height="5.33333" fill="#D97062"/>
<rect x="96" y="42.6665" width="5.33333" height="5.33333" fill="#FF9D8F"/>
<rect x="101.333" y="37.333" width="5.33333" height="5.33333" fill="#FFC5BD"/>
<rect x="106.667" y="37.333" width="5.33333" height="5.33333" fill="#FF9D8F"/>
<rect x="112" y="37.333" width="5.33333" height="5.33333" fill="#FF9D8F"/>
<rect x="117.333" y="37.333" width="5.33333" height="5.33333" fill="#BD7E20"/>
<rect x="80" y="42.6665" width="5.33333" height="5.33333" fill="#BD7E20"/>
<rect x="85.3333" y="42.6665" width="5.33333" height="5.33333" fill="#BD7E20"/>
<rect x="90.6667" y="37.333" width="5.33333" height="5.33333" fill="#BD7E20"/>
<rect x="96" y="37.333" width="5.33333" height="5.33333" fill="#BD7E20"/>
<rect x="101.333" y="32" width="5.33333" height="5.33333" fill="#BD7E20"/>
<rect x="106.667" y="32" width="5.33333" height="5.33333" fill="#BD7E20"/>
<rect x="112" y="32" width="5.33333" height="5.33333" fill="#BD7E20"/>
<rect x="74.6667" y="53.333" width="5.33333" height="5.33333" fill="#D97062"/>
<rect x="80" y="53.333" width="5.33333" height="5.33333" fill="#D97062"/>
<rect x="85.3333" y="53.333" width="5.33333" height="5.33333" fill="#D97062"/>
<rect x="90.6667" y="48" width="5.33333" height="5.33333" fill="#FFC5BD"/>
<rect x="96" y="48" width="5.33333" height="5.33333" fill="#D97062"/>
<rect x="101.333" y="42.6665" width="5.33333" height="5.33333" fill="#D97062"/>
<rect x="106.667" y="42.6665" width="5.33333" height="5.33333" fill="#D97062"/>
<rect x="112" y="42.6665" width="5.33333" height="5.33333" fill="#D97062"/>
<rect x="112" y="48" width="5.33333" height="5.33333" fill="#FF9D8F"/>
<rect x="112" y="53.333" width="5.33333" height="5.33333" fill="#FB7220"/>
<rect x="112" y="58.6665" width="5.33333" height="5.33333" fill="#F05A00"/>
<rect x="112" y="64" width="5.33333" height="5.33333" fill="#E03C0F"/>
<rect x="112" y="69.333" width="5.33333" height="5.33333" fill="#F05A00"/>
<rect x="117.333" y="42.6665" width="5.33333" height="5.33333" fill="#FF9D8F"/>
<rect x="117.333" y="48" width="5.33333" height="5.33333" fill="#D97062"/>
<rect x="117.333" y="53.333" width="5.33333" height="5.33333" fill="#F05A00"/>
<rect x="117.333" y="58.6665" width="5.33333" height="5.33333" fill="#E03C0F"/>
<rect x="117.333" y="64" width="5.33333" height="5.33333" fill="#F05A00"/>
<rect x="117.333" y="69.333" width="5.33333" height="5.33333" fill="#A50C0C"/>
<rect x="80" y="58.6665" width="5.33333" height="5.33333" fill="#FFC5BD"/>
<rect x="80" y="64" width="5.33333" height="5.33333" fill="#FF9D8F"/>
<rect x="85.3333" y="58.6665" width="5.33333" height="5.33333" fill="#FFC5BD"/>
<rect x="85.3333" y="64" width="5.33333" height="5.33333" fill="#FF9D8F"/>
<rect x="85.3333" y="69.333" width="5.33333" height="5.33333" fill="#A50C0C"/>
<rect x="90.6667" y="53.333" width="5.33333" height="5.33333" fill="#FF9D8F"/>
<rect x="90.6667" y="58.6665" width="5.33333" height="5.33333" fill="#D97062"/>
<rect x="90.6667" y="64" width="5.33333" height="5.33333" fill="#FB7220"/>
<rect x="90.6667" y="69.333" width="5.33333" height="5.33333" fill="#F05A00"/>
<rect x="90.6667" y="74.6665" width="5.33333" height="5.33333" fill="#E03C0F"/>
<rect x="96" y="53.333" width="5.33333" height="5.33333" fill="#FF9D8F"/>
<rect x="96" y="58.6665" width="5.33333" height="5.33333" fill="#FF9D8F"/>
<rect x="96" y="64" width="5.33333" height="5.33333" fill="#E03C0F"/>
<rect x="96" y="69.333" width="5.33333" height="5.33333" fill="#E03C0F"/>
<rect x="96" y="74.6665" width="5.33333" height="5.33333" fill="#FB7220"/>
<rect x="96" y="80" width="5.33333" height="5.33333" fill="#F05A00"/>
<rect x="101.333" y="48" width="5.33333" height="5.33333" fill="#FFC5BD"/>
<rect x="101.333" y="53.333" width="5.33333" height="5.33333" fill="#D97062"/>
<rect x="101.333" y="58.6665" width="5.33333" height="5.33333" fill="#E03C0F"/>
<rect x="101.333" y="64" width="5.33333" height="5.33333" fill="#FB7220"/>
<rect x="101.333" y="69.333" width="5.33333" height="5.33333" fill="#A50C0C"/>
<rect x="101.333" y="74.6665" width="5.33333" height="5.33333" fill="#E03C0F"/>
<rect x="106.667" y="48" width="5.33333" height="5.33333" fill="#FF9D8F"/>
<rect x="106.667" y="53.333" width="5.33333" height="5.33333" fill="#FF9D8F"/>
<rect x="106.667" y="58.6665" width="5.33333" height="5.33333" fill="#E03C0F"/>
<rect x="106.667" y="64" width="5.33333" height="5.33333" fill="#F05A00"/>
<rect x="106.667" y="69.333" width="5.33333" height="5.33333" fill="#E03C0F"/>
<rect x="106.667" y="74.6665" width="5.33333" height="5.33333" fill="#F05A00"/>
<rect x="122.667" y="42.6665" width="5.33333" height="5.33333" fill="#BD7E20"/>
<rect x="122.667" y="48" width="5.33333" height="5.33333" fill="#BD7E20"/>
<rect x="122.667" y="53.333" width="5.33333" height="5.33333" fill="#A50C0C"/>
<rect x="122.667" y="58.6665" width="5.33333" height="5.33333" fill="#E03C0F"/>
<rect x="122.667" y="64" width="5.33333" height="5.33333" fill="#F05A00"/>
<rect x="128" y="53.333" width="5.33333" height="5.33333" fill="#E03C0F"/>
<rect x="128" y="58.6665" width="5.33333" height="5.33333" fill="#A50C0C"/>
<rect x="80" y="32" width="5.33333" height="5.33333" fill="black"/>
<rect x="80" y="26.6665" width="5.33333" height="5.33333" fill="white"/>
<rect x="80" y="21.333" width="5.33333" height="5.33333" fill="#FFCB29"/>
<rect x="80" y="37.333" width="5.33333" height="5.33333" fill="#F0B967"/>
<rect x="85.3333" y="32" width="5.33333" height="5.33333" fill="black"/>
<rect x="85.3333" y="26.6665" width="5.33333" height="5.33333" fill="white"/>
<rect x="85.3333" y="21.333" width="5.33333" height="5.33333" fill="white"/>
<rect x="85.3333" y="16" width="5.33333" height="5.33333" fill="#FFCB29"/>
<rect x="85.3333" y="37.333" width="5.33333" height="5.33333" fill="#F0B967"/>
<rect x="90.6667" y="26.6665" width="5.33333" height="5.33333" fill="black"/>
<rect x="90.6667" y="21.333" width="5.33333" height="5.33333" fill="white"/>
<rect x="90.6667" y="16" width="5.33333" height="5.33333" fill="#FFCB29"/>
<rect x="90.6667" y="32" width="5.33333" height="5.33333" fill="#F0B967"/>
<rect x="96" y="26.6665" width="5.33333" height="5.33333" fill="black"/>
<rect x="96" y="21.333" width="5.33333" height="5.33333" fill="white"/>
<rect x="96" y="16" width="5.33333" height="5.33333" fill="white"/>
<rect x="96" y="10.6665" width="5.33333" height="5.33333" fill="#FFCB29"/>
<rect x="96" y="32" width="5.33333" height="5.33333" fill="#F0B967"/>
<rect x="101.333" y="21.333" width="5.33333" height="5.33333" fill="black"/>
<rect x="101.333" y="16" width="5.33333" height="5.33333" fill="white"/>
<rect x="101.333" y="10.6665" width="5.33333" height="5.33333" fill="#FFCB29"/>
<rect x="101.333" y="26.6665" width="5.33333" height="5.33333" fill="#F0B967"/>
<rect x="106.667" y="21.333" width="5.33333" height="5.33333" fill="black"/>
<rect x="106.667" y="16" width="5.33333" height="5.33333" fill="white"/>
<rect x="106.667" y="10.6665" width="5.33333" height="5.33333" fill="#FFCB29"/>
<rect x="106.667" y="26.6665" width="5.33333" height="5.33333" fill="#F0B967"/>
<rect x="112" y="21.333" width="5.33333" height="5.33333" fill="black"/>
<rect x="112" y="16" width="5.33333" height="5.33333" fill="white"/>
<rect x="112" y="10.6665" width="5.33333" height="5.33333" fill="#FFCB29"/>
<rect x="112" y="26.6665" width="5.33333" height="5.33333" fill="#F0B967"/>
<rect x="117.333" y="26.6665" width="5.33333" height="5.33333" fill="black"/>
<rect x="117.333" y="21.333" width="5.33333" height="5.33333" fill="white"/>
<rect x="117.333" y="16" width="5.33333" height="5.33333" fill="white"/>
<rect x="117.333" y="10.6665" width="5.33333" height="5.33333" fill="#FFCB29"/>
<rect x="117.333" y="32" width="5.33333" height="5.33333" fill="#F0B967"/>
<rect x="122.667" y="32" width="5.33333" height="5.33333" fill="black"/>
<rect x="122.667" y="26.6665" width="5.33333" height="5.33333" fill="white"/>
<rect x="122.667" y="21.333" width="5.33333" height="5.33333" fill="white"/>
<rect x="122.667" y="16" width="5.33333" height="5.33333" fill="#FFCB29"/>
<rect x="102.667" y="26.6665" width="5.33333" height="5.33333" fill="#F0B967"/>
<rect x="128" y="37.333" width="5.33333" height="5.33333" fill="black"/>
<rect x="128" y="32" width="5.33333" height="5.33333" fill="white"/>
<rect x="128" y="26.6665" width="5.33333" height="5.33333" fill="white"/>
<rect x="128" y="21.333" width="5.33333" height="5.33333" fill="#FFCB29"/>
<rect x="128" y="42.6665" width="5.33333" height="5.33333" fill="#F0B967"/>
<rect x="122.667" y="37.333" width="5.33333" height="5.33333" fill="#F0B967"/>
<rect x="128" y="48" width="5.33333" height="5.33333" fill="#F0B967"/>
<rect x="133.333" y="42.6665" width="5.33333" height="5.33333" fill="black"/>
<rect x="138.667" y="42.6665" width="5.33333" height="5.33333" fill="white"/>
<rect x="138.667" y="37.333" width="5.33333" height="5.33333" fill="white"/>
<rect x="144" y="37.333" width="5.33333" height="5.33333" fill="#FFCB29"/>
<rect x="138.667" y="32" width="5.33333" height="5.33333" fill="#FFCB29"/>
<rect x="133.333" y="37.333" width="5.33333" height="5.33333" fill="white"/>
<rect x="133.333" y="32" width="5.33333" height="5.33333" fill="white"/>
<rect x="133.333" y="26.6665" width="5.33333" height="5.33333" fill="#FFCB29"/>
<rect x="133.333" y="48" width="5.33333" height="5.33333" fill="black"/>
<rect x="133.333" y="53.333" width="5.33333" height="5.33333" fill="#F0B967"/>
<rect x="133.333" y="58.6665" width="5.33333" height="5.33333" fill="#BD7E20"/>
<rect x="138.667" y="53.333" width="5.33333" height="5.33333" fill="black"/>
<rect x="144" y="53.333" width="5.33333" height="5.33333" fill="white"/>
<rect x="149.333" y="53.333" width="5.33333" height="5.33333" fill="#FFCB29"/>
<rect x="144" y="48" width="5.33333" height="5.33333" fill="white"/>
<rect x="149.333" y="48" width="5.33333" height="5.33333" fill="#FFCB29"/>
<rect x="144" y="42.6665" width="5.33333" height="5.33333" fill="#FFCB29"/>
<rect x="138.667" y="48" width="5.33333" height="5.33333" fill="white"/>
<rect x="138.667" y="58.6665" width="5.33333" height="5.33333" fill="black"/>
<rect x="144" y="58.6665" width="5.33333" height="5.33333" fill="white"/>
<rect x="149.333" y="58.6665" width="5.33333" height="5.33333" fill="#FFCB29"/>
<rect x="138.667" y="64" width="5.33333" height="5.33333" fill="black"/>
<rect x="144" y="64" width="5.33333" height="5.33333" fill="white"/>
<rect x="149.333" y="64" width="5.33333" height="5.33333" fill="#FFCB29"/>
<rect x="138.667" y="69.333" width="5.33333" height="5.33333" fill="black"/>
<rect x="144" y="69.333" width="5.33333" height="5.33333" fill="white"/>
<rect x="149.333" y="69.333" width="5.33333" height="5.33333" fill="#FFCB29"/>
<rect x="138.667" y="74.6665" width="5.33333" height="5.33333" fill="black"/>
<rect x="144" y="74.6665" width="5.33333" height="5.33333" fill="white"/>
<rect x="149.333" y="74.6665" width="5.33333" height="5.33333" fill="#FFCB29"/>
<rect x="138.667" y="80" width="5.33333" height="5.33333" fill="black"/>
<rect x="144" y="80" width="5.33333" height="5.33333" fill="white"/>
<rect x="149.333" y="80" width="5.33333" height="5.33333" fill="#FFCB29"/>
<rect x="138.667" y="85.333" width="5.33333" height="5.33333" fill="black"/>
<rect x="144" y="85.333" width="5.33333" height="5.33333" fill="white"/>
<rect x="149.333" y="85.333" width="5.33333" height="5.33333" fill="#FFCB29"/>
<rect x="138.667" y="90.6665" width="5.33333" height="5.33333" fill="black"/>
<rect x="144" y="90.6665" width="5.33333" height="5.33333" fill="white"/>
<rect x="149.333" y="90.6665" width="5.33333" height="5.33333" fill="#FFCB29"/>
<rect x="144" y="96" width="5.33333" height="5.33333" fill="white"/>
<rect x="149.333" y="96" width="5.33333" height="5.33333" fill="#FFCB29"/>
<rect x="133.333" y="96" width="5.33333" height="5.33333" fill="black"/>
<rect x="133.333" y="101.333" width="5.33333" height="5.33333" fill="white"/>
<rect x="133.333" y="106.667" width="5.33333" height="5.33333" fill="#FFCB29"/>
<rect x="138.667" y="96" width="5.33333" height="5.33333" fill="white"/>
<rect x="138.667" y="101.333" width="5.33333" height="5.33333" fill="white"/>
<rect x="138.667" y="106.667" width="5.33333" height="5.33333" fill="#FFCB29"/>
<rect x="144" y="101.333" width="5.33333" height="5.33333" fill="#FFCB29"/>
<rect x="128" y="96" width="5.33333" height="5.33333" fill="black"/>
<rect x="128" y="101.333" width="5.33333" height="5.33333" fill="white"/>
<rect x="122.667" y="96" width="5.33333" height="5.33333" fill="black"/>
<rect x="122.667" y="101.333" width="5.33333" height="5.33333" fill="white"/>
<rect x="122.667" y="106.667" width="5.33333" height="5.33333" fill="white"/>
<rect x="122.667" y="112" width="5.33333" height="5.33333" fill="#FFCB29"/>
<rect x="128" y="106.667" width="5.33333" height="5.33333" fill="#FFCB29"/>
<rect x="117.333" y="101.333" width="5.33333" height="5.33333" fill="black"/>
<rect x="117.333" y="106.667" width="5.33333" height="5.33333" fill="white"/>
<rect x="112" y="101.333" width="5.33333" height="5.33333" fill="black"/>
<rect x="112" y="106.667" width="5.33333" height="5.33333" fill="white"/>
<rect x="112" y="112" width="5.33333" height="5.33333" fill="white"/>
<rect x="112" y="117.333" width="5.33333" height="5.33333" fill="#FFCB29"/>
<rect x="117.333" y="112" width="5.33333" height="5.33333" fill="#FFCB29"/>
<rect x="106.667" y="106.667" width="5.33333" height="5.33333" fill="black"/>
<rect x="106.667" y="112" width="5.33333" height="5.33333" fill="white"/>
<rect x="101.333" y="106.667" width="5.33333" height="5.33333" fill="black"/>
<rect x="101.333" y="112" width="5.33333" height="5.33333" fill="white"/>
<rect x="101.333" y="117.333" width="5.33333" height="5.33333" fill="white"/>
<rect x="101.333" y="122.667" width="5.33333" height="5.33333" fill="#FFCB29"/>
<rect x="106.667" y="117.333" width="5.33333" height="5.33333" fill="#FFCB29"/>
<rect x="96" y="112" width="5.33333" height="5.33333" fill="black"/>
<rect x="96" y="117.333" width="5.33333" height="5.33333" fill="white"/>
<rect x="90.6667" y="112" width="5.33333" height="5.33333" fill="black"/>
<rect x="90.6667" y="117.333" width="5.33333" height="5.33333" fill="white"/>
<rect x="90.6667" y="122.667" width="5.33333" height="5.33333" fill="white"/>
<rect x="90.6667" y="128" width="5.33333" height="5.33333" fill="#FFCB29"/>
<rect x="96" y="122.667" width="5.33333" height="5.33333" fill="#FFCB29"/>
<rect x="85.3333" y="117.333" width="5.33333" height="5.33333" fill="black"/>
<rect x="85.3333" y="122.667" width="5.33333" height="5.33333" fill="white"/>
<rect x="80" y="117.333" width="5.33333" height="5.33333" fill="black"/>
<rect x="80" y="122.667" width="5.33333" height="5.33333" fill="white"/>
<rect x="80" y="128" width="5.33333" height="5.33333" fill="white"/>
<rect x="80" y="133.333" width="5.33333" height="5.33333" fill="#FFCB29"/>
<rect x="85.3333" y="128" width="5.33333" height="5.33333" fill="#FFCB29"/>
<rect x="74.6667" y="122.667" width="5.33333" height="5.33333" fill="black"/>
<rect x="74.6667" y="128" width="5.33333" height="5.33333" fill="white"/>
<rect x="69.3333" y="122.667" width="5.33333" height="5.33333" fill="black"/>
<rect x="69.3333" y="128" width="5.33333" height="5.33333" fill="white"/>
<rect x="69.3333" y="133.333" width="5.33333" height="5.33333" fill="white"/>
<rect x="69.3333" y="138.667" width="5.33333" height="5.33333" fill="#FFCB29"/>
<rect x="74.6667" y="133.333" width="5.33333" height="5.33333" fill="#FFCB29"/>
<rect x="64" y="128" width="5.33333" height="5.33333" fill="black"/>
<rect x="64" y="133.333" width="5.33333" height="5.33333" fill="white"/>
<rect x="64" y="138.667" width="5.33333" height="5.33333" fill="#FFCB29"/>
<rect x="58.6667" y="128" width="5.33333" height="5.33333" fill="black"/>
<rect x="58.6667" y="133.333" width="5.33333" height="5.33333" fill="white"/>
<rect x="58.6667" y="138.667" width="5.33333" height="5.33333" fill="white"/>
<rect x="58.6667" y="144" width="5.33333" height="5.33333" fill="#FFCB29"/>
<rect x="53.3333" y="133.333" width="5.33333" height="5.33333" fill="black"/>
<rect x="53.3333" y="138.667" width="5.33333" height="5.33333" fill="white"/>
<rect x="53.3333" y="144" width="5.33333" height="5.33333" fill="#FFCB29"/>
</svg>
