<svg width="120" height="120" viewBox="0 0 120 120" fill="none" xmlns="http://www.w3.org/2000/svg">
<rect width="4" height="4" transform="matrix(-1 0 0 1 60 100)" fill="black"/>
<rect width="4" height="4" transform="matrix(-1 0 0 1 56 100)" fill="black"/>
<rect width="4" height="4" transform="matrix(-1 0 0 1 52 100)" fill="black"/>
<rect width="4" height="4" transform="matrix(-1 0 0 1 48 100)" fill="black"/>
<rect width="4" height="4" transform="matrix(-1 0 0 1 44 100)" fill="black"/>
<rect width="4" height="4" transform="matrix(-1 0 0 1 40 96)" fill="black"/>
<rect width="4" height="4" transform="matrix(-1 0 0 1 36 96)" fill="black"/>
<rect width="4" height="4" transform="matrix(-1 0 0 1 32 92)" fill="black"/>
<rect width="4" height="4" transform="matrix(-1 0 0 1 28 92)" fill="black"/>
<rect width="4" height="4" transform="matrix(-1 0 0 1 20 84)" fill="black"/>
<rect width="4" height="4" transform="matrix(-1 0 0 1 24 88)" fill="black"/>
<rect width="4" height="4" transform="matrix(-1 0 0 1 16 80)" fill="black"/>
<rect x="60" y="100" width="4" height="4" fill="black"/>
<rect x="64" y="100" width="4" height="4" fill="black"/>
<rect x="68" y="100" width="4" height="4" fill="black"/>
<rect x="72" y="100" width="4" height="4" fill="black"/>
<rect x="76" y="100" width="4" height="4" fill="black"/>
<rect x="80" y="96" width="4" height="4" fill="black"/>
<rect x="84" y="96" width="4" height="4" fill="black"/>
<rect x="88" y="92" width="4" height="4" fill="black"/>
<rect x="92" y="92" width="4" height="4" fill="black"/>
<rect x="100" y="84" width="4" height="4" fill="black"/>
<rect x="96" y="88" width="4" height="4" fill="black"/>
<rect x="104" y="80" width="4" height="4" fill="black"/>
<rect width="4" height="4" transform="matrix(-1 0 0 1 112 60)" fill="black"/>
<rect width="4" height="4" transform="matrix(-1 0 0 1 12 60)" fill="black"/>
<rect width="4" height="4" transform="matrix(-1 0 0 1 112 64)" fill="black"/>
<rect width="4" height="4" transform="matrix(-1 0 0 1 12 64)" fill="black"/>
<rect width="4" height="4" transform="matrix(-1 0 0 1 112 68)" fill="black"/>
<rect width="4" height="4" transform="matrix(-1 0 0 1 12 68)" fill="black"/>
<rect x="108" y="52" width="4" height="4" fill="black"/>
<rect x="8" y="52" width="4" height="4" fill="black"/>
<rect x="108" y="56" width="4" height="4" fill="black"/>
<rect x="8" y="56" width="4" height="4" fill="black"/>
<rect x="108" y="72" width="4" height="4" fill="black"/>
<rect x="8" y="72" width="4" height="4" fill="black"/>
<rect x="108" y="76" width="4" height="4" fill="black"/>
<rect x="8" y="76" width="4" height="4" fill="black"/>
<rect width="4" height="4" transform="matrix(-1 0 0 1 24 36)" fill="black"/>
<rect x="96" y="36" width="4" height="4" fill="#CCBDBF"/>
<rect x="100" y="32" width="4" height="4" fill="black"/>
<rect x="104" y="28" width="4" height="4" fill="black"/>
<rect x="104" y="24" width="4" height="4" fill="black"/>
<rect x="100" y="20" width="4" height="4" fill="#D6D1D2"/>
<rect x="96" y="16" width="4" height="4" fill="black"/>
<rect x="92" y="12" width="4" height="4" fill="black"/>
<rect x="88" y="12" width="4" height="4" fill="black"/>
<rect x="84" y="12" width="4" height="4" fill="black"/>
<rect x="80" y="12" width="4" height="4" fill="black"/>
<rect x="76" y="12" width="4" height="4" fill="black"/>
<rect x="72" y="16" width="4" height="4" fill="black"/>
<rect width="4" height="4" transform="matrix(-1 0 0 1 28 32)" fill="black"/>
<rect width="4" height="4" transform="matrix(-1 0 0 1 36 28)" fill="black"/>
<rect width="4" height="4" transform="matrix(-1 0 0 1 44 24)" fill="black"/>
<rect width="4" height="4" transform="matrix(-1 0 0 1 52 24)" fill="black"/>
<rect width="4" height="4" transform="matrix(-1 0 0 1 60 24)" fill="black"/>
<rect width="4" height="4" transform="matrix(-1 0 0 1 68 24)" fill="black"/>
<rect width="4" height="4" transform="matrix(-1 0 0 1 32 32)" fill="black"/>
<rect width="4" height="4" transform="matrix(-1 0 0 1 40 28)" fill="black"/>
<rect width="4" height="4" transform="matrix(-1 0 0 1 48 24)" fill="black"/>
<rect width="4" height="4" transform="matrix(-1 0 0 1 56 24)" fill="black"/>
<rect width="4" height="4" transform="matrix(-1 0 0 1 64 24)" fill="black"/>
<rect width="4" height="4" transform="matrix(-1 0 0 1 72 24)" fill="black"/>
<rect width="4" height="4" transform="matrix(-1 0 0 1 20 40)" fill="black"/>
<rect x="100" y="40" width="4" height="4" fill="black"/>
<rect width="4" height="4" transform="matrix(-1 0 0 1 16 44)" fill="black"/>
<rect x="104" y="44" width="4" height="4" fill="black"/>
<rect width="4" height="4" transform="matrix(-1 0 0 1 16 48)" fill="black"/>
<rect x="104" y="48" width="4" height="4" fill="black"/>
<rect width="4" height="4" transform="matrix(-1 0 0 1 36 20)" fill="#FFCB29"/>
<rect width="4" height="4" transform="matrix(-1 0 0 1 40 16)" fill="#FFCB29"/>
<rect width="4" height="4" transform="matrix(-1 0 0 1 44 16)" fill="#FFCB29"/>
<rect width="4" height="4" transform="matrix(-1 0 0 1 48 16)" fill="#FFCB29"/>
<rect width="4" height="4" transform="matrix(-1 0 0 1 52 16)" fill="#FFCB29"/>
<rect width="4" height="4" transform="matrix(-1 0 0 1 56 16)" fill="#FFCB29"/>
<rect width="4" height="4" transform="matrix(-1 0 0 1 60 16)" fill="#FFCB29"/>
<rect width="4" height="4" transform="matrix(-1 0 0 1 64 12)" fill="#FFCB29"/>
<rect width="4" height="4" transform="matrix(-1 0 0 1 68 8)" fill="#FFCB29"/>
<rect width="4" height="4" transform="matrix(-1 0 0 1 64 16)" fill="white"/>
<rect width="4" height="4" transform="matrix(-1 0 0 1 68 16)" fill="white"/>
<rect width="4" height="4" transform="matrix(-1 0 0 1 72 12)" fill="white"/>
<rect width="4" height="4" transform="matrix(-1 0 0 1 76 8)" fill="white"/>
<rect width="4" height="4" transform="matrix(-1 0 0 1 84 8)" fill="white"/>
<rect width="4" height="4" transform="matrix(-1 0 0 1 92 8)" fill="white"/>
<rect width="4" height="4" transform="matrix(-1 0 0 1 72 16)" fill="black"/>
<rect width="4" height="4" transform="matrix(-1 0 0 1 76 12)" fill="white"/>
<rect width="4" height="4" transform="matrix(-1 0 0 1 80 8)" fill="white"/>
<rect width="4" height="4" transform="matrix(-1 0 0 1 88 8)" fill="white"/>
<rect width="4" height="4" transform="matrix(-1 0 0 1 96 8)" fill="white"/>
<rect width="4" height="4" transform="matrix(-1 0 0 1 100 8)" fill="white"/>
<rect width="4" height="4" transform="matrix(-1 0 0 1 104 12)" fill="white"/>
<rect width="4" height="4" transform="matrix(-1 0 0 1 108 16)" fill="white"/>
<rect width="4" height="4" transform="matrix(-1 0 0 1 112 20)" fill="white"/>
<rect width="4" height="4" transform="matrix(-1 0 0 1 112 28)" fill="white"/>
<rect width="4" height="4" transform="matrix(-1 0 0 1 100 12)" fill="white"/>
<rect width="4" height="4" transform="matrix(-1 0 0 1 104 16)" fill="black"/>
<rect width="4" height="4" transform="matrix(-1 0 0 1 108 20)" fill="black"/>
<rect width="4" height="4" transform="matrix(-1 0 0 1 112 24)" fill="white"/>
<rect width="4" height="4" transform="matrix(-1 0 0 1 112 32)" fill="white"/>
<rect width="4" height="4" transform="matrix(-1 0 0 1 108 32)" fill="white"/>
<rect width="4" height="4" transform="matrix(-1 0 0 1 28 24)" fill="#FFCB29"/>
<rect width="4" height="4" transform="matrix(-1 0 0 1 20 28)" fill="#FFCB29"/>
<rect width="4" height="4" transform="matrix(-1 0 0 1 16 32)" fill="#FFCB29"/>
<rect width="4" height="4" transform="matrix(-1 0 0 1 12 36)" fill="#FFCB29"/>
<rect width="4" height="4" transform="matrix(-1 0 0 1 8 44)" fill="#FFCB29"/>
<rect width="4" height="4" transform="matrix(-1 0 0 1 8 40)" fill="#FFCB29"/>
<rect x="116" y="52" width="4" height="4" fill="#FFCB29"/>
<rect x="112" y="44" width="4" height="4" fill="#FFCB29"/>
<rect x="112" y="32" width="4" height="4" fill="#FFCB29"/>
<rect x="108" y="36" width="4" height="4" fill="#FFCB29"/>
<rect x="112" y="24" width="4" height="4" fill="#FFCB29"/>
<rect x="116" y="48" width="4" height="4" fill="#FFCB29"/>
<rect x="112" y="40" width="4" height="4" fill="#FFCB29"/>
<rect x="112" y="28" width="4" height="4" fill="#FFCB29"/>
<rect x="112" y="20" width="4" height="4" fill="#FFCB29"/>
<rect x="112" y="16" width="4" height="4" fill="#FFCB29"/>
<rect x="108" y="12" width="4" height="4" fill="#FFCB29"/>
<rect x="104" y="8" width="4" height="4" fill="#FFCB29"/>
<rect x="108" y="16" width="4" height="4" fill="white"/>
<rect x="104" y="12" width="4" height="4" fill="white"/>
<rect x="100" y="8" width="4" height="4" fill="#FFCB29"/>
<rect x="96" y="4" width="4" height="4" fill="#FFCB29"/>
<rect x="92" y="4" width="4" height="4" fill="#FFCB29"/>
<rect x="88" y="4" width="4" height="4" fill="#FFCB29"/>
<rect x="84" y="4" width="4" height="4" fill="#FFCB29"/>
<rect x="80" y="4" width="4" height="4" fill="#FFCB29"/>
<rect x="76" y="4" width="4" height="4" fill="#FFCB29"/>
<rect x="72" y="4" width="4" height="4" fill="#FFCB29"/>
<rect x="68" y="8" width="4" height="4" fill="#FFCB29"/>
<rect x="64" y="12" width="4" height="4" fill="white"/>
<rect x="116" y="56" width="4" height="4" fill="#FFCB29"/>
<rect x="116" y="60" width="4" height="4" fill="#FFCB29"/>
<rect x="116" y="64" width="4" height="4" fill="#FFCB29"/>
<rect x="116" y="68" width="4" height="4" fill="#FFCB29"/>
<rect x="116" y="72" width="4" height="4" fill="#FFCB29"/>
<rect x="116" y="76" width="4" height="4" fill="#FFCB29"/>
<rect x="116" y="80" width="4" height="4" fill="#FFCB29"/>
<rect x="112" y="84" width="4" height="4" fill="#FFCB29"/>
<rect x="108" y="88" width="4" height="4" fill="#FFCB29"/>
<rect x="100" y="96" width="4" height="4" fill="#FFCB29"/>
<rect x="104" y="92" width="4" height="4" fill="#FFCB29"/>
<rect x="96" y="100" width="4" height="4" fill="#FFCB29"/>
<rect x="88" y="104" width="4" height="4" fill="#FFCB29"/>
<rect x="80" y="108" width="4" height="4" fill="#FFCB29"/>
<rect x="68" y="108" width="4" height="4" fill="#FFCB29"/>
<rect x="56" y="108" width="4" height="4" fill="#FFCB29"/>
<rect x="44" y="108" width="4" height="4" fill="#FFCB29"/>
<rect x="92" y="100" width="4" height="4" fill="#FFCB29"/>
<rect x="84" y="104" width="4" height="4" fill="#FFCB29"/>
<rect x="76" y="108" width="4" height="4" fill="#FFCB29"/>
<rect x="64" y="108" width="4" height="4" fill="#FFCB29"/>
<rect x="52" y="108" width="4" height="4" fill="#FFCB29"/>
<rect x="40" y="108" width="4" height="4" fill="#FFCB29"/>
<rect x="32" y="104" width="4" height="4" fill="#FFCB29"/>
<rect x="24" y="100" width="4" height="4" fill="#FFCB29"/>
<rect x="72" y="108" width="4" height="4" fill="#FFCB29"/>
<rect x="60" y="108" width="4" height="4" fill="#FFCB29"/>
<rect x="48" y="108" width="4" height="4" fill="#FFCB29"/>
<rect x="36" y="108" width="4" height="4" fill="#FFCB29"/>
<rect x="28" y="104" width="4" height="4" fill="#FFCB29"/>
<rect x="20" y="100" width="4" height="4" fill="#FFCB29"/>
<rect x="16" y="96" width="4" height="4" fill="#FFCB29"/>
<rect x="12" y="92" width="4" height="4" fill="#FFCB29"/>
<rect x="8" y="88" width="4" height="4" fill="#FFCB29"/>
<rect x="16" y="68" width="4" height="4" fill="#DEE7E9"/>
<rect x="16" y="64" width="4" height="4" fill="#D8D8DF"/>
<rect x="80" y="88" width="4" height="4" fill="#E9F0F2"/>
<rect x="80" y="84" width="4" height="4" fill="#D8D8DF"/>
<rect x="52" y="88" width="4" height="4" fill="#DEE7E9"/>
<rect x="36" y="84" width="4" height="4" fill="#DEE7E9"/>
<rect x="32" y="80" width="4" height="4" fill="#DEE7E9"/>
<rect x="44" y="88" width="4" height="4" fill="#DEE7E9"/>
<rect x="48" y="88" width="4" height="4" fill="#DEE7E9"/>
<rect x="56" y="88" width="4" height="4" fill="#DEE7E9"/>
<rect x="84" y="84" width="4" height="4" fill="#DEE7E9"/>
<rect x="92" y="80" width="4" height="4" fill="#DEE7E9"/>
<rect x="88" y="80" width="4" height="4" fill="#DEE7E9"/>
<rect x="96" y="76" width="4" height="4" fill="#DEE7E9"/>
<rect x="100" y="72" width="4" height="4" fill="#DEE7E9"/>
<rect x="104" y="68" width="4" height="4" fill="#DEE7E9"/>
<rect x="104" y="64" width="4" height="4" fill="#DEE7E9"/>
<rect x="104" y="60" width="4" height="4" fill="#DEE7E9"/>
<rect x="104" y="56" width="4" height="4" fill="#DEE7E9"/>
<rect x="104" y="52" width="4" height="4" fill="#DEE7E9"/>
<rect x="100" y="52" width="4" height="4" fill="#DEE7E9"/>
<rect x="96" y="48" width="4" height="4" fill="#DEE7E9"/>
<rect x="100" y="48" width="4" height="4" fill="#DEE7E9"/>
<rect x="96" y="40" width="4" height="4" fill="#D8D8DF"/>
<rect x="92" y="44" width="4" height="4" fill="#D8D8DF"/>
<rect x="96" y="44" width="4" height="4" fill="#DEE7E9"/>
<rect x="100" y="44" width="4" height="4" fill="#DEE7E9"/>
<rect x="72" y="88" width="4" height="4" fill="#DEE7E9"/>
<rect x="24" y="76" width="4" height="4" fill="#DEE7E9"/>
<rect x="20" y="72" width="4" height="4" fill="#DEE7E9"/>
<rect x="28" y="76" width="4" height="4" fill="#D8D8DF"/>
<rect x="28" y="80" width="4" height="4" fill="#DEE7E9"/>
<rect x="60" y="88" width="4" height="4" fill="#DEE7E9"/>
<rect x="64" y="88" width="4" height="4" fill="#DEE7E9"/>
<rect x="68" y="88" width="4" height="4" fill="#DEE7E9"/>
<rect x="76" y="88" width="4" height="4" fill="#DEE7E9"/>
<rect x="40" y="84" width="4" height="4" fill="#DEE7E9"/>
<rect y="80" width="4" height="4" fill="#FFCB29"/>
<rect x="4" y="84" width="4" height="4" fill="#FFCB29"/>
<rect y="76" width="4" height="4" fill="#FFCB29"/>
<rect y="72" width="4" height="4" fill="#FFCB29"/>
<rect y="68" width="4" height="4" fill="#FFCB29"/>
<rect y="64" width="4" height="4" fill="#FFCB29"/>
<rect y="60" width="4" height="4" fill="#FFCB29"/>
<rect y="56" width="4" height="4" fill="#FFCB29"/>
<rect y="52" width="4" height="4" fill="#FFCB29"/>
<rect y="48" width="4" height="4" fill="#FFCB29"/>
<rect width="4" height="4" transform="matrix(-1 0 0 1 32 20)" fill="#FFCB29"/>
<rect width="4" height="4" transform="matrix(-1 0 0 1 24 24)" fill="#FFCB29"/>
<rect x="36" y="20" width="4" height="4" fill="white"/>
<rect x="28" y="24" width="4" height="4" fill="white"/>
<rect x="20" y="28" width="4" height="4" fill="white"/>
<rect x="40" y="20" width="4" height="4" fill="white"/>
<rect x="32" y="24" width="4" height="4" fill="white"/>
<rect x="24" y="28" width="4" height="4" fill="white"/>
<rect x="16" y="32" width="4" height="4" fill="white"/>
<rect x="12" y="36" width="4" height="4" fill="white"/>
<rect x="8" y="40" width="4" height="4" fill="white"/>
<rect x="8" y="44" width="4" height="4" fill="white"/>
<rect x="8" y="48" width="4" height="4" fill="white"/>
<rect x="4" y="48" width="4" height="4" fill="white"/>
<rect x="4" y="52" width="4" height="4" fill="white"/>
<rect width="4" height="4" transform="matrix(-1 0 0 1 116 52)" fill="white"/>
<rect width="4" height="4" transform="matrix(-1 0 0 1 112 48)" fill="white"/>
<rect width="4" height="4" transform="matrix(-1 0 0 1 116 48)" fill="white"/>
<rect width="4" height="4" transform="matrix(-1 0 0 1 112 44)" fill="white"/>
<rect width="4" height="4" transform="matrix(-1 0 0 1 112 40)" fill="white"/>
<rect width="4" height="4" transform="matrix(-1 0 0 1 108 36)" fill="white"/>
<rect width="4" height="4" transform="matrix(-1 0 0 1 108 40)" fill="white"/>
<rect width="4" height="4" transform="matrix(-1 0 0 1 104 36)" fill="black"/>
<rect x="4" y="56" width="4" height="4" fill="white"/>
<rect width="4" height="4" transform="matrix(-1 0 0 1 116 56)" fill="white"/>
<rect x="4" y="60" width="4" height="4" fill="white"/>
<rect width="4" height="4" transform="matrix(-1 0 0 1 116 60)" fill="white"/>
<rect x="4" y="64" width="4" height="4" fill="white"/>
<rect width="4" height="4" transform="matrix(-1 0 0 1 116 64)" fill="white"/>
<rect x="4" y="68" width="4" height="4" fill="white"/>
<rect width="4" height="4" transform="matrix(-1 0 0 1 116 68)" fill="white"/>
<rect x="4" y="72" width="4" height="4" fill="white"/>
<rect width="4" height="4" transform="matrix(-1 0 0 1 116 72)" fill="white"/>
<rect x="4" y="76" width="4" height="4" fill="white"/>
<rect width="4" height="4" transform="matrix(-1 0 0 1 116 76)" fill="white"/>
<rect x="4" y="80" width="4" height="4" fill="white"/>
<rect width="4" height="4" transform="matrix(-1 0 0 1 116 80)" fill="white"/>
<rect x="8" y="84" width="4" height="4" fill="white"/>
<rect width="4" height="4" transform="matrix(-1 0 0 1 112 84)" fill="white"/>
<rect x="12" y="88" width="4" height="4" fill="white"/>
<rect width="4" height="4" transform="matrix(-1 0 0 1 108 88)" fill="white"/>
<rect x="16" y="92" width="4" height="4" fill="white"/>
<rect width="4" height="4" transform="matrix(-1 0 0 1 104 92)" fill="white"/>
<rect x="20" y="96" width="4" height="4" fill="white"/>
<rect width="4" height="4" transform="matrix(-1 0 0 1 100 96)" fill="white"/>
<rect x="28" y="100" width="4" height="4" fill="white"/>
<rect width="4" height="4" transform="matrix(-1 0 0 1 92 100)" fill="white"/>
<rect x="36" y="104" width="4" height="4" fill="white"/>
<rect width="4" height="4" transform="matrix(-1 0 0 1 84 104)" fill="white"/>
<rect x="48" y="104" width="4" height="4" fill="white"/>
<rect width="4" height="4" transform="matrix(-1 0 0 1 72 104)" fill="white"/>
<rect x="8" y="80" width="4" height="4" fill="white"/>
<rect width="4" height="4" transform="matrix(-1 0 0 1 112 80)" fill="white"/>
<rect x="12" y="84" width="4" height="4" fill="white"/>
<rect width="4" height="4" transform="matrix(-1 0 0 1 108 84)" fill="white"/>
<rect x="16" y="88" width="4" height="4" fill="white"/>
<rect width="4" height="4" transform="matrix(-1 0 0 1 104 88)" fill="white"/>
<rect x="20" y="92" width="4" height="4" fill="white"/>
<rect width="4" height="4" transform="matrix(-1 0 0 1 100 92)" fill="white"/>
<rect x="24" y="96" width="4" height="4" fill="white"/>
<rect width="4" height="4" transform="matrix(-1 0 0 1 96 96)" fill="white"/>
<rect x="32" y="100" width="4" height="4" fill="white"/>
<rect width="4" height="4" transform="matrix(-1 0 0 1 88 100)" fill="white"/>
<rect x="40" y="104" width="4" height="4" fill="white"/>
<rect width="4" height="4" transform="matrix(-1 0 0 1 80 104)" fill="white"/>
<rect x="52" y="104" width="4" height="4" fill="white"/>
<rect width="4" height="4" transform="matrix(-1 0 0 1 68 104)" fill="white"/>
<rect x="28" y="96" width="4" height="4" fill="white"/>
<rect width="4" height="4" transform="matrix(-1 0 0 1 92 96)" fill="white"/>
<rect x="36" y="100" width="4" height="4" fill="white"/>
<rect width="4" height="4" transform="matrix(-1 0 0 1 84 100)" fill="white"/>
<rect x="44" y="104" width="4" height="4" fill="white"/>
<rect width="4" height="4" transform="matrix(-1 0 0 1 76 104)" fill="white"/>
<rect x="56" y="104" width="4" height="4" fill="white"/>
<rect width="4" height="4" transform="matrix(-1 0 0 1 64 104)" fill="white"/>
<rect x="44" y="20" width="4" height="4" fill="white"/>
<rect x="36" y="24" width="4" height="4" fill="white"/>
<rect x="28" y="28" width="4" height="4" fill="white"/>
<rect x="20" y="32" width="4" height="4" fill="white"/>
<rect x="16" y="36" width="4" height="4" fill="white"/>
<rect x="12" y="40" width="4" height="4" fill="white"/>
<rect x="48" y="20" width="4" height="4" fill="white"/>
<rect width="4" height="4" transform="matrix(-1 0 0 1 72 20)" fill="#D6D1D2"/>
<rect x="52" y="20" width="4" height="4" fill="white"/>
<rect width="4" height="4" transform="matrix(-1 0 0 1 68 20)" fill="black"/>
<rect x="56" y="20" width="4" height="4" fill="white"/>
<rect width="4" height="4" transform="matrix(-1 0 0 1 64 20)" fill="white"/>
<rect x="32" y="92" width="4" height="4" fill="#3C49C3"/>
<rect x="36" y="92" width="4" height="4" fill="#3C49C3"/>
<rect x="40" y="96" width="4" height="4" fill="#3C49C3"/>
<rect x="48" y="96" width="4" height="4" fill="#3C49C3"/>
<rect x="56" y="96" width="4" height="4" fill="#3C49C3"/>
<rect x="64" y="96" width="4" height="4" fill="#3C49C3"/>
<rect x="72" y="96" width="4" height="4" fill="#3C49C3"/>
<rect x="80" y="92" width="4" height="4" fill="#3C49C3"/>
<rect x="88" y="88" width="4" height="4" fill="#3C49C3"/>
<rect x="24" y="88" width="4" height="4" fill="#3C49C3"/>
<rect x="20" y="84" width="4" height="4" fill="#3C49C3"/>
<rect x="16" y="80" width="4" height="4" fill="#3C49C3"/>
<rect x="12" y="76" width="4" height="4" fill="#3C49C3"/>
<rect x="44" y="96" width="4" height="4" fill="#3C49C3"/>
<rect x="52" y="96" width="4" height="4" fill="#3C49C3"/>
<rect x="60" y="96" width="4" height="4" fill="#3C49C3"/>
<rect x="68" y="96" width="4" height="4" fill="#3C49C3"/>
<rect x="76" y="96" width="4" height="4" fill="#3C49C3"/>
<rect x="84" y="92" width="4" height="4" fill="#3C49C3"/>
<rect x="92" y="88" width="4" height="4" fill="#3C49C3"/>
<rect x="96" y="84" width="4" height="4" fill="#3C49C3"/>
<rect x="100" y="80" width="4" height="4" fill="#3C49C3"/>
<rect x="104" y="76" width="4" height="4" fill="#3C49C3"/>
<rect x="28" y="88" width="4" height="4" fill="#3C49C3"/>
<rect x="32" y="88" width="4" height="4" fill="#E9F0F2"/>
<rect x="36" y="88" width="4" height="4" fill="#E9F0F2"/>
<rect x="40" y="92" width="4" height="4" fill="#E9F0F2"/>
<rect x="48" y="92" width="4" height="4" fill="#E9F0F2"/>
<rect x="56" y="92" width="4" height="4" fill="#E9F0F2"/>
<rect x="64" y="92" width="4" height="4" fill="#E9F0F2"/>
<rect x="72" y="92" width="4" height="4" fill="#E9F0F2"/>
<rect x="40" y="88" width="4" height="4" fill="#DEE7E9"/>
<rect x="32" y="84" width="4" height="4" fill="#E9F0F2"/>
<rect x="24" y="80" width="4" height="4" fill="#E9F0F2"/>
<rect x="20" y="76" width="4" height="4" fill="#E9F0F2"/>
<rect x="16" y="72" width="4" height="4" fill="#E9F0F2"/>
<rect x="12" y="68" width="4" height="4" fill="#E9F0F2"/>
<rect x="12" y="64" width="4" height="4" fill="#DEE7E9"/>
<rect x="12" y="60" width="4" height="4" fill="#DEE7E9"/>
<rect x="12" y="56" width="4" height="4" fill="#DEE7E9"/>
<rect x="16" y="48" width="4" height="4" fill="#E9F0F2"/>
<rect x="12" y="52" width="4" height="4" fill="#DEE7E9"/>
<rect x="16" y="52" width="4" height="4" fill="#DEE7E9"/>
<rect x="20" y="48" width="4" height="4" fill="#DEE7E9"/>
<rect x="20" y="44" width="4" height="4" fill="#DEE7E9"/>
<rect x="24" y="40" width="4" height="4" fill="#DEE7E9"/>
<rect x="32" y="36" width="4" height="4" fill="#DEE7E9"/>
<rect x="32" y="32" width="4" height="4" fill="#DEE7E9"/>
<rect x="40" y="32" width="4" height="4" fill="#DEE7E9"/>
<rect x="40" y="28" width="4" height="4" fill="#DEE7E9"/>
<rect x="48" y="28" width="4" height="4" fill="#DEE7E9"/>
<rect x="56" y="28" width="4" height="4" fill="#DEE7E9"/>
<rect x="24" y="44" width="4" height="4" fill="#DEE7E9"/>
<rect x="28" y="40" width="4" height="4" fill="#DEE7E9"/>
<rect x="36" y="36" width="4" height="4" fill="#DEE7E9"/>
<rect x="36" y="32" width="4" height="4" fill="#DEE7E9"/>
<rect x="44" y="32" width="4" height="4" fill="#DEE7E9"/>
<rect x="44" y="28" width="4" height="4" fill="#DEE7E9"/>
<rect x="52" y="28" width="4" height="4" fill="#DEE7E9"/>
<rect x="60" y="28" width="4" height="4" fill="#DEE7E9"/>
<rect x="64" y="28" width="4" height="4" fill="#DEE7E9"/>
<rect x="68" y="32" width="4" height="4" fill="#D8D8DF"/>
<rect x="72" y="36" width="4" height="4" fill="#CCBDBF"/>
<rect x="16" y="44" width="4" height="4" fill="#E9F0F2"/>
<rect x="20" y="40" width="4" height="4" fill="#E9F0F2"/>
<rect x="24" y="36" width="4" height="4" fill="#E9F0F2"/>
<rect x="28" y="36" width="4" height="4" fill="#E9F0F2"/>
<rect x="88" y="84" width="4" height="4" fill="#E9F0F2"/>
<rect x="24" y="84" width="4" height="4" fill="#E9F0F2"/>
<rect x="20" y="80" width="4" height="4" fill="#E9F0F2"/>
<rect x="16" y="76" width="4" height="4" fill="#E9F0F2"/>
<rect x="12" y="72" width="4" height="4" fill="#E9F0F2"/>
<rect x="44" y="92" width="4" height="4" fill="#E9F0F2"/>
<rect x="52" y="92" width="4" height="4" fill="#E9F0F2"/>
<rect x="60" y="92" width="4" height="4" fill="#E9F0F2"/>
<rect x="68" y="92" width="4" height="4" fill="#E9F0F2"/>
<rect x="76" y="92" width="4" height="4" fill="#E9F0F2"/>
<rect x="84" y="88" width="4" height="4" fill="#E9F0F2"/>
<rect x="92" y="84" width="4" height="4" fill="#E9F0F2"/>
<rect x="96" y="80" width="4" height="4" fill="#E9F0F2"/>
<rect x="100" y="76" width="4" height="4" fill="#E9F0F2"/>
<rect x="104" y="72" width="4" height="4" fill="#E9F0F2"/>
<rect x="28" y="84" width="4" height="4" fill="#E9F0F2"/>
<rect width="4" height="4" transform="matrix(-1 0 0 1 80 16)" fill="#D6D1D2"/>
<rect width="4" height="4" transform="matrix(-1 0 0 1 76 32)" fill="#CCBDBF"/>
<rect width="4" height="4" transform="matrix(-1 0 0 1 80 36)" fill="#CCBDBF"/>
<rect width="4" height="4" transform="matrix(-1 0 0 1 80 32)" fill="#D6D1D2"/>
<rect width="4" height="4" transform="matrix(-1 0 0 1 84 36)" fill="#CCBDBF"/>
<rect width="4" height="4" transform="matrix(-1 0 0 1 84 32)" fill="#D6D1D2"/>
<rect width="4" height="4" transform="matrix(-1 0 0 1 88 36)" fill="#CCBDBF"/>
<rect width="4" height="4" transform="matrix(-1 0 0 1 88 32)" fill="#D6D1D2"/>
<rect width="4" height="4" transform="matrix(-1 0 0 1 88 40)" fill="#CCBDBF"/>
<rect width="4" height="4" transform="matrix(-1 0 0 1 92 36)" fill="#CCBDBF"/>
<rect width="4" height="4" transform="matrix(-1 0 0 1 92 32)" fill="#D6D1D2"/>
<rect width="4" height="4" transform="matrix(-1 0 0 1 92 40)" fill="#CCBDBF"/>
<rect width="4" height="4" transform="matrix(-1 0 0 1 96 36)" fill="#CCBDBF"/>
<rect width="4" height="4" transform="matrix(-1 0 0 1 96 32)" fill="#D6D1D2"/>
<rect width="4" height="4" transform="matrix(-1 0 0 1 96 40)" fill="#CCBDBF"/>
<rect width="4" height="4" transform="matrix(-1 0 0 1 100 32)" fill="#CCBDBF"/>
<rect width="4" height="4" transform="matrix(-1 0 0 1 104 28)" fill="#D6D1D2"/>
<rect width="4" height="4" transform="matrix(-1 0 0 1 104 24)" fill="#D6D1D2"/>
<rect width="4" height="4" transform="matrix(-1 0 0 1 100 20)" fill="#D6D1D2"/>
<rect width="4" height="4" transform="matrix(-1 0 0 1 96 16)" fill="#D6D1D2"/>
<rect width="4" height="4" transform="matrix(-1 0 0 1 92 16)" fill="#D6D1D2"/>
<rect width="4" height="4" transform="matrix(-1 0 0 1 88 16)" fill="#D6D1D2"/>
<rect width="4" height="4" transform="matrix(-1 0 0 1 84 16)" fill="#D6D1D2"/>
<rect width="4" height="4" transform="matrix(-1 0 0 1 76 28)" fill="#D6D1D2"/>
<rect width="4" height="4" transform="matrix(-1 0 0 1 80 28)" fill="#FAF0E2"/>
<rect width="4" height="4" transform="matrix(-1 0 0 1 80 24)" fill="#91A713"/>
<rect width="4" height="4" transform="matrix(-1 0 0 1 76 24)" fill="#FAF0E2"/>
<rect width="4" height="4" transform="matrix(-1 0 0 1 84 28)" fill="#FAF0E2"/>
<rect width="4" height="4" transform="matrix(-1 0 0 1 84 24)" fill="#FAF0E2"/>
<rect width="4" height="4" transform="matrix(-1 0 0 1 84 20)" fill="#FAF0E2"/>
<rect width="4" height="4" transform="matrix(-1 0 0 1 80 20)" fill="#FAF0E2"/>
<rect width="4" height="4" transform="matrix(-1 0 0 1 88 28)" fill="#FAF0E2"/>
<rect width="4" height="4" transform="matrix(-1 0 0 1 88 24)" fill="#FAF0E2"/>
<rect width="4" height="4" transform="matrix(-1 0 0 1 88 20)" fill="#FAF0E2"/>
<rect width="4" height="4" transform="matrix(-1 0 0 1 92 28)" fill="#91A713"/>
<rect width="4" height="4" transform="matrix(-1 0 0 1 92 24)" fill="#FAF0E2"/>
<rect width="4" height="4" transform="matrix(-1 0 0 1 92 20)" fill="#FAF0E2"/>
<rect width="4" height="4" transform="matrix(-1 0 0 1 96 28)" fill="#FAF0E2"/>
<rect width="4" height="4" transform="matrix(-1 0 0 1 96 24)" fill="#FAF0E2"/>
<rect width="4" height="4" transform="matrix(-1 0 0 1 96 20)" fill="#91A713"/>
<rect width="4" height="4" transform="matrix(-1 0 0 1 100 24)" fill="#FAF0E2"/>
<rect width="4" height="4" transform="matrix(-1 0 0 1 100 28)" fill="#D6D1D2"/>
<rect width="4" height="4" transform="matrix(-1 0 0 1 72 28)" fill="#D6D1D2"/>
<rect width="4" height="4" transform="matrix(-1 0 0 1 72 24)" fill="#D6D1D2"/>
<rect width="4" height="4" transform="matrix(-1 0 0 1 76 20)" fill="#D6D1D2"/>
<rect x="16" y="60" width="4" height="4" fill="#FFDF3A"/>
<rect x="32" y="60" width="4" height="4" fill="#FFDF3A"/>
<rect x="40" y="64" width="4" height="4" fill="#FFDF3A"/>
<rect x="40" y="60" width="4" height="4" fill="#FFDF3A"/>
<rect x="36" y="68" width="4" height="4" fill="#FFDF3A"/>
<rect x="32" y="56" width="4" height="4" fill="#FFDF3A"/>
<rect x="44" y="72" width="4" height="4" fill="#FFDF3A"/>
<rect x="48" y="76" width="4" height="4" fill="#FFDF3A"/>
<rect x="60" y="76" width="4" height="4" fill="#FFDF3A"/>
<rect x="52" y="76" width="4" height="4" fill="#FFDF3A"/>
<rect x="52" y="72" width="4" height="4" fill="#FFDF3A"/>
<rect x="52" y="68" width="4" height="4" fill="#FFDF3A"/>
<rect x="56" y="64" width="4" height="4" fill="#FFDF3A"/>
<rect x="56" y="60" width="4" height="4" fill="#FFDF3A"/>
<rect x="56" y="56" width="4" height="4" fill="#FFDF3A"/>
<rect x="64" y="72" width="4" height="4" fill="#FFDF3A"/>
<rect x="72" y="72" width="4" height="4" fill="#FFDF3A"/>
<rect x="76" y="76" width="4" height="4" fill="#FFDF3A"/>
<rect x="80" y="80" width="4" height="4" fill="#FFDF3A"/>
<rect x="80" y="76" width="4" height="4" fill="#FFDF3A"/>
<rect x="68" y="68" width="4" height="4" fill="#FFDF3A"/>
<rect x="68" y="64" width="4" height="4" fill="#FFDF3A"/>
<rect x="68" y="60" width="4" height="4" fill="#FFDF3A"/>
<rect x="72" y="56" width="4" height="4" fill="#FFDF3A"/>
<rect x="52" y="80" width="4" height="4" fill="#FFDF3A"/>
<rect x="44" y="68" width="4" height="4" fill="#FFDF3A"/>
<rect x="36" y="76" width="4" height="4" fill="#FFDF3A"/>
<rect x="20" y="60" width="4" height="4" fill="#FFC83A"/>
<rect x="24" y="60" width="4" height="4" fill="#FF8C17"/>
<rect x="36" y="64" width="4" height="4" fill="#FF8C17"/>
<rect x="56" y="72" width="4" height="4" fill="#FF8C17"/>
<rect x="56" y="68" width="4" height="4" fill="#FF8C17"/>
<rect x="44" y="64" width="4" height="4" fill="#FF8C17"/>
<rect x="28" y="64" width="4" height="4" fill="#FF8C17"/>
<rect x="32" y="72" width="4" height="4" fill="#FF8C17"/>
<rect x="36" y="72" width="4" height="4" fill="#FF8C17"/>
<rect x="40" y="68" width="4" height="4" fill="#FF8C17"/>
<rect x="44" y="80" width="4" height="4" fill="#FF8C17"/>
<rect x="48" y="80" width="4" height="4" fill="#FF8C17"/>
<rect x="56" y="80" width="4" height="4" fill="#FF8C17"/>
<rect x="68" y="76" width="4" height="4" fill="#FF8C17"/>
<rect x="76" y="72" width="4" height="4" fill="#FF8C17"/>
<rect x="84" y="76" width="4" height="4" fill="#FF8C17"/>
<rect x="88" y="68" width="4" height="4" fill="#8CC527"/>
<rect x="84" y="64" width="4" height="4" fill="#8CC527"/>
<rect x="96" y="64" width="4" height="4" fill="#8CC527"/>
<rect x="92" y="60" width="4" height="4" fill="#8CC527"/>
<rect x="100" y="60" width="4" height="4" fill="#8CC527"/>
<rect x="96" y="56" width="4" height="4" fill="#8CC527"/>
<rect x="100" y="56" width="4" height="4" fill="#8CC527"/>
<rect x="84" y="68" width="4" height="4" fill="#CCF353"/>
<rect x="92" y="64" width="4" height="4" fill="#CCF353"/>
<rect x="76" y="68" width="4" height="4" fill="#CCF353"/>
<rect x="88" y="60" width="4" height="4" fill="#CCF353"/>
<rect x="92" y="72" width="4" height="4" fill="#CCF353"/>
<rect x="88" y="72" width="4" height="4" fill="#72C200"/>
<rect x="96" y="68" width="4" height="4" fill="#72C200"/>
<rect x="84" y="72" width="4" height="4" fill="#72C200"/>
<rect x="80" y="68" width="4" height="4" fill="#72C200"/>
<rect x="92" y="68" width="4" height="4" fill="#72C200"/>
<rect x="88" y="64" width="4" height="4" fill="#72C200"/>
<rect x="100" y="64" width="4" height="4" fill="#72C200"/>
<rect x="96" y="60" width="4" height="4" fill="#72C200"/>
<rect x="72" y="80" width="4" height="4" fill="#FF8C17"/>
<rect x="24" y="68" width="4" height="4" fill="#FF8C17"/>
<rect x="20" y="64" width="4" height="4" fill="#FFC83A"/>
<rect x="24" y="64" width="4" height="4" fill="#FFC83A"/>
<rect x="28" y="68" width="4" height="4" fill="#FFC83A"/>
<rect x="32" y="64" width="4" height="4" fill="#FFC83A"/>
<rect x="28" y="60" width="4" height="4" fill="#FFC83A"/>
<rect x="44" y="60" width="4" height="4" fill="#FFC83A"/>
<rect x="24" y="56" width="4" height="4" fill="#FFC83A"/>
<rect x="20" y="56" width="4" height="4" fill="#FFC83A"/>
<rect x="32" y="68" width="4" height="4" fill="#FFC83A"/>
<rect x="48" y="72" width="4" height="4" fill="#FFC83A"/>
<rect x="48" y="68" width="4" height="4" fill="#FFC83A"/>
<rect x="52" y="64" width="4" height="4" fill="#FFC83A"/>
<rect x="60" y="72" width="4" height="4" fill="#FFC83A"/>
<rect x="60" y="68" width="4" height="4" fill="#FFC83A"/>
<rect x="64" y="68" width="4" height="4" fill="#FF5A00"/>
<rect x="84" y="60" width="4" height="4" fill="#FF5A00"/>
<rect x="80" y="64" width="4" height="4" fill="#FF5A00"/>
<rect x="80" y="60" width="4" height="4" fill="#FF8000"/>
<rect x="80" y="56" width="4" height="4" fill="#FF5A00"/>
<rect x="80" y="52" width="4" height="4" fill="#FF8000"/>
<rect x="56" y="52" width="4" height="4" fill="#FF8000"/>
<rect x="32" y="52" width="4" height="4" fill="#FF5A00"/>
<rect x="80" y="48" width="4" height="4" fill="#FFAF00"/>
<rect x="72" y="48" width="4" height="4" fill="#FF8000"/>
<rect x="64" y="48" width="4" height="4" fill="#FF8000"/>
<rect x="56" y="48" width="4" height="4" fill="#FF8000"/>
<rect x="48" y="48" width="4" height="4" fill="#FF8000"/>
<rect x="40" y="48" width="4" height="4" fill="#FF8000"/>
<rect x="32" y="48" width="4" height="4" fill="#FF8000"/>
<rect x="88" y="48" width="4" height="4" fill="#FF8000"/>
<rect x="88" y="52" width="4" height="4" fill="#FF8000"/>
<rect x="64" y="52" width="4" height="4" fill="#FF5A00"/>
<rect x="64" y="56" width="4" height="4" fill="#FF8000"/>
<rect x="64" y="60" width="4" height="4" fill="#FF5A00"/>
<rect x="40" y="52" width="4" height="4" fill="#FF5A00"/>
<rect x="40" y="56" width="4" height="4" fill="#FF5A00"/>
<rect x="92" y="48" width="4" height="4" fill="#FFAF00"/>
<rect x="80" y="44" width="4" height="4" fill="#FF8000"/>
<rect x="72" y="44" width="4" height="4" fill="#FF8000"/>
<rect x="64" y="44" width="4" height="4" fill="#FFAF00"/>
<rect x="56" y="44" width="4" height="4" fill="#FF8000"/>
<rect x="48" y="44" width="4" height="4" fill="#FF8000"/>
<rect x="40" y="44" width="4" height="4" fill="#FF8000"/>
<rect x="32" y="44" width="4" height="4" fill="#FF8000"/>
<rect x="28" y="44" width="4" height="4" fill="#FF8000"/>
<rect x="84" y="44" width="4" height="4" fill="#FFAF00"/>
<rect x="76" y="40" width="4" height="4" fill="#FFAF00"/>
<rect x="68" y="36" width="4" height="4" fill="#FFAF00"/>
<rect x="60" y="32" width="4" height="4" fill="#FFAF00"/>
<rect x="64" y="32" width="4" height="4" fill="#FFAF00"/>
<rect x="52" y="32" width="4" height="4" fill="#FFAF00"/>
<rect x="72" y="40" width="4" height="4" fill="#FFAF00"/>
<rect x="64" y="36" width="4" height="4" fill="#FFAF00"/>
<rect x="56" y="32" width="4" height="4" fill="#FFAF00"/>
<rect x="48" y="32" width="4" height="4" fill="#FFAF00"/>
<rect x="88" y="44" width="4" height="4" fill="#FFAF00"/>
<rect x="80" y="40" width="4" height="4" fill="#FFAF00"/>
<rect x="76" y="64" width="4" height="4" fill="#FF5A00"/>
<rect x="64" y="64" width="4" height="4" fill="#FF5A00"/>
<rect x="76" y="60" width="4" height="4" fill="#FF5A00"/>
<rect x="76" y="56" width="4" height="4" fill="#FF8000"/>
<rect x="76" y="52" width="4" height="4" fill="#FF8000"/>
<rect x="52" y="52" width="4" height="4" fill="#FF5A00"/>
<rect x="52" y="56" width="4" height="4" fill="#FF8000"/>
<rect x="52" y="60" width="4" height="4" fill="#FF5A00"/>
<rect x="28" y="52" width="4" height="4" fill="#FF5A00"/>
<rect x="28" y="56" width="4" height="4" fill="#FF5A00"/>
<rect x="24" y="52" width="4" height="4" fill="#FF5A00"/>
<rect x="76" y="48" width="4" height="4" fill="#FF8000"/>
<rect x="68" y="48" width="4" height="4" fill="#FF8000"/>
<rect x="60" y="48" width="4" height="4" fill="#FF8000"/>
<rect x="52" y="48" width="4" height="4" fill="#FF8000"/>
<rect x="44" y="48" width="4" height="4" fill="#FF8000"/>
<rect x="36" y="48" width="4" height="4" fill="#FF8000"/>
<rect x="28" y="48" width="4" height="4" fill="#FF8000"/>
<rect x="24" y="48" width="4" height="4" fill="#FF8000"/>
<rect x="84" y="48" width="4" height="4" fill="#FF8000"/>
<rect x="84" y="52" width="4" height="4" fill="#FF8000"/>
<rect x="60" y="52" width="4" height="4" fill="#FF8000"/>
<rect x="60" y="56" width="4" height="4" fill="#FF5A00"/>
<rect x="60" y="60" width="4" height="4" fill="#FF5A00"/>
<rect x="36" y="52" width="4" height="4" fill="#FF8000"/>
<rect x="36" y="56" width="4" height="4" fill="#FF5A00"/>
<rect x="36" y="60" width="4" height="4" fill="#FF5A00"/>
<rect x="84" y="56" width="4" height="4" fill="#FF8000"/>
<rect x="76" y="44" width="4" height="4" fill="#FF8000"/>
<rect x="68" y="44" width="4" height="4" fill="#FF8000"/>
<rect x="60" y="44" width="4" height="4" fill="#FF8000"/>
<rect x="52" y="44" width="4" height="4" fill="#FF8000"/>
<rect x="44" y="44" width="4" height="4" fill="#FF5A00"/>
<rect x="36" y="44" width="4" height="4" fill="#FF8000"/>
<rect x="36" y="40" width="4" height="4" fill="#FF8000"/>
<rect x="32" y="40" width="4" height="4" fill="#FF8000"/>
<rect x="40" y="40" width="4" height="4" fill="#FF8000"/>
<rect x="44" y="40" width="4" height="4" fill="#FF8000"/>
<rect x="44" y="36" width="4" height="4" fill="#FFAF00"/>
<rect x="40" y="36" width="4" height="4" fill="#FFAF00"/>
<rect x="48" y="40" width="4" height="4" fill="#FF8000"/>
<rect x="48" y="36" width="4" height="4" fill="#FF8000"/>
<rect x="52" y="40" width="4" height="4" fill="#FF8000"/>
<rect x="52" y="36" width="4" height="4" fill="#FF8000"/>
<rect x="56" y="40" width="4" height="4" fill="#FFAF00"/>
<rect x="56" y="36" width="4" height="4" fill="#FF8000"/>
<rect x="60" y="40" width="4" height="4" fill="#FF8000"/>
<rect x="60" y="36" width="4" height="4" fill="#FF8000"/>
<rect x="64" y="40" width="4" height="4" fill="#FF8000"/>
<rect x="68" y="40" width="4" height="4" fill="#FF8000"/>
<rect x="88" y="56" width="4" height="4" fill="#FF5A00"/>
<rect x="92" y="56" width="4" height="4" fill="#FF5A00"/>
<rect x="96" y="52" width="4" height="4" fill="#FF5A00"/>
<rect x="72" y="52" width="4" height="4" fill="#FF8000"/>
<rect x="48" y="52" width="4" height="4" fill="#FF8000"/>
<rect x="48" y="56" width="4" height="4" fill="#FF8000"/>
<rect x="48" y="60" width="4" height="4" fill="#FF5A00"/>
<rect x="48" y="64" width="4" height="4" fill="#FF5A00"/>
<rect x="92" y="52" width="4" height="4" fill="#FF8000"/>
<rect x="68" y="52" width="4" height="4" fill="#FF8000"/>
<rect x="68" y="56" width="4" height="4" fill="#FF5A00"/>
<rect x="44" y="52" width="4" height="4" fill="#FF8000"/>
<rect x="44" y="56" width="4" height="4" fill="#FF8000"/>
<rect x="60" y="64" width="4" height="4" fill="#FFC83A"/>
<rect x="56" y="76" width="4" height="4" fill="#FFC83A"/>
<rect x="28" y="72" width="4" height="4" fill="#FFC83A"/>
<rect x="44" y="76" width="4" height="4" fill="#FFC83A"/>
<rect x="60" y="80" width="4" height="4" fill="#FFC83A"/>
<rect x="64" y="76" width="4" height="4" fill="#FFC83A"/>
<rect x="64" y="80" width="4" height="4" fill="#FFC83A"/>
<rect x="68" y="80" width="4" height="4" fill="#FFC83A"/>
<rect x="68" y="72" width="4" height="4" fill="#FFC83A"/>
<rect x="72" y="68" width="4" height="4" fill="#FFC83A"/>
<rect x="76" y="80" width="4" height="4" fill="#FFC83A"/>
<rect x="72" y="76" width="4" height="4" fill="#FFC83A"/>
<rect x="80" y="72" width="4" height="4" fill="#FFC83A"/>
<rect x="72" y="64" width="4" height="4" fill="#FFC83A"/>
<rect x="72" y="60" width="4" height="4" fill="#FFC83A"/>
<rect x="40" y="76" width="4" height="4" fill="#FFC83A"/>
<rect x="40" y="72" width="4" height="4" fill="#FFC83A"/>
<rect x="16" y="56" width="4" height="4" fill="#FFDF3A"/>
<rect x="20" y="52" width="4" height="4" fill="#FFDF3A"/>
<rect x="20" y="68" width="4" height="4" fill="#D8D8DF"/>
<rect x="24" y="72" width="4" height="4" fill="#D8D8DF"/>
<rect x="32" y="76" width="4" height="4" fill="#D8D8DF"/>
<rect x="36" y="80" width="4" height="4" fill="#D8D8DF"/>
<rect x="44" y="84" width="4" height="4" fill="#D8D8DF"/>
<rect x="52" y="84" width="4" height="4" fill="#D8D8DF"/>
<rect x="60" y="84" width="4" height="4" fill="#D8D8DF"/>
<rect x="68" y="84" width="4" height="4" fill="#D8D8DF"/>
<rect x="40" y="80" width="4" height="4" fill="#D8D8DF"/>
<rect x="48" y="84" width="4" height="4" fill="#D8D8DF"/>
<rect x="56" y="84" width="4" height="4" fill="#D8D8DF"/>
<rect x="64" y="84" width="4" height="4" fill="#D8D8DF"/>
<rect x="72" y="84" width="4" height="4" fill="#D8D8DF"/>
<rect x="76" y="84" width="4" height="4" fill="#D8D8DF"/>
<rect x="84" y="80" width="4" height="4" fill="#D8D8DF"/>
<rect x="88" y="76" width="4" height="4" fill="#D8D8DF"/>
<rect x="92" y="76" width="4" height="4" fill="#D8D8DF"/>
<rect x="96" y="72" width="4" height="4" fill="#D8D8DF"/>
<rect x="100" y="68" width="4" height="4" fill="#D8D8DF"/>
</svg>
