<svg width="160" height="160" viewBox="0 0 160 160" fill="none" xmlns="http://www.w3.org/2000/svg">
<rect width="5.33333" height="5.33333" transform="matrix(-1 0 0 1 80 128)" fill="black"/>
<rect width="5.33333" height="5.33333" transform="matrix(-1 0 0 1 74.6667 128)" fill="black"/>
<rect width="5.33333" height="5.33333" transform="matrix(-1 0 0 1 69.3333 128)" fill="black"/>
<rect width="5.33333" height="5.33333" transform="matrix(-1 0 0 1 64 128)" fill="black"/>
<rect width="5.33333" height="5.33333" transform="matrix(-1 0 0 1 58.6667 128)" fill="black"/>
<rect width="5.33333" height="5.33333" transform="matrix(-1 0 0 1 53.3333 122.667)" fill="black"/>
<rect width="5.33333" height="5.33333" transform="matrix(-1 0 0 1 48 122.667)" fill="black"/>
<rect width="5.33333" height="5.33333" transform="matrix(-1 0 0 1 42.6667 117.333)" fill="black"/>
<rect width="5.33333" height="5.33333" transform="matrix(-1 0 0 1 37.3333 117.333)" fill="black"/>
<rect width="5.33333" height="5.33333" transform="matrix(-1 0 0 1 26.6667 106.667)" fill="black"/>
<rect width="5.33333" height="5.33333" transform="matrix(-1 0 0 1 32 112)" fill="black"/>
<rect width="5.33333" height="5.33333" transform="matrix(-1 0 0 1 21.3333 101.333)" fill="black"/>
<rect x="80" y="128" width="5.33333" height="5.33333" fill="black"/>
<rect x="85.3333" y="128" width="5.33333" height="5.33333" fill="black"/>
<rect x="90.6667" y="128" width="5.33333" height="5.33333" fill="black"/>
<rect x="96" y="128" width="5.33333" height="5.33333" fill="black"/>
<rect x="101.333" y="128" width="5.33333" height="5.33333" fill="black"/>
<rect x="106.667" y="122.667" width="5.33333" height="5.33333" fill="black"/>
<rect x="112" y="122.667" width="5.33333" height="5.33333" fill="black"/>
<rect x="117.333" y="117.333" width="5.33333" height="5.33333" fill="black"/>
<rect x="122.667" y="117.333" width="5.33333" height="5.33333" fill="black"/>
<rect x="133.333" y="106.667" width="5.33333" height="5.33333" fill="black"/>
<rect x="128" y="112" width="5.33333" height="5.33333" fill="black"/>
<rect x="138.667" y="101.333" width="5.33333" height="5.33333" fill="black"/>
<rect width="5.33333" height="5.33333" transform="matrix(-1 0 0 1 149.333 74.6665)" fill="black"/>
<rect width="5.33333" height="5.33333" transform="matrix(-1 0 0 1 16 74.6665)" fill="black"/>
<rect width="5.33333" height="5.33333" transform="matrix(-1 0 0 1 149.333 80)" fill="black"/>
<rect width="5.33333" height="5.33333" transform="matrix(-1 0 0 1 16 80)" fill="black"/>
<rect width="5.33333" height="5.33333" transform="matrix(-1 0 0 1 149.333 85.3335)" fill="black"/>
<rect width="5.33333" height="5.33333" transform="matrix(-1 0 0 1 16 85.3335)" fill="black"/>
<rect x="144" y="64" width="5.33333" height="5.33333" fill="black"/>
<rect x="10.6667" y="64" width="5.33333" height="5.33333" fill="black"/>
<rect x="144" y="69.3335" width="5.33333" height="5.33333" fill="black"/>
<rect x="10.6667" y="69.3335" width="5.33333" height="5.33333" fill="black"/>
<rect x="144" y="90.6665" width="5.33333" height="5.33333" fill="black"/>
<rect x="10.6667" y="90.6665" width="5.33333" height="5.33333" fill="black"/>
<rect x="144" y="96" width="5.33333" height="5.33333" fill="black"/>
<rect x="10.6667" y="96" width="5.33333" height="5.33333" fill="black"/>
<rect width="5.33333" height="5.33333" transform="matrix(-1 0 0 1 32 42.6665)" fill="black"/>
<rect width="5.33333" height="5.33333" transform="matrix(-1 0 0 1 37.3333 37.3335)" fill="black"/>
<rect width="5.33333" height="5.33333" transform="matrix(-1 0 0 1 48 32)" fill="black"/>
<rect width="5.33333" height="5.33333" transform="matrix(-1 0 0 1 58.6667 26.6665)" fill="black"/>
<rect width="5.33333" height="5.33333" transform="matrix(-1 0 0 1 69.3333 26.6665)" fill="black"/>
<rect width="5.33333" height="5.33333" transform="matrix(-1 0 0 1 80 26.6665)" fill="black"/>
<rect width="5.33333" height="5.33333" transform="matrix(-1 0 0 1 90.6667 26.6665)" fill="black"/>
<rect width="5.33333" height="5.33333" transform="matrix(-1 0 0 1 101.333 26.6665)" fill="black"/>
<rect width="5.33333" height="5.33333" transform="matrix(-1 0 0 1 112 26.6665)" fill="black"/>
<rect width="5.33333" height="5.33333" transform="matrix(-1 0 0 1 42.6667 37.3335)" fill="black"/>
<rect width="5.33333" height="5.33333" transform="matrix(-1 0 0 1 53.3333 32)" fill="black"/>
<rect width="5.33333" height="5.33333" transform="matrix(-1 0 0 1 64 26.6665)" fill="black"/>
<rect width="5.33333" height="5.33333" transform="matrix(-1 0 0 1 74.6667 26.6665)" fill="black"/>
<rect width="5.33333" height="5.33333" transform="matrix(-1 0 0 1 85.3333 26.6665)" fill="black"/>
<rect width="5.33333" height="5.33333" transform="matrix(-1 0 0 1 96 26.6665)" fill="black"/>
<rect width="5.33333" height="5.33333" transform="matrix(-1 0 0 1 106.667 26.6665)" fill="black"/>
<rect width="5.33333" height="5.33333" transform="matrix(-1 0 0 1 117.333 26.6665)" fill="black"/>
<rect width="5.33333" height="5.33333" transform="matrix(-1 0 0 1 128 32)" fill="black"/>
<rect width="5.33333" height="5.33333" transform="matrix(-1 0 0 1 122.667 32)" fill="black"/>
<rect width="5.33333" height="5.33333" transform="matrix(-1 0 0 1 133.333 37.3335)" fill="black"/>
<rect width="5.33333" height="5.33333" transform="matrix(-1 0 0 1 138.667 42.6665)" fill="black"/>
<rect width="5.33333" height="5.33333" transform="matrix(-1 0 0 1 138.667 48)" fill="black"/>
<rect width="5.33333" height="5.33333" transform="matrix(-1 0 0 1 144 53.3335)" fill="black"/>
<rect width="5.33333" height="5.33333" transform="matrix(-1 0 0 1 144 58.6665)" fill="black"/>
<rect width="5.33333" height="5.33333" transform="matrix(-1 0 0 1 26.6667 48)" fill="black"/>
<rect width="5.33333" height="5.33333" transform="matrix(-1 0 0 1 21.3333 53.3335)" fill="black"/>
<rect width="5.33333" height="5.33333" transform="matrix(-1 0 0 1 21.3333 58.6665)" fill="black"/>
<rect x="42.6667" y="117.333" width="5.33333" height="5.33333" fill="#4FAC66"/>
<rect x="42.6667" y="112" width="5.33333" height="5.33333" fill="#FFFCF8"/>
<rect x="48" y="117.333" width="5.33333" height="5.33333" fill="#4FAC66"/>
<rect x="48" y="112" width="5.33333" height="5.33333" fill="#FFFCF8"/>
<rect x="53.3333" y="112" width="5.33333" height="5.33333" fill="#60C97A"/>
<rect x="53.3333" y="106.667" width="5.33333" height="5.33333" fill="#60C97A"/>
<rect x="48" y="106.667" width="5.33333" height="5.33333" fill="#60C97A"/>
<rect x="42.6667" y="106.667" width="5.33333" height="5.33333" fill="#60C97A"/>
<rect x="106.667" y="106.667" width="5.33333" height="5.33333" fill="#60C97A"/>
<rect x="112" y="106.667" width="5.33333" height="5.33333" fill="#60C97A"/>
<rect x="53.3333" y="101.333" width="5.33333" height="5.33333" fill="#FFB876"/>
<rect x="48" y="101.333" width="5.33333" height="5.33333" fill="#FFB876"/>
<rect x="42.6667" y="101.333" width="5.33333" height="5.33333" fill="#FFB876"/>
<rect x="106.667" y="101.333" width="5.33333" height="5.33333" fill="#60C97A"/>
<rect x="112" y="101.333" width="5.33333" height="5.33333" fill="#60C97A"/>
<rect x="117.333" y="101.333" width="5.33333" height="5.33333" fill="#60C97A"/>
<rect x="122.667" y="101.333" width="5.33333" height="5.33333" fill="#60C97A"/>
<rect x="37.3333" y="101.333" width="5.33333" height="5.33333" fill="#60C97A"/>
<rect x="32" y="101.333" width="5.33333" height="5.33333" fill="#60C97A"/>
<rect x="53.3333" y="96" width="5.33333" height="5.33333" fill="#567400"/>
<rect x="48" y="96" width="5.33333" height="5.33333" fill="#F43000"/>
<rect x="42.6667" y="96" width="5.33333" height="5.33333" fill="#B72400"/>
<rect x="106.667" y="96" width="5.33333" height="5.33333" fill="#60C97A"/>
<rect x="112" y="96" width="5.33333" height="5.33333" fill="#60C97A"/>
<rect x="117.333" y="96" width="5.33333" height="5.33333" fill="#60C97A"/>
<rect x="122.667" y="96" width="5.33333" height="5.33333" fill="#60C97A"/>
<rect x="37.3333" y="96" width="5.33333" height="5.33333" fill="#FFB876"/>
<rect x="32" y="96" width="5.33333" height="5.33333" fill="#EFDDB4"/>
<rect x="26.6667" y="96" width="5.33333" height="5.33333" fill="#60C97A"/>
<rect x="128" y="96" width="5.33333" height="5.33333" fill="#60C97A"/>
<rect x="53.3333" y="90.6665" width="5.33333" height="5.33333" fill="#F43000"/>
<rect x="48" y="90.6665" width="5.33333" height="5.33333" fill="#F43000"/>
<rect x="42.6667" y="90.6665" width="5.33333" height="5.33333" fill="#FFC700"/>
<rect x="106.667" y="90.6665" width="5.33333" height="5.33333" fill="#60C97A"/>
<rect x="112" y="90.6665" width="5.33333" height="5.33333" fill="#60C97A"/>
<rect x="117.333" y="90.6665" width="5.33333" height="5.33333" fill="#60C97A"/>
<rect x="122.667" y="90.6665" width="5.33333" height="5.33333" fill="#60C97A"/>
<rect x="37.3333" y="90.6665" width="5.33333" height="5.33333" fill="#F43000"/>
<rect x="32" y="90.6665" width="5.33333" height="5.33333" fill="#B72400"/>
<rect x="26.6667" y="90.6665" width="5.33333" height="5.33333" fill="#EFDDB4"/>
<rect x="128" y="90.6665" width="5.33333" height="5.33333" fill="#60C97A"/>
<rect x="133.333" y="90.6665" width="5.33333" height="5.33333" fill="#60C97A"/>
<rect x="21.3333" y="90.6665" width="5.33333" height="5.33333" fill="#60C97A"/>
<rect x="53.3333" y="85.3335" width="5.33333" height="5.33333" fill="#873209"/>
<rect x="48" y="85.3335" width="5.33333" height="5.33333" fill="#8B4928"/>
<rect x="42.6667" y="85.3335" width="5.33333" height="5.33333" fill="#567400"/>
<rect x="106.667" y="85.3335" width="5.33333" height="5.33333" fill="#4FAC66"/>
<rect x="112" y="85.3335" width="5.33333" height="5.33333" fill="#4FAC66"/>
<rect x="117.333" y="85.3335" width="5.33333" height="5.33333" fill="#60C97A"/>
<rect x="122.667" y="85.3335" width="5.33333" height="5.33333" fill="#60C97A"/>
<rect x="37.3333" y="85.3335" width="5.33333" height="5.33333" fill="#B72400"/>
<rect x="32" y="85.3335" width="5.33333" height="5.33333" fill="#F43000"/>
<rect x="26.6667" y="85.3335" width="5.33333" height="5.33333" fill="#FFB876"/>
<rect x="128" y="85.3335" width="5.33333" height="5.33333" fill="#60C97A"/>
<rect x="133.333" y="85.3335" width="5.33333" height="5.33333" fill="#60C97A"/>
<rect x="21.3333" y="85.3335" width="5.33333" height="5.33333" fill="#60C97A"/>
<rect x="16" y="85.3335" width="5.33333" height="5.33333" fill="#60C97A"/>
<rect x="138.667" y="85.3335" width="5.33333" height="5.33333" fill="#60C97A"/>
<rect x="53.3333" y="80" width="5.33333" height="5.33333" fill="#8B4928"/>
<rect x="48" y="80" width="5.33333" height="5.33333" fill="#567400"/>
<rect x="42.6667" y="80" width="5.33333" height="5.33333" fill="#8B4928"/>
<rect x="106.667" y="80" width="5.33333" height="5.33333" fill="#EFDDB4"/>
<rect x="112" y="80" width="5.33333" height="5.33333" fill="#4FAC66"/>
<rect x="117.333" y="80" width="5.33333" height="5.33333" fill="#4FAC66"/>
<rect x="122.667" y="80" width="5.33333" height="5.33333" fill="#4FAC66"/>
<rect x="37.3333" y="80" width="5.33333" height="5.33333" fill="#873209"/>
<rect x="32" y="80" width="5.33333" height="5.33333" fill="#F43000"/>
<rect x="26.6667" y="80" width="5.33333" height="5.33333" fill="#EFDDB4"/>
<rect x="128" y="80" width="5.33333" height="5.33333" fill="#60C97A"/>
<rect x="133.333" y="80" width="5.33333" height="5.33333" fill="#60C97A"/>
<rect x="21.3333" y="80" width="5.33333" height="5.33333" fill="#60C97A"/>
<rect x="16" y="80" width="5.33333" height="5.33333" fill="#60C97A"/>
<rect x="138.667" y="80" width="5.33333" height="5.33333" fill="#60C97A"/>
<rect x="53.3333" y="74.6665" width="5.33333" height="5.33333" fill="#FFEEB1"/>
<rect x="48" y="74.6665" width="5.33333" height="5.33333" fill="#873209"/>
<rect x="42.6667" y="74.6665" width="5.33333" height="5.33333" fill="#FFEEB1"/>
<rect x="106.667" y="74.6665" width="5.33333" height="5.33333" fill="#EFDDB4"/>
<rect x="112" y="74.6665" width="5.33333" height="5.33333" fill="#EFDDB4"/>
<rect x="117.333" y="74.6665" width="5.33333" height="5.33333" fill="#4FAC66"/>
<rect x="122.667" y="74.6665" width="5.33333" height="5.33333" fill="#4FAC66"/>
<rect x="37.3333" y="74.6665" width="5.33333" height="5.33333" fill="#FFEEB1"/>
<rect x="32" y="74.6665" width="5.33333" height="5.33333" fill="#FFB876"/>
<rect x="26.6667" y="74.6665" width="5.33333" height="5.33333" fill="#FFB876"/>
<rect x="128" y="74.6665" width="5.33333" height="5.33333" fill="#4FAC66"/>
<rect x="133.333" y="74.6665" width="5.33333" height="5.33333" fill="#4FAC66"/>
<rect x="21.3333" y="74.6665" width="5.33333" height="5.33333" fill="#60C97A"/>
<rect x="16" y="74.6665" width="5.33333" height="5.33333" fill="#60C97A"/>
<rect x="138.667" y="74.6665" width="5.33333" height="5.33333" fill="#60C97A"/>
<rect x="53.3333" y="69.3335" width="5.33333" height="5.33333" fill="#FFC700"/>
<rect x="48" y="69.3335" width="5.33333" height="5.33333" fill="#FFEEB1"/>
<rect x="42.6667" y="69.3335" width="5.33333" height="5.33333" fill="#F43000"/>
<rect x="106.667" y="69.3335" width="5.33333" height="5.33333" fill="#FFB876"/>
<rect x="112" y="69.3335" width="5.33333" height="5.33333" fill="#EFDDB4"/>
<rect x="117.333" y="69.3335" width="5.33333" height="5.33333" fill="#EFDDB4"/>
<rect x="122.667" y="69.3335" width="5.33333" height="5.33333" fill="#4FAC66"/>
<rect x="37.3333" y="69.3335" width="5.33333" height="5.33333" fill="#FFC700"/>
<rect x="32" y="69.3335" width="5.33333" height="5.33333" fill="#EFDDB4"/>
<rect x="26.6667" y="69.3335" width="5.33333" height="5.33333" fill="#60C97A"/>
<rect x="128" y="69.3335" width="5.33333" height="5.33333" fill="#4FAC66"/>
<rect x="133.333" y="69.3335" width="5.33333" height="5.33333" fill="#4FAC66"/>
<rect x="21.3333" y="69.3335" width="5.33333" height="5.33333" fill="#60C97A"/>
<rect x="16" y="69.3335" width="5.33333" height="5.33333" fill="#60C97A"/>
<rect x="138.667" y="69.3335" width="5.33333" height="5.33333" fill="#4FAC66"/>
<rect x="53.3333" y="64" width="5.33333" height="5.33333" fill="#567400"/>
<rect x="48" y="64" width="5.33333" height="5.33333" fill="#FFC700"/>
<rect x="42.6667" y="64" width="5.33333" height="5.33333" fill="#F43000"/>
<rect x="106.667" y="64" width="5.33333" height="5.33333" fill="#FCECC7"/>
<rect x="112" y="64" width="5.33333" height="5.33333" fill="#EFDDB4"/>
<rect x="117.333" y="64" width="5.33333" height="5.33333" fill="#FFB876"/>
<rect x="122.667" y="64" width="5.33333" height="5.33333" fill="#EFDDB4"/>
<rect x="37.3333" y="64" width="5.33333" height="5.33333" fill="#FFB876"/>
<rect x="32" y="64" width="5.33333" height="5.33333" fill="#FFB876"/>
<rect x="26.6667" y="64" width="5.33333" height="5.33333" fill="#60C97A"/>
<rect x="128" y="64" width="5.33333" height="5.33333" fill="#4FAC66"/>
<rect x="133.333" y="64" width="5.33333" height="5.33333" fill="#4FAC66"/>
<rect x="21.3333" y="64" width="5.33333" height="5.33333" fill="#60C97A"/>
<rect x="16" y="64" width="5.33333" height="5.33333" fill="#60C97A"/>
<rect x="138.667" y="64" width="5.33333" height="5.33333" fill="#4FAC66"/>
<rect x="48" y="58.6665" width="5.33333" height="5.33333" fill="#FFB876"/>
<rect x="42.6667" y="58.6665" width="5.33333" height="5.33333" fill="#FFB876"/>
<rect x="106.667" y="58.6665" width="5.33333" height="5.33333" fill="#FCECC7"/>
<rect x="112" y="58.6665" width="5.33333" height="5.33333" fill="#FCECC7"/>
<rect x="117.333" y="58.6665" width="5.33333" height="5.33333" fill="#FCECC7"/>
<rect x="122.667" y="58.6665" width="5.33333" height="5.33333" fill="#EFDDB4"/>
<rect x="26.6667" y="58.6665" width="5.33333" height="5.33333" fill="#60C97A"/>
<rect x="128" y="58.6665" width="5.33333" height="5.33333" fill="#EFDDB4"/>
<rect x="133.333" y="58.6665" width="5.33333" height="5.33333" fill="#4FAC66"/>
<rect x="21.3333" y="58.6665" width="5.33333" height="5.33333" fill="#60C97A"/>
<rect x="53.3333" y="53.3335" width="5.33333" height="5.33333" fill="#EFDDB4"/>
<rect x="53.3333" y="58.6665" width="5.33333" height="5.33333" fill="#FFB876"/>
<rect x="48" y="53.3335" width="5.33333" height="5.33333" fill="#EFDDB4"/>
<rect x="42.6667" y="53.3335" width="5.33333" height="5.33333" fill="#EFDDB4"/>
<rect x="106.667" y="53.3335" width="5.33333" height="5.33333" fill="#FCECC7"/>
<rect x="112" y="53.3335" width="5.33333" height="5.33333" fill="#FCECC7"/>
<rect x="117.333" y="53.3335" width="5.33333" height="5.33333" fill="#FCECC7"/>
<rect x="122.667" y="53.3335" width="5.33333" height="5.33333" fill="#FCECC7"/>
<rect x="37.3333" y="53.3335" width="5.33333" height="5.33333" fill="#60C97A"/>
<rect x="37.3333" y="58.6665" width="5.33333" height="5.33333" fill="#EFDDB4"/>
<rect x="32" y="53.3335" width="5.33333" height="5.33333" fill="#60C97A"/>
<rect x="32" y="58.6665" width="5.33333" height="5.33333" fill="#60C97A"/>
<rect x="26.6667" y="53.3335" width="5.33333" height="5.33333" fill="#60C97A"/>
<rect x="128" y="53.3335" width="5.33333" height="5.33333" fill="#EFDDB4"/>
<rect x="133.333" y="53.3335" width="5.33333" height="5.33333" fill="#4FAC66"/>
<rect x="21.3333" y="53.3335" width="5.33333" height="5.33333" fill="#60C97A"/>
<rect x="53.3333" y="48" width="5.33333" height="5.33333" fill="#FCECC7"/>
<rect x="48" y="48" width="5.33333" height="5.33333" fill="#60C97A"/>
<rect x="42.6667" y="48" width="5.33333" height="5.33333" fill="#60C97A"/>
<rect x="106.667" y="48" width="5.33333" height="5.33333" fill="#FCECC7"/>
<rect x="112" y="48" width="5.33333" height="5.33333" fill="#FCECC7"/>
<rect x="117.333" y="48" width="5.33333" height="5.33333" fill="#FCECC7"/>
<rect x="122.667" y="48" width="5.33333" height="5.33333" fill="#FCECC7"/>
<rect x="37.3333" y="48" width="5.33333" height="5.33333" fill="#60C97A"/>
<rect x="32" y="48" width="5.33333" height="5.33333" fill="#60C97A"/>
<rect x="26.6667" y="48" width="5.33333" height="5.33333" fill="#60C97A"/>
<rect x="128" y="48" width="5.33333" height="5.33333" fill="#EFDDB4"/>
<rect x="128" y="42.6665" width="5.33333" height="5.33333" fill="#EFDDB4"/>
<rect x="53.3333" y="42.6665" width="5.33333" height="5.33333" fill="#60C97A"/>
<rect x="48" y="42.6665" width="5.33333" height="5.33333" fill="#60C97A"/>
<rect x="42.6667" y="42.6665" width="5.33333" height="5.33333" fill="#60C97A"/>
<rect x="106.667" y="42.6665" width="5.33333" height="5.33333" fill="#FCECC7"/>
<rect x="112" y="42.6665" width="5.33333" height="5.33333" fill="#FCECC7"/>
<rect x="117.333" y="42.6665" width="5.33333" height="5.33333" fill="#FCECC7"/>
<rect x="117.333" y="37.3335" width="5.33333" height="5.33333" fill="#FCECC7"/>
<rect x="122.667" y="42.6665" width="5.33333" height="5.33333" fill="#FCECC7"/>
<rect x="122.667" y="37.3335" width="5.33333" height="5.33333" fill="#EFDDB4"/>
<rect x="37.3333" y="42.6665" width="5.33333" height="5.33333" fill="#60C97A"/>
<rect x="32" y="42.6665" width="5.33333" height="5.33333" fill="#60C97A"/>
<rect x="53.3333" y="37.3335" width="5.33333" height="5.33333" fill="#60C97A"/>
<rect x="48" y="37.3335" width="5.33333" height="5.33333" fill="#60C97A"/>
<rect x="42.6667" y="37.3335" width="5.33333" height="5.33333" fill="#60C97A"/>
<rect x="106.667" y="37.3335" width="5.33333" height="5.33333" fill="#FCECC7"/>
<rect x="106.667" y="32" width="5.33333" height="5.33333" fill="#EFDDB4"/>
<rect x="112" y="37.3335" width="5.33333" height="5.33333" fill="#FCECC7"/>
<rect x="112" y="32" width="5.33333" height="5.33333" fill="#FCECC7"/>
<rect x="53.3333" y="32" width="5.33333" height="5.33333" fill="#60C97A"/>
<rect x="58.6667" y="112" width="5.33333" height="5.33333" fill="#60C97A"/>
<rect x="58.6667" y="106.667" width="5.33333" height="5.33333" fill="#60C97A"/>
<rect x="58.6667" y="101.333" width="5.33333" height="5.33333" fill="#EFDDB4"/>
<rect x="58.6667" y="96" width="5.33333" height="5.33333" fill="#567400"/>
<rect x="58.6667" y="90.6665" width="5.33333" height="5.33333" fill="#FFC700"/>
<rect x="58.6667" y="85.3335" width="5.33333" height="5.33333" fill="#B72400"/>
<rect x="58.6667" y="80" width="5.33333" height="5.33333" fill="#873209"/>
<rect x="58.6667" y="74.6665" width="5.33333" height="5.33333" fill="#FFEEB1"/>
<rect x="58.6667" y="69.3335" width="5.33333" height="5.33333" fill="#FFC700"/>
<rect x="58.6667" y="64" width="5.33333" height="5.33333" fill="#567400"/>
<rect x="58.6667" y="58.6665" width="5.33333" height="5.33333" fill="#FFB876"/>
<rect x="58.6667" y="53.3335" width="5.33333" height="5.33333" fill="#EFDDB4"/>
<rect x="58.6667" y="48" width="5.33333" height="5.33333" fill="#FFB876"/>
<rect x="58.6667" y="37.3335" width="5.33333" height="5.33333" fill="#60C97A"/>
<rect x="58.6667" y="32" width="5.33333" height="5.33333" fill="#60C97A"/>
<rect x="64" y="112" width="5.33333" height="5.33333" fill="#60C97A"/>
<rect x="64" y="106.667" width="5.33333" height="5.33333" fill="#60C97A"/>
<rect x="64" y="101.333" width="5.33333" height="5.33333" fill="#FFB876"/>
<rect x="64" y="96" width="5.33333" height="5.33333" fill="#B72400"/>
<rect x="64" y="90.6665" width="5.33333" height="5.33333" fill="#F43000"/>
<rect x="64" y="85.3335" width="5.33333" height="5.33333" fill="#FFC700"/>
<rect x="64" y="80" width="5.33333" height="5.33333" fill="#FFEEB1"/>
<rect x="64" y="74.6665" width="5.33333" height="5.33333" fill="#D76933"/>
<rect x="64" y="69.3335" width="5.33333" height="5.33333" fill="#FFEEB1"/>
<rect x="64" y="64" width="5.33333" height="5.33333" fill="#D76933"/>
<rect x="64" y="58.6665" width="5.33333" height="5.33333" fill="#EFDDB4"/>
<rect x="64" y="53.3335" width="5.33333" height="5.33333" fill="#FFB876"/>
<rect x="64" y="48" width="5.33333" height="5.33333" fill="#EFDDB4"/>
<rect x="64" y="42.6665" width="5.33333" height="5.33333" fill="#FFB876"/>
<rect x="58.6667" y="42.6665" width="5.33333" height="5.33333" fill="#60C97A"/>
<rect x="64" y="37.3335" width="5.33333" height="5.33333" fill="#60C97A"/>
<rect x="64" y="32" width="5.33333" height="5.33333" fill="#60C97A"/>
<rect x="69.3333" y="112" width="5.33333" height="5.33333" fill="#60C97A"/>
<rect x="69.3333" y="106.667" width="5.33333" height="5.33333" fill="#60C97A"/>
<rect x="69.3333" y="101.333" width="5.33333" height="5.33333" fill="#4FAC66"/>
<rect x="69.3333" y="96" width="5.33333" height="5.33333" fill="#FFB876"/>
<rect x="69.3333" y="90.6665" width="5.33333" height="5.33333" fill="#B72400"/>
<rect x="69.3333" y="85.3335" width="5.33333" height="5.33333" fill="#F43000"/>
<rect x="69.3333" y="80" width="5.33333" height="5.33333" fill="#F43000"/>
<rect x="69.3333" y="74.6665" width="5.33333" height="5.33333" fill="#FFEEB1"/>
<rect x="69.3333" y="69.3335" width="5.33333" height="5.33333" fill="#D76933"/>
<rect x="69.3333" y="64" width="5.33333" height="5.33333" fill="#EFDDB4"/>
<rect x="69.3333" y="58.6665" width="5.33333" height="5.33333" fill="#FCECC7"/>
<rect x="69.3333" y="53.3335" width="5.33333" height="5.33333" fill="#FCECC7"/>
<rect x="69.3333" y="48" width="5.33333" height="5.33333" fill="#FFB876"/>
<rect x="69.3333" y="42.6665" width="5.33333" height="5.33333" fill="#FFB876"/>
<rect x="69.3333" y="37.3335" width="5.33333" height="5.33333" fill="#60C97A"/>
<rect x="69.3333" y="32" width="5.33333" height="5.33333" fill="#60C97A"/>
<rect x="74.6667" y="112" width="5.33333" height="5.33333" fill="#60C97A"/>
<rect x="74.6667" y="106.667" width="5.33333" height="5.33333" fill="#60C97A"/>
<rect x="74.6667" y="101.333" width="5.33333" height="5.33333" fill="#4FAC66"/>
<rect x="74.6667" y="96" width="5.33333" height="5.33333" fill="#FFB876"/>
<rect x="74.6667" y="90.6665" width="5.33333" height="5.33333" fill="#FFB876"/>
<rect x="74.6667" y="85.3335" width="5.33333" height="5.33333" fill="#EFDDB4"/>
<rect x="74.6667" y="80" width="5.33333" height="5.33333" fill="#FFB876"/>
<rect x="74.6667" y="74.6665" width="5.33333" height="5.33333" fill="#EFDDB4"/>
<rect x="74.6667" y="69.3335" width="5.33333" height="5.33333" fill="#EFDDB4"/>
<rect x="74.6667" y="64" width="5.33333" height="5.33333" fill="#FCECC7"/>
<rect x="74.6667" y="58.6665" width="5.33333" height="5.33333" fill="#FCECC7"/>
<rect x="74.6667" y="53.3335" width="5.33333" height="5.33333" fill="#EFDDB4"/>
<rect x="74.6667" y="48" width="5.33333" height="5.33333" fill="#FFB876"/>
<rect x="74.6667" y="42.6665" width="5.33333" height="5.33333" fill="#FFB876"/>
<rect x="74.6667" y="37.3335" width="5.33333" height="5.33333" fill="#FFB876"/>
<rect x="74.6667" y="32" width="5.33333" height="5.33333" fill="#60C97A"/>
<rect x="80" y="112" width="5.33333" height="5.33333" fill="#60C97A"/>
<rect x="80" y="106.667" width="5.33333" height="5.33333" fill="#60C97A"/>
<rect x="80" y="101.333" width="5.33333" height="5.33333" fill="#60C97A"/>
<rect x="80" y="96" width="5.33333" height="5.33333" fill="#4FAC66"/>
<rect x="80" y="90.6665" width="5.33333" height="5.33333" fill="#EFDDB4"/>
<rect x="80" y="85.3335" width="5.33333" height="5.33333" fill="#EFDDB4"/>
<rect x="80" y="80" width="5.33333" height="5.33333" fill="#EFDDB4"/>
<rect x="80" y="74.6665" width="5.33333" height="5.33333" fill="#FCECC7"/>
<rect x="80" y="69.3335" width="5.33333" height="5.33333" fill="#FCECC7"/>
<rect x="80" y="64" width="5.33333" height="5.33333" fill="#FCECC7"/>
<rect x="80" y="58.6665" width="5.33333" height="5.33333" fill="#FCECC7"/>
<rect x="80" y="53.3335" width="5.33333" height="5.33333" fill="#FFB876"/>
<rect x="80" y="48" width="5.33333" height="5.33333" fill="#EFDDB4"/>
<rect x="80" y="42.6665" width="5.33333" height="5.33333" fill="#FFB876"/>
<rect x="80" y="37.3335" width="5.33333" height="5.33333" fill="#EFDDB4"/>
<rect x="80" y="32" width="5.33333" height="5.33333" fill="#60C97A"/>
<rect x="85.3333" y="112" width="5.33333" height="5.33333" fill="#60C97A"/>
<rect x="85.3333" y="106.667" width="5.33333" height="5.33333" fill="#60C97A"/>
<rect x="85.3333" y="101.333" width="5.33333" height="5.33333" fill="#60C97A"/>
<rect x="85.3333" y="96" width="5.33333" height="5.33333" fill="#4FAC66"/>
<rect x="85.3333" y="90.6665" width="5.33333" height="5.33333" fill="#EFDDB4"/>
<rect x="85.3333" y="85.3335" width="5.33333" height="5.33333" fill="#EFDDB4"/>
<rect x="85.3333" y="80" width="5.33333" height="5.33333" fill="#EFDDB4"/>
<rect x="85.3333" y="74.6665" width="5.33333" height="5.33333" fill="#FCECC7"/>
<rect x="85.3333" y="69.3335" width="5.33333" height="5.33333" fill="#FCECC7"/>
<rect x="85.3333" y="64" width="5.33333" height="5.33333" fill="#FCECC7"/>
<rect x="85.3333" y="58.6665" width="5.33333" height="5.33333" fill="#FCECC7"/>
<rect x="85.3333" y="53.3335" width="5.33333" height="5.33333" fill="#FCECC7"/>
<rect x="85.3333" y="48" width="5.33333" height="5.33333" fill="#FCECC7"/>
<rect x="85.3333" y="42.6665" width="5.33333" height="5.33333" fill="#FCECC7"/>
<rect x="85.3333" y="37.3335" width="5.33333" height="5.33333" fill="#FFB876"/>
<rect x="85.3333" y="32" width="5.33333" height="5.33333" fill="#60C97A"/>
<rect x="90.6667" y="112" width="5.33333" height="5.33333" fill="#60C97A"/>
<rect x="90.6667" y="106.667" width="5.33333" height="5.33333" fill="#60C97A"/>
<rect x="90.6667" y="101.333" width="5.33333" height="5.33333" fill="#60C97A"/>
<rect x="90.6667" y="96" width="5.33333" height="5.33333" fill="#60C97A"/>
<rect x="90.6667" y="90.6665" width="5.33333" height="5.33333" fill="#4FAC66"/>
<rect x="90.6667" y="85.3335" width="5.33333" height="5.33333" fill="#EFDDB4"/>
<rect x="90.6667" y="80" width="5.33333" height="5.33333" fill="#EFDDB4"/>
<rect x="90.6667" y="74.6665" width="5.33333" height="5.33333" fill="#EFDDB4"/>
<rect x="90.6667" y="69.3335" width="5.33333" height="5.33333" fill="#FCECC7"/>
<rect x="90.6667" y="64" width="5.33333" height="5.33333" fill="#FCECC7"/>
<rect x="90.6667" y="58.6665" width="5.33333" height="5.33333" fill="#FCECC7"/>
<rect x="90.6667" y="53.3335" width="5.33333" height="5.33333" fill="#FCECC7"/>
<rect x="90.6667" y="48" width="5.33333" height="5.33333" fill="#FCECC7"/>
<rect x="90.6667" y="42.6665" width="5.33333" height="5.33333" fill="#FFB876"/>
<rect x="90.6667" y="37.3335" width="5.33333" height="5.33333" fill="#FCECC7"/>
<rect x="90.6667" y="32" width="5.33333" height="5.33333" fill="#EFDDB4"/>
<rect x="96" y="112" width="5.33333" height="5.33333" fill="#60C97A"/>
<rect x="96" y="106.667" width="5.33333" height="5.33333" fill="#60C97A"/>
<rect x="96" y="101.333" width="5.33333" height="5.33333" fill="#60C97A"/>
<rect x="96" y="96" width="5.33333" height="5.33333" fill="#60C97A"/>
<rect x="96" y="90.6665" width="5.33333" height="5.33333" fill="#4FAC66"/>
<rect x="96" y="85.3335" width="5.33333" height="5.33333" fill="#FFB876"/>
<rect x="96" y="80" width="5.33333" height="5.33333" fill="#EFDDB4"/>
<rect x="96" y="74.6665" width="5.33333" height="5.33333" fill="#EFDDB4"/>
<rect x="96" y="69.3335" width="5.33333" height="5.33333" fill="#FCECC7"/>
<rect x="96" y="64" width="5.33333" height="5.33333" fill="#FCECC7"/>
<rect x="96" y="58.6665" width="5.33333" height="5.33333" fill="#FCECC7"/>
<rect x="96" y="53.3335" width="5.33333" height="5.33333" fill="#FCECC7"/>
<rect x="96" y="48" width="5.33333" height="5.33333" fill="#FCECC7"/>
<rect x="96" y="42.6665" width="5.33333" height="5.33333" fill="#FCECC7"/>
<rect x="96" y="37.3335" width="5.33333" height="5.33333" fill="#FCECC7"/>
<rect x="96" y="32" width="5.33333" height="5.33333" fill="#EFDDB4"/>
<rect x="101.333" y="112" width="5.33333" height="5.33333" fill="#60C97A"/>
<rect x="101.333" y="106.667" width="5.33333" height="5.33333" fill="#60C97A"/>
<rect x="101.333" y="101.333" width="5.33333" height="5.33333" fill="#60C97A"/>
<rect x="101.333" y="96" width="5.33333" height="5.33333" fill="#60C97A"/>
<rect x="101.333" y="90.6665" width="5.33333" height="5.33333" fill="#4FAC66"/>
<rect x="101.333" y="85.3335" width="5.33333" height="5.33333" fill="#4FAC66"/>
<rect x="101.333" y="80" width="5.33333" height="5.33333" fill="#FFB876"/>
<rect x="101.333" y="74.6665" width="5.33333" height="5.33333" fill="#EFDDB4"/>
<rect x="101.333" y="69.3335" width="5.33333" height="5.33333" fill="#EFDDB4"/>
<rect x="101.333" y="64" width="5.33333" height="5.33333" fill="#FCECC7"/>
<rect x="101.333" y="58.6665" width="5.33333" height="5.33333" fill="#FCECC7"/>
<rect x="101.333" y="53.3335" width="5.33333" height="5.33333" fill="#FCECC7"/>
<rect x="101.333" y="48" width="5.33333" height="5.33333" fill="#FCECC7"/>
<rect x="101.333" y="42.6665" width="5.33333" height="5.33333" fill="#FCECC7"/>
<rect x="101.333" y="37.3335" width="5.33333" height="5.33333" fill="#FCECC7"/>
<rect x="101.333" y="32" width="5.33333" height="5.33333" fill="#FFB876"/>
<rect x="53.3333" y="122.667" width="5.33333" height="5.33333" fill="#4FAC66"/>
<rect x="53.3333" y="117.333" width="5.33333" height="5.33333" fill="#FFFCF8"/>
<rect x="64" y="122.667" width="5.33333" height="5.33333" fill="#4FAC66"/>
<rect x="64" y="117.333" width="5.33333" height="5.33333" fill="#FFFCF8"/>
<rect x="74.6667" y="122.667" width="5.33333" height="5.33333" fill="#4FAC66"/>
<rect x="74.6667" y="117.333" width="5.33333" height="5.33333" fill="#FFFCF8"/>
<rect x="85.3333" y="122.667" width="5.33333" height="5.33333" fill="#4FAC66"/>
<rect x="85.3333" y="117.333" width="5.33333" height="5.33333" fill="#FFFCF8"/>
<rect x="96" y="122.667" width="5.33333" height="5.33333" fill="#4FAC66"/>
<rect x="96" y="117.333" width="5.33333" height="5.33333" fill="#FFFCF8"/>
<rect x="106.667" y="117.333" width="5.33333" height="5.33333" fill="#4FAC66"/>
<rect x="106.667" y="112" width="5.33333" height="5.33333" fill="#FFFCF8"/>
<rect x="117.333" y="112" width="5.33333" height="5.33333" fill="#4FAC66"/>
<rect x="117.333" y="106.667" width="5.33333" height="5.33333" fill="#FFFCF8"/>
<rect x="32" y="112" width="5.33333" height="5.33333" fill="#4FAC66"/>
<rect x="32" y="106.667" width="5.33333" height="5.33333" fill="#FFFCF8"/>
<rect x="26.6667" y="106.667" width="5.33333" height="5.33333" fill="#4FAC66"/>
<rect x="26.6667" y="101.333" width="5.33333" height="5.33333" fill="#FFFCF8"/>
<rect x="21.3333" y="101.333" width="5.33333" height="5.33333" fill="#4FAC66"/>
<rect x="21.3333" y="96" width="5.33333" height="5.33333" fill="#FFFCF8"/>
<rect x="16" y="96" width="5.33333" height="5.33333" fill="#4FAC66"/>
<rect x="16" y="90.6665" width="5.33333" height="5.33333" fill="#FFFCF8"/>
<rect x="58.6667" y="122.667" width="5.33333" height="5.33333" fill="#4FAC66"/>
<rect x="58.6667" y="117.333" width="5.33333" height="5.33333" fill="#FFFCF8"/>
<rect x="69.3333" y="122.667" width="5.33333" height="5.33333" fill="#4FAC66"/>
<rect x="69.3333" y="117.333" width="5.33333" height="5.33333" fill="#FFFCF8"/>
<rect x="80" y="122.667" width="5.33333" height="5.33333" fill="#4FAC66"/>
<rect x="80" y="117.333" width="5.33333" height="5.33333" fill="#FFFCF8"/>
<rect x="90.6667" y="122.667" width="5.33333" height="5.33333" fill="#4FAC66"/>
<rect x="90.6667" y="117.333" width="5.33333" height="5.33333" fill="#FFFCF8"/>
<rect x="101.333" y="122.667" width="5.33333" height="5.33333" fill="#4FAC66"/>
<rect x="101.333" y="117.333" width="5.33333" height="5.33333" fill="#FFFCF8"/>
<rect x="112" y="117.333" width="5.33333" height="5.33333" fill="#4FAC66"/>
<rect x="112" y="112" width="5.33333" height="5.33333" fill="#FFFCF8"/>
<rect x="122.667" y="112" width="5.33333" height="5.33333" fill="#4FAC66"/>
<rect x="122.667" y="106.667" width="5.33333" height="5.33333" fill="#FFFCF8"/>
<rect x="128" y="106.667" width="5.33333" height="5.33333" fill="#4FAC66"/>
<rect x="128" y="101.333" width="5.33333" height="5.33333" fill="#FFFCF8"/>
<rect x="133.333" y="101.333" width="5.33333" height="5.33333" fill="#4FAC66"/>
<rect x="133.333" y="96" width="5.33333" height="5.33333" fill="#FFFCF8"/>
<rect x="138.667" y="96" width="5.33333" height="5.33333" fill="#4FAC66"/>
<rect x="138.667" y="90.6665" width="5.33333" height="5.33333" fill="#FFFCF8"/>
<rect x="37.3333" y="112" width="5.33333" height="5.33333" fill="#4FAC66"/>
<rect x="37.3333" y="106.667" width="5.33333" height="5.33333" fill="#FFFCF8"/>
<rect x="144" y="58.6665" width="5.33333" height="5.33333" fill="white"/>
<rect x="144" y="53.3335" width="5.33333" height="5.33333" fill="white"/>
<rect x="144" y="48" width="5.33333" height="5.33333" fill="white"/>
<rect x="138.667" y="42.6665" width="5.33333" height="5.33333" fill="white"/>
<rect x="133.333" y="32" width="5.33333" height="5.33333" fill="white"/>
<rect x="128" y="26.6665" width="5.33333" height="5.33333" fill="white"/>
<rect x="90.6667" y="21.3335" width="5.33333" height="5.33333" fill="white"/>
<rect x="74.6667" y="21.3335" width="5.33333" height="5.33333" fill="white"/>
<rect x="58.6667" y="21.3335" width="5.33333" height="5.33333" fill="white"/>
<rect x="48" y="26.6665" width="5.33333" height="5.33333" fill="white"/>
<rect x="37.3333" y="32" width="5.33333" height="5.33333" fill="white"/>
<rect x="26.6667" y="37.3335" width="5.33333" height="5.33333" fill="white"/>
<rect x="21.3333" y="42.6665" width="5.33333" height="5.33333" fill="white"/>
<rect x="16" y="48" width="5.33333" height="5.33333" fill="white"/>
<rect x="138.667" y="48" width="5.33333" height="5.33333" fill="white"/>
<rect x="133.333" y="37.3335" width="5.33333" height="5.33333" fill="white"/>
<rect x="138.667" y="37.3335" width="5.33333" height="5.33333" fill="white"/>
<rect x="128" y="32" width="5.33333" height="5.33333" fill="white"/>
<rect x="122.667" y="26.6665" width="5.33333" height="5.33333" fill="white"/>
<rect x="112" y="21.3335" width="5.33333" height="5.33333" fill="white"/>
<rect x="101.333" y="21.3335" width="5.33333" height="5.33333" fill="white"/>
<rect x="85.3333" y="21.3335" width="5.33333" height="5.33333" fill="white"/>
<rect x="69.3333" y="21.3335" width="5.33333" height="5.33333" fill="white"/>
<rect x="53.3333" y="21.3335" width="5.33333" height="5.33333" fill="white"/>
<rect x="42.6667" y="26.6665" width="5.33333" height="5.33333" fill="white"/>
<rect x="32" y="32" width="5.33333" height="5.33333" fill="white"/>
<rect x="21.3333" y="37.3335" width="5.33333" height="5.33333" fill="white"/>
<rect x="16" y="42.6665" width="5.33333" height="5.33333" fill="white"/>
<rect x="10.6667" y="48" width="5.33333" height="5.33333" fill="white"/>
<rect x="10.6667" y="53.3335" width="5.33333" height="5.33333" fill="white"/>
<rect x="10.6667" y="58.6665" width="5.33333" height="5.33333" fill="white"/>
<rect x="5.33331" y="58.6665" width="5.33333" height="5.33333" fill="white"/>
<rect x="5.33331" y="64" width="5.33333" height="5.33333" fill="white"/>
<rect x="5.33331" y="69.3335" width="5.33333" height="5.33333" fill="white"/>
<rect x="5.33331" y="74.6665" width="5.33333" height="5.33333" fill="white"/>
<rect x="5.33331" y="80" width="5.33333" height="5.33333" fill="white"/>
<rect x="5.33331" y="85.3335" width="5.33333" height="5.33333" fill="white"/>
<rect x="5.33331" y="90.6665" width="5.33333" height="5.33333" fill="white"/>
<rect x="5.33331" y="96" width="5.33333" height="5.33333" fill="white"/>
<rect x="5.33331" y="101.333" width="5.33333" height="5.33333" fill="white"/>
<rect x="10.6667" y="106.667" width="5.33333" height="5.33333" fill="white"/>
<rect x="16" y="112" width="5.33333" height="5.33333" fill="white"/>
<rect x="21.3333" y="117.333" width="5.33333" height="5.33333" fill="white"/>
<rect x="26.6667" y="122.667" width="5.33333" height="5.33333" fill="white"/>
<rect x="37.3333" y="128" width="5.33333" height="5.33333" fill="white"/>
<rect x="48" y="133.333" width="5.33333" height="5.33333" fill="white"/>
<rect x="64" y="133.333" width="5.33333" height="5.33333" fill="white"/>
<rect x="80" y="133.333" width="5.33333" height="5.33333" fill="white"/>
<rect x="96" y="133.333" width="5.33333" height="5.33333" fill="white"/>
<rect x="10.6667" y="101.333" width="5.33333" height="5.33333" fill="white"/>
<rect x="16" y="106.667" width="5.33333" height="5.33333" fill="white"/>
<rect x="21.3333" y="112" width="5.33333" height="5.33333" fill="white"/>
<rect x="26.6667" y="117.333" width="5.33333" height="5.33333" fill="white"/>
<rect x="32" y="122.667" width="5.33333" height="5.33333" fill="white"/>
<rect x="42.6667" y="128" width="5.33333" height="5.33333" fill="white"/>
<rect x="53.3333" y="133.333" width="5.33333" height="5.33333" fill="white"/>
<rect x="69.3333" y="133.333" width="5.33333" height="5.33333" fill="white"/>
<rect x="85.3333" y="133.333" width="5.33333" height="5.33333" fill="white"/>
<rect x="101.333" y="133.333" width="5.33333" height="5.33333" fill="white"/>
<rect x="37.3333" y="122.667" width="5.33333" height="5.33333" fill="white"/>
<rect x="48" y="128" width="5.33333" height="5.33333" fill="white"/>
<rect x="58.6667" y="133.333" width="5.33333" height="5.33333" fill="white"/>
<rect x="74.6667" y="133.333" width="5.33333" height="5.33333" fill="white"/>
<rect x="90.6667" y="133.333" width="5.33333" height="5.33333" fill="white"/>
<rect x="106.667" y="133.333" width="5.33333" height="5.33333" fill="white"/>
<rect x="106.667" y="128" width="5.33333" height="5.33333" fill="white"/>
<rect x="117.333" y="122.667" width="5.33333" height="5.33333" fill="white"/>
<rect x="128" y="117.333" width="5.33333" height="5.33333" fill="white"/>
<rect x="133.333" y="112" width="5.33333" height="5.33333" fill="white"/>
<rect x="138.667" y="106.667" width="5.33333" height="5.33333" fill="white"/>
<rect x="144" y="101.333" width="5.33333" height="5.33333" fill="white"/>
<rect x="112" y="128" width="5.33333" height="5.33333" fill="white"/>
<rect x="122.667" y="122.667" width="5.33333" height="5.33333" fill="white"/>
<rect x="133.333" y="117.333" width="5.33333" height="5.33333" fill="white"/>
<rect x="138.667" y="112" width="5.33333" height="5.33333" fill="white"/>
<rect x="144" y="106.667" width="5.33333" height="5.33333" fill="white"/>
<rect x="149.333" y="101.333" width="5.33333" height="5.33333" fill="white"/>
<rect x="149.333" y="96" width="5.33333" height="5.33333" fill="white"/>
<rect x="149.333" y="90.6665" width="5.33333" height="5.33333" fill="white"/>
<rect x="149.333" y="85.3335" width="5.33333" height="5.33333" fill="white"/>
<rect x="149.333" y="80" width="5.33333" height="5.33333" fill="white"/>
<rect x="149.333" y="74.6665" width="5.33333" height="5.33333" fill="white"/>
<rect x="149.333" y="69.3335" width="5.33333" height="5.33333" fill="white"/>
<rect x="149.333" y="64" width="5.33333" height="5.33333" fill="white"/>
<rect x="149.333" y="58.6665" width="5.33333" height="5.33333" fill="white"/>
<rect x="117.333" y="128" width="5.33333" height="5.33333" fill="white"/>
<rect x="128" y="122.667" width="5.33333" height="5.33333" fill="white"/>
<rect x="117.333" y="26.6665" width="5.33333" height="5.33333" fill="white"/>
<rect x="117.333" y="21.3335" width="5.33333" height="5.33333" fill="white"/>
<rect x="106.667" y="21.3335" width="5.33333" height="5.33333" fill="white"/>
<rect x="96" y="21.3335" width="5.33333" height="5.33333" fill="white"/>
<rect x="80" y="21.3335" width="5.33333" height="5.33333" fill="white"/>
<rect x="64" y="21.3335" width="5.33333" height="5.33333" fill="white"/>
<rect x="48" y="21.3335" width="5.33333" height="5.33333" fill="white"/>
<rect x="37.3333" y="26.6665" width="5.33333" height="5.33333" fill="white"/>
<rect x="26.6667" y="32" width="5.33333" height="5.33333" fill="white"/>
<rect x="85.3333" y="16" width="5.33333" height="5.33333" fill="#FFCB29"/>
<rect x="90.6667" y="16" width="5.33333" height="5.33333" fill="#FFCB29"/>
<rect x="101.333" y="16" width="5.33333" height="5.33333" fill="#FFCB29"/>
<rect x="112" y="16" width="5.33333" height="5.33333" fill="#FFCB29"/>
<rect x="122.667" y="21.3335" width="5.33333" height="5.33333" fill="#FFCB29"/>
<rect x="133.333" y="26.6665" width="5.33333" height="5.33333" fill="#FFCB29"/>
<rect x="138.667" y="32" width="5.33333" height="5.33333" fill="#FFCB29"/>
<rect x="144" y="42.6665" width="5.33333" height="5.33333" fill="#FFCB29"/>
<rect x="144" y="37.3335" width="5.33333" height="5.33333" fill="#FFCB29"/>
<rect x="149.333" y="53.3335" width="5.33333" height="5.33333" fill="#FFCB29"/>
<rect x="149.333" y="48" width="5.33333" height="5.33333" fill="#FFCB29"/>
<rect x="154.667" y="58.6665" width="5.33333" height="5.33333" fill="#FFCB29"/>
<rect x="154.667" y="64" width="5.33333" height="5.33333" fill="#FFCB29"/>
<rect x="154.667" y="69.3335" width="5.33333" height="5.33333" fill="#FFCB29"/>
<rect x="154.667" y="74.6665" width="5.33333" height="5.33333" fill="#FFCB29"/>
<rect x="154.667" y="80" width="5.33333" height="5.33333" fill="#FFCB29"/>
<rect x="154.667" y="85.3335" width="5.33333" height="5.33333" fill="#FFCB29"/>
<rect x="154.667" y="90.6665" width="5.33333" height="5.33333" fill="#FFCB29"/>
<rect x="154.667" y="96" width="5.33333" height="5.33333" fill="#FFCB29"/>
<rect x="154.667" y="101.333" width="5.33333" height="5.33333" fill="#FFCB29"/>
<rect x="149.333" y="106.667" width="5.33333" height="5.33333" fill="#FFCB29"/>
<rect x="144" y="112" width="5.33333" height="5.33333" fill="#FFCB29"/>
<rect x="133.333" y="122.667" width="5.33333" height="5.33333" fill="#FFCB29"/>
<rect x="138.667" y="117.333" width="5.33333" height="5.33333" fill="#FFCB29"/>
<rect x="128" y="128" width="5.33333" height="5.33333" fill="#FFCB29"/>
<rect x="117.333" y="133.333" width="5.33333" height="5.33333" fill="#FFCB29"/>
<rect x="106.667" y="138.667" width="5.33333" height="5.33333" fill="#FFCB29"/>
<rect x="90.6667" y="138.667" width="5.33333" height="5.33333" fill="#FFCB29"/>
<rect x="74.6667" y="138.667" width="5.33333" height="5.33333" fill="#FFCB29"/>
<rect x="58.6667" y="138.667" width="5.33333" height="5.33333" fill="#FFCB29"/>
<rect x="122.667" y="128" width="5.33333" height="5.33333" fill="#FFCB29"/>
<rect x="112" y="133.333" width="5.33333" height="5.33333" fill="#FFCB29"/>
<rect x="101.333" y="138.667" width="5.33333" height="5.33333" fill="#FFCB29"/>
<rect x="85.3333" y="138.667" width="5.33333" height="5.33333" fill="#FFCB29"/>
<rect x="69.3333" y="138.667" width="5.33333" height="5.33333" fill="#FFCB29"/>
<rect x="53.3333" y="138.667" width="5.33333" height="5.33333" fill="#FFCB29"/>
<rect x="42.6667" y="133.333" width="5.33333" height="5.33333" fill="#FFCB29"/>
<rect x="32" y="128" width="5.33333" height="5.33333" fill="#FFCB29"/>
<rect x="96" y="138.667" width="5.33333" height="5.33333" fill="#FFCB29"/>
<rect x="80" y="138.667" width="5.33333" height="5.33333" fill="#FFCB29"/>
<rect x="64" y="138.667" width="5.33333" height="5.33333" fill="#FFCB29"/>
<rect x="48" y="138.667" width="5.33333" height="5.33333" fill="#FFCB29"/>
<rect x="37.3333" y="133.333" width="5.33333" height="5.33333" fill="#FFCB29"/>
<rect x="26.6667" y="128" width="5.33333" height="5.33333" fill="#FFCB29"/>
<rect x="21.3333" y="122.667" width="5.33333" height="5.33333" fill="#FFCB29"/>
<rect x="16" y="117.333" width="5.33333" height="5.33333" fill="#FFCB29"/>
<rect x="10.6667" y="112" width="5.33333" height="5.33333" fill="#FFCB29"/>
<rect y="101.333" width="5.33333" height="5.33333" fill="#FFCB29"/>
<rect x="5.33331" y="106.667" width="5.33333" height="5.33333" fill="#FFCB29"/>
<rect y="96" width="5.33333" height="5.33333" fill="#FFCB29"/>
<rect y="90.6665" width="5.33333" height="5.33333" fill="#FFCB29"/>
<rect y="85.3335" width="5.33333" height="5.33333" fill="#FFCB29"/>
<rect y="80" width="5.33333" height="5.33333" fill="#FFCB29"/>
<rect y="74.6665" width="5.33333" height="5.33333" fill="#FFCB29"/>
<rect y="69.3335" width="5.33333" height="5.33333" fill="#FFCB29"/>
<rect y="64" width="5.33333" height="5.33333" fill="#FFCB29"/>
<rect y="58.6665" width="5.33333" height="5.33333" fill="#FFCB29"/>
<rect x="5.33331" y="53.3335" width="5.33333" height="5.33333" fill="#FFCB29"/>
<rect x="5.33331" y="48" width="5.33333" height="5.33333" fill="#FFCB29"/>
<rect x="10.6667" y="42.6665" width="5.33333" height="5.33333" fill="#FFCB29"/>
<rect x="16" y="37.3335" width="5.33333" height="5.33333" fill="#FFCB29"/>
<rect x="21.3333" y="32" width="5.33333" height="5.33333" fill="#FFCB29"/>
<rect x="26.6667" y="26.6665" width="5.33333" height="5.33333" fill="#FFCB29"/>
<rect x="37.3333" y="21.3335" width="5.33333" height="5.33333" fill="#FFCB29"/>
<rect x="48" y="16" width="5.33333" height="5.33333" fill="#FFCB29"/>
<rect x="58.6667" y="16" width="5.33333" height="5.33333" fill="#FFCB29"/>
<rect x="32" y="26.6665" width="5.33333" height="5.33333" fill="#FFCB29"/>
<rect x="42.6667" y="21.3335" width="5.33333" height="5.33333" fill="#FFCB29"/>
<rect x="53.3333" y="16" width="5.33333" height="5.33333" fill="#FFCB29"/>
<rect x="64" y="16" width="5.33333" height="5.33333" fill="#FFCB29"/>
<rect x="69.3333" y="16" width="5.33333" height="5.33333" fill="#FFCB29"/>
<rect x="74.6667" y="16" width="5.33333" height="5.33333" fill="#FFCB29"/>
<rect x="80" y="16" width="5.33333" height="5.33333" fill="#FFCB29"/>
<rect x="96" y="16" width="5.33333" height="5.33333" fill="#FFCB29"/>
<rect x="106.667" y="16" width="5.33333" height="5.33333" fill="#FFCB29"/>
<rect x="117.333" y="16" width="5.33333" height="5.33333" fill="#FFCB29"/>
<rect x="128" y="21.3335" width="5.33333" height="5.33333" fill="#FFCB29"/>
</svg>
