<svg width="120" height="120" viewBox="0 0 120 120" fill="none" xmlns="http://www.w3.org/2000/svg">
<rect width="4" height="4" transform="matrix(-1 0 0 1 60 96)" fill="black"/>
<rect width="4" height="4" transform="matrix(-1 0 0 1 60 92)" fill="#323232"/>
<rect width="4" height="4" transform="matrix(-1 0 0 1 60 88)" fill="#D3D3D3"/>
<rect width="4" height="4" transform="matrix(-1 0 0 1 60 84)" fill="#636363"/>
<rect width="4" height="4" transform="matrix(-1 0 0 1 56 96)" fill="black"/>
<rect width="4" height="4" transform="matrix(-1 0 0 1 56 92)" fill="#323232"/>
<rect width="4" height="4" transform="matrix(-1 0 0 1 56 88)" fill="#D3D3D3"/>
<rect width="4" height="4" transform="matrix(-1 0 0 1 56 84)" fill="#636363"/>
<rect width="4" height="4" transform="matrix(-1 0 0 1 52 96)" fill="black"/>
<rect width="4" height="4" transform="matrix(-1 0 0 1 52 92)" fill="#323232"/>
<rect width="4" height="4" transform="matrix(-1 0 0 1 52 88)" fill="#D3D3D3"/>
<rect width="4" height="4" transform="matrix(-1 0 0 1 52 84)" fill="#636363"/>
<rect width="4" height="4" transform="matrix(-1 0 0 1 48 96)" fill="black"/>
<rect width="4" height="4" transform="matrix(-1 0 0 1 48 92)" fill="#323232"/>
<rect width="4" height="4" transform="matrix(-1 0 0 1 48 88)" fill="#D3D3D3"/>
<rect width="4" height="4" transform="matrix(-1 0 0 1 48 84)" fill="#636363"/>
<rect width="4" height="4" transform="matrix(-1 0 0 1 44 96)" fill="black"/>
<rect width="4" height="4" transform="matrix(-1 0 0 1 44 92)" fill="#323232"/>
<rect width="4" height="4" transform="matrix(-1 0 0 1 40 88)" fill="#323232"/>
<rect width="4" height="4" transform="matrix(-1 0 0 1 32 84)" fill="#323232"/>
<rect width="4" height="4" transform="matrix(-1 0 0 1 36 88)" fill="#323232"/>
<rect width="4" height="4" transform="matrix(-1 0 0 1 28 84)" fill="#323232"/>
<rect width="4" height="4" transform="matrix(-1 0 0 1 24 80)" fill="#323232"/>
<rect width="4" height="4" transform="matrix(-1 0 0 1 20 76)" fill="#323232"/>
<rect width="4" height="4" transform="matrix(-1 0 0 1 16 72)" fill="#323232"/>
<rect width="4" height="4" transform="matrix(-1 0 0 1 44 88)" fill="#D3D3D3"/>
<rect width="4" height="4" transform="matrix(-1 0 0 1 40 84)" fill="#D3D3D3"/>
<rect width="4" height="4" transform="matrix(-1 0 0 1 32 80)" fill="#D3D3D3"/>
<rect width="4" height="4" transform="matrix(-1 0 0 1 36 84)" fill="#D3D3D3"/>
<rect width="4" height="4" transform="matrix(-1 0 0 1 28 80)" fill="#D3D3D3"/>
<rect width="4" height="4" transform="matrix(-1 0 0 1 24 76)" fill="#D3D3D3"/>
<rect width="4" height="4" transform="matrix(-1 0 0 1 20 72)" fill="#D3D3D3"/>
<rect width="4" height="4" transform="matrix(-1 0 0 1 16 68)" fill="#D3D3D3"/>
<rect width="4" height="4" transform="matrix(-1 0 0 1 44 84)" fill="#636363"/>
<rect width="4" height="4" transform="matrix(-1 0 0 1 40 80)" fill="#636363"/>
<rect width="4" height="4" transform="matrix(-1 0 0 1 32 76)" fill="#636363"/>
<rect width="4" height="4" transform="matrix(-1 0 0 1 36 80)" fill="#636363"/>
<rect width="4" height="4" transform="matrix(-1 0 0 1 28 76)" fill="#636363"/>
<rect width="4" height="4" transform="matrix(-1 0 0 1 24 72)" fill="#636363"/>
<rect width="4" height="4" transform="matrix(-1 0 0 1 20 68)" fill="#636363"/>
<rect width="4" height="4" transform="matrix(-1 0 0 1 16 64)" fill="#636363"/>
<rect width="4" height="4" transform="matrix(-1 0 0 1 16 60)" fill="#636363"/>
<rect width="4" height="4" transform="matrix(-1 0 0 1 16 56)" fill="#636363"/>
<rect width="4" height="4" transform="matrix(-1 0 0 1 16 52)" fill="#636363"/>
<rect width="4" height="4" transform="matrix(-1 0 0 1 16 48)" fill="#636363"/>
<rect width="4" height="4" transform="matrix(-1 0 0 1 40 92)" fill="black"/>
<rect width="4" height="4" transform="matrix(-1 0 0 1 36 92)" fill="black"/>
<rect width="4" height="4" transform="matrix(-1 0 0 1 32 88)" fill="black"/>
<rect width="4" height="4" transform="matrix(-1 0 0 1 28 88)" fill="black"/>
<rect width="4" height="4" transform="matrix(-1 0 0 1 20 80)" fill="black"/>
<rect width="4" height="4" transform="matrix(-1 0 0 1 24 84)" fill="black"/>
<rect width="4" height="4" transform="matrix(-1 0 0 1 16 76)" fill="black"/>
<rect x="60" y="96" width="4" height="4" fill="black"/>
<rect x="60" y="92" width="4" height="4" fill="#323232"/>
<rect x="60" y="88" width="4" height="4" fill="#D3D3D3"/>
<rect x="60" y="84" width="4" height="4" fill="#636363"/>
<rect x="64" y="96" width="4" height="4" fill="black"/>
<rect x="64" y="92" width="4" height="4" fill="#323232"/>
<rect x="64" y="88" width="4" height="4" fill="#D3D3D3"/>
<rect x="64" y="84" width="4" height="4" fill="#636363"/>
<rect x="68" y="96" width="4" height="4" fill="black"/>
<rect x="68" y="92" width="4" height="4" fill="#323232"/>
<rect x="68" y="88" width="4" height="4" fill="#D3D3D3"/>
<rect x="68" y="84" width="4" height="4" fill="#636363"/>
<rect x="72" y="96" width="4" height="4" fill="black"/>
<rect x="72" y="92" width="4" height="4" fill="#323232"/>
<rect x="72" y="88" width="4" height="4" fill="#D3D3D3"/>
<rect x="72" y="84" width="4" height="4" fill="#636363"/>
<rect x="76" y="96" width="4" height="4" fill="black"/>
<rect x="76" y="92" width="4" height="4" fill="#323232"/>
<rect x="80" y="88" width="4" height="4" fill="#323232"/>
<rect x="84" y="88" width="4" height="4" fill="#323232"/>
<rect x="88" y="84" width="4" height="4" fill="#323232"/>
<rect x="92" y="84" width="4" height="4" fill="#323232"/>
<rect x="96" y="80" width="4" height="4" fill="#323232"/>
<rect x="100" y="76" width="4" height="4" fill="#323232"/>
<rect x="104" y="72" width="4" height="4" fill="#323232"/>
<rect x="76" y="88" width="4" height="4" fill="#D3D3D3"/>
<rect x="80" y="84" width="4" height="4" fill="#D3D3D3"/>
<rect x="84" y="84" width="4" height="4" fill="#D3D3D3"/>
<rect x="88" y="80" width="4" height="4" fill="#D3D3D3"/>
<rect x="92" y="80" width="4" height="4" fill="#D3D3D3"/>
<rect x="96" y="76" width="4" height="4" fill="#D3D3D3"/>
<rect x="100" y="72" width="4" height="4" fill="#D3D3D3"/>
<rect x="104" y="68" width="4" height="4" fill="#D3D3D3"/>
<rect x="76" y="84" width="4" height="4" fill="#636363"/>
<rect x="76" y="80" width="4" height="4" fill="#CF1308"/>
<rect x="76" y="76" width="4" height="4" fill="#FDA667"/>
<rect x="76" y="72" width="4" height="4" fill="#FDE667"/>
<rect x="76" y="68" width="4" height="4" fill="#CF1308"/>
<rect x="84" y="40" width="4" height="4" fill="#CF1308"/>
<rect x="84" y="36" width="4" height="4" fill="#CF1308"/>
<rect x="68" y="28" width="4" height="4" fill="#CF1308"/>
<rect x="80" y="68" width="4" height="4" fill="#FDE667"/>
<rect x="84" y="68" width="4" height="4" fill="#E7D754"/>
<rect x="84" y="64" width="4" height="4" fill="#CF1308"/>
<rect x="88" y="64" width="4" height="4" fill="#5B0000"/>
<rect x="88" y="68" width="4" height="4" fill="#380000"/>
<rect x="84" y="72" width="4" height="4" fill="#BE0000"/>
<rect x="16" y="64" width="4" height="4" fill="#380000"/>
<rect x="16" y="60" width="4" height="4" fill="#BE0000"/>
<rect x="16" y="56" width="4" height="4" fill="#5B0000"/>
<rect x="20" y="56" width="4" height="4" fill="#380000"/>
<rect x="16" y="52" width="4" height="4" fill="#5B0000"/>
<rect x="20" y="52" width="4" height="4" fill="#BE0000"/>
<rect x="16" y="48" width="4" height="4" fill="#BE0000"/>
<rect x="20" y="48" width="4" height="4" fill="#5B0000"/>
<rect x="20" y="44" width="4" height="4" fill="#FFDE9E"/>
<rect x="24" y="44" width="4" height="4" fill="#FFBC39"/>
<rect x="24" y="40" width="4" height="4" fill="#FFDE9E"/>
<rect x="28" y="40" width="4" height="4" fill="#FFDE9E"/>
<rect x="28" y="36" width="4" height="4" fill="#FFBC39"/>
<rect x="32" y="36" width="4" height="4" fill="#FFBC39"/>
<rect x="44" y="40" width="4" height="4" fill="#FFBC39"/>
<rect x="48" y="40" width="4" height="4" fill="#FFDE9E"/>
<rect x="52" y="40" width="4" height="4" fill="#FF0E00"/>
<rect x="52" y="36" width="4" height="4" fill="#FFDE9E"/>
<rect x="48" y="32" width="4" height="4" fill="#FFDE9E"/>
<rect x="44" y="32" width="4" height="4" fill="#FFDE9E"/>
<rect x="40" y="32" width="4" height="4" fill="#FFDE9E"/>
<rect x="40" y="28" width="4" height="4" fill="#FFBC39"/>
<rect x="36" y="32" width="4" height="4" fill="#FFBC39"/>
<rect x="36" y="28" width="4" height="4" fill="#FF0E00"/>
<rect x="32" y="32" width="4" height="4" fill="#FFDE9E"/>
<rect x="48" y="36" width="4" height="4" fill="#FFBC39"/>
<rect x="44" y="36" width="4" height="4" fill="#FF0E00"/>
<rect x="40" y="36" width="4" height="4" fill="#FFDE9E"/>
<rect x="36" y="36" width="4" height="4" fill="#FFBC39"/>
<rect x="48" y="68" width="4" height="4" fill="#FFDE9E"/>
<rect x="52" y="64" width="4" height="4" fill="#FFDE9E"/>
<rect x="56" y="64" width="4" height="4" fill="#FFBC39"/>
<rect x="56" y="60" width="4" height="4" fill="#FFBC39"/>
<rect x="88" y="72" width="4" height="4" fill="#380000"/>
<rect x="92" y="72" width="4" height="4" fill="#BE0000"/>
<rect x="92" y="68" width="4" height="4" fill="#5B0000"/>
<rect x="92" y="64" width="4" height="4" fill="#380000"/>
<rect x="92" y="60" width="4" height="4" fill="#5B0000"/>
<rect x="96" y="68" width="4" height="4" fill="#BE0000"/>
<rect x="96" y="64" width="4" height="4" fill="#5B0000"/>
<rect x="100" y="64" width="4" height="4" fill="#BE0000"/>
<rect x="96" y="60" width="4" height="4" fill="#5B0000"/>
<rect x="96" y="56" width="4" height="4" fill="#380000"/>
<rect x="100" y="56" width="4" height="4" fill="#BE0000"/>
<rect x="100" y="60" width="4" height="4" fill="#BE0000"/>
<rect x="84" y="60" width="4" height="4" fill="#7F871A"/>
<rect x="80" y="56" width="4" height="4" fill="#CF1308"/>
<rect x="84" y="56" width="4" height="4" fill="#7F871A"/>
<rect x="80" y="60" width="4" height="4" fill="#E7D754"/>
<rect x="80" y="64" width="4" height="4" fill="#E7D754"/>
<rect x="76" y="64" width="4" height="4" fill="#FDE667"/>
<rect x="88" y="60" width="4" height="4" fill="#7F871A"/>
<rect x="80" y="72" width="4" height="4" fill="#FDA667"/>
<rect x="72" y="80" width="4" height="4" fill="#FDA667"/>
<rect x="68" y="80" width="4" height="4" fill="#380000"/>
<rect x="64" y="80" width="4" height="4" fill="#681901"/>
<rect x="64" y="68" width="4" height="4" fill="#380000"/>
<rect x="68" y="68" width="4" height="4" fill="#681901"/>
<rect x="72" y="64" width="4" height="4" fill="#681901"/>
<rect x="76" y="60" width="4" height="4" fill="#380000"/>
<rect x="76" y="56" width="4" height="4" fill="#681901"/>
<rect x="72" y="56" width="4" height="4" fill="#380000"/>
<rect x="48" y="44" width="4" height="4" fill="#380000"/>
<rect x="72" y="60" width="4" height="4" fill="#681901"/>
<rect x="68" y="64" width="4" height="4" fill="#380000"/>
<rect x="60" y="72" width="4" height="4" fill="#681901"/>
<rect x="60" y="80" width="4" height="4" fill="#FC9F06"/>
<rect x="60" y="76" width="4" height="4" fill="#EA8727"/>
<rect x="56" y="80" width="4" height="4" fill="#D63D06"/>
<rect x="56" y="76" width="4" height="4" fill="#EA8727"/>
<rect x="52" y="80" width="4" height="4" fill="#FC9F06"/>
<rect x="48" y="80" width="4" height="4" fill="#FBD76B"/>
<rect x="44" y="80" width="4" height="4" fill="#FC9F06"/>
<rect x="40" y="80" width="4" height="4" fill="#FBD76B"/>
<rect x="36" y="76" width="4" height="4" fill="#D63D06"/>
<rect x="32" y="76" width="4" height="4" fill="#FBD76B"/>
<rect x="28" y="72" width="4" height="4" fill="#FC9F06"/>
<rect x="24" y="72" width="4" height="4" fill="#D63D06"/>
<rect x="24" y="68" width="4" height="4" fill="#FF0E00"/>
<rect x="24" y="64" width="4" height="4" fill="#FC9F06"/>
<rect x="24" y="60" width="4" height="4" fill="#CF1308"/>
<rect x="28" y="68" width="4" height="4" fill="#FC9F06"/>
<rect x="28" y="64" width="4" height="4" fill="#D63D06"/>
<rect x="28" y="60" width="4" height="4" fill="#EA8727"/>
<rect x="32" y="72" width="4" height="4" fill="#FC9F06"/>
<rect x="36" y="72" width="4" height="4" fill="#FBD76B"/>
<rect x="36" y="68" width="4" height="4" fill="#FC9F06"/>
<rect x="40" y="76" width="4" height="4" fill="#FC9F06"/>
<rect x="40" y="72" width="4" height="4" fill="#FC9F06"/>
<rect x="40" y="68" width="4" height="4" fill="#EA8727"/>
<rect x="32" y="68" width="4" height="4" fill="#FF0E00"/>
<rect x="32" y="64" width="4" height="4" fill="#D63D06"/>
<rect x="36" y="64" width="4" height="4" fill="#CF1308"/>
<rect x="40" y="64" width="4" height="4" fill="#CF1308"/>
<rect x="44" y="60" width="4" height="4" fill="#CF1308"/>
<rect x="48" y="56" width="4" height="4" fill="#CF1308"/>
<rect x="48" y="52" width="4" height="4" fill="#CF1308"/>
<rect x="48" y="48" width="4" height="4" fill="#CF1308"/>
<rect x="44" y="44" width="4" height="4" fill="#CF1308"/>
<rect x="40" y="40" width="4" height="4" fill="#CF1308"/>
<rect x="36" y="40" width="4" height="4" fill="#CF1308"/>
<rect x="32" y="40" width="4" height="4" fill="#CF1308"/>
<rect x="28" y="44" width="4" height="4" fill="#CF1308"/>
<rect x="24" y="48" width="4" height="4" fill="#CF1308"/>
<rect x="24" y="52" width="4" height="4" fill="#CF1308"/>
<rect x="24" y="56" width="4" height="4" fill="#CF1308"/>
<rect x="32" y="60" width="4" height="4" fill="#FB911F"/>
<rect x="28" y="56" width="4" height="4" fill="#FF6B00"/>
<rect x="28" y="52" width="4" height="4" fill="#FB911F"/>
<rect x="28" y="48" width="4" height="4" fill="#FB911F"/>
<rect x="32" y="44" width="4" height="4" fill="#FF6B00"/>
<rect x="36" y="44" width="4" height="4" fill="#FB911F"/>
<rect x="40" y="44" width="4" height="4" fill="#FB911F"/>
<rect x="44" y="48" width="4" height="4" fill="#FF6B00"/>
<rect x="44" y="52" width="4" height="4" fill="#FF0E00"/>
<rect x="44" y="56" width="4" height="4" fill="#FF6B00"/>
<rect x="40" y="60" width="4" height="4" fill="#FF6B00"/>
<rect x="36" y="60" width="4" height="4" fill="#FB911F"/>
<rect x="36" y="56" width="4" height="4" fill="#FB911F"/>
<rect x="32" y="56" width="4" height="4" fill="#380000"/>
<rect x="36" y="52" width="4" height="4" fill="#450102"/>
<rect x="32" y="48" width="4" height="4" fill="#450102"/>
<rect x="40" y="48" width="4" height="4" fill="#450102"/>
<rect x="40" y="56" width="4" height="4" fill="#450102"/>
<rect x="40" y="52" width="4" height="4" fill="#FB911F"/>
<rect x="36" y="48" width="4" height="4" fill="#FB911F"/>
<rect x="32" y="52" width="4" height="4" fill="#FF6B00"/>
<rect x="44" y="76" width="4" height="4" fill="#FF0E00"/>
<rect x="44" y="72" width="4" height="4" fill="#EA8727"/>
<rect x="44" y="68" width="4" height="4" fill="#5C9400"/>
<rect x="44" y="64" width="4" height="4" fill="#5C9400"/>
<rect x="48" y="64" width="4" height="4" fill="#FF0E00"/>
<rect x="48" y="60" width="4" height="4" fill="#5C9400"/>
<rect x="52" y="60" width="4" height="4" fill="#5C9400"/>
<rect x="56" y="56" width="4" height="4" fill="#5C9400"/>
<rect x="52" y="56" width="4" height="4" fill="#681901"/>
<rect x="56" y="52" width="4" height="4" fill="#681901"/>
<rect x="56" y="36" width="4" height="4" fill="#681901"/>
<rect x="52" y="52" width="4" height="4" fill="#380000"/>
<rect x="52" y="68" width="4" height="4" fill="#5C9400"/>
<rect x="56" y="68" width="4" height="4" fill="#5C9400"/>
<rect x="56" y="72" width="4" height="4" fill="#5C9400"/>
<rect x="60" y="68" width="4" height="4" fill="#5C9400"/>
<rect x="60" y="64" width="4" height="4" fill="#5C9400"/>
<rect x="64" y="64" width="4" height="4" fill="#FF0E00"/>
<rect x="68" y="60" width="4" height="4" fill="#FFCC68"/>
<rect x="68" y="56" width="4" height="4" fill="#FFCC68"/>
<rect x="64" y="52" width="4" height="4" fill="#FFE0A3"/>
<rect x="64" y="56" width="4" height="4" fill="#FFE0A3"/>
<rect x="60" y="48" width="4" height="4" fill="#FFE0A3"/>
<rect x="56" y="48" width="4" height="4" fill="#FFCC68"/>
<rect x="56" y="44" width="4" height="4" fill="#FFCC68"/>
<rect x="52" y="48" width="4" height="4" fill="#FF0E00"/>
<rect x="52" y="44" width="4" height="4" fill="#FFBC39"/>
<rect x="64" y="60" width="4" height="4" fill="#FF0E00"/>
<rect x="60" y="60" width="4" height="4" fill="#FFCC68"/>
<rect x="60" y="56" width="4" height="4" fill="#FFE0A3"/>
<rect x="60" y="52" width="4" height="4" fill="#FF0E00"/>
<rect x="56" y="40" width="4" height="4" fill="#FF0E00"/>
<rect x="48" y="76" width="4" height="4" fill="#FF0E00"/>
<rect x="48" y="72" width="4" height="4" fill="#EA8727"/>
<rect x="52" y="76" width="4" height="4" fill="#EA8727"/>
<rect x="52" y="72" width="4" height="4" fill="#D63D06"/>
<rect x="20" y="68" width="4" height="4" fill="#D63D06"/>
<rect x="20" y="64" width="4" height="4" fill="#FC9F06"/>
<rect x="20" y="60" width="4" height="4" fill="#D63D06"/>
<rect x="72" y="76" width="4" height="4" fill="#FDE667"/>
<rect x="72" y="72" width="4" height="4" fill="#CF1308"/>
<rect x="68" y="72" width="4" height="4" fill="#FDE667"/>
<rect x="72" y="68" width="4" height="4" fill="#FDE667"/>
<rect x="68" y="76" width="4" height="4" fill="#FDE667"/>
<rect x="64" y="76" width="4" height="4" fill="#FFBC39"/>
<rect x="64" y="72" width="4" height="4" fill="#FFBC39"/>
<rect x="80" y="80" width="4" height="4" fill="#636363"/>
<rect x="84" y="80" width="4" height="4" fill="#636363"/>
<rect x="84" y="76" width="4" height="4" fill="#3D3D3D"/>
<rect x="80" y="76" width="4" height="4" fill="#3D3D3D"/>
<rect x="88" y="76" width="4" height="4" fill="#3D3D3D"/>
<rect x="92" y="76" width="4" height="4" fill="#3D3D3D"/>
<rect x="96" y="72" width="4" height="4" fill="#3D3D3D"/>
<rect x="100" y="68" width="4" height="4" fill="#3D3D3D"/>
<rect x="104" y="64" width="4" height="4" fill="#3D3D3D"/>
<rect x="104" y="60" width="4" height="4" fill="#636363"/>
<rect x="104" y="56" width="4" height="4" fill="#636363"/>
<rect x="104" y="52" width="4" height="4" fill="#636363"/>
<rect x="104" y="48" width="4" height="4" fill="#636363"/>
<rect x="100" y="44" width="4" height="4" fill="#636363"/>
<rect x="100" y="40" width="4" height="4" fill="#636363"/>
<rect x="96" y="36" width="4" height="4" fill="#636363"/>
<rect x="92" y="36" width="4" height="4" fill="#636363"/>
<rect x="88" y="36" width="4" height="4" fill="#3D3D3D"/>
<rect x="84" y="32" width="4" height="4" fill="#636363"/>
<rect x="80" y="32" width="4" height="4" fill="#3D3D3D"/>
<rect x="80" y="36" width="4" height="4" fill="#FF6B00"/>
<rect x="76" y="32" width="4" height="4" fill="#FF6B00"/>
<rect x="72" y="32" width="4" height="4" fill="#FB911F"/>
<rect x="68" y="32" width="4" height="4" fill="#FFA800"/>
<rect x="64" y="32" width="4" height="4" fill="#FDE667"/>
<rect x="100" y="52" width="4" height="4" fill="#FDA667"/>
<rect x="96" y="52" width="4" height="4" fill="#FDE667"/>
<rect x="92" y="48" width="4" height="4" fill="#FDE667"/>
<rect x="80" y="52" width="4" height="4" fill="#FC9F06"/>
<rect x="84" y="52" width="4" height="4" fill="#FC9F06"/>
<rect x="88" y="48" width="4" height="4" fill="#FC9F06"/>
<rect x="88" y="52" width="4" height="4" fill="#FC9F06"/>
<rect x="92" y="52" width="4" height="4" fill="#FC9F06"/>
<rect x="88" y="56" width="4" height="4" fill="#FC9F06"/>
<rect x="92" y="56" width="4" height="4" fill="#FC9F06"/>
<rect x="96" y="48" width="4" height="4" fill="#CF1308"/>
<rect x="92" y="44" width="4" height="4" fill="#CF1308"/>
<rect x="92" y="40" width="4" height="4" fill="#E7D754"/>
<rect x="88" y="44" width="4" height="4" fill="#E7D754"/>
<rect x="84" y="44" width="4" height="4" fill="#7F871A"/>
<rect x="88" y="40" width="4" height="4" fill="#7F871A"/>
<rect x="100" y="48" width="4" height="4" fill="#FDA667"/>
<rect x="96" y="44" width="4" height="4" fill="#FDA667"/>
<rect x="64" y="28" width="4" height="4" fill="#E7D754"/>
<rect x="60" y="28" width="4" height="4" fill="#E7D754"/>
<rect x="60" y="32" width="4" height="4" fill="#7F871A"/>
<rect x="56" y="28" width="4" height="4" fill="#7F871A"/>
<rect x="56" y="32" width="4" height="4" fill="#FF0E00"/>
<rect x="52" y="32" width="4" height="4" fill="#7F871A"/>
<rect x="64" y="36" width="4" height="4" fill="#FFA800"/>
<rect x="60" y="36" width="4" height="4" fill="#CF1308"/>
<rect x="60" y="40" width="4" height="4" fill="#CF1308"/>
<rect x="60" y="44" width="4" height="4" fill="#CF1308"/>
<rect x="64" y="48" width="4" height="4" fill="#CF1308"/>
<rect x="68" y="52" width="4" height="4" fill="#CF1308"/>
<rect x="72" y="52" width="4" height="4" fill="#CF1308"/>
<rect x="76" y="52" width="4" height="4" fill="#CF1308"/>
<rect x="80" y="48" width="4" height="4" fill="#CF1308"/>
<rect x="84" y="48" width="4" height="4" fill="#CF1308"/>
<rect x="64" y="40" width="4" height="4" fill="#FB911F"/>
<rect x="64" y="44" width="4" height="4" fill="#FF6B00"/>
<rect x="68" y="48" width="4" height="4" fill="#FB911F"/>
<rect x="72" y="48" width="4" height="4" fill="#FF6B00"/>
<rect x="76" y="48" width="4" height="4" fill="#FF6B00"/>
<rect x="80" y="44" width="4" height="4" fill="#FF6B00"/>
<rect x="80" y="40" width="4" height="4" fill="#CF1308"/>
<rect x="76" y="40" width="4" height="4" fill="#FFA800"/>
<rect x="72" y="36" width="4" height="4" fill="#FB911F"/>
<rect x="68" y="36" width="4" height="4" fill="#450102"/>
<rect x="76" y="36" width="4" height="4" fill="#450102"/>
<rect x="72" y="40" width="4" height="4" fill="#450102"/>
<rect x="68" y="44" width="4" height="4" fill="#450102"/>
<rect x="76" y="44" width="4" height="4" fill="#450102"/>
<rect x="68" y="40" width="4" height="4" fill="#FB911F"/>
<rect x="72" y="44" width="4" height="4" fill="#CF1308"/>
<rect x="76" y="28" width="4" height="4" fill="#636363"/>
<rect x="72" y="28" width="4" height="4" fill="#3D3D3D"/>
<rect x="92" y="32" width="4" height="4" fill="#636363"/>
<rect x="88" y="32" width="4" height="4" fill="#636363"/>
<rect x="84" y="28" width="4" height="4" fill="#636363"/>
<rect x="80" y="28" width="4" height="4" fill="#636363"/>
<rect x="76" y="24" width="4" height="4" fill="#636363"/>
<rect x="72" y="24" width="4" height="4" fill="#636363"/>
<rect x="68" y="24" width="4" height="4" fill="#636363"/>
<rect x="64" y="24" width="4" height="4" fill="#636363"/>
<rect x="60" y="24" width="4" height="4" fill="#636363"/>
<rect x="56" y="24" width="4" height="4" fill="#636363"/>
<rect x="52" y="24" width="4" height="4" fill="#636363"/>
<rect x="48" y="24" width="4" height="4" fill="#636363"/>
<rect x="48" y="28" width="4" height="4" fill="#3D3D3D"/>
<rect x="44" y="28" width="4" height="4" fill="#3D3D3D"/>
<rect x="52" y="28" width="4" height="4" fill="#3D3D3D"/>
<rect x="44" y="24" width="4" height="4" fill="#636363"/>
<rect x="40" y="24" width="4" height="4" fill="#636363"/>
<rect x="32" y="28" width="4" height="4" fill="#636363"/>
<rect x="24" y="32" width="4" height="4" fill="#636363"/>
<rect x="24" y="36" width="4" height="4" fill="#636363"/>
<rect x="20" y="36" width="4" height="4" fill="#636363"/>
<rect x="20" y="40" width="4" height="4" fill="#636363"/>
<rect x="16" y="40" width="4" height="4" fill="#636363"/>
<rect x="16" y="44" width="4" height="4" fill="#636363"/>
<rect x="28" y="32" width="4" height="4" fill="#636363"/>
<rect x="96" y="40" width="4" height="4" fill="#636363"/>
<rect x="80" y="92" width="4" height="4" fill="black"/>
<rect x="84" y="92" width="4" height="4" fill="black"/>
<rect x="88" y="88" width="4" height="4" fill="black"/>
<rect x="92" y="88" width="4" height="4" fill="black"/>
<rect x="100" y="80" width="4" height="4" fill="black"/>
<rect x="96" y="84" width="4" height="4" fill="black"/>
<rect x="104" y="76" width="4" height="4" fill="black"/>
<rect width="4" height="4" transform="matrix(-1 0 0 1 112 56)" fill="black"/>
<rect width="4" height="4" transform="matrix(-1 0 0 1 12 56)" fill="black"/>
<rect width="4" height="4" transform="matrix(-1 0 0 1 112 60)" fill="black"/>
<rect width="4" height="4" transform="matrix(-1 0 0 1 12 60)" fill="black"/>
<rect width="4" height="4" transform="matrix(-1 0 0 1 112 64)" fill="black"/>
<rect width="4" height="4" transform="matrix(-1 0 0 1 12 64)" fill="black"/>
<rect x="108" y="48" width="4" height="4" fill="black"/>
<rect x="8" y="48" width="4" height="4" fill="black"/>
<rect x="108" y="52" width="4" height="4" fill="black"/>
<rect x="8" y="52" width="4" height="4" fill="black"/>
<rect x="108" y="68" width="4" height="4" fill="black"/>
<rect x="8" y="68" width="4" height="4" fill="black"/>
<rect x="108" y="72" width="4" height="4" fill="black"/>
<rect x="8" y="72" width="4" height="4" fill="black"/>
<rect width="4" height="4" transform="matrix(-1 0 0 1 24 32)" fill="black"/>
<rect width="4" height="4" transform="matrix(-1 0 0 1 28 28)" fill="black"/>
<rect width="4" height="4" transform="matrix(-1 0 0 1 36 24)" fill="black"/>
<rect width="4" height="4" transform="matrix(-1 0 0 1 44 20)" fill="black"/>
<rect width="4" height="4" transform="matrix(-1 0 0 1 52 20)" fill="black"/>
<rect width="4" height="4" transform="matrix(-1 0 0 1 60 20)" fill="black"/>
<rect width="4" height="4" transform="matrix(-1 0 0 1 68 20)" fill="black"/>
<rect width="4" height="4" transform="matrix(-1 0 0 1 76 20)" fill="black"/>
<rect width="4" height="4" transform="matrix(-1 0 0 1 84 24)" fill="black"/>
<rect width="4" height="4" transform="matrix(-1 0 0 1 32 28)" fill="black"/>
<rect width="4" height="4" transform="matrix(-1 0 0 1 40 24)" fill="black"/>
<rect width="4" height="4" transform="matrix(-1 0 0 1 48 20)" fill="black"/>
<rect width="4" height="4" transform="matrix(-1 0 0 1 56 20)" fill="black"/>
<rect width="4" height="4" transform="matrix(-1 0 0 1 64 20)" fill="black"/>
<rect width="4" height="4" transform="matrix(-1 0 0 1 72 20)" fill="black"/>
<rect width="4" height="4" transform="matrix(-1 0 0 1 80 20)" fill="black"/>
<rect width="4" height="4" transform="matrix(-1 0 0 1 88 24)" fill="black"/>
<rect width="4" height="4" transform="matrix(-1 0 0 1 96 28)" fill="black"/>
<rect width="4" height="4" transform="matrix(-1 0 0 1 92 28)" fill="black"/>
<rect width="4" height="4" transform="matrix(-1 0 0 1 100 32)" fill="black"/>
<rect width="4" height="4" transform="matrix(-1 0 0 1 104 36)" fill="black"/>
<rect width="4" height="4" transform="matrix(-1 0 0 1 108 40)" fill="black"/>
<rect width="4" height="4" transform="matrix(-1 0 0 1 108 44)" fill="black"/>
<rect width="4" height="4" transform="matrix(-1 0 0 1 20 36)" fill="black"/>
<rect width="4" height="4" transform="matrix(-1 0 0 1 16 40)" fill="black"/>
<rect width="4" height="4" transform="matrix(-1 0 0 1 16 44)" fill="black"/>
<rect x="84" y="16" width="4" height="4" fill="#FFCB29"/>
<rect width="4" height="4" transform="matrix(-1 0 0 1 36 16)" fill="#FFCB29"/>
<rect width="4" height="4" transform="matrix(-1 0 0 1 40 12)" fill="#FFCB29"/>
<rect width="4" height="4" transform="matrix(-1 0 0 1 44 12)" fill="#FFCB29"/>
<rect width="4" height="4" transform="matrix(-1 0 0 1 48 12)" fill="#FFCB29"/>
<rect width="4" height="4" transform="matrix(-1 0 0 1 52 12)" fill="#FFCB29"/>
<rect width="4" height="4" transform="matrix(-1 0 0 1 56 12)" fill="#FFCB29"/>
<rect width="4" height="4" transform="matrix(-1 0 0 1 60 12)" fill="#FFCB29"/>
<rect width="4" height="4" transform="matrix(-1 0 0 1 64 12)" fill="#FFCB29"/>
<rect width="4" height="4" transform="matrix(-1 0 0 1 68 12)" fill="#FFCB29"/>
<rect width="4" height="4" transform="matrix(-1 0 0 1 72 12)" fill="#FFCB29"/>
<rect width="4" height="4" transform="matrix(-1 0 0 1 76 12)" fill="#FFCB29"/>
<rect width="4" height="4" transform="matrix(-1 0 0 1 80 12)" fill="#FFCB29"/>
<rect width="4" height="4" transform="matrix(-1 0 0 1 84 12)" fill="#FFCB29"/>
<rect x="92" y="20" width="4" height="4" fill="#FFCB29"/>
<rect width="4" height="4" transform="matrix(-1 0 0 1 28 20)" fill="#FFCB29"/>
<rect x="100" y="24" width="4" height="4" fill="#FFCB29"/>
<rect width="4" height="4" transform="matrix(-1 0 0 1 20 24)" fill="#FFCB29"/>
<rect x="104" y="28" width="4" height="4" fill="#FFCB29"/>
<rect width="4" height="4" transform="matrix(-1 0 0 1 16 28)" fill="#FFCB29"/>
<rect x="108" y="32" width="4" height="4" fill="#FFCB29"/>
<rect width="4" height="4" transform="matrix(-1 0 0 1 12 32)" fill="#FFCB29"/>
<rect x="112" y="40" width="4" height="4" fill="#FFCB29"/>
<rect width="4" height="4" transform="matrix(-1 0 0 1 8 40)" fill="#FFCB29"/>
<rect x="112" y="36" width="4" height="4" fill="#FFCB29"/>
<rect width="4" height="4" transform="matrix(-1 0 0 1 8 36)" fill="#FFCB29"/>
<rect x="116" y="44" width="4" height="4" fill="#FFCB29"/>
<rect x="116" y="48" width="4" height="4" fill="#FFCB29"/>
<rect x="116" y="52" width="4" height="4" fill="#FFCB29"/>
<rect x="116" y="56" width="4" height="4" fill="#FFCB29"/>
<rect x="116" y="60" width="4" height="4" fill="#FFCB29"/>
<rect x="116" y="64" width="4" height="4" fill="#FFCB29"/>
<rect x="116" y="68" width="4" height="4" fill="#FFCB29"/>
<rect x="116" y="72" width="4" height="4" fill="#FFCB29"/>
<rect x="116" y="76" width="4" height="4" fill="#FFCB29"/>
<rect x="112" y="80" width="4" height="4" fill="#FFCB29"/>
<rect x="108" y="84" width="4" height="4" fill="#FFCB29"/>
<rect x="100" y="92" width="4" height="4" fill="#FFCB29"/>
<rect x="104" y="88" width="4" height="4" fill="#FFCB29"/>
<rect x="96" y="96" width="4" height="4" fill="#FFCB29"/>
<rect x="88" y="100" width="4" height="4" fill="#FFCB29"/>
<rect x="80" y="104" width="4" height="4" fill="#FFCB29"/>
<rect x="68" y="104" width="4" height="4" fill="#FFCB29"/>
<rect x="56" y="104" width="4" height="4" fill="#FFCB29"/>
<rect x="44" y="104" width="4" height="4" fill="#FFCB29"/>
<rect x="92" y="96" width="4" height="4" fill="#FFCB29"/>
<rect x="84" y="100" width="4" height="4" fill="#FFCB29"/>
<rect x="76" y="104" width="4" height="4" fill="#FFCB29"/>
<rect x="64" y="104" width="4" height="4" fill="#FFCB29"/>
<rect x="52" y="104" width="4" height="4" fill="#FFCB29"/>
<rect x="40" y="104" width="4" height="4" fill="#FFCB29"/>
<rect x="32" y="100" width="4" height="4" fill="#FFCB29"/>
<rect x="24" y="96" width="4" height="4" fill="#FFCB29"/>
<rect x="72" y="104" width="4" height="4" fill="#FFCB29"/>
<rect x="60" y="104" width="4" height="4" fill="#FFCB29"/>
<rect x="48" y="104" width="4" height="4" fill="#FFCB29"/>
<rect x="36" y="104" width="4" height="4" fill="#FFCB29"/>
<rect x="28" y="100" width="4" height="4" fill="#FFCB29"/>
<rect x="20" y="96" width="4" height="4" fill="#FFCB29"/>
<rect x="16" y="92" width="4" height="4" fill="#FFCB29"/>
<rect x="12" y="88" width="4" height="4" fill="#FFCB29"/>
<rect x="8" y="84" width="4" height="4" fill="#FFCB29"/>
<rect y="76" width="4" height="4" fill="#FFCB29"/>
<rect x="4" y="80" width="4" height="4" fill="#FFCB29"/>
<rect y="72" width="4" height="4" fill="#FFCB29"/>
<rect y="68" width="4" height="4" fill="#FFCB29"/>
<rect y="64" width="4" height="4" fill="#FFCB29"/>
<rect y="60" width="4" height="4" fill="#FFCB29"/>
<rect y="56" width="4" height="4" fill="#FFCB29"/>
<rect y="52" width="4" height="4" fill="#FFCB29"/>
<rect y="48" width="4" height="4" fill="#FFCB29"/>
<rect y="44" width="4" height="4" fill="#FFCB29"/>
<rect x="88" y="16" width="4" height="4" fill="#FFCB29"/>
<rect width="4" height="4" transform="matrix(-1 0 0 1 32 16)" fill="#FFCB29"/>
<rect x="96" y="20" width="4" height="4" fill="#FFCB29"/>
<rect width="4" height="4" transform="matrix(-1 0 0 1 24 20)" fill="#FFCB29"/>
<rect x="36" y="16" width="4" height="4" fill="white"/>
<rect width="4" height="4" transform="matrix(-1 0 0 1 84 16)" fill="white"/>
<rect x="28" y="20" width="4" height="4" fill="white"/>
<rect width="4" height="4" transform="matrix(-1 0 0 1 92 20)" fill="white"/>
<rect x="20" y="24" width="4" height="4" fill="white"/>
<rect width="4" height="4" transform="matrix(-1 0 0 1 100 24)" fill="white"/>
<rect x="40" y="16" width="4" height="4" fill="white"/>
<rect width="4" height="4" transform="matrix(-1 0 0 1 80 16)" fill="white"/>
<rect x="32" y="20" width="4" height="4" fill="white"/>
<rect width="4" height="4" transform="matrix(-1 0 0 1 88 20)" fill="white"/>
<rect x="24" y="24" width="4" height="4" fill="white"/>
<rect width="4" height="4" transform="matrix(-1 0 0 1 96 24)" fill="white"/>
<rect x="16" y="28" width="4" height="4" fill="white"/>
<rect width="4" height="4" transform="matrix(-1 0 0 1 104 28)" fill="white"/>
<rect x="12" y="32" width="4" height="4" fill="white"/>
<rect width="4" height="4" transform="matrix(-1 0 0 1 108 32)" fill="white"/>
<rect x="8" y="36" width="4" height="4" fill="white"/>
<rect width="4" height="4" transform="matrix(-1 0 0 1 112 36)" fill="white"/>
<rect x="8" y="40" width="4" height="4" fill="white"/>
<rect width="4" height="4" transform="matrix(-1 0 0 1 112 40)" fill="white"/>
<rect x="8" y="44" width="4" height="4" fill="white"/>
<rect width="4" height="4" transform="matrix(-1 0 0 1 112 44)" fill="white"/>
<rect x="4" y="44" width="4" height="4" fill="white"/>
<rect width="4" height="4" transform="matrix(-1 0 0 1 116 44)" fill="white"/>
<rect x="4" y="48" width="4" height="4" fill="white"/>
<rect width="4" height="4" transform="matrix(-1 0 0 1 116 48)" fill="white"/>
<rect x="4" y="52" width="4" height="4" fill="white"/>
<rect width="4" height="4" transform="matrix(-1 0 0 1 116 52)" fill="white"/>
<rect x="4" y="56" width="4" height="4" fill="white"/>
<rect width="4" height="4" transform="matrix(-1 0 0 1 116 56)" fill="white"/>
<rect x="4" y="60" width="4" height="4" fill="white"/>
<rect width="4" height="4" transform="matrix(-1 0 0 1 116 60)" fill="white"/>
<rect x="4" y="64" width="4" height="4" fill="white"/>
<rect width="4" height="4" transform="matrix(-1 0 0 1 116 64)" fill="white"/>
<rect x="4" y="68" width="4" height="4" fill="white"/>
<rect width="4" height="4" transform="matrix(-1 0 0 1 116 68)" fill="white"/>
<rect x="4" y="72" width="4" height="4" fill="white"/>
<rect width="4" height="4" transform="matrix(-1 0 0 1 116 72)" fill="white"/>
<rect x="4" y="76" width="4" height="4" fill="white"/>
<rect width="4" height="4" transform="matrix(-1 0 0 1 116 76)" fill="white"/>
<rect x="8" y="80" width="4" height="4" fill="white"/>
<rect width="4" height="4" transform="matrix(-1 0 0 1 112 80)" fill="white"/>
<rect x="12" y="84" width="4" height="4" fill="white"/>
<rect width="4" height="4" transform="matrix(-1 0 0 1 108 84)" fill="white"/>
<rect x="16" y="88" width="4" height="4" fill="white"/>
<rect width="4" height="4" transform="matrix(-1 0 0 1 104 88)" fill="white"/>
<rect x="20" y="92" width="4" height="4" fill="white"/>
<rect width="4" height="4" transform="matrix(-1 0 0 1 100 92)" fill="white"/>
<rect x="28" y="96" width="4" height="4" fill="white"/>
<rect width="4" height="4" transform="matrix(-1 0 0 1 92 96)" fill="white"/>
<rect x="36" y="100" width="4" height="4" fill="white"/>
<rect width="4" height="4" transform="matrix(-1 0 0 1 84 100)" fill="white"/>
<rect x="48" y="100" width="4" height="4" fill="white"/>
<rect width="4" height="4" transform="matrix(-1 0 0 1 72 100)" fill="white"/>
<rect x="8" y="76" width="4" height="4" fill="white"/>
<rect width="4" height="4" transform="matrix(-1 0 0 1 112 76)" fill="white"/>
<rect x="12" y="80" width="4" height="4" fill="white"/>
<rect width="4" height="4" transform="matrix(-1 0 0 1 108 80)" fill="white"/>
<rect x="16" y="84" width="4" height="4" fill="white"/>
<rect width="4" height="4" transform="matrix(-1 0 0 1 104 84)" fill="white"/>
<rect x="20" y="88" width="4" height="4" fill="white"/>
<rect width="4" height="4" transform="matrix(-1 0 0 1 100 88)" fill="white"/>
<rect x="24" y="92" width="4" height="4" fill="white"/>
<rect width="4" height="4" transform="matrix(-1 0 0 1 96 92)" fill="white"/>
<rect x="32" y="96" width="4" height="4" fill="white"/>
<rect width="4" height="4" transform="matrix(-1 0 0 1 88 96)" fill="white"/>
<rect x="40" y="100" width="4" height="4" fill="white"/>
<rect width="4" height="4" transform="matrix(-1 0 0 1 80 100)" fill="white"/>
<rect x="52" y="100" width="4" height="4" fill="white"/>
<rect width="4" height="4" transform="matrix(-1 0 0 1 68 100)" fill="white"/>
<rect x="28" y="92" width="4" height="4" fill="white"/>
<rect width="4" height="4" transform="matrix(-1 0 0 1 92 92)" fill="white"/>
<rect x="36" y="96" width="4" height="4" fill="white"/>
<rect width="4" height="4" transform="matrix(-1 0 0 1 84 96)" fill="white"/>
<rect x="44" y="100" width="4" height="4" fill="white"/>
<rect width="4" height="4" transform="matrix(-1 0 0 1 76 100)" fill="white"/>
<rect x="56" y="100" width="4" height="4" fill="white"/>
<rect width="4" height="4" transform="matrix(-1 0 0 1 64 100)" fill="white"/>
<rect x="44" y="16" width="4" height="4" fill="white"/>
<rect width="4" height="4" transform="matrix(-1 0 0 1 76 16)" fill="white"/>
<rect x="36" y="20" width="4" height="4" fill="white"/>
<rect width="4" height="4" transform="matrix(-1 0 0 1 84 20)" fill="white"/>
<rect x="28" y="24" width="4" height="4" fill="white"/>
<rect width="4" height="4" transform="matrix(-1 0 0 1 92 24)" fill="white"/>
<rect x="20" y="28" width="4" height="4" fill="white"/>
<rect width="4" height="4" transform="matrix(-1 0 0 1 100 28)" fill="white"/>
<rect x="16" y="32" width="4" height="4" fill="white"/>
<rect width="4" height="4" transform="matrix(-1 0 0 1 104 32)" fill="white"/>
<rect x="12" y="36" width="4" height="4" fill="white"/>
<rect width="4" height="4" transform="matrix(-1 0 0 1 108 36)" fill="white"/>
<rect x="48" y="16" width="4" height="4" fill="white"/>
<rect width="4" height="4" transform="matrix(-1 0 0 1 72 16)" fill="white"/>
<rect x="52" y="16" width="4" height="4" fill="white"/>
<rect width="4" height="4" transform="matrix(-1 0 0 1 68 16)" fill="white"/>
<rect x="56" y="16" width="4" height="4" fill="white"/>
<rect width="4" height="4" transform="matrix(-1 0 0 1 64 16)" fill="white"/>
</svg>
