<svg width="160" height="160" viewBox="0 0 160 160" fill="none" xmlns="http://www.w3.org/2000/svg">
<rect width="5.33333" height="5.33333" transform="matrix(-1 0 0 1 80 128)" fill="black"/>
<rect width="5.33333" height="5.33333" transform="matrix(-1 0 0 1 74.6667 128)" fill="black"/>
<rect width="5.33333" height="5.33333" transform="matrix(-1 0 0 1 69.3333 128)" fill="black"/>
<rect width="5.33333" height="5.33333" transform="matrix(-1 0 0 1 64 128)" fill="black"/>
<rect width="5.33333" height="5.33333" transform="matrix(-1 0 0 1 58.6667 128)" fill="black"/>
<rect width="5.33333" height="5.33333" transform="matrix(-1 0 0 1 53.3333 122.667)" fill="black"/>
<rect width="5.33333" height="5.33333" transform="matrix(-1 0 0 1 48 122.667)" fill="black"/>
<rect width="5.33333" height="5.33333" transform="matrix(-1 0 0 1 42.6667 117.333)" fill="black"/>
<rect width="5.33333" height="5.33333" transform="matrix(-1 0 0 1 37.3333 117.333)" fill="black"/>
<rect width="5.33333" height="5.33333" transform="matrix(-1 0 0 1 26.6667 106.667)" fill="black"/>
<rect width="5.33333" height="5.33333" transform="matrix(-1 0 0 1 32 112)" fill="black"/>
<rect width="5.33333" height="5.33333" transform="matrix(-1 0 0 1 21.3333 101.333)" fill="black"/>
<rect x="80" y="128" width="5.33333" height="5.33333" fill="black"/>
<rect x="85.3333" y="128" width="5.33333" height="5.33333" fill="black"/>
<rect x="90.6667" y="128" width="5.33333" height="5.33333" fill="black"/>
<rect x="96" y="128" width="5.33333" height="5.33333" fill="black"/>
<rect x="101.333" y="128" width="5.33333" height="5.33333" fill="black"/>
<rect x="106.667" y="122.667" width="5.33333" height="5.33333" fill="black"/>
<rect x="112" y="122.667" width="5.33333" height="5.33333" fill="black"/>
<rect x="117.333" y="117.333" width="5.33333" height="5.33333" fill="black"/>
<rect x="122.667" y="117.333" width="5.33333" height="5.33333" fill="black"/>
<rect x="133.333" y="106.667" width="5.33333" height="5.33333" fill="black"/>
<rect x="128" y="112" width="5.33333" height="5.33333" fill="black"/>
<rect x="138.667" y="101.333" width="5.33333" height="5.33333" fill="black"/>
<rect width="5.33333" height="5.33333" transform="matrix(-1 0 0 1 149.333 74.6666)" fill="black"/>
<rect width="5.33333" height="5.33333" transform="matrix(-1 0 0 1 16 74.6666)" fill="black"/>
<rect width="5.33333" height="5.33333" transform="matrix(-1 0 0 1 149.333 80)" fill="black"/>
<rect width="5.33333" height="5.33333" transform="matrix(-1 0 0 1 16 80)" fill="black"/>
<rect width="5.33333" height="5.33333" transform="matrix(-1 0 0 1 149.333 85.3334)" fill="black"/>
<rect width="5.33333" height="5.33333" transform="matrix(-1 0 0 1 16 85.3334)" fill="black"/>
<rect x="144" y="64" width="5.33333" height="5.33333" fill="black"/>
<rect x="10.6667" y="64" width="5.33333" height="5.33333" fill="black"/>
<rect x="5.33331" y="64" width="5.33333" height="5.33333" fill="white"/>
<rect y="64" width="5.33333" height="5.33333" fill="#FFCB29"/>
<rect x="5.33331" y="58.6666" width="5.33333" height="5.33333" fill="white"/>
<rect y="58.6666" width="5.33333" height="5.33333" fill="#FFCB29"/>
<rect x="10.6667" y="58.6666" width="5.33333" height="5.33333" fill="white"/>
<rect x="10.6667" y="53.3334" width="5.33333" height="5.33333" fill="white"/>
<rect x="5.33331" y="53.3334" width="5.33333" height="5.33333" fill="#FFCB29"/>
<rect x="10.6667" y="48" width="5.33333" height="5.33333" fill="white"/>
<rect x="5.33331" y="48" width="5.33333" height="5.33333" fill="#FFCB29"/>
<rect x="16" y="48" width="5.33333" height="5.33333" fill="white"/>
<rect x="16" y="42.6666" width="5.33333" height="5.33333" fill="white"/>
<rect x="16" y="37.3334" width="5.33333" height="5.33333" fill="#FFCB29"/>
<rect x="10.6667" y="42.6666" width="5.33333" height="5.33333" fill="#FFCB29"/>
<rect x="21.3333" y="42.6666" width="5.33333" height="5.33333" fill="white"/>
<rect x="26.6667" y="42.6666" width="5.33333" height="5.33333" fill="white"/>
<rect x="26.6667" y="37.3334" width="5.33333" height="5.33333" fill="white"/>
<rect x="21.3333" y="37.3334" width="5.33333" height="5.33333" fill="#FFCB29"/>
<rect x="26.6667" y="32" width="5.33333" height="5.33333" fill="white"/>
<rect x="21.3333" y="32" width="5.33333" height="5.33333" fill="#FFCB29"/>
<rect x="32" y="32" width="5.33333" height="5.33333" fill="white"/>
<rect x="32" y="26.6666" width="5.33333" height="5.33333" fill="white"/>
<rect x="26.6667" y="26.6666" width="5.33333" height="5.33333" fill="#FFCB29"/>
<rect x="37.3333" y="26.6666" width="5.33333" height="5.33333" fill="white"/>
<rect x="37.3333" y="21.3334" width="5.33333" height="5.33333" fill="white"/>
<rect x="32" y="21.3334" width="5.33333" height="5.33333" fill="#FFCB29"/>
<rect x="37.3333" y="16" width="5.33333" height="5.33333" fill="#FFCB29"/>
<rect x="42.6667" y="21.3334" width="5.33333" height="5.33333" fill="white"/>
<rect x="42.6667" y="16" width="5.33333" height="5.33333" fill="#FFCB29"/>
<rect x="48" y="21.3334" width="5.33333" height="5.33333" fill="white"/>
<rect x="48" y="16" width="5.33333" height="5.33333" fill="#FFCB29"/>
<rect x="53.3333" y="21.3334" width="5.33333" height="5.33333" fill="white"/>
<rect x="53.3333" y="16" width="5.33333" height="5.33333" fill="#FFCB29"/>
<rect x="58.6667" y="21.3334" width="5.33333" height="5.33333" fill="white"/>
<rect x="58.6667" y="16" width="5.33333" height="5.33333" fill="#FFCB29"/>
<rect x="64" y="21.3334" width="5.33333" height="5.33333" fill="white"/>
<rect x="64" y="16" width="5.33333" height="5.33333" fill="#FFCB29"/>
<rect x="69.3333" y="21.3334" width="5.33333" height="5.33333" fill="white"/>
<rect x="69.3333" y="16" width="5.33333" height="5.33333" fill="#FFCB29"/>
<rect x="74.6667" y="21.3334" width="5.33333" height="5.33333" fill="white"/>
<rect x="74.6667" y="16" width="5.33333" height="5.33333" fill="#FFCB29"/>
<rect x="80" y="21.3334" width="5.33333" height="5.33333" fill="white"/>
<rect x="80" y="16" width="5.33333" height="5.33333" fill="#FFCB29"/>
<rect x="85.3333" y="26.6666" width="5.33333" height="5.33333" fill="white"/>
<rect x="85.3333" y="21.3334" width="5.33333" height="5.33333" fill="white"/>
<rect x="85.3333" y="16" width="5.33333" height="5.33333" fill="#FFCB29"/>
<rect x="90.6667" y="21.3334" width="5.33333" height="5.33333" fill="white"/>
<rect x="90.6667" y="16" width="5.33333" height="5.33333" fill="#FFCB29"/>
<rect x="96" y="21.3334" width="5.33333" height="5.33333" fill="white"/>
<rect x="96" y="16" width="5.33333" height="5.33333" fill="#FFCB29"/>
<rect x="101.333" y="21.3334" width="5.33333" height="5.33333" fill="white"/>
<rect x="101.333" y="16" width="5.33333" height="5.33333" fill="#FFCB29"/>
<rect x="106.667" y="21.3334" width="5.33333" height="5.33333" fill="white"/>
<rect x="106.667" y="16" width="5.33333" height="5.33333" fill="#FFCB29"/>
<rect x="112" y="21.3334" width="5.33333" height="5.33333" fill="white"/>
<rect x="112" y="16" width="5.33333" height="5.33333" fill="#FFCB29"/>
<rect x="117.333" y="21.3334" width="5.33333" height="5.33333" fill="white"/>
<rect x="117.333" y="16" width="5.33333" height="5.33333" fill="#FFCB29"/>
<rect x="122.667" y="21.3334" width="5.33333" height="5.33333" fill="#FFCB29"/>
<rect x="128" y="26.6666" width="5.33333" height="5.33333" fill="#FFCB29"/>
<rect x="133.333" y="32" width="5.33333" height="5.33333" fill="#FFCB29"/>
<rect x="133.333" y="37.3334" width="5.33333" height="5.33333" fill="#FFCB29"/>
<rect x="138.667" y="37.3334" width="5.33333" height="5.33333" fill="#FFCB29"/>
<rect x="144" y="42.6666" width="5.33333" height="5.33333" fill="#FFCB29"/>
<rect x="149.333" y="48" width="5.33333" height="5.33333" fill="#FFCB29"/>
<rect x="149.333" y="53.3334" width="5.33333" height="5.33333" fill="#FFCB29"/>
<rect x="117.333" y="26.6666" width="5.33333" height="5.33333" fill="white"/>
<rect x="122.667" y="26.6666" width="5.33333" height="5.33333" fill="white"/>
<rect x="122.667" y="32" width="5.33333" height="5.33333" fill="white"/>
<rect x="128" y="32" width="5.33333" height="5.33333" fill="white"/>
<rect x="128" y="37.3334" width="5.33333" height="5.33333" fill="white"/>
<rect x="128" y="42.6666" width="5.33333" height="5.33333" fill="white"/>
<rect x="133.333" y="42.6666" width="5.33333" height="5.33333" fill="white"/>
<rect x="138.667" y="42.6666" width="5.33333" height="5.33333" fill="white"/>
<rect x="138.667" y="48" width="5.33333" height="5.33333" fill="white"/>
<rect x="144" y="48" width="5.33333" height="5.33333" fill="white"/>
<rect x="144" y="53.3334" width="5.33333" height="5.33333" fill="white"/>
<rect x="144" y="58.6666" width="5.33333" height="5.33333" fill="white"/>
<rect x="149.333" y="58.6666" width="5.33333" height="5.33333" fill="white"/>
<rect x="154.667" y="58.6666" width="5.33333" height="5.33333" fill="#FFCB29"/>
<rect x="149.333" y="64" width="5.33333" height="5.33333" fill="white"/>
<rect x="154.667" y="64" width="5.33333" height="5.33333" fill="#FFCB29"/>
<rect x="149.333" y="69.3334" width="5.33333" height="5.33333" fill="white"/>
<rect x="154.667" y="69.3334" width="5.33333" height="5.33333" fill="#FFCB29"/>
<rect x="149.333" y="74.6666" width="5.33333" height="5.33333" fill="white"/>
<rect x="154.667" y="74.6666" width="5.33333" height="5.33333" fill="#FFCB29"/>
<rect x="149.333" y="80" width="5.33333" height="5.33333" fill="white"/>
<rect x="154.667" y="80" width="5.33333" height="5.33333" fill="#FFCB29"/>
<rect x="149.333" y="85.3334" width="5.33333" height="5.33333" fill="white"/>
<rect x="154.667" y="85.3334" width="5.33333" height="5.33333" fill="#FFCB29"/>
<rect x="149.333" y="90.6666" width="5.33333" height="5.33333" fill="white"/>
<rect x="154.667" y="90.6666" width="5.33333" height="5.33333" fill="#FFCB29"/>
<rect x="149.333" y="96" width="5.33333" height="5.33333" fill="white"/>
<rect x="154.667" y="96" width="5.33333" height="5.33333" fill="#FFCB29"/>
<rect x="149.333" y="101.333" width="5.33333" height="5.33333" fill="white"/>
<rect x="154.667" y="101.333" width="5.33333" height="5.33333" fill="#FFCB29"/>
<rect x="144" y="101.333" width="5.33333" height="5.33333" fill="white"/>
<rect x="144" y="106.667" width="5.33333" height="5.33333" fill="white"/>
<rect x="149.333" y="106.667" width="5.33333" height="5.33333" fill="#FFCB29"/>
<rect x="138.667" y="106.667" width="5.33333" height="5.33333" fill="white"/>
<rect x="138.667" y="112" width="5.33333" height="5.33333" fill="white"/>
<rect x="144" y="112" width="5.33333" height="5.33333" fill="#FFCB29"/>
<rect x="133.333" y="112" width="5.33333" height="5.33333" fill="white"/>
<rect x="133.333" y="117.333" width="5.33333" height="5.33333" fill="white"/>
<rect x="138.667" y="117.333" width="5.33333" height="5.33333" fill="#FFCB29"/>
<rect x="128" y="117.333" width="5.33333" height="5.33333" fill="white"/>
<rect x="128" y="122.667" width="5.33333" height="5.33333" fill="white"/>
<rect x="128" y="128" width="5.33333" height="5.33333" fill="#FFCB29"/>
<rect x="133.333" y="122.667" width="5.33333" height="5.33333" fill="#FFCB29"/>
<rect x="122.667" y="122.667" width="5.33333" height="5.33333" fill="white"/>
<rect x="117.333" y="122.667" width="5.33333" height="5.33333" fill="white"/>
<rect x="117.333" y="128" width="5.33333" height="5.33333" fill="white"/>
<rect x="117.333" y="133.333" width="5.33333" height="5.33333" fill="#FFCB29"/>
<rect x="122.667" y="128" width="5.33333" height="5.33333" fill="#FFCB29"/>
<rect x="112" y="128" width="5.33333" height="5.33333" fill="white"/>
<rect x="106.667" y="128" width="5.33333" height="5.33333" fill="white"/>
<rect x="106.667" y="133.333" width="5.33333" height="5.33333" fill="white"/>
<rect x="106.667" y="138.667" width="5.33333" height="5.33333" fill="#FFCB29"/>
<rect x="112" y="133.333" width="5.33333" height="5.33333" fill="#FFCB29"/>
<rect x="101.333" y="133.333" width="5.33333" height="5.33333" fill="white"/>
<rect x="101.333" y="138.667" width="5.33333" height="5.33333" fill="#FFCB29"/>
<rect x="96" y="133.333" width="5.33333" height="5.33333" fill="white"/>
<rect x="96" y="138.667" width="5.33333" height="5.33333" fill="#FFCB29"/>
<rect x="90.6667" y="133.333" width="5.33333" height="5.33333" fill="white"/>
<rect x="90.6667" y="138.667" width="5.33333" height="5.33333" fill="#FFCB29"/>
<rect x="85.3333" y="133.333" width="5.33333" height="5.33333" fill="white"/>
<rect x="85.3333" y="138.667" width="5.33333" height="5.33333" fill="#FFCB29"/>
<rect x="80" y="133.333" width="5.33333" height="5.33333" fill="white"/>
<rect x="80" y="138.667" width="5.33333" height="5.33333" fill="#FFCB29"/>
<rect x="74.6667" y="133.333" width="5.33333" height="5.33333" fill="white"/>
<rect x="74.6667" y="138.667" width="5.33333" height="5.33333" fill="#FFCB29"/>
<rect x="69.3333" y="133.333" width="5.33333" height="5.33333" fill="white"/>
<rect x="69.3333" y="138.667" width="5.33333" height="5.33333" fill="#FFCB29"/>
<rect x="64" y="133.333" width="5.33333" height="5.33333" fill="white"/>
<rect x="64" y="138.667" width="5.33333" height="5.33333" fill="#FFCB29"/>
<rect x="58.6667" y="133.333" width="5.33333" height="5.33333" fill="white"/>
<rect x="58.6667" y="138.667" width="5.33333" height="5.33333" fill="#FFCB29"/>
<rect x="53.3333" y="133.333" width="5.33333" height="5.33333" fill="white"/>
<rect x="53.3333" y="138.667" width="5.33333" height="5.33333" fill="#FFCB29"/>
<rect x="48" y="133.333" width="5.33333" height="5.33333" fill="white"/>
<rect x="48" y="138.667" width="5.33333" height="5.33333" fill="#FFCB29"/>
<rect x="48" y="128" width="5.33333" height="5.33333" fill="white"/>
<rect x="37.3333" y="122.667" width="5.33333" height="5.33333" fill="white"/>
<rect x="26.6667" y="117.333" width="5.33333" height="5.33333" fill="white"/>
<rect x="21.3333" y="112" width="5.33333" height="5.33333" fill="white"/>
<rect x="16" y="106.667" width="5.33333" height="5.33333" fill="white"/>
<rect x="10.6667" y="101.333" width="5.33333" height="5.33333" fill="white"/>
<rect x="42.6667" y="128" width="5.33333" height="5.33333" fill="white"/>
<rect x="42.6667" y="133.333" width="5.33333" height="5.33333" fill="#FFCB29"/>
<rect x="32" y="122.667" width="5.33333" height="5.33333" fill="white"/>
<rect x="32" y="128" width="5.33333" height="5.33333" fill="#FFCB29"/>
<rect x="21.3333" y="117.333" width="5.33333" height="5.33333" fill="white"/>
<rect x="21.3333" y="122.667" width="5.33333" height="5.33333" fill="#FFCB29"/>
<rect x="16" y="112" width="5.33333" height="5.33333" fill="white"/>
<rect x="16" y="117.333" width="5.33333" height="5.33333" fill="#FFCB29"/>
<rect x="10.6667" y="106.667" width="5.33333" height="5.33333" fill="white"/>
<rect x="10.6667" y="112" width="5.33333" height="5.33333" fill="#FFCB29"/>
<rect x="5.33331" y="101.333" width="5.33333" height="5.33333" fill="white"/>
<rect y="101.333" width="5.33333" height="5.33333" fill="#FFCB29"/>
<rect x="5.33331" y="106.667" width="5.33333" height="5.33333" fill="#FFCB29"/>
<rect x="5.33331" y="96" width="5.33333" height="5.33333" fill="white"/>
<rect y="96" width="5.33333" height="5.33333" fill="#FFCB29"/>
<rect x="5.33331" y="90.6666" width="5.33333" height="5.33333" fill="white"/>
<rect y="90.6666" width="5.33333" height="5.33333" fill="#FFCB29"/>
<rect x="5.33331" y="85.3334" width="5.33333" height="5.33333" fill="white"/>
<rect y="85.3334" width="5.33333" height="5.33333" fill="#FFCB29"/>
<rect x="5.33331" y="80" width="5.33333" height="5.33333" fill="white"/>
<rect y="80" width="5.33333" height="5.33333" fill="#FFCB29"/>
<rect x="5.33331" y="74.6666" width="5.33333" height="5.33333" fill="white"/>
<rect y="74.6666" width="5.33333" height="5.33333" fill="#FFCB29"/>
<rect x="5.33331" y="69.3334" width="5.33333" height="5.33333" fill="white"/>
<rect y="69.3334" width="5.33333" height="5.33333" fill="#FFCB29"/>
<rect x="37.3333" y="128" width="5.33333" height="5.33333" fill="white"/>
<rect x="37.3333" y="133.333" width="5.33333" height="5.33333" fill="#FFCB29"/>
<rect x="26.6667" y="122.667" width="5.33333" height="5.33333" fill="white"/>
<rect x="26.6667" y="128" width="5.33333" height="5.33333" fill="#FFCB29"/>
<rect x="144" y="69.3334" width="5.33333" height="5.33333" fill="black"/>
<rect x="10.6667" y="69.3334" width="5.33333" height="5.33333" fill="black"/>
<rect x="144" y="90.6666" width="5.33333" height="5.33333" fill="black"/>
<rect x="10.6667" y="90.6666" width="5.33333" height="5.33333" fill="black"/>
<rect x="144" y="96" width="5.33333" height="5.33333" fill="black"/>
<rect x="10.6667" y="96" width="5.33333" height="5.33333" fill="black"/>
<rect width="5.33333" height="5.33333" transform="matrix(-1 0 0 1 138.667 48)" fill="black"/>
<rect width="5.33333" height="5.33333" transform="matrix(-1 0 0 1 144 53.3334)" fill="black"/>
<rect width="5.33333" height="5.33333" transform="matrix(-1 0 0 1 144 58.6666)" fill="black"/>
<rect width="5.33333" height="5.33333" transform="matrix(-1 0 0 1 26.6667 48)" fill="black"/>
<rect width="5.33333" height="5.33333" transform="matrix(-1 0 0 1 21.3333 53.3334)" fill="black"/>
<rect width="5.33333" height="5.33333" transform="matrix(-1 0 0 1 21.3333 58.6666)" fill="black"/>
<rect x="26.6667" y="48" width="5.33333" height="5.33333" fill="black"/>
<rect x="74.6667" y="48" width="5.33333" height="5.33333" fill="black"/>
<rect x="106.667" y="48" width="5.33333" height="5.33333" fill="black"/>
<rect x="96" y="48" width="5.33333" height="5.33333" fill="black"/>
<rect x="128" y="48" width="5.33333" height="5.33333" fill="black"/>
<rect x="32" y="42.6666" width="5.33333" height="5.33333" fill="black"/>
<rect width="5.33333" height="5.33333" transform="matrix(1 0 0 -1 32 80)" fill="black"/>
<rect x="32" y="37.3334" width="5.33333" height="5.33333" fill="black"/>
<rect width="5.33333" height="5.33333" transform="matrix(1 0 0 -1 32 85.3334)" fill="black"/>
<rect x="37.3333" y="32" width="5.33333" height="5.33333" fill="black"/>
<rect width="5.33333" height="5.33333" transform="matrix(1 0 0 -1 37.3333 90.6666)" fill="black"/>
<rect x="42.6667" y="26.6666" width="5.33333" height="5.33333" fill="black"/>
<rect width="5.33333" height="5.33333" transform="matrix(1 0 0 -1 42.6667 96)" fill="black"/>
<rect x="48" y="26.6666" width="5.33333" height="5.33333" fill="black"/>
<rect width="5.33333" height="5.33333" transform="matrix(1 0 0 -1 48 96)" fill="black"/>
<rect x="53.3333" y="26.6666" width="5.33333" height="5.33333" fill="black"/>
<rect width="5.33333" height="5.33333" transform="matrix(1 0 0 -1 53.3333 96)" fill="black"/>
<rect x="58.6667" y="26.6666" width="5.33333" height="5.33333" fill="black"/>
<rect x="90.6667" y="26.6666" width="5.33333" height="5.33333" fill="black"/>
<rect x="64" y="26.6666" width="5.33333" height="5.33333" fill="black"/>
<rect x="96" y="26.6666" width="5.33333" height="5.33333" fill="black"/>
<rect x="69.3333" y="26.6666" width="5.33333" height="5.33333" fill="black"/>
<rect x="101.333" y="26.6666" width="5.33333" height="5.33333" fill="black"/>
<rect x="74.6667" y="26.6666" width="5.33333" height="5.33333" fill="black"/>
<rect x="106.667" y="26.6666" width="5.33333" height="5.33333" fill="black"/>
<rect x="80" y="26.6666" width="5.33333" height="5.33333" fill="black"/>
<rect x="112" y="26.6666" width="5.33333" height="5.33333" fill="black"/>
<rect x="85.3333" y="32" width="5.33333" height="5.33333" fill="black"/>
<rect x="117.333" y="32" width="5.33333" height="5.33333" fill="black"/>
<rect width="5.33333" height="5.33333" transform="matrix(1 0 0 -1 58.6667 96)" fill="black"/>
<rect width="5.33333" height="5.33333" transform="matrix(1 0 0 -1 90.6667 96)" fill="black"/>
<rect x="64" y="32" width="5.33333" height="5.33333" fill="black"/>
<rect x="96" y="32" width="5.33333" height="5.33333" fill="black"/>
<rect x="69.3333" y="32" width="5.33333" height="5.33333" fill="#3A3E41"/>
<rect x="101.333" y="32" width="5.33333" height="5.33333" fill="#3A3E41"/>
<rect x="42.6667" y="32" width="5.33333" height="5.33333" fill="white"/>
<rect x="42.6667" y="37.3334" width="5.33333" height="5.33333" fill="white"/>
<rect x="37.3333" y="37.3334" width="5.33333" height="5.33333" fill="white"/>
<rect x="64" y="37.3334" width="5.33333" height="5.33333" fill="white"/>
<rect x="42.6667" y="42.6666" width="5.33333" height="5.33333" fill="white"/>
<rect x="37.3333" y="42.6666" width="5.33333" height="5.33333" fill="white"/>
<rect x="64" y="42.6666" width="5.33333" height="5.33333" fill="white"/>
<rect x="42.6667" y="48" width="5.33333" height="5.33333" fill="#FFE300"/>
<rect x="37.3333" y="48" width="5.33333" height="5.33333" fill="white"/>
<rect x="64" y="48" width="5.33333" height="5.33333" fill="white"/>
<rect x="69.3333" y="48" width="5.33333" height="5.33333" fill="white"/>
<rect x="101.333" y="48" width="5.33333" height="5.33333" fill="white"/>
<rect x="32" y="48" width="5.33333" height="5.33333" fill="white"/>
<rect x="42.6667" y="53.3334" width="5.33333" height="5.33333" fill="#FF6C00"/>
<rect x="37.3333" y="53.3334" width="5.33333" height="5.33333" fill="#FF6C00"/>
<rect x="64" y="53.3334" width="5.33333" height="5.33333" fill="white"/>
<rect x="69.3333" y="53.3334" width="5.33333" height="5.33333" fill="white"/>
<rect x="101.333" y="53.3334" width="5.33333" height="5.33333" fill="white"/>
<rect x="32" y="53.3334" width="5.33333" height="5.33333" fill="white"/>
<rect x="42.6667" y="58.6666" width="5.33333" height="5.33333" fill="#FF4D00"/>
<rect x="37.3333" y="58.6666" width="5.33333" height="5.33333" fill="#FF4D00"/>
<rect x="64" y="58.6666" width="5.33333" height="5.33333" fill="#00C143"/>
<rect x="69.3333" y="58.6666" width="5.33333" height="5.33333" fill="white"/>
<rect x="101.333" y="58.6666" width="5.33333" height="5.33333" fill="white"/>
<rect x="32" y="58.6666" width="5.33333" height="5.33333" fill="white"/>
<rect x="42.6667" y="64" width="5.33333" height="5.33333" fill="#991A19"/>
<rect x="37.3333" y="64" width="5.33333" height="5.33333" fill="white"/>
<rect x="64" y="64" width="5.33333" height="5.33333" fill="#005C2A"/>
<rect x="69.3333" y="64" width="5.33333" height="5.33333" fill="white"/>
<rect x="101.333" y="64" width="5.33333" height="5.33333" fill="white"/>
<rect x="32" y="64" width="5.33333" height="5.33333" fill="white"/>
<rect x="42.6667" y="69.3334" width="5.33333" height="5.33333" fill="#991A19"/>
<rect x="37.3333" y="69.3334" width="5.33333" height="5.33333" fill="white"/>
<rect x="64" y="69.3334" width="5.33333" height="5.33333" fill="white"/>
<rect x="69.3333" y="69.3334" width="5.33333" height="5.33333" fill="white"/>
<rect x="101.333" y="69.3334" width="5.33333" height="5.33333" fill="white"/>
<rect x="32" y="69.3334" width="5.33333" height="5.33333" fill="white"/>
<rect x="42.6667" y="74.6666" width="5.33333" height="5.33333" fill="white"/>
<rect x="37.3333" y="74.6666" width="5.33333" height="5.33333" fill="white"/>
<rect x="64" y="74.6666" width="5.33333" height="5.33333" fill="white"/>
<rect x="42.6667" y="80" width="5.33333" height="5.33333" fill="white"/>
<rect x="37.3333" y="80" width="5.33333" height="5.33333" fill="white"/>
<rect x="64" y="80" width="5.33333" height="5.33333" fill="white"/>
<rect x="42.6667" y="85.3334" width="5.33333" height="5.33333" fill="white"/>
<rect x="48" y="32" width="5.33333" height="5.33333" fill="white"/>
<rect x="48" y="37.3334" width="5.33333" height="5.33333" fill="white"/>
<rect x="48" y="42.6666" width="5.33333" height="5.33333" fill="#FFE300"/>
<rect x="48" y="48" width="5.33333" height="5.33333" fill="#FFBF00"/>
<rect x="48" y="53.3334" width="5.33333" height="5.33333" fill="#FF6C00"/>
<rect x="48" y="58.6666" width="5.33333" height="5.33333" fill="#FF4D00"/>
<rect x="48" y="64" width="5.33333" height="5.33333" fill="#991A19"/>
<rect x="48" y="69.3334" width="5.33333" height="5.33333" fill="#750D0C"/>
<rect x="48" y="74.6666" width="5.33333" height="5.33333" fill="#D8533E"/>
<rect x="48" y="80" width="5.33333" height="5.33333" fill="white"/>
<rect x="48" y="85.3334" width="5.33333" height="5.33333" fill="white"/>
<rect x="53.3333" y="32" width="5.33333" height="5.33333" fill="white"/>
<rect x="53.3333" y="37.3334" width="5.33333" height="5.33333" fill="white"/>
<rect x="53.3333" y="42.6666" width="5.33333" height="5.33333" fill="#FFE300"/>
<rect x="53.3333" y="48" width="5.33333" height="5.33333" fill="#FFBF00"/>
<rect x="53.3333" y="53.3334" width="5.33333" height="5.33333" fill="#00C143"/>
<rect x="53.3333" y="58.6666" width="5.33333" height="5.33333" fill="#005C2A"/>
<rect x="53.3333" y="64" width="5.33333" height="5.33333" fill="#750D0C"/>
<rect x="53.3333" y="69.3334" width="5.33333" height="5.33333" fill="#F2655B"/>
<rect x="53.3333" y="74.6666" width="5.33333" height="5.33333" fill="#D8533E"/>
<rect x="53.3333" y="80" width="5.33333" height="5.33333" fill="white"/>
<rect x="53.3333" y="85.3334" width="5.33333" height="5.33333" fill="white"/>
<rect x="58.6667" y="32" width="5.33333" height="5.33333" fill="white"/>
<rect x="90.6667" y="32" width="5.33333" height="5.33333" fill="white"/>
<rect x="58.6667" y="37.3334" width="5.33333" height="5.33333" fill="white"/>
<rect x="58.6667" y="42.6666" width="5.33333" height="5.33333" fill="white"/>
<rect x="58.6667" y="48" width="5.33333" height="5.33333" fill="#FFBF00"/>
<rect x="58.6667" y="53.3334" width="5.33333" height="5.33333" fill="#00C143"/>
<rect x="58.6667" y="58.6666" width="5.33333" height="5.33333" fill="#00C143"/>
<rect x="58.6667" y="64" width="5.33333" height="5.33333" fill="#005C2A"/>
<rect x="58.6667" y="69.3334" width="5.33333" height="5.33333" fill="#F2655B"/>
<rect x="58.6667" y="74.6666" width="5.33333" height="5.33333" fill="white"/>
<rect x="58.6667" y="80" width="5.33333" height="5.33333" fill="white"/>
<rect x="58.6667" y="85.3334" width="5.33333" height="5.33333" fill="white"/>
<rect x="90.6667" y="85.3334" width="5.33333" height="5.33333" fill="white"/>
<rect x="74.6667" y="37.3334" width="5.33333" height="5.33333" fill="#3A3E41"/>
<rect x="106.667" y="37.3334" width="5.33333" height="5.33333" fill="#3A3E41"/>
<rect x="74.6667" y="42.6666" width="5.33333" height="5.33333" fill="#3A3E41"/>
<rect x="106.667" y="42.6666" width="5.33333" height="5.33333" fill="#3A3E41"/>
<rect x="80" y="48" width="5.33333" height="5.33333" fill="#3A3E41"/>
<rect x="112" y="48" width="5.33333" height="5.33333" fill="#3A3E41"/>
<rect x="80" y="53.3334" width="5.33333" height="5.33333" fill="#3A3E41"/>
<rect x="112" y="53.3334" width="5.33333" height="5.33333" fill="#3A3E41"/>
<rect x="80" y="58.6666" width="5.33333" height="5.33333" fill="#3A3E41"/>
<rect x="112" y="58.6666" width="5.33333" height="5.33333" fill="#3A3E41"/>
<rect x="80" y="64" width="5.33333" height="5.33333" fill="#3A3E41"/>
<rect x="112" y="64" width="5.33333" height="5.33333" fill="#3A3E41"/>
<rect x="80" y="69.3334" width="5.33333" height="5.33333" fill="#3A3E41"/>
<rect x="112" y="69.3334" width="5.33333" height="5.33333" fill="#3A3E41"/>
<rect x="74.6667" y="74.6666" width="5.33333" height="5.33333" fill="#3A3E41"/>
<rect x="106.667" y="74.6666" width="5.33333" height="5.33333" fill="#3A3E41"/>
<rect x="74.6667" y="80" width="5.33333" height="5.33333" fill="#3A3E41"/>
<rect x="106.667" y="80" width="5.33333" height="5.33333" fill="#3A3E41"/>
<rect x="69.3333" y="85.3334" width="5.33333" height="5.33333" fill="#3A3E41"/>
<rect x="101.333" y="85.3334" width="5.33333" height="5.33333" fill="#3A3E41"/>
<rect x="74.6667" y="32" width="5.33333" height="5.33333" fill="#3A3E41"/>
<rect x="106.667" y="32" width="5.33333" height="5.33333" fill="#3A3E41"/>
<rect x="80" y="37.3334" width="5.33333" height="5.33333" fill="#3A3E41"/>
<rect x="112" y="37.3334" width="5.33333" height="5.33333" fill="#3A3E41"/>
<rect x="80" y="42.6666" width="5.33333" height="5.33333" fill="#3A3E41"/>
<rect x="112" y="42.6666" width="5.33333" height="5.33333" fill="#3A3E41"/>
<rect x="85.3333" y="48" width="5.33333" height="5.33333" fill="#3A3E41"/>
<rect x="117.333" y="48" width="5.33333" height="5.33333" fill="#3A3E41"/>
<rect x="85.3333" y="53.3334" width="5.33333" height="5.33333" fill="#3A3E41"/>
<rect x="117.333" y="53.3334" width="5.33333" height="5.33333" fill="#3A3E41"/>
<rect x="85.3333" y="58.6666" width="5.33333" height="5.33333" fill="#3A3E41"/>
<rect x="117.333" y="58.6666" width="5.33333" height="5.33333" fill="#3A3E41"/>
<rect x="85.3333" y="64" width="5.33333" height="5.33333" fill="#3A3E41"/>
<rect x="117.333" y="64" width="5.33333" height="5.33333" fill="#3A3E41"/>
<rect x="85.3333" y="69.3334" width="5.33333" height="5.33333" fill="#3A3E41"/>
<rect x="117.333" y="69.3334" width="5.33333" height="5.33333" fill="#3A3E41"/>
<rect x="80" y="74.6666" width="5.33333" height="5.33333" fill="#3A3E41"/>
<rect x="112" y="74.6666" width="5.33333" height="5.33333" fill="#3A3E41"/>
<rect x="80" y="80" width="5.33333" height="5.33333" fill="#3A3E41"/>
<rect x="112" y="80" width="5.33333" height="5.33333" fill="#3A3E41"/>
<rect x="74.6667" y="85.3334" width="5.33333" height="5.33333" fill="#3A3E41"/>
<rect x="106.667" y="85.3334" width="5.33333" height="5.33333" fill="#3A3E41"/>
<rect x="80" y="32" width="5.33333" height="5.33333" fill="#3A3E41"/>
<rect x="112" y="32" width="5.33333" height="5.33333" fill="#3A3E41"/>
<rect x="85.3333" y="37.3334" width="5.33333" height="5.33333" fill="#3A3E41"/>
<rect x="117.333" y="37.3334" width="5.33333" height="5.33333" fill="#3A3E41"/>
<rect x="85.3333" y="42.6666" width="5.33333" height="5.33333" fill="#3A3E41"/>
<rect x="117.333" y="42.6666" width="5.33333" height="5.33333" fill="#3A3E41"/>
<rect x="90.6667" y="48" width="5.33333" height="5.33333" fill="#3A3E41"/>
<rect x="122.667" y="48" width="5.33333" height="5.33333" fill="#3A3E41"/>
<rect x="90.6667" y="53.3334" width="5.33333" height="5.33333" fill="#3A3E41"/>
<rect x="122.667" y="53.3334" width="5.33333" height="5.33333" fill="#3A3E41"/>
<rect x="90.6667" y="58.6666" width="5.33333" height="5.33333" fill="#3A3E41"/>
<rect x="122.667" y="58.6666" width="5.33333" height="5.33333" fill="#3A3E41"/>
<rect x="90.6667" y="64" width="5.33333" height="5.33333" fill="#3A3E41"/>
<rect x="122.667" y="64" width="5.33333" height="5.33333" fill="#3A3E41"/>
<rect x="90.6667" y="69.3334" width="5.33333" height="5.33333" fill="#3A3E41"/>
<rect x="122.667" y="69.3334" width="5.33333" height="5.33333" fill="#3A3E41"/>
<rect x="85.3333" y="74.6666" width="5.33333" height="5.33333" fill="#3A3E41"/>
<rect x="117.333" y="74.6666" width="5.33333" height="5.33333" fill="#3A3E41"/>
<rect x="85.3333" y="80" width="5.33333" height="5.33333" fill="#3A3E41"/>
<rect x="117.333" y="80" width="5.33333" height="5.33333" fill="#3A3E41"/>
<rect x="80" y="85.3334" width="5.33333" height="5.33333" fill="#3A3E41"/>
<rect x="112" y="85.3334" width="5.33333" height="5.33333" fill="#3A3E41"/>
<rect width="5.33333" height="5.33333" transform="matrix(1 0 0 -1 64 90.6666)" fill="black"/>
<rect width="5.33333" height="5.33333" transform="matrix(1 0 0 -1 96 90.6666)" fill="black"/>
<rect width="5.33333" height="5.33333" transform="matrix(1 0 0 -1 85.3333 90.6666)" fill="black"/>
<rect width="5.33333" height="5.33333" transform="matrix(1 0 0 -1 117.333 90.6666)" fill="black"/>
<rect width="5.33333" height="5.33333" transform="matrix(1 0 0 -1 80 96)" fill="black"/>
<rect width="5.33333" height="5.33333" transform="matrix(1 0 0 -1 112 96)" fill="black"/>
<rect width="5.33333" height="5.33333" transform="matrix(1 0 0 -1 74.6667 96)" fill="black"/>
<rect width="5.33333" height="5.33333" transform="matrix(1 0 0 -1 106.667 96)" fill="black"/>
<rect width="5.33333" height="5.33333" transform="matrix(1 0 0 -1 69.3333 96)" fill="black"/>
<rect width="5.33333" height="5.33333" transform="matrix(1 0 0 -1 101.333 96)" fill="black"/>
<rect width="5.33333" height="5.33333" transform="matrix(1 0 0 -1 64 96)" fill="black"/>
<rect width="5.33333" height="5.33333" transform="matrix(1 0 0 -1 96 96)" fill="black"/>
<rect x="69.3333" y="37.3334" width="5.33333" height="5.33333" fill="black"/>
<rect x="101.333" y="37.3334" width="5.33333" height="5.33333" fill="black"/>
<rect x="90.6667" y="37.3334" width="5.33333" height="5.33333" fill="black"/>
<rect x="122.667" y="37.3334" width="5.33333" height="5.33333" fill="black"/>
<rect width="5.33333" height="5.33333" transform="matrix(1 0 0 -1 69.3333 85.3334)" fill="black"/>
<rect width="5.33333" height="5.33333" transform="matrix(1 0 0 -1 101.333 85.3334)" fill="black"/>
<rect width="5.33333" height="5.33333" transform="matrix(1 0 0 -1 90.6667 85.3334)" fill="black"/>
<rect width="5.33333" height="5.33333" transform="matrix(1 0 0 -1 122.667 85.3334)" fill="black"/>
<rect x="69.3333" y="42.6666" width="5.33333" height="5.33333" fill="black"/>
<rect x="101.333" y="42.6666" width="5.33333" height="5.33333" fill="black"/>
<rect x="90.6667" y="42.6666" width="5.33333" height="5.33333" fill="black"/>
<rect x="122.667" y="42.6666" width="5.33333" height="5.33333" fill="black"/>
<rect width="5.33333" height="5.33333" transform="matrix(1 0 0 -1 69.3333 80)" fill="black"/>
<rect width="5.33333" height="5.33333" transform="matrix(1 0 0 -1 101.333 80)" fill="black"/>
<rect width="5.33333" height="5.33333" transform="matrix(1 0 0 -1 90.6667 80)" fill="black"/>
<rect width="5.33333" height="5.33333" transform="matrix(1 0 0 -1 122.667 80)" fill="black"/>
<rect x="26.6667" y="53.3334" width="5.33333" height="5.33333" fill="black"/>
<rect x="74.6667" y="53.3334" width="5.33333" height="5.33333" fill="black"/>
<rect x="106.667" y="53.3334" width="5.33333" height="5.33333" fill="black"/>
<rect x="96" y="53.3334" width="5.33333" height="5.33333" fill="black"/>
<rect x="128" y="53.3334" width="5.33333" height="5.33333" fill="black"/>
<rect x="26.6667" y="58.6666" width="5.33333" height="5.33333" fill="black"/>
<rect x="74.6667" y="58.6666" width="5.33333" height="5.33333" fill="black"/>
<rect x="106.667" y="58.6666" width="5.33333" height="5.33333" fill="black"/>
<rect x="96" y="58.6666" width="5.33333" height="5.33333" fill="black"/>
<rect x="128" y="58.6666" width="5.33333" height="5.33333" fill="black"/>
<rect x="26.6667" y="64" width="5.33333" height="5.33333" fill="black"/>
<rect x="74.6667" y="64" width="5.33333" height="5.33333" fill="black"/>
<rect x="106.667" y="64" width="5.33333" height="5.33333" fill="black"/>
<rect x="96" y="64" width="5.33333" height="5.33333" fill="black"/>
<rect x="128" y="64" width="5.33333" height="5.33333" fill="black"/>
<rect x="26.6667" y="69.3334" width="5.33333" height="5.33333" fill="black"/>
<rect x="74.6667" y="69.3334" width="5.33333" height="5.33333" fill="black"/>
<rect x="106.667" y="69.3334" width="5.33333" height="5.33333" fill="black"/>
<rect x="96" y="69.3334" width="5.33333" height="5.33333" fill="black"/>
<rect x="128" y="69.3334" width="5.33333" height="5.33333" fill="black"/>
<rect width="5.33333" height="5.33333" transform="matrix(-1 0 0 1 32 53.3334)" fill="black"/>
<rect x="26.6667" y="58.6666" width="5.33333" height="5.33333" fill="black"/>
<rect x="21.3333" y="101.333" width="5.33333" height="5.33333" fill="#BAC1C8"/>
<rect x="42.6667" y="96" width="5.33333" height="5.33333" fill="#BAC1C8"/>
<rect x="48" y="96" width="5.33333" height="5.33333" fill="#BAC1C8"/>
<rect x="53.3333" y="96" width="5.33333" height="5.33333" fill="#BAC1C8"/>
<rect x="58.6667" y="96" width="5.33333" height="5.33333" fill="#BAC1C8"/>
<rect x="64" y="96" width="5.33333" height="5.33333" fill="#BAC1C8"/>
<rect x="69.3333" y="96" width="5.33333" height="5.33333" fill="#BAC1C8"/>
<rect x="74.6667" y="96" width="5.33333" height="5.33333" fill="#BAC1C8"/>
<rect x="80" y="96" width="5.33333" height="5.33333" fill="#BAC1C8"/>
<rect x="85.3333" y="96" width="5.33333" height="5.33333" fill="#BAC1C8"/>
<rect x="85.3333" y="90.6666" width="5.33333" height="5.33333" fill="#BAC1C8"/>
<rect x="90.6667" y="96" width="5.33333" height="5.33333" fill="#BAC1C8"/>
<rect x="96" y="96" width="5.33333" height="5.33333" fill="#BAC1C8"/>
<rect x="101.333" y="96" width="5.33333" height="5.33333" fill="#BAC1C8"/>
<rect x="106.667" y="96" width="5.33333" height="5.33333" fill="#BAC1C8"/>
<rect x="112" y="96" width="5.33333" height="5.33333" fill="#BAC1C8"/>
<rect x="117.333" y="90.6666" width="5.33333" height="5.33333" fill="#BAC1C8"/>
<rect x="128" y="80" width="5.33333" height="5.33333" fill="#BAC1C8"/>
<rect x="133.333" y="69.3334" width="5.33333" height="5.33333" fill="#BAC1C8"/>
<rect x="128" y="74.6666" width="5.33333" height="5.33333" fill="#BAC1C8"/>
<rect x="133.333" y="64" width="5.33333" height="5.33333" fill="#BAC1C8"/>
<rect x="133.333" y="58.6666" width="5.33333" height="5.33333" fill="#BAC1C8"/>
<rect x="133.333" y="53.3334" width="5.33333" height="5.33333" fill="#BAC1C8"/>
<rect x="122.667" y="85.3334" width="5.33333" height="5.33333" fill="#BAC1C8"/>
<rect x="117.333" y="112" width="5.33333" height="5.33333" fill="#BAC1C8"/>
<rect x="122.667" y="112" width="5.33333" height="5.33333" fill="#BAC1C8"/>
<rect x="128" y="106.667" width="5.33333" height="5.33333" fill="#BAC1C8"/>
<rect x="133.333" y="101.333" width="5.33333" height="5.33333" fill="#BAC1C8"/>
<rect x="138.667" y="96" width="5.33333" height="5.33333" fill="#BAC1C8"/>
<rect x="26.6667" y="106.667" width="5.33333" height="5.33333" fill="#BAC1C8"/>
<rect x="32" y="112" width="5.33333" height="5.33333" fill="#BAC1C8"/>
<rect x="37.3333" y="112" width="5.33333" height="5.33333" fill="#BAC1C8"/>
<rect x="42.6667" y="117.333" width="5.33333" height="5.33333" fill="#BAC1C8"/>
<rect x="48" y="117.333" width="5.33333" height="5.33333" fill="#BAC1C8"/>
<rect x="53.3333" y="122.667" width="5.33333" height="5.33333" fill="#BAC1C8"/>
<rect x="58.6667" y="122.667" width="5.33333" height="5.33333" fill="#BAC1C8"/>
<rect x="64" y="122.667" width="5.33333" height="5.33333" fill="#BAC1C8"/>
<rect x="69.3333" y="122.667" width="5.33333" height="5.33333" fill="#BAC1C8"/>
<rect x="74.6667" y="122.667" width="5.33333" height="5.33333" fill="#BAC1C8"/>
<rect x="80" y="122.667" width="5.33333" height="5.33333" fill="#BAC1C8"/>
<rect x="85.3333" y="122.667" width="5.33333" height="5.33333" fill="#BAC1C8"/>
<rect x="90.6667" y="122.667" width="5.33333" height="5.33333" fill="#BAC1C8"/>
<rect x="96" y="122.667" width="5.33333" height="5.33333" fill="#BAC1C8"/>
<rect x="101.333" y="122.667" width="5.33333" height="5.33333" fill="#BAC1C8"/>
<rect x="106.667" y="117.333" width="5.33333" height="5.33333" fill="#BAC1C8"/>
<rect x="112" y="117.333" width="5.33333" height="5.33333" fill="#BAC1C8"/>
<rect x="16" y="96" width="5.33333" height="5.33333" fill="#BAC1C8"/>
<rect x="21.3333" y="96" width="5.33333" height="5.33333" fill="#F3F7FA"/>
<rect x="133.333" y="96" width="5.33333" height="5.33333" fill="#F3F7FA"/>
<rect x="138.667" y="90.6666" width="5.33333" height="5.33333" fill="#F3F7FA"/>
<rect x="26.6667" y="101.333" width="5.33333" height="5.33333" fill="#F3F7FA"/>
<rect x="32" y="106.667" width="5.33333" height="5.33333" fill="#F3F7FA"/>
<rect x="37.3333" y="106.667" width="5.33333" height="5.33333" fill="#F3F7FA"/>
<rect x="42.6667" y="112" width="5.33333" height="5.33333" fill="#F3F7FA"/>
<rect x="48" y="112" width="5.33333" height="5.33333" fill="#F3F7FA"/>
<rect x="112" y="112" width="5.33333" height="5.33333" fill="#F3F7FA"/>
<rect x="106.667" y="112" width="5.33333" height="5.33333" fill="#F3F7FA"/>
<rect x="117.333" y="106.667" width="5.33333" height="5.33333" fill="#F3F7FA"/>
<rect x="122.667" y="106.667" width="5.33333" height="5.33333" fill="#F3F7FA"/>
<rect x="128" y="101.333" width="5.33333" height="5.33333" fill="#F3F7FA"/>
<rect x="53.3333" y="117.333" width="5.33333" height="5.33333" fill="#F3F7FA"/>
<rect x="58.6667" y="117.333" width="5.33333" height="5.33333" fill="#F3F7FA"/>
<rect x="64" y="117.333" width="5.33333" height="5.33333" fill="#F3F7FA"/>
<rect x="69.3333" y="117.333" width="5.33333" height="5.33333" fill="#F3F7FA"/>
<rect x="74.6667" y="117.333" width="5.33333" height="5.33333" fill="#F3F7FA"/>
<rect x="80" y="117.333" width="5.33333" height="5.33333" fill="#F3F7FA"/>
<rect x="85.3333" y="117.333" width="5.33333" height="5.33333" fill="#F3F7FA"/>
<rect x="90.6667" y="117.333" width="5.33333" height="5.33333" fill="#F3F7FA"/>
<rect x="96" y="117.333" width="5.33333" height="5.33333" fill="#F3F7FA"/>
<rect x="101.333" y="117.333" width="5.33333" height="5.33333" fill="#F3F7FA"/>
<rect x="16" y="90.6666" width="5.33333" height="5.33333" fill="#F3F7FA"/>
<rect x="21.3333" y="64" width="5.33333" height="5.33333" fill="#E1E2E3"/>
<rect x="21.3333" y="58.6666" width="5.33333" height="5.33333" fill="#E1E2E3"/>
<rect x="21.3333" y="53.3334" width="5.33333" height="5.33333" fill="#E1E2E3"/>
<rect x="21.3333" y="69.3334" width="5.33333" height="5.33333" fill="#E1E2E3"/>
<rect x="21.3333" y="74.6666" width="5.33333" height="5.33333" fill="#E1E2E3"/>
<rect x="21.3333" y="80" width="5.33333" height="5.33333" fill="#E1E2E3"/>
<rect x="21.3333" y="85.3334" width="5.33333" height="5.33333" fill="#E1E2E3"/>
<rect x="21.3333" y="90.6666" width="5.33333" height="5.33333" fill="#E1E2E3"/>
<rect x="26.6667" y="74.6666" width="5.33333" height="5.33333" fill="#E1E2E3"/>
<rect x="26.6667" y="80" width="5.33333" height="5.33333" fill="#E1E2E3"/>
<rect x="32" y="85.3334" width="5.33333" height="5.33333" fill="#E1E2E3"/>
<rect x="26.6667" y="85.3334" width="5.33333" height="5.33333" fill="#E1E2E3"/>
<rect x="32" y="90.6666" width="5.33333" height="5.33333" fill="#E1E2E3"/>
<rect x="37.3333" y="90.6666" width="5.33333" height="5.33333" fill="#E1E2E3"/>
<rect x="122.667" y="90.6666" width="5.33333" height="5.33333" fill="#E1E2E3"/>
<rect x="128" y="85.3334" width="5.33333" height="5.33333" fill="#E1E2E3"/>
<rect x="133.333" y="85.3334" width="5.33333" height="5.33333" fill="#E1E2E3"/>
<rect x="138.667" y="80" width="5.33333" height="5.33333" fill="#E1E2E3"/>
<rect x="133.333" y="80" width="5.33333" height="5.33333" fill="#E1E2E3"/>
<rect x="138.667" y="74.6666" width="5.33333" height="5.33333" fill="#E1E2E3"/>
<rect x="133.333" y="74.6666" width="5.33333" height="5.33333" fill="#E1E2E3"/>
<rect x="138.667" y="69.3334" width="5.33333" height="5.33333" fill="#E1E2E3"/>
<rect x="138.667" y="64" width="5.33333" height="5.33333" fill="#E1E2E3"/>
<rect x="26.6667" y="90.6666" width="5.33333" height="5.33333" fill="#E1E2E3"/>
<rect x="32" y="96" width="5.33333" height="5.33333" fill="#E1E2E3"/>
<rect x="37.3333" y="96" width="5.33333" height="5.33333" fill="#E1E2E3"/>
<rect x="42.6667" y="101.333" width="5.33333" height="5.33333" fill="#E1E2E3"/>
<rect x="48" y="101.333" width="5.33333" height="5.33333" fill="#E1E2E3"/>
<rect x="53.3333" y="101.333" width="5.33333" height="5.33333" fill="#E1E2E3"/>
<rect x="58.6667" y="101.333" width="5.33333" height="5.33333" fill="#E1E2E3"/>
<rect x="64" y="101.333" width="5.33333" height="5.33333" fill="#E1E2E3"/>
<rect x="69.3333" y="101.333" width="5.33333" height="5.33333" fill="#E1E2E3"/>
<rect x="74.6667" y="101.333" width="5.33333" height="5.33333" fill="#E1E2E3"/>
<rect x="80" y="101.333" width="5.33333" height="5.33333" fill="#E1E2E3"/>
<rect x="85.3333" y="101.333" width="5.33333" height="5.33333" fill="#E1E2E3"/>
<rect x="90.6667" y="101.333" width="5.33333" height="5.33333" fill="#E1E2E3"/>
<rect x="96" y="101.333" width="5.33333" height="5.33333" fill="#E1E2E3"/>
<rect x="101.333" y="101.333" width="5.33333" height="5.33333" fill="#E1E2E3"/>
<rect x="112" y="101.333" width="5.33333" height="5.33333" fill="#E1E2E3"/>
<rect x="106.667" y="101.333" width="5.33333" height="5.33333" fill="#E1E2E3"/>
<rect x="117.333" y="96" width="5.33333" height="5.33333" fill="#E1E2E3"/>
<rect x="122.667" y="96" width="5.33333" height="5.33333" fill="#E1E2E3"/>
<rect x="128" y="90.6666" width="5.33333" height="5.33333" fill="#E1E2E3"/>
<rect x="133.333" y="90.6666" width="5.33333" height="5.33333" fill="#E1E2E3"/>
<rect x="138.667" y="85.3334" width="5.33333" height="5.33333" fill="#E1E2E3"/>
<rect x="26.6667" y="96" width="5.33333" height="5.33333" fill="#E1E2E3"/>
<rect x="32" y="101.333" width="5.33333" height="5.33333" fill="#E1E2E3"/>
<rect x="37.3333" y="101.333" width="5.33333" height="5.33333" fill="#E1E2E3"/>
<rect x="42.6667" y="106.667" width="5.33333" height="5.33333" fill="#E1E2E3"/>
<rect x="48" y="106.667" width="5.33333" height="5.33333" fill="#E1E2E3"/>
<rect x="53.3333" y="106.667" width="5.33333" height="5.33333" fill="#E1E2E3"/>
<rect x="58.6667" y="106.667" width="5.33333" height="5.33333" fill="#E1E2E3"/>
<rect x="64" y="106.667" width="5.33333" height="5.33333" fill="#E1E2E3"/>
<rect x="69.3333" y="106.667" width="5.33333" height="5.33333" fill="#E1E2E3"/>
<rect x="74.6667" y="106.667" width="5.33333" height="5.33333" fill="#E1E2E3"/>
<rect x="80" y="106.667" width="5.33333" height="5.33333" fill="#E1E2E3"/>
<rect x="85.3333" y="106.667" width="5.33333" height="5.33333" fill="#E1E2E3"/>
<rect x="90.6667" y="106.667" width="5.33333" height="5.33333" fill="#E1E2E3"/>
<rect x="96" y="106.667" width="5.33333" height="5.33333" fill="#E1E2E3"/>
<rect x="112" y="106.667" width="5.33333" height="5.33333" fill="#E1E2E3"/>
<rect x="101.333" y="106.667" width="5.33333" height="5.33333" fill="#E1E2E3"/>
<rect x="106.667" y="106.667" width="5.33333" height="5.33333" fill="#E1E2E3"/>
<rect x="117.333" y="101.333" width="5.33333" height="5.33333" fill="#E1E2E3"/>
<rect x="122.667" y="101.333" width="5.33333" height="5.33333" fill="#E1E2E3"/>
<rect x="128" y="96" width="5.33333" height="5.33333" fill="#E1E2E3"/>
<rect x="53.3333" y="112" width="5.33333" height="5.33333" fill="#E1E2E3"/>
<rect x="58.6667" y="112" width="5.33333" height="5.33333" fill="#E1E2E3"/>
<rect x="64" y="112" width="5.33333" height="5.33333" fill="#E1E2E3"/>
<rect x="69.3333" y="112" width="5.33333" height="5.33333" fill="#E1E2E3"/>
<rect x="74.6667" y="112" width="5.33333" height="5.33333" fill="#E1E2E3"/>
<rect x="80" y="112" width="5.33333" height="5.33333" fill="#E1E2E3"/>
<rect x="85.3333" y="112" width="5.33333" height="5.33333" fill="#E1E2E3"/>
<rect x="90.6667" y="112" width="5.33333" height="5.33333" fill="#E1E2E3"/>
<rect x="96" y="112" width="5.33333" height="5.33333" fill="#E1E2E3"/>
<rect x="101.333" y="112" width="5.33333" height="5.33333" fill="#E1E2E3"/>
<rect x="16" y="69.3334" width="5.33333" height="5.33333" fill="#E1E2E3"/>
<rect x="16" y="64" width="5.33333" height="5.33333" fill="#E1E2E3"/>
<rect x="16" y="74.6666" width="5.33333" height="5.33333" fill="#E1E2E3"/>
<rect x="16" y="80" width="5.33333" height="5.33333" fill="#E1E2E3"/>
<rect x="16" y="85.3334" width="5.33333" height="5.33333" fill="#E1E2E3"/>
</svg>
