<svg width="120" height="120" viewBox="0 0 120 120" fill="none" xmlns="http://www.w3.org/2000/svg">
<rect width="4" height="4" transform="matrix(-1 0 0 1 60 96)" fill="black"/>
<rect width="4" height="4" transform="matrix(-1 0 0 1 56 96)" fill="black"/>
<rect width="4" height="4" transform="matrix(-1 0 0 1 52 96)" fill="black"/>
<rect width="4" height="4" transform="matrix(-1 0 0 1 48 96)" fill="black"/>
<rect width="4" height="4" transform="matrix(-1 0 0 1 44 96)" fill="black"/>
<rect width="4" height="4" transform="matrix(-1 0 0 1 40 92)" fill="black"/>
<rect width="4" height="4" transform="matrix(-1 0 0 1 36 92)" fill="black"/>
<rect width="4" height="4" transform="matrix(-1 0 0 1 32 88)" fill="black"/>
<rect width="4" height="4" transform="matrix(-1 0 0 1 28 88)" fill="black"/>
<rect width="4" height="4" transform="matrix(-1 0 0 1 20 80)" fill="black"/>
<rect width="4" height="4" transform="matrix(-1 0 0 1 24 84)" fill="black"/>
<rect width="4" height="4" transform="matrix(-1 0 0 1 16 76)" fill="black"/>
<rect x="60" y="96" width="4" height="4" fill="black"/>
<rect x="64" y="96" width="4" height="4" fill="black"/>
<rect x="68" y="96" width="4" height="4" fill="black"/>
<rect x="72" y="96" width="4" height="4" fill="black"/>
<rect x="76" y="96" width="4" height="4" fill="black"/>
<rect x="80" y="92" width="4" height="4" fill="black"/>
<rect x="84" y="92" width="4" height="4" fill="black"/>
<rect x="88" y="88" width="4" height="4" fill="black"/>
<rect x="92" y="88" width="4" height="4" fill="black"/>
<rect x="100" y="80" width="4" height="4" fill="black"/>
<rect x="96" y="84" width="4" height="4" fill="black"/>
<rect x="104" y="76" width="4" height="4" fill="black"/>
<rect width="4" height="4" transform="matrix(-1 0 0 1 112 56)" fill="black"/>
<rect width="4" height="4" transform="matrix(-1 0 0 1 12 56)" fill="black"/>
<rect width="4" height="4" transform="matrix(-1 0 0 1 112 60)" fill="black"/>
<rect width="4" height="4" transform="matrix(-1 0 0 1 12 60)" fill="black"/>
<rect width="4" height="4" transform="matrix(-1 0 0 1 112 64)" fill="black"/>
<rect width="4" height="4" transform="matrix(-1 0 0 1 12 64)" fill="black"/>
<rect x="108" y="48" width="4" height="4" fill="black"/>
<rect x="8" y="48" width="4" height="4" fill="black"/>
<rect x="4" y="48" width="4" height="4" fill="white"/>
<rect y="48" width="4" height="4" fill="#FFCB29"/>
<rect x="4" y="44" width="4" height="4" fill="white"/>
<rect y="44" width="4" height="4" fill="#FFCB29"/>
<rect x="8" y="44" width="4" height="4" fill="white"/>
<rect x="8" y="40" width="4" height="4" fill="white"/>
<rect x="4" y="40" width="4" height="4" fill="#FFCB29"/>
<rect x="8" y="36" width="4" height="4" fill="white"/>
<rect x="4" y="36" width="4" height="4" fill="#FFCB29"/>
<rect x="12" y="36" width="4" height="4" fill="white"/>
<rect x="12" y="32" width="4" height="4" fill="white"/>
<rect x="12" y="28" width="4" height="4" fill="#FFCB29"/>
<rect x="8" y="32" width="4" height="4" fill="#FFCB29"/>
<rect x="16" y="32" width="4" height="4" fill="white"/>
<rect x="20" y="32" width="4" height="4" fill="white"/>
<rect x="20" y="28" width="4" height="4" fill="white"/>
<rect x="16" y="28" width="4" height="4" fill="#FFCB29"/>
<rect x="20" y="24" width="4" height="4" fill="white"/>
<rect x="16" y="24" width="4" height="4" fill="#FFCB29"/>
<rect x="24" y="24" width="4" height="4" fill="white"/>
<rect x="24" y="20" width="4" height="4" fill="white"/>
<rect x="20" y="20" width="4" height="4" fill="#FFCB29"/>
<rect x="28" y="20" width="4" height="4" fill="white"/>
<rect x="28" y="16" width="4" height="4" fill="white"/>
<rect x="24" y="16" width="4" height="4" fill="#FFCB29"/>
<rect x="28" y="12" width="4" height="4" fill="#FFCB29"/>
<rect x="32" y="16" width="4" height="4" fill="white"/>
<rect x="32" y="12" width="4" height="4" fill="#FFCB29"/>
<rect x="36" y="16" width="4" height="4" fill="white"/>
<rect x="36" y="12" width="4" height="4" fill="#FFCB29"/>
<rect x="40" y="16" width="4" height="4" fill="white"/>
<rect x="40" y="12" width="4" height="4" fill="#FFCB29"/>
<rect x="44" y="16" width="4" height="4" fill="white"/>
<rect x="44" y="12" width="4" height="4" fill="#FFCB29"/>
<rect x="48" y="16" width="4" height="4" fill="white"/>
<rect x="48" y="12" width="4" height="4" fill="#FFCB29"/>
<rect x="52" y="16" width="4" height="4" fill="white"/>
<rect x="52" y="12" width="4" height="4" fill="#FFCB29"/>
<rect x="56" y="16" width="4" height="4" fill="white"/>
<rect x="56" y="12" width="4" height="4" fill="#FFCB29"/>
<rect x="60" y="16" width="4" height="4" fill="white"/>
<rect x="60" y="12" width="4" height="4" fill="#FFCB29"/>
<rect x="64" y="20" width="4" height="4" fill="white"/>
<rect x="64" y="16" width="4" height="4" fill="white"/>
<rect x="64" y="12" width="4" height="4" fill="#FFCB29"/>
<rect x="68" y="16" width="4" height="4" fill="white"/>
<rect x="68" y="12" width="4" height="4" fill="#FFCB29"/>
<rect x="72" y="16" width="4" height="4" fill="white"/>
<rect x="72" y="12" width="4" height="4" fill="#FFCB29"/>
<rect x="76" y="16" width="4" height="4" fill="white"/>
<rect x="76" y="12" width="4" height="4" fill="#FFCB29"/>
<rect x="80" y="16" width="4" height="4" fill="white"/>
<rect x="80" y="12" width="4" height="4" fill="#FFCB29"/>
<rect x="84" y="16" width="4" height="4" fill="white"/>
<rect x="84" y="12" width="4" height="4" fill="#FFCB29"/>
<rect x="88" y="16" width="4" height="4" fill="white"/>
<rect x="88" y="12" width="4" height="4" fill="#FFCB29"/>
<rect x="92" y="16" width="4" height="4" fill="#FFCB29"/>
<rect x="96" y="20" width="4" height="4" fill="#FFCB29"/>
<rect x="100" y="24" width="4" height="4" fill="#FFCB29"/>
<rect x="100" y="28" width="4" height="4" fill="#FFCB29"/>
<rect x="104" y="28" width="4" height="4" fill="#FFCB29"/>
<rect x="108" y="32" width="4" height="4" fill="#FFCB29"/>
<rect x="112" y="36" width="4" height="4" fill="#FFCB29"/>
<rect x="112" y="40" width="4" height="4" fill="#FFCB29"/>
<rect x="88" y="20" width="4" height="4" fill="white"/>
<rect x="92" y="20" width="4" height="4" fill="white"/>
<rect x="92" y="24" width="4" height="4" fill="white"/>
<rect x="96" y="24" width="4" height="4" fill="white"/>
<rect x="96" y="28" width="4" height="4" fill="white"/>
<rect x="96" y="32" width="4" height="4" fill="white"/>
<rect x="100" y="32" width="4" height="4" fill="white"/>
<rect x="104" y="32" width="4" height="4" fill="white"/>
<rect x="104" y="36" width="4" height="4" fill="white"/>
<rect x="108" y="36" width="4" height="4" fill="white"/>
<rect x="108" y="40" width="4" height="4" fill="white"/>
<rect x="108" y="44" width="4" height="4" fill="white"/>
<rect x="112" y="44" width="4" height="4" fill="white"/>
<rect x="116" y="44" width="4" height="4" fill="#FFCB29"/>
<rect x="112" y="48" width="4" height="4" fill="white"/>
<rect x="116" y="48" width="4" height="4" fill="#FFCB29"/>
<rect x="112" y="52" width="4" height="4" fill="white"/>
<rect x="116" y="52" width="4" height="4" fill="#FFCB29"/>
<rect x="112" y="56" width="4" height="4" fill="white"/>
<rect x="116" y="56" width="4" height="4" fill="#FFCB29"/>
<rect x="112" y="60" width="4" height="4" fill="white"/>
<rect x="116" y="60" width="4" height="4" fill="#FFCB29"/>
<rect x="112" y="64" width="4" height="4" fill="white"/>
<rect x="116" y="64" width="4" height="4" fill="#FFCB29"/>
<rect x="112" y="68" width="4" height="4" fill="white"/>
<rect x="116" y="68" width="4" height="4" fill="#FFCB29"/>
<rect x="112" y="72" width="4" height="4" fill="white"/>
<rect x="116" y="72" width="4" height="4" fill="#FFCB29"/>
<rect x="112" y="76" width="4" height="4" fill="white"/>
<rect x="116" y="76" width="4" height="4" fill="#FFCB29"/>
<rect x="108" y="76" width="4" height="4" fill="white"/>
<rect x="108" y="80" width="4" height="4" fill="white"/>
<rect x="112" y="80" width="4" height="4" fill="#FFCB29"/>
<rect x="104" y="80" width="4" height="4" fill="white"/>
<rect x="104" y="84" width="4" height="4" fill="white"/>
<rect x="108" y="84" width="4" height="4" fill="#FFCB29"/>
<rect x="100" y="84" width="4" height="4" fill="white"/>
<rect x="100" y="88" width="4" height="4" fill="white"/>
<rect x="104" y="88" width="4" height="4" fill="#FFCB29"/>
<rect x="96" y="88" width="4" height="4" fill="white"/>
<rect x="96" y="92" width="4" height="4" fill="white"/>
<rect x="96" y="96" width="4" height="4" fill="#FFCB29"/>
<rect x="100" y="92" width="4" height="4" fill="#FFCB29"/>
<rect x="92" y="92" width="4" height="4" fill="white"/>
<rect x="88" y="92" width="4" height="4" fill="white"/>
<rect x="88" y="96" width="4" height="4" fill="white"/>
<rect x="88" y="100" width="4" height="4" fill="#FFCB29"/>
<rect x="92" y="96" width="4" height="4" fill="#FFCB29"/>
<rect x="84" y="96" width="4" height="4" fill="white"/>
<rect x="80" y="96" width="4" height="4" fill="white"/>
<rect x="80" y="100" width="4" height="4" fill="white"/>
<rect x="80" y="104" width="4" height="4" fill="#FFCB29"/>
<rect x="84" y="100" width="4" height="4" fill="#FFCB29"/>
<rect x="76" y="100" width="4" height="4" fill="white"/>
<rect x="76" y="104" width="4" height="4" fill="#FFCB29"/>
<rect x="72" y="100" width="4" height="4" fill="white"/>
<rect x="72" y="104" width="4" height="4" fill="#FFCB29"/>
<rect x="68" y="100" width="4" height="4" fill="white"/>
<rect x="68" y="104" width="4" height="4" fill="#FFCB29"/>
<rect x="64" y="100" width="4" height="4" fill="white"/>
<rect x="64" y="104" width="4" height="4" fill="#FFCB29"/>
<rect x="60" y="100" width="4" height="4" fill="white"/>
<rect x="60" y="104" width="4" height="4" fill="#FFCB29"/>
<rect x="56" y="100" width="4" height="4" fill="white"/>
<rect x="56" y="104" width="4" height="4" fill="#FFCB29"/>
<rect x="52" y="100" width="4" height="4" fill="white"/>
<rect x="52" y="104" width="4" height="4" fill="#FFCB29"/>
<rect x="48" y="100" width="4" height="4" fill="white"/>
<rect x="48" y="104" width="4" height="4" fill="#FFCB29"/>
<rect x="44" y="100" width="4" height="4" fill="white"/>
<rect x="44" y="104" width="4" height="4" fill="#FFCB29"/>
<rect x="40" y="100" width="4" height="4" fill="white"/>
<rect x="40" y="104" width="4" height="4" fill="#FFCB29"/>
<rect x="36" y="100" width="4" height="4" fill="white"/>
<rect x="36" y="104" width="4" height="4" fill="#FFCB29"/>
<rect x="36" y="96" width="4" height="4" fill="white"/>
<rect x="28" y="92" width="4" height="4" fill="white"/>
<rect x="20" y="88" width="4" height="4" fill="white"/>
<rect x="16" y="84" width="4" height="4" fill="white"/>
<rect x="12" y="80" width="4" height="4" fill="white"/>
<rect x="8" y="76" width="4" height="4" fill="white"/>
<rect x="32" y="96" width="4" height="4" fill="white"/>
<rect x="32" y="100" width="4" height="4" fill="#FFCB29"/>
<rect x="24" y="92" width="4" height="4" fill="white"/>
<rect x="24" y="96" width="4" height="4" fill="#FFCB29"/>
<rect x="16" y="88" width="4" height="4" fill="white"/>
<rect x="16" y="92" width="4" height="4" fill="#FFCB29"/>
<rect x="12" y="84" width="4" height="4" fill="white"/>
<rect x="12" y="88" width="4" height="4" fill="#FFCB29"/>
<rect x="8" y="80" width="4" height="4" fill="white"/>
<rect x="8" y="84" width="4" height="4" fill="#FFCB29"/>
<rect x="4" y="76" width="4" height="4" fill="white"/>
<rect y="76" width="4" height="4" fill="#FFCB29"/>
<rect x="4" y="80" width="4" height="4" fill="#FFCB29"/>
<rect x="4" y="72" width="4" height="4" fill="white"/>
<rect y="72" width="4" height="4" fill="#FFCB29"/>
<rect x="4" y="68" width="4" height="4" fill="white"/>
<rect y="68" width="4" height="4" fill="#FFCB29"/>
<rect x="4" y="64" width="4" height="4" fill="white"/>
<rect y="64" width="4" height="4" fill="#FFCB29"/>
<rect x="4" y="60" width="4" height="4" fill="white"/>
<rect y="60" width="4" height="4" fill="#FFCB29"/>
<rect x="4" y="56" width="4" height="4" fill="white"/>
<rect y="56" width="4" height="4" fill="#FFCB29"/>
<rect x="4" y="52" width="4" height="4" fill="white"/>
<rect y="52" width="4" height="4" fill="#FFCB29"/>
<rect x="28" y="96" width="4" height="4" fill="white"/>
<rect x="28" y="100" width="4" height="4" fill="#FFCB29"/>
<rect x="20" y="92" width="4" height="4" fill="white"/>
<rect x="20" y="96" width="4" height="4" fill="#FFCB29"/>
<rect x="108" y="52" width="4" height="4" fill="black"/>
<rect x="8" y="52" width="4" height="4" fill="black"/>
<rect x="108" y="68" width="4" height="4" fill="black"/>
<rect x="8" y="68" width="4" height="4" fill="black"/>
<rect x="108" y="72" width="4" height="4" fill="black"/>
<rect x="8" y="72" width="4" height="4" fill="black"/>
<rect width="4" height="4" transform="matrix(-1 0 0 1 104 36)" fill="black"/>
<rect width="4" height="4" transform="matrix(-1 0 0 1 108 40)" fill="black"/>
<rect width="4" height="4" transform="matrix(-1 0 0 1 108 44)" fill="black"/>
<rect width="4" height="4" transform="matrix(-1 0 0 1 20 36)" fill="black"/>
<rect width="4" height="4" transform="matrix(-1 0 0 1 16 40)" fill="black"/>
<rect width="4" height="4" transform="matrix(-1 0 0 1 16 44)" fill="black"/>
<rect x="20" y="36" width="4" height="4" fill="black"/>
<rect x="56" y="36" width="4" height="4" fill="black"/>
<rect x="80" y="36" width="4" height="4" fill="black"/>
<rect x="72" y="36" width="4" height="4" fill="black"/>
<rect x="96" y="36" width="4" height="4" fill="black"/>
<rect x="24" y="32" width="4" height="4" fill="black"/>
<rect width="4" height="4" transform="matrix(1 0 0 -1 24 60)" fill="black"/>
<rect x="24" y="28" width="4" height="4" fill="black"/>
<rect width="4" height="4" transform="matrix(1 0 0 -1 24 64)" fill="black"/>
<rect x="28" y="24" width="4" height="4" fill="black"/>
<rect width="4" height="4" transform="matrix(1 0 0 -1 28 68)" fill="black"/>
<rect x="32" y="20" width="4" height="4" fill="black"/>
<rect width="4" height="4" transform="matrix(1 0 0 -1 32 72)" fill="black"/>
<rect x="36" y="20" width="4" height="4" fill="black"/>
<rect width="4" height="4" transform="matrix(1 0 0 -1 36 72)" fill="black"/>
<rect x="40" y="20" width="4" height="4" fill="black"/>
<rect width="4" height="4" transform="matrix(1 0 0 -1 40 72)" fill="black"/>
<rect x="44" y="20" width="4" height="4" fill="black"/>
<rect x="68" y="20" width="4" height="4" fill="black"/>
<rect x="48" y="20" width="4" height="4" fill="black"/>
<rect x="72" y="20" width="4" height="4" fill="black"/>
<rect x="52" y="20" width="4" height="4" fill="black"/>
<rect x="76" y="20" width="4" height="4" fill="black"/>
<rect x="56" y="20" width="4" height="4" fill="black"/>
<rect x="80" y="20" width="4" height="4" fill="black"/>
<rect x="60" y="20" width="4" height="4" fill="black"/>
<rect x="84" y="20" width="4" height="4" fill="black"/>
<rect x="64" y="24" width="4" height="4" fill="black"/>
<rect x="88" y="24" width="4" height="4" fill="black"/>
<rect width="4" height="4" transform="matrix(1 0 0 -1 44 72)" fill="black"/>
<rect width="4" height="4" transform="matrix(1 0 0 -1 68 72)" fill="black"/>
<rect x="48" y="24" width="4" height="4" fill="black"/>
<rect x="72" y="24" width="4" height="4" fill="black"/>
<rect x="52" y="24" width="4" height="4" fill="#3A3E41"/>
<rect x="76" y="24" width="4" height="4" fill="#3A3E41"/>
<rect x="32" y="24" width="4" height="4" fill="#FFEDAF"/>
<rect x="32" y="28" width="4" height="4" fill="#FFC700"/>
<rect x="28" y="28" width="4" height="4" fill="#FFDD65"/>
<rect x="48" y="28" width="4" height="4" fill="#FFDD65"/>
<rect x="32" y="32" width="4" height="4" fill="#FFDD65"/>
<rect x="28" y="32" width="4" height="4" fill="#FFC700"/>
<rect x="48" y="32" width="4" height="4" fill="#FFC700"/>
<rect x="32" y="36" width="4" height="4" fill="#FF6C00"/>
<rect x="28" y="36" width="4" height="4" fill="#FFDD65"/>
<rect x="48" y="36" width="4" height="4" fill="#FFEDAF"/>
<rect x="52" y="36" width="4" height="4" fill="#FFDD65"/>
<rect x="76" y="36" width="4" height="4" fill="#FFEDAF"/>
<rect x="24" y="36" width="4" height="4" fill="#FFDD65"/>
<rect x="32" y="40" width="4" height="4" fill="#FF6C00"/>
<rect x="28" y="40" width="4" height="4" fill="#FF6C00"/>
<rect x="48" y="40" width="4" height="4" fill="#FFDD65"/>
<rect x="52" y="40" width="4" height="4" fill="#FFDD65"/>
<rect x="76" y="40" width="4" height="4" fill="#FFDD65"/>
<rect x="24" y="40" width="4" height="4" fill="#FFC700"/>
<rect x="32" y="44" width="4" height="4" fill="#FF4D00"/>
<rect x="28" y="44" width="4" height="4" fill="#FF4D00"/>
<rect x="48" y="44" width="4" height="4" fill="#00C143"/>
<rect x="52" y="44" width="4" height="4" fill="#FFDD65"/>
<rect x="76" y="44" width="4" height="4" fill="#FFC700"/>
<rect x="24" y="44" width="4" height="4" fill="#FFDD65"/>
<rect x="32" y="48" width="4" height="4" fill="#FF4C00"/>
<rect x="28" y="48" width="4" height="4" fill="#FFEDAF"/>
<rect x="48" y="48" width="4" height="4" fill="#005C2A"/>
<rect x="52" y="48" width="4" height="4" fill="#FFC700"/>
<rect x="76" y="48" width="4" height="4" fill="#FFC700"/>
<rect x="24" y="48" width="4" height="4" fill="#FFDD65"/>
<rect x="32" y="52" width="4" height="4" fill="#FFBEB9"/>
<rect x="28" y="52" width="4" height="4" fill="#FFDD65"/>
<rect x="48" y="52" width="4" height="4" fill="#FFDD65"/>
<rect x="52" y="52" width="4" height="4" fill="#FFC700"/>
<rect x="76" y="52" width="4" height="4" fill="#FFDD65"/>
<rect x="24" y="52" width="4" height="4" fill="#FFDD65"/>
<rect x="32" y="56" width="4" height="4" fill="#FFDD65"/>
<rect x="28" y="56" width="4" height="4" fill="#FFC700"/>
<rect x="48" y="56" width="4" height="4" fill="#FFDD65"/>
<rect x="32" y="60" width="4" height="4" fill="#FFEDAF"/>
<rect x="28" y="60" width="4" height="4" fill="#FFDD65"/>
<rect x="48" y="60" width="4" height="4" fill="#FFC700"/>
<rect x="32" y="64" width="4" height="4" fill="#FFDD65"/>
<rect x="36" y="24" width="4" height="4" fill="#FFDD65"/>
<rect x="36" y="28" width="4" height="4" fill="#FFDD65"/>
<rect x="36" y="32" width="4" height="4" fill="#FF4C00"/>
<rect x="36" y="36" width="4" height="4" fill="#FF6C00"/>
<rect x="36" y="40" width="4" height="4" fill="#FF4C00"/>
<rect x="36" y="44" width="4" height="4" fill="#FF4D00"/>
<rect x="36" y="48" width="4" height="4" fill="#00C143"/>
<rect x="36" y="52" width="4" height="4" fill="#FFBEB9"/>
<rect x="36" y="56" width="4" height="4" fill="#FFE1DF"/>
<rect x="36" y="60" width="4" height="4" fill="#FFDD65"/>
<rect x="36" y="64" width="4" height="4" fill="#FFC700"/>
<rect x="40" y="24" width="4" height="4" fill="#FFC700"/>
<rect x="40" y="28" width="4" height="4" fill="#FFDD65"/>
<rect x="40" y="32" width="4" height="4" fill="#FF6C00"/>
<rect x="40" y="36" width="4" height="4" fill="#FF6C00"/>
<rect x="40" y="40" width="4" height="4" fill="#00C143"/>
<rect x="40" y="44" width="4" height="4" fill="#005C2A"/>
<rect x="40" y="48" width="4" height="4" fill="#00C143"/>
<rect x="40" y="52" width="4" height="4" fill="#FFBEB9"/>
<rect x="40" y="56" width="4" height="4" fill="#FFE1DF"/>
<rect x="40" y="60" width="4" height="4" fill="#FFDD65"/>
<rect x="40" y="64" width="4" height="4" fill="#FFC700"/>
<rect x="44" y="24" width="4" height="4" fill="#FFDD65"/>
<rect x="68" y="24" width="4" height="4" fill="#FFEDAF"/>
<rect x="72" y="28" width="4" height="4" fill="#FFC700"/>
<rect x="72" y="32" width="4" height="4" fill="#FFC700"/>
<rect x="72" y="56" width="4" height="4" fill="#FFDD65"/>
<rect x="72" y="60" width="4" height="4" fill="#FFDD65"/>
<rect x="44" y="28" width="4" height="4" fill="#FFEDAF"/>
<rect x="44" y="32" width="4" height="4" fill="#FFDD65"/>
<rect x="44" y="36" width="4" height="4" fill="#FF4C00"/>
<rect x="44" y="40" width="4" height="4" fill="#00C143"/>
<rect x="44" y="44" width="4" height="4" fill="#00C143"/>
<rect x="44" y="48" width="4" height="4" fill="#005C2A"/>
<rect x="44" y="52" width="4" height="4" fill="#FFE1DF"/>
<rect x="44" y="56" width="4" height="4" fill="#FFC700"/>
<rect x="44" y="60" width="4" height="4" fill="#FFDD65"/>
<rect x="44" y="64" width="4" height="4" fill="#FFC700"/>
<rect x="68" y="64" width="4" height="4" fill="#FFC700"/>
<rect x="56" y="28" width="4" height="4" fill="#3A3E41"/>
<rect x="80" y="28" width="4" height="4" fill="#3A3E41"/>
<rect x="56" y="32" width="4" height="4" fill="#3A3E41"/>
<rect x="80" y="32" width="4" height="4" fill="#3A3E41"/>
<rect x="60" y="36" width="4" height="4" fill="#3A3E41"/>
<rect x="84" y="36" width="4" height="4" fill="#3A3E41"/>
<rect x="60" y="40" width="4" height="4" fill="#3A3E41"/>
<rect x="84" y="40" width="4" height="4" fill="#3A3E41"/>
<rect x="60" y="44" width="4" height="4" fill="#3A3E41"/>
<rect x="84" y="44" width="4" height="4" fill="#3A3E41"/>
<rect x="60" y="48" width="4" height="4" fill="#3A3E41"/>
<rect x="84" y="48" width="4" height="4" fill="#3A3E41"/>
<rect x="60" y="52" width="4" height="4" fill="#3A3E41"/>
<rect x="84" y="52" width="4" height="4" fill="#3A3E41"/>
<rect x="56" y="56" width="4" height="4" fill="#3A3E41"/>
<rect x="80" y="56" width="4" height="4" fill="#3A3E41"/>
<rect x="56" y="60" width="4" height="4" fill="#3A3E41"/>
<rect x="80" y="60" width="4" height="4" fill="#3A3E41"/>
<rect x="52" y="64" width="4" height="4" fill="#3A3E41"/>
<rect x="76" y="64" width="4" height="4" fill="#3A3E41"/>
<rect x="56" y="24" width="4" height="4" fill="#3A3E41"/>
<rect x="80" y="24" width="4" height="4" fill="#3A3E41"/>
<rect x="60" y="28" width="4" height="4" fill="#3A3E41"/>
<rect x="84" y="28" width="4" height="4" fill="#3A3E41"/>
<rect x="60" y="32" width="4" height="4" fill="#3A3E41"/>
<rect x="84" y="32" width="4" height="4" fill="#3A3E41"/>
<rect x="64" y="36" width="4" height="4" fill="#3A3E41"/>
<rect x="88" y="36" width="4" height="4" fill="#3A3E41"/>
<rect x="64" y="40" width="4" height="4" fill="#3A3E41"/>
<rect x="88" y="40" width="4" height="4" fill="#3A3E41"/>
<rect x="64" y="44" width="4" height="4" fill="#3A3E41"/>
<rect x="88" y="44" width="4" height="4" fill="#3A3E41"/>
<rect x="64" y="48" width="4" height="4" fill="#3A3E41"/>
<rect x="88" y="48" width="4" height="4" fill="#3A3E41"/>
<rect x="64" y="52" width="4" height="4" fill="#3A3E41"/>
<rect x="88" y="52" width="4" height="4" fill="#3A3E41"/>
<rect x="60" y="56" width="4" height="4" fill="#3A3E41"/>
<rect x="84" y="56" width="4" height="4" fill="#3A3E41"/>
<rect x="60" y="60" width="4" height="4" fill="#3A3E41"/>
<rect x="84" y="60" width="4" height="4" fill="#3A3E41"/>
<rect x="56" y="64" width="4" height="4" fill="#3A3E41"/>
<rect x="80" y="64" width="4" height="4" fill="#3A3E41"/>
<rect x="60" y="24" width="4" height="4" fill="#3A3E41"/>
<rect x="84" y="24" width="4" height="4" fill="#3A3E41"/>
<rect x="64" y="28" width="4" height="4" fill="#3A3E41"/>
<rect x="88" y="28" width="4" height="4" fill="#3A3E41"/>
<rect x="64" y="32" width="4" height="4" fill="#3A3E41"/>
<rect x="88" y="32" width="4" height="4" fill="#3A3E41"/>
<rect x="68" y="36" width="4" height="4" fill="#3A3E41"/>
<rect x="92" y="36" width="4" height="4" fill="#3A3E41"/>
<rect x="68" y="40" width="4" height="4" fill="#3A3E41"/>
<rect x="92" y="40" width="4" height="4" fill="#3A3E41"/>
<rect x="68" y="44" width="4" height="4" fill="#3A3E41"/>
<rect x="92" y="44" width="4" height="4" fill="#3A3E41"/>
<rect x="68" y="48" width="4" height="4" fill="#3A3E41"/>
<rect x="92" y="48" width="4" height="4" fill="#3A3E41"/>
<rect x="68" y="52" width="4" height="4" fill="#3A3E41"/>
<rect x="92" y="52" width="4" height="4" fill="#3A3E41"/>
<rect x="64" y="56" width="4" height="4" fill="#3A3E41"/>
<rect x="88" y="56" width="4" height="4" fill="#3A3E41"/>
<rect x="64" y="60" width="4" height="4" fill="#3A3E41"/>
<rect x="88" y="60" width="4" height="4" fill="#3A3E41"/>
<rect x="60" y="64" width="4" height="4" fill="#3A3E41"/>
<rect x="84" y="64" width="4" height="4" fill="#3A3E41"/>
<rect width="4" height="4" transform="matrix(1 0 0 -1 48 68)" fill="black"/>
<rect width="4" height="4" transform="matrix(1 0 0 -1 72 68)" fill="black"/>
<rect width="4" height="4" transform="matrix(1 0 0 -1 64 68)" fill="black"/>
<rect width="4" height="4" transform="matrix(1 0 0 -1 88 68)" fill="black"/>
<rect width="4" height="4" transform="matrix(1 0 0 -1 60 72)" fill="black"/>
<rect width="4" height="4" transform="matrix(1 0 0 -1 84 72)" fill="black"/>
<rect width="4" height="4" transform="matrix(1 0 0 -1 56 72)" fill="black"/>
<rect width="4" height="4" transform="matrix(1 0 0 -1 80 72)" fill="black"/>
<rect width="4" height="4" transform="matrix(1 0 0 -1 52 72)" fill="black"/>
<rect width="4" height="4" transform="matrix(1 0 0 -1 76 72)" fill="black"/>
<rect width="4" height="4" transform="matrix(1 0 0 -1 48 72)" fill="black"/>
<rect width="4" height="4" transform="matrix(1 0 0 -1 72 72)" fill="black"/>
<rect x="52" y="28" width="4" height="4" fill="black"/>
<rect x="76" y="28" width="4" height="4" fill="black"/>
<rect x="68" y="28" width="4" height="4" fill="black"/>
<rect x="92" y="28" width="4" height="4" fill="black"/>
<rect width="4" height="4" transform="matrix(1 0 0 -1 52 64)" fill="black"/>
<rect width="4" height="4" transform="matrix(1 0 0 -1 76 64)" fill="black"/>
<rect width="4" height="4" transform="matrix(1 0 0 -1 68 64)" fill="black"/>
<rect width="4" height="4" transform="matrix(1 0 0 -1 92 64)" fill="black"/>
<rect x="52" y="32" width="4" height="4" fill="black"/>
<rect x="76" y="32" width="4" height="4" fill="black"/>
<rect x="68" y="32" width="4" height="4" fill="black"/>
<rect x="92" y="32" width="4" height="4" fill="black"/>
<rect width="4" height="4" transform="matrix(1 0 0 -1 52 60)" fill="black"/>
<rect width="4" height="4" transform="matrix(1 0 0 -1 76 60)" fill="black"/>
<rect width="4" height="4" transform="matrix(1 0 0 -1 68 60)" fill="black"/>
<rect width="4" height="4" transform="matrix(1 0 0 -1 92 60)" fill="black"/>
<rect x="20" y="40" width="4" height="4" fill="black"/>
<rect x="56" y="40" width="4" height="4" fill="black"/>
<rect x="80" y="40" width="4" height="4" fill="black"/>
<rect x="72" y="40" width="4" height="4" fill="black"/>
<rect x="96" y="40" width="4" height="4" fill="black"/>
<rect x="20" y="44" width="4" height="4" fill="black"/>
<rect x="56" y="44" width="4" height="4" fill="black"/>
<rect x="80" y="44" width="4" height="4" fill="black"/>
<rect x="72" y="44" width="4" height="4" fill="black"/>
<rect x="96" y="44" width="4" height="4" fill="black"/>
<rect x="20" y="48" width="4" height="4" fill="black"/>
<rect x="56" y="48" width="4" height="4" fill="black"/>
<rect x="80" y="48" width="4" height="4" fill="black"/>
<rect x="72" y="48" width="4" height="4" fill="black"/>
<rect x="96" y="48" width="4" height="4" fill="black"/>
<rect x="20" y="52" width="4" height="4" fill="black"/>
<rect x="56" y="52" width="4" height="4" fill="black"/>
<rect x="80" y="52" width="4" height="4" fill="black"/>
<rect x="72" y="52" width="4" height="4" fill="black"/>
<rect x="96" y="52" width="4" height="4" fill="black"/>
<rect width="4" height="4" transform="matrix(-1 0 0 1 24 40)" fill="black"/>
<rect x="20" y="44" width="4" height="4" fill="black"/>
<rect x="16" y="76" width="4" height="4" fill="#BAC1C8"/>
<rect x="32" y="72" width="4" height="4" fill="#BAC1C8"/>
<rect x="36" y="72" width="4" height="4" fill="#BAC1C8"/>
<rect x="40" y="72" width="4" height="4" fill="#BAC1C8"/>
<rect x="44" y="72" width="4" height="4" fill="#BAC1C8"/>
<rect x="48" y="72" width="4" height="4" fill="#BAC1C8"/>
<rect x="52" y="72" width="4" height="4" fill="#BAC1C8"/>
<rect x="56" y="72" width="4" height="4" fill="#BAC1C8"/>
<rect x="60" y="72" width="4" height="4" fill="#BAC1C8"/>
<rect x="64" y="72" width="4" height="4" fill="#BAC1C8"/>
<rect x="64" y="68" width="4" height="4" fill="#BAC1C8"/>
<rect x="68" y="72" width="4" height="4" fill="#BAC1C8"/>
<rect x="72" y="72" width="4" height="4" fill="#BAC1C8"/>
<rect x="76" y="72" width="4" height="4" fill="#BAC1C8"/>
<rect x="80" y="72" width="4" height="4" fill="#BAC1C8"/>
<rect x="84" y="72" width="4" height="4" fill="#BAC1C8"/>
<rect x="88" y="68" width="4" height="4" fill="#BAC1C8"/>
<rect x="96" y="60" width="4" height="4" fill="#BAC1C8"/>
<rect x="100" y="52" width="4" height="4" fill="#BAC1C8"/>
<rect x="96" y="56" width="4" height="4" fill="#BAC1C8"/>
<rect x="100" y="48" width="4" height="4" fill="#BAC1C8"/>
<rect x="100" y="44" width="4" height="4" fill="#BAC1C8"/>
<rect x="100" y="40" width="4" height="4" fill="#BAC1C8"/>
<rect x="92" y="64" width="4" height="4" fill="#BAC1C8"/>
<rect x="88" y="84" width="4" height="4" fill="#BAC1C8"/>
<rect x="92" y="84" width="4" height="4" fill="#BAC1C8"/>
<rect x="96" y="80" width="4" height="4" fill="#BAC1C8"/>
<rect x="100" y="76" width="4" height="4" fill="#BAC1C8"/>
<rect x="104" y="72" width="4" height="4" fill="#BAC1C8"/>
<rect x="20" y="80" width="4" height="4" fill="#BAC1C8"/>
<rect x="24" y="84" width="4" height="4" fill="#BAC1C8"/>
<rect x="28" y="84" width="4" height="4" fill="#BAC1C8"/>
<rect x="32" y="88" width="4" height="4" fill="#BAC1C8"/>
<rect x="36" y="88" width="4" height="4" fill="#BAC1C8"/>
<rect x="40" y="92" width="4" height="4" fill="#BAC1C8"/>
<rect x="44" y="92" width="4" height="4" fill="#BAC1C8"/>
<rect x="48" y="92" width="4" height="4" fill="#BAC1C8"/>
<rect x="52" y="92" width="4" height="4" fill="#BAC1C8"/>
<rect x="56" y="92" width="4" height="4" fill="#BAC1C8"/>
<rect x="60" y="92" width="4" height="4" fill="#BAC1C8"/>
<rect x="64" y="92" width="4" height="4" fill="#BAC1C8"/>
<rect x="68" y="92" width="4" height="4" fill="#BAC1C8"/>
<rect x="72" y="92" width="4" height="4" fill="#BAC1C8"/>
<rect x="76" y="92" width="4" height="4" fill="#BAC1C8"/>
<rect x="80" y="88" width="4" height="4" fill="#BAC1C8"/>
<rect x="84" y="88" width="4" height="4" fill="#BAC1C8"/>
<rect x="12" y="72" width="4" height="4" fill="#BAC1C8"/>
<rect x="16" y="72" width="4" height="4" fill="#F3F7FA"/>
<rect x="100" y="72" width="4" height="4" fill="#F3F7FA"/>
<rect x="104" y="68" width="4" height="4" fill="#F3F7FA"/>
<rect x="20" y="76" width="4" height="4" fill="#F3F7FA"/>
<rect x="24" y="80" width="4" height="4" fill="#F3F7FA"/>
<rect x="28" y="80" width="4" height="4" fill="#F3F7FA"/>
<rect x="32" y="84" width="4" height="4" fill="#F3F7FA"/>
<rect x="36" y="84" width="4" height="4" fill="#F3F7FA"/>
<rect x="84" y="84" width="4" height="4" fill="#F3F7FA"/>
<rect x="80" y="84" width="4" height="4" fill="#F3F7FA"/>
<rect x="88" y="80" width="4" height="4" fill="#F3F7FA"/>
<rect x="92" y="80" width="4" height="4" fill="#F3F7FA"/>
<rect x="96" y="76" width="4" height="4" fill="#F3F7FA"/>
<rect x="40" y="88" width="4" height="4" fill="#F3F7FA"/>
<rect x="44" y="88" width="4" height="4" fill="#F3F7FA"/>
<rect x="48" y="88" width="4" height="4" fill="#F3F7FA"/>
<rect x="52" y="88" width="4" height="4" fill="#F3F7FA"/>
<rect x="56" y="88" width="4" height="4" fill="#F3F7FA"/>
<rect x="60" y="88" width="4" height="4" fill="#F3F7FA"/>
<rect x="64" y="88" width="4" height="4" fill="#F3F7FA"/>
<rect x="68" y="88" width="4" height="4" fill="#F3F7FA"/>
<rect x="72" y="88" width="4" height="4" fill="#F3F7FA"/>
<rect x="76" y="88" width="4" height="4" fill="#F3F7FA"/>
<rect x="12" y="68" width="4" height="4" fill="#F3F7FA"/>
<rect x="16" y="48" width="4" height="4" fill="#E1E2E3"/>
<rect x="16" y="44" width="4" height="4" fill="#E1E2E3"/>
<rect x="16" y="40" width="4" height="4" fill="#E1E2E3"/>
<rect x="16" y="52" width="4" height="4" fill="#E1E2E3"/>
<rect x="16" y="56" width="4" height="4" fill="#E1E2E3"/>
<rect x="16" y="60" width="4" height="4" fill="#E1E2E3"/>
<rect x="16" y="64" width="4" height="4" fill="#E1E2E3"/>
<rect x="16" y="68" width="4" height="4" fill="#E1E2E3"/>
<rect x="20" y="56" width="4" height="4" fill="#E1E2E3"/>
<rect x="20" y="60" width="4" height="4" fill="#E1E2E3"/>
<rect x="24" y="64" width="4" height="4" fill="#E1E2E3"/>
<rect x="20" y="64" width="4" height="4" fill="#E1E2E3"/>
<rect x="24" y="68" width="4" height="4" fill="#E1E2E3"/>
<rect x="28" y="68" width="4" height="4" fill="#E1E2E3"/>
<rect x="92" y="68" width="4" height="4" fill="#E1E2E3"/>
<rect x="96" y="64" width="4" height="4" fill="#E1E2E3"/>
<rect x="100" y="64" width="4" height="4" fill="#E1E2E3"/>
<rect x="104" y="60" width="4" height="4" fill="#E1E2E3"/>
<rect x="100" y="60" width="4" height="4" fill="#E1E2E3"/>
<rect x="104" y="56" width="4" height="4" fill="#E1E2E3"/>
<rect x="100" y="56" width="4" height="4" fill="#E1E2E3"/>
<rect x="104" y="52" width="4" height="4" fill="#E1E2E3"/>
<rect x="104" y="48" width="4" height="4" fill="#E1E2E3"/>
<rect x="20" y="68" width="4" height="4" fill="#E1E2E3"/>
<rect x="24" y="72" width="4" height="4" fill="#E1E2E3"/>
<rect x="28" y="72" width="4" height="4" fill="#E1E2E3"/>
<rect x="32" y="76" width="4" height="4" fill="#E1E2E3"/>
<rect x="36" y="76" width="4" height="4" fill="#E1E2E3"/>
<rect x="40" y="76" width="4" height="4" fill="#E1E2E3"/>
<rect x="44" y="76" width="4" height="4" fill="#E1E2E3"/>
<rect x="48" y="76" width="4" height="4" fill="#E1E2E3"/>
<rect x="52" y="76" width="4" height="4" fill="#E1E2E3"/>
<rect x="56" y="76" width="4" height="4" fill="#E1E2E3"/>
<rect x="60" y="76" width="4" height="4" fill="#E1E2E3"/>
<rect x="64" y="76" width="4" height="4" fill="#E1E2E3"/>
<rect x="68" y="76" width="4" height="4" fill="#E1E2E3"/>
<rect x="72" y="76" width="4" height="4" fill="#E1E2E3"/>
<rect x="76" y="76" width="4" height="4" fill="#E1E2E3"/>
<rect x="84" y="76" width="4" height="4" fill="#E1E2E3"/>
<rect x="80" y="76" width="4" height="4" fill="#E1E2E3"/>
<rect x="88" y="72" width="4" height="4" fill="#E1E2E3"/>
<rect x="92" y="72" width="4" height="4" fill="#E1E2E3"/>
<rect x="96" y="68" width="4" height="4" fill="#E1E2E3"/>
<rect x="100" y="68" width="4" height="4" fill="#E1E2E3"/>
<rect x="104" y="64" width="4" height="4" fill="#E1E2E3"/>
<rect x="20" y="72" width="4" height="4" fill="#E1E2E3"/>
<rect x="24" y="76" width="4" height="4" fill="#E1E2E3"/>
<rect x="28" y="76" width="4" height="4" fill="#E1E2E3"/>
<rect x="32" y="80" width="4" height="4" fill="#E1E2E3"/>
<rect x="36" y="80" width="4" height="4" fill="#E1E2E3"/>
<rect x="40" y="80" width="4" height="4" fill="#E1E2E3"/>
<rect x="44" y="80" width="4" height="4" fill="#E1E2E3"/>
<rect x="48" y="80" width="4" height="4" fill="#E1E2E3"/>
<rect x="52" y="80" width="4" height="4" fill="#E1E2E3"/>
<rect x="56" y="80" width="4" height="4" fill="#E1E2E3"/>
<rect x="60" y="80" width="4" height="4" fill="#E1E2E3"/>
<rect x="64" y="80" width="4" height="4" fill="#E1E2E3"/>
<rect x="68" y="80" width="4" height="4" fill="#E1E2E3"/>
<rect x="72" y="80" width="4" height="4" fill="#E1E2E3"/>
<rect x="84" y="80" width="4" height="4" fill="#E1E2E3"/>
<rect x="76" y="80" width="4" height="4" fill="#E1E2E3"/>
<rect x="80" y="80" width="4" height="4" fill="#E1E2E3"/>
<rect x="88" y="76" width="4" height="4" fill="#E1E2E3"/>
<rect x="92" y="76" width="4" height="4" fill="#E1E2E3"/>
<rect x="96" y="72" width="4" height="4" fill="#E1E2E3"/>
<rect x="40" y="84" width="4" height="4" fill="#E1E2E3"/>
<rect x="44" y="84" width="4" height="4" fill="#E1E2E3"/>
<rect x="48" y="84" width="4" height="4" fill="#E1E2E3"/>
<rect x="52" y="84" width="4" height="4" fill="#E1E2E3"/>
<rect x="56" y="84" width="4" height="4" fill="#E1E2E3"/>
<rect x="60" y="84" width="4" height="4" fill="#E1E2E3"/>
<rect x="64" y="84" width="4" height="4" fill="#E1E2E3"/>
<rect x="68" y="84" width="4" height="4" fill="#E1E2E3"/>
<rect x="72" y="84" width="4" height="4" fill="#E1E2E3"/>
<rect x="76" y="84" width="4" height="4" fill="#E1E2E3"/>
<rect x="12" y="52" width="4" height="4" fill="#E1E2E3"/>
<rect x="12" y="48" width="4" height="4" fill="#E1E2E3"/>
<rect x="12" y="56" width="4" height="4" fill="#E1E2E3"/>
<rect x="12" y="60" width="4" height="4" fill="#E1E2E3"/>
<rect x="12" y="64" width="4" height="4" fill="#E1E2E3"/>
</svg>
