<svg width="160" height="160" viewBox="0 0 160 160" fill="none" xmlns="http://www.w3.org/2000/svg">
<rect opacity="0.5" x="28" y="28" width="104" height="104" fill="#D9D9D9"/>
<rect width="5.33333" height="5.33333" transform="matrix(-1 0 0 1 80 133.333)" fill="black"/>
<rect width="5.33333" height="5.33333" transform="matrix(-1 0 0 1 80 138.667)" fill="white"/>
<rect width="5.33333" height="5.33333" transform="matrix(-1 0 0 1 80 144)" fill="#FFCB29"/>
<rect width="5.33333" height="5.33333" transform="matrix(-1 0 0 1 74.6667 133.333)" fill="black"/>
<rect width="5.33333" height="5.33333" transform="matrix(-1 0 0 1 74.6667 138.667)" fill="white"/>
<rect width="5.33333" height="5.33333" transform="matrix(-1 0 0 1 74.6667 144)" fill="#FFCB29"/>
<rect width="5.33333" height="5.33333" transform="matrix(-1 0 0 1 69.3333 133.333)" fill="black"/>
<rect width="5.33333" height="5.33333" transform="matrix(-1 0 0 1 69.3333 138.667)" fill="white"/>
<rect width="5.33333" height="5.33333" transform="matrix(-1 0 0 1 69.3333 144)" fill="#FFCB29"/>
<rect width="5.33333" height="5.33333" transform="matrix(-1 0 0 1 64 133.333)" fill="black"/>
<rect width="5.33333" height="5.33333" transform="matrix(-1 0 0 1 64 138.667)" fill="white"/>
<rect width="5.33333" height="5.33333" transform="matrix(-1 0 0 1 64 144)" fill="#FFCB29"/>
<rect width="5.33333" height="5.33333" transform="matrix(-1 0 0 1 58.6667 133.333)" fill="black"/>
<rect width="5.33333" height="5.33333" transform="matrix(-1 0 0 1 58.6667 138.667)" fill="white"/>
<rect width="5.33333" height="5.33333" transform="matrix(-1 0 0 1 58.6667 144)" fill="#FFCB29"/>
<rect width="5.33333" height="5.33333" transform="matrix(-1 0 0 1 53.3333 128)" fill="black"/>
<rect width="5.33333" height="5.33333" transform="matrix(-1 0 0 1 53.3333 133.333)" fill="white"/>
<rect width="5.33333" height="5.33333" transform="matrix(-1 0 0 1 53.3333 138.667)" fill="white"/>
<rect width="5.33333" height="5.33333" transform="matrix(-1 0 0 1 53.3333 144)" fill="#FFCB29"/>
<rect width="5.33333" height="5.33333" transform="matrix(-1 0 0 1 48 128)" fill="black"/>
<rect width="5.33333" height="5.33333" transform="matrix(-1 0 0 1 48 133.333)" fill="white"/>
<rect width="5.33333" height="5.33333" transform="matrix(-1 0 0 1 48 138.667)" fill="#FFCB29"/>
<rect width="5.33333" height="5.33333" transform="matrix(-1 0 0 1 42.6667 122.667)" fill="black"/>
<rect width="5.33333" height="5.33333" transform="matrix(-1 0 0 1 42.6667 128)" fill="white"/>
<rect width="5.33333" height="5.33333" transform="matrix(-1 0 0 1 42.6667 133.333)" fill="white"/>
<rect width="5.33333" height="5.33333" transform="matrix(-1 0 0 1 42.6667 138.667)" fill="#FFCB29"/>
<rect width="5.33333" height="5.33333" transform="matrix(-1 0 0 1 37.3333 122.667)" fill="black"/>
<rect width="5.33333" height="5.33333" transform="matrix(-1 0 0 1 37.3333 128)" fill="white"/>
<rect width="5.33333" height="5.33333" transform="matrix(-1 0 0 1 37.3333 133.333)" fill="#FFCB29"/>
<rect width="5.33333" height="5.33333" transform="matrix(-1 0 0 1 32 128)" fill="white"/>
<rect width="5.33333" height="5.33333" transform="matrix(-1 0 0 1 32 133.333)" fill="#FFCB29"/>
<rect width="5.33333" height="5.33333" transform="matrix(-1 0 0 1 26.6667 112)" fill="black"/>
<rect width="5.33333" height="5.33333" transform="matrix(-1 0 0 1 26.6667 117.333)" fill="white"/>
<rect width="5.33333" height="5.33333" transform="matrix(-1 0 0 1 21.3333 117.333)" fill="white"/>
<rect width="5.33333" height="5.33333" transform="matrix(-1 0 0 1 21.3333 122.667)" fill="#FFCB29"/>
<rect width="5.33333" height="5.33333" transform="matrix(-1 0 0 1 32 117.333)" fill="black"/>
<rect width="5.33333" height="5.33333" transform="matrix(-1 0 0 1 32 122.667)" fill="white"/>
<rect width="5.33333" height="5.33333" transform="matrix(-1 0 0 1 26.6667 122.667)" fill="white"/>
<rect width="5.33333" height="5.33333" transform="matrix(-1 0 0 1 26.6667 128)" fill="#FFCB29"/>
<rect width="5.33333" height="5.33333" transform="matrix(-1 0 0 1 21.3333 106.667)" fill="black"/>
<rect width="5.33333" height="5.33333" transform="matrix(-1 0 0 1 21.3333 112)" fill="white"/>
<rect width="5.33333" height="5.33333" transform="matrix(-1 0 0 1 16 112)" fill="white"/>
<rect width="5.33333" height="5.33333" transform="matrix(-1 0 0 1 16 117.333)" fill="#FFCB29"/>
<rect x="80" y="133.333" width="5.33333" height="5.33333" fill="black"/>
<rect x="80" y="138.667" width="5.33333" height="5.33333" fill="white"/>
<rect x="80" y="144" width="5.33333" height="5.33333" fill="#FFCB29"/>
<rect x="85.3333" y="133.333" width="5.33333" height="5.33333" fill="black"/>
<rect x="85.3333" y="138.667" width="5.33333" height="5.33333" fill="white"/>
<rect x="85.3333" y="144" width="5.33333" height="5.33333" fill="#FFCB29"/>
<rect x="90.6667" y="133.333" width="5.33333" height="5.33333" fill="black"/>
<rect x="90.6667" y="138.667" width="5.33333" height="5.33333" fill="white"/>
<rect x="90.6667" y="144" width="5.33333" height="5.33333" fill="#FFCB29"/>
<rect x="96" y="133.333" width="5.33333" height="5.33333" fill="black"/>
<rect x="96" y="138.667" width="5.33333" height="5.33333" fill="white"/>
<rect x="96" y="144" width="5.33333" height="5.33333" fill="#FFCB29"/>
<rect x="101.333" y="133.333" width="5.33333" height="5.33333" fill="black"/>
<rect x="101.333" y="138.667" width="5.33333" height="5.33333" fill="white"/>
<rect x="101.333" y="144" width="5.33333" height="5.33333" fill="#FFCB29"/>
<rect x="106.667" y="128" width="5.33333" height="5.33333" fill="black"/>
<rect x="106.667" y="133.333" width="5.33333" height="5.33333" fill="white"/>
<rect x="106.667" y="138.667" width="5.33333" height="5.33333" fill="white"/>
<rect x="106.667" y="144" width="5.33333" height="5.33333" fill="#FFCB29"/>
<rect x="112" y="138.667" width="5.33333" height="5.33333" fill="#FFCB29"/>
<rect x="112" y="128" width="5.33333" height="5.33333" fill="black"/>
<rect x="112" y="133.333" width="5.33333" height="5.33333" fill="white"/>
<rect x="117.333" y="122.667" width="5.33333" height="5.33333" fill="black"/>
<rect x="117.333" y="128" width="5.33333" height="5.33333" fill="white"/>
<rect x="117.333" y="133.333" width="5.33333" height="5.33333" fill="white"/>
<rect x="117.333" y="138.667" width="5.33333" height="5.33333" fill="#FFCB29"/>
<rect x="122.667" y="133.333" width="5.33333" height="5.33333" fill="#FFCB29"/>
<rect x="122.667" y="122.667" width="5.33333" height="5.33333" fill="black"/>
<rect x="122.667" y="128" width="5.33333" height="5.33333" fill="white"/>
<rect x="128" y="122.667" width="5.33333" height="5.33333" fill="white"/>
<rect x="128" y="128" width="5.33333" height="5.33333" fill="white"/>
<rect x="128" y="133.333" width="5.33333" height="5.33333" fill="#FFCB29"/>
<rect x="133.333" y="128" width="5.33333" height="5.33333" fill="#FFCB29"/>
<rect x="133.333" y="112" width="5.33333" height="5.33333" fill="black"/>
<rect x="138.667" y="112" width="5.33333" height="5.33333" fill="white"/>
<rect x="138.667" y="117.333" width="5.33333" height="5.33333" fill="white"/>
<rect x="144" y="117.333" width="5.33333" height="5.33333" fill="#FFCB29"/>
<rect x="128" y="117.333" width="5.33333" height="5.33333" fill="black"/>
<rect x="133.333" y="117.333" width="5.33333" height="5.33333" fill="white"/>
<rect x="133.333" y="122.667" width="5.33333" height="5.33333" fill="white"/>
<rect x="138.667" y="122.667" width="5.33333" height="5.33333" fill="#FFCB29"/>
<rect x="138.667" y="106.667" width="5.33333" height="5.33333" fill="black"/>
<rect x="144" y="106.667" width="5.33333" height="5.33333" fill="white"/>
<rect x="144" y="112" width="5.33333" height="5.33333" fill="white"/>
<rect x="149.333" y="112" width="5.33333" height="5.33333" fill="#FFCB29"/>
<rect width="5.33333" height="5.33333" transform="matrix(-1 0 0 1 149.333 80)" fill="black"/>
<rect width="5.33333" height="5.33333" transform="matrix(-1 0 0 1 154.667 80)" fill="white"/>
<rect width="5.33333" height="5.33333" transform="matrix(-1 0 0 1 160 80)" fill="#FFCB29"/>
<rect width="5.33333" height="5.33333" transform="matrix(-1 0 0 1 16 80)" fill="black"/>
<rect width="5.33333" height="5.33333" transform="matrix(-1 0 0 1 10.6667 80)" fill="white"/>
<rect width="5.33333" height="5.33333" transform="matrix(-1 0 0 1 5.33331 80)" fill="#FFCB29"/>
<rect width="5.33333" height="5.33333" transform="matrix(-1 0 0 1 149.333 85.3335)" fill="black"/>
<rect width="5.33333" height="5.33333" transform="matrix(-1 0 0 1 154.667 85.3335)" fill="white"/>
<rect width="5.33333" height="5.33333" transform="matrix(-1 0 0 1 160 85.3335)" fill="#FFCB29"/>
<rect width="5.33333" height="5.33333" transform="matrix(-1 0 0 1 16 85.3335)" fill="black"/>
<rect width="5.33333" height="5.33333" transform="matrix(-1 0 0 1 10.6667 85.3335)" fill="white"/>
<rect width="5.33333" height="5.33333" transform="matrix(-1 0 0 1 5.33331 85.3335)" fill="#FFCB29"/>
<rect width="5.33333" height="5.33333" transform="matrix(-1 0 0 1 149.333 90.6667)" fill="black"/>
<rect width="5.33333" height="5.33333" transform="matrix(-1 0 0 1 154.667 90.6667)" fill="white"/>
<rect width="5.33333" height="5.33333" transform="matrix(-1 0 0 1 160 90.6667)" fill="#FFCB29"/>
<rect width="5.33333" height="5.33333" transform="matrix(-1 0 0 1 16 90.6667)" fill="black"/>
<rect width="5.33333" height="5.33333" transform="matrix(-1 0 0 1 10.6667 90.6667)" fill="white"/>
<rect width="5.33333" height="5.33333" transform="matrix(-1 0 0 1 5.33331 90.6667)" fill="#FFCB29"/>
<rect x="144" y="69.3335" width="5.33333" height="5.33333" fill="black"/>
<rect x="149.333" y="69.3335" width="5.33333" height="5.33333" fill="white"/>
<rect x="154.667" y="69.3335" width="5.33333" height="5.33333" fill="#FFCB29"/>
<rect x="10.6667" y="69.3335" width="5.33333" height="5.33333" fill="black"/>
<rect x="5.33331" y="69.3335" width="5.33333" height="5.33333" fill="white"/>
<rect y="69.3335" width="5.33333" height="5.33333" fill="#FFCB29"/>
<rect x="5.33331" y="64" width="5.33333" height="5.33333" fill="white"/>
<rect y="64" width="5.33333" height="5.33333" fill="#FFCB29"/>
<rect x="5.33331" y="58.6667" width="5.33333" height="5.33333" fill="#FFCB29"/>
<rect x="144" y="74.6667" width="5.33333" height="5.33333" fill="black"/>
<rect x="149.333" y="74.6667" width="5.33333" height="5.33333" fill="white"/>
<rect x="154.667" y="74.6667" width="5.33333" height="5.33333" fill="#FFCB29"/>
<rect x="10.6667" y="74.6667" width="5.33333" height="5.33333" fill="black"/>
<rect x="5.33331" y="74.6667" width="5.33333" height="5.33333" fill="white"/>
<rect y="74.6667" width="5.33333" height="5.33333" fill="#FFCB29"/>
<rect x="144" y="96" width="5.33333" height="5.33333" fill="black"/>
<rect x="149.333" y="96" width="5.33333" height="5.33333" fill="white"/>
<rect x="154.667" y="96" width="5.33333" height="5.33333" fill="#FFCB29"/>
<rect x="10.6667" y="96" width="5.33333" height="5.33333" fill="black"/>
<rect x="5.33331" y="96" width="5.33333" height="5.33333" fill="white"/>
<rect y="96" width="5.33333" height="5.33333" fill="#FFCB29"/>
<rect x="144" y="101.333" width="5.33333" height="5.33333" fill="black"/>
<rect x="149.333" y="101.333" width="5.33333" height="5.33333" fill="white"/>
<rect x="154.667" y="101.333" width="5.33333" height="5.33333" fill="#FFCB29"/>
<rect x="149.333" y="106.667" width="5.33333" height="5.33333" fill="white"/>
<rect x="154.667" y="106.667" width="5.33333" height="5.33333" fill="#FFCB29"/>
<rect x="10.6667" y="101.333" width="5.33333" height="5.33333" fill="black"/>
<rect x="5.33331" y="101.333" width="5.33333" height="5.33333" fill="white"/>
<rect y="101.333" width="5.33333" height="5.33333" fill="#FFCB29"/>
<rect x="10.6667" y="106.667" width="5.33333" height="5.33333" fill="white"/>
<rect x="5.33331" y="106.667" width="5.33333" height="5.33333" fill="white"/>
<rect y="106.667" width="5.33333" height="5.33333" fill="#FFCB29"/>
<rect x="5.33331" y="112" width="5.33333" height="5.33333" fill="#FFCB29"/>
<rect width="5.33333" height="5.33333" transform="matrix(-1 0 0 1 32 48)" fill="black"/>
<rect width="5.33333" height="5.33333" transform="matrix(-1 0 0 1 32 42.6667)" fill="white"/>
<rect width="5.33333" height="5.33333" transform="matrix(-1 0 0 1 32 37.3335)" fill="white"/>
<rect width="5.33333" height="5.33333" transform="matrix(-1 0 0 1 32 32)" fill="#FFCB29"/>
<rect width="5.33333" height="5.33333" transform="matrix(-1 0 0 1 26.6667 48)" fill="white"/>
<rect width="5.33333" height="5.33333" transform="matrix(-1 0 0 1 26.6667 42.6667)" fill="white"/>
<rect width="5.33333" height="5.33333" transform="matrix(-1 0 0 1 26.6667 37.3335)" fill="#FFCB29"/>
<rect width="5.33333" height="5.33333" transform="matrix(-1 0 0 1 37.3333 42.6667)" fill="black"/>
<rect width="5.33333" height="5.33333" transform="matrix(-1 0 0 1 37.3333 37.3335)" fill="white"/>
<rect width="5.33333" height="5.33333" transform="matrix(-1 0 0 1 37.3333 32)" fill="#FFCB29"/>
<rect width="5.33333" height="5.33333" transform="matrix(-1 0 0 1 48 37.3335)" fill="black"/>
<rect width="5.33333" height="5.33333" transform="matrix(-1 0 0 1 48 32)" fill="white"/>
<rect width="5.33333" height="5.33333" transform="matrix(-1 0 0 1 48 26.6667)" fill="#FFCB29"/>
<rect width="5.33333" height="5.33333" transform="matrix(-1 0 0 1 58.6667 32)" fill="black"/>
<rect width="5.33333" height="5.33333" transform="matrix(-1 0 0 1 58.6667 26.6667)" fill="white"/>
<rect width="5.33333" height="5.33333" transform="matrix(-1 0 0 1 58.6667 21.3335)" fill="#FFCB29"/>
<rect width="5.33333" height="5.33333" transform="matrix(-1 0 0 1 133.333 48)" fill="black"/>
<rect width="5.33333" height="5.33333" transform="matrix(-1 0 0 1 133.333 42.6667)" fill="black"/>
<rect width="5.33333" height="5.33333" transform="matrix(-1 0 0 1 133.333 48)" fill="#2F2725"/>
<rect width="5.33333" height="5.33333" transform="matrix(-1 0 0 1 133.333 42.6667)" fill="#FFA826"/>
<rect width="5.33333" height="5.33333" transform="matrix(-1 0 0 1 128 48)" fill="#EDE6D8"/>
<rect width="5.33333" height="5.33333" transform="matrix(-1 0 0 1 128 42.6667)" fill="#2F2725"/>
<rect width="5.33333" height="5.33333" transform="matrix(-1 0 0 1 122.667 42.6667)" fill="#F4F2EE"/>
<rect width="5.33333" height="5.33333" transform="matrix(-1 0 0 1 117.333 37.3335)" fill="white"/>
<rect width="5.33333" height="5.33333" transform="matrix(-1 0 0 1 112 37.3335)" fill="white"/>
<rect width="5.33333" height="5.33333" transform="matrix(-1 0 0 1 106.667 37.3335)" fill="white"/>
<rect width="5.33333" height="5.33333" transform="matrix(-1 0 0 1 101.333 37.3335)" fill="white"/>
<rect width="5.33333" height="5.33333" transform="matrix(-1 0 0 1 101.333 32)" fill="#2F2725"/>
<rect width="5.33333" height="5.33333" transform="matrix(-1 0 0 1 144 48)" fill="black"/>
<rect width="5.33333" height="5.33333" transform="matrix(-1 0 0 1 149.333 48)" fill="white"/>
<rect width="5.33333" height="5.33333" transform="matrix(-1 0 0 1 154.667 48)" fill="#FFCB29"/>
<rect width="5.33333" height="5.33333" transform="matrix(-1 0 0 1 144 42.6667)" fill="black"/>
<rect width="5.33333" height="5.33333" transform="matrix(-1 0 0 1 149.333 42.6667)" fill="white"/>
<rect width="5.33333" height="5.33333" transform="matrix(-1 0 0 1 154.667 42.6667)" fill="#FFCB29"/>
<rect width="5.33333" height="5.33333" transform="matrix(-1 0 0 1 144 37.3335)" fill="black"/>
<rect width="5.33333" height="5.33333" transform="matrix(-1 0 0 1 149.333 37.3335)" fill="white"/>
<rect width="5.33333" height="5.33333" transform="matrix(-1 0 0 1 154.667 37.3335)" fill="#FFCB29"/>
<rect width="5.33333" height="5.33333" transform="matrix(-1 0 0 1 144 32)" fill="white"/>
<rect width="5.33333" height="5.33333" transform="matrix(-1 0 0 1 149.333 32)" fill="white"/>
<rect width="5.33333" height="5.33333" transform="matrix(-1 0 0 1 154.667 32)" fill="#FFCB29"/>
<rect width="5.33333" height="5.33333" transform="matrix(-1 0 0 1 149.333 26.6667)" fill="#FFCB29"/>
<rect width="5.33333" height="5.33333" transform="matrix(-1 0 0 1 144 26.6667)" fill="white"/>
<rect width="5.33333" height="5.33333" transform="matrix(-1 0 0 1 144 21.3335)" fill="#FFCB29"/>
<rect width="5.33333" height="5.33333" transform="matrix(-1 0 0 1 138.667 32)" fill="black"/>
<rect width="5.33333" height="5.33333" transform="matrix(-1 0 0 1 138.667 26.6667)" fill="white"/>
<rect width="5.33333" height="5.33333" transform="matrix(-1 0 0 1 138.667 21.3335)" fill="white"/>
<rect width="5.33333" height="5.33333" transform="matrix(-1 0 0 1 138.667 16)" fill="#FFCB29"/>
<rect width="5.33333" height="5.33333" transform="matrix(-1 0 0 1 133.333 53.3335)" fill="black"/>
<rect width="5.33333" height="5.33333" transform="matrix(-1 0 0 1 128 74.6667)" fill="black"/>
<rect width="5.33333" height="5.33333" transform="matrix(-1 0 0 1 133.333 74.6667)" fill="black"/>
<rect width="5.33333" height="5.33333" transform="matrix(-1 0 0 1 138.667 74.6667)" fill="black"/>
<rect width="5.33333" height="5.33333" transform="matrix(-1 0 0 1 144 74.6667)" fill="black"/>
<rect width="5.33333" height="5.33333" transform="matrix(-1 0 0 1 122.667 80)" fill="black"/>
<rect width="5.33333" height="5.33333" transform="matrix(-1 0 0 1 117.333 80)" fill="black"/>
<rect width="5.33333" height="5.33333" transform="matrix(-1 0 0 1 133.333 53.3335)" fill="black"/>
<rect width="5.33333" height="5.33333" transform="matrix(-1 0 0 1 42.6667 42.6667)" fill="black"/>
<rect width="5.33333" height="5.33333" transform="matrix(-1 0 0 1 42.6667 37.3335)" fill="white"/>
<rect width="5.33333" height="5.33333" transform="matrix(-1 0 0 1 42.6667 32)" fill="white"/>
<rect width="5.33333" height="5.33333" transform="matrix(-1 0 0 1 42.6667 26.6667)" fill="#FFCB29"/>
<rect width="5.33333" height="5.33333" transform="matrix(-1 0 0 1 53.3333 37.3335)" fill="black"/>
<rect width="5.33333" height="5.33333" transform="matrix(-1 0 0 1 53.3333 32)" fill="white"/>
<rect width="5.33333" height="5.33333" transform="matrix(-1 0 0 1 53.3333 26.6667)" fill="white"/>
<rect width="5.33333" height="5.33333" transform="matrix(-1 0 0 1 53.3333 21.3335)" fill="#FFCB29"/>
<rect width="5.33333" height="5.33333" transform="matrix(-1 0 0 1 64 32)" fill="black"/>
<rect width="5.33333" height="5.33333" transform="matrix(-1 0 0 1 64 26.6667)" fill="white"/>
<rect width="5.33333" height="5.33333" transform="matrix(-1 0 0 1 64 21.3335)" fill="#FFCB29"/>
<rect width="5.33333" height="5.33333" transform="matrix(-1 0 0 1 69.3333 32)" fill="black"/>
<rect width="5.33333" height="5.33333" transform="matrix(-1 0 0 1 69.3333 26.6667)" fill="white"/>
<rect width="5.33333" height="5.33333" transform="matrix(-1 0 0 1 69.3333 21.3335)" fill="#FFCB29"/>
<rect width="5.33333" height="5.33333" transform="matrix(-1 0 0 1 74.6667 32)" fill="black"/>
<rect width="5.33333" height="5.33333" transform="matrix(-1 0 0 1 74.6667 26.6667)" fill="white"/>
<rect width="5.33333" height="5.33333" transform="matrix(-1 0 0 1 74.6667 21.3335)" fill="#FFCB29"/>
<rect width="5.33333" height="5.33333" transform="matrix(-1 0 0 1 74.6667 37.3335)" fill="#EEDCBD"/>
<rect width="5.33333" height="5.33333" transform="matrix(-1 0 0 1 80 37.3335)" fill="#FD6D1C"/>
<rect width="5.33333" height="5.33333" transform="matrix(-1 0 0 1 85.3333 37.3335)" fill="#FF8C4B"/>
<rect width="5.33333" height="5.33333" transform="matrix(-1 0 0 1 90.6667 42.6667)" fill="#FF8C4B"/>
<rect width="5.33333" height="5.33333" transform="matrix(-1 0 0 1 96 42.6667)" fill="#FD6D1C"/>
<rect width="5.33333" height="5.33333" transform="matrix(-1 0 0 1 74.6667 42.6667)" fill="#FD6D1C"/>
<rect width="5.33333" height="5.33333" transform="matrix(-1 0 0 1 80 42.6667)" fill="#FFA826"/>
<rect width="5.33333" height="5.33333" transform="matrix(-1 0 0 1 85.3333 42.6667)" fill="#FD6D1C"/>
<rect width="5.33333" height="5.33333" transform="matrix(-1 0 0 1 90.6667 48)" fill="#2F2725"/>
<rect width="5.33333" height="5.33333" transform="matrix(-1 0 0 1 96 48)" fill="#FF8C4B"/>
<rect width="5.33333" height="5.33333" transform="matrix(-1 0 0 1 69.3333 37.3335)" fill="#EEDCBD"/>
<rect width="5.33333" height="5.33333" transform="matrix(-1 0 0 1 80 32)" fill="black"/>
<rect width="5.33333" height="5.33333" transform="matrix(-1 0 0 1 80 26.6667)" fill="white"/>
<rect width="5.33333" height="5.33333" transform="matrix(-1 0 0 1 80 21.3335)" fill="#FFCB29"/>
<rect width="5.33333" height="5.33333" transform="matrix(-1 0 0 1 85.3333 32)" fill="black"/>
<rect width="5.33333" height="5.33333" transform="matrix(-1 0 0 1 85.3333 26.6667)" fill="white"/>
<rect width="5.33333" height="5.33333" transform="matrix(-1 0 0 1 85.3333 21.3335)" fill="#FFCB29"/>
<rect width="5.33333" height="5.33333" transform="matrix(-1 0 0 1 90.6667 32)" fill="black"/>
<rect width="5.33333" height="5.33333" transform="matrix(-1 0 0 1 90.6667 26.6667)" fill="white"/>
<rect width="5.33333" height="5.33333" transform="matrix(-1 0 0 1 90.6667 21.3335)" fill="white"/>
<rect width="5.33333" height="5.33333" transform="matrix(-1 0 0 1 90.6667 16)" fill="#FFCB29"/>
<rect width="5.33333" height="5.33333" transform="matrix(-1 0 0 1 96 32)" fill="#FD6D1C"/>
<rect width="5.33333" height="5.33333" transform="matrix(-1 0 0 1 101.333 21.3335)" fill="black"/>
<rect width="5.33333" height="5.33333" transform="matrix(-1 0 0 1 101.333 16)" fill="white"/>
<rect width="5.33333" height="5.33333" transform="matrix(-1 0 0 1 101.333 10.6667)" fill="#FFCB29"/>
<rect width="5.33333" height="5.33333" transform="matrix(-1 0 0 1 96 26.6667)" fill="black"/>
<rect width="5.33333" height="5.33333" transform="matrix(-1 0 0 1 96 21.3335)" fill="white"/>
<rect width="5.33333" height="5.33333" transform="matrix(-1 0 0 1 96 16)" fill="white"/>
<rect width="5.33333" height="5.33333" transform="matrix(-1 0 0 1 96 10.6667)" fill="#FFCB29"/>
<rect width="5.33333" height="5.33333" transform="matrix(-1 0 0 1 106.667 26.6667)" fill="#FD6D1C"/>
<rect width="5.33333" height="5.33333" transform="matrix(-1 0 0 1 101.333 26.6667)" fill="#FF8C4B"/>
<rect width="5.33333" height="5.33333" transform="matrix(-1 0 0 1 106.667 21.3335)" fill="black"/>
<rect width="5.33333" height="5.33333" transform="matrix(-1 0 0 1 106.667 16)" fill="white"/>
<rect width="5.33333" height="5.33333" transform="matrix(-1 0 0 1 106.667 10.6667)" fill="#FFCB29"/>
<rect width="5.33333" height="5.33333" transform="matrix(-1 0 0 1 112 26.6667)" fill="#FF8C4B"/>
<rect width="5.33333" height="5.33333" transform="matrix(-1 0 0 1 112 21.3335)" fill="black"/>
<rect width="5.33333" height="5.33333" transform="matrix(-1 0 0 1 112 16)" fill="white"/>
<rect width="5.33333" height="5.33333" transform="matrix(-1 0 0 1 112 10.6667)" fill="#FFCB29"/>
<rect width="5.33333" height="5.33333" transform="matrix(-1 0 0 1 117.333 26.6667)" fill="#FFA826"/>
<rect width="5.33333" height="5.33333" transform="matrix(-1 0 0 1 117.333 21.3335)" fill="black"/>
<rect width="5.33333" height="5.33333" transform="matrix(-1 0 0 1 117.333 16)" fill="white"/>
<rect width="5.33333" height="5.33333" transform="matrix(-1 0 0 1 117.333 10.6667)" fill="#FFCB29"/>
<rect width="5.33333" height="5.33333" transform="matrix(-1 0 0 1 122.667 26.6667)" fill="#FF8C4B"/>
<rect width="5.33333" height="5.33333" transform="matrix(-1 0 0 1 122.667 21.3335)" fill="black"/>
<rect width="5.33333" height="5.33333" transform="matrix(-1 0 0 1 122.667 16)" fill="white"/>
<rect width="5.33333" height="5.33333" transform="matrix(-1 0 0 1 122.667 10.6667)" fill="#FFCB29"/>
<rect width="5.33333" height="5.33333" transform="matrix(-1 0 0 1 128 21.3335)" fill="black"/>
<rect width="5.33333" height="5.33333" transform="matrix(-1 0 0 1 128 16)" fill="white"/>
<rect width="5.33333" height="5.33333" transform="matrix(-1 0 0 1 128 10.6667)" fill="#FFCB29"/>
<rect width="5.33333" height="5.33333" transform="matrix(-1 0 0 1 133.333 26.6667)" fill="black"/>
<rect width="5.33333" height="5.33333" transform="matrix(-1 0 0 1 133.333 21.3335)" fill="white"/>
<rect width="5.33333" height="5.33333" transform="matrix(-1 0 0 1 133.333 16)" fill="white"/>
<rect width="5.33333" height="5.33333" transform="matrix(-1 0 0 1 133.333 10.6667)" fill="#FFCB29"/>
<rect width="5.33333" height="5.33333" transform="matrix(-1 0 0 1 90.6667 37.3335)" fill="#FFA826"/>
<rect width="5.33333" height="5.33333" transform="matrix(-1 0 0 1 96 37.3335)" fill="#FF8C4B"/>
<rect width="5.33333" height="5.33333" transform="matrix(-1 0 0 1 138.667 53.3335)" fill="#FF8C4B"/>
<rect width="5.33333" height="5.33333" transform="matrix(-1 0 0 1 138.667 48)" fill="#FD6D1C"/>
<rect width="5.33333" height="5.33333" transform="matrix(-1 0 0 1 138.667 42.6667)" fill="#FF8C4B"/>
<rect width="5.33333" height="5.33333" transform="matrix(-1 0 0 1 138.667 37.3335)" fill="#FFA826"/>
<rect width="5.33333" height="5.33333" transform="matrix(-1 0 0 1 133.333 37.3335)" fill="#FF8C4B"/>
<rect width="5.33333" height="5.33333" transform="matrix(-1 0 0 1 133.333 32)" fill="#FD6D1C"/>
<rect width="5.33333" height="5.33333" transform="matrix(-1 0 0 1 128 32)" fill="#FF8C4B"/>
<rect width="5.33333" height="5.33333" transform="matrix(-1 0 0 1 128 26.6667)" fill="#FD6D1C"/>
<rect width="5.33333" height="5.33333" transform="matrix(-1 0 0 1 122.667 32)" fill="#FD6D1C"/>
<rect width="5.33333" height="5.33333" transform="matrix(-1 0 0 1 117.333 32)" fill="#2F2725"/>
<rect width="5.33333" height="5.33333" transform="matrix(-1 0 0 1 112 32)" fill="#2F2725"/>
<rect width="5.33333" height="5.33333" transform="matrix(-1 0 0 1 106.667 32)" fill="#2F2725"/>
<rect width="5.33333" height="5.33333" transform="matrix(-1 0 0 1 128 37.3335)" fill="#FD6D1C"/>
<rect width="5.33333" height="5.33333" transform="matrix(-1 0 0 1 122.667 37.3335)" fill="#2F2725"/>
<rect width="5.33333" height="5.33333" transform="matrix(-1 0 0 1 144 53.3335)" fill="black"/>
<rect width="5.33333" height="5.33333" transform="matrix(-1 0 0 1 149.333 53.3335)" fill="white"/>
<rect width="5.33333" height="5.33333" transform="matrix(-1 0 0 1 154.667 53.3335)" fill="#FFCB29"/>
<rect width="5.33333" height="5.33333" transform="matrix(-1 0 0 1 144 58.6667)" fill="black"/>
<rect width="5.33333" height="5.33333" transform="matrix(-1 0 0 1 149.333 58.6667)" fill="white"/>
<rect width="5.33333" height="5.33333" transform="matrix(-1 0 0 1 154.667 58.6667)" fill="#FFCB29"/>
<rect width="5.33333" height="5.33333" transform="matrix(-1 0 0 1 144 64)" fill="black"/>
<rect width="5.33333" height="5.33333" transform="matrix(-1 0 0 1 149.333 64)" fill="white"/>
<rect width="5.33333" height="5.33333" transform="matrix(-1 0 0 1 154.667 64)" fill="white"/>
<rect width="5.33333" height="5.33333" transform="matrix(-1 0 0 1 160 64)" fill="#FFCB29"/>
<rect width="5.33333" height="5.33333" transform="matrix(-1 0 0 1 26.6667 53.3335)" fill="black"/>
<rect width="5.33333" height="5.33333" transform="matrix(-1 0 0 1 21.3333 53.3335)" fill="white"/>
<rect width="5.33333" height="5.33333" transform="matrix(-1 0 0 1 21.3333 48)" fill="white"/>
<rect width="5.33333" height="5.33333" transform="matrix(-1 0 0 1 21.3333 42.6667)" fill="#FFCB29"/>
<rect width="5.33333" height="5.33333" transform="matrix(-1 0 0 1 21.3333 58.6667)" fill="black"/>
<rect width="5.33333" height="5.33333" transform="matrix(-1 0 0 1 16 58.6667)" fill="white"/>
<rect width="5.33333" height="5.33333" transform="matrix(-1 0 0 1 16 53.3335)" fill="white"/>
<rect width="5.33333" height="5.33333" transform="matrix(-1 0 0 1 10.6667 53.3335)" fill="#FFCB29"/>
<rect width="5.33333" height="5.33333" transform="matrix(-1 0 0 1 16 48)" fill="#FFCB29"/>
<rect width="5.33333" height="5.33333" transform="matrix(-1 0 0 1 21.3333 64)" fill="black"/>
<rect width="5.33333" height="5.33333" transform="matrix(-1 0 0 1 16 64)" fill="white"/>
<rect x="42.6667" y="122.667" width="5.33333" height="5.33333" fill="#D0AB84"/>
<rect x="42.6667" y="117.333" width="5.33333" height="5.33333" fill="#F3F7FA"/>
<rect x="48" y="122.667" width="5.33333" height="5.33333" fill="#D0AB84"/>
<rect x="48" y="117.333" width="5.33333" height="5.33333" fill="#F3F7FA"/>
<rect x="53.3333" y="117.333" width="5.33333" height="5.33333" fill="#EEDCBD"/>
<rect x="53.3333" y="112" width="5.33333" height="5.33333" fill="#EEDCBD"/>
<rect x="48" y="112" width="5.33333" height="5.33333" fill="#EEDCBD"/>
<rect x="42.6667" y="112" width="5.33333" height="5.33333" fill="#EEDCBD"/>
<rect x="37.3333" y="106.667" width="5.33333" height="5.33333" fill="#EEDCBD"/>
<rect x="32" y="106.667" width="5.33333" height="5.33333" fill="#EEDCBD"/>
<rect x="32" y="101.333" width="5.33333" height="5.33333" fill="#EEDCBD"/>
<rect x="26.6667" y="101.333" width="5.33333" height="5.33333" fill="#EEDCBD"/>
<rect x="26.6667" y="96" width="5.33333" height="5.33333" fill="#EEDCBD"/>
<rect x="53.3333" y="106.667" width="5.33333" height="5.33333" fill="#FFA826"/>
<rect x="48" y="106.667" width="5.33333" height="5.33333" fill="#FF8C4B"/>
<rect x="42.6667" y="106.667" width="5.33333" height="5.33333" fill="#FD6D1C"/>
<rect x="53.3333" y="101.333" width="5.33333" height="5.33333" fill="#EDE6D8"/>
<rect x="48" y="101.333" width="5.33333" height="5.33333" fill="#EDE6D8"/>
<rect x="42.6667" y="101.333" width="5.33333" height="5.33333" fill="#EDE6D8"/>
<rect x="37.3333" y="101.333" width="5.33333" height="5.33333" fill="#FF8C4B"/>
<rect x="21.3333" y="96" width="5.33333" height="5.33333" fill="#EEDCBD"/>
<rect x="53.3333" y="96" width="5.33333" height="5.33333" fill="#FFAA00"/>
<rect x="48" y="96" width="5.33333" height="5.33333" fill="#FFDA56"/>
<rect x="42.6667" y="96" width="5.33333" height="5.33333" fill="#F4F2EE"/>
<rect x="37.3333" y="96" width="5.33333" height="5.33333" fill="#F4F2EE"/>
<rect x="32" y="96" width="5.33333" height="5.33333" fill="#FD6D1C"/>
<rect x="21.3333" y="90.6667" width="5.33333" height="5.33333" fill="#EEDCBD"/>
<rect x="16" y="90.6667" width="5.33333" height="5.33333" fill="#EEDCBD"/>
<rect x="53.3333" y="90.6667" width="5.33333" height="5.33333" fill="#FFAA00"/>
<rect x="48" y="90.6667" width="5.33333" height="5.33333" fill="#FFAA00"/>
<rect x="42.6667" y="90.6667" width="5.33333" height="5.33333" fill="#FFAA00"/>
<rect x="37.3333" y="90.6667" width="5.33333" height="5.33333" fill="#F4F2EE"/>
<rect x="32" y="90.6667" width="5.33333" height="5.33333" fill="white"/>
<rect x="26.6667" y="90.6667" width="5.33333" height="5.33333" fill="#FF8C4B"/>
<rect x="21.3333" y="85.3335" width="5.33333" height="5.33333" fill="#EEDCBD"/>
<rect x="16" y="85.3335" width="5.33333" height="5.33333" fill="#EEDCBD"/>
<rect x="53.3333" y="85.3335" width="5.33333" height="5.33333" fill="#A0C800"/>
<rect x="48" y="85.3335" width="5.33333" height="5.33333" fill="#FFDA56"/>
<rect x="42.6667" y="85.3335" width="5.33333" height="5.33333" fill="#FFAA00"/>
<rect x="37.3333" y="85.3335" width="5.33333" height="5.33333" fill="#F4F2EE"/>
<rect x="32" y="85.3335" width="5.33333" height="5.33333" fill="white"/>
<rect x="26.6667" y="85.3335" width="5.33333" height="5.33333" fill="#FD6D1C"/>
<rect x="21.3333" y="80" width="5.33333" height="5.33333" fill="#EEDCBD"/>
<rect x="16" y="80" width="5.33333" height="5.33333" fill="#EEDCBD"/>
<rect x="53.3333" y="80" width="5.33333" height="5.33333" fill="#A0C800"/>
<rect x="48" y="80" width="5.33333" height="5.33333" fill="#FF6B00"/>
<rect x="42.6667" y="80" width="5.33333" height="5.33333" fill="#FF6B00"/>
<rect x="37.3333" y="80" width="5.33333" height="5.33333" fill="#F4F2EE"/>
<rect x="32" y="80" width="5.33333" height="5.33333" fill="white"/>
<rect x="26.6667" y="80" width="5.33333" height="5.33333" fill="#FF8C4B"/>
<rect x="21.3333" y="74.6667" width="5.33333" height="5.33333" fill="#EEDCBD"/>
<rect x="16" y="74.6667" width="5.33333" height="5.33333" fill="#EEDCBD"/>
<rect x="53.3333" y="74.6667" width="5.33333" height="5.33333" fill="#FF6B00"/>
<rect x="48" y="74.6667" width="5.33333" height="5.33333" fill="#FF6B00"/>
<rect x="42.6667" y="74.6667" width="5.33333" height="5.33333" fill="#F4F2EE"/>
<rect x="106.667" y="85.3335" width="5.33333" height="5.33333" fill="#D0AB84"/>
<rect x="112" y="85.3335" width="5.33333" height="5.33333" fill="#D0AB84"/>
<rect x="117.333" y="85.3335" width="5.33333" height="5.33333" fill="#D0AB84"/>
<rect x="122.667" y="85.3335" width="5.33333" height="5.33333" fill="#EEDCBD"/>
<rect x="128" y="85.3335" width="5.33333" height="5.33333" fill="#EEDCBD"/>
<rect x="133.333" y="85.3335" width="5.33333" height="5.33333" fill="#EEDCBD"/>
<rect x="138.667" y="85.3335" width="5.33333" height="5.33333" fill="#EEDCBD"/>
<rect x="37.3333" y="74.6667" width="5.33333" height="5.33333" fill="#F4F2EE"/>
<rect x="32" y="74.6667" width="5.33333" height="5.33333" fill="white"/>
<rect x="26.6667" y="74.6667" width="5.33333" height="5.33333" fill="#FD6D1C"/>
<rect x="128" y="69.3335" width="5.33333" height="5.33333" fill="#FD6D1C"/>
<rect x="133.333" y="69.3335" width="5.33333" height="5.33333" fill="#D0AB84"/>
<rect x="21.3333" y="69.3335" width="5.33333" height="5.33333" fill="#EEDCBD"/>
<rect x="16" y="69.3335" width="5.33333" height="5.33333" fill="#EEDCBD"/>
<rect x="138.667" y="69.3335" width="5.33333" height="5.33333" fill="#D0AB84"/>
<rect x="53.3333" y="69.3335" width="5.33333" height="5.33333" fill="white"/>
<rect x="48" y="69.3335" width="5.33333" height="5.33333" fill="white"/>
<rect x="42.6667" y="69.3335" width="5.33333" height="5.33333" fill="white"/>
<rect x="106.667" y="80" width="5.33333" height="5.33333" fill="#FD6D1C"/>
<rect x="112" y="80" width="5.33333" height="5.33333" fill="#D0AB84"/>
<rect x="117.333" y="80" width="5.33333" height="5.33333" fill="#D0AB84"/>
<rect x="122.667" y="80" width="5.33333" height="5.33333" fill="#D0AB84"/>
<rect x="128" y="80" width="5.33333" height="5.33333" fill="#D0AB84"/>
<rect x="133.333" y="80" width="5.33333" height="5.33333" fill="#EEDCBD"/>
<rect x="138.667" y="80" width="5.33333" height="5.33333" fill="#EEDCBD"/>
<rect x="37.3333" y="69.3335" width="5.33333" height="5.33333" fill="#2F2725"/>
<rect x="32" y="69.3335" width="5.33333" height="5.33333" fill="#FF8C4B"/>
<rect x="26.6667" y="69.3335" width="5.33333" height="5.33333" fill="#EEDCBD"/>
<rect x="128" y="64" width="5.33333" height="5.33333" fill="#2F2725"/>
<rect x="133.333" y="64" width="5.33333" height="5.33333" fill="#FF8C4B"/>
<rect x="21.3333" y="64" width="5.33333" height="5.33333" fill="#EEDCBD"/>
<rect x="53.3333" y="64" width="5.33333" height="5.33333" fill="#2F2725"/>
<rect x="48" y="64" width="5.33333" height="5.33333" fill="#2F2725"/>
<rect x="42.6667" y="64" width="5.33333" height="5.33333" fill="#2F2725"/>
<rect x="106.667" y="74.6667" width="5.33333" height="5.33333" fill="#FF8C4B"/>
<rect x="112" y="74.6667" width="5.33333" height="5.33333" fill="#FF8C4B"/>
<rect x="117.333" y="74.6667" width="5.33333" height="5.33333" fill="#FD6D1C"/>
<rect x="122.667" y="74.6667" width="5.33333" height="5.33333" fill="#FF8C4B"/>
<rect x="128" y="74.6667" width="5.33333" height="5.33333" fill="#D0AB84"/>
<rect x="133.333" y="74.6667" width="5.33333" height="5.33333" fill="#D0AB84"/>
<rect x="138.667" y="74.6667" width="5.33333" height="5.33333" fill="#D0AB84"/>
<rect x="37.3333" y="64" width="5.33333" height="5.33333" fill="#FF8C4B"/>
<rect x="32" y="64" width="5.33333" height="5.33333" fill="#FD6D1C"/>
<rect x="26.6667" y="64" width="5.33333" height="5.33333" fill="#EEDCBD"/>
<rect x="128" y="58.6667" width="5.33333" height="5.33333" fill="#2F2725"/>
<rect x="133.333" y="58.6667" width="5.33333" height="5.33333" fill="#FD6D1C"/>
<rect x="21.3333" y="58.6667" width="5.33333" height="5.33333" fill="#EEDCBD"/>
<rect x="53.3333" y="58.6667" width="5.33333" height="5.33333" fill="#FD6D1C"/>
<rect x="48" y="58.6667" width="5.33333" height="5.33333" fill="#FFA826"/>
<rect x="42.6667" y="58.6667" width="5.33333" height="5.33333" fill="#FD6D1C"/>
<rect x="106.667" y="69.3335" width="5.33333" height="5.33333" fill="#FD6D1C"/>
<rect x="106.667" y="64" width="5.33333" height="5.33333" fill="#FD6D1C"/>
<rect x="106.667" y="58.6667" width="5.33333" height="5.33333" fill="#FD6D1C"/>
<rect x="106.667" y="64" width="5.33333" height="5.33333" fill="#FF8C4B"/>
<rect x="106.667" y="58.6667" width="5.33333" height="5.33333" fill="#FD6D1C"/>
<rect x="106.667" y="53.3335" width="5.33333" height="5.33333" fill="#FFA826"/>
<rect x="112" y="69.3335" width="5.33333" height="5.33333" fill="#EDE6D8"/>
<rect x="117.333" y="69.3335" width="5.33333" height="5.33333" fill="#EDE6D8"/>
<rect x="122.667" y="69.3335" width="5.33333" height="5.33333" fill="#2F2725"/>
<rect x="37.3333" y="58.6667" width="5.33333" height="5.33333" fill="#FFA826"/>
<rect x="32" y="58.6667" width="5.33333" height="5.33333" fill="#EEDCBD"/>
<rect x="26.6667" y="58.6667" width="5.33333" height="5.33333" fill="#EEDCBD"/>
<rect x="128" y="53.3335" width="5.33333" height="5.33333" fill="#2F2725"/>
<rect x="53.3333" y="53.3335" width="5.33333" height="5.33333" fill="#FF8C4B"/>
<rect x="48" y="53.3335" width="5.33333" height="5.33333" fill="#FD6D1C"/>
<rect x="42.6667" y="48" width="5.33333" height="5.33333" fill="#EEDCBD"/>
<rect x="42.6667" y="53.3335" width="5.33333" height="5.33333" fill="#EEDCBD"/>
<rect x="37.3333" y="48" width="5.33333" height="5.33333" fill="#EEDCBD"/>
<rect x="37.3333" y="53.3335" width="5.33333" height="5.33333" fill="#EEDCBD"/>
<rect x="32" y="48" width="5.33333" height="5.33333" fill="#EEDCBD"/>
<rect x="32" y="53.3335" width="5.33333" height="5.33333" fill="#EEDCBD"/>
<rect x="26.6667" y="53.3335" width="5.33333" height="5.33333" fill="#EEDCBD"/>
<rect x="53.3333" y="42.6667" width="5.33333" height="5.33333" fill="#EEDCBD"/>
<rect x="53.3333" y="48" width="5.33333" height="5.33333" fill="#EEDCBD"/>
<rect x="48" y="42.6667" width="5.33333" height="5.33333" fill="#EEDCBD"/>
<rect x="48" y="48" width="5.33333" height="5.33333" fill="#EEDCBD"/>
<rect x="42.6667" y="42.6667" width="5.33333" height="5.33333" fill="#EEDCBD"/>
<rect x="53.3333" y="37.3335" width="5.33333" height="5.33333" fill="#EEDCBD"/>
<rect x="58.6667" y="117.333" width="5.33333" height="5.33333" fill="#EEDCBD"/>
<rect x="58.6667" y="112" width="5.33333" height="5.33333" fill="#EEDCBD"/>
<rect x="58.6667" y="106.667" width="5.33333" height="5.33333" fill="#FF8C4B"/>
<rect x="58.6667" y="101.333" width="5.33333" height="5.33333" fill="#EDE6D8"/>
<rect x="58.6667" y="96" width="5.33333" height="5.33333" fill="#F4F2EE"/>
<rect x="58.6667" y="90.6667" width="5.33333" height="5.33333" fill="#A0C800"/>
<rect x="58.6667" y="85.3335" width="5.33333" height="5.33333" fill="#A0C800"/>
<rect x="58.6667" y="80" width="5.33333" height="5.33333" fill="#A0C800"/>
<rect x="58.6667" y="74.6667" width="5.33333" height="5.33333" fill="#F4F2EE"/>
<rect x="58.6667" y="69.3335" width="5.33333" height="5.33333" fill="white"/>
<rect x="58.6667" y="64" width="5.33333" height="5.33333" fill="#2F2725"/>
<rect x="58.6667" y="58.6667" width="5.33333" height="5.33333" fill="#FF8C4B"/>
<rect x="58.6667" y="53.3335" width="5.33333" height="5.33333" fill="#FD6D1C"/>
<rect x="58.6667" y="42.6667" width="5.33333" height="5.33333" fill="#EEDCBD"/>
<rect x="58.6667" y="48" width="5.33333" height="5.33333" fill="#FD6D1C"/>
<rect x="64" y="42.6667" width="5.33333" height="5.33333" fill="#FF8C4B"/>
<rect x="58.6667" y="37.3335" width="5.33333" height="5.33333" fill="#EEDCBD"/>
<rect x="64" y="117.333" width="5.33333" height="5.33333" fill="#EEDCBD"/>
<rect x="64" y="112" width="5.33333" height="5.33333" fill="#EEDCBD"/>
<rect x="69.3333" y="112" width="5.33333" height="5.33333" fill="#EEDCBD"/>
<rect x="74.6667" y="112" width="5.33333" height="5.33333" fill="#EEDCBD"/>
<rect x="80" y="112" width="5.33333" height="5.33333" fill="#EEDCBD"/>
<rect x="85.3333" y="112" width="5.33333" height="5.33333" fill="#EEDCBD"/>
<rect x="90.6667" y="112" width="5.33333" height="5.33333" fill="#EEDCBD"/>
<rect x="96" y="112" width="5.33333" height="5.33333" fill="#EEDCBD"/>
<rect x="101.333" y="112" width="5.33333" height="5.33333" fill="#EEDCBD"/>
<rect x="106.667" y="112" width="5.33333" height="5.33333" fill="#EEDCBD"/>
<rect x="112" y="112" width="5.33333" height="5.33333" fill="#EEDCBD"/>
<rect x="69.3333" y="106.667" width="5.33333" height="5.33333" fill="#D0AB84"/>
<rect x="74.6667" y="106.667" width="5.33333" height="5.33333" fill="#D0AB84"/>
<rect x="80" y="106.667" width="5.33333" height="5.33333" fill="#EEDCBD"/>
<rect x="85.3333" y="106.667" width="5.33333" height="5.33333" fill="#EEDCBD"/>
<rect x="90.6667" y="106.667" width="5.33333" height="5.33333" fill="#EEDCBD"/>
<rect x="96" y="106.667" width="5.33333" height="5.33333" fill="#EEDCBD"/>
<rect x="101.333" y="106.667" width="5.33333" height="5.33333" fill="#EEDCBD"/>
<rect x="106.667" y="106.667" width="5.33333" height="5.33333" fill="#EEDCBD"/>
<rect x="112" y="106.667" width="5.33333" height="5.33333" fill="#EEDCBD"/>
<rect x="117.333" y="106.667" width="5.33333" height="5.33333" fill="#EEDCBD"/>
<rect x="122.667" y="106.667" width="5.33333" height="5.33333" fill="#EEDCBD"/>
<rect x="64" y="106.667" width="5.33333" height="5.33333" fill="#FD6D1C"/>
<rect x="64" y="101.333" width="5.33333" height="5.33333" fill="#2F2725"/>
<rect x="64" y="96" width="5.33333" height="5.33333" fill="#EDE6D8"/>
<rect x="64" y="90.6667" width="5.33333" height="5.33333" fill="#F4F2EE"/>
<rect x="64" y="85.3335" width="5.33333" height="5.33333" fill="#F4F2EE"/>
<rect x="64" y="80" width="5.33333" height="5.33333" fill="#F4F2EE"/>
<rect x="64" y="74.6667" width="5.33333" height="5.33333" fill="#F4F2EE"/>
<rect x="64" y="69.3335" width="5.33333" height="5.33333" fill="#2F2725"/>
<rect x="64" y="64" width="5.33333" height="5.33333" fill="#FF8C4B"/>
<rect x="64" y="58.6667" width="5.33333" height="5.33333" fill="#FD6D1C"/>
<rect x="69.3333" y="117.333" width="5.33333" height="5.33333" fill="#EEDCBD"/>
<rect x="69.3333" y="101.333" width="5.33333" height="5.33333" fill="#FF8C4B"/>
<rect x="69.3333" y="96" width="5.33333" height="5.33333" fill="#2F2725"/>
<rect x="69.3333" y="90.6667" width="5.33333" height="5.33333" fill="#EDE6D8"/>
<rect x="69.3333" y="85.3335" width="5.33333" height="5.33333" fill="#EDE6D8"/>
<rect x="69.3333" y="80" width="5.33333" height="5.33333" fill="#EDE6D8"/>
<rect x="69.3333" y="74.6667" width="5.33333" height="5.33333" fill="#2F2725"/>
<rect x="69.3333" y="69.3335" width="5.33333" height="5.33333" fill="#FF8C4B"/>
<rect x="69.3333" y="64" width="5.33333" height="5.33333" fill="#FFA826"/>
<rect x="69.3333" y="58.6667" width="5.33333" height="5.33333" fill="#FF8C4B"/>
<rect x="74.6667" y="117.333" width="5.33333" height="5.33333" fill="#EEDCBD"/>
<rect x="74.6667" y="101.333" width="5.33333" height="5.33333" fill="#FD6D1C"/>
<rect x="74.6667" y="96" width="5.33333" height="5.33333" fill="#FF8C4B"/>
<rect x="74.6667" y="90.6667" width="5.33333" height="5.33333" fill="#2F2725"/>
<rect x="74.6667" y="85.3335" width="5.33333" height="5.33333" fill="#2F2725"/>
<rect x="74.6667" y="80" width="5.33333" height="5.33333" fill="#2F2725"/>
<rect x="74.6667" y="74.6667" width="5.33333" height="5.33333" fill="#FF8C4B"/>
<rect x="74.6667" y="69.3335" width="5.33333" height="5.33333" fill="#FFA826"/>
<rect x="74.6667" y="64" width="5.33333" height="5.33333" fill="#FF8C4B"/>
<rect x="74.6667" y="58.6667" width="5.33333" height="5.33333" fill="#A0C800"/>
<rect x="74.6667" y="53.3335" width="5.33333" height="5.33333" fill="white"/>
<rect x="69.3333" y="53.3335" width="5.33333" height="5.33333" fill="white"/>
<rect x="64" y="53.3335" width="5.33333" height="5.33333" fill="white"/>
<rect x="64" y="48" width="5.33333" height="5.33333" fill="#2F2725"/>
<rect x="69.3333" y="48" width="5.33333" height="5.33333" fill="#2F2725"/>
<rect x="74.6667" y="48" width="5.33333" height="5.33333" fill="#2F2725"/>
<rect x="80" y="48" width="5.33333" height="5.33333" fill="#2F2725"/>
<rect x="80" y="117.333" width="5.33333" height="5.33333" fill="#EEDCBD"/>
<rect x="80" y="101.333" width="5.33333" height="5.33333" fill="#D0AB84"/>
<rect x="85.3333" y="101.333" width="5.33333" height="5.33333" fill="#EEDCBD"/>
<rect x="90.6667" y="101.333" width="5.33333" height="5.33333" fill="#EEDCBD"/>
<rect x="96" y="101.333" width="5.33333" height="5.33333" fill="#EEDCBD"/>
<rect x="101.333" y="101.333" width="5.33333" height="5.33333" fill="#EEDCBD"/>
<rect x="106.667" y="101.333" width="5.33333" height="5.33333" fill="#EEDCBD"/>
<rect x="112" y="101.333" width="5.33333" height="5.33333" fill="#EEDCBD"/>
<rect x="117.333" y="101.333" width="5.33333" height="5.33333" fill="#EEDCBD"/>
<rect x="122.667" y="101.333" width="5.33333" height="5.33333" fill="#EEDCBD"/>
<rect x="128" y="101.333" width="5.33333" height="5.33333" fill="#EEDCBD"/>
<rect x="85.3333" y="96" width="5.33333" height="5.33333" fill="#D0AB84"/>
<rect x="90.6667" y="96" width="5.33333" height="5.33333" fill="#D0AB84"/>
<rect x="96" y="96" width="5.33333" height="5.33333" fill="#D0AB84"/>
<rect x="101.333" y="96" width="5.33333" height="5.33333" fill="#EEDCBD"/>
<rect x="101.333" y="90.6667" width="5.33333" height="5.33333" fill="#D0AB84"/>
<rect x="106.667" y="96" width="5.33333" height="5.33333" fill="#EEDCBD"/>
<rect x="106.667" y="90.6667" width="5.33333" height="5.33333" fill="#D0AB84"/>
<rect x="112" y="96" width="5.33333" height="5.33333" fill="#EEDCBD"/>
<rect x="112" y="90.6667" width="5.33333" height="5.33333" fill="#EEDCBD"/>
<rect x="117.333" y="96" width="5.33333" height="5.33333" fill="#EEDCBD"/>
<rect x="117.333" y="90.6667" width="5.33333" height="5.33333" fill="#EEDCBD"/>
<rect x="122.667" y="96" width="5.33333" height="5.33333" fill="#EEDCBD"/>
<rect x="122.667" y="90.6667" width="5.33333" height="5.33333" fill="#EEDCBD"/>
<rect x="128" y="96" width="5.33333" height="5.33333" fill="#EEDCBD"/>
<rect x="133.333" y="96" width="5.33333" height="5.33333" fill="#EEDCBD"/>
<rect x="128" y="90.6667" width="5.33333" height="5.33333" fill="#EEDCBD"/>
<rect x="133.333" y="90.6667" width="5.33333" height="5.33333" fill="#EEDCBD"/>
<rect x="138.667" y="90.6667" width="5.33333" height="5.33333" fill="#EEDCBD"/>
<rect x="80" y="96" width="5.33333" height="5.33333" fill="#FD6D1C"/>
<rect x="80" y="90.6667" width="5.33333" height="5.33333" fill="#FF8C4B"/>
<rect x="80" y="85.3335" width="5.33333" height="5.33333" fill="#FD6D1C"/>
<rect x="80" y="80" width="5.33333" height="5.33333" fill="#FF8C4B"/>
<rect x="80" y="74.6667" width="5.33333" height="5.33333" fill="#FD6D1C"/>
<rect x="80" y="69.3335" width="5.33333" height="5.33333" fill="#FF8C4B"/>
<rect x="80" y="64" width="5.33333" height="5.33333" fill="#FFDA56"/>
<rect x="80" y="58.6667" width="5.33333" height="5.33333" fill="#A0C800"/>
<rect x="80" y="53.3335" width="5.33333" height="5.33333" fill="white"/>
<rect x="85.3333" y="117.333" width="5.33333" height="5.33333" fill="#EEDCBD"/>
<rect x="85.3333" y="90.6667" width="5.33333" height="5.33333" fill="#CE4A00"/>
<rect x="85.3333" y="85.3335" width="5.33333" height="5.33333" fill="#EDE6D8"/>
<rect x="85.3333" y="80" width="5.33333" height="5.33333" fill="#EDE6D8"/>
<rect x="85.3333" y="74.6667" width="5.33333" height="5.33333" fill="#FF6B00"/>
<rect x="85.3333" y="69.3335" width="5.33333" height="5.33333" fill="#FF6B00"/>
<rect x="85.3333" y="64" width="5.33333" height="5.33333" fill="#FFDA56"/>
<rect x="85.3333" y="58.6667" width="5.33333" height="5.33333" fill="#F4F2EE"/>
<rect x="85.3333" y="53.3335" width="5.33333" height="5.33333" fill="white"/>
<rect x="90.6667" y="117.333" width="5.33333" height="5.33333" fill="#EEDCBD"/>
<rect x="90.6667" y="90.6667" width="5.33333" height="5.33333" fill="#FF8C4B"/>
<rect x="90.6667" y="85.3335" width="5.33333" height="5.33333" fill="#EDE6D8"/>
<rect x="90.6667" y="80" width="5.33333" height="5.33333" fill="#F4F2EE"/>
<rect x="90.6667" y="74.6667" width="5.33333" height="5.33333" fill="#F4F2EE"/>
<rect x="90.6667" y="69.3335" width="5.33333" height="5.33333" fill="#F4F2EE"/>
<rect x="90.6667" y="64" width="5.33333" height="5.33333" fill="#F4F2EE"/>
<rect x="90.6667" y="58.6667" width="5.33333" height="5.33333" fill="#F4F2EE"/>
<rect x="96" y="117.333" width="5.33333" height="5.33333" fill="#EEDCBD"/>
<rect x="96" y="90.6667" width="5.33333" height="5.33333" fill="#FD6D1C"/>
<rect x="96" y="85.3335" width="5.33333" height="5.33333" fill="#2F2725"/>
<rect x="96" y="80" width="5.33333" height="5.33333" fill="#EDE6D8"/>
<rect x="96" y="74.6667" width="5.33333" height="5.33333" fill="#EDE6D8"/>
<rect x="96" y="69.3335" width="5.33333" height="5.33333" fill="#EDE6D8"/>
<rect x="96" y="64" width="5.33333" height="5.33333" fill="#EDE6D8"/>
<rect x="112" y="64" width="5.33333" height="5.33333" fill="#EDE6D8"/>
<rect x="112" y="58.6667" width="5.33333" height="5.33333" fill="#A0C800"/>
<rect x="112" y="53.3335" width="5.33333" height="5.33333" fill="#A0C800"/>
<rect x="106.667" y="48" width="5.33333" height="5.33333" fill="#FFDA56"/>
<rect x="101.333" y="42.6667" width="5.33333" height="5.33333" fill="#FF6B00"/>
<rect x="117.333" y="64" width="5.33333" height="5.33333" fill="#F4F2EE"/>
<rect x="117.333" y="58.6667" width="5.33333" height="5.33333" fill="#A0C800"/>
<rect x="117.333" y="53.3335" width="5.33333" height="5.33333" fill="#A0C800"/>
<rect x="112" y="48" width="5.33333" height="5.33333" fill="#FFDA56"/>
<rect x="106.667" y="42.6667" width="5.33333" height="5.33333" fill="#FF6B00"/>
<rect x="122.667" y="64" width="5.33333" height="5.33333" fill="#EDE6D8"/>
<rect x="122.667" y="58.6667" width="5.33333" height="5.33333" fill="#EDE6D8"/>
<rect x="122.667" y="53.3335" width="5.33333" height="5.33333" fill="#EDE6D8"/>
<rect x="117.333" y="48" width="5.33333" height="5.33333" fill="#F4F2EE"/>
<rect x="112" y="42.6667" width="5.33333" height="5.33333" fill="#F4F2EE"/>
<rect x="101.333" y="117.333" width="5.33333" height="5.33333" fill="#EEDCBD"/>
<rect x="101.333" y="85.3335" width="5.33333" height="5.33333" fill="#FF8C4B"/>
<rect x="101.333" y="80" width="5.33333" height="5.33333" fill="#2F2725"/>
<rect x="101.333" y="74.6667" width="5.33333" height="5.33333" fill="#2F2725"/>
<rect x="101.333" y="69.3335" width="5.33333" height="5.33333" fill="#2F2725"/>
<rect x="101.333" y="64" width="5.33333" height="5.33333" fill="#2F2725"/>
<rect x="101.333" y="58.6667" width="5.33333" height="5.33333" fill="#FF8C4B"/>
<rect x="101.333" y="53.3335" width="5.33333" height="5.33333" fill="#FD6D1C"/>
<rect x="101.333" y="48" width="5.33333" height="5.33333" fill="#FF8C4B"/>
<rect x="96" y="58.6667" width="5.33333" height="5.33333" fill="#2F2725"/>
<rect x="96" y="53.3335" width="5.33333" height="5.33333" fill="#FF8C4B"/>
<rect x="96" y="48" width="5.33333" height="5.33333" fill="#FD6D1C"/>
<rect x="96" y="42.6667" width="5.33333" height="5.33333" fill="#FF8C4B"/>
<rect x="90.6667" y="53.3335" width="5.33333" height="5.33333" fill="#2F2725"/>
<rect x="53.3333" y="128" width="5.33333" height="5.33333" fill="#D0AB84"/>
<rect x="53.3333" y="122.667" width="5.33333" height="5.33333" fill="#F3F7FA"/>
<rect x="64" y="128" width="5.33333" height="5.33333" fill="#D0AB84"/>
<rect x="64" y="122.667" width="5.33333" height="5.33333" fill="#F3F7FA"/>
<rect x="74.6667" y="128" width="5.33333" height="5.33333" fill="#D0AB84"/>
<rect x="74.6667" y="122.667" width="5.33333" height="5.33333" fill="#F3F7FA"/>
<rect x="85.3333" y="128" width="5.33333" height="5.33333" fill="#D0AB84"/>
<rect x="85.3333" y="122.667" width="5.33333" height="5.33333" fill="#F3F7FA"/>
<rect x="96" y="128" width="5.33333" height="5.33333" fill="#D0AB84"/>
<rect x="96" y="122.667" width="5.33333" height="5.33333" fill="#F3F7FA"/>
<rect x="106.667" y="122.667" width="5.33333" height="5.33333" fill="#D0AB84"/>
<rect x="106.667" y="117.333" width="5.33333" height="5.33333" fill="#F3F7FA"/>
<rect x="117.333" y="117.333" width="5.33333" height="5.33333" fill="#D0AB84"/>
<rect x="117.333" y="112" width="5.33333" height="5.33333" fill="#F3F7FA"/>
<rect x="32" y="117.333" width="5.33333" height="5.33333" fill="#D0AB84"/>
<rect x="32" y="112" width="5.33333" height="5.33333" fill="#F3F7FA"/>
<rect x="26.6667" y="112" width="5.33333" height="5.33333" fill="#D0AB84"/>
<rect x="26.6667" y="106.667" width="5.33333" height="5.33333" fill="#F3F7FA"/>
<rect x="21.3333" y="106.667" width="5.33333" height="5.33333" fill="#D0AB84"/>
<rect x="21.3333" y="101.333" width="5.33333" height="5.33333" fill="#F3F7FA"/>
<rect x="16" y="101.333" width="5.33333" height="5.33333" fill="#D0AB84"/>
<rect x="16" y="96" width="5.33333" height="5.33333" fill="#F3F7FA"/>
<rect x="58.6667" y="128" width="5.33333" height="5.33333" fill="#D0AB84"/>
<rect x="58.6667" y="122.667" width="5.33333" height="5.33333" fill="#F3F7FA"/>
<rect x="69.3333" y="128" width="5.33333" height="5.33333" fill="#D0AB84"/>
<rect x="69.3333" y="122.667" width="5.33333" height="5.33333" fill="#F3F7FA"/>
<rect x="80" y="128" width="5.33333" height="5.33333" fill="#D0AB84"/>
<rect x="80" y="122.667" width="5.33333" height="5.33333" fill="#F3F7FA"/>
<rect x="90.6667" y="128" width="5.33333" height="5.33333" fill="#D0AB84"/>
<rect x="90.6667" y="122.667" width="5.33333" height="5.33333" fill="#F3F7FA"/>
<rect x="101.333" y="128" width="5.33333" height="5.33333" fill="#D0AB84"/>
<rect x="101.333" y="122.667" width="5.33333" height="5.33333" fill="#F3F7FA"/>
<rect x="112" y="122.667" width="5.33333" height="5.33333" fill="#D0AB84"/>
<rect x="112" y="117.333" width="5.33333" height="5.33333" fill="#F3F7FA"/>
<rect x="122.667" y="117.333" width="5.33333" height="5.33333" fill="#D0AB84"/>
<rect x="122.667" y="112" width="5.33333" height="5.33333" fill="#F3F7FA"/>
<rect x="128" y="112" width="5.33333" height="5.33333" fill="#D0AB84"/>
<rect x="128" y="106.667" width="5.33333" height="5.33333" fill="#F3F7FA"/>
<rect x="133.333" y="106.667" width="5.33333" height="5.33333" fill="#D0AB84"/>
<rect x="133.333" y="101.333" width="5.33333" height="5.33333" fill="#F3F7FA"/>
<rect x="138.667" y="101.333" width="5.33333" height="5.33333" fill="#D0AB84"/>
<rect x="138.667" y="96" width="5.33333" height="5.33333" fill="#F3F7FA"/>
<rect x="37.3333" y="117.333" width="5.33333" height="5.33333" fill="#D0AB84"/>
<rect x="37.3333" y="112" width="5.33333" height="5.33333" fill="#F3F7FA"/>
</svg>
