<svg width="120" height="120" viewBox="0 0 120 120" fill="none" xmlns="http://www.w3.org/2000/svg">
<rect width="4" height="4" transform="matrix(-1 0 0 1 60 96)" fill="black"/>
<rect width="4" height="4" transform="matrix(-1 0 0 1 56 96)" fill="black"/>
<rect width="4" height="4" transform="matrix(-1 0 0 1 52 96)" fill="black"/>
<rect width="4" height="4" transform="matrix(-1 0 0 1 48 96)" fill="black"/>
<rect width="4" height="4" transform="matrix(-1 0 0 1 44 96)" fill="black"/>
<rect width="4" height="4" transform="matrix(-1 0 0 1 40 92)" fill="black"/>
<rect width="4" height="4" transform="matrix(-1 0 0 1 36 92)" fill="black"/>
<rect width="4" height="4" transform="matrix(-1 0 0 1 32 88)" fill="black"/>
<rect width="4" height="4" transform="matrix(-1 0 0 1 28 88)" fill="black"/>
<rect width="4" height="4" transform="matrix(-1 0 0 1 20 80)" fill="black"/>
<rect width="4" height="4" transform="matrix(-1 0 0 1 24 84)" fill="black"/>
<rect width="4" height="4" transform="matrix(-1 0 0 1 16 76)" fill="black"/>
<rect x="60" y="96" width="4" height="4" fill="black"/>
<rect x="64" y="96" width="4" height="4" fill="black"/>
<rect x="68" y="96" width="4" height="4" fill="black"/>
<rect x="72" y="96" width="4" height="4" fill="black"/>
<rect x="76" y="96" width="4" height="4" fill="black"/>
<rect x="80" y="92" width="4" height="4" fill="black"/>
<rect x="84" y="92" width="4" height="4" fill="black"/>
<rect x="88" y="88" width="4" height="4" fill="black"/>
<rect x="92" y="88" width="4" height="4" fill="black"/>
<rect x="100" y="80" width="4" height="4" fill="black"/>
<rect x="96" y="84" width="4" height="4" fill="black"/>
<rect x="104" y="76" width="4" height="4" fill="black"/>
<rect width="4" height="4" transform="matrix(-1 0 0 1 112 56)" fill="black"/>
<rect width="4" height="4" transform="matrix(-1 0 0 1 12 56)" fill="black"/>
<rect width="4" height="4" transform="matrix(-1 0 0 1 112 60)" fill="black"/>
<rect width="4" height="4" transform="matrix(-1 0 0 1 12 60)" fill="black"/>
<rect width="4" height="4" transform="matrix(-1 0 0 1 112 64)" fill="black"/>
<rect width="4" height="4" transform="matrix(-1 0 0 1 12 64)" fill="black"/>
<rect x="108" y="48" width="4" height="4" fill="black"/>
<rect x="8" y="48" width="4" height="4" fill="black"/>
<rect x="108" y="52" width="4" height="4" fill="black"/>
<rect x="8" y="52" width="4" height="4" fill="black"/>
<rect x="108" y="68" width="4" height="4" fill="black"/>
<rect x="8" y="68" width="4" height="4" fill="black"/>
<rect x="108" y="72" width="4" height="4" fill="black"/>
<rect x="8" y="72" width="4" height="4" fill="black"/>
<rect width="4" height="4" transform="matrix(-1 0 0 1 24 32)" fill="black"/>
<rect width="4" height="4" transform="matrix(-1 0 0 1 28 28)" fill="black"/>
<rect width="4" height="4" transform="matrix(-1 0 0 1 36 24)" fill="black"/>
<rect width="4" height="4" transform="matrix(-1 0 0 1 44 20)" fill="black"/>
<rect width="4" height="4" transform="matrix(-1 0 0 1 52 20)" fill="black"/>
<rect width="4" height="4" transform="matrix(-1 0 0 1 60 20)" fill="black"/>
<rect width="4" height="4" transform="matrix(-1 0 0 1 68 20)" fill="black"/>
<rect width="4" height="4" transform="matrix(-1 0 0 1 76 20)" fill="black"/>
<rect width="4" height="4" transform="matrix(-1 0 0 1 84 24)" fill="black"/>
<rect width="4" height="4" transform="matrix(-1 0 0 1 32 28)" fill="black"/>
<rect width="4" height="4" transform="matrix(-1 0 0 1 40 24)" fill="black"/>
<rect width="4" height="4" transform="matrix(-1 0 0 1 48 20)" fill="black"/>
<rect width="4" height="4" transform="matrix(-1 0 0 1 56 20)" fill="black"/>
<rect width="4" height="4" transform="matrix(-1 0 0 1 64 20)" fill="black"/>
<rect width="4" height="4" transform="matrix(-1 0 0 1 72 20)" fill="black"/>
<rect width="4" height="4" transform="matrix(-1 0 0 1 80 20)" fill="black"/>
<rect width="4" height="4" transform="matrix(-1 0 0 1 88 24)" fill="black"/>
<rect width="4" height="4" transform="matrix(-1 0 0 1 96 28)" fill="black"/>
<rect width="4" height="4" transform="matrix(-1 0 0 1 92 28)" fill="black"/>
<rect width="4" height="4" transform="matrix(-1 0 0 1 100 32)" fill="black"/>
<rect width="4" height="4" transform="matrix(-1 0 0 1 104 36)" fill="black"/>
<rect width="4" height="4" transform="matrix(-1 0 0 1 108 40)" fill="black"/>
<rect width="4" height="4" transform="matrix(-1 0 0 1 108 44)" fill="black"/>
<rect width="4" height="4" transform="matrix(-1 0 0 1 20 36)" fill="black"/>
<rect width="4" height="4" transform="matrix(-1 0 0 1 16 40)" fill="black"/>
<rect width="4" height="4" transform="matrix(-1 0 0 1 16 44)" fill="black"/>
<rect x="32" y="88" width="4" height="4" fill="#D5D6D8"/>
<rect x="36" y="88" width="4" height="4" fill="#D5D6D8"/>
<rect x="40" y="92" width="4" height="4" fill="#D5D6D8"/>
<rect x="48" y="92" width="4" height="4" fill="#D5D6D8"/>
<rect x="56" y="92" width="4" height="4" fill="#D5D6D8"/>
<rect x="64" y="92" width="4" height="4" fill="#D5D6D8"/>
<rect x="72" y="92" width="4" height="4" fill="#D5D6D8"/>
<rect x="80" y="88" width="4" height="4" fill="#D5D6D8"/>
<rect x="88" y="84" width="4" height="4" fill="#D5D6D8"/>
<rect x="24" y="84" width="4" height="4" fill="#D5D6D8"/>
<rect x="20" y="80" width="4" height="4" fill="#D5D6D8"/>
<rect x="16" y="76" width="4" height="4" fill="#D5D6D8"/>
<rect x="12" y="72" width="4" height="4" fill="#D5D6D8"/>
<rect x="44" y="92" width="4" height="4" fill="#D5D6D8"/>
<rect x="52" y="92" width="4" height="4" fill="#D5D6D8"/>
<rect x="60" y="92" width="4" height="4" fill="#D5D6D8"/>
<rect x="68" y="92" width="4" height="4" fill="#D5D6D8"/>
<rect x="76" y="92" width="4" height="4" fill="#D5D6D8"/>
<rect x="84" y="88" width="4" height="4" fill="#D5D6D8"/>
<rect x="92" y="84" width="4" height="4" fill="#D5D6D8"/>
<rect x="96" y="80" width="4" height="4" fill="#D5D6D8"/>
<rect x="100" y="76" width="4" height="4" fill="#D5D6D8"/>
<rect x="104" y="72" width="4" height="4" fill="#D5D6D8"/>
<rect x="28" y="84" width="4" height="4" fill="#D5D6D8"/>
<rect x="40" y="84" width="4" height="4" fill="#D9DBDD"/>
<rect x="88" y="76" width="4" height="4" fill="#D9DBDD"/>
<rect x="92" y="76" width="4" height="4" fill="#E8E9EB"/>
<rect x="28" y="76" width="4" height="4" fill="#D9DBDD"/>
<rect x="24" y="76" width="4" height="4" fill="#E8E9EB"/>
<rect x="92" y="72" width="4" height="4" fill="#D9DBDD"/>
<rect x="24" y="72" width="4" height="4" fill="#D9DBDD"/>
<rect x="20" y="72" width="4" height="4" fill="#E8E9EB"/>
<rect x="96" y="72" width="4" height="4" fill="#E8E9EB"/>
<rect x="100" y="68" width="4" height="4" fill="#E8E9EB"/>
<rect x="96" y="68" width="4" height="4" fill="#D9DBDD"/>
<rect x="84" y="80" width="4" height="4" fill="#D9DBDD"/>
<rect x="32" y="80" width="4" height="4" fill="#D9DBDD"/>
<rect x="16" y="64" width="4" height="4" fill="#D9DBDD"/>
<rect x="16" y="60" width="4" height="4" fill="#FC893E"/>
<rect x="16" y="56" width="4" height="4" fill="#FFD189"/>
<rect x="16" y="52" width="4" height="4" fill="#FFD189"/>
<rect x="16" y="48" width="4" height="4" fill="#FFD189"/>
<rect x="16" y="44" width="4" height="4" fill="#E8E9EB"/>
<rect x="16" y="68" width="4" height="4" fill="#E8E9EB"/>
<rect x="20" y="68" width="4" height="4" fill="#D9DBDD"/>
<rect x="12" y="64" width="4" height="4" fill="#E8E9EB"/>
<rect x="104" y="64" width="4" height="4" fill="#E8E9EB"/>
<rect x="12" y="60" width="4" height="4" fill="#E8E9EB"/>
<rect x="104" y="60" width="4" height="4" fill="#E8E9EB"/>
<rect x="104" y="52" width="4" height="4" fill="#E8E9EB"/>
<rect x="104" y="56" width="4" height="4" fill="#E8E9EB"/>
<rect x="104" y="48" width="4" height="4" fill="#E8E9EB"/>
<rect x="12" y="56" width="4" height="4" fill="#E8E9EB"/>
<rect x="12" y="52" width="4" height="4" fill="#E8E9EB"/>
<rect x="12" y="48" width="4" height="4" fill="#E8E9EB"/>
<rect x="20" y="36" width="4" height="4" fill="#E8E9EB"/>
<rect x="20" y="40" width="4" height="4" fill="#E8E9EB"/>
<rect x="24" y="36" width="4" height="4" fill="#E8E9EB"/>
<rect x="16" y="40" width="4" height="4" fill="#E8E9EB"/>
<rect x="32" y="28" width="4" height="4" fill="#E8E9EB"/>
<rect x="28" y="32" width="4" height="4" fill="#E8E9EB"/>
<rect x="40" y="24" width="4" height="4" fill="#E8E9EB"/>
<rect x="76" y="24" width="4" height="4" fill="#E8E9EB"/>
<rect x="84" y="28" width="4" height="4" fill="#E8E9EB"/>
<rect x="88" y="32" width="4" height="4" fill="#E8E9EB"/>
<rect x="92" y="32" width="4" height="4" fill="#E8E9EB"/>
<rect x="92" y="36" width="4" height="4" fill="#E8E9EB"/>
<rect x="96" y="40" width="4" height="4" fill="#E8E9EB"/>
<rect x="96" y="36" width="4" height="4" fill="#E8E9EB"/>
<rect x="100" y="40" width="4" height="4" fill="#E8E9EB"/>
<rect x="100" y="44" width="4" height="4" fill="#E8E9EB"/>
<rect x="100" y="48" width="4" height="4" fill="#FFD189"/>
<rect x="100" y="52" width="4" height="4" fill="#FFD189"/>
<rect x="100" y="56" width="4" height="4" fill="#FFD189"/>
<rect x="100" y="60" width="4" height="4" fill="#FC893E"/>
<rect x="100" y="64" width="4" height="4" fill="#D9DBDD"/>
<rect x="44" y="24" width="4" height="4" fill="#E8E9EB"/>
<rect x="44" y="32" width="4" height="4" fill="#FFD189"/>
<rect x="44" y="28" width="4" height="4" fill="#FFD189"/>
<rect x="40" y="32" width="4" height="4" fill="#FFD189"/>
<rect x="40" y="28" width="4" height="4" fill="#FFD189"/>
<rect x="32" y="32" width="4" height="4" fill="#FFD189"/>
<rect width="4" height="4" transform="matrix(-1 0 0 1 88 32)" fill="#FFD189"/>
<rect width="4" height="4" transform="matrix(-1 0 0 1 80 32)" fill="#FFD189"/>
<rect x="36" y="28" width="4" height="4" fill="#FFD189"/>
<rect width="4" height="4" transform="matrix(-1 0 0 1 84 28)" fill="#FFD189"/>
<rect width="4" height="4" transform="matrix(-1 0 0 1 80 28)" fill="#FFD189"/>
<rect x="40" y="36" width="4" height="4" fill="#FFD189"/>
<rect x="36" y="36" width="4" height="4" fill="#FFD189"/>
<rect width="4" height="4" transform="matrix(-1 0 0 1 80 36)" fill="#FFD189"/>
<rect x="28" y="36" width="4" height="4" fill="#FFD189"/>
<rect width="4" height="4" transform="matrix(-1 0 0 1 92 36)" fill="#FFD189"/>
<rect width="4" height="4" transform="matrix(-1 0 0 1 84 36)" fill="#FFD189"/>
<rect x="72" y="32" width="4" height="4" fill="#FFD189"/>
<rect x="48" y="24" width="4" height="4" fill="#E8E9EB"/>
<rect x="48" y="28" width="4" height="4" fill="#FFD189"/>
<rect x="48" y="32" width="4" height="4" fill="#ED6B00"/>
<rect x="52" y="32" width="4" height="4" fill="#ED6B00"/>
<rect x="64" y="32" width="4" height="4" fill="#ED6B00"/>
<rect x="68" y="32" width="4" height="4" fill="#ED6B00"/>
<rect x="72" y="36" width="4" height="4" fill="#ED6B00"/>
<rect x="72" y="44" width="4" height="4" fill="#ED6B00"/>
<rect width="4" height="4" transform="matrix(1 0 0 -1 72 64)" fill="#A62B0A"/>
<rect x="44" y="44" width="4" height="4" fill="#ED6B00"/>
<rect width="4" height="4" transform="matrix(1 0 0 -1 44 64)" fill="#A62B0A"/>
<rect x="72" y="48" width="4" height="4" fill="#A62B0A"/>
<rect width="4" height="4" transform="matrix(1 0 0 -1 72 60)" fill="#ED6B00"/>
<rect x="44" y="48" width="4" height="4" fill="#A62B0A"/>
<rect width="4" height="4" transform="matrix(1 0 0 -1 44 60)" fill="#A62B0A"/>
<rect x="76" y="44" width="4" height="4" fill="#ED6B00"/>
<rect width="4" height="4" transform="matrix(1 0 0 -1 76 64)" fill="#ED6B00"/>
<rect x="48" y="44" width="4" height="4" fill="#ED6B00"/>
<rect width="4" height="4" transform="matrix(1 0 0 -1 48 64)" fill="#A62B0A"/>
<rect x="76" y="48" width="4" height="4" fill="#ED6B00"/>
<rect width="4" height="4" transform="matrix(1 0 0 -1 76 60)" fill="#ED6B00"/>
<rect x="48" y="48" width="4" height="4" fill="#ED6B00"/>
<rect width="4" height="4" transform="matrix(1 0 0 -1 48 60)" fill="#ED6B00"/>
<rect x="84" y="36" width="4" height="4" fill="#ED6B00"/>
<rect width="4" height="4" transform="matrix(-1 0 0 1 36 36)" fill="#A62B0A"/>
<rect x="80" y="32" width="4" height="4" fill="#ED6B00"/>
<rect width="4" height="4" transform="matrix(-1 0 0 1 40 32)" fill="#ED6B00"/>
<rect x="52" y="36" width="4" height="4" fill="#ED6B00"/>
<rect x="68" y="36" width="4" height="4" fill="#A62B0A"/>
<rect x="68" y="44" width="4" height="4" fill="#A62B0A"/>
<rect width="4" height="4" transform="matrix(1 0 0 -1 68 64)" fill="#A62B0A"/>
<rect x="40" y="44" width="4" height="4" fill="#A62B0A"/>
<rect width="4" height="4" transform="matrix(1 0 0 -1 40 64)" fill="#A62B0A"/>
<rect x="32" y="44" width="4" height="4" fill="#ED6B00"/>
<rect width="4" height="4" transform="matrix(1 0 0 -1 32 64)" fill="#A62B0A"/>
<rect width="4" height="4" transform="matrix(-1 0 0 1 88 44)" fill="#A62B0A"/>
<rect x="88" y="64" width="4" height="4" transform="rotate(180 88 64)" fill="#A62B0A"/>
<rect x="28" y="44" width="4" height="4" fill="#A62B0A"/>
<rect width="4" height="4" transform="matrix(1 0 0 -1 28 64)" fill="#A62B0A"/>
<rect width="4" height="4" transform="matrix(-1 0 0 1 92 44)" fill="#ED6B00"/>
<rect x="92" y="64" width="4" height="4" transform="rotate(180 92 64)" fill="#A62B0A"/>
<rect x="68" y="48" width="4" height="4" fill="#A62B0A"/>
<rect width="4" height="4" transform="matrix(1 0 0 -1 68 60)" fill="#A62B0A"/>
<rect x="40" y="48" width="4" height="4" fill="#A62B0A"/>
<rect width="4" height="4" transform="matrix(1 0 0 -1 40 60)" fill="#A62B0A"/>
<rect x="32" y="48" width="4" height="4" fill="#A62B0A"/>
<rect width="4" height="4" transform="matrix(1 0 0 -1 32 60)" fill="#ED6B00"/>
<rect width="4" height="4" transform="matrix(-1 0 0 1 88 48)" fill="#A62B0A"/>
<rect x="88" y="60" width="4" height="4" transform="rotate(180 88 60)" fill="#A62B0A"/>
<rect x="28" y="48" width="4" height="4" fill="#A62B0A"/>
<rect width="4" height="4" transform="matrix(1 0 0 -1 28 60)" fill="#A62B0A"/>
<rect width="4" height="4" transform="matrix(-1 0 0 1 92 48)" fill="#A62B0A"/>
<rect x="92" y="60" width="4" height="4" transform="rotate(180 92 60)" fill="#ED6B00"/>
<rect x="24" y="48" width="4" height="4" fill="#A62B0A"/>
<rect width="4" height="4" transform="matrix(1 0 0 -1 24 60)" fill="#A62B0A"/>
<rect width="4" height="4" transform="matrix(-1 0 0 1 96 48)" fill="#ED6B00"/>
<rect x="96" y="60" width="4" height="4" transform="rotate(180 96 60)" fill="#ED6B00"/>
<rect x="48" y="36" width="4" height="4" fill="#A62B0A"/>
<rect x="64" y="36" width="4" height="4" fill="#A62B0A"/>
<rect x="44" y="36" width="4" height="4" fill="#A62B0A"/>
<rect x="52" y="24" width="4" height="4" fill="#E8E9EB"/>
<rect x="52" y="28" width="4" height="4" fill="#FFD189"/>
<rect x="56" y="24" width="4" height="4" fill="#E8E9EB"/>
<rect x="56" y="28" width="4" height="4" fill="#FFD189"/>
<rect x="56" y="32" width="4" height="4" fill="#FFD189"/>
<rect x="56" y="60" width="4" height="4" fill="#FFD189"/>
<rect x="56" y="36" width="4" height="4" fill="#FFD189"/>
<rect x="56" y="56" width="4" height="4" fill="#FFC76F"/>
<rect x="56" y="64" width="4" height="4" fill="#FFD189"/>
<rect x="56" y="40" width="4" height="4" fill="#FFEF9A"/>
<rect x="56" y="44" width="4" height="4" fill="#FFEF9A"/>
<rect x="56" y="48" width="4" height="4" fill="#FFEF9A"/>
<rect x="56" y="52" width="4" height="4" fill="#FEDC54"/>
<rect x="52" y="48" width="4" height="4" fill="#FEDC54"/>
<rect x="52" y="44" width="4" height="4" fill="#FFEF9A"/>
<rect x="52" y="40" width="4" height="4" fill="#FFD189"/>
<rect x="48" y="40" width="4" height="4" fill="#FFD189"/>
<rect width="4" height="4" transform="matrix(1 0 0 -1 48 68)" fill="#FFD189"/>
<rect x="44" y="40" width="4" height="4" fill="#FFD189"/>
<rect width="4" height="4" transform="matrix(1 0 0 -1 44 68)" fill="#FFD189"/>
<rect x="40" y="40" width="4" height="4" fill="#FFD189"/>
<rect width="4" height="4" transform="matrix(1 0 0 -1 40 68)" fill="#FFD189"/>
<rect x="36" y="40" width="4" height="4" fill="#FFD189"/>
<rect width="4" height="4" transform="matrix(1 0 0 -1 36 68)" fill="#FFD189"/>
<rect x="36" y="44" width="4" height="4" fill="#FFD189"/>
<rect width="4" height="4" transform="matrix(1 0 0 -1 36 64)" fill="#FFD189"/>
<rect x="36" y="48" width="4" height="4" fill="#FFD189"/>
<rect width="4" height="4" transform="matrix(1 0 0 -1 36 60)" fill="#FFD189"/>
<rect x="32" y="40" width="4" height="4" fill="#FFD189"/>
<rect width="4" height="4" transform="matrix(1 0 0 -1 32 68)" fill="#FFD189"/>
<rect x="28" y="40" width="4" height="4" fill="#FFD189"/>
<rect width="4" height="4" transform="matrix(1 0 0 -1 28 68)" fill="#FFD189"/>
<rect x="24" y="40" width="4" height="4" fill="#FFD189"/>
<rect width="4" height="4" transform="matrix(1 0 0 -1 24 68)" fill="#FFD189"/>
<rect x="20" y="44" width="4" height="4" fill="#FFD189"/>
<rect width="4" height="4" transform="matrix(1 0 0 -1 20 64)" fill="#FFD189"/>
<rect width="4" height="4" transform="matrix(1 0 0 -1 20 68)" fill="#FC893E"/>
<rect width="4" height="4" transform="matrix(1 0 0 -1 24 72)" fill="#FC893E"/>
<rect width="4" height="4" transform="matrix(1 0 0 -1 28 76)" fill="#FC893E"/>
<rect width="4" height="4" transform="matrix(1 0 0 -1 32 80)" fill="#FC893E"/>
<rect width="4" height="4" transform="matrix(1 0 0 -1 36 84)" fill="#FC893E"/>
<rect width="4" height="4" transform="matrix(1 0 0 -1 40 84)" fill="#FC893E"/>
<rect width="4" height="4" transform="matrix(1 0 0 -1 44 84)" fill="#FC893E"/>
<rect width="4" height="4" transform="matrix(1 0 0 -1 48 84)" fill="#FC893E"/>
<rect width="4" height="4" transform="matrix(1 0 0 -1 52 84)" fill="#FC893E"/>
<rect width="4" height="4" transform="matrix(1 0 0 -1 56 84)" fill="#FC893E"/>
<rect width="4" height="4" transform="matrix(1 0 0 -1 60 84)" fill="#FC893E"/>
<rect width="4" height="4" transform="matrix(1 0 0 -1 64 84)" fill="#FC893E"/>
<rect width="4" height="4" transform="matrix(1 0 0 -1 68 84)" fill="#FC893E"/>
<rect width="4" height="4" transform="matrix(1 0 0 -1 72 84)" fill="#FC893E"/>
<rect width="4" height="4" transform="matrix(1 0 0 -1 76 84)" fill="#FC893E"/>
<rect width="4" height="4" transform="matrix(1 0 0 -1 80 84)" fill="#FC893E"/>
<rect width="4" height="4" transform="matrix(1 0 0 -1 84 80)" fill="#FC893E"/>
<rect width="4" height="4" transform="matrix(1 0 0 -1 88 76)" fill="#FC893E"/>
<rect width="4" height="4" transform="matrix(1 0 0 -1 92 72)" fill="#FC893E"/>
<rect width="4" height="4" transform="matrix(1 0 0 -1 96 68)" fill="#FC893E"/>
<rect x="96" y="44" width="4" height="4" fill="#FFD189"/>
<rect width="4" height="4" transform="matrix(1 0 0 -1 96 64)" fill="#FFD189"/>
<rect x="92" y="40" width="4" height="4" fill="#FFD189"/>
<rect width="4" height="4" transform="matrix(1 0 0 -1 92 68)" fill="#FFD189"/>
<rect x="24" y="44" width="4" height="4" fill="#FFD189"/>
<rect width="4" height="4" transform="matrix(1 0 0 -1 24 64)" fill="#FFD189"/>
<rect x="20" y="48" width="4" height="4" fill="#FFD189"/>
<rect width="4" height="4" transform="matrix(1 0 0 -1 20 60)" fill="#FFD189"/>
<rect x="96" y="48" width="4" height="4" fill="#FFD189"/>
<rect width="4" height="4" transform="matrix(1 0 0 -1 96 60)" fill="#FFD189"/>
<rect x="92" y="44" width="4" height="4" fill="#FFD189"/>
<rect width="4" height="4" transform="matrix(1 0 0 -1 92 64)" fill="#FFD189"/>
<rect x="60" y="24" width="4" height="4" fill="#E8E9EB"/>
<rect x="60" y="28" width="4" height="4" fill="#FFD189"/>
<rect x="60" y="32" width="4" height="4" fill="#FFD189"/>
<rect x="60" y="60" width="4" height="4" fill="#FFD189"/>
<rect x="64" y="60" width="4" height="4" fill="#FFD189"/>
<rect x="52" y="60" width="4" height="4" fill="#FFD189"/>
<rect x="60" y="36" width="4" height="4" fill="#FFD189"/>
<rect x="60" y="56" width="4" height="4" fill="#FFC76F"/>
<rect x="64" y="56" width="4" height="4" fill="#A62B0A"/>
<rect x="52" y="56" width="4" height="4" fill="#ED6B00"/>
<rect x="60" y="64" width="4" height="4" fill="#FFD189"/>
<rect x="64" y="64" width="4" height="4" fill="#FFD189"/>
<rect x="52" y="64" width="4" height="4" fill="#FFD189"/>
<rect x="60" y="40" width="4" height="4" fill="#FFEF9A"/>
<rect x="60" y="44" width="4" height="4" fill="#FFEF9A"/>
<rect x="60" y="48" width="4" height="4" fill="#FFEF9A"/>
<rect x="60" y="52" width="4" height="4" fill="#FEDC54"/>
<rect x="64" y="48" width="4" height="4" fill="#FEDC54"/>
<rect x="64" y="44" width="4" height="4" fill="#FFEF9A"/>
<rect x="64" y="40" width="4" height="4" fill="#FFD189"/>
<rect x="68" y="40" width="4" height="4" fill="#FFD189"/>
<rect width="4" height="4" transform="matrix(1 0 0 -1 68 68)" fill="#FFD189"/>
<rect x="72" y="40" width="4" height="4" fill="#FFD189"/>
<rect width="4" height="4" transform="matrix(1 0 0 -1 72 68)" fill="#FFD189"/>
<rect x="76" y="40" width="4" height="4" fill="#FFD189"/>
<rect width="4" height="4" transform="matrix(1 0 0 -1 76 68)" fill="#FFD189"/>
<rect x="80" y="40" width="4" height="4" fill="#FFD189"/>
<rect width="4" height="4" transform="matrix(1 0 0 -1 80 68)" fill="#FFD189"/>
<rect x="80" y="44" width="4" height="4" fill="#FFD189"/>
<rect width="4" height="4" transform="matrix(1 0 0 -1 80 64)" fill="#FFD189"/>
<rect x="80" y="48" width="4" height="4" fill="#FFD189"/>
<rect width="4" height="4" transform="matrix(1 0 0 -1 80 60)" fill="#FFD189"/>
<rect x="80" y="52" width="4" height="4" fill="#FFD189"/>
<rect x="36" y="52" width="4" height="4" fill="#FFD189"/>
<rect x="84" y="52" width="4" height="4" fill="#FFD189"/>
<rect x="40" y="52" width="4" height="4" fill="#FFD189"/>
<rect x="64" y="52" width="4" height="4" fill="#FFC76F"/>
<rect x="20" y="52" width="4" height="4" fill="#FFD189"/>
<rect x="88" y="52" width="4" height="4" fill="#FFD189"/>
<rect x="44" y="52" width="4" height="4" fill="#FFD189"/>
<rect x="68" y="52" width="4" height="4" fill="#FFD189"/>
<rect x="24" y="52" width="4" height="4" fill="#FFD189"/>
<rect x="92" y="52" width="4" height="4" fill="#FFD189"/>
<rect x="48" y="52" width="4" height="4" fill="#FFD189"/>
<rect x="72" y="52" width="4" height="4" fill="#FFD189"/>
<rect x="28" y="52" width="4" height="4" fill="#FFD189"/>
<rect x="96" y="52" width="4" height="4" fill="#FFD189"/>
<rect x="52" y="52" width="4" height="4" fill="#FFC76F"/>
<rect x="76" y="52" width="4" height="4" fill="#FFD189"/>
<rect x="32" y="52" width="4" height="4" fill="#FFD189"/>
<rect x="84" y="40" width="4" height="4" fill="#FFD189"/>
<rect width="4" height="4" transform="matrix(1 0 0 -1 84 68)" fill="#FFD189"/>
<rect x="88" y="40" width="4" height="4" fill="#FFD189"/>
<rect width="4" height="4" transform="matrix(1 0 0 -1 88 68)" fill="#FFD189"/>
<rect x="64" y="24" width="4" height="4" fill="#E8E9EB"/>
<rect x="64" y="28" width="4" height="4" fill="#FFD189"/>
<rect x="68" y="24" width="4" height="4" fill="#E8E9EB"/>
<rect x="68" y="28" width="4" height="4" fill="#FFD189"/>
<rect x="72" y="24" width="4" height="4" fill="#E8E9EB"/>
<rect x="72" y="28" width="4" height="4" fill="#FFD189"/>
<rect x="24" y="32" width="4" height="4" fill="#E8E9EB"/>
<rect x="44" y="84" width="4" height="4" fill="#D9DBDD"/>
<rect x="48" y="84" width="4" height="4" fill="#D9DBDD"/>
<rect x="52" y="84" width="4" height="4" fill="#D9DBDD"/>
<rect x="56" y="84" width="4" height="4" fill="#D9DBDD"/>
<rect x="60" y="84" width="4" height="4" fill="#D9DBDD"/>
<rect x="64" y="84" width="4" height="4" fill="#D9DBDD"/>
<rect x="68" y="84" width="4" height="4" fill="#D9DBDD"/>
<rect x="72" y="84" width="4" height="4" fill="#D9DBDD"/>
<rect x="76" y="84" width="4" height="4" fill="#D9DBDD"/>
<rect x="32" y="84" width="4" height="4" fill="#F6F6F6"/>
<rect x="36" y="84" width="4" height="4" fill="#F6F6F6"/>
<rect x="40" y="88" width="4" height="4" fill="#F6F6F6"/>
<rect x="48" y="88" width="4" height="4" fill="#F6F6F6"/>
<rect x="56" y="88" width="4" height="4" fill="#F6F6F6"/>
<rect x="64" y="88" width="4" height="4" fill="#F6F6F6"/>
<rect x="72" y="88" width="4" height="4" fill="#F6F6F6"/>
<rect x="80" y="84" width="4" height="4" fill="#F6F6F6"/>
<rect x="88" y="80" width="4" height="4" fill="#F6F6F6"/>
<rect x="24" y="80" width="4" height="4" fill="#F6F6F6"/>
<rect x="20" y="76" width="4" height="4" fill="#F6F6F6"/>
<rect x="16" y="72" width="4" height="4" fill="#F6F6F6"/>
<rect x="12" y="68" width="4" height="4" fill="#F6F6F6"/>
<rect x="44" y="88" width="4" height="4" fill="#F6F6F6"/>
<rect x="52" y="88" width="4" height="4" fill="#F6F6F6"/>
<rect x="60" y="88" width="4" height="4" fill="#F6F6F6"/>
<rect x="68" y="88" width="4" height="4" fill="#F6F6F6"/>
<rect x="76" y="88" width="4" height="4" fill="#F6F6F6"/>
<rect x="84" y="84" width="4" height="4" fill="#F6F6F6"/>
<rect x="92" y="80" width="4" height="4" fill="#F6F6F6"/>
<rect x="96" y="76" width="4" height="4" fill="#F6F6F6"/>
<rect x="100" y="72" width="4" height="4" fill="#F6F6F6"/>
<rect x="104" y="68" width="4" height="4" fill="#F6F6F6"/>
<rect x="28" y="80" width="4" height="4" fill="#F6F6F6"/>
<rect x="36" y="16" width="4" height="4" fill="white"/>
<rect width="4" height="4" transform="matrix(-1 0 0 1 84 16)" fill="white"/>
<rect x="28" y="20" width="4" height="4" fill="white"/>
<rect width="4" height="4" transform="matrix(-1 0 0 1 92 20)" fill="white"/>
<rect x="20" y="24" width="4" height="4" fill="white"/>
<rect width="4" height="4" transform="matrix(-1 0 0 1 100 24)" fill="white"/>
<rect x="40" y="16" width="4" height="4" fill="white"/>
<rect width="4" height="4" transform="matrix(-1 0 0 1 80 16)" fill="white"/>
<rect x="32" y="20" width="4" height="4" fill="white"/>
<rect width="4" height="4" transform="matrix(-1 0 0 1 88 20)" fill="white"/>
<rect x="24" y="24" width="4" height="4" fill="white"/>
<rect width="4" height="4" transform="matrix(-1 0 0 1 96 24)" fill="white"/>
<rect x="16" y="28" width="4" height="4" fill="white"/>
<rect width="4" height="4" transform="matrix(-1 0 0 1 104 28)" fill="white"/>
<rect x="12" y="32" width="4" height="4" fill="white"/>
<rect width="4" height="4" transform="matrix(-1 0 0 1 108 32)" fill="white"/>
<rect x="8" y="36" width="4" height="4" fill="white"/>
<rect width="4" height="4" transform="matrix(-1 0 0 1 112 36)" fill="white"/>
<rect x="8" y="40" width="4" height="4" fill="white"/>
<rect width="4" height="4" transform="matrix(-1 0 0 1 112 40)" fill="white"/>
<rect x="8" y="44" width="4" height="4" fill="white"/>
<rect width="4" height="4" transform="matrix(-1 0 0 1 112 44)" fill="white"/>
<rect x="4" y="44" width="4" height="4" fill="white"/>
<rect width="4" height="4" transform="matrix(-1 0 0 1 116 44)" fill="white"/>
<rect x="4" y="48" width="4" height="4" fill="white"/>
<rect width="4" height="4" transform="matrix(-1 0 0 1 116 48)" fill="white"/>
<rect x="4" y="52" width="4" height="4" fill="white"/>
<rect width="4" height="4" transform="matrix(-1 0 0 1 116 52)" fill="white"/>
<rect x="4" y="56" width="4" height="4" fill="white"/>
<rect width="4" height="4" transform="matrix(-1 0 0 1 116 56)" fill="white"/>
<rect x="4" y="60" width="4" height="4" fill="white"/>
<rect width="4" height="4" transform="matrix(-1 0 0 1 116 60)" fill="white"/>
<rect x="4" y="64" width="4" height="4" fill="white"/>
<rect width="4" height="4" transform="matrix(-1 0 0 1 116 64)" fill="white"/>
<rect x="4" y="68" width="4" height="4" fill="white"/>
<rect width="4" height="4" transform="matrix(-1 0 0 1 116 68)" fill="white"/>
<rect x="4" y="72" width="4" height="4" fill="white"/>
<rect width="4" height="4" transform="matrix(-1 0 0 1 116 72)" fill="white"/>
<rect x="4" y="76" width="4" height="4" fill="white"/>
<rect width="4" height="4" transform="matrix(-1 0 0 1 116 76)" fill="white"/>
<rect x="8" y="80" width="4" height="4" fill="white"/>
<rect width="4" height="4" transform="matrix(-1 0 0 1 112 80)" fill="white"/>
<rect x="12" y="84" width="4" height="4" fill="white"/>
<rect width="4" height="4" transform="matrix(-1 0 0 1 108 84)" fill="white"/>
<rect x="16" y="88" width="4" height="4" fill="white"/>
<rect width="4" height="4" transform="matrix(-1 0 0 1 104 88)" fill="white"/>
<rect x="20" y="92" width="4" height="4" fill="white"/>
<rect width="4" height="4" transform="matrix(-1 0 0 1 100 92)" fill="white"/>
<rect x="28" y="96" width="4" height="4" fill="white"/>
<rect width="4" height="4" transform="matrix(-1 0 0 1 92 96)" fill="white"/>
<rect x="36" y="100" width="4" height="4" fill="white"/>
<rect width="4" height="4" transform="matrix(-1 0 0 1 84 100)" fill="white"/>
<rect x="48" y="100" width="4" height="4" fill="white"/>
<rect width="4" height="4" transform="matrix(-1 0 0 1 72 100)" fill="white"/>
<rect x="8" y="76" width="4" height="4" fill="white"/>
<rect width="4" height="4" transform="matrix(-1 0 0 1 112 76)" fill="white"/>
<rect x="12" y="80" width="4" height="4" fill="white"/>
<rect width="4" height="4" transform="matrix(-1 0 0 1 108 80)" fill="white"/>
<rect x="16" y="84" width="4" height="4" fill="white"/>
<rect width="4" height="4" transform="matrix(-1 0 0 1 104 84)" fill="white"/>
<rect x="20" y="88" width="4" height="4" fill="white"/>
<rect width="4" height="4" transform="matrix(-1 0 0 1 100 88)" fill="white"/>
<rect x="24" y="92" width="4" height="4" fill="white"/>
<rect width="4" height="4" transform="matrix(-1 0 0 1 96 92)" fill="white"/>
<rect x="32" y="96" width="4" height="4" fill="white"/>
<rect width="4" height="4" transform="matrix(-1 0 0 1 88 96)" fill="white"/>
<rect x="40" y="100" width="4" height="4" fill="white"/>
<rect width="4" height="4" transform="matrix(-1 0 0 1 80 100)" fill="white"/>
<rect x="52" y="100" width="4" height="4" fill="white"/>
<rect width="4" height="4" transform="matrix(-1 0 0 1 68 100)" fill="white"/>
<rect x="28" y="92" width="4" height="4" fill="white"/>
<rect width="4" height="4" transform="matrix(-1 0 0 1 92 92)" fill="white"/>
<rect x="36" y="96" width="4" height="4" fill="white"/>
<rect width="4" height="4" transform="matrix(-1 0 0 1 84 96)" fill="white"/>
<rect x="44" y="100" width="4" height="4" fill="white"/>
<rect width="4" height="4" transform="matrix(-1 0 0 1 76 100)" fill="white"/>
<rect x="56" y="100" width="4" height="4" fill="white"/>
<rect width="4" height="4" transform="matrix(-1 0 0 1 64 100)" fill="white"/>
<rect x="44" y="16" width="4" height="4" fill="white"/>
<rect width="4" height="4" transform="matrix(-1 0 0 1 76 16)" fill="white"/>
<rect x="36" y="20" width="4" height="4" fill="white"/>
<rect width="4" height="4" transform="matrix(-1 0 0 1 84 20)" fill="white"/>
<rect x="28" y="24" width="4" height="4" fill="white"/>
<rect width="4" height="4" transform="matrix(-1 0 0 1 92 24)" fill="white"/>
<rect x="20" y="28" width="4" height="4" fill="white"/>
<rect width="4" height="4" transform="matrix(-1 0 0 1 100 28)" fill="white"/>
<rect x="16" y="32" width="4" height="4" fill="white"/>
<rect width="4" height="4" transform="matrix(-1 0 0 1 104 32)" fill="white"/>
<rect x="12" y="36" width="4" height="4" fill="white"/>
<rect width="4" height="4" transform="matrix(-1 0 0 1 108 36)" fill="white"/>
<rect x="48" y="16" width="4" height="4" fill="white"/>
<rect width="4" height="4" transform="matrix(-1 0 0 1 72 16)" fill="white"/>
<rect x="52" y="16" width="4" height="4" fill="white"/>
<rect width="4" height="4" transform="matrix(-1 0 0 1 68 16)" fill="white"/>
<rect x="56" y="16" width="4" height="4" fill="white"/>
<rect width="4" height="4" transform="matrix(-1 0 0 1 64 16)" fill="white"/>
<rect x="84" y="16" width="4" height="4" fill="#FFCB29"/>
<rect width="4" height="4" transform="matrix(-1 0 0 1 36 16)" fill="#FFCB29"/>
<rect width="4" height="4" transform="matrix(-1 0 0 1 40 12)" fill="#FFCB29"/>
<rect width="4" height="4" transform="matrix(-1 0 0 1 44 12)" fill="#FFCB29"/>
<rect width="4" height="4" transform="matrix(-1 0 0 1 48 12)" fill="#FFCB29"/>
<rect width="4" height="4" transform="matrix(-1 0 0 1 52 12)" fill="#FFCB29"/>
<rect width="4" height="4" transform="matrix(-1 0 0 1 56 12)" fill="#FFCB29"/>
<rect width="4" height="4" transform="matrix(-1 0 0 1 60 12)" fill="#FFCB29"/>
<rect width="4" height="4" transform="matrix(-1 0 0 1 64 12)" fill="#FFCB29"/>
<rect width="4" height="4" transform="matrix(-1 0 0 1 68 12)" fill="#FFCB29"/>
<rect width="4" height="4" transform="matrix(-1 0 0 1 72 12)" fill="#FFCB29"/>
<rect width="4" height="4" transform="matrix(-1 0 0 1 76 12)" fill="#FFCB29"/>
<rect width="4" height="4" transform="matrix(-1 0 0 1 80 12)" fill="#FFCB29"/>
<rect width="4" height="4" transform="matrix(-1 0 0 1 84 12)" fill="#FFCB29"/>
<rect x="92" y="20" width="4" height="4" fill="#FFCB29"/>
<rect width="4" height="4" transform="matrix(-1 0 0 1 28 20)" fill="#FFCB29"/>
<rect x="100" y="24" width="4" height="4" fill="#FFCB29"/>
<rect width="4" height="4" transform="matrix(-1 0 0 1 20 24)" fill="#FFCB29"/>
<rect x="104" y="28" width="4" height="4" fill="#FFCB29"/>
<rect width="4" height="4" transform="matrix(-1 0 0 1 16 28)" fill="#FFCB29"/>
<rect x="108" y="32" width="4" height="4" fill="#FFCB29"/>
<rect width="4" height="4" transform="matrix(-1 0 0 1 12 32)" fill="#FFCB29"/>
<rect x="112" y="40" width="4" height="4" fill="#FFCB29"/>
<rect width="4" height="4" transform="matrix(-1 0 0 1 8 40)" fill="#FFCB29"/>
<rect x="112" y="36" width="4" height="4" fill="#FFCB29"/>
<rect width="4" height="4" transform="matrix(-1 0 0 1 8 36)" fill="#FFCB29"/>
<rect x="116" y="44" width="4" height="4" fill="#FFCB29"/>
<rect x="116" y="48" width="4" height="4" fill="#FFCB29"/>
<rect x="116" y="52" width="4" height="4" fill="#FFCB29"/>
<rect x="116" y="56" width="4" height="4" fill="#FFCB29"/>
<rect x="116" y="60" width="4" height="4" fill="#FFCB29"/>
<rect x="116" y="64" width="4" height="4" fill="#FFCB29"/>
<rect x="116" y="68" width="4" height="4" fill="#FFCB29"/>
<rect x="116" y="72" width="4" height="4" fill="#FFCB29"/>
<rect x="116" y="76" width="4" height="4" fill="#FFCB29"/>
<rect x="112" y="80" width="4" height="4" fill="#FFCB29"/>
<rect x="108" y="84" width="4" height="4" fill="#FFCB29"/>
<rect x="100" y="92" width="4" height="4" fill="#FFCB29"/>
<rect x="104" y="88" width="4" height="4" fill="#FFCB29"/>
<rect x="96" y="96" width="4" height="4" fill="#FFCB29"/>
<rect x="88" y="100" width="4" height="4" fill="#FFCB29"/>
<rect x="80" y="104" width="4" height="4" fill="#FFCB29"/>
<rect x="68" y="104" width="4" height="4" fill="#FFCB29"/>
<rect x="56" y="104" width="4" height="4" fill="#FFCB29"/>
<rect x="44" y="104" width="4" height="4" fill="#FFCB29"/>
<rect x="92" y="96" width="4" height="4" fill="#FFCB29"/>
<rect x="84" y="100" width="4" height="4" fill="#FFCB29"/>
<rect x="76" y="104" width="4" height="4" fill="#FFCB29"/>
<rect x="64" y="104" width="4" height="4" fill="#FFCB29"/>
<rect x="52" y="104" width="4" height="4" fill="#FFCB29"/>
<rect x="40" y="104" width="4" height="4" fill="#FFCB29"/>
<rect x="32" y="100" width="4" height="4" fill="#FFCB29"/>
<rect x="24" y="96" width="4" height="4" fill="#FFCB29"/>
<rect x="72" y="104" width="4" height="4" fill="#FFCB29"/>
<rect x="60" y="104" width="4" height="4" fill="#FFCB29"/>
<rect x="48" y="104" width="4" height="4" fill="#FFCB29"/>
<rect x="36" y="104" width="4" height="4" fill="#FFCB29"/>
<rect x="28" y="100" width="4" height="4" fill="#FFCB29"/>
<rect x="20" y="96" width="4" height="4" fill="#FFCB29"/>
<rect x="16" y="92" width="4" height="4" fill="#FFCB29"/>
<rect x="12" y="88" width="4" height="4" fill="#FFCB29"/>
<rect x="8" y="84" width="4" height="4" fill="#FFCB29"/>
<rect y="76" width="4" height="4" fill="#FFCB29"/>
<rect x="4" y="80" width="4" height="4" fill="#FFCB29"/>
<rect y="72" width="4" height="4" fill="#FFCB29"/>
<rect y="68" width="4" height="4" fill="#FFCB29"/>
<rect y="64" width="4" height="4" fill="#FFCB29"/>
<rect y="60" width="4" height="4" fill="#FFCB29"/>
<rect y="56" width="4" height="4" fill="#FFCB29"/>
<rect y="52" width="4" height="4" fill="#FFCB29"/>
<rect y="48" width="4" height="4" fill="#FFCB29"/>
<rect y="44" width="4" height="4" fill="#FFCB29"/>
<rect x="88" y="16" width="4" height="4" fill="#FFCB29"/>
<rect width="4" height="4" transform="matrix(-1 0 0 1 32 16)" fill="#FFCB29"/>
<rect x="96" y="20" width="4" height="4" fill="#FFCB29"/>
<rect width="4" height="4" transform="matrix(-1 0 0 1 24 20)" fill="#FFCB29"/>
<rect width="4" height="4" transform="matrix(1 0 0 -1 44 76)" fill="#FFD189"/>
<rect width="4" height="4" transform="matrix(1 0 0 -1 44 80)" fill="#FFD189"/>
<rect width="4" height="4" transform="matrix(1 0 0 -1 40 76)" fill="#FFD189"/>
<rect width="4" height="4" transform="matrix(1 0 0 -1 40 80)" fill="#FFD189"/>
<rect width="4" height="4" transform="matrix(1 0 0 -1 32 76)" fill="#FFD189"/>
<rect x="88" y="76" width="4" height="4" transform="rotate(180 88 76)" fill="#FFD189"/>
<rect x="80" y="76" width="4" height="4" transform="rotate(180 80 76)" fill="#FFD189"/>
<rect width="4" height="4" transform="matrix(1 0 0 -1 36 80)" fill="#FFD189"/>
<rect x="84" y="80" width="4" height="4" transform="rotate(180 84 80)" fill="#FFD189"/>
<rect x="80" y="80" width="4" height="4" transform="rotate(180 80 80)" fill="#FFD189"/>
<rect width="4" height="4" transform="matrix(1 0 0 -1 40 72)" fill="#FFD189"/>
<rect width="4" height="4" transform="matrix(1 0 0 -1 36 72)" fill="#FFD189"/>
<rect x="80" y="72" width="4" height="4" transform="rotate(180 80 72)" fill="#FFD189"/>
<rect width="4" height="4" transform="matrix(1 0 0 -1 28 72)" fill="#FFD189"/>
<rect x="92" y="72" width="4" height="4" transform="rotate(180 92 72)" fill="#FFD189"/>
<rect x="84" y="72" width="4" height="4" transform="rotate(180 84 72)" fill="#FFD189"/>
<rect width="4" height="4" transform="matrix(1 0 0 -1 72 76)" fill="#FFD189"/>
<rect width="4" height="4" transform="matrix(1 0 0 -1 48 80)" fill="#FFD189"/>
<rect width="4" height="4" transform="matrix(1 0 0 -1 48 76)" fill="#A62B0A"/>
<rect width="4" height="4" transform="matrix(1 0 0 -1 52 76)" fill="#A62B0A"/>
<rect width="4" height="4" transform="matrix(1 0 0 -1 64 76)" fill="#A62B0A"/>
<rect width="4" height="4" transform="matrix(1 0 0 -1 68 76)" fill="#A62B0A"/>
<rect width="4" height="4" transform="matrix(1 0 0 -1 72 72)" fill="#ED6B00"/>
<rect width="4" height="4" transform="matrix(1 0 0 -1 84 72)" fill="#ED6B00"/>
<rect x="36" y="72" width="4" height="4" transform="rotate(180 36 72)" fill="#A62B0A"/>
<rect width="4" height="4" transform="matrix(1 0 0 -1 80 76)" fill="#A62B0A"/>
<rect x="40" y="76" width="4" height="4" transform="rotate(180 40 76)" fill="#A62B0A"/>
<rect width="4" height="4" transform="matrix(1 0 0 -1 52 72)" fill="#ED6B00"/>
<rect width="4" height="4" transform="matrix(1 0 0 -1 68 72)" fill="#ED6B00"/>
<rect width="4" height="4" transform="matrix(1 0 0 -1 48 72)" fill="#A62B0A"/>
<rect width="4" height="4" transform="matrix(1 0 0 -1 64 72)" fill="#A62B0A"/>
<rect width="4" height="4" transform="matrix(1 0 0 -1 44 72)" fill="#A62B0A"/>
<rect width="4" height="4" transform="matrix(1 0 0 -1 52 80)" fill="#FFD189"/>
<rect width="4" height="4" transform="matrix(1 0 0 -1 56 80)" fill="#FFD189"/>
<rect width="4" height="4" transform="matrix(1 0 0 -1 56 76)" fill="#FFD189"/>
<rect width="4" height="4" transform="matrix(1 0 0 -1 56 72)" fill="#FFD189"/>
<rect width="4" height="4" transform="matrix(1 0 0 -1 60 80)" fill="#FFD189"/>
<rect width="4" height="4" transform="matrix(1 0 0 -1 60 76)" fill="#FFD189"/>
<rect width="4" height="4" transform="matrix(1 0 0 -1 60 72)" fill="#FFD189"/>
<rect width="4" height="4" transform="matrix(1 0 0 -1 64 80)" fill="#FFD189"/>
<rect width="4" height="4" transform="matrix(1 0 0 -1 68 80)" fill="#FFD189"/>
<rect width="4" height="4" transform="matrix(1 0 0 -1 72 80)" fill="#FFD189"/>
</svg>
