<svg width="160" height="160" viewBox="0 0 160 160" fill="none" xmlns="http://www.w3.org/2000/svg">
<rect width="5.33333" height="5.33333" transform="matrix(-1 0 0 1 80 138.667)" fill="black"/>
<rect x="80" y="138.667" width="5.33333" height="5.33333" fill="black"/>
<rect width="5.33333" height="5.33333" transform="matrix(-1 0 0 1 74.6667 138.667)" fill="black"/>
<rect x="85.3333" y="138.667" width="5.33333" height="5.33333" fill="black"/>
<rect width="5.33333" height="5.33333" transform="matrix(-1 0 0 1 69.3333 138.667)" fill="black"/>
<rect x="90.6667" y="138.667" width="5.33333" height="5.33333" fill="black"/>
<rect width="5.33333" height="5.33333" transform="matrix(-1 0 0 1 64 138.667)" fill="black"/>
<rect x="96" y="138.667" width="5.33333" height="5.33333" fill="black"/>
<rect width="5.33333" height="5.33333" transform="matrix(-1 0 0 1 58.6667 133.333)" fill="black"/>
<rect x="101.333" y="133.333" width="5.33333" height="5.33333" fill="black"/>
<rect width="5.33333" height="5.33333" transform="matrix(-1 0 0 1 53.3333 133.333)" fill="black"/>
<rect x="106.667" y="133.333" width="5.33333" height="5.33333" fill="black"/>
<rect width="5.33333" height="5.33333" transform="matrix(-1 0 0 1 48 128)" fill="black"/>
<rect x="112" y="128" width="5.33333" height="5.33333" fill="black"/>
<rect width="5.33333" height="5.33333" transform="matrix(-1 0 0 1 42.6667 122.667)" fill="black"/>
<rect x="117.333" y="122.667" width="5.33333" height="5.33333" fill="black"/>
<rect width="5.33333" height="5.33333" transform="matrix(-1 0 0 1 37.3333 117.333)" fill="black"/>
<rect x="122.667" y="117.333" width="5.33333" height="5.33333" fill="black"/>
<rect width="5.33333" height="5.33333" transform="matrix(-1 0 0 1 80 16)" fill="black"/>
<rect x="80" y="16" width="5.33333" height="5.33333" fill="black"/>
<rect width="5.33333" height="5.33333" transform="matrix(-1 0 0 1 74.6667 16)" fill="black"/>
<rect x="85.3333" y="16" width="5.33333" height="5.33333" fill="black"/>
<rect width="5.33333" height="5.33333" transform="matrix(-1 0 0 1 69.3333 16)" fill="black"/>
<rect x="90.6667" y="16" width="5.33333" height="5.33333" fill="black"/>
<rect width="5.33333" height="5.33333" transform="matrix(-1 0 0 1 69.3333 16)" fill="black"/>
<rect x="90.6667" y="16" width="5.33333" height="5.33333" fill="black"/>
<rect width="5.33333" height="5.33333" transform="matrix(-1 0 0 1 64 16)" fill="black"/>
<rect x="96" y="16" width="5.33333" height="5.33333" fill="black"/>
<rect width="5.33333" height="5.33333" transform="matrix(-1 0 0 1 58.6667 16)" fill="black"/>
<rect x="101.333" y="16" width="5.33333" height="5.33333" fill="black"/>
<rect width="5.33333" height="5.33333" transform="matrix(-1 0 0 1 53.3333 21.3334)" fill="black"/>
<rect x="106.667" y="21.3334" width="5.33333" height="5.33333" fill="black"/>
<rect width="5.33333" height="5.33333" transform="matrix(-1 0 0 1 48 21.3334)" fill="black"/>
<rect x="112" y="21.3334" width="5.33333" height="5.33333" fill="black"/>
<rect width="5.33333" height="5.33333" transform="matrix(-1 0 0 1 42.6667 26.6667)" fill="black"/>
<rect x="117.333" y="26.6667" width="5.33333" height="5.33333" fill="black"/>
<rect width="5.33333" height="5.33333" transform="matrix(-1 0 0 1 37.3333 26.6667)" fill="black"/>
<rect x="32" y="117.333" width="5.33333" height="5.33333" transform="rotate(180 32 117.333)" fill="black"/>
<rect x="122.667" y="26.6667" width="5.33333" height="5.33333" fill="black"/>
<rect width="5.33333" height="5.33333" transform="matrix(1 0 0 -1 128 117.333)" fill="black"/>
<rect width="5.33333" height="5.33333" transform="matrix(-1 0 0 1 32 32)" fill="black"/>
<rect x="26.6667" y="112" width="5.33333" height="5.33333" transform="rotate(180 26.6667 112)" fill="black"/>
<rect width="5.33333" height="5.33333" transform="matrix(-1 0 0 1 26.6667 37.3334)" fill="black"/>
<rect x="26.6667" y="106.667" width="5.33333" height="5.33333" transform="rotate(180 26.6667 106.667)" fill="black"/>
<rect x="37.3333" y="101.333" width="5.33333" height="5.33333" transform="rotate(180 37.3333 101.333)" fill="black"/>
<rect x="133.333" y="96" width="5.33333" height="5.33333" transform="rotate(180 133.333 96)" fill="black"/>
<rect x="32" y="96" width="5.33333" height="5.33333" transform="rotate(180 32 96)" fill="black"/>
<rect width="5.33333" height="5.33333" transform="matrix(1 0 0 -1 122.667 101.333)" fill="black"/>
<rect x="42.6667" y="106.667" width="5.33333" height="5.33333" transform="rotate(180 42.6667 106.667)" fill="black"/>
<rect width="5.33333" height="5.33333" transform="matrix(1 0 0 -1 117.333 106.667)" fill="black"/>
<rect x="53.3333" y="112" width="5.33333" height="5.33333" transform="rotate(180 53.3333 112)" fill="black"/>
<rect width="5.33333" height="5.33333" transform="matrix(1 0 0 -1 106.667 112)" fill="black"/>
<rect x="64" y="112" width="5.33333" height="5.33333" transform="rotate(180 64 112)" fill="black"/>
<rect width="5.33333" height="5.33333" transform="matrix(1 0 0 -1 96 112)" fill="black"/>
<rect x="48" y="106.667" width="5.33333" height="5.33333" transform="rotate(180 48 106.667)" fill="black"/>
<rect width="5.33333" height="5.33333" transform="matrix(1 0 0 -1 112 106.667)" fill="black"/>
<rect x="58.6667" y="112" width="5.33333" height="5.33333" transform="rotate(180 58.6667 112)" fill="black"/>
<rect width="5.33333" height="5.33333" transform="matrix(1 0 0 -1 101.333 112)" fill="black"/>
<rect x="69.3333" y="112" width="5.33333" height="5.33333" transform="rotate(180 69.3333 112)" fill="black"/>
<rect width="5.33333" height="5.33333" transform="matrix(1 0 0 -1 90.6667 112)" fill="black"/>
<rect x="74.6667" y="112" width="5.33333" height="5.33333" transform="rotate(180 74.6667 112)" fill="black"/>
<rect width="5.33333" height="5.33333" transform="matrix(1 0 0 -1 85.3333 112)" fill="black"/>
<rect x="80" y="112" width="5.33333" height="5.33333" transform="rotate(180 80 112)" fill="black"/>
<rect width="5.33333" height="5.33333" transform="matrix(1 0 0 -1 80 112)" fill="black"/>
<rect x="133.333" y="37.3334" width="5.33333" height="5.33333" fill="black"/>
<rect width="5.33333" height="5.33333" transform="matrix(1 0 0 -1 133.333 106.667)" fill="black"/>
<rect x="128" y="32" width="5.33333" height="5.33333" fill="black"/>
<rect width="5.33333" height="5.33333" transform="matrix(1 0 0 -1 133.333 112)" fill="black"/>
<rect width="5.33333" height="5.33333" transform="matrix(-1 0 0 1 16 58.6667)" fill="black"/>
<rect width="5.33333" height="5.33333" transform="matrix(-1 0 0 1 16 53.3334)" fill="black"/>
<rect width="5.33333" height="5.33333" transform="matrix(-1 0 0 1 16 48)" fill="black"/>
<rect width="5.33333" height="5.33333" transform="matrix(-1 0 0 1 21.3333 42.6667)" fill="black"/>
<rect x="21.3333" y="101.333" width="5.33333" height="5.33333" transform="rotate(180 21.3333 101.333)" fill="black"/>
<rect x="144" y="58.6667" width="5.33333" height="5.33333" fill="black"/>
<rect x="144" y="53.3334" width="5.33333" height="5.33333" fill="black"/>
<rect x="144" y="48" width="5.33333" height="5.33333" fill="black"/>
<rect x="138.667" y="42.6667" width="5.33333" height="5.33333" fill="black"/>
<rect width="5.33333" height="5.33333" transform="matrix(1 0 0 -1 138.667 101.333)" fill="black"/>
<rect width="5.33333" height="5.33333" transform="matrix(-1 0 0 1 16 64)" fill="black"/>
<rect x="144" y="64" width="5.33333" height="5.33333" fill="black"/>
<rect width="5.33333" height="5.33333" transform="matrix(-1 0 0 1 16 69.3334)" fill="black"/>
<rect x="144" y="69.3334" width="5.33333" height="5.33333" fill="black"/>
<rect width="5.33333" height="5.33333" transform="matrix(-1 0 0 1 16 74.6667)" fill="black"/>
<rect x="144" y="74.6667" width="5.33333" height="5.33333" fill="black"/>
<rect width="5.33333" height="5.33333" transform="matrix(-1 0 0 1 16 80)" fill="black"/>
<rect width="5.33333" height="5.33333" transform="matrix(-1 0 0 1 16 90.6667)" fill="black"/>
<rect width="5.33333" height="5.33333" transform="matrix(-1 0 0 1 16 85.3334)" fill="black"/>
<rect x="144" y="90.6667" width="5.33333" height="5.33333" fill="black"/>
<rect x="144" y="85.3334" width="5.33333" height="5.33333" fill="black"/>
<rect x="144" y="80" width="5.33333" height="5.33333" fill="black"/>
<rect x="32" y="112" width="5.33333" height="5.33333" transform="rotate(180 32 112)" fill="#F4EAE0"/>
<rect x="37.3333" y="117.333" width="5.33333" height="5.33333" transform="rotate(180 37.3333 117.333)" fill="#F4EAE0"/>
<rect x="42.6667" y="122.667" width="5.33333" height="5.33333" transform="rotate(180 42.6667 122.667)" fill="#F4EAE0"/>
<rect x="144" y="74.6667" width="5.33333" height="5.33333" transform="rotate(180 144 74.6667)" fill="#F4EAE0"/>
<rect x="144" y="69.3334" width="5.33333" height="5.33333" transform="rotate(180 144 69.3334)" fill="#F4EAE0"/>
<rect x="144" y="64" width="5.33333" height="5.33333" transform="rotate(180 144 64)" fill="#F4EAE0"/>
<rect x="144" y="58.6667" width="5.33333" height="5.33333" transform="rotate(180 144 58.6667)" fill="#F4EAE0"/>
<rect x="144" y="53.3334" width="5.33333" height="5.33333" transform="rotate(180 144 53.3334)" fill="#F4EAE0"/>
<rect x="138.667" y="48" width="5.33333" height="5.33333" transform="rotate(180 138.667 48)" fill="#F4EAE0"/>
<rect x="133.333" y="42.6667" width="5.33333" height="5.33333" transform="rotate(180 133.333 42.6667)" fill="#F4EAE0"/>
<rect x="128" y="37.3334" width="5.33333" height="5.33333" transform="rotate(180 128 37.3334)" fill="#F4EAE0"/>
<rect x="122.667" y="37.3334" width="5.33333" height="5.33333" transform="rotate(180 122.667 37.3334)" fill="#F4EAE0"/>
<rect x="117.333" y="32" width="5.33333" height="5.33333" transform="rotate(180 117.333 32)" fill="#F4EAE0"/>
<rect x="112" y="32" width="5.33333" height="5.33333" transform="rotate(180 112 32)" fill="#F4EAE0"/>
<rect x="106.667" y="26.6667" width="5.33333" height="5.33333" transform="rotate(180 106.667 26.6667)" fill="#F4EAE0"/>
<rect x="101.333" y="26.6667" width="5.33333" height="5.33333" transform="rotate(180 101.333 26.6667)" fill="#F4EAE0"/>
<rect x="96" y="26.6667" width="5.33333" height="5.33333" transform="rotate(180 96 26.6667)" fill="#F4EAE0"/>
<rect x="90.6667" y="26.6667" width="5.33333" height="5.33333" transform="rotate(180 90.6667 26.6667)" fill="#F4EAE0"/>
<rect x="85.3333" y="26.6667" width="5.33333" height="5.33333" transform="rotate(180 85.3333 26.6667)" fill="#F4EAE0"/>
<rect x="80" y="26.6667" width="5.33333" height="5.33333" transform="rotate(180 80 26.6667)" fill="#F4EAE0"/>
<rect x="74.6667" y="26.6667" width="5.33333" height="5.33333" transform="rotate(180 74.6667 26.6667)" fill="#F4EAE0"/>
<rect x="69.3333" y="26.6667" width="5.33333" height="5.33333" transform="rotate(180 69.3333 26.6667)" fill="#F4EAE0"/>
<rect x="64" y="26.6667" width="5.33333" height="5.33333" transform="rotate(180 64 26.6667)" fill="#F4EAE0"/>
<rect x="58.6667" y="26.6667" width="5.33333" height="5.33333" transform="rotate(180 58.6667 26.6667)" fill="#F4EAE0"/>
<rect x="53.3333" y="32" width="5.33333" height="5.33333" transform="rotate(180 53.3333 32)" fill="#F4EAE0"/>
<rect x="48" y="32" width="5.33333" height="5.33333" transform="rotate(180 48 32)" fill="#F4EAE0"/>
<rect x="42.6667" y="37.3334" width="5.33333" height="5.33333" transform="rotate(180 42.6667 37.3334)" fill="#F4EAE0"/>
<rect x="37.3333" y="37.3334" width="5.33333" height="5.33333" transform="rotate(180 37.3333 37.3334)" fill="#F4EAE0"/>
<rect x="32" y="42.6667" width="5.33333" height="5.33333" transform="rotate(180 32 42.6667)" fill="#F4EAE0"/>
<rect x="26.6667" y="48" width="5.33333" height="5.33333" transform="rotate(180 26.6667 48)" fill="#F4EAE0"/>
<rect x="21.3333" y="53.3334" width="5.33333" height="5.33333" transform="rotate(180 21.3333 53.3334)" fill="#F4EAE0"/>
<rect x="21.3333" y="58.6667" width="5.33333" height="5.33333" transform="rotate(180 21.3333 58.6667)" fill="#F4EAE0"/>
<rect x="21.3333" y="64" width="5.33333" height="5.33333" transform="rotate(180 21.3333 64)" fill="#F4EAE0"/>
<rect x="21.3333" y="69.3334" width="5.33333" height="5.33333" transform="rotate(180 21.3333 69.3334)" fill="#F4EAE0"/>
<rect x="21.3333" y="74.6667" width="5.33333" height="5.33333" transform="rotate(180 21.3333 74.6667)" fill="#F4EAE0"/>
<rect x="21.3333" y="80" width="5.33333" height="5.33333" transform="rotate(180 21.3333 80)" fill="#F4EAE0"/>
<rect x="21.3333" y="96" width="5.33333" height="5.33333" transform="rotate(180 21.3333 96)" fill="#F4EAE0"/>
<rect x="26.6667" y="101.333" width="5.33333" height="5.33333" transform="rotate(180 26.6667 101.333)" fill="#F4EAE0"/>
<rect x="32" y="106.667" width="5.33333" height="5.33333" transform="rotate(180 32 106.667)" fill="#F4EAE0"/>
<rect x="37.3333" y="112" width="5.33333" height="5.33333" transform="rotate(180 37.3333 112)" fill="#F4EAE0"/>
<rect x="42.6667" y="117.333" width="5.33333" height="5.33333" transform="rotate(180 42.6667 117.333)" fill="#F4EAE0"/>
<rect x="48" y="117.333" width="5.33333" height="5.33333" transform="rotate(180 48 117.333)" fill="#F4EAE0"/>
<rect x="48" y="122.667" width="5.33333" height="5.33333" transform="rotate(180 48 122.667)" fill="#F4EAE0"/>
<rect x="53.3333" y="128" width="5.33333" height="5.33333" transform="rotate(180 53.3333 128)" fill="#F4EAE0"/>
<rect x="53.3333" y="122.667" width="5.33333" height="5.33333" transform="rotate(180 53.3333 122.667)" fill="#F4EAE0"/>
<rect x="58.6667" y="128" width="5.33333" height="5.33333" transform="rotate(180 58.6667 128)" fill="#F4EAE0"/>
<rect x="58.6667" y="122.667" width="5.33333" height="5.33333" transform="rotate(180 58.6667 122.667)" fill="#F4EAE0"/>
<rect x="64" y="128" width="5.33333" height="5.33333" transform="rotate(180 64 128)" fill="#F4EAE0"/>
<rect x="64" y="122.667" width="5.33333" height="5.33333" transform="rotate(180 64 122.667)" fill="#F4EAE0"/>
<rect x="69.3333" y="128" width="5.33333" height="5.33333" transform="rotate(180 69.3333 128)" fill="#F4EAE0"/>
<rect x="69.3333" y="122.667" width="5.33333" height="5.33333" transform="rotate(180 69.3333 122.667)" fill="#F4EAE0"/>
<rect x="74.6667" y="128" width="5.33333" height="5.33333" transform="rotate(180 74.6667 128)" fill="#F4EAE0"/>
<rect x="74.6667" y="122.667" width="5.33333" height="5.33333" transform="rotate(180 74.6667 122.667)" fill="#F4EAE0"/>
<rect x="80" y="128" width="5.33333" height="5.33333" transform="rotate(180 80 128)" fill="#F4EAE0"/>
<rect x="80" y="122.667" width="5.33333" height="5.33333" transform="rotate(180 80 122.667)" fill="#F4EAE0"/>
<rect x="85.3333" y="128" width="5.33333" height="5.33333" transform="rotate(180 85.3333 128)" fill="#F4EAE0"/>
<rect x="85.3333" y="122.667" width="5.33333" height="5.33333" transform="rotate(180 85.3333 122.667)" fill="#F4EAE0"/>
<rect x="90.6667" y="128" width="5.33333" height="5.33333" transform="rotate(180 90.6667 128)" fill="#F4EAE0"/>
<rect x="90.6667" y="122.667" width="5.33333" height="5.33333" transform="rotate(180 90.6667 122.667)" fill="#F4EAE0"/>
<rect x="96" y="122.667" width="5.33333" height="5.33333" transform="rotate(180 96 122.667)" fill="#F4EAE0"/>
<rect x="48" y="128" width="5.33333" height="5.33333" transform="rotate(180 48 128)" fill="#F4EAE0"/>
<rect x="53.3333" y="133.333" width="5.33333" height="5.33333" transform="rotate(180 53.3333 133.333)" fill="#F4EAE0"/>
<rect x="58.6667" y="133.333" width="5.33333" height="5.33333" transform="rotate(180 58.6667 133.333)" fill="#F4EAE0"/>
<rect x="64" y="133.333" width="5.33333" height="5.33333" transform="rotate(180 64 133.333)" fill="#F4EAE0"/>
<rect x="64" y="138.667" width="5.33333" height="5.33333" transform="rotate(180 64 138.667)" fill="#F4EAE0"/>
<rect x="69.3333" y="133.333" width="5.33333" height="5.33333" transform="rotate(180 69.3333 133.333)" fill="#F4EAE0"/>
<rect x="69.3333" y="138.667" width="5.33333" height="5.33333" transform="rotate(180 69.3333 138.667)" fill="#F4EAE0"/>
<rect x="74.6667" y="133.333" width="5.33333" height="5.33333" transform="rotate(180 74.6667 133.333)" fill="#F4EAE0"/>
<rect x="74.6667" y="138.667" width="5.33333" height="5.33333" transform="rotate(180 74.6667 138.667)" fill="#F4EAE0"/>
<rect x="80" y="133.333" width="5.33333" height="5.33333" transform="rotate(180 80 133.333)" fill="#F4EAE0"/>
<rect x="80" y="138.667" width="5.33333" height="5.33333" transform="rotate(180 80 138.667)" fill="#F4EAE0"/>
<rect x="85.3333" y="133.333" width="5.33333" height="5.33333" transform="rotate(180 85.3333 133.333)" fill="#F4EAE0"/>
<rect x="96" y="128" width="5.33333" height="5.33333" transform="rotate(180 96 128)" fill="#E1D2C4"/>
<rect x="85.3333" y="138.667" width="5.33333" height="5.33333" transform="rotate(180 85.3333 138.667)" fill="#E1D2C4"/>
<rect x="90.6667" y="133.333" width="5.33333" height="5.33333" transform="rotate(180 90.6667 133.333)" fill="#E1D2C4"/>
<rect x="106.667" y="122.667" width="5.33333" height="5.33333" transform="rotate(180 106.667 122.667)" fill="#E1D2C4"/>
<rect x="106.667" y="117.333" width="5.33333" height="5.33333" transform="rotate(180 106.667 117.333)" fill="#E1D2C4"/>
<rect x="112" y="122.667" width="5.33333" height="5.33333" transform="rotate(180 112 122.667)" fill="#E1D2C4"/>
<rect x="112" y="117.333" width="5.33333" height="5.33333" transform="rotate(180 112 117.333)" fill="#E1D2C4"/>
<rect x="117.333" y="117.333" width="5.33333" height="5.33333" transform="rotate(180 117.333 117.333)" fill="#E1D2C4"/>
<rect x="117.333" y="112" width="5.33333" height="5.33333" transform="rotate(180 117.333 112)" fill="#E1D2C4"/>
<rect x="122.667" y="117.333" width="5.33333" height="5.33333" transform="rotate(180 122.667 117.333)" fill="#E1D2C4"/>
<rect x="122.667" y="112" width="5.33333" height="5.33333" transform="rotate(180 122.667 112)" fill="#E1D2C4"/>
<rect x="128" y="106.667" width="5.33333" height="5.33333" transform="rotate(180 128 106.667)" fill="#E1D2C4"/>
<rect x="133.333" y="101.333" width="5.33333" height="5.33333" transform="rotate(180 133.333 101.333)" fill="#E1D2C4"/>
<rect x="138.667" y="96" width="5.33333" height="5.33333" transform="rotate(180 138.667 96)" fill="#E1D2C4"/>
<rect x="128" y="112" width="5.33333" height="5.33333" transform="rotate(180 128 112)" fill="#E1D2C4"/>
<rect x="133.333" y="106.667" width="5.33333" height="5.33333" transform="rotate(180 133.333 106.667)" fill="#E1D2C4"/>
<rect x="138.667" y="101.333" width="5.33333" height="5.33333" transform="rotate(180 138.667 101.333)" fill="#E1D2C4"/>
<rect x="144" y="96" width="5.33333" height="5.33333" transform="rotate(180 144 96)" fill="#E1D2C4"/>
<rect x="144" y="90.6667" width="5.33333" height="5.33333" transform="rotate(180 144 90.6667)" fill="#E1D2C4"/>
<rect x="144" y="85.3334" width="5.33333" height="5.33333" transform="rotate(180 144 85.3334)" fill="#E1D2C4"/>
<rect x="144" y="80" width="5.33333" height="5.33333" transform="rotate(180 144 80)" fill="#E1D2C4"/>
<rect x="101.333" y="128" width="5.33333" height="5.33333" transform="rotate(180 101.333 128)" fill="#E1D2C4"/>
<rect x="101.333" y="122.667" width="5.33333" height="5.33333" transform="rotate(180 101.333 122.667)" fill="#E1D2C4"/>
<rect x="106.667" y="128" width="5.33333" height="5.33333" transform="rotate(180 106.667 128)" fill="#E1D2C4"/>
<rect x="112" y="128" width="5.33333" height="5.33333" transform="rotate(180 112 128)" fill="#E1D2C4"/>
<rect x="117.333" y="122.667" width="5.33333" height="5.33333" transform="rotate(180 117.333 122.667)" fill="#E1D2C4"/>
<rect x="122.667" y="122.667" width="5.33333" height="5.33333" transform="rotate(180 122.667 122.667)" fill="#E1D2C4"/>
<rect x="128" y="117.333" width="5.33333" height="5.33333" transform="rotate(180 128 117.333)" fill="#E1D2C4"/>
<rect x="133.333" y="112" width="5.33333" height="5.33333" transform="rotate(180 133.333 112)" fill="#E1D2C4"/>
<rect x="90.6667" y="138.667" width="5.33333" height="5.33333" transform="rotate(180 90.6667 138.667)" fill="#E1D2C4"/>
<rect x="96" y="133.333" width="5.33333" height="5.33333" transform="rotate(180 96 133.333)" fill="#E1D2C4"/>
<rect x="96" y="138.667" width="5.33333" height="5.33333" transform="rotate(180 96 138.667)" fill="#E1D2C4"/>
<rect x="101.333" y="133.333" width="5.33333" height="5.33333" transform="rotate(180 101.333 133.333)" fill="#E1D2C4"/>
<rect x="101.333" y="138.667" width="5.33333" height="5.33333" transform="rotate(180 101.333 138.667)" fill="#E1D2C4"/>
<rect x="106.667" y="133.333" width="5.33333" height="5.33333" transform="rotate(180 106.667 133.333)" fill="#E1D2C4"/>
<rect x="112" y="133.333" width="5.33333" height="5.33333" transform="rotate(180 112 133.333)" fill="#E1D2C4"/>
<rect x="117.333" y="128" width="5.33333" height="5.33333" transform="rotate(180 117.333 128)" fill="#E1D2C4"/>
<rect x="26.6667" y="96" width="5.33333" height="5.33333" transform="rotate(180 26.6667 96)" fill="#F4EAE0"/>
<rect x="32" y="101.333" width="5.33333" height="5.33333" transform="rotate(180 32 101.333)" fill="#F4EAE0"/>
<rect x="37.3333" y="106.667" width="5.33333" height="5.33333" transform="rotate(180 37.3333 106.667)" fill="#F4EAE0"/>
<rect x="42.6667" y="112" width="5.33333" height="5.33333" transform="rotate(180 42.6667 112)" fill="#F4EAE0"/>
<rect x="48" y="112" width="5.33333" height="5.33333" transform="rotate(180 48 112)" fill="#F4EAE0"/>
<rect x="53.3333" y="117.333" width="5.33333" height="5.33333" transform="rotate(180 53.3333 117.333)" fill="#F4EAE0"/>
<rect x="58.6667" y="117.333" width="5.33333" height="5.33333" transform="rotate(180 58.6667 117.333)" fill="#F4EAE0"/>
<rect x="64" y="117.333" width="5.33333" height="5.33333" transform="rotate(180 64 117.333)" fill="#F4EAE0"/>
<rect x="69.3333" y="117.333" width="5.33333" height="5.33333" transform="rotate(180 69.3333 117.333)" fill="#F4EAE0"/>
<rect x="74.6667" y="117.333" width="5.33333" height="5.33333" transform="rotate(180 74.6667 117.333)" fill="#F4EAE0"/>
<rect x="80" y="117.333" width="5.33333" height="5.33333" transform="rotate(180 80 117.333)" fill="#F4EAE0"/>
<rect x="85.3333" y="117.333" width="5.33333" height="5.33333" transform="rotate(180 85.3333 117.333)" fill="#F4EAE0"/>
<rect x="90.6667" y="117.333" width="5.33333" height="5.33333" transform="rotate(180 90.6667 117.333)" fill="#F4EAE0"/>
<rect x="96" y="117.333" width="5.33333" height="5.33333" transform="rotate(180 96 117.333)" fill="#F4EAE0"/>
<rect x="101.333" y="117.333" width="5.33333" height="5.33333" transform="rotate(180 101.333 117.333)" fill="#F4EAE0"/>
<rect x="21.3333" y="85.3334" width="5.33333" height="5.33333" transform="rotate(180 21.3333 85.3334)" fill="#F4EAE0"/>
<rect x="21.3333" y="90.6667" width="5.33333" height="5.33333" transform="rotate(180 21.3333 90.6667)" fill="#F4EAE0"/>
<rect x="96" y="26.6667" width="5.33333" height="5.33333" fill="#E1D2C4"/>
<rect x="101.333" y="26.6667" width="5.33333" height="5.33333" fill="#E1D2C4"/>
<rect x="106.667" y="32" width="5.33333" height="5.33333" fill="#E1D2C4"/>
<rect x="112" y="32" width="5.33333" height="5.33333" fill="#E1D2C4"/>
<rect x="117.333" y="37.3334" width="5.33333" height="5.33333" fill="#E1D2C4"/>
<rect x="122.667" y="37.3334" width="5.33333" height="5.33333" fill="#E1D2C4"/>
<rect x="128" y="42.6667" width="5.33333" height="5.33333" fill="#E1D2C4"/>
<rect x="133.333" y="48" width="5.33333" height="5.33333" fill="#E1D2C4"/>
<rect x="90.6667" y="26.6667" width="5.33333" height="5.33333" fill="#E1D2C4"/>
<rect x="85.3333" y="26.6667" width="5.33333" height="5.33333" fill="#E1D2C4"/>
<rect x="80" y="26.6667" width="5.33333" height="5.33333" fill="#E1D2C4"/>
<rect x="74.6667" y="26.6667" width="5.33333" height="5.33333" fill="#E1D2C4"/>
<rect x="69.3333" y="26.6667" width="5.33333" height="5.33333" fill="#E1D2C4"/>
<rect x="64" y="26.6667" width="5.33333" height="5.33333" fill="#E1D2C4"/>
<rect x="58.6667" y="26.6667" width="5.33333" height="5.33333" fill="#E1D2C4"/>
<rect x="53.3333" y="26.6667" width="5.33333" height="5.33333" fill="#E1D2C4"/>
<rect x="48" y="32" width="5.33333" height="5.33333" fill="#E1D2C4"/>
<rect x="37.3333" y="37.3334" width="5.33333" height="5.33333" fill="#E1D2C4"/>
<rect x="42.6667" y="32" width="5.33333" height="5.33333" fill="#E1D2C4"/>
<rect x="32" y="37.3334" width="5.33333" height="5.33333" fill="#E1D2C4"/>
<rect x="26.6667" y="42.6667" width="5.33333" height="5.33333" fill="#E1D2C4"/>
<rect x="21.3333" y="48" width="5.33333" height="5.33333" fill="#E1D2C4"/>
<rect width="5.33333" height="5.33333" transform="matrix(-1 0 0 1 64 32)" fill="#F88901"/>
<rect x="96" y="32" width="5.33333" height="5.33333" fill="#F88901"/>
<rect width="5.33333" height="5.33333" transform="matrix(-1 0 0 1 58.6667 32)" fill="#F88901"/>
<rect x="101.333" y="32" width="5.33333" height="5.33333" fill="#F88901"/>
<rect width="5.33333" height="5.33333" transform="matrix(-1 0 0 1 64 37.3334)" fill="#C21401"/>
<rect x="96" y="37.3334" width="5.33333" height="5.33333" fill="#C21401"/>
<rect width="5.33333" height="5.33333" transform="matrix(-1 0 0 1 58.6667 37.3334)" fill="#C21401"/>
<rect x="101.333" y="37.3334" width="5.33333" height="5.33333" fill="#C21401"/>
<rect width="5.33333" height="5.33333" transform="matrix(-1 0 0 1 53.3333 37.3334)" fill="#C21401"/>
<rect x="106.667" y="37.3334" width="5.33333" height="5.33333" fill="#C21401"/>
<rect width="5.33333" height="5.33333" transform="matrix(-1 0 0 1 48 37.3334)" fill="#F88901"/>
<rect x="112" y="37.3334" width="5.33333" height="5.33333" fill="#F88901"/>
<rect width="5.33333" height="5.33333" transform="matrix(-1 0 0 1 64 42.6667)" fill="#C21401"/>
<rect x="96" y="42.6667" width="5.33333" height="5.33333" fill="#F7AE26"/>
<rect width="5.33333" height="5.33333" transform="matrix(-1 0 0 1 58.6667 42.6667)" fill="#C21401"/>
<rect x="101.333" y="42.6667" width="5.33333" height="5.33333" fill="#B01100"/>
<rect width="5.33333" height="5.33333" transform="matrix(-1 0 0 1 53.3333 42.6667)" fill="#C21401"/>
<rect x="106.667" y="42.6667" width="5.33333" height="5.33333" fill="#C21401"/>
<rect width="5.33333" height="5.33333" transform="matrix(-1 0 0 1 48 42.6667)" fill="#B01100"/>
<rect x="112" y="42.6667" width="5.33333" height="5.33333" fill="#C21401"/>
<rect width="5.33333" height="5.33333" transform="matrix(-1 0 0 1 42.6667 42.6667)" fill="#C21401"/>
<rect x="117.333" y="42.6667" width="5.33333" height="5.33333" fill="#F88901"/>
<rect width="5.33333" height="5.33333" transform="matrix(-1 0 0 1 64 48)" fill="#F7AE26"/>
<rect x="96" y="48" width="5.33333" height="5.33333" fill="#F88901"/>
<rect width="5.33333" height="5.33333" transform="matrix(-1 0 0 1 58.6667 48)" fill="#F88901"/>
<rect x="101.333" y="48" width="5.33333" height="5.33333" fill="#B01100"/>
<rect width="5.33333" height="5.33333" transform="matrix(-1 0 0 1 53.3333 48)" fill="#B01100"/>
<rect x="106.667" y="48" width="5.33333" height="5.33333" fill="#C21401"/>
<rect width="5.33333" height="5.33333" transform="matrix(-1 0 0 1 48 48)" fill="#C21401"/>
<rect x="112" y="48" width="5.33333" height="5.33333" fill="#C21401"/>
<rect width="5.33333" height="5.33333" transform="matrix(-1 0 0 1 42.6667 48)" fill="#C21401"/>
<rect width="5.33333" height="5.33333" transform="matrix(-1 0 0 1 37.3333 48)" fill="#C21401"/>
<rect width="5.33333" height="5.33333" transform="matrix(-1 0 0 1 32 53.3334)" fill="#C21401"/>
<rect width="5.33333" height="5.33333" transform="matrix(-1 0 0 1 26.6667 58.6667)" fill="#C21401"/>
<rect width="5.33333" height="5.33333" transform="matrix(-1 0 0 1 26.6667 53.3334)" fill="#F88901"/>
<rect x="117.333" y="48" width="5.33333" height="5.33333" fill="#F88901"/>
<rect width="5.33333" height="5.33333" transform="matrix(-1 0 0 1 37.3333 42.6667)" fill="#F88901"/>
<rect x="122.667" y="48" width="5.33333" height="5.33333" fill="#B01100"/>
<rect x="122.667" y="42.6667" width="5.33333" height="5.33333" fill="#B01100"/>
<rect x="128" y="48" width="5.33333" height="5.33333" fill="#F88901"/>
<rect width="5.33333" height="5.33333" transform="matrix(-1 0 0 1 64 53.3334)" fill="#F7AE26"/>
<rect x="96" y="53.3334" width="5.33333" height="5.33333" fill="#F88901"/>
<rect width="5.33333" height="5.33333" transform="matrix(-1 0 0 1 58.6667 53.3334)" fill="#F7AE26"/>
<rect x="101.333" y="53.3334" width="5.33333" height="5.33333" fill="#8BA916"/>
<rect width="5.33333" height="5.33333" transform="matrix(-1 0 0 1 53.3333 53.3334)" fill="#F7AE26"/>
<rect x="106.667" y="53.3334" width="5.33333" height="5.33333" fill="#F7AE26"/>
<rect width="5.33333" height="5.33333" transform="matrix(-1 0 0 1 48 53.3334)" fill="#C21401"/>
<rect x="112" y="53.3334" width="5.33333" height="5.33333" fill="#F88901"/>
<rect width="5.33333" height="5.33333" transform="matrix(-1 0 0 1 42.6667 53.3334)" fill="#B01100"/>
<rect x="117.333" y="53.3334" width="5.33333" height="5.33333" fill="#C21401"/>
<rect width="5.33333" height="5.33333" transform="matrix(-1 0 0 1 37.3333 53.3334)" fill="#C21401"/>
<rect x="122.667" y="53.3334" width="5.33333" height="5.33333" fill="#C21401"/>
<rect width="5.33333" height="5.33333" transform="matrix(-1 0 0 1 32 48)" fill="#F88901"/>
<rect x="128" y="53.3334" width="5.33333" height="5.33333" fill="#C21401"/>
<rect x="133.333" y="53.3334" width="5.33333" height="5.33333" fill="#B01100"/>
<rect width="5.33333" height="5.33333" transform="matrix(-1 0 0 1 64 58.6667)" fill="#B01100"/>
<rect x="96" y="58.6667" width="5.33333" height="5.33333" fill="#C21401"/>
<rect width="5.33333" height="5.33333" transform="matrix(-1 0 0 1 58.6667 58.6667)" fill="#B01100"/>
<rect x="101.333" y="58.6667" width="5.33333" height="5.33333" fill="#F7AE26"/>
<rect width="5.33333" height="5.33333" transform="matrix(-1 0 0 1 53.3333 58.6667)" fill="#8BA916"/>
<rect x="106.667" y="58.6667" width="5.33333" height="5.33333" fill="#8BA916"/>
<rect width="5.33333" height="5.33333" transform="matrix(-1 0 0 1 48 58.6667)" fill="#C21401"/>
<rect x="112" y="58.6667" width="5.33333" height="5.33333" fill="#F7AE26"/>
<rect width="5.33333" height="5.33333" transform="matrix(-1 0 0 1 42.6667 58.6667)" fill="#C21401"/>
<rect x="117.333" y="58.6667" width="5.33333" height="5.33333" fill="#F7AE26"/>
<rect width="5.33333" height="5.33333" transform="matrix(-1 0 0 1 37.3333 58.6667)" fill="#B01100"/>
<rect x="122.667" y="58.6667" width="5.33333" height="5.33333" fill="#B01100"/>
<rect width="5.33333" height="5.33333" transform="matrix(-1 0 0 1 32 58.6667)" fill="#B01100"/>
<rect x="128" y="58.6667" width="5.33333" height="5.33333" fill="#C21401"/>
<rect x="133.333" y="58.6667" width="5.33333" height="5.33333" fill="#C21401"/>
<rect width="5.33333" height="5.33333" transform="matrix(-1 0 0 1 64 64)" fill="#C21401"/>
<rect x="96" y="64" width="5.33333" height="5.33333" fill="#C21401"/>
<rect width="5.33333" height="5.33333" transform="matrix(-1 0 0 1 58.6667 64)" fill="#8BA916"/>
<rect x="101.333" y="64" width="5.33333" height="5.33333" fill="#C21401"/>
<rect width="5.33333" height="5.33333" transform="matrix(-1 0 0 1 53.3333 64)" fill="#8BA916"/>
<rect x="106.667" y="64" width="5.33333" height="5.33333" fill="#8BA916"/>
<rect width="5.33333" height="5.33333" transform="matrix(-1 0 0 1 48 64)" fill="#F88901"/>
<rect x="112" y="64" width="5.33333" height="5.33333" fill="#F88901"/>
<rect width="5.33333" height="5.33333" transform="matrix(-1 0 0 1 42.6667 64)" fill="#F7AE26"/>
<rect x="117.333" y="64" width="5.33333" height="5.33333" fill="#F88901"/>
<rect width="5.33333" height="5.33333" transform="matrix(-1 0 0 1 37.3333 64)" fill="#C21401"/>
<rect x="122.667" y="64" width="5.33333" height="5.33333" fill="#B01100"/>
<rect width="5.33333" height="5.33333" transform="matrix(-1 0 0 1 32 64)" fill="#C21401"/>
<rect x="128" y="64" width="5.33333" height="5.33333" fill="#C21401"/>
<rect width="5.33333" height="5.33333" transform="matrix(-1 0 0 1 26.6667 64)" fill="#B01100"/>
<rect x="133.333" y="64" width="5.33333" height="5.33333" fill="#F88901"/>
<rect width="5.33333" height="5.33333" transform="matrix(-1 0 0 1 64 69.3334)" fill="#F7AE26"/>
<rect x="96" y="69.3334" width="5.33333" height="5.33333" fill="#F88901"/>
<rect width="5.33333" height="5.33333" transform="matrix(-1 0 0 1 58.6667 69.3334)" fill="#F7AE26"/>
<rect x="101.333" y="69.3334" width="5.33333" height="5.33333" fill="#C21401"/>
<rect width="5.33333" height="5.33333" transform="matrix(-1 0 0 1 53.3333 69.3334)" fill="#B01100"/>
<rect x="106.667" y="69.3334" width="5.33333" height="5.33333" fill="#C21401"/>
<rect width="5.33333" height="5.33333" transform="matrix(-1 0 0 1 48 69.3334)" fill="#F7AE26"/>
<rect x="112" y="69.3334" width="5.33333" height="5.33333" fill="#C21401"/>
<rect width="5.33333" height="5.33333" transform="matrix(-1 0 0 1 42.6667 69.3334)" fill="#F7AE26"/>
<rect x="117.333" y="69.3334" width="5.33333" height="5.33333" fill="#C21401"/>
<rect width="5.33333" height="5.33333" transform="matrix(-1 0 0 1 37.3333 69.3334)" fill="#C21401"/>
<rect x="122.667" y="69.3334" width="5.33333" height="5.33333" fill="#C21401"/>
<rect width="5.33333" height="5.33333" transform="matrix(-1 0 0 1 32 69.3334)" fill="#C21401"/>
<rect x="128" y="69.3334" width="5.33333" height="5.33333" fill="#C21401"/>
<rect width="5.33333" height="5.33333" transform="matrix(-1 0 0 1 26.6667 69.3334)" fill="#F88901"/>
<rect x="133.333" y="69.3334" width="5.33333" height="5.33333" fill="#F88901"/>
<rect width="5.33333" height="5.33333" transform="matrix(-1 0 0 1 64 74.6667)" fill="#F7AE26"/>
<rect x="96" y="74.6667" width="5.33333" height="5.33333" fill="#C21401"/>
<rect width="5.33333" height="5.33333" transform="matrix(-1 0 0 1 58.6667 74.6667)" fill="#F88901"/>
<rect x="101.333" y="74.6667" width="5.33333" height="5.33333" fill="#8BA916"/>
<rect width="5.33333" height="5.33333" transform="matrix(-1 0 0 1 53.3333 74.6667)" fill="#B01100"/>
<rect x="106.667" y="74.6667" width="5.33333" height="5.33333" fill="#F7AE26"/>
<rect width="5.33333" height="5.33333" transform="matrix(-1 0 0 1 48 74.6667)" fill="#F7AE26"/>
<rect x="112" y="74.6667" width="5.33333" height="5.33333" fill="#F7AE26"/>
<rect width="5.33333" height="5.33333" transform="matrix(-1 0 0 1 42.6667 74.6667)" fill="#F88901"/>
<rect x="117.333" y="74.6667" width="5.33333" height="5.33333" fill="#B01100"/>
<rect width="5.33333" height="5.33333" transform="matrix(-1 0 0 1 37.3333 74.6667)" fill="#C21401"/>
<rect x="122.667" y="74.6667" width="5.33333" height="5.33333" fill="#F88901"/>
<rect width="5.33333" height="5.33333" transform="matrix(-1 0 0 1 32 74.6667)" fill="#C21401"/>
<rect x="128" y="74.6667" width="5.33333" height="5.33333" fill="#B01100"/>
<rect width="5.33333" height="5.33333" transform="matrix(-1 0 0 1 26.6667 74.6667)" fill="#F88901"/>
<rect x="133.333" y="74.6667" width="5.33333" height="5.33333" fill="#F88901"/>
<rect width="5.33333" height="5.33333" transform="matrix(-1 0 0 1 64 80)" fill="#B01100"/>
<rect x="96" y="80" width="5.33333" height="5.33333" fill="#8BA916"/>
<rect width="5.33333" height="5.33333" transform="matrix(-1 0 0 1 58.6667 80)" fill="#C21401"/>
<rect x="101.333" y="80" width="5.33333" height="5.33333" fill="#F7AE26"/>
<rect width="5.33333" height="5.33333" transform="matrix(-1 0 0 1 53.3333 80)" fill="#C21401"/>
<rect x="106.667" y="80" width="5.33333" height="5.33333" fill="#F7AE26"/>
<rect width="5.33333" height="5.33333" transform="matrix(-1 0 0 1 48 80)" fill="#F7AE26"/>
<rect x="112" y="80" width="5.33333" height="5.33333" fill="#F88901"/>
<rect width="5.33333" height="5.33333" transform="matrix(-1 0 0 1 42.6667 80)" fill="#B01100"/>
<rect x="117.333" y="80" width="5.33333" height="5.33333" fill="#B01100"/>
<rect width="5.33333" height="5.33333" transform="matrix(-1 0 0 1 37.3333 80)" fill="#C21401"/>
<rect x="122.667" y="80" width="5.33333" height="5.33333" fill="#F88901"/>
<rect width="5.33333" height="5.33333" transform="matrix(-1 0 0 1 32 80)" fill="#B01100"/>
<rect x="128" y="80" width="5.33333" height="5.33333" fill="#B01100"/>
<rect width="5.33333" height="5.33333" transform="matrix(-1 0 0 1 26.6667 80)" fill="#B01100"/>
<rect x="133.333" y="80" width="5.33333" height="5.33333" fill="#C21401"/>
<rect width="5.33333" height="5.33333" transform="matrix(-1 0 0 1 64 85.3334)" fill="#F7AE26"/>
<rect x="96" y="85.3334" width="5.33333" height="5.33333" fill="#C21401"/>
<rect width="5.33333" height="5.33333" transform="matrix(-1 0 0 1 58.6667 85.3334)" fill="#F7AE26"/>
<rect x="101.333" y="85.3334" width="5.33333" height="5.33333" fill="#F88901"/>
<rect width="5.33333" height="5.33333" transform="matrix(-1 0 0 1 53.3333 85.3334)" fill="#C21401"/>
<rect x="106.667" y="85.3334" width="5.33333" height="5.33333" fill="#F88901"/>
<rect width="5.33333" height="5.33333" transform="matrix(-1 0 0 1 48 85.3334)" fill="#B01100"/>
<rect x="112" y="85.3334" width="5.33333" height="5.33333" fill="#B01100"/>
<rect width="5.33333" height="5.33333" transform="matrix(-1 0 0 1 42.6667 85.3334)" fill="#C21401"/>
<rect x="117.333" y="85.3334" width="5.33333" height="5.33333" fill="#C21401"/>
<rect width="5.33333" height="5.33333" transform="matrix(-1 0 0 1 37.3333 85.3334)" fill="#C21401"/>
<rect x="122.667" y="85.3334" width="5.33333" height="5.33333" fill="#C21401"/>
<rect width="5.33333" height="5.33333" transform="matrix(-1 0 0 1 32 85.3334)" fill="#F88901"/>
<rect width="5.33333" height="5.33333" transform="matrix(-1 0 0 1 26.6667 85.3334)" fill="#F88901"/>
<rect x="128" y="85.3334" width="5.33333" height="5.33333" fill="#C21401"/>
<rect x="133.333" y="85.3334" width="5.33333" height="5.33333" fill="#B01100"/>
<rect width="5.33333" height="5.33333" transform="matrix(-1 0 0 1 64 90.6667)" fill="#F7AE26"/>
<rect x="96" y="90.6667" width="5.33333" height="5.33333" fill="#C21401"/>
<rect width="5.33333" height="5.33333" transform="matrix(-1 0 0 1 58.6667 90.6667)" fill="#F88901"/>
<rect x="101.333" y="90.6667" width="5.33333" height="5.33333" fill="#C21401"/>
<rect width="5.33333" height="5.33333" transform="matrix(-1 0 0 1 53.3333 90.6667)" fill="#C21401"/>
<rect x="106.667" y="90.6667" width="5.33333" height="5.33333" fill="#B01100"/>
<rect width="5.33333" height="5.33333" transform="matrix(-1 0 0 1 48 90.6667)" fill="#C21401"/>
<rect x="112" y="90.6667" width="5.33333" height="5.33333" fill="#C21401"/>
<rect width="5.33333" height="5.33333" transform="matrix(-1 0 0 1 42.6667 90.6667)" fill="#C21401"/>
<rect x="117.333" y="90.6667" width="5.33333" height="5.33333" fill="#C21401"/>
<rect x="117.333" y="96" width="5.33333" height="5.33333" fill="#C21401"/>
<rect width="5.33333" height="5.33333" transform="matrix(-1 0 0 1 37.3333 90.6667)" fill="#F88901"/>
<rect x="122.667" y="90.6667" width="5.33333" height="5.33333" fill="#F88901"/>
<rect width="5.33333" height="5.33333" transform="matrix(-1 0 0 1 64 96)" fill="#B01100"/>
<rect x="96" y="96" width="5.33333" height="5.33333" fill="#C21401"/>
<rect width="5.33333" height="5.33333" transform="matrix(-1 0 0 1 58.6667 96)" fill="#B01100"/>
<rect x="101.333" y="96" width="5.33333" height="5.33333" fill="#C21401"/>
<rect width="5.33333" height="5.33333" transform="matrix(-1 0 0 1 53.3333 96)" fill="#C21401"/>
<rect x="106.667" y="96" width="5.33333" height="5.33333" fill="#F88901"/>
<rect width="5.33333" height="5.33333" transform="matrix(-1 0 0 1 48 96)" fill="#C21401"/>
<rect x="112" y="96" width="5.33333" height="5.33333" fill="#F88901"/>
<rect width="5.33333" height="5.33333" transform="matrix(-1 0 0 1 64 101.333)" fill="#C21401"/>
<rect x="96" y="101.333" width="5.33333" height="5.33333" fill="#C21401"/>
<rect width="5.33333" height="5.33333" transform="matrix(-1 0 0 1 58.6667 101.333)" fill="#C21401"/>
<rect width="5.33333" height="5.33333" transform="matrix(-1 0 0 1 53.3333 101.333)" fill="#B01100"/>
<rect width="5.33333" height="5.33333" transform="matrix(-1 0 0 1 42.6667 96)" fill="#B01100"/>
<rect x="101.333" y="101.333" width="5.33333" height="5.33333" fill="#B01100"/>
<rect x="106.667" y="101.333" width="5.33333" height="5.33333" fill="#B01100"/>
<rect width="5.33333" height="5.33333" transform="matrix(-1 0 0 1 69.3333 32)" fill="#F88901"/>
<rect x="90.6667" y="32" width="5.33333" height="5.33333" fill="#C21401"/>
<rect width="5.33333" height="5.33333" transform="matrix(-1 0 0 1 69.3333 37.3334)" fill="#C21401"/>
<rect x="90.6667" y="37.3334" width="5.33333" height="5.33333" fill="#C21401"/>
<rect width="5.33333" height="5.33333" transform="matrix(-1 0 0 1 69.3333 42.6667)" fill="#B01100"/>
<rect x="90.6667" y="42.6667" width="5.33333" height="5.33333" fill="#F7AE26"/>
<rect width="5.33333" height="5.33333" transform="matrix(-1 0 0 1 69.3333 48)" fill="#F7AE26"/>
<rect x="90.6667" y="48" width="5.33333" height="5.33333" fill="#F7AE26"/>
<rect width="5.33333" height="5.33333" transform="matrix(-1 0 0 1 69.3333 53.3334)" fill="#F88901"/>
<rect x="90.6667" y="53.3334" width="5.33333" height="5.33333" fill="#C21401"/>
<rect width="5.33333" height="5.33333" transform="matrix(-1 0 0 1 69.3333 58.6667)" fill="#B01100"/>
<rect x="90.6667" y="58.6667" width="5.33333" height="5.33333" fill="#FAFBF1"/>
<rect width="5.33333" height="5.33333" transform="matrix(-1 0 0 1 69.3333 64)" fill="#C21401"/>
<rect x="90.6667" y="64" width="5.33333" height="5.33333" fill="#E1DACD"/>
<rect width="5.33333" height="5.33333" transform="matrix(-1 0 0 1 69.3333 69.3334)" fill="#B01100"/>
<rect x="90.6667" y="69.3334" width="5.33333" height="5.33333" fill="#E1DACD"/>
<rect width="5.33333" height="5.33333" transform="matrix(-1 0 0 1 69.3333 74.6667)" fill="#F7AE26"/>
<rect x="90.6667" y="74.6667" width="5.33333" height="5.33333" fill="#8BA916"/>
<rect width="5.33333" height="5.33333" transform="matrix(-1 0 0 1 69.3333 80)" fill="#B01100"/>
<rect x="90.6667" y="80" width="5.33333" height="5.33333" fill="#C21401"/>
<rect width="5.33333" height="5.33333" transform="matrix(-1 0 0 1 69.3333 85.3334)" fill="#8BA916"/>
<rect x="90.6667" y="85.3334" width="5.33333" height="5.33333" fill="#F88901"/>
<rect width="5.33333" height="5.33333" transform="matrix(-1 0 0 1 69.3333 90.6667)" fill="#F7AE26"/>
<rect x="90.6667" y="90.6667" width="5.33333" height="5.33333" fill="#F7AE26"/>
<rect width="5.33333" height="5.33333" transform="matrix(-1 0 0 1 69.3333 96)" fill="#B01100"/>
<rect x="90.6667" y="96" width="5.33333" height="5.33333" fill="#B01100"/>
<rect width="5.33333" height="5.33333" transform="matrix(-1 0 0 1 69.3333 101.333)" fill="#C21401"/>
<rect x="90.6667" y="101.333" width="5.33333" height="5.33333" fill="#C21401"/>
<rect width="5.33333" height="5.33333" transform="matrix(-1 0 0 1 74.6667 32)" fill="#C21401"/>
<rect x="85.3333" y="32" width="5.33333" height="5.33333" fill="#F88901"/>
<rect width="5.33333" height="5.33333" transform="matrix(-1 0 0 1 74.6667 37.3334)" fill="#C21401"/>
<rect x="85.3333" y="37.3334" width="5.33333" height="5.33333" fill="#C21401"/>
<rect width="5.33333" height="5.33333" transform="matrix(-1 0 0 1 74.6667 42.6667)" fill="#8BA916"/>
<rect x="85.3333" y="42.6667" width="5.33333" height="5.33333" fill="#C21401"/>
<rect width="5.33333" height="5.33333" transform="matrix(-1 0 0 1 74.6667 48)" fill="#F7AE26"/>
<rect x="85.3333" y="48" width="5.33333" height="5.33333" fill="#F7AE26"/>
<rect width="5.33333" height="5.33333" transform="matrix(-1 0 0 1 74.6667 53.3334)" fill="#C21401"/>
<rect x="85.3333" y="53.3334" width="5.33333" height="5.33333" fill="#FAFBF1"/>
<rect width="5.33333" height="5.33333" transform="matrix(-1 0 0 1 74.6667 58.6667)" fill="#F88901"/>
<rect x="85.3333" y="58.6667" width="5.33333" height="5.33333" fill="#FAFBF1"/>
<rect width="5.33333" height="5.33333" transform="matrix(-1 0 0 1 74.6667 64)" fill="#FAFBF1"/>
<rect x="85.3333" y="64" width="5.33333" height="5.33333" fill="#FAFBF1"/>
<rect width="5.33333" height="5.33333" transform="matrix(-1 0 0 1 74.6667 69.3334)" fill="#B01100"/>
<rect x="85.3333" y="69.3334" width="5.33333" height="5.33333" fill="#8BA916"/>
<rect width="5.33333" height="5.33333" transform="matrix(-1 0 0 1 74.6667 74.6667)" fill="#F88901"/>
<rect x="85.3333" y="74.6667" width="5.33333" height="5.33333" fill="#E1DACD"/>
<rect width="5.33333" height="5.33333" transform="matrix(-1 0 0 1 74.6667 80)" fill="#8BA916"/>
<rect x="85.3333" y="80" width="5.33333" height="5.33333" fill="#B01100"/>
<rect width="5.33333" height="5.33333" transform="matrix(-1 0 0 1 74.6667 85.3334)" fill="#B01100"/>
<rect x="85.3333" y="85.3334" width="5.33333" height="5.33333" fill="#F7AE26"/>
<rect width="5.33333" height="5.33333" transform="matrix(-1 0 0 1 74.6667 90.6667)" fill="#C21401"/>
<rect x="85.3333" y="90.6667" width="5.33333" height="5.33333" fill="#F7AE26"/>
<rect width="5.33333" height="5.33333" transform="matrix(-1 0 0 1 74.6667 96)" fill="#C21401"/>
<rect x="85.3333" y="96" width="5.33333" height="5.33333" fill="#B01100"/>
<rect width="5.33333" height="5.33333" transform="matrix(-1 0 0 1 74.6667 101.333)" fill="#C21401"/>
<rect x="85.3333" y="101.333" width="5.33333" height="5.33333" fill="#C21401"/>
<rect width="5.33333" height="5.33333" transform="matrix(-1 0 0 1 80 32)" fill="#C21401"/>
<rect x="80" y="32" width="5.33333" height="5.33333" fill="#C21401"/>
<rect width="5.33333" height="5.33333" transform="matrix(-1 0 0 1 80 37.3334)" fill="#8BA916"/>
<rect x="80" y="37.3334" width="5.33333" height="5.33333" fill="#B01100"/>
<rect width="5.33333" height="5.33333" transform="matrix(-1 0 0 1 80 42.6667)" fill="#8BA916"/>
<rect x="80" y="42.6667" width="5.33333" height="5.33333" fill="#C21401"/>
<rect width="5.33333" height="5.33333" transform="matrix(-1 0 0 1 80 48)" fill="#C21401"/>
<rect x="80" y="48" width="5.33333" height="5.33333" fill="#F88901"/>
<rect width="5.33333" height="5.33333" transform="matrix(-1 0 0 1 80 53.3334)" fill="#F88901"/>
<rect x="80" y="53.3334" width="5.33333" height="5.33333" fill="#FAFBF1"/>
<rect width="5.33333" height="5.33333" transform="matrix(-1 0 0 1 80 58.6667)" fill="#FAFBF1"/>
<rect x="80" y="58.6667" width="5.33333" height="5.33333" fill="#FAFBF1"/>
<rect width="5.33333" height="5.33333" transform="matrix(-1 0 0 1 80 64)" fill="#F6CA47"/>
<rect x="80" y="64" width="5.33333" height="5.33333" fill="#F6CA47"/>
<rect width="5.33333" height="5.33333" transform="matrix(-1 0 0 1 80 69.3334)" fill="#F1AE00"/>
<rect x="80" y="69.3334" width="5.33333" height="5.33333" fill="#F6CA47"/>
<rect width="5.33333" height="5.33333" transform="matrix(-1 0 0 1 80 74.6667)" fill="#B01100"/>
<rect x="80" y="74.6667" width="5.33333" height="5.33333" fill="#C21401"/>
<rect width="5.33333" height="5.33333" transform="matrix(-1 0 0 1 80 80)" fill="#8BA916"/>
<rect x="80" y="80" width="5.33333" height="5.33333" fill="#F7AE26"/>
<rect width="5.33333" height="5.33333" transform="matrix(-1 0 0 1 80 85.3334)" fill="#B01100"/>
<rect x="80" y="85.3334" width="5.33333" height="5.33333" fill="#F7AE26"/>
<rect width="5.33333" height="5.33333" transform="matrix(-1 0 0 1 80 90.6667)" fill="#C21401"/>
<rect x="80" y="90.6667" width="5.33333" height="5.33333" fill="#F88901"/>
<rect width="5.33333" height="5.33333" transform="matrix(-1 0 0 1 80 96)" fill="#C21401"/>
<rect x="80" y="96" width="5.33333" height="5.33333" fill="#B01100"/>
<rect width="5.33333" height="5.33333" transform="matrix(-1 0 0 1 80 101.333)" fill="#C21401"/>
<rect x="80" y="101.333" width="5.33333" height="5.33333" fill="#C21401"/>
<rect x="5.33334" y="85.3334" width="5.33333" height="5.33333" fill="white"/>
<rect x="5.33334" y="90.6667" width="5.33333" height="5.33333" fill="white"/>
<rect x="5.33334" y="96" width="5.33333" height="5.33333" fill="white"/>
<rect x="10.6667" y="101.333" width="5.33333" height="5.33333" fill="white"/>
<rect x="10.6667" y="96" width="5.33333" height="5.33333" fill="white"/>
<rect x="16" y="101.333" width="5.33333" height="5.33333" fill="white"/>
<rect x="16" y="106.667" width="5.33333" height="5.33333" fill="white"/>
<rect x="16" y="112" width="5.33333" height="5.33333" fill="white"/>
<rect x="21.3333" y="117.333" width="5.33333" height="5.33333" fill="white"/>
<rect x="26.6667" y="122.667" width="5.33333" height="5.33333" fill="white"/>
<rect x="32" y="128" width="5.33333" height="5.33333" fill="white"/>
<rect x="37.3333" y="133.333" width="5.33333" height="5.33333" fill="white"/>
<rect x="42.6667" y="138.667" width="5.33333" height="5.33333" fill="white"/>
<rect x="21.3333" y="112" width="5.33333" height="5.33333" fill="white"/>
<rect x="26.6667" y="117.333" width="5.33333" height="5.33333" fill="white"/>
<rect x="32" y="122.667" width="5.33333" height="5.33333" fill="white"/>
<rect x="37.3333" y="128" width="5.33333" height="5.33333" fill="white"/>
<rect x="42.6667" y="133.333" width="5.33333" height="5.33333" fill="white"/>
<rect x="48" y="138.667" width="5.33333" height="5.33333" fill="white"/>
<rect x="53.3333" y="144" width="5.33333" height="5.33333" fill="white"/>
<rect x="64" y="144" width="5.33333" height="5.33333" fill="white"/>
<rect x="74.6667" y="144" width="5.33333" height="5.33333" fill="white"/>
<rect x="85.3333" y="144" width="5.33333" height="5.33333" fill="white"/>
<rect x="96" y="144" width="5.33333" height="5.33333" fill="white"/>
<rect x="101.333" y="138.667" width="5.33333" height="5.33333" fill="white"/>
<rect x="53.3333" y="138.667" width="5.33333" height="5.33333" fill="white"/>
<rect x="58.6667" y="144" width="5.33333" height="5.33333" fill="white"/>
<rect x="69.3333" y="144" width="5.33333" height="5.33333" fill="white"/>
<rect x="80" y="144" width="5.33333" height="5.33333" fill="white"/>
<rect x="90.6667" y="144" width="5.33333" height="5.33333" fill="white"/>
<rect x="101.333" y="144" width="5.33333" height="5.33333" fill="white"/>
<rect x="106.667" y="138.667" width="5.33333" height="5.33333" fill="white"/>
<rect x="112" y="133.333" width="5.33333" height="5.33333" fill="white"/>
<rect x="117.333" y="128" width="5.33333" height="5.33333" fill="white"/>
<rect x="122.667" y="122.667" width="5.33333" height="5.33333" fill="white"/>
<rect x="128" y="117.333" width="5.33333" height="5.33333" fill="white"/>
<rect x="133.333" y="112" width="5.33333" height="5.33333" fill="white"/>
<rect x="138.667" y="106.667" width="5.33333" height="5.33333" fill="white"/>
<rect x="112" y="138.667" width="5.33333" height="5.33333" fill="white"/>
<rect x="117.333" y="133.333" width="5.33333" height="5.33333" fill="white"/>
<rect x="122.667" y="128" width="5.33333" height="5.33333" fill="white"/>
<rect x="128" y="122.667" width="5.33333" height="5.33333" fill="white"/>
<rect x="133.333" y="117.333" width="5.33333" height="5.33333" fill="white"/>
<rect x="138.667" y="112" width="5.33333" height="5.33333" fill="white"/>
<rect x="144" y="96" width="5.33333" height="5.33333" fill="white"/>
<rect x="149.333" y="96" width="5.33333" height="5.33333" fill="white"/>
<rect x="149.333" y="90.6667" width="5.33333" height="5.33333" fill="white"/>
<rect x="149.333" y="85.3334" width="5.33333" height="5.33333" fill="white"/>
<rect x="149.333" y="80" width="5.33333" height="5.33333" fill="white"/>
<rect x="149.333" y="74.6667" width="5.33333" height="5.33333" fill="white"/>
<rect x="149.333" y="69.3334" width="5.33333" height="5.33333" fill="white"/>
<rect x="149.333" y="64" width="5.33333" height="5.33333" fill="white"/>
<rect x="149.333" y="58.6667" width="5.33333" height="5.33333" fill="white"/>
<rect x="149.333" y="53.3334" width="5.33333" height="5.33333" fill="white"/>
<rect x="149.333" y="48" width="5.33333" height="5.33333" fill="white"/>
<rect x="149.333" y="42.6667" width="5.33333" height="5.33333" fill="white"/>
<rect x="144" y="37.3334" width="5.33333" height="5.33333" fill="white"/>
<rect x="138.667" y="32" width="5.33333" height="5.33333" fill="white"/>
<rect x="133.333" y="26.6667" width="5.33333" height="5.33333" fill="white"/>
<rect x="128" y="21.3334" width="5.33333" height="5.33333" fill="white"/>
<rect x="117.333" y="16" width="5.33333" height="5.33333" fill="white"/>
<rect x="106.667" y="10.6667" width="5.33333" height="5.33333" fill="white"/>
<rect x="90.6667" y="10.6667" width="5.33333" height="5.33333" fill="white"/>
<rect x="74.6667" y="10.6667" width="5.33333" height="5.33333" fill="white"/>
<rect x="58.6667" y="10.6667" width="5.33333" height="5.33333" fill="white"/>
<rect x="48" y="16" width="5.33333" height="5.33333" fill="white"/>
<rect x="37.3333" y="21.3334" width="5.33333" height="5.33333" fill="white"/>
<rect x="26.6667" y="26.6667" width="5.33333" height="5.33333" fill="white"/>
<rect x="21.3333" y="32" width="5.33333" height="5.33333" fill="white"/>
<rect x="16" y="37.3334" width="5.33333" height="5.33333" fill="white"/>
<rect x="10.6667" y="42.6667" width="5.33333" height="5.33333" fill="white"/>
<rect x="144" y="42.6667" width="5.33333" height="5.33333" fill="white"/>
<rect x="138.667" y="37.3334" width="5.33333" height="5.33333" fill="white"/>
<rect x="133.333" y="32" width="5.33333" height="5.33333" fill="white"/>
<rect x="128" y="26.6667" width="5.33333" height="5.33333" fill="white"/>
<rect x="122.667" y="21.3334" width="5.33333" height="5.33333" fill="white"/>
<rect x="112" y="16" width="5.33333" height="5.33333" fill="white"/>
<rect x="101.333" y="10.6667" width="5.33333" height="5.33333" fill="white"/>
<rect x="85.3333" y="10.6667" width="5.33333" height="5.33333" fill="white"/>
<rect x="69.3333" y="10.6667" width="5.33333" height="5.33333" fill="white"/>
<rect x="53.3333" y="10.6667" width="5.33333" height="5.33333" fill="white"/>
<rect x="42.6667" y="16" width="5.33333" height="5.33333" fill="white"/>
<rect x="32" y="21.3334" width="5.33333" height="5.33333" fill="white"/>
<rect x="21.3333" y="26.6667" width="5.33333" height="5.33333" fill="white"/>
<rect x="16" y="32" width="5.33333" height="5.33333" fill="white"/>
<rect x="10.6667" y="37.3334" width="5.33333" height="5.33333" fill="white"/>
<rect x="5.33334" y="42.6667" width="5.33333" height="5.33333" fill="white"/>
<rect x="5.33334" y="48" width="5.33333" height="5.33333" fill="white"/>
<rect x="5.33334" y="53.3334" width="5.33333" height="5.33333" fill="white"/>
<rect x="5.33334" y="58.6667" width="5.33333" height="5.33333" fill="white"/>
<rect x="5.33334" y="64" width="5.33333" height="5.33333" fill="white"/>
<rect x="5.33334" y="69.3334" width="5.33333" height="5.33333" fill="white"/>
<rect x="5.33334" y="74.6667" width="5.33333" height="5.33333" fill="white"/>
<rect x="5.33334" y="80" width="5.33333" height="5.33333" fill="white"/>
<rect x="117.333" y="21.3334" width="5.33333" height="5.33333" fill="white"/>
<rect x="106.667" y="16" width="5.33333" height="5.33333" fill="white"/>
<rect x="96" y="10.6667" width="5.33333" height="5.33333" fill="white"/>
<rect x="80" y="10.6667" width="5.33333" height="5.33333" fill="white"/>
<rect x="64" y="10.6667" width="5.33333" height="5.33333" fill="white"/>
<rect x="48" y="10.6667" width="5.33333" height="5.33333" fill="white"/>
<rect x="37.3333" y="16" width="5.33333" height="5.33333" fill="white"/>
<rect x="26.6667" y="21.3334" width="5.33333" height="5.33333" fill="white"/>
<rect x="144" y="101.333" width="5.33333" height="5.33333" fill="white"/>
<rect x="138.667" y="101.333" width="5.33333" height="5.33333" fill="white"/>
<rect x="154.667" y="80" width="5.33333" height="5.33333" fill="#FFCB29"/>
<rect x="154.667" y="85.3334" width="5.33333" height="5.33333" fill="#FFCB29"/>
<rect x="154.667" y="90.6667" width="5.33333" height="5.33333" fill="#FFCB29"/>
<rect x="154.667" y="96" width="5.33333" height="5.33333" fill="#FFCB29"/>
<rect x="149.333" y="101.333" width="5.33333" height="5.33333" fill="#FFCB29"/>
<rect x="144" y="106.667" width="5.33333" height="5.33333" fill="#FFCB29"/>
<rect x="144" y="112" width="5.33333" height="5.33333" fill="#FFCB29"/>
<rect x="138.667" y="117.333" width="5.33333" height="5.33333" fill="#FFCB29"/>
<rect x="133.333" y="122.667" width="5.33333" height="5.33333" fill="#FFCB29"/>
<rect x="128" y="128" width="5.33333" height="5.33333" fill="#FFCB29"/>
<rect x="122.667" y="133.333" width="5.33333" height="5.33333" fill="#FFCB29"/>
<rect x="112" y="144" width="5.33333" height="5.33333" fill="#FFCB29"/>
<rect x="117.333" y="138.667" width="5.33333" height="5.33333" fill="#FFCB29"/>
<rect x="101.333" y="149.333" width="5.33333" height="5.33333" fill="#FFCB29"/>
<rect x="106.667" y="144" width="5.33333" height="5.33333" fill="#FFCB29"/>
<rect x="90.6667" y="149.333" width="5.33333" height="5.33333" fill="#FFCB29"/>
<rect x="80" y="149.333" width="5.33333" height="5.33333" fill="#FFCB29"/>
<rect x="69.3333" y="149.333" width="5.33333" height="5.33333" fill="#FFCB29"/>
<rect x="58.6667" y="149.333" width="5.33333" height="5.33333" fill="#FFCB29"/>
<rect x="96" y="149.333" width="5.33333" height="5.33333" fill="#FFCB29"/>
<rect x="85.3333" y="149.333" width="5.33333" height="5.33333" fill="#FFCB29"/>
<rect x="74.6667" y="149.333" width="5.33333" height="5.33333" fill="#FFCB29"/>
<rect x="64" y="149.333" width="5.33333" height="5.33333" fill="#FFCB29"/>
<rect x="53.3333" y="149.333" width="5.33333" height="5.33333" fill="#FFCB29"/>
<rect x="48" y="144" width="5.33333" height="5.33333" fill="#FFCB29"/>
<rect x="42.6667" y="144" width="5.33333" height="5.33333" fill="#FFCB29"/>
<rect x="37.3333" y="138.667" width="5.33333" height="5.33333" fill="#FFCB29"/>
<rect x="32" y="133.333" width="5.33333" height="5.33333" fill="#FFCB29"/>
<rect x="26.6667" y="128" width="5.33333" height="5.33333" fill="#FFCB29"/>
<rect x="21.3333" y="122.667" width="5.33333" height="5.33333" fill="#FFCB29"/>
<rect x="10.6667" y="112" width="5.33333" height="5.33333" fill="#FFCB29"/>
<rect x="16" y="117.333" width="5.33333" height="5.33333" fill="#FFCB29"/>
<rect x="5.33334" y="101.333" width="5.33333" height="5.33333" fill="#FFCB29"/>
<rect x="10.6667" y="106.667" width="5.33333" height="5.33333" fill="#FFCB29"/>
<rect y="90.6667" width="5.33333" height="5.33333" fill="#FFCB29"/>
<rect y="96" width="5.33333" height="5.33333" fill="#FFCB29"/>
<rect y="85.3334" width="5.33333" height="5.33333" fill="#FFCB29"/>
<rect y="80" width="5.33333" height="5.33333" fill="#FFCB29"/>
<rect y="74.6667" width="5.33333" height="5.33333" fill="#FFCB29"/>
<rect y="69.3334" width="5.33333" height="5.33333" fill="#FFCB29"/>
<rect y="64" width="5.33333" height="5.33333" fill="#FFCB29"/>
<rect y="58.6667" width="5.33333" height="5.33333" fill="#FFCB29"/>
<rect y="53.3334" width="5.33333" height="5.33333" fill="#FFCB29"/>
<rect y="48" width="5.33333" height="5.33333" fill="#FFCB29"/>
<rect y="42.6667" width="5.33333" height="5.33333" fill="#FFCB29"/>
<rect x="5.33334" y="37.3334" width="5.33333" height="5.33333" fill="#FFCB29"/>
<rect x="10.6667" y="32" width="5.33333" height="5.33333" fill="#FFCB29"/>
<rect x="16" y="26.6667" width="5.33333" height="5.33333" fill="#FFCB29"/>
<rect x="21.3333" y="21.3334" width="5.33333" height="5.33333" fill="#FFCB29"/>
<rect x="26.6667" y="16" width="5.33333" height="5.33333" fill="#FFCB29"/>
<rect x="37.3333" y="10.6667" width="5.33333" height="5.33333" fill="#FFCB29"/>
<rect x="48" y="5.33337" width="5.33333" height="5.33333" fill="#FFCB29"/>
<rect x="64" y="5.33337" width="5.33333" height="5.33333" fill="#FFCB29"/>
<rect x="80" y="5.33337" width="5.33333" height="5.33333" fill="#FFCB29"/>
<rect x="96" y="5.33337" width="5.33333" height="5.33333" fill="#FFCB29"/>
<rect x="32" y="16" width="5.33333" height="5.33333" fill="#FFCB29"/>
<rect x="42.6667" y="10.6667" width="5.33333" height="5.33333" fill="#FFCB29"/>
<rect x="53.3333" y="5.33337" width="5.33333" height="5.33333" fill="#FFCB29"/>
<rect x="69.3333" y="5.33337" width="5.33333" height="5.33333" fill="#FFCB29"/>
<rect x="85.3333" y="5.33337" width="5.33333" height="5.33333" fill="#FFCB29"/>
<rect x="101.333" y="5.33337" width="5.33333" height="5.33333" fill="#FFCB29"/>
<rect x="112" y="10.6667" width="5.33333" height="5.33333" fill="#FFCB29"/>
<rect x="122.667" y="16" width="5.33333" height="5.33333" fill="#FFCB29"/>
<rect x="58.6667" y="5.33337" width="5.33333" height="5.33333" fill="#FFCB29"/>
<rect x="74.6667" y="5.33337" width="5.33333" height="5.33333" fill="#FFCB29"/>
<rect x="90.6667" y="5.33337" width="5.33333" height="5.33333" fill="#FFCB29"/>
<rect x="106.667" y="5.33337" width="5.33333" height="5.33333" fill="#FFCB29"/>
<rect x="117.333" y="10.6667" width="5.33333" height="5.33333" fill="#FFCB29"/>
<rect x="128" y="16" width="5.33333" height="5.33333" fill="#FFCB29"/>
<rect x="133.333" y="21.3334" width="5.33333" height="5.33333" fill="#FFCB29"/>
<rect x="138.667" y="26.6667" width="5.33333" height="5.33333" fill="#FFCB29"/>
<rect x="144" y="32" width="5.33333" height="5.33333" fill="#FFCB29"/>
<rect x="154.667" y="42.6667" width="5.33333" height="5.33333" fill="#FFCB29"/>
<rect x="149.333" y="37.3334" width="5.33333" height="5.33333" fill="#FFCB29"/>
<rect x="154.667" y="48" width="5.33333" height="5.33333" fill="#FFCB29"/>
<rect x="154.667" y="53.3334" width="5.33333" height="5.33333" fill="#FFCB29"/>
<rect x="154.667" y="58.6667" width="5.33333" height="5.33333" fill="#FFCB29"/>
<rect x="154.667" y="64" width="5.33333" height="5.33333" fill="#FFCB29"/>
<rect x="154.667" y="69.3334" width="5.33333" height="5.33333" fill="#FFCB29"/>
<rect x="154.667" y="74.6667" width="5.33333" height="5.33333" fill="#FFCB29"/>
</svg>
