<svg width="160" height="160" viewBox="0 0 160 160" fill="none" xmlns="http://www.w3.org/2000/svg">
<rect width="5.33333" height="5.33333" transform="matrix(-1 0 0 1 80 133.333)" fill="black"/>
<rect width="5.33333" height="5.33333" transform="matrix(-1 0 0 1 74.6667 133.333)" fill="black"/>
<rect width="5.33333" height="5.33333" transform="matrix(-1 0 0 1 69.3333 133.333)" fill="black"/>
<rect width="5.33333" height="5.33333" transform="matrix(-1 0 0 1 64 133.333)" fill="black"/>
<rect width="5.33333" height="5.33333" transform="matrix(-1 0 0 1 58.6667 133.333)" fill="black"/>
<rect width="5.33333" height="5.33333" transform="matrix(-1 0 0 1 53.3333 128)" fill="black"/>
<rect width="5.33333" height="5.33333" transform="matrix(-1 0 0 1 48 128)" fill="black"/>
<rect width="5.33333" height="5.33333" transform="matrix(-1 0 0 1 42.6667 122.667)" fill="black"/>
<rect width="5.33333" height="5.33333" transform="matrix(-1 0 0 1 37.3333 122.667)" fill="black"/>
<rect width="5.33333" height="5.33333" transform="matrix(-1 0 0 1 26.6667 112)" fill="black"/>
<rect width="5.33333" height="5.33333" transform="matrix(-1 0 0 1 32 117.333)" fill="black"/>
<rect width="5.33333" height="5.33333" transform="matrix(-1 0 0 1 21.3333 106.667)" fill="black"/>
<rect x="80" y="133.333" width="5.33333" height="5.33333" fill="black"/>
<rect x="85.3333" y="133.333" width="5.33333" height="5.33333" fill="black"/>
<rect x="90.6667" y="133.333" width="5.33333" height="5.33333" fill="black"/>
<rect x="96" y="133.333" width="5.33333" height="5.33333" fill="black"/>
<rect x="101.333" y="133.333" width="5.33333" height="5.33333" fill="black"/>
<rect x="106.667" y="128" width="5.33333" height="5.33333" fill="black"/>
<rect x="112" y="128" width="5.33333" height="5.33333" fill="black"/>
<rect x="117.333" y="122.667" width="5.33333" height="5.33333" fill="black"/>
<rect x="122.667" y="122.667" width="5.33333" height="5.33333" fill="black"/>
<rect x="133.333" y="112" width="5.33333" height="5.33333" fill="black"/>
<rect x="128" y="117.333" width="5.33333" height="5.33333" fill="black"/>
<rect x="138.667" y="106.667" width="5.33333" height="5.33333" fill="black"/>
<rect width="5.33333" height="5.33333" transform="matrix(-1 0 0 1 149.333 80)" fill="black"/>
<rect width="5.33333" height="5.33333" transform="matrix(-1 0 0 1 16 80)" fill="black"/>
<rect width="5.33333" height="5.33333" transform="matrix(-1 0 0 1 149.333 85.3335)" fill="black"/>
<rect width="5.33333" height="5.33333" transform="matrix(-1 0 0 1 16 85.3335)" fill="black"/>
<rect width="5.33333" height="5.33333" transform="matrix(-1 0 0 1 149.333 90.6667)" fill="black"/>
<rect width="5.33333" height="5.33333" transform="matrix(-1 0 0 1 16 90.6667)" fill="black"/>
<rect x="144" y="69.3335" width="5.33333" height="5.33333" fill="black"/>
<rect x="10.6667" y="69.3335" width="5.33333" height="5.33333" fill="black"/>
<rect x="144" y="74.6667" width="5.33333" height="5.33333" fill="black"/>
<rect x="10.6667" y="74.6667" width="5.33333" height="5.33333" fill="black"/>
<rect x="144" y="96" width="5.33333" height="5.33333" fill="black"/>
<rect x="10.6667" y="96" width="5.33333" height="5.33333" fill="black"/>
<rect x="144" y="101.333" width="5.33333" height="5.33333" fill="black"/>
<rect x="10.6667" y="101.333" width="5.33333" height="5.33333" fill="black"/>
<rect width="5.33333" height="5.33333" transform="matrix(-1 0 0 1 144 58.6667)" fill="black"/>
<rect width="5.33333" height="5.33333" transform="matrix(-1 0 0 1 144 64)" fill="black"/>
<rect width="5.33333" height="5.33333" transform="matrix(-1 0 0 1 21.3333 58.6667)" fill="black"/>
<rect width="5.33333" height="5.33333" transform="matrix(-1 0 0 1 21.3333 53.3335)" fill="black"/>
<rect width="5.33333" height="5.33333" transform="matrix(-1 0 0 1 26.6667 48)" fill="black"/>
<rect width="5.33333" height="5.33333" transform="matrix(-1 0 0 1 32 42.6667)" fill="black"/>
<rect width="5.33333" height="5.33333" transform="matrix(-1 0 0 1 37.3333 37.3335)" fill="black"/>
<rect width="5.33333" height="5.33333" transform="matrix(-1 0 0 1 42.6667 37.3335)" fill="black"/>
<rect width="5.33333" height="5.33333" transform="matrix(-1 0 0 1 48 32)" fill="black"/>
<rect width="5.33333" height="5.33333" transform="matrix(-1 0 0 1 53.3333 32)" fill="black"/>
<rect width="5.33333" height="5.33333" transform="matrix(-1 0 0 1 58.6667 26.6667)" fill="black"/>
<rect width="5.33333" height="5.33333" transform="matrix(-1 0 0 1 64 21.3335)" fill="black"/>
<rect width="5.33333" height="5.33333" transform="matrix(-1 0 0 1 69.3333 21.3335)" fill="black"/>
<rect width="5.33333" height="5.33333" transform="matrix(-1 0 0 1 74.6667 21.3335)" fill="black"/>
<rect width="5.33333" height="5.33333" transform="matrix(-1 0 0 1 80 21.3335)" fill="black"/>
<rect width="5.33333" height="5.33333" transform="matrix(-1 0 0 1 85.3333 21.3335)" fill="black"/>
<rect width="5.33333" height="5.33333" transform="matrix(-1 0 0 1 90.6667 21.3335)" fill="black"/>
<rect width="5.33333" height="5.33333" transform="matrix(-1 0 0 1 96 21.3335)" fill="black"/>
<rect width="5.33333" height="5.33333" transform="matrix(-1 0 0 1 101.333 21.3335)" fill="black"/>
<rect width="5.33333" height="5.33333" transform="matrix(-1 0 0 1 106.667 26.6667)" fill="black"/>
<rect width="5.33333" height="5.33333" transform="matrix(-1 0 0 1 112 32)" fill="black"/>
<rect width="5.33333" height="5.33333" transform="matrix(-1 0 0 1 122.667 37.3335)" fill="black"/>
<rect width="5.33333" height="5.33333" transform="matrix(-1 0 0 1 133.333 42.6667)" fill="black"/>
<rect width="5.33333" height="5.33333" transform="matrix(-1 0 0 1 117.333 32)" fill="black"/>
<rect width="5.33333" height="5.33333" transform="matrix(-1 0 0 1 128 37.3335)" fill="black"/>
<rect width="5.33333" height="5.33333" transform="matrix(-1 0 0 1 138.667 48)" fill="black"/>
<rect width="5.33333" height="5.33333" transform="matrix(-1 0 0 1 144 53.3335)" fill="black"/>
<rect width="5.33333" height="5.33333" transform="matrix(-1 0 0 1 21.3333 64)" fill="black"/>
<rect x="42.6667" y="122.667" width="5.33333" height="5.33333" fill="#2D3235"/>
<rect x="42.6667" y="117.333" width="5.33333" height="5.33333" fill="#A8A8A8"/>
<rect x="48" y="122.667" width="5.33333" height="5.33333" fill="#2D3235"/>
<rect x="48" y="117.333" width="5.33333" height="5.33333" fill="#A8A8A8"/>
<rect x="53.3333" y="117.333" width="5.33333" height="5.33333" fill="#485255"/>
<rect x="53.3333" y="112" width="5.33333" height="5.33333" fill="#485255"/>
<rect x="48" y="112" width="5.33333" height="5.33333" fill="#485255"/>
<rect x="42.6667" y="112" width="5.33333" height="5.33333" fill="#485255"/>
<rect x="106.667" y="112" width="5.33333" height="5.33333" fill="#485255"/>
<rect x="112" y="112" width="5.33333" height="5.33333" fill="#485255"/>
<rect x="53.3333" y="106.667" width="5.33333" height="5.33333" fill="#2D3235"/>
<rect x="48" y="106.667" width="5.33333" height="5.33333" fill="#2D3235"/>
<rect x="42.6667" y="106.667" width="5.33333" height="5.33333" fill="#485255"/>
<rect x="106.667" y="106.667" width="5.33333" height="5.33333" fill="#2D3235"/>
<rect x="112" y="106.667" width="5.33333" height="5.33333" fill="#485255"/>
<rect x="117.333" y="106.667" width="5.33333" height="5.33333" fill="#485255"/>
<rect x="122.667" y="106.667" width="5.33333" height="5.33333" fill="#485255"/>
<rect x="37.3333" y="106.667" width="5.33333" height="5.33333" fill="#485255"/>
<rect x="32" y="106.667" width="5.33333" height="5.33333" fill="#485255"/>
<rect x="42.6667" y="101.333" width="5.33333" height="5.33333" fill="#2D3235"/>
<rect x="112" y="101.333" width="5.33333" height="5.33333" fill="#2D3235"/>
<rect x="117.333" y="101.333" width="5.33333" height="5.33333" fill="#2D3235"/>
<rect x="122.667" y="101.333" width="5.33333" height="5.33333" fill="#485255"/>
<rect x="37.3333" y="101.333" width="5.33333" height="5.33333" fill="#2D3235"/>
<rect x="32" y="101.333" width="5.33333" height="5.33333" fill="#485255"/>
<rect x="26.6667" y="101.333" width="5.33333" height="5.33333" fill="#485255"/>
<rect x="128" y="101.333" width="5.33333" height="5.33333" fill="#485255"/>
<rect x="122.667" y="96" width="5.33333" height="5.33333" fill="#2D3235"/>
<rect x="32" y="96" width="5.33333" height="5.33333" fill="#2D3235"/>
<rect x="26.6667" y="96" width="5.33333" height="5.33333" fill="#2D3235"/>
<rect x="128" y="96" width="5.33333" height="5.33333" fill="#2D3235"/>
<rect x="133.333" y="96" width="5.33333" height="5.33333" fill="#485255"/>
<rect x="21.3333" y="96" width="5.33333" height="5.33333" fill="#485255"/>
<rect x="133.333" y="90.6667" width="5.33333" height="5.33333" fill="#2D3235"/>
<rect x="21.3333" y="90.6667" width="5.33333" height="5.33333" fill="#2D3235"/>
<rect x="16" y="90.6667" width="5.33333" height="5.33333" fill="#485255"/>
<rect x="138.667" y="90.6667" width="5.33333" height="5.33333" fill="#485255"/>
<rect x="16" y="85.3335" width="5.33333" height="5.33333" fill="#485255"/>
<rect x="138.667" y="85.3335" width="5.33333" height="5.33333" fill="#2D3235"/>
<rect x="16" y="80" width="5.33333" height="5.33333" fill="#485255"/>
<rect x="138.667" y="80" width="5.33333" height="5.33333" fill="#2D3235"/>
<rect x="16" y="74.6667" width="5.33333" height="5.33333" fill="#485255"/>
<rect x="138.667" y="74.6667" width="5.33333" height="5.33333" fill="#2D3235"/>
<rect x="16" y="69.3335" width="5.33333" height="5.33333" fill="#485255"/>
<rect x="138.667" y="69.3335" width="5.33333" height="5.33333" fill="#2D3235"/>
<rect x="58.6667" y="117.333" width="5.33333" height="5.33333" fill="#485255"/>
<rect x="58.6667" y="112" width="5.33333" height="5.33333" fill="#485255"/>
<rect x="58.6667" y="106.667" width="5.33333" height="5.33333" fill="#2D3235"/>
<rect x="64" y="117.333" width="5.33333" height="5.33333" fill="#485255"/>
<rect x="64" y="112" width="5.33333" height="5.33333" fill="#485255"/>
<rect x="64" y="106.667" width="5.33333" height="5.33333" fill="#2D3235"/>
<rect x="69.3333" y="117.333" width="5.33333" height="5.33333" fill="#485255"/>
<rect x="69.3333" y="112" width="5.33333" height="5.33333" fill="#485255"/>
<rect x="69.3333" y="106.667" width="5.33333" height="5.33333" fill="#2D3235"/>
<rect x="74.6667" y="117.333" width="5.33333" height="5.33333" fill="#485255"/>
<rect x="74.6667" y="112" width="5.33333" height="5.33333" fill="#485255"/>
<rect x="74.6667" y="106.667" width="5.33333" height="5.33333" fill="#2D3235"/>
<rect x="80" y="117.333" width="5.33333" height="5.33333" fill="#485255"/>
<rect x="80" y="112" width="5.33333" height="5.33333" fill="#485255"/>
<rect x="80" y="106.667" width="5.33333" height="5.33333" fill="#2D3235"/>
<rect x="85.3333" y="117.333" width="5.33333" height="5.33333" fill="#485255"/>
<rect x="85.3333" y="112" width="5.33333" height="5.33333" fill="#485255"/>
<rect x="85.3333" y="106.667" width="5.33333" height="5.33333" fill="#2D3235"/>
<rect x="90.6667" y="117.333" width="5.33333" height="5.33333" fill="#485255"/>
<rect x="90.6667" y="112" width="5.33333" height="5.33333" fill="#485255"/>
<rect x="90.6667" y="106.667" width="5.33333" height="5.33333" fill="#2D3235"/>
<rect x="96" y="117.333" width="5.33333" height="5.33333" fill="#485255"/>
<rect x="96" y="112" width="5.33333" height="5.33333" fill="#485255"/>
<rect x="96" y="106.667" width="5.33333" height="5.33333" fill="#2D3235"/>
<rect x="101.333" y="117.333" width="5.33333" height="5.33333" fill="#485255"/>
<rect x="101.333" y="112" width="5.33333" height="5.33333" fill="#485255"/>
<rect x="101.333" y="106.667" width="5.33333" height="5.33333" fill="#2D3235"/>
<rect x="53.3333" y="128" width="5.33333" height="5.33333" fill="#2D3235"/>
<rect x="53.3333" y="122.667" width="5.33333" height="5.33333" fill="#A8A8A8"/>
<rect x="64" y="128" width="5.33333" height="5.33333" fill="#2D3235"/>
<rect x="64" y="122.667" width="5.33333" height="5.33333" fill="#A8A8A8"/>
<rect x="74.6667" y="128" width="5.33333" height="5.33333" fill="#2D3235"/>
<rect x="74.6667" y="122.667" width="5.33333" height="5.33333" fill="#A8A8A8"/>
<rect x="85.3333" y="128" width="5.33333" height="5.33333" fill="#2D3235"/>
<rect x="85.3333" y="122.667" width="5.33333" height="5.33333" fill="#A8A8A8"/>
<rect x="96" y="128" width="5.33333" height="5.33333" fill="#2D3235"/>
<rect x="96" y="122.667" width="5.33333" height="5.33333" fill="#A8A8A8"/>
<rect x="106.667" y="122.667" width="5.33333" height="5.33333" fill="#2D3235"/>
<rect x="106.667" y="117.333" width="5.33333" height="5.33333" fill="#A8A8A8"/>
<rect x="117.333" y="117.333" width="5.33333" height="5.33333" fill="#2D3235"/>
<rect x="117.333" y="112" width="5.33333" height="5.33333" fill="#A8A8A8"/>
<rect x="32" y="117.333" width="5.33333" height="5.33333" fill="#2D3235"/>
<rect x="32" y="112" width="5.33333" height="5.33333" fill="#A8A8A8"/>
<rect x="26.6667" y="112" width="5.33333" height="5.33333" fill="#2D3235"/>
<rect x="26.6667" y="106.667" width="5.33333" height="5.33333" fill="#A8A8A8"/>
<rect x="21.3333" y="106.667" width="5.33333" height="5.33333" fill="#2D3235"/>
<rect x="21.3333" y="101.333" width="5.33333" height="5.33333" fill="#A8A8A8"/>
<rect x="16" y="101.333" width="5.33333" height="5.33333" fill="#2D3235"/>
<rect x="16" y="96" width="5.33333" height="5.33333" fill="#A8A8A8"/>
<rect x="58.6667" y="128" width="5.33333" height="5.33333" fill="#2D3235"/>
<rect x="58.6667" y="122.667" width="5.33333" height="5.33333" fill="#A8A8A8"/>
<rect x="69.3333" y="128" width="5.33333" height="5.33333" fill="#2D3235"/>
<rect x="69.3333" y="122.667" width="5.33333" height="5.33333" fill="#A8A8A8"/>
<rect x="80" y="128" width="5.33333" height="5.33333" fill="#2D3235"/>
<rect x="80" y="122.667" width="5.33333" height="5.33333" fill="#A8A8A8"/>
<rect x="90.6667" y="128" width="5.33333" height="5.33333" fill="#2D3235"/>
<rect x="90.6667" y="122.667" width="5.33333" height="5.33333" fill="#A8A8A8"/>
<rect x="101.333" y="128" width="5.33333" height="5.33333" fill="#2D3235"/>
<rect x="101.333" y="122.667" width="5.33333" height="5.33333" fill="#A8A8A8"/>
<rect x="112" y="122.667" width="5.33333" height="5.33333" fill="#2D3235"/>
<rect x="112" y="117.333" width="5.33333" height="5.33333" fill="#A8A8A8"/>
<rect x="122.667" y="117.333" width="5.33333" height="5.33333" fill="#2D3235"/>
<rect x="122.667" y="112" width="5.33333" height="5.33333" fill="#A8A8A8"/>
<rect x="128" y="112" width="5.33333" height="5.33333" fill="#2D3235"/>
<rect x="128" y="106.667" width="5.33333" height="5.33333" fill="#A8A8A8"/>
<rect x="133.333" y="106.667" width="5.33333" height="5.33333" fill="#2D3235"/>
<rect x="133.333" y="101.333" width="5.33333" height="5.33333" fill="#A8A8A8"/>
<rect x="138.667" y="101.333" width="5.33333" height="5.33333" fill="#2D3235"/>
<rect x="138.667" y="96" width="5.33333" height="5.33333" fill="#A8A8A8"/>
<rect x="37.3333" y="117.333" width="5.33333" height="5.33333" fill="#2D3235"/>
<rect x="37.3333" y="112" width="5.33333" height="5.33333" fill="#A8A8A8"/>
<rect x="26.6667" y="58.6667" width="5.33333" height="5.33333" transform="rotate(180 26.6667 58.6667)" fill="#91BA4A"/>
<rect x="32" y="74.6667" width="5.33333" height="5.33333" transform="rotate(180 32 74.6667)" fill="#91BA4A"/>
<rect x="32" y="69.3335" width="5.33333" height="5.33333" transform="rotate(180 32 69.3335)" fill="#91BA4A"/>
<rect x="26.6667" y="90.6667" width="5.33333" height="5.33333" transform="rotate(180 26.6667 90.6667)" fill="#91BA4A"/>
<rect x="32" y="90.6667" width="5.33333" height="5.33333" transform="rotate(180 32 90.6667)" fill="#91BA4A"/>
<rect x="32" y="96" width="5.33333" height="5.33333" transform="rotate(180 32 96)" fill="#91BA4A"/>
<rect x="32" y="53.3335" width="5.33333" height="5.33333" transform="rotate(180 32 53.3335)" fill="#91BA4A"/>
<rect x="48" y="48" width="5.33333" height="5.33333" transform="rotate(180 48 48)" fill="#91BA4A"/>
<rect x="32" y="58.6667" width="5.33333" height="5.33333" transform="rotate(180 32 58.6667)" fill="#91BA4A"/>
<rect x="32" y="64" width="5.33333" height="5.33333" transform="rotate(180 32 64)" fill="#89AD6A"/>
<rect x="26.6667" y="80" width="5.33333" height="5.33333" transform="rotate(180 26.6667 80)" fill="#89AD6A"/>
<rect x="37.3333" y="96" width="5.33333" height="5.33333" transform="rotate(180 37.3333 96)" fill="#89AD6A"/>
<rect x="26.6667" y="85.3335" width="5.33333" height="5.33333" transform="rotate(180 26.6667 85.3335)" fill="#89AD6A"/>
<rect x="26.6667" y="69.3335" width="5.33333" height="5.33333" transform="rotate(180 26.6667 69.3335)" fill="#89AD6A"/>
<rect x="37.3333" y="48" width="5.33333" height="5.33333" transform="rotate(180 37.3333 48)" fill="#91BA4A"/>
<rect x="37.3333" y="53.3335" width="5.33333" height="5.33333" transform="rotate(180 37.3333 53.3335)" fill="#89AD6A"/>
<rect x="48" y="42.6667" width="5.33333" height="5.33333" transform="rotate(180 48 42.6667)" fill="#89AD6A"/>
<rect x="53.3333" y="42.6667" width="5.33333" height="5.33333" transform="rotate(180 53.3333 42.6667)" fill="#D53E00"/>
<rect x="48" y="64" width="5.33333" height="5.33333" transform="rotate(180 48 64)" fill="#D53E00"/>
<rect x="64" y="42.6667" width="5.33333" height="5.33333" transform="rotate(180 64 42.6667)" fill="#D53E00"/>
<rect x="74.6667" y="37.3335" width="5.33333" height="5.33333" transform="rotate(180 74.6667 37.3335)" fill="#D53E00"/>
<rect x="69.3333" y="32" width="5.33333" height="5.33333" transform="rotate(180 69.3333 32)" fill="#D53E00"/>
<rect x="64" y="48" width="5.33333" height="5.33333" transform="rotate(180 64 48)" fill="#D53E00"/>
<rect x="48" y="58.6667" width="5.33333" height="5.33333" transform="rotate(180 48 58.6667)" fill="#D53E00"/>
<rect x="58.6667" y="74.6667" width="5.33333" height="5.33333" transform="rotate(180 58.6667 74.6667)" fill="#D53E00"/>
<rect x="48" y="85.3335" width="5.33333" height="5.33333" transform="rotate(180 48 85.3335)" fill="#D53E00"/>
<rect x="48" y="90.6667" width="5.33333" height="5.33333" transform="rotate(180 48 90.6667)" fill="#D53E00"/>
<rect x="42.6667" y="101.333" width="5.33333" height="5.33333" transform="rotate(180 42.6667 101.333)" fill="#D53E00"/>
<rect x="53.3333" y="85.3335" width="5.33333" height="5.33333" transform="rotate(180 53.3333 85.3335)" fill="#D53E00"/>
<rect x="64" y="85.3335" width="5.33333" height="5.33333" transform="rotate(180 64 85.3335)" fill="#D53E00"/>
<rect x="69.3333" y="80" width="5.33333" height="5.33333" transform="rotate(180 69.3333 80)" fill="#D53E00"/>
<rect x="58.6667" y="106.667" width="5.33333" height="5.33333" transform="rotate(180 58.6667 106.667)" fill="#D53E00"/>
<rect x="64" y="106.667" width="5.33333" height="5.33333" transform="rotate(180 64 106.667)" fill="#FFE8B8"/>
<rect x="69.3333" y="101.333" width="5.33333" height="5.33333" transform="rotate(180 69.3333 101.333)" fill="#FDFEF7"/>
<rect x="74.6667" y="96" width="5.33333" height="5.33333" transform="rotate(180 74.6667 96)" fill="#FDFEF7"/>
<rect x="80" y="96" width="5.33333" height="5.33333" transform="rotate(180 80 96)" fill="#ECE7DB"/>
<rect x="85.3333" y="96" width="5.33333" height="5.33333" transform="rotate(180 85.3333 96)" fill="#FDFEF7"/>
<rect x="90.6667" y="96" width="5.33333" height="5.33333" transform="rotate(180 90.6667 96)" fill="#FDFEF7"/>
<rect x="96" y="96" width="5.33333" height="5.33333" transform="rotate(180 96 96)" fill="#FDFEF7"/>
<rect x="101.333" y="96" width="5.33333" height="5.33333" transform="rotate(180 101.333 96)" fill="#FDFEF7"/>
<rect x="106.667" y="96" width="5.33333" height="5.33333" transform="rotate(180 106.667 96)" fill="#FDFEF7"/>
<rect x="112" y="96" width="5.33333" height="5.33333" transform="rotate(180 112 96)" fill="#FDFEF7"/>
<rect x="117.333" y="90.6667" width="5.33333" height="5.33333" transform="rotate(180 117.333 90.6667)" fill="#FDFEF7"/>
<rect x="122.667" y="90.6667" width="5.33333" height="5.33333" transform="rotate(180 122.667 90.6667)" fill="#FDFEF7"/>
<rect x="128" y="85.3335" width="5.33333" height="5.33333" transform="rotate(180 128 85.3335)" fill="#FDFEF7"/>
<rect x="133.333" y="85.3335" width="5.33333" height="5.33333" transform="rotate(180 133.333 85.3335)" fill="#FDFEF7"/>
<rect x="138.667" y="85.3335" width="5.33333" height="5.33333" transform="rotate(180 138.667 85.3335)" fill="#91BA4A"/>
<rect x="74.6667" y="90.6667" width="5.33333" height="5.33333" transform="rotate(180 74.6667 90.6667)" fill="#FDFEF7"/>
<rect x="80" y="90.6667" width="5.33333" height="5.33333" transform="rotate(180 80 90.6667)" fill="#FDFEF7"/>
<rect x="85.3333" y="90.6667" width="5.33333" height="5.33333" transform="rotate(180 85.3333 90.6667)" fill="#FDFEF7"/>
<rect x="90.6667" y="90.6667" width="5.33333" height="5.33333" transform="rotate(180 90.6667 90.6667)" fill="#FDFEF7"/>
<rect x="96" y="90.6667" width="5.33333" height="5.33333" transform="rotate(180 96 90.6667)" fill="#FDFEF7"/>
<rect x="101.333" y="90.6667" width="5.33333" height="5.33333" transform="rotate(180 101.333 90.6667)" fill="#FDFEF7"/>
<rect x="106.667" y="90.6667" width="5.33333" height="5.33333" transform="rotate(180 106.667 90.6667)" fill="#FDFEF7"/>
<rect x="112" y="90.6667" width="5.33333" height="5.33333" transform="rotate(180 112 90.6667)" fill="#ECE7DB"/>
<rect x="117.333" y="85.3335" width="5.33333" height="5.33333" transform="rotate(180 117.333 85.3335)" fill="#FDFEF7"/>
<rect x="122.667" y="85.3335" width="5.33333" height="5.33333" transform="rotate(180 122.667 85.3335)" fill="#FDFEF7"/>
<rect x="128" y="80" width="5.33333" height="5.33333" transform="rotate(180 128 80)" fill="#FDFEF7"/>
<rect x="133.333" y="80" width="5.33333" height="5.33333" transform="rotate(180 133.333 80)" fill="#FDFEF7"/>
<rect x="138.667" y="80" width="5.33333" height="5.33333" transform="rotate(180 138.667 80)" fill="#7D9512"/>
<rect x="74.6667" y="85.3335" width="5.33333" height="5.33333" transform="rotate(180 74.6667 85.3335)" fill="#FDFEF7"/>
<rect x="80" y="85.3335" width="5.33333" height="5.33333" transform="rotate(180 80 85.3335)" fill="#FDFEF7"/>
<rect x="85.3333" y="85.3335" width="5.33333" height="5.33333" transform="rotate(180 85.3333 85.3335)" fill="#FDFEF7"/>
<rect x="90.6667" y="85.3335" width="5.33333" height="5.33333" transform="rotate(180 90.6667 85.3335)" fill="#FDFEF7"/>
<rect x="96" y="85.3335" width="5.33333" height="5.33333" transform="rotate(180 96 85.3335)" fill="#ECE7DB"/>
<rect x="101.333" y="85.3335" width="5.33333" height="5.33333" transform="rotate(180 101.333 85.3335)" fill="#FDFEF7"/>
<rect x="106.667" y="85.3335" width="5.33333" height="5.33333" transform="rotate(180 106.667 85.3335)" fill="#FDFEF7"/>
<rect x="112" y="85.3335" width="5.33333" height="5.33333" transform="rotate(180 112 85.3335)" fill="#FDFEF7"/>
<rect x="117.333" y="80" width="5.33333" height="5.33333" transform="rotate(180 117.333 80)" fill="#FDFEF7"/>
<rect x="122.667" y="80" width="5.33333" height="5.33333" transform="rotate(180 122.667 80)" fill="#ECE7DB"/>
<rect x="128" y="74.6667" width="5.33333" height="5.33333" transform="rotate(180 128 74.6667)" fill="#FDFEF7"/>
<rect x="133.333" y="74.6667" width="5.33333" height="5.33333" transform="rotate(180 133.333 74.6667)" fill="#FDFEF7"/>
<rect x="138.667" y="74.6667" width="5.33333" height="5.33333" transform="rotate(180 138.667 74.6667)" fill="#FDFEF7"/>
<rect x="74.6667" y="80" width="5.33333" height="5.33333" transform="rotate(180 74.6667 80)" fill="#FFE8B8"/>
<rect x="80" y="80" width="5.33333" height="5.33333" transform="rotate(180 80 80)" fill="#FDFEF7"/>
<rect x="85.3333" y="80" width="5.33333" height="5.33333" transform="rotate(180 85.3333 80)" fill="#FDFEF7"/>
<rect x="90.6667" y="80" width="5.33333" height="5.33333" transform="rotate(180 90.6667 80)" fill="#FDFEF7"/>
<rect x="96" y="80" width="5.33333" height="5.33333" transform="rotate(180 96 80)" fill="#FDFEF7"/>
<rect x="101.333" y="80" width="5.33333" height="5.33333" transform="rotate(180 101.333 80)" fill="#FDFEF7"/>
<rect x="106.667" y="80" width="5.33333" height="5.33333" transform="rotate(180 106.667 80)" fill="#FDFEF7"/>
<rect x="112" y="80" width="5.33333" height="5.33333" transform="rotate(180 112 80)" fill="#FDFEF7"/>
<rect x="117.333" y="74.6667" width="5.33333" height="5.33333" transform="rotate(180 117.333 74.6667)" fill="#FDFEF7"/>
<rect x="122.667" y="74.6667" width="5.33333" height="5.33333" transform="rotate(180 122.667 74.6667)" fill="#FDFEF7"/>
<rect x="128" y="69.3335" width="5.33333" height="5.33333" transform="rotate(180 128 69.3335)" fill="#FDFEF7"/>
<rect x="133.333" y="69.3335" width="5.33333" height="5.33333" transform="rotate(180 133.333 69.3335)" fill="#FDFEF7"/>
<rect x="138.667" y="69.3335" width="5.33333" height="5.33333" transform="rotate(180 138.667 69.3335)" fill="#FDFEF7"/>
<rect x="74.6667" y="74.6667" width="5.33333" height="5.33333" transform="rotate(180 74.6667 74.6667)" fill="#FFE8B8"/>
<rect x="80" y="74.6667" width="5.33333" height="5.33333" transform="rotate(180 80 74.6667)" fill="#FDFEF7"/>
<rect x="85.3333" y="74.6667" width="5.33333" height="5.33333" transform="rotate(180 85.3333 74.6667)" fill="#FDFEF7"/>
<rect x="90.6667" y="74.6667" width="5.33333" height="5.33333" transform="rotate(180 90.6667 74.6667)" fill="#FDFEF7"/>
<rect x="96" y="74.6667" width="5.33333" height="5.33333" transform="rotate(180 96 74.6667)" fill="#FDFEF7"/>
<rect x="101.333" y="74.6667" width="5.33333" height="5.33333" transform="rotate(180 101.333 74.6667)" fill="#FDFEF7"/>
<rect x="106.667" y="74.6667" width="5.33333" height="5.33333" transform="rotate(180 106.667 74.6667)" fill="#ECE7DB"/>
<rect x="112" y="74.6667" width="5.33333" height="5.33333" transform="rotate(180 112 74.6667)" fill="#FDFEF7"/>
<rect x="117.333" y="69.3335" width="5.33333" height="5.33333" transform="rotate(180 117.333 69.3335)" fill="#FDFEF7"/>
<rect x="122.667" y="69.3335" width="5.33333" height="5.33333" transform="rotate(180 122.667 69.3335)" fill="#FDFEF7"/>
<rect x="128" y="64" width="5.33333" height="5.33333" transform="rotate(180 128 64)" fill="#FDFEF7"/>
<rect x="133.333" y="64" width="5.33333" height="5.33333" transform="rotate(180 133.333 64)" fill="#ECE7DB"/>
<rect x="138.667" y="64" width="5.33333" height="5.33333" transform="rotate(180 138.667 64)" fill="#FDFEF7"/>
<rect x="80" y="69.3335" width="5.33333" height="5.33333" transform="rotate(180 80 69.3335)" fill="#FFE8B8"/>
<rect x="85.3333" y="69.3335" width="5.33333" height="5.33333" transform="rotate(180 85.3333 69.3335)" fill="#FDFEF7"/>
<rect x="90.6667" y="69.3335" width="5.33333" height="5.33333" transform="rotate(180 90.6667 69.3335)" fill="#ECE7DB"/>
<rect x="96" y="69.3335" width="5.33333" height="5.33333" transform="rotate(180 96 69.3335)" fill="#FDFEF7"/>
<rect x="101.333" y="69.3335" width="5.33333" height="5.33333" transform="rotate(180 101.333 69.3335)" fill="#FDFEF7"/>
<rect x="106.667" y="69.3335" width="5.33333" height="5.33333" transform="rotate(180 106.667 69.3335)" fill="#FDFEF7"/>
<rect x="112" y="69.3335" width="5.33333" height="5.33333" transform="rotate(180 112 69.3335)" fill="#FDFEF7"/>
<rect x="117.333" y="64" width="5.33333" height="5.33333" transform="rotate(180 117.333 64)" fill="#FDFEF7"/>
<rect x="122.667" y="64" width="5.33333" height="5.33333" transform="rotate(180 122.667 64)" fill="#FDFEF7"/>
<rect x="122.667" y="58.6667" width="5.33333" height="5.33333" transform="rotate(180 122.667 58.6667)" fill="#ECE7DB"/>
<rect x="117.333" y="58.6667" width="5.33333" height="5.33333" transform="rotate(180 117.333 58.6667)" fill="#FDFEF7"/>
<rect x="112" y="58.6667" width="5.33333" height="5.33333" transform="rotate(180 112 58.6667)" fill="#FDFEF7"/>
<rect x="112" y="64" width="5.33333" height="5.33333" transform="rotate(180 112 64)" fill="#ECE7DB"/>
<rect x="106.667" y="58.6667" width="5.33333" height="5.33333" transform="rotate(180 106.667 58.6667)" fill="#FDFEF7"/>
<rect x="106.667" y="64" width="5.33333" height="5.33333" transform="rotate(180 106.667 64)" fill="#FDFEF7"/>
<rect x="101.333" y="58.6667" width="5.33333" height="5.33333" transform="rotate(180 101.333 58.6667)" fill="#FDFEF7"/>
<rect x="101.333" y="64" width="5.33333" height="5.33333" transform="rotate(180 101.333 64)" fill="#FDFEF7"/>
<rect x="96" y="58.6667" width="5.33333" height="5.33333" transform="rotate(180 96 58.6667)" fill="#FDFEF7"/>
<rect x="96" y="64" width="5.33333" height="5.33333" transform="rotate(180 96 64)" fill="#FDFEF7"/>
<rect x="90.6667" y="58.6667" width="5.33333" height="5.33333" transform="rotate(180 90.6667 58.6667)" fill="#FDFEF7"/>
<rect x="90.6667" y="64" width="5.33333" height="5.33333" transform="rotate(180 90.6667 64)" fill="#FDFEF7"/>
<rect x="85.3333" y="58.6667" width="5.33333" height="5.33333" transform="rotate(180 85.3333 58.6667)" fill="#FFE8B8"/>
<rect x="85.3333" y="64" width="5.33333" height="5.33333" transform="rotate(180 85.3333 64)" fill="#FDFEF7"/>
<rect x="122.667" y="53.3335" width="5.33333" height="5.33333" transform="rotate(180 122.667 53.3335)" fill="#FDFEF7"/>
<rect x="117.333" y="53.3335" width="5.33333" height="5.33333" transform="rotate(180 117.333 53.3335)" fill="#FDFEF7"/>
<rect x="112" y="53.3335" width="5.33333" height="5.33333" transform="rotate(180 112 53.3335)" fill="#FDFEF7"/>
<rect x="106.667" y="53.3335" width="5.33333" height="5.33333" transform="rotate(180 106.667 53.3335)" fill="#ECE7DB"/>
<rect x="101.333" y="53.3335" width="5.33333" height="5.33333" transform="rotate(180 101.333 53.3335)" fill="#ECE7DB"/>
<rect x="96" y="53.3335" width="5.33333" height="5.33333" transform="rotate(180 96 53.3335)" fill="#FDFEF7"/>
<rect x="90.6667" y="53.3335" width="5.33333" height="5.33333" transform="rotate(180 90.6667 53.3335)" fill="#FDFEF7"/>
<rect x="85.3333" y="53.3335" width="5.33333" height="5.33333" transform="rotate(180 85.3333 53.3335)" fill="#FFE8B8"/>
<rect x="122.667" y="48" width="5.33333" height="5.33333" transform="rotate(180 122.667 48)" fill="#FDFEF7"/>
<rect x="117.333" y="48" width="5.33333" height="5.33333" transform="rotate(180 117.333 48)" fill="#FDFEF7"/>
<rect x="117.333" y="42.6667" width="5.33333" height="5.33333" transform="rotate(180 117.333 42.6667)" fill="#FDFEF7"/>
<rect x="112" y="48" width="5.33333" height="5.33333" transform="rotate(180 112 48)" fill="#FDFEF7"/>
<rect x="112" y="42.6667" width="5.33333" height="5.33333" transform="rotate(180 112 42.6667)" fill="#FDFEF7"/>
<rect x="106.667" y="48" width="5.33333" height="5.33333" transform="rotate(180 106.667 48)" fill="#FDFEF7"/>
<rect x="106.667" y="42.6667" width="5.33333" height="5.33333" transform="rotate(180 106.667 42.6667)" fill="#FDFEF7"/>
<rect x="106.667" y="37.3335" width="5.33333" height="5.33333" transform="rotate(180 106.667 37.3335)" fill="#FFE8B8"/>
<rect x="101.333" y="48" width="5.33333" height="5.33333" transform="rotate(180 101.333 48)" fill="#FDFEF7"/>
<rect x="101.333" y="42.6667" width="5.33333" height="5.33333" transform="rotate(180 101.333 42.6667)" fill="#FFE8B8"/>
<rect x="96" y="48" width="5.33333" height="5.33333" transform="rotate(180 96 48)" fill="#FFE8B8"/>
<rect x="90.6667" y="48" width="5.33333" height="5.33333" transform="rotate(180 90.6667 48)" fill="#FFE8B8"/>
<rect x="128" y="58.6667" width="5.33333" height="5.33333" transform="rotate(180 128 58.6667)" fill="#FDFEF7"/>
<rect x="133.333" y="58.6667" width="5.33333" height="5.33333" transform="rotate(180 133.333 58.6667)" fill="#FDFEF7"/>
<rect x="133.333" y="53.3335" width="5.33333" height="5.33333" transform="rotate(180 133.333 53.3335)" fill="#FDFEF7"/>
<rect x="128" y="53.3335" width="5.33333" height="5.33333" transform="rotate(180 128 53.3335)" fill="#FDFEF7"/>
<rect x="128" y="48" width="5.33333" height="5.33333" transform="rotate(180 128 48)" fill="#FDFEF7"/>
<rect x="138.667" y="58.6667" width="5.33333" height="5.33333" transform="rotate(180 138.667 58.6667)" fill="#FDFEF7"/>
<rect x="74.6667" y="101.333" width="5.33333" height="5.33333" transform="rotate(180 74.6667 101.333)" fill="#FDFEF7"/>
<rect x="80" y="101.333" width="5.33333" height="5.33333" transform="rotate(180 80 101.333)" fill="#FDFEF7"/>
<rect x="85.3333" y="101.333" width="5.33333" height="5.33333" transform="rotate(180 85.3333 101.333)" fill="#FDFEF7"/>
<rect x="90.6667" y="101.333" width="5.33333" height="5.33333" transform="rotate(180 90.6667 101.333)" fill="#FDFEF7"/>
<rect x="96" y="101.333" width="5.33333" height="5.33333" transform="rotate(180 96 101.333)" fill="#FDFEF7"/>
<rect x="101.333" y="101.333" width="5.33333" height="5.33333" transform="rotate(180 101.333 101.333)" fill="#ECE7DB"/>
<rect x="106.667" y="101.333" width="5.33333" height="5.33333" transform="rotate(180 106.667 101.333)" fill="#FDFEF7"/>
<rect x="112" y="101.333" width="5.33333" height="5.33333" transform="rotate(180 112 101.333)" fill="#FDFEF7"/>
<rect x="117.333" y="96" width="5.33333" height="5.33333" transform="rotate(180 117.333 96)" fill="#FDFEF7"/>
<rect x="122.667" y="96" width="5.33333" height="5.33333" transform="rotate(180 122.667 96)" fill="#FDFEF7"/>
<rect x="128" y="90.6667" width="5.33333" height="5.33333" transform="rotate(180 128 90.6667)" fill="#FDFEF7"/>
<rect x="133.333" y="90.6667" width="5.33333" height="5.33333" transform="rotate(180 133.333 90.6667)" fill="#8AAF66"/>
<rect x="138.667" y="90.6667" width="5.33333" height="5.33333" transform="rotate(180 138.667 90.6667)" fill="#91BA4A"/>
<rect x="74.6667" y="106.667" width="5.33333" height="5.33333" transform="rotate(180 74.6667 106.667)" fill="#ECE7DB"/>
<rect x="80" y="106.667" width="5.33333" height="5.33333" transform="rotate(180 80 106.667)" fill="#FDFEF7"/>
<rect x="85.3333" y="106.667" width="5.33333" height="5.33333" transform="rotate(180 85.3333 106.667)" fill="#FDFEF7"/>
<rect x="90.6667" y="106.667" width="5.33333" height="5.33333" transform="rotate(180 90.6667 106.667)" fill="#FDFEF7"/>
<rect x="96" y="106.667" width="5.33333" height="5.33333" transform="rotate(180 96 106.667)" fill="#FDFEF7"/>
<rect x="101.333" y="106.667" width="5.33333" height="5.33333" transform="rotate(180 101.333 106.667)" fill="#FDFEF7"/>
<rect x="106.667" y="106.667" width="5.33333" height="5.33333" transform="rotate(180 106.667 106.667)" fill="#FDFEF7"/>
<rect x="112" y="106.667" width="5.33333" height="5.33333" transform="rotate(180 112 106.667)" fill="#FDFEF7"/>
<rect x="117.333" y="101.333" width="5.33333" height="5.33333" transform="rotate(180 117.333 101.333)" fill="#FDFEF7"/>
<rect x="122.667" y="101.333" width="5.33333" height="5.33333" transform="rotate(180 122.667 101.333)" fill="#8AAF66"/>
<rect x="128" y="96" width="5.33333" height="5.33333" transform="rotate(180 128 96)" fill="#8AAF66"/>
<rect x="133.333" y="96" width="5.33333" height="5.33333" transform="rotate(180 133.333 96)" fill="#7D9512"/>
<rect x="69.3333" y="96" width="5.33333" height="5.33333" transform="rotate(180 69.3333 96)" fill="#FFE8B8"/>
<rect x="69.3333" y="90.6667" width="5.33333" height="5.33333" transform="rotate(180 69.3333 90.6667)" fill="#FFE8B8"/>
<rect x="69.3333" y="106.667" width="5.33333" height="5.33333" transform="rotate(180 69.3333 106.667)" fill="#FDFEF7"/>
<rect x="64" y="101.333" width="5.33333" height="5.33333" transform="rotate(180 64 101.333)" fill="#D53E00"/>
<rect x="64" y="96" width="5.33333" height="5.33333" transform="rotate(180 64 96)" fill="#D53E00"/>
<rect x="58.6667" y="69.3335" width="5.33333" height="5.33333" transform="rotate(180 58.6667 69.3335)" fill="#D53E00"/>
<rect x="69.3333" y="64" width="5.33333" height="5.33333" transform="rotate(180 69.3333 64)" fill="#D53E00"/>
<rect x="69.3333" y="48" width="5.33333" height="5.33333" transform="rotate(180 69.3333 48)" fill="#D53E00"/>
<rect x="74.6667" y="53.3335" width="5.33333" height="5.33333" transform="rotate(180 74.6667 53.3335)" fill="#D53E00"/>
<rect x="74.6667" y="58.6667" width="5.33333" height="5.33333" transform="rotate(180 74.6667 58.6667)" fill="#D53E00"/>
<rect x="80" y="53.3335" width="5.33333" height="5.33333" transform="rotate(180 80 53.3335)" fill="#D53E00"/>
<rect x="80" y="37.3335" width="5.33333" height="5.33333" transform="rotate(180 80 37.3335)" fill="#D53E00"/>
<rect x="90.6667" y="37.3335" width="5.33333" height="5.33333" transform="rotate(180 90.6667 37.3335)" fill="#D53E00"/>
<rect x="96" y="32" width="5.33333" height="5.33333" transform="rotate(180 96 32)" fill="#D53E00"/>
<rect x="101.333" y="32" width="5.33333" height="5.33333" transform="rotate(180 101.333 32)" fill="#D53E00"/>
<rect x="96" y="37.3335" width="5.33333" height="5.33333" transform="rotate(180 96 37.3335)" fill="#D53E00"/>
<rect x="42.6667" y="69.3335" width="5.33333" height="5.33333" transform="rotate(180 42.6667 69.3335)" fill="#D53E00"/>
<rect x="42.6667" y="74.6667" width="5.33333" height="5.33333" transform="rotate(180 42.6667 74.6667)" fill="#D53E00"/>
<rect x="37.3333" y="80" width="5.33333" height="5.33333" transform="rotate(180 37.3333 80)" fill="#D53E00"/>
<rect x="53.3333" y="58.6667" width="5.33333" height="5.33333" transform="rotate(180 53.3333 58.6667)" fill="#D53E00"/>
<rect x="53.3333" y="48" width="5.33333" height="5.33333" transform="rotate(180 53.3333 48)" fill="#BA3500"/>
<rect x="58.6667" y="42.6667" width="5.33333" height="5.33333" transform="rotate(180 58.6667 42.6667)" fill="#BA3500"/>
<rect x="64" y="37.3335" width="5.33333" height="5.33333" transform="rotate(180 64 37.3335)" fill="#BA3500"/>
<rect x="64" y="32" width="5.33333" height="5.33333" transform="rotate(180 64 32)" fill="#BA3500"/>
<rect x="58.6667" y="48" width="5.33333" height="5.33333" transform="rotate(180 58.6667 48)" fill="#BA3500"/>
<rect x="53.3333" y="53.3335" width="5.33333" height="5.33333" transform="rotate(180 53.3333 53.3335)" fill="#517A4A"/>
<rect x="64" y="69.3335" width="5.33333" height="5.33333" transform="rotate(180 64 69.3335)" fill="#517A4A"/>
<rect x="42.6667" y="64" width="5.33333" height="5.33333" transform="rotate(180 42.6667 64)" fill="#517A4A"/>
<rect x="48" y="53.3335" width="5.33333" height="5.33333" transform="rotate(180 48 53.3335)" fill="#BA3500"/>
<rect x="42.6667" y="53.3335" width="5.33333" height="5.33333" transform="rotate(180 42.6667 53.3335)" fill="#BA3500"/>
<rect x="37.3333" y="69.3335" width="5.33333" height="5.33333" transform="rotate(180 37.3333 69.3335)" fill="#BA3500"/>
<rect x="37.3333" y="74.6667" width="5.33333" height="5.33333" transform="rotate(180 37.3333 74.6667)" fill="#BA3500"/>
<rect x="37.3333" y="85.3335" width="5.33333" height="5.33333" transform="rotate(180 37.3333 85.3335)" fill="#BA3500"/>
<rect x="42.6667" y="90.6667" width="5.33333" height="5.33333" transform="rotate(180 42.6667 90.6667)" fill="#BA3500"/>
<rect x="48" y="101.333" width="5.33333" height="5.33333" transform="rotate(180 48 101.333)" fill="#BA3500"/>
<rect x="53.3333" y="106.667" width="5.33333" height="5.33333" transform="rotate(180 53.3333 106.667)" fill="#BA3500"/>
<rect x="48" y="80" width="5.33333" height="5.33333" transform="rotate(180 48 80)" fill="#BA3500"/>
<rect x="53.3333" y="96" width="5.33333" height="5.33333" transform="rotate(180 53.3333 96)" fill="#BA3500"/>
<rect x="58.6667" y="90.6667" width="5.33333" height="5.33333" transform="rotate(180 58.6667 90.6667)" fill="#BA3500"/>
<rect x="58.6667" y="96" width="5.33333" height="5.33333" transform="rotate(180 58.6667 96)" fill="#BA3500"/>
<rect x="53.3333" y="80" width="5.33333" height="5.33333" transform="rotate(180 53.3333 80)" fill="#BA3500"/>
<rect x="53.3333" y="74.6667" width="5.33333" height="5.33333" transform="rotate(180 53.3333 74.6667)" fill="#BA3500"/>
<rect x="53.3333" y="64" width="5.33333" height="5.33333" transform="rotate(180 53.3333 64)" fill="#BA3500"/>
<rect x="58.6667" y="58.6667" width="5.33333" height="5.33333" transform="rotate(180 58.6667 58.6667)" fill="#BA3500"/>
<rect x="69.3333" y="69.3335" width="5.33333" height="5.33333" transform="rotate(180 69.3333 69.3335)" fill="#BA3500"/>
<rect x="80" y="58.6667" width="5.33333" height="5.33333" transform="rotate(180 80 58.6667)" fill="#BA3500"/>
<rect x="80" y="64" width="5.33333" height="5.33333" transform="rotate(180 80 64)" fill="#BA3500"/>
<rect x="64" y="74.6667" width="5.33333" height="5.33333" transform="rotate(180 64 74.6667)" fill="#BA3500"/>
<rect x="64" y="58.6667" width="5.33333" height="5.33333" transform="rotate(180 64 58.6667)" fill="#BA3500"/>
<rect x="69.3333" y="37.3335" width="5.33333" height="5.33333" transform="rotate(180 69.3333 37.3335)" fill="#BA3500"/>
<rect x="74.6667" y="42.6667" width="5.33333" height="5.33333" transform="rotate(180 74.6667 42.6667)" fill="#BA3500"/>
<rect x="90.6667" y="42.6667" width="5.33333" height="5.33333" transform="rotate(180 90.6667 42.6667)" fill="#BA3500"/>
<rect x="101.333" y="37.3335" width="5.33333" height="5.33333" transform="rotate(180 101.333 37.3335)" fill="#BA3500"/>
<rect x="80" y="48" width="5.33333" height="5.33333" transform="rotate(180 80 48)" fill="#BA3500"/>
<rect x="85.3333" y="48" width="5.33333" height="5.33333" transform="rotate(180 85.3333 48)" fill="#BA3500"/>
<rect x="69.3333" y="53.3335" width="5.33333" height="5.33333" transform="rotate(180 69.3333 53.3335)" fill="#BA3500"/>
<rect x="42.6667" y="58.6667" width="5.33333" height="5.33333" transform="rotate(180 42.6667 58.6667)" fill="#EC5617"/>
<rect x="37.3333" y="64" width="5.33333" height="5.33333" transform="rotate(180 37.3333 64)" fill="#EC5617"/>
<rect x="48" y="69.3335" width="5.33333" height="5.33333" transform="rotate(180 48 69.3335)" fill="#EC5617"/>
<rect x="53.3333" y="69.3335" width="5.33333" height="5.33333" transform="rotate(180 53.3333 69.3335)" fill="#EC5617"/>
<rect x="48" y="74.6667" width="5.33333" height="5.33333" transform="rotate(180 48 74.6667)" fill="#EC5617"/>
<rect x="42.6667" y="80" width="5.33333" height="5.33333" transform="rotate(180 42.6667 80)" fill="#EC5617"/>
<rect x="42.6667" y="85.3335" width="5.33333" height="5.33333" transform="rotate(180 42.6667 85.3335)" fill="#EC5617"/>
<rect x="37.3333" y="90.6667" width="5.33333" height="5.33333" transform="rotate(180 37.3333 90.6667)" fill="#EC5617"/>
<rect x="58.6667" y="37.3335" width="5.33333" height="5.33333" transform="rotate(180 58.6667 37.3335)" fill="#EC5617"/>
<rect x="69.3333" y="42.6667" width="5.33333" height="5.33333" transform="rotate(180 69.3333 42.6667)" fill="#EC5617"/>
<rect x="85.3333" y="42.6667" width="5.33333" height="5.33333" transform="rotate(180 85.3333 42.6667)" fill="#EC5617"/>
<rect x="74.6667" y="48" width="5.33333" height="5.33333" transform="rotate(180 74.6667 48)" fill="#EC5617"/>
<rect x="80" y="42.6667" width="5.33333" height="5.33333" transform="rotate(180 80 42.6667)" fill="#EC5617"/>
<rect x="85.3333" y="37.3335" width="5.33333" height="5.33333" transform="rotate(180 85.3333 37.3335)" fill="#EC5617"/>
<rect x="74.6667" y="32" width="5.33333" height="5.33333" transform="rotate(180 74.6667 32)" fill="#EC5617"/>
<rect x="80" y="32" width="5.33333" height="5.33333" transform="rotate(180 80 32)" fill="#EC5617"/>
<rect x="85.3333" y="32" width="5.33333" height="5.33333" transform="rotate(180 85.3333 32)" fill="#BA3500"/>
<rect x="90.6667" y="32" width="5.33333" height="5.33333" transform="rotate(180 90.6667 32)" fill="#EC5617"/>
<rect x="96" y="42.6667" width="5.33333" height="5.33333" transform="rotate(180 96 42.6667)" fill="#EC5617"/>
<rect x="69.3333" y="58.6667" width="5.33333" height="5.33333" transform="rotate(180 69.3333 58.6667)" fill="#EC5617"/>
<rect x="64" y="64" width="5.33333" height="5.33333" transform="rotate(180 64 64)" fill="#EC5617"/>
<rect x="58.6667" y="64" width="5.33333" height="5.33333" transform="rotate(180 58.6667 64)" fill="#EC5617"/>
<rect x="58.6667" y="80" width="5.33333" height="5.33333" transform="rotate(180 58.6667 80)" fill="#EC5617"/>
<rect x="64" y="80" width="5.33333" height="5.33333" transform="rotate(180 64 80)" fill="#EC5617"/>
<rect x="58.6667" y="85.3335" width="5.33333" height="5.33333" transform="rotate(180 58.6667 85.3335)" fill="#EC5617"/>
<rect x="53.3333" y="90.6667" width="5.33333" height="5.33333" transform="rotate(180 53.3333 90.6667)" fill="#EC5617"/>
<rect x="74.6667" y="64" width="5.33333" height="5.33333" transform="rotate(180 74.6667 64)" fill="#EC5617"/>
<rect x="74.6667" y="69.3335" width="5.33333" height="5.33333" transform="rotate(180 74.6667 69.3335)" fill="#EC5617"/>
<rect x="69.3333" y="74.6667" width="5.33333" height="5.33333" transform="rotate(180 69.3333 74.6667)" fill="#EC5617"/>
<rect x="48" y="96" width="5.33333" height="5.33333" transform="rotate(180 48 96)" fill="#EC5617"/>
<rect x="53.3333" y="101.333" width="5.33333" height="5.33333" transform="rotate(180 53.3333 101.333)" fill="#EC5617"/>
<rect x="58.6667" y="101.333" width="5.33333" height="5.33333" transform="rotate(180 58.6667 101.333)" fill="#EC5617"/>
<rect x="69.3333" y="85.3335" width="5.33333" height="5.33333" transform="rotate(180 69.3333 85.3335)" fill="#EC5617"/>
<rect x="64" y="90.6667" width="5.33333" height="5.33333" transform="rotate(180 64 90.6667)" fill="#EC5617"/>
<rect x="42.6667" y="96" width="5.33333" height="5.33333" transform="rotate(180 42.6667 96)" fill="#EC5617"/>
<rect x="58.6667" y="53.3335" width="5.33333" height="5.33333" transform="rotate(180 58.6667 53.3335)" fill="#EC5617"/>
<rect x="64" y="53.3335" width="5.33333" height="5.33333" transform="rotate(180 64 53.3335)" fill="#EC5617"/>
<rect x="42.6667" y="48" width="5.33333" height="5.33333" transform="rotate(180 42.6667 48)" fill="#89AD6A"/>
<rect x="37.3333" y="58.6667" width="5.33333" height="5.33333" transform="rotate(180 37.3333 58.6667)" fill="#7D9512"/>
<rect x="26.6667" y="64" width="5.33333" height="5.33333" transform="rotate(180 26.6667 64)" fill="#7D9512"/>
<rect x="26.6667" y="74.6667" width="5.33333" height="5.33333" transform="rotate(180 26.6667 74.6667)" fill="#7D9512"/>
<rect x="32" y="80" width="5.33333" height="5.33333" transform="rotate(180 32 80)" fill="#7D9512"/>
<rect x="32" y="85.3335" width="5.33333" height="5.33333" transform="rotate(180 32 85.3335)" fill="#7D9512"/>
<rect x="144" y="53.3335" width="5.33333" height="5.33333" fill="white"/>
<rect x="149.333" y="53.3335" width="5.33333" height="5.33333" fill="#FFCB29"/>
<rect x="144" y="58.6667" width="5.33333" height="5.33333" fill="white"/>
<rect x="149.333" y="58.6667" width="5.33333" height="5.33333" fill="#FFCB29"/>
<rect x="144" y="64" width="5.33333" height="5.33333" fill="white"/>
<rect x="149.333" y="64" width="5.33333" height="5.33333" fill="white"/>
<rect x="154.667" y="64" width="5.33333" height="5.33333" fill="#FFCB29"/>
<rect x="149.333" y="69.3335" width="5.33333" height="5.33333" fill="white"/>
<rect x="154.667" y="69.3335" width="5.33333" height="5.33333" fill="#FFCB29"/>
<rect x="149.333" y="74.6667" width="5.33333" height="5.33333" fill="white"/>
<rect x="154.667" y="74.6667" width="5.33333" height="5.33333" fill="#FFCB29"/>
<rect x="149.333" y="80" width="5.33333" height="5.33333" fill="white"/>
<rect x="154.667" y="80" width="5.33333" height="5.33333" fill="#FFCB29"/>
<rect x="149.333" y="85.3335" width="5.33333" height="5.33333" fill="white"/>
<rect x="154.667" y="85.3335" width="5.33333" height="5.33333" fill="#FFCB29"/>
<rect x="149.333" y="90.6667" width="5.33333" height="5.33333" fill="white"/>
<rect x="154.667" y="90.6667" width="5.33333" height="5.33333" fill="#FFCB29"/>
<rect x="149.333" y="96" width="5.33333" height="5.33333" fill="white"/>
<rect x="154.667" y="96" width="5.33333" height="5.33333" fill="#FFCB29"/>
<rect x="149.333" y="101.333" width="5.33333" height="5.33333" fill="white"/>
<rect x="154.667" y="101.333" width="5.33333" height="5.33333" fill="#FFCB29"/>
<rect x="149.333" y="106.667" width="5.33333" height="5.33333" fill="white"/>
<rect x="154.667" y="106.667" width="5.33333" height="5.33333" fill="#FFCB29"/>
<rect x="144" y="112" width="5.33333" height="5.33333" fill="white"/>
<rect x="149.333" y="112" width="5.33333" height="5.33333" fill="#FFCB29"/>
<rect x="138.667" y="117.333" width="5.33333" height="5.33333" fill="white"/>
<rect x="144" y="117.333" width="5.33333" height="5.33333" fill="#FFCB29"/>
<rect x="133.333" y="122.667" width="5.33333" height="5.33333" fill="white"/>
<rect x="138.667" y="122.667" width="5.33333" height="5.33333" fill="#FFCB29"/>
<rect x="128" y="128" width="5.33333" height="5.33333" fill="white"/>
<rect x="128" y="133.333" width="5.33333" height="5.33333" fill="#FFCB29"/>
<rect x="133.333" y="128" width="5.33333" height="5.33333" fill="#FFCB29"/>
<rect x="117.333" y="133.333" width="5.33333" height="5.33333" fill="white"/>
<rect x="117.333" y="138.667" width="5.33333" height="5.33333" fill="#FFCB29"/>
<rect x="106.667" y="138.667" width="5.33333" height="5.33333" fill="white"/>
<rect x="106.667" y="144" width="5.33333" height="5.33333" fill="#FFCB29"/>
<rect x="90.6667" y="138.667" width="5.33333" height="5.33333" fill="white"/>
<rect x="90.6667" y="144" width="5.33333" height="5.33333" fill="#FFCB29"/>
<rect x="74.6667" y="138.667" width="5.33333" height="5.33333" fill="white"/>
<rect x="74.6667" y="144" width="5.33333" height="5.33333" fill="#FFCB29"/>
<rect x="58.6667" y="138.667" width="5.33333" height="5.33333" fill="white"/>
<rect x="58.6667" y="144" width="5.33333" height="5.33333" fill="#FFCB29"/>
<rect x="48" y="133.333" width="5.33333" height="5.33333" fill="white"/>
<rect x="37.3333" y="128" width="5.33333" height="5.33333" fill="white"/>
<rect x="26.6667" y="122.667" width="5.33333" height="5.33333" fill="white"/>
<rect x="21.3333" y="117.333" width="5.33333" height="5.33333" fill="white"/>
<rect x="16" y="112" width="5.33333" height="5.33333" fill="white"/>
<rect x="10.6667" y="106.667" width="5.33333" height="5.33333" fill="white"/>
<rect x="144" y="106.667" width="5.33333" height="5.33333" fill="white"/>
<rect x="138.667" y="112" width="5.33333" height="5.33333" fill="white"/>
<rect x="133.333" y="117.333" width="5.33333" height="5.33333" fill="white"/>
<rect x="128" y="122.667" width="5.33333" height="5.33333" fill="white"/>
<rect x="122.667" y="128" width="5.33333" height="5.33333" fill="white"/>
<rect x="122.667" y="133.333" width="5.33333" height="5.33333" fill="#FFCB29"/>
<rect x="112" y="133.333" width="5.33333" height="5.33333" fill="white"/>
<rect x="112" y="138.667" width="5.33333" height="5.33333" fill="#FFCB29"/>
<rect x="101.333" y="138.667" width="5.33333" height="5.33333" fill="white"/>
<rect x="101.333" y="144" width="5.33333" height="5.33333" fill="#FFCB29"/>
<rect x="85.3333" y="138.667" width="5.33333" height="5.33333" fill="white"/>
<rect x="85.3333" y="144" width="5.33333" height="5.33333" fill="#FFCB29"/>
<rect x="69.3333" y="138.667" width="5.33333" height="5.33333" fill="white"/>
<rect x="69.3333" y="144" width="5.33333" height="5.33333" fill="#FFCB29"/>
<rect x="53.3333" y="138.667" width="5.33333" height="5.33333" fill="white"/>
<rect x="53.3333" y="144" width="5.33333" height="5.33333" fill="#FFCB29"/>
<rect x="42.6667" y="133.333" width="5.33333" height="5.33333" fill="white"/>
<rect x="42.6667" y="138.667" width="5.33333" height="5.33333" fill="#FFCB29"/>
<rect x="32" y="128" width="5.33333" height="5.33333" fill="white"/>
<rect x="32" y="133.333" width="5.33333" height="5.33333" fill="#FFCB29"/>
<rect x="21.3333" y="122.667" width="5.33333" height="5.33333" fill="white"/>
<rect x="21.3333" y="128" width="5.33333" height="5.33333" fill="#FFCB29"/>
<rect x="16" y="117.333" width="5.33333" height="5.33333" fill="white"/>
<rect x="16" y="122.667" width="5.33333" height="5.33333" fill="#FFCB29"/>
<rect x="10.6667" y="112" width="5.33333" height="5.33333" fill="white"/>
<rect x="10.6667" y="117.333" width="5.33333" height="5.33333" fill="#FFCB29"/>
<rect x="5.33331" y="106.667" width="5.33333" height="5.33333" fill="white"/>
<rect y="106.667" width="5.33333" height="5.33333" fill="#FFCB29"/>
<rect x="5.33331" y="112" width="5.33333" height="5.33333" fill="#FFCB29"/>
<rect x="5.33331" y="101.333" width="5.33333" height="5.33333" fill="white"/>
<rect y="101.333" width="5.33333" height="5.33333" fill="#FFCB29"/>
<rect x="5.33331" y="96" width="5.33333" height="5.33333" fill="white"/>
<rect y="96" width="5.33333" height="5.33333" fill="#FFCB29"/>
<rect x="5.33331" y="90.6667" width="5.33333" height="5.33333" fill="white"/>
<rect y="90.6667" width="5.33333" height="5.33333" fill="#FFCB29"/>
<rect x="5.33331" y="85.3335" width="5.33333" height="5.33333" fill="white"/>
<rect y="85.3335" width="5.33333" height="5.33333" fill="#FFCB29"/>
<rect x="5.33331" y="80" width="5.33333" height="5.33333" fill="white"/>
<rect y="80" width="5.33333" height="5.33333" fill="#FFCB29"/>
<rect x="5.33331" y="74.6667" width="5.33333" height="5.33333" fill="white"/>
<rect y="74.6667" width="5.33333" height="5.33333" fill="#FFCB29"/>
<rect x="5.33331" y="69.3335" width="5.33333" height="5.33333" fill="white"/>
<rect y="69.3335" width="5.33333" height="5.33333" fill="#FFCB29"/>
<rect x="5.33331" y="64" width="5.33333" height="5.33333" fill="white"/>
<rect y="64" width="5.33333" height="5.33333" fill="#FFCB29"/>
<rect x="10.6667" y="64" width="5.33333" height="5.33333" fill="white"/>
<rect x="10.6667" y="58.6667" width="5.33333" height="5.33333" fill="white"/>
<rect x="5.33331" y="58.6667" width="5.33333" height="5.33333" fill="#FFCB29"/>
<rect x="10.6667" y="53.3335" width="5.33333" height="5.33333" fill="white"/>
<rect x="5.33331" y="53.3335" width="5.33333" height="5.33333" fill="#FFCB29"/>
<rect x="10.6667" y="48" width="5.33333" height="5.33333" fill="white"/>
<rect x="5.33331" y="48" width="5.33333" height="5.33333" fill="#FFCB29"/>
<rect x="10.6667" y="42.6667" width="5.33333" height="5.33333" fill="#FFCB29"/>
<rect x="16" y="42.6667" width="5.33333" height="5.33333" fill="white"/>
<rect x="16" y="37.3335" width="5.33333" height="5.33333" fill="#FFCB29"/>
<rect x="21.3333" y="37.3335" width="5.33333" height="5.33333" fill="white"/>
<rect x="21.3333" y="32" width="5.33333" height="5.33333" fill="#FFCB29"/>
<rect x="26.6667" y="32" width="5.33333" height="5.33333" fill="white"/>
<rect x="26.6667" y="26.6667" width="5.33333" height="5.33333" fill="#FFCB29"/>
<rect x="37.3333" y="26.6667" width="5.33333" height="5.33333" fill="white"/>
<rect x="37.3333" y="21.3335" width="5.33333" height="5.33333" fill="#FFCB29"/>
<rect x="48" y="21.3335" width="5.33333" height="5.33333" fill="white"/>
<rect x="48" y="16" width="5.33333" height="5.33333" fill="#FFCB29"/>
<rect x="53.3333" y="16" width="5.33333" height="5.33333" fill="white"/>
<rect x="53.3333" y="10.6667" width="5.33333" height="5.33333" fill="#FFCB29"/>
<rect x="64" y="16" width="5.33333" height="5.33333" fill="white"/>
<rect x="64" y="10.6667" width="5.33333" height="5.33333" fill="#FFCB29"/>
<rect x="74.6667" y="16" width="5.33333" height="5.33333" fill="white"/>
<rect x="74.6667" y="10.6667" width="5.33333" height="5.33333" fill="#FFCB29"/>
<rect x="85.3333" y="16" width="5.33333" height="5.33333" fill="white"/>
<rect x="85.3333" y="10.6667" width="5.33333" height="5.33333" fill="#FFCB29"/>
<rect x="96" y="16" width="5.33333" height="5.33333" fill="white"/>
<rect x="96" y="10.6667" width="5.33333" height="5.33333" fill="#FFCB29"/>
<rect x="101.333" y="21.3335" width="5.33333" height="5.33333" fill="white"/>
<rect x="106.667" y="26.6667" width="5.33333" height="5.33333" fill="white"/>
<rect x="117.333" y="32" width="5.33333" height="5.33333" fill="white"/>
<rect x="117.333" y="26.6667" width="5.33333" height="5.33333" fill="white"/>
<rect x="117.333" y="21.3335" width="5.33333" height="5.33333" fill="#FFCB29"/>
<rect x="16" y="48" width="5.33333" height="5.33333" fill="white"/>
<rect x="21.3333" y="42.6667" width="5.33333" height="5.33333" fill="white"/>
<rect x="26.6667" y="37.3335" width="5.33333" height="5.33333" fill="white"/>
<rect x="32" y="32" width="5.33333" height="5.33333" fill="white"/>
<rect x="32" y="26.6667" width="5.33333" height="5.33333" fill="#FFCB29"/>
<rect x="42.6667" y="26.6667" width="5.33333" height="5.33333" fill="white"/>
<rect x="42.6667" y="21.3335" width="5.33333" height="5.33333" fill="#FFCB29"/>
<rect x="53.3333" y="21.3335" width="5.33333" height="5.33333" fill="white"/>
<rect x="58.6667" y="16" width="5.33333" height="5.33333" fill="white"/>
<rect x="58.6667" y="10.6667" width="5.33333" height="5.33333" fill="#FFCB29"/>
<rect x="69.3333" y="16" width="5.33333" height="5.33333" fill="white"/>
<rect x="69.3333" y="10.6667" width="5.33333" height="5.33333" fill="#FFCB29"/>
<rect x="80" y="16" width="5.33333" height="5.33333" fill="white"/>
<rect x="80" y="10.6667" width="5.33333" height="5.33333" fill="#FFCB29"/>
<rect x="90.6667" y="16" width="5.33333" height="5.33333" fill="white"/>
<rect x="90.6667" y="10.6667" width="5.33333" height="5.33333" fill="#FFCB29"/>
<rect x="101.333" y="16" width="5.33333" height="5.33333" fill="white"/>
<rect x="101.333" y="10.6667" width="5.33333" height="5.33333" fill="#FFCB29"/>
<rect x="106.667" y="21.3335" width="5.33333" height="5.33333" fill="white"/>
<rect x="106.667" y="16" width="5.33333" height="5.33333" fill="#FFCB29"/>
<rect x="112" y="26.6667" width="5.33333" height="5.33333" fill="white"/>
<rect x="112" y="21.3335" width="5.33333" height="5.33333" fill="#FFCB29"/>
<rect x="122.667" y="32" width="5.33333" height="5.33333" fill="white"/>
<rect x="122.667" y="26.6667" width="5.33333" height="5.33333" fill="#FFCB29"/>
<rect x="128" y="32" width="5.33333" height="5.33333" fill="white"/>
<rect x="128" y="26.6667" width="5.33333" height="5.33333" fill="#FFCB29"/>
<rect x="128" y="37.3335" width="5.33333" height="5.33333" fill="white"/>
<rect x="133.333" y="37.3335" width="5.33333" height="5.33333" fill="white"/>
<rect x="133.333" y="32" width="5.33333" height="5.33333" fill="#FFCB29"/>
<rect x="133.333" y="42.6667" width="5.33333" height="5.33333" fill="white"/>
<rect x="138.667" y="42.6667" width="5.33333" height="5.33333" fill="white"/>
<rect x="138.667" y="37.3335" width="5.33333" height="5.33333" fill="#FFCB29"/>
<rect x="138.667" y="48" width="5.33333" height="5.33333" fill="white"/>
<rect x="144" y="48" width="5.33333" height="5.33333" fill="white"/>
<rect x="149.333" y="48" width="5.33333" height="5.33333" fill="#FFCB29"/>
<rect x="144" y="42.6667" width="5.33333" height="5.33333" fill="#FFCB29"/>
<rect x="37.3333" y="32" width="5.33333" height="5.33333" fill="white"/>
<rect x="48" y="26.6667" width="5.33333" height="5.33333" fill="white"/>
<rect x="117.333" y="128" width="5.33333" height="5.33333" fill="white"/>
<rect x="106.667" y="133.333" width="5.33333" height="5.33333" fill="white"/>
<rect x="96" y="138.667" width="5.33333" height="5.33333" fill="white"/>
<rect x="96" y="144" width="5.33333" height="5.33333" fill="#FFCB29"/>
<rect x="80" y="138.667" width="5.33333" height="5.33333" fill="white"/>
<rect x="80" y="144" width="5.33333" height="5.33333" fill="#FFCB29"/>
<rect x="64" y="138.667" width="5.33333" height="5.33333" fill="white"/>
<rect x="64" y="144" width="5.33333" height="5.33333" fill="#FFCB29"/>
<rect x="48" y="138.667" width="5.33333" height="5.33333" fill="white"/>
<rect x="48" y="144" width="5.33333" height="5.33333" fill="#FFCB29"/>
<rect x="37.3333" y="133.333" width="5.33333" height="5.33333" fill="white"/>
<rect x="37.3333" y="138.667" width="5.33333" height="5.33333" fill="#FFCB29"/>
<rect x="26.6667" y="128" width="5.33333" height="5.33333" fill="white"/>
<rect x="26.6667" y="133.333" width="5.33333" height="5.33333" fill="#FFCB29"/>
</svg>
