<svg width="160" height="160" viewBox="0 0 160 160" fill="none" xmlns="http://www.w3.org/2000/svg">
<rect width="5.33333" height="5.33333" transform="matrix(-1 0 0 1 80 133.333)" fill="black"/>
<rect width="5.33333" height="5.33333" transform="matrix(-1 0 0 1 74.6667 133.333)" fill="black"/>
<rect width="5.33333" height="5.33333" transform="matrix(-1 0 0 1 69.3333 133.333)" fill="black"/>
<rect width="5.33333" height="5.33333" transform="matrix(-1 0 0 1 64 133.333)" fill="black"/>
<rect width="5.33333" height="5.33333" transform="matrix(-1 0 0 1 58.6667 133.333)" fill="black"/>
<rect width="5.33333" height="5.33333" transform="matrix(-1 0 0 1 53.3333 128)" fill="black"/>
<rect width="5.33333" height="5.33333" transform="matrix(-1 0 0 1 48 128)" fill="black"/>
<rect width="5.33333" height="5.33333" transform="matrix(-1 0 0 1 42.6667 122.667)" fill="black"/>
<rect width="5.33333" height="5.33333" transform="matrix(-1 0 0 1 37.3333 122.667)" fill="black"/>
<rect width="5.33333" height="5.33333" transform="matrix(-1 0 0 1 26.6667 112)" fill="black"/>
<rect width="5.33333" height="5.33333" transform="matrix(-1 0 0 1 32 117.333)" fill="black"/>
<rect width="5.33333" height="5.33333" transform="matrix(-1 0 0 1 21.3333 106.667)" fill="black"/>
<rect x="80" y="133.333" width="5.33333" height="5.33333" fill="black"/>
<rect x="85.3333" y="133.333" width="5.33333" height="5.33333" fill="black"/>
<rect x="90.6667" y="133.333" width="5.33333" height="5.33333" fill="black"/>
<rect x="96" y="133.333" width="5.33333" height="5.33333" fill="black"/>
<rect x="101.333" y="133.333" width="5.33333" height="5.33333" fill="black"/>
<rect x="106.667" y="128" width="5.33333" height="5.33333" fill="black"/>
<rect x="112" y="128" width="5.33333" height="5.33333" fill="black"/>
<rect x="117.333" y="122.667" width="5.33333" height="5.33333" fill="black"/>
<rect x="122.667" y="122.667" width="5.33333" height="5.33333" fill="black"/>
<rect x="133.333" y="112" width="5.33333" height="5.33333" fill="black"/>
<rect x="128" y="117.333" width="5.33333" height="5.33333" fill="black"/>
<rect x="138.667" y="106.667" width="5.33333" height="5.33333" fill="black"/>
<rect width="5.33333" height="5.33333" transform="matrix(-1 0 0 1 149.333 80)" fill="black"/>
<rect width="5.33333" height="5.33333" transform="matrix(-1 0 0 1 16 80)" fill="black"/>
<rect width="5.33333" height="5.33333" transform="matrix(-1 0 0 1 149.333 85.3335)" fill="black"/>
<rect width="5.33333" height="5.33333" transform="matrix(-1 0 0 1 16 85.3335)" fill="black"/>
<rect width="5.33333" height="5.33333" transform="matrix(-1 0 0 1 149.333 90.6667)" fill="black"/>
<rect width="5.33333" height="5.33333" transform="matrix(-1 0 0 1 16 90.6667)" fill="black"/>
<rect x="144" y="69.3335" width="5.33333" height="5.33333" fill="black"/>
<rect x="10.6667" y="69.3335" width="5.33333" height="5.33333" fill="black"/>
<rect x="144" y="74.6667" width="5.33333" height="5.33333" fill="black"/>
<rect x="10.6667" y="74.6667" width="5.33333" height="5.33333" fill="black"/>
<rect x="144" y="96" width="5.33333" height="5.33333" fill="black"/>
<rect x="10.6667" y="96" width="5.33333" height="5.33333" fill="black"/>
<rect x="144" y="101.333" width="5.33333" height="5.33333" fill="black"/>
<rect x="10.6667" y="101.333" width="5.33333" height="5.33333" fill="black"/>
<rect width="5.33333" height="5.33333" transform="matrix(-1 0 0 1 32 48)" fill="black"/>
<rect width="5.33333" height="5.33333" transform="matrix(-1 0 0 1 37.3333 42.6667)" fill="black"/>
<rect width="5.33333" height="5.33333" transform="matrix(-1 0 0 1 48 37.3335)" fill="black"/>
<rect width="5.33333" height="5.33333" transform="matrix(-1 0 0 1 58.6667 32)" fill="black"/>
<rect width="5.33333" height="5.33333" transform="matrix(-1 0 0 1 53.3333 32)" fill="black"/>
<rect width="5.33333" height="5.33333" transform="matrix(-1 0 0 1 69.3333 32)" fill="black"/>
<rect width="5.33333" height="5.33333" transform="matrix(-1 0 0 1 74.6667 26.6667)" fill="black"/>
<rect width="5.33333" height="5.33333" transform="matrix(-1 0 0 1 80 21.3335)" fill="black"/>
<rect width="5.33333" height="5.33333" transform="matrix(-1 0 0 1 85.3333 21.3335)" fill="black"/>
<rect width="5.33333" height="5.33333" transform="matrix(-1 0 0 1 90.6667 21.3335)" fill="black"/>
<rect width="5.33333" height="5.33333" transform="matrix(-1 0 0 1 96 26.6667)" fill="black"/>
<rect width="5.33333" height="5.33333" transform="matrix(-1 0 0 1 80 32)" fill="#FFFAE9"/>
<rect width="5.33333" height="5.33333" transform="matrix(-1 0 0 1 80 26.6667)" fill="#ECE2C1"/>
<rect width="5.33333" height="5.33333" transform="matrix(-1 0 0 1 90.6667 32)" fill="#FFFAE9"/>
<rect width="5.33333" height="5.33333" transform="matrix(-1 0 0 1 90.6667 26.6667)" fill="#FFFAE9"/>
<rect width="5.33333" height="5.33333" transform="matrix(-1 0 0 1 101.333 32)" fill="black"/>
<rect width="5.33333" height="5.33333" transform="matrix(-1 0 0 1 112 37.3335)" fill="black"/>
<rect width="5.33333" height="5.33333" transform="matrix(-1 0 0 1 42.6667 42.6667)" fill="black"/>
<rect width="5.33333" height="5.33333" transform="matrix(-1 0 0 1 53.3333 37.3335)" fill="#AADB10"/>
<rect width="5.33333" height="5.33333" transform="matrix(-1 0 0 1 64 32)" fill="black"/>
<rect width="5.33333" height="5.33333" transform="matrix(-1 0 0 1 74.6667 32)" fill="#FFFAE9"/>
<rect width="5.33333" height="5.33333" transform="matrix(-1 0 0 1 85.3333 32)" fill="#FFFAE9"/>
<rect width="5.33333" height="5.33333" transform="matrix(-1 0 0 1 85.3333 26.6667)" fill="#FFFAE9"/>
<rect width="5.33333" height="5.33333" transform="matrix(-1 0 0 1 96 32)" fill="#FFFAE9"/>
<rect width="5.33333" height="5.33333" transform="matrix(-1 0 0 1 106.667 32)" fill="black"/>
<rect width="5.33333" height="5.33333" transform="matrix(-1 0 0 1 117.333 37.3335)" fill="black"/>
<rect width="5.33333" height="5.33333" transform="matrix(-1 0 0 1 128 42.6667)" fill="black"/>
<rect width="5.33333" height="5.33333" transform="matrix(-1 0 0 1 122.667 42.6667)" fill="black"/>
<rect width="5.33333" height="5.33333" transform="matrix(-1 0 0 1 133.333 48)" fill="black"/>
<rect width="5.33333" height="5.33333" transform="matrix(-1 0 0 1 138.667 53.3335)" fill="black"/>
<rect width="5.33333" height="5.33333" transform="matrix(-1 0 0 1 144 58.6667)" fill="black"/>
<rect width="5.33333" height="5.33333" transform="matrix(-1 0 0 1 144 64)" fill="black"/>
<rect width="5.33333" height="5.33333" transform="matrix(-1 0 0 1 26.6667 53.3335)" fill="black"/>
<rect width="5.33333" height="5.33333" transform="matrix(-1 0 0 1 21.3333 58.6667)" fill="black"/>
<rect width="5.33333" height="5.33333" transform="matrix(-1 0 0 1 21.3333 64)" fill="black"/>
<rect x="42.6667" y="122.667" width="5.33333" height="5.33333" fill="#343434"/>
<rect x="42.6667" y="117.333" width="5.33333" height="5.33333" fill="#AEAEAE"/>
<rect x="48" y="122.667" width="5.33333" height="5.33333" fill="#343434"/>
<rect x="48" y="117.333" width="5.33333" height="5.33333" fill="#AEAEAE"/>
<rect x="53.3333" y="117.333" width="5.33333" height="5.33333" fill="#666666"/>
<rect x="53.3333" y="112" width="5.33333" height="5.33333" fill="#666666"/>
<rect x="48" y="112" width="5.33333" height="5.33333" fill="#666666"/>
<rect x="42.6667" y="112" width="5.33333" height="5.33333" fill="#666666"/>
<rect x="106.667" y="112" width="5.33333" height="5.33333" fill="#666666"/>
<rect x="112" y="112" width="5.33333" height="5.33333" fill="#666666"/>
<rect x="53.3333" y="106.667" width="5.33333" height="5.33333" fill="#666666"/>
<rect x="48" y="106.667" width="5.33333" height="5.33333" fill="#666666"/>
<rect x="42.6667" y="106.667" width="5.33333" height="5.33333" fill="#666666"/>
<rect x="106.667" y="106.667" width="5.33333" height="5.33333" fill="#615B5B"/>
<rect x="112" y="106.667" width="5.33333" height="5.33333" fill="#615B5B"/>
<rect x="117.333" y="106.667" width="5.33333" height="5.33333" fill="#666666"/>
<rect x="122.667" y="106.667" width="5.33333" height="5.33333" fill="#666666"/>
<rect x="37.3333" y="106.667" width="5.33333" height="5.33333" fill="#666666"/>
<rect x="32" y="106.667" width="5.33333" height="5.33333" fill="#666666"/>
<rect x="53.3333" y="101.333" width="5.33333" height="5.33333" fill="#BDBDBD"/>
<rect x="48" y="101.333" width="5.33333" height="5.33333" fill="#BDBDBD"/>
<rect x="42.6667" y="101.333" width="5.33333" height="5.33333" fill="#666666"/>
<rect x="106.667" y="101.333" width="5.33333" height="5.33333" fill="#B75313"/>
<rect x="112" y="101.333" width="5.33333" height="5.33333" fill="#A64406"/>
<rect x="117.333" y="101.333" width="5.33333" height="5.33333" fill="#615B5B"/>
<rect x="122.667" y="101.333" width="5.33333" height="5.33333" fill="#666666"/>
<rect x="37.3333" y="101.333" width="5.33333" height="5.33333" fill="#666666"/>
<rect x="32" y="101.333" width="5.33333" height="5.33333" fill="#666666"/>
<rect x="26.6667" y="101.333" width="5.33333" height="5.33333" fill="#666666"/>
<rect x="128" y="101.333" width="5.33333" height="5.33333" fill="#666666"/>
<rect x="53.3333" y="96" width="5.33333" height="5.33333" fill="#666666"/>
<rect x="48" y="96" width="5.33333" height="5.33333" fill="#666666"/>
<rect x="42.6667" y="96" width="5.33333" height="5.33333" fill="#BDBDBD"/>
<rect x="106.667" y="96" width="5.33333" height="5.33333" fill="#B75313"/>
<rect x="112" y="96" width="5.33333" height="5.33333" fill="#E37900"/>
<rect x="117.333" y="96" width="5.33333" height="5.33333" fill="#A64406"/>
<rect x="122.667" y="96" width="5.33333" height="5.33333" fill="#615B5B"/>
<rect x="37.3333" y="96" width="5.33333" height="5.33333" fill="#666666"/>
<rect x="32" y="96" width="5.33333" height="5.33333" fill="#666666"/>
<rect x="26.6667" y="96" width="5.33333" height="5.33333" fill="#666666"/>
<rect x="128" y="96" width="5.33333" height="5.33333" fill="#666666"/>
<rect x="133.333" y="96" width="5.33333" height="5.33333" fill="#666666"/>
<rect x="21.3333" y="96" width="5.33333" height="5.33333" fill="#666666"/>
<rect x="53.3333" y="90.6667" width="5.33333" height="5.33333" fill="#BDBDBD"/>
<rect x="48" y="90.6667" width="5.33333" height="5.33333" fill="#BDBDBD"/>
<rect x="42.6667" y="90.6667" width="5.33333" height="5.33333" fill="#666666"/>
<rect x="106.667" y="90.6667" width="5.33333" height="5.33333" fill="#B1473C"/>
<rect x="112" y="90.6667" width="5.33333" height="5.33333" fill="#FBAE5C"/>
<rect x="117.333" y="90.6667" width="5.33333" height="5.33333" fill="#E37900"/>
<rect x="122.667" y="90.6667" width="5.33333" height="5.33333" fill="#A64406"/>
<rect x="37.3333" y="90.6667" width="5.33333" height="5.33333" fill="#666666"/>
<rect x="32" y="90.6667" width="5.33333" height="5.33333" fill="#666666"/>
<rect x="26.6667" y="90.6667" width="5.33333" height="5.33333" fill="#666666"/>
<rect x="128" y="90.6667" width="5.33333" height="5.33333" fill="#615B5B"/>
<rect x="133.333" y="90.6667" width="5.33333" height="5.33333" fill="#666666"/>
<rect x="21.3333" y="90.6667" width="5.33333" height="5.33333" fill="#666666"/>
<rect x="16" y="90.6667" width="5.33333" height="5.33333" fill="#666666"/>
<rect x="138.667" y="90.6667" width="5.33333" height="5.33333" fill="#666666"/>
<rect x="53.3333" y="85.3335" width="5.33333" height="5.33333" fill="#666666"/>
<rect x="48" y="85.3335" width="5.33333" height="5.33333" fill="#666666"/>
<rect x="42.6667" y="85.3335" width="5.33333" height="5.33333" fill="#666666"/>
<rect x="106.667" y="85.3335" width="5.33333" height="5.33333" fill="#B1473C"/>
<rect x="112" y="85.3335" width="5.33333" height="5.33333" fill="#FBAE5C"/>
<rect x="117.333" y="85.3335" width="5.33333" height="5.33333" fill="#E37900"/>
<rect x="122.667" y="85.3335" width="5.33333" height="5.33333" fill="#A64406"/>
<rect x="37.3333" y="85.3335" width="5.33333" height="5.33333" fill="#666666"/>
<rect x="32" y="85.3335" width="5.33333" height="5.33333" fill="#666666"/>
<rect x="26.6667" y="85.3335" width="5.33333" height="5.33333" fill="#666666"/>
<rect x="128" y="85.3335" width="5.33333" height="5.33333" fill="#B75313"/>
<rect x="133.333" y="85.3335" width="5.33333" height="5.33333" fill="#615B5B"/>
<rect x="21.3333" y="85.3335" width="5.33333" height="5.33333" fill="#666666"/>
<rect x="16" y="85.3335" width="5.33333" height="5.33333" fill="#666666"/>
<rect x="138.667" y="85.3335" width="5.33333" height="5.33333" fill="#666666"/>
<rect x="53.3333" y="80" width="5.33333" height="5.33333" fill="#666666"/>
<rect x="48" y="80" width="5.33333" height="5.33333" fill="#666666"/>
<rect x="42.6667" y="80" width="5.33333" height="5.33333" fill="#666666"/>
<rect x="106.667" y="80" width="5.33333" height="5.33333" fill="#FBAE5C"/>
<rect x="112" y="80" width="5.33333" height="5.33333" fill="#E37900"/>
<rect x="117.333" y="80" width="5.33333" height="5.33333" fill="#B75313"/>
<rect x="122.667" y="80" width="5.33333" height="5.33333" fill="#FBAE5C"/>
<rect x="37.3333" y="80" width="5.33333" height="5.33333" fill="#666666"/>
<rect x="32" y="80" width="5.33333" height="5.33333" fill="#666666"/>
<rect x="26.6667" y="80" width="5.33333" height="5.33333" fill="#666666"/>
<rect x="128" y="80" width="5.33333" height="5.33333" fill="#E37900"/>
<rect x="133.333" y="80" width="5.33333" height="5.33333" fill="#B75313"/>
<rect x="21.3333" y="80" width="5.33333" height="5.33333" fill="#666666"/>
<rect x="16" y="80" width="5.33333" height="5.33333" fill="#666666"/>
<rect x="138.667" y="80" width="5.33333" height="5.33333" fill="#615B5B"/>
<rect x="53.3333" y="74.6667" width="5.33333" height="5.33333" fill="#615B5B"/>
<rect x="48" y="74.6667" width="5.33333" height="5.33333" fill="#615B5B"/>
<rect x="42.6667" y="74.6667" width="5.33333" height="5.33333" fill="#615B5B"/>
<rect x="106.667" y="74.6667" width="5.33333" height="5.33333" fill="#E37900"/>
<rect x="112" y="74.6667" width="5.33333" height="5.33333" fill="#B75313"/>
<rect x="117.333" y="74.6667" width="5.33333" height="5.33333" fill="#B1473C"/>
<rect x="122.667" y="74.6667" width="5.33333" height="5.33333" fill="#FBAE5C"/>
<rect x="37.3333" y="74.6667" width="5.33333" height="5.33333" fill="#615B5B"/>
<rect x="32" y="74.6667" width="5.33333" height="5.33333" fill="#615B5B"/>
<rect x="26.6667" y="74.6667" width="5.33333" height="5.33333" fill="#666666"/>
<rect x="128" y="74.6667" width="5.33333" height="5.33333" fill="#E37900"/>
<rect x="133.333" y="74.6667" width="5.33333" height="5.33333" fill="#B75313"/>
<rect x="21.3333" y="74.6667" width="5.33333" height="5.33333" fill="#666666"/>
<rect x="16" y="74.6667" width="5.33333" height="5.33333" fill="#666666"/>
<rect x="138.667" y="74.6667" width="5.33333" height="5.33333" fill="#615B5B"/>
<rect x="53.3333" y="69.3335" width="5.33333" height="5.33333" fill="#AADB10"/>
<rect x="48" y="69.3335" width="5.33333" height="5.33333" fill="#AADB10"/>
<rect x="42.6667" y="69.3335" width="5.33333" height="5.33333" fill="#D6FA7A"/>
<rect x="106.667" y="69.3335" width="5.33333" height="5.33333" fill="#FBAE5C"/>
<rect x="112" y="69.3335" width="5.33333" height="5.33333" fill="#FBAE5C"/>
<rect x="117.333" y="69.3335" width="5.33333" height="5.33333" fill="#FBAE5C"/>
<rect x="122.667" y="69.3335" width="5.33333" height="5.33333" fill="#E37900"/>
<rect x="37.3333" y="69.3335" width="5.33333" height="5.33333" fill="#AADB10"/>
<rect x="32" y="69.3335" width="5.33333" height="5.33333" fill="#D6FA7A"/>
<rect x="26.6667" y="69.3335" width="5.33333" height="5.33333" fill="#615B5B"/>
<rect x="128" y="69.3335" width="5.33333" height="5.33333" fill="#B75313"/>
<rect x="133.333" y="69.3335" width="5.33333" height="5.33333" fill="#A64406"/>
<rect x="21.3333" y="69.3335" width="5.33333" height="5.33333" fill="#666666"/>
<rect x="16" y="69.3335" width="5.33333" height="5.33333" fill="#666666"/>
<rect x="138.667" y="69.3335" width="5.33333" height="5.33333" fill="#666666"/>
<rect x="53.3333" y="64" width="5.33333" height="5.33333" fill="#D6FA7A"/>
<rect x="48" y="64" width="5.33333" height="5.33333" fill="#C1ED48"/>
<rect x="42.6667" y="64" width="5.33333" height="5.33333" fill="#C1ED48"/>
<rect x="106.667" y="64" width="5.33333" height="5.33333" fill="#E37900"/>
<rect x="112" y="64" width="5.33333" height="5.33333" fill="#E37900"/>
<rect x="117.333" y="64" width="5.33333" height="5.33333" fill="#E37900"/>
<rect x="122.667" y="64" width="5.33333" height="5.33333" fill="#B75313"/>
<rect x="37.3333" y="64" width="5.33333" height="5.33333" fill="#D6FA7A"/>
<rect x="32" y="64" width="5.33333" height="5.33333" fill="#AADB10"/>
<rect x="26.6667" y="64" width="5.33333" height="5.33333" fill="#D6FA7A"/>
<rect x="128" y="64" width="5.33333" height="5.33333" fill="#A64406"/>
<rect x="133.333" y="64" width="5.33333" height="5.33333" fill="#BDBDBD"/>
<rect x="21.3333" y="64" width="5.33333" height="5.33333" fill="#666666"/>
<rect x="53.3333" y="58.6667" width="5.33333" height="5.33333" fill="#AADB10"/>
<rect x="48" y="58.6667" width="5.33333" height="5.33333" fill="#AADB10"/>
<rect x="42.6667" y="58.6667" width="5.33333" height="5.33333" fill="#C1ED48"/>
<rect x="106.667" y="58.6667" width="5.33333" height="5.33333" fill="#B75313"/>
<rect x="112" y="58.6667" width="5.33333" height="5.33333" fill="#B75313"/>
<rect x="117.333" y="58.6667" width="5.33333" height="5.33333" fill="#B75313"/>
<rect x="122.667" y="58.6667" width="5.33333" height="5.33333" fill="#A64406"/>
<rect x="37.3333" y="58.6667" width="5.33333" height="5.33333" fill="#D6FA7A"/>
<rect x="32" y="58.6667" width="5.33333" height="5.33333" fill="#AADB10"/>
<rect x="26.6667" y="58.6667" width="5.33333" height="5.33333" fill="#615B5B"/>
<rect x="128" y="58.6667" width="5.33333" height="5.33333" fill="#BDBDBD"/>
<rect x="133.333" y="58.6667" width="5.33333" height="5.33333" fill="#666666"/>
<rect x="21.3333" y="58.6667" width="5.33333" height="5.33333" fill="#666666"/>
<rect x="53.3333" y="53.3335" width="5.33333" height="5.33333" fill="#AADB10"/>
<rect x="48" y="53.3335" width="5.33333" height="5.33333" fill="#C1ED48"/>
<rect x="42.6667" y="53.3335" width="5.33333" height="5.33333" fill="#D6FA7A"/>
<rect x="106.667" y="53.3335" width="5.33333" height="5.33333" fill="#BDBDBD"/>
<rect x="112" y="53.3335" width="5.33333" height="5.33333" fill="#BDBDBD"/>
<rect x="117.333" y="53.3335" width="5.33333" height="5.33333" fill="#666666"/>
<rect x="122.667" y="53.3335" width="5.33333" height="5.33333" fill="#BDBDBD"/>
<rect x="37.3333" y="53.3335" width="5.33333" height="5.33333" fill="#AADB10"/>
<rect x="32" y="53.3335" width="5.33333" height="5.33333" fill="#C1ED48"/>
<rect x="26.6667" y="53.3335" width="5.33333" height="5.33333" fill="#666666"/>
<rect x="128" y="53.3335" width="5.33333" height="5.33333" fill="#666666"/>
<rect x="53.3333" y="48" width="5.33333" height="5.33333" fill="#C1ED48"/>
<rect x="48" y="48" width="5.33333" height="5.33333" fill="#D6FA7A"/>
<rect x="42.6667" y="48" width="5.33333" height="5.33333" fill="#D6FA7A"/>
<rect x="106.667" y="48" width="5.33333" height="5.33333" fill="#666666"/>
<rect x="112" y="48" width="5.33333" height="5.33333" fill="#666666"/>
<rect x="117.333" y="48" width="5.33333" height="5.33333" fill="#BDBDBD"/>
<rect x="122.667" y="48" width="5.33333" height="5.33333" fill="#666666"/>
<rect x="37.3333" y="48" width="5.33333" height="5.33333" fill="#D6FA7A"/>
<rect x="32" y="48" width="5.33333" height="5.33333" fill="#AADB10"/>
<rect x="53.3333" y="42.6667" width="5.33333" height="5.33333" fill="#AADB10"/>
<rect x="48" y="42.6667" width="5.33333" height="5.33333" fill="#C1ED48"/>
<rect x="42.6667" y="42.6667" width="5.33333" height="5.33333" fill="#AADB10"/>
<rect x="106.667" y="42.6667" width="5.33333" height="5.33333" fill="#666666"/>
<rect x="112" y="42.6667" width="5.33333" height="5.33333" fill="#666666"/>
<rect x="53.3333" y="37.3335" width="5.33333" height="5.33333" fill="#D6FA7A"/>
<rect x="58.6667" y="117.333" width="5.33333" height="5.33333" fill="#666666"/>
<rect x="58.6667" y="112" width="5.33333" height="5.33333" fill="#666666"/>
<rect x="58.6667" y="106.667" width="5.33333" height="5.33333" fill="#BDBDBD"/>
<rect x="58.6667" y="101.333" width="5.33333" height="5.33333" fill="#E37900"/>
<rect x="58.6667" y="96" width="5.33333" height="5.33333" fill="#E37900"/>
<rect x="58.6667" y="90.6667" width="5.33333" height="5.33333" fill="#666666"/>
<rect x="58.6667" y="85.3335" width="5.33333" height="5.33333" fill="#BDBDBD"/>
<rect x="58.6667" y="80" width="5.33333" height="5.33333" fill="#666666"/>
<rect x="58.6667" y="74.6667" width="5.33333" height="5.33333" fill="#666666"/>
<rect x="58.6667" y="69.3335" width="5.33333" height="5.33333" fill="#615B5B"/>
<rect x="58.6667" y="64" width="5.33333" height="5.33333" fill="#D6FA7A"/>
<rect x="58.6667" y="58.6667" width="5.33333" height="5.33333" fill="#AADB10"/>
<rect x="58.6667" y="53.3335" width="5.33333" height="5.33333" fill="#D6FA7A"/>
<rect x="58.6667" y="48" width="5.33333" height="5.33333" fill="#D6FA7A"/>
<rect x="58.6667" y="42.6667" width="5.33333" height="5.33333" fill="#AADB10"/>
<rect x="58.6667" y="37.3335" width="5.33333" height="5.33333" fill="#C1ED48"/>
<rect x="64" y="117.333" width="5.33333" height="5.33333" fill="#666666"/>
<rect x="64" y="112" width="5.33333" height="5.33333" fill="#BDBDBD"/>
<rect x="64" y="106.667" width="5.33333" height="5.33333" fill="#E37900"/>
<rect x="64" y="101.333" width="5.33333" height="5.33333" fill="#FBAE5C"/>
<rect x="64" y="96" width="5.33333" height="5.33333" fill="#FBAE5C"/>
<rect x="64" y="90.6667" width="5.33333" height="5.33333" fill="#E37900"/>
<rect x="64" y="85.3335" width="5.33333" height="5.33333" fill="#BDBDBD"/>
<rect x="64" y="80" width="5.33333" height="5.33333" fill="#666666"/>
<rect x="64" y="74.6667" width="5.33333" height="5.33333" fill="#666666"/>
<rect x="64" y="69.3335" width="5.33333" height="5.33333" fill="#615B5B"/>
<rect x="64" y="64" width="5.33333" height="5.33333" fill="#C1ED48"/>
<rect x="64" y="58.6667" width="5.33333" height="5.33333" fill="#C1ED48"/>
<rect x="64" y="53.3335" width="5.33333" height="5.33333" fill="#D6FA7A"/>
<rect x="64" y="48" width="5.33333" height="5.33333" fill="#C1ED48"/>
<rect x="64" y="42.6667" width="5.33333" height="5.33333" fill="#C1ED48"/>
<rect x="64" y="37.3335" width="5.33333" height="5.33333" fill="#D6FA7A"/>
<rect x="69.3333" y="117.333" width="5.33333" height="5.33333" fill="#615B5B"/>
<rect x="69.3333" y="112" width="5.33333" height="5.33333" fill="#E37900"/>
<rect x="69.3333" y="106.667" width="5.33333" height="5.33333" fill="#FBAE5C"/>
<rect x="69.3333" y="101.333" width="5.33333" height="5.33333" fill="#B1473C"/>
<rect x="69.3333" y="96" width="5.33333" height="5.33333" fill="#FFB8B1"/>
<rect x="69.3333" y="90.6667" width="5.33333" height="5.33333" fill="#FBAE5C"/>
<rect x="69.3333" y="85.3335" width="5.33333" height="5.33333" fill="#E37900"/>
<rect x="69.3333" y="80" width="5.33333" height="5.33333" fill="#BDBDBD"/>
<rect x="69.3333" y="74.6667" width="5.33333" height="5.33333" fill="#666666"/>
<rect x="69.3333" y="69.3335" width="5.33333" height="5.33333" fill="#666666"/>
<rect x="69.3333" y="64" width="5.33333" height="5.33333" fill="#615B5B"/>
<rect x="69.3333" y="58.6667" width="5.33333" height="5.33333" fill="#C1ED48"/>
<rect x="69.3333" y="53.3335" width="5.33333" height="5.33333" fill="#AADB10"/>
<rect x="69.3333" y="48" width="5.33333" height="5.33333" fill="#AADB10"/>
<rect x="69.3333" y="42.6667" width="5.33333" height="5.33333" fill="#ECE2C1"/>
<rect x="69.3333" y="37.3335" width="5.33333" height="5.33333" fill="#FFFAE9"/>
<rect x="74.6667" y="117.333" width="5.33333" height="5.33333" fill="#615B5B"/>
<rect x="74.6667" y="112" width="5.33333" height="5.33333" fill="#E37900"/>
<rect x="74.6667" y="106.667" width="5.33333" height="5.33333" fill="#FBAE5C"/>
<rect x="74.6667" y="101.333" width="5.33333" height="5.33333" fill="#FFB8B1"/>
<rect x="74.6667" y="96" width="5.33333" height="5.33333" fill="#B1473C"/>
<rect x="74.6667" y="90.6667" width="5.33333" height="5.33333" fill="#FBAE5C"/>
<rect x="74.6667" y="85.3335" width="5.33333" height="5.33333" fill="#E37900"/>
<rect x="74.6667" y="80" width="5.33333" height="5.33333" fill="#BDBDBD"/>
<rect x="74.6667" y="74.6667" width="5.33333" height="5.33333" fill="#666666"/>
<rect x="74.6667" y="69.3335" width="5.33333" height="5.33333" fill="#666666"/>
<rect x="74.6667" y="64" width="5.33333" height="5.33333" fill="#666666"/>
<rect x="74.6667" y="58.6667" width="5.33333" height="5.33333" fill="#615B5B"/>
<rect x="74.6667" y="53.3335" width="5.33333" height="5.33333" fill="#AADB10"/>
<rect x="74.6667" y="48" width="5.33333" height="5.33333" fill="#ECE2C1"/>
<rect x="74.6667" y="42.6667" width="5.33333" height="5.33333" fill="#FFFAE9"/>
<rect x="74.6667" y="37.3335" width="5.33333" height="5.33333" fill="#FFFAE9"/>
<rect x="80" y="117.333" width="5.33333" height="5.33333" fill="#615B5B"/>
<rect x="80" y="112" width="5.33333" height="5.33333" fill="#E37900"/>
<rect x="80" y="106.667" width="5.33333" height="5.33333" fill="#FBAE5C"/>
<rect x="80" y="101.333" width="5.33333" height="5.33333" fill="#B1473C"/>
<rect x="80" y="96" width="5.33333" height="5.33333" fill="#FFB8B1"/>
<rect x="80" y="90.6667" width="5.33333" height="5.33333" fill="#FBAE5C"/>
<rect x="80" y="85.3335" width="5.33333" height="5.33333" fill="#E37900"/>
<rect x="80" y="80" width="5.33333" height="5.33333" fill="#E37900"/>
<rect x="80" y="74.6667" width="5.33333" height="5.33333" fill="#BDBDBD"/>
<rect x="80" y="69.3335" width="5.33333" height="5.33333" fill="#666666"/>
<rect x="80" y="64" width="5.33333" height="5.33333" fill="#666666"/>
<rect x="80" y="58.6667" width="5.33333" height="5.33333" fill="#666666"/>
<rect x="80" y="53.3335" width="5.33333" height="5.33333" fill="#615B5B"/>
<rect x="80" y="48" width="5.33333" height="5.33333" fill="#FFFAE9"/>
<rect x="80" y="42.6667" width="5.33333" height="5.33333" fill="#ECE2C1"/>
<rect x="80" y="37.3335" width="5.33333" height="5.33333" fill="#FFFAE9"/>
<rect x="85.3333" y="117.333" width="5.33333" height="5.33333" fill="#615B5B"/>
<rect x="85.3333" y="112" width="5.33333" height="5.33333" fill="#E37900"/>
<rect x="85.3333" y="106.667" width="5.33333" height="5.33333" fill="#FBAE5C"/>
<rect x="85.3333" y="101.333" width="5.33333" height="5.33333" fill="#B1473C"/>
<rect x="85.3333" y="96" width="5.33333" height="5.33333" fill="#B1473C"/>
<rect x="85.3333" y="90.6667" width="5.33333" height="5.33333" fill="#FBAE5C"/>
<rect x="85.3333" y="85.3335" width="5.33333" height="5.33333" fill="#E37900"/>
<rect x="85.3333" y="80" width="5.33333" height="5.33333" fill="#FBAE5C"/>
<rect x="85.3333" y="74.6667" width="5.33333" height="5.33333" fill="#E37900"/>
<rect x="85.3333" y="69.3335" width="5.33333" height="5.33333" fill="#BDBDBD"/>
<rect x="85.3333" y="64" width="5.33333" height="5.33333" fill="#666666"/>
<rect x="85.3333" y="58.6667" width="5.33333" height="5.33333" fill="#666666"/>
<rect x="85.3333" y="53.3335" width="5.33333" height="5.33333" fill="#615B5B"/>
<rect x="85.3333" y="48" width="5.33333" height="5.33333" fill="#FFFAE9"/>
<rect x="85.3333" y="42.6667" width="5.33333" height="5.33333" fill="#FFFAE9"/>
<rect x="85.3333" y="37.3335" width="5.33333" height="5.33333" fill="#FFFAE9"/>
<rect x="90.6667" y="117.333" width="5.33333" height="5.33333" fill="#615B5B"/>
<rect x="90.6667" y="112" width="5.33333" height="5.33333" fill="#E37900"/>
<rect x="90.6667" y="106.667" width="5.33333" height="5.33333" fill="#FBAE5C"/>
<rect x="90.6667" y="101.333" width="5.33333" height="5.33333" fill="#FFB8B1"/>
<rect x="90.6667" y="96" width="5.33333" height="5.33333" fill="#B1473C"/>
<rect x="90.6667" y="90.6667" width="5.33333" height="5.33333" fill="#FBAE5C"/>
<rect x="90.6667" y="85.3335" width="5.33333" height="5.33333" fill="#E37900"/>
<rect x="90.6667" y="80" width="5.33333" height="5.33333" fill="#FBAE5C"/>
<rect x="90.6667" y="74.6667" width="5.33333" height="5.33333" fill="#E37900"/>
<rect x="90.6667" y="69.3335" width="5.33333" height="5.33333" fill="#E37900"/>
<rect x="90.6667" y="64" width="5.33333" height="5.33333" fill="#666666"/>
<rect x="90.6667" y="58.6667" width="5.33333" height="5.33333" fill="#666666"/>
<rect x="90.6667" y="53.3335" width="5.33333" height="5.33333" fill="#615B5B"/>
<rect x="90.6667" y="48" width="5.33333" height="5.33333" fill="#FFFAE9"/>
<rect x="90.6667" y="42.6667" width="5.33333" height="5.33333" fill="#FFFAE9"/>
<rect x="90.6667" y="37.3335" width="5.33333" height="5.33333" fill="#ECE2C1"/>
<rect x="96" y="117.333" width="5.33333" height="5.33333" fill="#666666"/>
<rect x="96" y="112" width="5.33333" height="5.33333" fill="#615B5B"/>
<rect x="96" y="106.667" width="5.33333" height="5.33333" fill="#E37900"/>
<rect x="96" y="101.333" width="5.33333" height="5.33333" fill="#FBAE5C"/>
<rect x="96" y="96" width="5.33333" height="5.33333" fill="#FBAE5C"/>
<rect x="96" y="90.6667" width="5.33333" height="5.33333" fill="#E37900"/>
<rect x="96" y="85.3335" width="5.33333" height="5.33333" fill="#B75313"/>
<rect x="96" y="80" width="5.33333" height="5.33333" fill="#FBAE5C"/>
<rect x="96" y="74.6667" width="5.33333" height="5.33333" fill="#E37900"/>
<rect x="96" y="69.3335" width="5.33333" height="5.33333" fill="#FBAE5C"/>
<rect x="96" y="64" width="5.33333" height="5.33333" fill="#E37900"/>
<rect x="96" y="58.6667" width="5.33333" height="5.33333" fill="#666666"/>
<rect x="96" y="53.3335" width="5.33333" height="5.33333" fill="#666666"/>
<rect x="96" y="48" width="5.33333" height="5.33333" fill="#615B5B"/>
<rect x="96" y="42.6667" width="5.33333" height="5.33333" fill="#FFFAE9"/>
<rect x="96" y="37.3335" width="5.33333" height="5.33333" fill="#FFFAE9"/>
<rect x="101.333" y="117.333" width="5.33333" height="5.33333" fill="#666666"/>
<rect x="101.333" y="112" width="5.33333" height="5.33333" fill="#615B5B"/>
<rect x="101.333" y="106.667" width="5.33333" height="5.33333" fill="#B75313"/>
<rect x="101.333" y="101.333" width="5.33333" height="5.33333" fill="#E37900"/>
<rect x="101.333" y="96" width="5.33333" height="5.33333" fill="#E37900"/>
<rect x="101.333" y="90.6667" width="5.33333" height="5.33333" fill="#B75313"/>
<rect x="101.333" y="85.3335" width="5.33333" height="5.33333" fill="#FFB8B1"/>
<rect x="101.333" y="80" width="5.33333" height="5.33333" fill="#FBAE5C"/>
<rect x="101.333" y="74.6667" width="5.33333" height="5.33333" fill="#E37900"/>
<rect x="101.333" y="69.3335" width="5.33333" height="5.33333" fill="#FBAE5C"/>
<rect x="101.333" y="64" width="5.33333" height="5.33333" fill="#E37900"/>
<rect x="101.333" y="58.6667" width="5.33333" height="5.33333" fill="#B75313"/>
<rect x="101.333" y="53.3335" width="5.33333" height="5.33333" fill="#666666"/>
<rect x="101.333" y="48" width="5.33333" height="5.33333" fill="#666666"/>
<rect x="101.333" y="42.6667" width="5.33333" height="5.33333" fill="#615B5B"/>
<rect x="101.333" y="37.3335" width="5.33333" height="5.33333" fill="#615B5B"/>
<rect x="53.3333" y="128" width="5.33333" height="5.33333" fill="#343434"/>
<rect x="53.3333" y="122.667" width="5.33333" height="5.33333" fill="#AEAEAE"/>
<rect x="64" y="128" width="5.33333" height="5.33333" fill="#343434"/>
<rect x="64" y="122.667" width="5.33333" height="5.33333" fill="#AEAEAE"/>
<rect x="74.6667" y="128" width="5.33333" height="5.33333" fill="#343434"/>
<rect x="74.6667" y="122.667" width="5.33333" height="5.33333" fill="#AEAEAE"/>
<rect x="85.3333" y="128" width="5.33333" height="5.33333" fill="#343434"/>
<rect x="85.3333" y="122.667" width="5.33333" height="5.33333" fill="#AEAEAE"/>
<rect x="96" y="128" width="5.33333" height="5.33333" fill="#343434"/>
<rect x="96" y="122.667" width="5.33333" height="5.33333" fill="#AEAEAE"/>
<rect x="106.667" y="122.667" width="5.33333" height="5.33333" fill="#343434"/>
<rect x="106.667" y="117.333" width="5.33333" height="5.33333" fill="#AEAEAE"/>
<rect x="117.333" y="117.333" width="5.33333" height="5.33333" fill="#343434"/>
<rect x="117.333" y="112" width="5.33333" height="5.33333" fill="#AEAEAE"/>
<rect x="32" y="117.333" width="5.33333" height="5.33333" fill="#343434"/>
<rect x="32" y="112" width="5.33333" height="5.33333" fill="#AEAEAE"/>
<rect x="26.6667" y="112" width="5.33333" height="5.33333" fill="#343434"/>
<rect x="26.6667" y="106.667" width="5.33333" height="5.33333" fill="#AEAEAE"/>
<rect x="21.3333" y="106.667" width="5.33333" height="5.33333" fill="#343434"/>
<rect x="21.3333" y="101.333" width="5.33333" height="5.33333" fill="#AEAEAE"/>
<rect x="16" y="101.333" width="5.33333" height="5.33333" fill="#343434"/>
<rect x="16" y="96" width="5.33333" height="5.33333" fill="#AEAEAE"/>
<rect x="58.6667" y="128" width="5.33333" height="5.33333" fill="#343434"/>
<rect x="58.6667" y="122.667" width="5.33333" height="5.33333" fill="#AEAEAE"/>
<rect x="69.3333" y="128" width="5.33333" height="5.33333" fill="#343434"/>
<rect x="69.3333" y="122.667" width="5.33333" height="5.33333" fill="#AEAEAE"/>
<rect x="80" y="128" width="5.33333" height="5.33333" fill="#343434"/>
<rect x="80" y="122.667" width="5.33333" height="5.33333" fill="#AEAEAE"/>
<rect x="90.6667" y="128" width="5.33333" height="5.33333" fill="#343434"/>
<rect x="90.6667" y="122.667" width="5.33333" height="5.33333" fill="#AEAEAE"/>
<rect x="101.333" y="128" width="5.33333" height="5.33333" fill="#343434"/>
<rect x="101.333" y="122.667" width="5.33333" height="5.33333" fill="#AEAEAE"/>
<rect x="112" y="122.667" width="5.33333" height="5.33333" fill="#343434"/>
<rect x="112" y="117.333" width="5.33333" height="5.33333" fill="#AEAEAE"/>
<rect x="122.667" y="117.333" width="5.33333" height="5.33333" fill="#343434"/>
<rect x="122.667" y="112" width="5.33333" height="5.33333" fill="#AEAEAE"/>
<rect x="128" y="112" width="5.33333" height="5.33333" fill="#343434"/>
<rect x="128" y="106.667" width="5.33333" height="5.33333" fill="#AEAEAE"/>
<rect x="133.333" y="106.667" width="5.33333" height="5.33333" fill="#343434"/>
<rect x="133.333" y="101.333" width="5.33333" height="5.33333" fill="#AEAEAE"/>
<rect x="138.667" y="101.333" width="5.33333" height="5.33333" fill="#343434"/>
<rect x="138.667" y="96" width="5.33333" height="5.33333" fill="#AEAEAE"/>
<rect x="37.3333" y="117.333" width="5.33333" height="5.33333" fill="#343434"/>
<rect x="37.3333" y="112" width="5.33333" height="5.33333" fill="#AEAEAE"/>
<rect x="53.3333" y="138.667" width="5.33333" height="5.33333" fill="white"/>
<rect x="53.3333" y="144" width="5.33333" height="5.33333" fill="#FFCB29"/>
<rect x="58.6667" y="138.667" width="5.33333" height="5.33333" fill="white"/>
<rect x="58.6667" y="144" width="5.33333" height="5.33333" fill="#FFCB29"/>
<rect x="64" y="138.667" width="5.33333" height="5.33333" fill="white"/>
<rect x="64" y="144" width="5.33333" height="5.33333" fill="#FFCB29"/>
<rect x="69.3333" y="138.667" width="5.33333" height="5.33333" fill="white"/>
<rect x="69.3333" y="144" width="5.33333" height="5.33333" fill="#FFCB29"/>
<rect x="74.6667" y="138.667" width="5.33333" height="5.33333" fill="white"/>
<rect x="74.6667" y="144" width="5.33333" height="5.33333" fill="#FFCB29"/>
<rect x="80" y="138.667" width="5.33333" height="5.33333" fill="white"/>
<rect x="80" y="144" width="5.33333" height="5.33333" fill="#FFCB29"/>
<rect x="85.3333" y="138.667" width="5.33333" height="5.33333" fill="white"/>
<rect x="85.3333" y="144" width="5.33333" height="5.33333" fill="#FFCB29"/>
<rect x="90.6667" y="138.667" width="5.33333" height="5.33333" fill="white"/>
<rect x="90.6667" y="144" width="5.33333" height="5.33333" fill="#FFCB29"/>
<rect x="96" y="138.667" width="5.33333" height="5.33333" fill="white"/>
<rect x="96" y="144" width="5.33333" height="5.33333" fill="#FFCB29"/>
<rect x="101.333" y="138.667" width="5.33333" height="5.33333" fill="white"/>
<rect x="101.333" y="144" width="5.33333" height="5.33333" fill="#FFCB29"/>
<rect x="106.667" y="133.333" width="5.33333" height="5.33333" fill="white"/>
<rect x="117.333" y="128" width="5.33333" height="5.33333" fill="white"/>
<rect x="112" y="133.333" width="5.33333" height="5.33333" fill="white"/>
<rect x="122.667" y="128" width="5.33333" height="5.33333" fill="white"/>
<rect x="128" y="122.667" width="5.33333" height="5.33333" fill="white"/>
<rect x="133.333" y="117.333" width="5.33333" height="5.33333" fill="white"/>
<rect x="138.667" y="112" width="5.33333" height="5.33333" fill="white"/>
<rect x="144" y="106.667" width="5.33333" height="5.33333" fill="white"/>
<rect x="149.333" y="101.333" width="5.33333" height="5.33333" fill="white"/>
<rect x="154.667" y="101.333" width="5.33333" height="5.33333" fill="#FFCB29"/>
<rect x="149.333" y="106.667" width="5.33333" height="5.33333" fill="white"/>
<rect x="154.667" y="106.667" width="5.33333" height="5.33333" fill="#FFCB29"/>
<rect x="144" y="112" width="5.33333" height="5.33333" fill="white"/>
<rect x="149.333" y="112" width="5.33333" height="5.33333" fill="#FFCB29"/>
<rect x="138.667" y="117.333" width="5.33333" height="5.33333" fill="white"/>
<rect x="144" y="117.333" width="5.33333" height="5.33333" fill="#FFCB29"/>
<rect x="133.333" y="122.667" width="5.33333" height="5.33333" fill="white"/>
<rect x="138.667" y="122.667" width="5.33333" height="5.33333" fill="#FFCB29"/>
<rect x="128" y="128" width="5.33333" height="5.33333" fill="white"/>
<rect x="128" y="133.333" width="5.33333" height="5.33333" fill="#FFCB29"/>
<rect x="133.333" y="128" width="5.33333" height="5.33333" fill="#FFCB29"/>
<rect x="117.333" y="133.333" width="5.33333" height="5.33333" fill="white"/>
<rect x="117.333" y="138.667" width="5.33333" height="5.33333" fill="#FFCB29"/>
<rect x="122.667" y="133.333" width="5.33333" height="5.33333" fill="#FFCB29"/>
<rect x="106.667" y="138.667" width="5.33333" height="5.33333" fill="white"/>
<rect x="106.667" y="144" width="5.33333" height="5.33333" fill="#FFCB29"/>
<rect x="112" y="138.667" width="5.33333" height="5.33333" fill="#FFCB29"/>
<rect x="149.333" y="96" width="5.33333" height="5.33333" fill="white"/>
<rect x="154.667" y="96" width="5.33333" height="5.33333" fill="#FFCB29"/>
<rect x="149.333" y="90.6667" width="5.33333" height="5.33333" fill="white"/>
<rect x="154.667" y="90.6667" width="5.33333" height="5.33333" fill="#FFCB29"/>
<rect x="149.333" y="85.3335" width="5.33333" height="5.33333" fill="white"/>
<rect x="154.667" y="85.3335" width="5.33333" height="5.33333" fill="#FFCB29"/>
<rect x="149.333" y="80" width="5.33333" height="5.33333" fill="white"/>
<rect x="154.667" y="80" width="5.33333" height="5.33333" fill="#FFCB29"/>
<rect x="149.333" y="74.6667" width="5.33333" height="5.33333" fill="white"/>
<rect x="154.667" y="74.6667" width="5.33333" height="5.33333" fill="#FFCB29"/>
<rect x="149.333" y="69.3335" width="5.33333" height="5.33333" fill="white"/>
<rect x="154.667" y="69.3335" width="5.33333" height="5.33333" fill="#FFCB29"/>
<rect x="149.333" y="64" width="5.33333" height="5.33333" fill="white"/>
<rect x="154.667" y="64" width="5.33333" height="5.33333" fill="#FFCB29"/>
<rect x="149.333" y="58.6667" width="5.33333" height="5.33333" fill="#FFCB29"/>
<rect x="144" y="64" width="5.33333" height="5.33333" fill="white"/>
<rect x="144" y="58.6667" width="5.33333" height="5.33333" fill="white"/>
<rect x="144" y="53.3335" width="5.33333" height="5.33333" fill="white"/>
<rect x="149.333" y="53.3335" width="5.33333" height="5.33333" fill="#FFCB29"/>
<rect x="144" y="48" width="5.33333" height="5.33333" fill="#FFCB29"/>
<rect x="138.667" y="48" width="5.33333" height="5.33333" fill="white"/>
<rect x="138.667" y="42.6667" width="5.33333" height="5.33333" fill="#FFCB29"/>
<rect x="133.333" y="42.6667" width="5.33333" height="5.33333" fill="white"/>
<rect x="133.333" y="37.3335" width="5.33333" height="5.33333" fill="#FFCB29"/>
<rect x="128" y="37.3335" width="5.33333" height="5.33333" fill="white"/>
<rect x="128" y="32" width="5.33333" height="5.33333" fill="#FFCB29"/>
<rect x="117.333" y="32" width="5.33333" height="5.33333" fill="white"/>
<rect x="117.333" y="26.6667" width="5.33333" height="5.33333" fill="#FFCB29"/>
<rect x="106.667" y="26.6667" width="5.33333" height="5.33333" fill="white"/>
<rect x="106.667" y="21.3335" width="5.33333" height="5.33333" fill="#FFCB29"/>
<rect x="138.667" y="53.3335" width="5.33333" height="5.33333" fill="white"/>
<rect x="133.333" y="48" width="5.33333" height="5.33333" fill="white"/>
<rect x="128" y="42.6667" width="5.33333" height="5.33333" fill="white"/>
<rect x="122.667" y="37.3335" width="5.33333" height="5.33333" fill="white"/>
<rect x="122.667" y="32" width="5.33333" height="5.33333" fill="#FFCB29"/>
<rect x="112" y="32" width="5.33333" height="5.33333" fill="white"/>
<rect x="112" y="26.6667" width="5.33333" height="5.33333" fill="#FFCB29"/>
<rect x="101.333" y="26.6667" width="5.33333" height="5.33333" fill="white"/>
<rect x="101.333" y="21.3335" width="5.33333" height="5.33333" fill="#FFCB29"/>
<rect x="96" y="21.3335" width="5.33333" height="5.33333" fill="white"/>
<rect x="96" y="16" width="5.33333" height="5.33333" fill="#FFCB29"/>
<rect x="90.6667" y="16" width="5.33333" height="5.33333" fill="white"/>
<rect x="90.6667" y="10.6667" width="5.33333" height="5.33333" fill="#FFCB29"/>
<rect x="80" y="16" width="5.33333" height="5.33333" fill="white"/>
<rect x="80" y="10.6667" width="5.33333" height="5.33333" fill="#FFCB29"/>
<rect x="117.333" y="37.3335" width="5.33333" height="5.33333" fill="white"/>
<rect x="106.667" y="32" width="5.33333" height="5.33333" fill="white"/>
<rect x="96" y="26.6667" width="5.33333" height="5.33333" fill="white"/>
<rect x="90.6667" y="21.3335" width="5.33333" height="5.33333" fill="white"/>
<rect x="85.3333" y="16" width="5.33333" height="5.33333" fill="white"/>
<rect x="85.3333" y="10.6667" width="5.33333" height="5.33333" fill="#FFCB29"/>
<rect x="74.6667" y="16" width="5.33333" height="5.33333" fill="white"/>
<rect x="74.6667" y="10.6667" width="5.33333" height="5.33333" fill="#FFCB29"/>
<rect x="69.3333" y="21.3335" width="5.33333" height="5.33333" fill="white"/>
<rect x="64" y="26.6667" width="5.33333" height="5.33333" fill="white"/>
<rect x="53.3333" y="26.6667" width="5.33333" height="5.33333" fill="white"/>
<rect x="53.3333" y="21.3335" width="5.33333" height="5.33333" fill="#FFCB29"/>
<rect x="69.3333" y="16" width="5.33333" height="5.33333" fill="white"/>
<rect x="69.3333" y="10.6667" width="5.33333" height="5.33333" fill="#FFCB29"/>
<rect x="64" y="21.3335" width="5.33333" height="5.33333" fill="white"/>
<rect x="64" y="16" width="5.33333" height="5.33333" fill="#FFCB29"/>
<rect x="58.6667" y="26.6667" width="5.33333" height="5.33333" fill="white"/>
<rect x="58.6667" y="21.3335" width="5.33333" height="5.33333" fill="#FFCB29"/>
<rect x="48" y="26.6667" width="5.33333" height="5.33333" fill="white"/>
<rect x="48" y="21.3335" width="5.33333" height="5.33333" fill="#FFCB29"/>
<rect x="42.6667" y="32" width="5.33333" height="5.33333" fill="white"/>
<rect x="32" y="37.3335" width="5.33333" height="5.33333" fill="white"/>
<rect x="32" y="32" width="5.33333" height="5.33333" fill="#FFCB29"/>
<rect x="37.3333" y="32" width="5.33333" height="5.33333" fill="white"/>
<rect x="37.3333" y="26.6667" width="5.33333" height="5.33333" fill="#FFCB29"/>
<rect x="26.6667" y="37.3335" width="5.33333" height="5.33333" fill="white"/>
<rect x="26.6667" y="32" width="5.33333" height="5.33333" fill="#FFCB29"/>
<rect x="26.6667" y="42.6667" width="5.33333" height="5.33333" fill="white"/>
<rect x="21.3333" y="48" width="5.33333" height="5.33333" fill="white"/>
<rect x="16" y="53.3335" width="5.33333" height="5.33333" fill="white"/>
<rect x="21.3333" y="42.6667" width="5.33333" height="5.33333" fill="white"/>
<rect x="21.3333" y="37.3335" width="5.33333" height="5.33333" fill="#FFCB29"/>
<rect x="16" y="48" width="5.33333" height="5.33333" fill="white"/>
<rect x="16" y="42.6667" width="5.33333" height="5.33333" fill="#FFCB29"/>
<rect x="10.6667" y="53.3335" width="5.33333" height="5.33333" fill="white"/>
<rect x="5.33331" y="53.3335" width="5.33333" height="5.33333" fill="#FFCB29"/>
<rect x="10.6667" y="48" width="5.33333" height="5.33333" fill="#FFCB29"/>
<rect x="10.6667" y="58.6667" width="5.33333" height="5.33333" fill="white"/>
<rect x="10.6667" y="64" width="5.33333" height="5.33333" fill="white"/>
<rect x="5.33331" y="64" width="5.33333" height="5.33333" fill="white"/>
<rect y="64" width="5.33333" height="5.33333" fill="#FFCB29"/>
<rect x="5.33331" y="58.6667" width="5.33333" height="5.33333" fill="#FFCB29"/>
<rect x="5.33331" y="69.3335" width="5.33333" height="5.33333" fill="white"/>
<rect y="69.3335" width="5.33333" height="5.33333" fill="#FFCB29"/>
<rect x="5.33331" y="74.6667" width="5.33333" height="5.33333" fill="white"/>
<rect y="74.6667" width="5.33333" height="5.33333" fill="#FFCB29"/>
<rect x="5.33331" y="80" width="5.33333" height="5.33333" fill="white"/>
<rect y="80" width="5.33333" height="5.33333" fill="#FFCB29"/>
<rect x="5.33331" y="85.3335" width="5.33333" height="5.33333" fill="white"/>
<rect y="85.3335" width="5.33333" height="5.33333" fill="#FFCB29"/>
<rect x="5.33331" y="90.6667" width="5.33333" height="5.33333" fill="white"/>
<rect y="90.6667" width="5.33333" height="5.33333" fill="#FFCB29"/>
<rect x="5.33331" y="96" width="5.33333" height="5.33333" fill="white"/>
<rect y="96" width="5.33333" height="5.33333" fill="#FFCB29"/>
<rect x="5.33331" y="101.333" width="5.33333" height="5.33333" fill="white"/>
<rect y="101.333" width="5.33333" height="5.33333" fill="#FFCB29"/>
<rect x="5.33331" y="106.667" width="5.33333" height="5.33333" fill="white"/>
<rect y="106.667" width="5.33333" height="5.33333" fill="#FFCB29"/>
<rect x="5.33331" y="112" width="5.33333" height="5.33333" fill="#FFCB29"/>
<rect x="10.6667" y="112" width="5.33333" height="5.33333" fill="white"/>
<rect x="10.6667" y="117.333" width="5.33333" height="5.33333" fill="#FFCB29"/>
<rect x="16" y="117.333" width="5.33333" height="5.33333" fill="white"/>
<rect x="16" y="122.667" width="5.33333" height="5.33333" fill="#FFCB29"/>
<rect x="21.3333" y="122.667" width="5.33333" height="5.33333" fill="white"/>
<rect x="21.3333" y="128" width="5.33333" height="5.33333" fill="#FFCB29"/>
<rect x="26.6667" y="128" width="5.33333" height="5.33333" fill="white"/>
<rect x="26.6667" y="133.333" width="5.33333" height="5.33333" fill="#FFCB29"/>
<rect x="37.3333" y="133.333" width="5.33333" height="5.33333" fill="white"/>
<rect x="37.3333" y="138.667" width="5.33333" height="5.33333" fill="#FFCB29"/>
<rect x="10.6667" y="106.667" width="5.33333" height="5.33333" fill="white"/>
<rect x="16" y="112" width="5.33333" height="5.33333" fill="white"/>
<rect x="21.3333" y="117.333" width="5.33333" height="5.33333" fill="white"/>
<rect x="26.6667" y="122.667" width="5.33333" height="5.33333" fill="white"/>
<rect x="32" y="128" width="5.33333" height="5.33333" fill="white"/>
<rect x="32" y="133.333" width="5.33333" height="5.33333" fill="#FFCB29"/>
<rect x="42.6667" y="133.333" width="5.33333" height="5.33333" fill="white"/>
<rect x="42.6667" y="138.667" width="5.33333" height="5.33333" fill="#FFCB29"/>
<rect x="37.3333" y="128" width="5.33333" height="5.33333" fill="white"/>
<rect x="48" y="133.333" width="5.33333" height="5.33333" fill="white"/>
<rect x="48" y="138.667" width="5.33333" height="5.33333" fill="white"/>
<rect x="48" y="144" width="5.33333" height="5.33333" fill="#FFCB29"/>
<rect x="37.3333" y="37.3335" width="5.33333" height="5.33333" fill="white"/>
<rect x="42.6667" y="26.6667" width="5.33333" height="5.33333" fill="white"/>
<rect x="42.6667" y="21.3335" width="5.33333" height="5.33333" fill="#FFCB29"/>
</svg>
