<svg width="160" height="160" viewBox="0 0 160 160" fill="none" xmlns="http://www.w3.org/2000/svg">
<rect opacity="0.5" x="28" y="28" width="104" height="104" fill="#D9D9D9"/>
<rect width="5.33333" height="5.33333" transform="matrix(-1 0 0 1 80 138.667)" fill="black"/>
<rect width="5.33333" height="5.33333" transform="matrix(-1 0 0 1 80 144)" fill="white"/>
<rect x="80" y="138.667" width="5.33333" height="5.33333" fill="black"/>
<rect x="80" y="144" width="5.33333" height="5.33333" fill="white"/>
<rect width="5.33333" height="5.33333" transform="matrix(-1 0 0 1 74.6667 138.667)" fill="black"/>
<rect width="5.33333" height="5.33333" transform="matrix(-1 0 0 1 74.6667 144)" fill="white"/>
<rect x="85.3333" y="138.667" width="5.33333" height="5.33333" fill="black"/>
<rect x="85.3333" y="144" width="5.33333" height="5.33333" fill="white"/>
<rect width="5.33333" height="5.33333" transform="matrix(-1 0 0 1 69.3333 138.667)" fill="black"/>
<rect width="5.33333" height="5.33333" transform="matrix(-1 0 0 1 69.3333 144)" fill="white"/>
<rect x="90.6667" y="138.667" width="5.33333" height="5.33333" fill="black"/>
<rect x="90.6667" y="144" width="5.33333" height="5.33333" fill="white"/>
<rect width="5.33333" height="5.33333" transform="matrix(-1 0 0 1 64 138.667)" fill="black"/>
<rect width="5.33333" height="5.33333" transform="matrix(-1 0 0 1 64 144)" fill="white"/>
<rect x="96" y="138.667" width="5.33333" height="5.33333" fill="black"/>
<rect x="96" y="144" width="5.33333" height="5.33333" fill="white"/>
<rect x="101.333" y="138.667" width="5.33333" height="5.33333" fill="white"/>
<rect x="106.667" y="138.667" width="5.33333" height="5.33333" fill="white"/>
<rect x="101.333" y="144" width="5.33333" height="5.33333" fill="white"/>
<rect width="5.33333" height="5.33333" transform="matrix(-1 0 0 1 58.6667 133.333)" fill="black"/>
<rect width="5.33333" height="5.33333" transform="matrix(-1 0 0 1 58.6667 138.667)" fill="white"/>
<rect width="5.33333" height="5.33333" transform="matrix(-1 0 0 1 58.6667 144)" fill="white"/>
<rect x="101.333" y="133.333" width="5.33333" height="5.33333" fill="black"/>
<rect width="5.33333" height="5.33333" transform="matrix(-1 0 0 1 53.3333 133.333)" fill="black"/>
<rect width="5.33333" height="5.33333" transform="matrix(-1 0 0 1 53.3333 138.667)" fill="white"/>
<rect x="106.667" y="133.333" width="5.33333" height="5.33333" fill="black"/>
<rect x="112" y="133.333" width="5.33333" height="5.33333" fill="white"/>
<rect x="112" y="138.667" width="5.33333" height="5.33333" fill="white"/>
<rect width="5.33333" height="5.33333" transform="matrix(-1 0 0 1 48 128)" fill="black"/>
<rect width="5.33333" height="5.33333" transform="matrix(-1 0 0 1 48 133.333)" fill="white"/>
<rect width="5.33333" height="5.33333" transform="matrix(-1 0 0 1 48 138.667)" fill="white"/>
<rect x="112" y="128" width="5.33333" height="5.33333" fill="black"/>
<rect x="117.333" y="128" width="5.33333" height="5.33333" fill="white"/>
<rect x="117.333" y="133.333" width="5.33333" height="5.33333" fill="white"/>
<rect width="5.33333" height="5.33333" transform="matrix(-1 0 0 1 42.6667 122.667)" fill="black"/>
<rect width="5.33333" height="5.33333" transform="matrix(-1 0 0 1 42.6667 128)" fill="white"/>
<rect width="5.33333" height="5.33333" transform="matrix(-1 0 0 1 42.6667 133.333)" fill="white"/>
<rect x="117.333" y="122.667" width="5.33333" height="5.33333" fill="black"/>
<rect x="122.667" y="122.667" width="5.33333" height="5.33333" fill="white"/>
<rect x="122.667" y="128" width="5.33333" height="5.33333" fill="white"/>
<rect width="5.33333" height="5.33333" transform="matrix(-1 0 0 1 37.3333 117.333)" fill="black"/>
<rect width="5.33333" height="5.33333" transform="matrix(-1 0 0 1 37.3333 122.667)" fill="white"/>
<rect width="5.33333" height="5.33333" transform="matrix(-1 0 0 1 37.3333 128)" fill="white"/>
<rect x="122.667" y="117.333" width="5.33333" height="5.33333" fill="black"/>
<rect x="128" y="117.333" width="5.33333" height="5.33333" fill="white"/>
<rect x="128" y="122.667" width="5.33333" height="5.33333" fill="white"/>
<rect width="5.33333" height="5.33333" transform="matrix(-1 0 0 1 80 16)" fill="black"/>
<rect width="5.33333" height="5.33333" transform="matrix(-1 0 0 1 80 10.6665)" fill="white"/>
<rect x="80" y="16" width="5.33333" height="5.33333" fill="black"/>
<rect x="80" y="10.6665" width="5.33333" height="5.33333" fill="white"/>
<rect width="5.33333" height="5.33333" transform="matrix(-1 0 0 1 74.6667 16)" fill="black"/>
<rect width="5.33333" height="5.33333" transform="matrix(-1 0 0 1 74.6667 10.6665)" fill="white"/>
<rect x="85.3333" y="16" width="5.33333" height="5.33333" fill="black"/>
<rect x="85.3333" y="10.6665" width="5.33333" height="5.33333" fill="white"/>
<rect width="5.33333" height="5.33333" transform="matrix(-1 0 0 1 69.3333 16)" fill="black"/>
<rect width="5.33333" height="5.33333" transform="matrix(-1 0 0 1 69.3333 10.6665)" fill="white"/>
<rect x="90.6667" y="16" width="5.33333" height="5.33333" fill="black"/>
<rect x="90.6667" y="10.6665" width="5.33333" height="5.33333" fill="white"/>
<rect width="5.33333" height="5.33333" transform="matrix(-1 0 0 1 69.3333 16)" fill="black"/>
<rect width="5.33333" height="5.33333" transform="matrix(-1 0 0 1 69.3333 10.6665)" fill="white"/>
<rect x="90.6667" y="16" width="5.33333" height="5.33333" fill="black"/>
<rect x="90.6667" y="10.6665" width="5.33333" height="5.33333" fill="white"/>
<rect width="5.33333" height="5.33333" transform="matrix(-1 0 0 1 64 16)" fill="black"/>
<rect width="5.33333" height="5.33333" transform="matrix(-1 0 0 1 64 10.6665)" fill="white"/>
<rect x="96" y="16" width="5.33333" height="5.33333" fill="black"/>
<rect x="96" y="10.6665" width="5.33333" height="5.33333" fill="white"/>
<rect width="5.33333" height="5.33333" transform="matrix(-1 0 0 1 58.6667 16)" fill="black"/>
<rect width="5.33333" height="5.33333" transform="matrix(-1 0 0 1 58.6667 10.6665)" fill="white"/>
<rect x="101.333" y="16" width="5.33333" height="5.33333" fill="black"/>
<rect x="101.333" y="10.6665" width="5.33333" height="5.33333" fill="white"/>
<rect width="5.33333" height="5.33333" transform="matrix(-1 0 0 1 53.3333 21.3333)" fill="black"/>
<rect width="5.33333" height="5.33333" transform="matrix(-1 0 0 1 53.3333 16)" fill="white"/>
<rect width="5.33333" height="5.33333" transform="matrix(-1 0 0 1 53.3333 10.6665)" fill="white"/>
<rect x="106.667" y="21.3333" width="5.33333" height="5.33333" fill="black"/>
<rect x="106.667" y="16" width="5.33333" height="5.33333" fill="white"/>
<rect x="106.667" y="10.6665" width="5.33333" height="5.33333" fill="white"/>
<rect width="5.33333" height="5.33333" transform="matrix(-1 0 0 1 48 21.3333)" fill="black"/>
<rect width="5.33333" height="5.33333" transform="matrix(-1 0 0 1 48 16)" fill="white"/>
<rect x="112" y="21.3333" width="5.33333" height="5.33333" fill="black"/>
<rect x="112" y="16" width="5.33333" height="5.33333" fill="white"/>
<rect width="5.33333" height="5.33333" transform="matrix(-1 0 0 1 42.6667 26.6665)" fill="black"/>
<rect width="5.33333" height="5.33333" transform="matrix(-1 0 0 1 42.6667 21.3333)" fill="white"/>
<rect width="5.33333" height="5.33333" transform="matrix(-1 0 0 1 42.6667 16)" fill="white"/>
<rect x="117.333" y="26.6665" width="5.33333" height="5.33333" fill="black"/>
<rect x="117.333" y="21.3333" width="5.33333" height="5.33333" fill="white"/>
<rect x="117.333" y="16" width="5.33333" height="5.33333" fill="white"/>
<rect width="5.33333" height="5.33333" transform="matrix(-1 0 0 1 37.3333 26.6665)" fill="black"/>
<rect width="5.33333" height="5.33333" transform="matrix(-1 0 0 1 37.3333 21.3333)" fill="white"/>
<rect x="32" y="117.333" width="5.33333" height="5.33333" transform="rotate(180 32 117.333)" fill="black"/>
<rect x="32" y="122.667" width="5.33333" height="5.33333" transform="rotate(180 32 122.667)" fill="white"/>
<rect x="32" y="128" width="5.33333" height="5.33333" transform="rotate(180 32 128)" fill="white"/>
<rect x="122.667" y="26.6665" width="5.33333" height="5.33333" fill="black"/>
<rect x="122.667" y="21.3333" width="5.33333" height="5.33333" fill="white"/>
<rect width="5.33333" height="5.33333" transform="matrix(1 0 0 -1 128 117.333)" fill="black"/>
<rect width="5.33333" height="5.33333" transform="matrix(1 0 0 -1 133.333 117.333)" fill="white"/>
<rect width="5.33333" height="5.33333" transform="matrix(1 0 0 -1 133.333 122.667)" fill="white"/>
<rect width="5.33333" height="5.33333" transform="matrix(-1 0 0 1 32 32)" fill="black"/>
<rect width="5.33333" height="5.33333" transform="matrix(-1 0 0 1 32 26.6665)" fill="white"/>
<rect width="5.33333" height="5.33333" transform="matrix(-1 0 0 1 32 21.3333)" fill="white"/>
<rect x="26.6667" y="112" width="5.33333" height="5.33333" transform="rotate(180 26.6667 112)" fill="black"/>
<rect x="26.6667" y="117.333" width="5.33333" height="5.33333" transform="rotate(180 26.6667 117.333)" fill="white"/>
<rect x="26.6667" y="122.667" width="5.33333" height="5.33333" transform="rotate(180 26.6667 122.667)" fill="white"/>
<rect width="5.33333" height="5.33333" transform="matrix(-1 0 0 1 26.6667 37.3333)" fill="black"/>
<rect width="5.33333" height="5.33333" transform="matrix(-1 0 0 1 26.6667 32)" fill="white"/>
<rect width="5.33333" height="5.33333" transform="matrix(-1 0 0 1 26.6667 26.6665)" fill="white"/>
<rect x="26.6667" y="106.667" width="5.33333" height="5.33333" transform="rotate(180 26.6667 106.667)" fill="black"/>
<rect x="37.3333" y="101.333" width="5.33333" height="5.33333" transform="rotate(180 37.3333 101.333)" fill="black"/>
<rect x="133.333" y="96" width="5.33333" height="5.33333" transform="rotate(180 133.333 96)" fill="black"/>
<rect x="138.667" y="90.6665" width="5.33333" height="5.33333" transform="rotate(180 138.667 90.6665)" fill="black"/>
<rect x="32" y="96" width="5.33333" height="5.33333" transform="rotate(180 32 96)" fill="black"/>
<rect x="26.6667" y="90.6665" width="5.33333" height="5.33333" transform="rotate(180 26.6667 90.6665)" fill="black"/>
<rect width="5.33333" height="5.33333" transform="matrix(1 0 0 -1 122.667 101.333)" fill="black"/>
<rect x="42.6667" y="106.667" width="5.33333" height="5.33333" transform="rotate(180 42.6667 106.667)" fill="black"/>
<rect width="5.33333" height="5.33333" transform="matrix(1 0 0 -1 117.333 106.667)" fill="black"/>
<rect x="53.3333" y="112" width="5.33333" height="5.33333" transform="rotate(180 53.3333 112)" fill="black"/>
<rect x="53.3333" y="106.667" width="5.33333" height="5.33333" transform="rotate(180 53.3333 106.667)" fill="#D8ED59"/>
<rect width="5.33333" height="5.33333" transform="matrix(1 0 0 -1 106.667 112)" fill="black"/>
<rect width="5.33333" height="5.33333" transform="matrix(1 0 0 -1 106.667 106.667)" fill="#B7D600"/>
<rect x="64" y="112" width="5.33333" height="5.33333" transform="rotate(180 64 112)" fill="black"/>
<rect x="64" y="106.667" width="5.33333" height="5.33333" transform="rotate(180 64 106.667)" fill="#B7D600"/>
<rect x="64" y="101.333" width="5.33333" height="5.33333" transform="rotate(180 64 101.333)" fill="#B7D600"/>
<rect x="64" y="96" width="5.33333" height="5.33333" transform="rotate(180 64 96)" fill="#D8ED59"/>
<rect x="58.6667" y="96" width="5.33333" height="5.33333" transform="rotate(180 58.6667 96)" fill="#D193A5"/>
<rect x="53.3333" y="90.6665" width="5.33333" height="5.33333" transform="rotate(180 53.3333 90.6665)" fill="#F3EAEB"/>
<rect x="48" y="85.3333" width="5.33333" height="5.33333" transform="rotate(180 48 85.3333)" fill="#D193A5"/>
<rect x="53.3333" y="101.333" width="5.33333" height="5.33333" transform="rotate(180 53.3333 101.333)" fill="#D193A5"/>
<rect x="53.3333" y="96" width="5.33333" height="5.33333" transform="rotate(180 53.3333 96)" fill="#E9D4D6"/>
<rect x="48" y="101.333" width="5.33333" height="5.33333" transform="rotate(180 48 101.333)" fill="#D193A5"/>
<rect x="48" y="96" width="5.33333" height="5.33333" transform="rotate(180 48 96)" fill="#E9D4D6"/>
<rect x="48" y="90.6665" width="5.33333" height="5.33333" transform="rotate(180 48 90.6665)" fill="#D193A5"/>
<rect x="42.6667" y="85.3333" width="5.33333" height="5.33333" transform="rotate(180 42.6667 85.3333)" fill="#F3EAEB"/>
<rect x="42.6667" y="80" width="5.33333" height="5.33333" transform="rotate(180 42.6667 80)" fill="#D193A5"/>
<rect x="48" y="80" width="5.33333" height="5.33333" transform="rotate(180 48 80)" fill="#E9D4D6"/>
<rect x="42.6667" y="74.6665" width="5.33333" height="5.33333" transform="rotate(180 42.6667 74.6665)" fill="#FC8615"/>
<rect x="48" y="74.6665" width="5.33333" height="5.33333" transform="rotate(180 48 74.6665)" fill="#FFB26B"/>
<rect x="69.3333" y="90.6665" width="5.33333" height="5.33333" transform="rotate(180 69.3333 90.6665)" fill="#FC8615"/>
<rect x="90.6667" y="85.3333" width="5.33333" height="5.33333" transform="rotate(180 90.6667 85.3333)" fill="#FC8615"/>
<rect x="53.3333" y="74.6665" width="5.33333" height="5.33333" transform="rotate(180 53.3333 74.6665)" fill="#F17600"/>
<rect x="53.3333" y="80" width="5.33333" height="5.33333" transform="rotate(180 53.3333 80)" fill="#F17600"/>
<rect x="74.6667" y="90.6665" width="5.33333" height="5.33333" transform="rotate(180 74.6667 90.6665)" fill="#FFB26B"/>
<rect x="96" y="85.3333" width="5.33333" height="5.33333" transform="rotate(180 96 85.3333)" fill="#FFB26B"/>
<rect x="58.6667" y="74.6665" width="5.33333" height="5.33333" transform="rotate(180 58.6667 74.6665)" fill="#F17600"/>
<rect x="58.6667" y="80" width="5.33333" height="5.33333" transform="rotate(180 58.6667 80)" fill="#FD9E36"/>
<rect x="58.6667" y="85.3333" width="5.33333" height="5.33333" transform="rotate(180 58.6667 85.3333)" fill="#FD9E36"/>
<rect x="80" y="90.6665" width="5.33333" height="5.33333" transform="rotate(180 80 90.6665)" fill="#FC8615"/>
<rect x="101.333" y="85.3333" width="5.33333" height="5.33333" transform="rotate(180 101.333 85.3333)" fill="#FC8615"/>
<rect x="64" y="74.6665" width="5.33333" height="5.33333" transform="rotate(180 64 74.6665)" fill="#FD9E36"/>
<rect x="64" y="80" width="5.33333" height="5.33333" transform="rotate(180 64 80)" fill="#FFB26B"/>
<rect x="64" y="85.3333" width="5.33333" height="5.33333" transform="rotate(180 64 85.3333)" fill="#FD9E36"/>
<rect x="85.3333" y="90.6665" width="5.33333" height="5.33333" transform="rotate(180 85.3333 90.6665)" fill="#F17600"/>
<rect x="106.667" y="85.3333" width="5.33333" height="5.33333" transform="rotate(180 106.667 85.3333)" fill="#FC8615"/>
<rect x="42.6667" y="69.3333" width="5.33333" height="5.33333" transform="rotate(180 42.6667 69.3333)" fill="#FC8615"/>
<rect x="48" y="69.3333" width="5.33333" height="5.33333" transform="rotate(180 48 69.3333)" fill="#FC8615"/>
<rect x="69.3333" y="85.3333" width="5.33333" height="5.33333" transform="rotate(180 69.3333 85.3333)" fill="#FFB26B"/>
<rect x="90.6667" y="80" width="5.33333" height="5.33333" transform="rotate(180 90.6667 80)" fill="#FFB26B"/>
<rect x="53.3333" y="69.3333" width="5.33333" height="5.33333" transform="rotate(180 53.3333 69.3333)" fill="#FFB26B"/>
<rect x="74.6667" y="85.3333" width="5.33333" height="5.33333" transform="rotate(180 74.6667 85.3333)" fill="#FD9E36"/>
<rect x="96" y="80" width="5.33333" height="5.33333" transform="rotate(180 96 80)" fill="#FD9E36"/>
<rect x="58.6667" y="69.3333" width="5.33333" height="5.33333" transform="rotate(180 58.6667 69.3333)" fill="#FFB26B"/>
<rect x="80" y="85.3333" width="5.33333" height="5.33333" transform="rotate(180 80 85.3333)" fill="#FC8615"/>
<rect x="101.333" y="80" width="5.33333" height="5.33333" transform="rotate(180 101.333 80)" fill="#FD9E36"/>
<rect x="117.333" y="80" width="5.33333" height="5.33333" transform="rotate(180 117.333 80)" fill="#FC8615"/>
<rect x="112" y="80" width="5.33333" height="5.33333" transform="rotate(180 112 80)" fill="#F17600"/>
<rect x="64" y="69.3333" width="5.33333" height="5.33333" transform="rotate(180 64 69.3333)" fill="#F17600"/>
<rect x="85.3333" y="85.3333" width="5.33333" height="5.33333" transform="rotate(180 85.3333 85.3333)" fill="#F17600"/>
<rect x="106.667" y="80" width="5.33333" height="5.33333" transform="rotate(180 106.667 80)" fill="#FFB26B"/>
<rect x="122.667" y="80" width="5.33333" height="5.33333" transform="rotate(180 122.667 80)" fill="#FFB26B"/>
<rect x="42.6667" y="64" width="5.33333" height="5.33333" transform="rotate(180 42.6667 64)" fill="#FFB26B"/>
<rect x="48" y="64" width="5.33333" height="5.33333" transform="rotate(180 48 64)" fill="#FFB26B"/>
<rect x="69.3333" y="80" width="5.33333" height="5.33333" transform="rotate(180 69.3333 80)" fill="#FD9E36"/>
<rect x="90.6667" y="74.6665" width="5.33333" height="5.33333" transform="rotate(180 90.6667 74.6665)" fill="#FD9E36"/>
<rect x="53.3333" y="64" width="5.33333" height="5.33333" transform="rotate(180 53.3333 64)" fill="#FC8615"/>
<rect x="74.6667" y="80" width="5.33333" height="5.33333" transform="rotate(180 74.6667 80)" fill="#FD9E36"/>
<rect x="96" y="74.6665" width="5.33333" height="5.33333" transform="rotate(180 96 74.6665)" fill="#FD9E36"/>
<rect x="58.6667" y="64" width="5.33333" height="5.33333" transform="rotate(180 58.6667 64)" fill="#FFB26B"/>
<rect x="80" y="80" width="5.33333" height="5.33333" transform="rotate(180 80 80)" fill="#F17600"/>
<rect x="101.333" y="74.6665" width="5.33333" height="5.33333" transform="rotate(180 101.333 74.6665)" fill="#FFB26B"/>
<rect x="117.333" y="74.6665" width="5.33333" height="5.33333" transform="rotate(180 117.333 74.6665)" fill="#FD9E36"/>
<rect x="112" y="74.6665" width="5.33333" height="5.33333" transform="rotate(180 112 74.6665)" fill="#F17600"/>
<rect x="64" y="64" width="5.33333" height="5.33333" transform="rotate(180 64 64)" fill="#F17600"/>
<rect x="85.3333" y="80" width="5.33333" height="5.33333" transform="rotate(180 85.3333 80)" fill="#F17600"/>
<rect x="106.667" y="74.6665" width="5.33333" height="5.33333" transform="rotate(180 106.667 74.6665)" fill="#FC8615"/>
<rect x="122.667" y="74.6665" width="5.33333" height="5.33333" transform="rotate(180 122.667 74.6665)" fill="#FFB26B"/>
<rect x="42.6667" y="58.6665" width="5.33333" height="5.33333" transform="rotate(180 42.6667 58.6665)" fill="#D193A5"/>
<rect x="48" y="58.6665" width="5.33333" height="5.33333" transform="rotate(180 48 58.6665)" fill="#FD9E36"/>
<rect x="32" y="53.3333" width="5.33333" height="5.33333" transform="rotate(180 32 53.3333)" fill="#EE5600"/>
<rect x="37.3333" y="48" width="5.33333" height="5.33333" transform="rotate(180 37.3333 48)" fill="#FF5C00"/>
<rect x="48" y="48" width="5.33333" height="5.33333" transform="rotate(180 48 48)" fill="#D84E00"/>
<rect x="48" y="42.6665" width="5.33333" height="5.33333" transform="rotate(180 48 42.6665)" fill="#FF5C00"/>
<rect x="58.6667" y="42.6665" width="5.33333" height="5.33333" transform="rotate(180 58.6667 42.6665)" fill="#EE5600"/>
<rect x="58.6667" y="48" width="5.33333" height="5.33333" transform="rotate(180 58.6667 48)" fill="#D84E00"/>
<rect x="69.3333" y="42.6665" width="5.33333" height="5.33333" transform="rotate(180 69.3333 42.6665)" fill="#D84E00"/>
<rect x="58.6667" y="37.3333" width="5.33333" height="5.33333" transform="rotate(180 58.6667 37.3333)" fill="#EE5600"/>
<rect x="69.3333" y="37.3333" width="5.33333" height="5.33333" transform="rotate(180 69.3333 37.3333)" fill="#FF5C00"/>
<rect x="80" y="37.3333" width="5.33333" height="5.33333" transform="rotate(180 80 37.3333)" fill="#D84E00"/>
<rect x="42.6667" y="53.3333" width="5.33333" height="5.33333" transform="rotate(180 42.6667 53.3333)" fill="#D84E00"/>
<rect x="37.3333" y="53.3333" width="5.33333" height="5.33333" transform="rotate(180 37.3333 53.3333)" fill="#D84E00"/>
<rect x="42.6667" y="48" width="5.33333" height="5.33333" transform="rotate(180 42.6667 48)" fill="#EE5600"/>
<rect x="53.3333" y="48" width="5.33333" height="5.33333" transform="rotate(180 53.3333 48)" fill="#EE5600"/>
<rect x="53.3333" y="42.6665" width="5.33333" height="5.33333" transform="rotate(180 53.3333 42.6665)" fill="#D84E00"/>
<rect x="64" y="42.6665" width="5.33333" height="5.33333" transform="rotate(180 64 42.6665)" fill="#D84E00"/>
<rect x="64" y="48" width="5.33333" height="5.33333" transform="rotate(180 64 48)" fill="#FF5C00"/>
<rect x="74.6667" y="42.6665" width="5.33333" height="5.33333" transform="rotate(180 74.6667 42.6665)" fill="#EE5600"/>
<rect x="64" y="37.3333" width="5.33333" height="5.33333" transform="rotate(180 64 37.3333)" fill="#D84E00"/>
<rect x="74.6667" y="37.3333" width="5.33333" height="5.33333" transform="rotate(180 74.6667 37.3333)" fill="#EE5600"/>
<rect x="85.3333" y="37.3333" width="5.33333" height="5.33333" transform="rotate(180 85.3333 37.3333)" fill="#D84E00"/>
<rect x="90.6667" y="37.3333" width="5.33333" height="5.33333" transform="rotate(180 90.6667 37.3333)" fill="#FFC701"/>
<rect x="96" y="37.3333" width="5.33333" height="5.33333" transform="rotate(180 96 37.3333)" fill="#EBAD00"/>
<rect x="101.333" y="37.3333" width="5.33333" height="5.33333" transform="rotate(180 101.333 37.3333)" fill="#FBBD11"/>
<rect x="106.667" y="37.3333" width="5.33333" height="5.33333" transform="rotate(180 106.667 37.3333)" fill="#FFC701"/>
<rect x="106.667" y="42.6665" width="5.33333" height="5.33333" transform="rotate(180 106.667 42.6665)" fill="#FBBD11"/>
<rect x="117.333" y="48" width="5.33333" height="5.33333" transform="rotate(180 117.333 48)" fill="#EBAD00"/>
<rect x="122.667" y="53.3333" width="5.33333" height="5.33333" transform="rotate(180 122.667 53.3333)" fill="#FBBD11"/>
<rect x="128" y="58.6665" width="5.33333" height="5.33333" transform="rotate(180 128 58.6665)" fill="#EBAD00"/>
<rect x="112" y="42.6665" width="5.33333" height="5.33333" transform="rotate(180 112 42.6665)" fill="#EBAD00"/>
<rect x="122.667" y="48" width="5.33333" height="5.33333" transform="rotate(180 122.667 48)" fill="#FBBD11"/>
<rect x="128" y="53.3333" width="5.33333" height="5.33333" transform="rotate(180 128 53.3333)" fill="#FFC701"/>
<rect x="133.333" y="58.6665" width="5.33333" height="5.33333" transform="rotate(180 133.333 58.6665)" fill="#FFC701"/>
<rect x="133.333" y="64" width="5.33333" height="5.33333" transform="rotate(180 133.333 64)" fill="#BA514F"/>
<rect x="128" y="64" width="5.33333" height="5.33333" transform="rotate(180 128 64)" fill="#BA514F"/>
<rect x="133.333" y="69.3333" width="5.33333" height="5.33333" transform="rotate(180 133.333 69.3333)" fill="#E8E0DE"/>
<rect x="133.333" y="74.6665" width="5.33333" height="5.33333" transform="rotate(180 133.333 74.6665)" fill="#BA514F"/>
<rect x="133.333" y="80" width="5.33333" height="5.33333" transform="rotate(180 133.333 80)" fill="#E8E0DE"/>
<rect x="133.333" y="85.3333" width="5.33333" height="5.33333" transform="rotate(180 133.333 85.3333)" fill="#E6B9BB"/>
<rect x="128" y="85.3333" width="5.33333" height="5.33333" transform="rotate(180 128 85.3333)" fill="#E8E0DE"/>
<rect x="122.667" y="85.3333" width="5.33333" height="5.33333" transform="rotate(180 122.667 85.3333)" fill="#DE8388"/>
<rect x="117.333" y="85.3333" width="5.33333" height="5.33333" transform="rotate(180 117.333 85.3333)" fill="#BA514F"/>
<rect x="128" y="80" width="5.33333" height="5.33333" transform="rotate(180 128 80)" fill="#DE8388"/>
<rect x="128" y="74.6665" width="5.33333" height="5.33333" transform="rotate(180 128 74.6665)" fill="#E8E0DE"/>
<rect x="128" y="69.3333" width="5.33333" height="5.33333" transform="rotate(180 128 69.3333)" fill="#BA514F"/>
<rect x="90.6667" y="90.6665" width="5.33333" height="5.33333" transform="rotate(180 90.6667 90.6665)" fill="#7F9F4C"/>
<rect x="64" y="90.6665" width="5.33333" height="5.33333" transform="rotate(180 64 90.6665)" fill="#7F9F4C"/>
<rect x="58.6667" y="90.6665" width="5.33333" height="5.33333" transform="rotate(180 58.6667 90.6665)" fill="#7F9F4C"/>
<rect x="53.3333" y="85.3333" width="5.33333" height="5.33333" transform="rotate(180 53.3333 85.3333)" fill="#7F9F4C"/>
<rect x="96" y="90.6665" width="5.33333" height="5.33333" transform="rotate(180 96 90.6665)" fill="#7F9F4C"/>
<rect x="101.333" y="90.6665" width="5.33333" height="5.33333" transform="rotate(180 101.333 90.6665)" fill="#7F9F4C"/>
<rect x="128" y="90.6665" width="5.33333" height="5.33333" transform="rotate(180 128 90.6665)" fill="#BA514F"/>
<rect x="138.667" y="64" width="5.33333" height="5.33333" transform="rotate(180 138.667 64)" fill="#BA514F"/>
<rect x="138.667" y="69.3333" width="5.33333" height="5.33333" transform="rotate(180 138.667 69.3333)" fill="#E6B9BB"/>
<rect x="138.667" y="74.6665" width="5.33333" height="5.33333" transform="rotate(180 138.667 74.6665)" fill="#DE8388"/>
<rect x="138.667" y="80" width="5.33333" height="5.33333" transform="rotate(180 138.667 80)" fill="#E6B9BB"/>
<rect x="138.667" y="85.3333" width="5.33333" height="5.33333" transform="rotate(180 138.667 85.3333)" fill="#E6B9BB"/>
<rect x="133.333" y="90.6665" width="5.33333" height="5.33333" transform="rotate(180 133.333 90.6665)" fill="#BA514F"/>
<rect x="117.333" y="42.6665" width="5.33333" height="5.33333" transform="rotate(180 117.333 42.6665)" fill="#FFC701"/>
<rect x="128" y="48" width="5.33333" height="5.33333" transform="rotate(180 128 48)" fill="#EBAD00"/>
<rect x="133.333" y="53.3333" width="5.33333" height="5.33333" transform="rotate(180 133.333 53.3333)" fill="#EBAD00"/>
<rect x="138.667" y="58.6665" width="5.33333" height="5.33333" transform="rotate(180 138.667 58.6665)" fill="#EBAD00"/>
<rect x="48" y="53.3333" width="5.33333" height="5.33333" transform="rotate(180 48 53.3333)" fill="#EE5600"/>
<rect x="69.3333" y="74.6665" width="5.33333" height="5.33333" transform="rotate(180 69.3333 74.6665)" fill="#FFB26B"/>
<rect x="90.6667" y="69.3333" width="5.33333" height="5.33333" transform="rotate(180 90.6667 69.3333)" fill="#F17600"/>
<rect x="90.6667" y="64" width="5.33333" height="5.33333" transform="rotate(180 90.6667 64)" fill="#FFB26B"/>
<rect x="90.6667" y="58.6665" width="5.33333" height="5.33333" transform="rotate(180 90.6667 58.6665)" fill="#F17600"/>
<rect x="90.6667" y="53.3333" width="5.33333" height="5.33333" transform="rotate(180 90.6667 53.3333)" fill="#FFB26B"/>
<rect x="90.6667" y="48" width="5.33333" height="5.33333" transform="rotate(180 90.6667 48)" fill="#FC8615"/>
<rect x="90.6667" y="42.6665" width="5.33333" height="5.33333" transform="rotate(180 90.6667 42.6665)" fill="#F17600"/>
<rect x="69.3333" y="69.3333" width="5.33333" height="5.33333" transform="rotate(180 69.3333 69.3333)" fill="#F17600"/>
<rect x="69.3333" y="64" width="5.33333" height="5.33333" transform="rotate(180 69.3333 64)" fill="#FC8615"/>
<rect x="69.3333" y="58.6665" width="5.33333" height="5.33333" transform="rotate(180 69.3333 58.6665)" fill="#FFB26B"/>
<rect x="69.3333" y="53.3333" width="5.33333" height="5.33333" transform="rotate(180 69.3333 53.3333)" fill="#F17600"/>
<rect x="69.3333" y="48" width="5.33333" height="5.33333" transform="rotate(180 69.3333 48)" fill="#FFB26B"/>
<rect x="53.3333" y="58.6665" width="5.33333" height="5.33333" transform="rotate(180 53.3333 58.6665)" fill="#FD9E36"/>
<rect x="53.3333" y="53.3333" width="5.33333" height="5.33333" transform="rotate(180 53.3333 53.3333)" fill="#FD9E36"/>
<rect x="74.6667" y="74.6665" width="5.33333" height="5.33333" transform="rotate(180 74.6667 74.6665)" fill="#F17600"/>
<rect x="96" y="69.3333" width="5.33333" height="5.33333" transform="rotate(180 96 69.3333)" fill="#F17600"/>
<rect x="96" y="64" width="5.33333" height="5.33333" transform="rotate(180 96 64)" fill="#FFB26B"/>
<rect x="96" y="58.6665" width="5.33333" height="5.33333" transform="rotate(180 96 58.6665)" fill="#F17600"/>
<rect x="96" y="53.3333" width="5.33333" height="5.33333" transform="rotate(180 96 53.3333)" fill="#F17600"/>
<rect x="96" y="48" width="5.33333" height="5.33333" transform="rotate(180 96 48)" fill="#F17600"/>
<rect x="96" y="42.6665" width="5.33333" height="5.33333" transform="rotate(180 96 42.6665)" fill="#FD9E36"/>
<rect x="74.6667" y="69.3333" width="5.33333" height="5.33333" transform="rotate(180 74.6667 69.3333)" fill="#FC8615"/>
<rect x="74.6667" y="64" width="5.33333" height="5.33333" transform="rotate(180 74.6667 64)" fill="#FFB26B"/>
<rect x="74.6667" y="58.6665" width="5.33333" height="5.33333" transform="rotate(180 74.6667 58.6665)" fill="#FD9E36"/>
<rect x="74.6667" y="53.3333" width="5.33333" height="5.33333" transform="rotate(180 74.6667 53.3333)" fill="#F17600"/>
<rect x="74.6667" y="48" width="5.33333" height="5.33333" transform="rotate(180 74.6667 48)" fill="#FD9E36"/>
<rect x="112" y="69.3333" width="5.33333" height="5.33333" transform="rotate(180 112 69.3333)" fill="#FD9E36"/>
<rect x="112" y="64" width="5.33333" height="5.33333" transform="rotate(180 112 64)" fill="#F17600"/>
<rect x="112" y="58.6665" width="5.33333" height="5.33333" transform="rotate(180 112 58.6665)" fill="#FF015C"/>
<rect x="112" y="53.3333" width="5.33333" height="5.33333" transform="rotate(180 112 53.3333)" fill="#FFB26B"/>
<rect x="112" y="48" width="5.33333" height="5.33333" transform="rotate(180 112 48)" fill="#FFC701"/>
<rect x="58.6667" y="58.6665" width="5.33333" height="5.33333" transform="rotate(180 58.6667 58.6665)" fill="#FFB26B"/>
<rect x="58.6667" y="53.3333" width="5.33333" height="5.33333" transform="rotate(180 58.6667 53.3333)" fill="#FFB26B"/>
<rect x="80" y="74.6665" width="5.33333" height="5.33333" transform="rotate(180 80 74.6665)" fill="#FC8615"/>
<rect x="101.333" y="69.3333" width="5.33333" height="5.33333" transform="rotate(180 101.333 69.3333)" fill="#FD9E36"/>
<rect x="101.333" y="64" width="5.33333" height="5.33333" transform="rotate(180 101.333 64)" fill="#F17600"/>
<rect x="101.333" y="58.6665" width="5.33333" height="5.33333" transform="rotate(180 101.333 58.6665)" fill="#FD9E36"/>
<rect x="101.333" y="53.3333" width="5.33333" height="5.33333" transform="rotate(180 101.333 53.3333)" fill="#DA004E"/>
<rect x="101.333" y="48" width="5.33333" height="5.33333" transform="rotate(180 101.333 48)" fill="#FF015C"/>
<rect x="101.333" y="42.6665" width="5.33333" height="5.33333" transform="rotate(180 101.333 42.6665)" fill="#EBAD00"/>
<rect x="80" y="69.3333" width="5.33333" height="5.33333" transform="rotate(180 80 69.3333)" fill="#FFB26B"/>
<rect x="80" y="64" width="5.33333" height="5.33333" transform="rotate(180 80 64)" fill="#FD9E36"/>
<rect x="80" y="58.6665" width="5.33333" height="5.33333" transform="rotate(180 80 58.6665)" fill="#FD9E36"/>
<rect x="80" y="53.3333" width="5.33333" height="5.33333" transform="rotate(180 80 53.3333)" fill="#F17600"/>
<rect x="80" y="48" width="5.33333" height="5.33333" transform="rotate(180 80 48)" fill="#FD9E36"/>
<rect x="80" y="42.6665" width="5.33333" height="5.33333" transform="rotate(180 80 42.6665)" fill="#FFB26B"/>
<rect x="117.333" y="69.3333" width="5.33333" height="5.33333" transform="rotate(180 117.333 69.3333)" fill="#FFB26B"/>
<rect x="117.333" y="64" width="5.33333" height="5.33333" transform="rotate(180 117.333 64)" fill="#DA004E"/>
<rect x="117.333" y="58.6665" width="5.33333" height="5.33333" transform="rotate(180 117.333 58.6665)" fill="#DA004E"/>
<rect x="117.333" y="53.3333" width="5.33333" height="5.33333" transform="rotate(180 117.333 53.3333)" fill="#EBAD00"/>
<rect x="64" y="58.6665" width="5.33333" height="5.33333" transform="rotate(180 64 58.6665)" fill="#F17600"/>
<rect x="64" y="53.3333" width="5.33333" height="5.33333" transform="rotate(180 64 53.3333)" fill="#F17600"/>
<rect x="85.3333" y="74.6665" width="5.33333" height="5.33333" transform="rotate(180 85.3333 74.6665)" fill="#F17600"/>
<rect x="106.667" y="69.3333" width="5.33333" height="5.33333" transform="rotate(180 106.667 69.3333)" fill="#F17600"/>
<rect x="106.667" y="64" width="5.33333" height="5.33333" transform="rotate(180 106.667 64)" fill="#F17600"/>
<rect x="106.667" y="58.6665" width="5.33333" height="5.33333" transform="rotate(180 106.667 58.6665)" fill="#FFB26B"/>
<rect x="106.667" y="53.3333" width="5.33333" height="5.33333" transform="rotate(180 106.667 53.3333)" fill="#FF015C"/>
<rect x="106.667" y="48" width="5.33333" height="5.33333" transform="rotate(180 106.667 48)" fill="#FF015C"/>
<rect x="85.3333" y="69.3333" width="5.33333" height="5.33333" transform="rotate(180 85.3333 69.3333)" fill="#FFB26B"/>
<rect x="85.3333" y="64" width="5.33333" height="5.33333" transform="rotate(180 85.3333 64)" fill="#FD9E36"/>
<rect x="85.3333" y="58.6665" width="5.33333" height="5.33333" transform="rotate(180 85.3333 58.6665)" fill="#FFB26B"/>
<rect x="85.3333" y="53.3333" width="5.33333" height="5.33333" transform="rotate(180 85.3333 53.3333)" fill="#F17600"/>
<rect x="85.3333" y="48" width="5.33333" height="5.33333" transform="rotate(180 85.3333 48)" fill="#FFB26B"/>
<rect x="85.3333" y="42.6665" width="5.33333" height="5.33333" transform="rotate(180 85.3333 42.6665)" fill="#FD9E36"/>
<rect x="122.667" y="69.3333" width="5.33333" height="5.33333" transform="rotate(180 122.667 69.3333)" fill="#FC8615"/>
<rect x="122.667" y="64" width="5.33333" height="5.33333" transform="rotate(180 122.667 64)" fill="#FC8615"/>
<rect x="122.667" y="58.6665" width="5.33333" height="5.33333" transform="rotate(180 122.667 58.6665)" fill="#EBAD00"/>
<rect x="42.6667" y="101.333" width="5.33333" height="5.33333" transform="rotate(180 42.6667 101.333)" fill="#E9D4D6"/>
<rect x="42.6667" y="96" width="5.33333" height="5.33333" transform="rotate(180 42.6667 96)" fill="#D193A5"/>
<rect x="42.6667" y="90.6665" width="5.33333" height="5.33333" transform="rotate(180 42.6667 90.6665)" fill="#F3EAEB"/>
<rect x="37.3333" y="85.3333" width="5.33333" height="5.33333" transform="rotate(180 37.3333 85.3333)" fill="#D193A5"/>
<rect x="37.3333" y="80" width="5.33333" height="5.33333" transform="rotate(180 37.3333 80)" fill="#E9D4D6"/>
<rect x="37.3333" y="74.6665" width="5.33333" height="5.33333" transform="rotate(180 37.3333 74.6665)" fill="#D193A5"/>
<rect x="37.3333" y="69.3333" width="5.33333" height="5.33333" transform="rotate(180 37.3333 69.3333)" fill="#E9D4D6"/>
<rect x="37.3333" y="64" width="5.33333" height="5.33333" transform="rotate(180 37.3333 64)" fill="#E9D4D6"/>
<rect x="37.3333" y="58.6665" width="5.33333" height="5.33333" transform="rotate(180 37.3333 58.6665)" fill="#D193A5"/>
<rect x="37.3333" y="96" width="5.33333" height="5.33333" transform="rotate(180 37.3333 96)" fill="#E9D4D6"/>
<rect x="37.3333" y="90.6665" width="5.33333" height="5.33333" transform="rotate(180 37.3333 90.6665)" fill="#F3EAEB"/>
<rect x="32" y="85.3333" width="5.33333" height="5.33333" transform="rotate(180 32 85.3333)" fill="#E9D4D6"/>
<rect x="32" y="80" width="5.33333" height="5.33333" transform="rotate(180 32 80)" fill="#D193A5"/>
<rect x="32" y="74.6665" width="5.33333" height="5.33333" transform="rotate(180 32 74.6665)" fill="#F3EAEB"/>
<rect x="32" y="69.3333" width="5.33333" height="5.33333" transform="rotate(180 32 69.3333)" fill="#D193A5"/>
<rect x="32" y="64" width="5.33333" height="5.33333" transform="rotate(180 32 64)" fill="#E9D4D6"/>
<rect x="32" y="58.6665" width="5.33333" height="5.33333" transform="rotate(180 32 58.6665)" fill="#F3EAEB"/>
<rect x="26.6667" y="58.6665" width="5.33333" height="5.33333" transform="rotate(180 26.6667 58.6665)" fill="#D193A5"/>
<rect x="32" y="90.6665" width="5.33333" height="5.33333" transform="rotate(180 32 90.6665)" fill="#D193A5"/>
<rect x="26.6667" y="85.3333" width="5.33333" height="5.33333" transform="rotate(180 26.6667 85.3333)" fill="#E9D4D6"/>
<rect x="26.6667" y="80" width="5.33333" height="5.33333" transform="rotate(180 26.6667 80)" fill="#D193A5"/>
<rect x="26.6667" y="74.6665" width="5.33333" height="5.33333" transform="rotate(180 26.6667 74.6665)" fill="#E9D4D6"/>
<rect x="26.6667" y="69.3333" width="5.33333" height="5.33333" transform="rotate(180 26.6667 69.3333)" fill="#F3EAEB"/>
<rect x="26.6667" y="64" width="5.33333" height="5.33333" transform="rotate(180 26.6667 64)" fill="#D193A5"/>
<rect width="5.33333" height="5.33333" transform="matrix(1 0 0 -1 96 112)" fill="black"/>
<rect width="5.33333" height="5.33333" transform="matrix(1 0 0 -1 96 106.667)" fill="#B7D600"/>
<rect width="5.33333" height="5.33333" transform="matrix(1 0 0 -1 96 101.333)" fill="#D8ED59"/>
<rect width="5.33333" height="5.33333" transform="matrix(1 0 0 -1 96 96)" fill="#D8ED59"/>
<rect width="5.33333" height="5.33333" transform="matrix(1 0 0 -1 101.333 96)" fill="#D8ED59"/>
<rect width="5.33333" height="5.33333" transform="matrix(1 0 0 -1 101.333 90.6665)" fill="#9DB703"/>
<rect width="5.33333" height="5.33333" transform="matrix(1 0 0 -1 106.667 90.6665)" fill="#D8ED59"/>
<rect width="5.33333" height="5.33333" transform="matrix(1 0 0 -1 106.667 85.3333)" fill="#D8ED59"/>
<rect width="5.33333" height="5.33333" transform="matrix(1 0 0 -1 112 90.6665)" fill="#B7D600"/>
<rect width="5.33333" height="5.33333" transform="matrix(1 0 0 -1 117.333 90.6665)" fill="#9DB703"/>
<rect width="5.33333" height="5.33333" transform="matrix(1 0 0 -1 122.667 96)" fill="#9DB703"/>
<rect x="48" y="106.667" width="5.33333" height="5.33333" transform="rotate(180 48 106.667)" fill="black"/>
<rect width="5.33333" height="5.33333" transform="matrix(1 0 0 -1 112 106.667)" fill="black"/>
<rect x="58.6667" y="112" width="5.33333" height="5.33333" transform="rotate(180 58.6667 112)" fill="black"/>
<rect x="58.6667" y="106.667" width="5.33333" height="5.33333" transform="rotate(180 58.6667 106.667)" fill="#B7D600"/>
<rect x="58.6667" y="101.333" width="5.33333" height="5.33333" transform="rotate(180 58.6667 101.333)" fill="#D8ED59"/>
<rect width="5.33333" height="5.33333" transform="matrix(1 0 0 -1 101.333 112)" fill="black"/>
<rect width="5.33333" height="5.33333" transform="matrix(1 0 0 -1 101.333 106.667)" fill="#9DB703"/>
<rect width="5.33333" height="5.33333" transform="matrix(1 0 0 -1 101.333 101.333)" fill="#B7D600"/>
<rect width="5.33333" height="5.33333" transform="matrix(1 0 0 -1 106.667 101.333)" fill="#9DB703"/>
<rect width="5.33333" height="5.33333" transform="matrix(1 0 0 -1 112 101.333)" fill="#D8ED59"/>
<rect width="5.33333" height="5.33333" transform="matrix(1 0 0 -1 117.333 101.333)" fill="#B7D600"/>
<rect width="5.33333" height="5.33333" transform="matrix(1 0 0 -1 106.667 96)" fill="#9DB703"/>
<rect width="5.33333" height="5.33333" transform="matrix(1 0 0 -1 112 96)" fill="#D8ED59"/>
<rect width="5.33333" height="5.33333" transform="matrix(1 0 0 -1 117.333 96)" fill="#B7D600"/>
<rect x="69.3333" y="112" width="5.33333" height="5.33333" transform="rotate(180 69.3333 112)" fill="black"/>
<rect x="69.3333" y="106.667" width="5.33333" height="5.33333" transform="rotate(180 69.3333 106.667)" fill="#9DB703"/>
<rect x="69.3333" y="101.333" width="5.33333" height="5.33333" transform="rotate(180 69.3333 101.333)" fill="#B7D600"/>
<rect x="69.3333" y="96" width="5.33333" height="5.33333" transform="rotate(180 69.3333 96)" fill="#B7D600"/>
<rect width="5.33333" height="5.33333" transform="matrix(1 0 0 -1 90.6667 112)" fill="black"/>
<rect width="5.33333" height="5.33333" transform="matrix(1 0 0 -1 90.6667 106.667)" fill="#D8ED59"/>
<rect width="5.33333" height="5.33333" transform="matrix(1 0 0 -1 90.6667 101.333)" fill="#9DB703"/>
<rect width="5.33333" height="5.33333" transform="matrix(1 0 0 -1 90.6667 96)" fill="#9DB703"/>
<rect x="74.6667" y="112" width="5.33333" height="5.33333" transform="rotate(180 74.6667 112)" fill="black"/>
<rect x="74.6667" y="106.667" width="5.33333" height="5.33333" transform="rotate(180 74.6667 106.667)" fill="#D8ED59"/>
<rect x="74.6667" y="101.333" width="5.33333" height="5.33333" transform="rotate(180 74.6667 101.333)" fill="#9DB703"/>
<rect x="74.6667" y="96" width="5.33333" height="5.33333" transform="rotate(180 74.6667 96)" fill="#9DB703"/>
<rect width="5.33333" height="5.33333" transform="matrix(1 0 0 -1 85.3333 112)" fill="black"/>
<rect width="5.33333" height="5.33333" transform="matrix(1 0 0 -1 85.3333 106.667)" fill="#9DB703"/>
<rect width="5.33333" height="5.33333" transform="matrix(1 0 0 -1 85.3333 101.333)" fill="#B7D600"/>
<rect width="5.33333" height="5.33333" transform="matrix(1 0 0 -1 85.3333 96)" fill="#B7D600"/>
<rect x="80" y="112" width="5.33333" height="5.33333" transform="rotate(180 80 112)" fill="black"/>
<rect x="80" y="106.667" width="5.33333" height="5.33333" transform="rotate(180 80 106.667)" fill="#B7D600"/>
<rect x="80" y="101.333" width="5.33333" height="5.33333" transform="rotate(180 80 101.333)" fill="#D8ED59"/>
<rect x="80" y="96" width="5.33333" height="5.33333" transform="rotate(180 80 96)" fill="#D8ED59"/>
<rect width="5.33333" height="5.33333" transform="matrix(1 0 0 -1 80 112)" fill="black"/>
<rect width="5.33333" height="5.33333" transform="matrix(1 0 0 -1 80 106.667)" fill="#B7D600"/>
<rect width="5.33333" height="5.33333" transform="matrix(1 0 0 -1 80 101.333)" fill="#B7D600"/>
<rect width="5.33333" height="5.33333" transform="matrix(1 0 0 -1 80 96)" fill="#D8ED59"/>
<rect x="133.333" y="37.3333" width="5.33333" height="5.33333" fill="black"/>
<rect x="133.333" y="32" width="5.33333" height="5.33333" fill="white"/>
<rect x="133.333" y="26.6665" width="5.33333" height="5.33333" fill="white"/>
<rect width="5.33333" height="5.33333" transform="matrix(1 0 0 -1 133.333 106.667)" fill="black"/>
<rect width="5.33333" height="5.33333" transform="matrix(1 0 0 -1 138.667 106.667)" fill="white"/>
<rect x="128" y="32" width="5.33333" height="5.33333" fill="black"/>
<rect x="128" y="26.6665" width="5.33333" height="5.33333" fill="white"/>
<rect x="128" y="21.3333" width="5.33333" height="5.33333" fill="white"/>
<rect width="5.33333" height="5.33333" transform="matrix(1 0 0 -1 133.333 112)" fill="black"/>
<rect width="5.33333" height="5.33333" transform="matrix(1 0 0 -1 138.667 112)" fill="white"/>
<rect width="5.33333" height="5.33333" transform="matrix(1 0 0 -1 138.667 117.333)" fill="white"/>
<rect width="5.33333" height="5.33333" transform="matrix(-1 0 0 1 16 58.6665)" fill="black"/>
<rect width="5.33333" height="5.33333" transform="matrix(-1 0 0 1 10.6667 58.6665)" fill="white"/>
<rect width="5.33333" height="5.33333" transform="matrix(-1 0 0 1 16 53.3333)" fill="black"/>
<rect width="5.33333" height="5.33333" transform="matrix(-1 0 0 1 10.6667 53.3333)" fill="white"/>
<rect width="5.33333" height="5.33333" transform="matrix(-1 0 0 1 16 48)" fill="black"/>
<rect width="5.33333" height="5.33333" transform="matrix(-1 0 0 1 10.6667 48)" fill="white"/>
<rect width="5.33333" height="5.33333" transform="matrix(-1 0 0 1 10.6667 42.6665)" fill="white"/>
<rect width="5.33333" height="5.33333" transform="matrix(-1 0 0 1 16 42.6665)" fill="white"/>
<rect width="5.33333" height="5.33333" transform="matrix(-1 0 0 1 16 37.3333)" fill="white"/>
<rect width="5.33333" height="5.33333" transform="matrix(-1 0 0 1 21.3333 42.6665)" fill="black"/>
<rect width="5.33333" height="5.33333" transform="matrix(-1 0 0 1 21.3333 37.3333)" fill="white"/>
<rect width="5.33333" height="5.33333" transform="matrix(-1 0 0 1 21.3333 32)" fill="white"/>
<rect x="21.3333" y="101.333" width="5.33333" height="5.33333" transform="rotate(180 21.3333 101.333)" fill="black"/>
<rect x="21.3333" y="106.667" width="5.33333" height="5.33333" transform="rotate(180 21.3333 106.667)" fill="white"/>
<rect x="21.3333" y="112" width="5.33333" height="5.33333" transform="rotate(180 21.3333 112)" fill="white"/>
<rect x="21.3333" y="117.333" width="5.33333" height="5.33333" transform="rotate(180 21.3333 117.333)" fill="white"/>
<rect x="144" y="58.6665" width="5.33333" height="5.33333" fill="black"/>
<rect x="149.333" y="58.6665" width="5.33333" height="5.33333" fill="white"/>
<rect x="144" y="53.3333" width="5.33333" height="5.33333" fill="black"/>
<rect x="149.333" y="53.3333" width="5.33333" height="5.33333" fill="white"/>
<rect x="144" y="48" width="5.33333" height="5.33333" fill="black"/>
<rect x="149.333" y="48" width="5.33333" height="5.33333" fill="white"/>
<rect x="149.333" y="42.6665" width="5.33333" height="5.33333" fill="white"/>
<rect x="144" y="42.6665" width="5.33333" height="5.33333" fill="white"/>
<rect x="144" y="37.3333" width="5.33333" height="5.33333" fill="white"/>
<rect x="138.667" y="42.6665" width="5.33333" height="5.33333" fill="black"/>
<rect x="138.667" y="37.3333" width="5.33333" height="5.33333" fill="white"/>
<rect x="138.667" y="32" width="5.33333" height="5.33333" fill="white"/>
<rect width="5.33333" height="5.33333" transform="matrix(1 0 0 -1 138.667 101.333)" fill="black"/>
<rect width="5.33333" height="5.33333" transform="matrix(1 0 0 -1 144 101.333)" fill="white"/>
<rect width="5.33333" height="5.33333" transform="matrix(1 0 0 -1 144 106.667)" fill="white"/>
<rect width="5.33333" height="5.33333" transform="matrix(-1 0 0 1 16 64)" fill="black"/>
<rect width="5.33333" height="5.33333" transform="matrix(-1 0 0 1 10.6667 64)" fill="white"/>
<rect x="144" y="64" width="5.33333" height="5.33333" fill="black"/>
<rect x="149.333" y="64" width="5.33333" height="5.33333" fill="white"/>
<rect width="5.33333" height="5.33333" transform="matrix(-1 0 0 1 16 69.3333)" fill="black"/>
<rect width="5.33333" height="5.33333" transform="matrix(-1 0 0 1 10.6667 69.3333)" fill="white"/>
<rect x="144" y="69.3333" width="5.33333" height="5.33333" fill="black"/>
<rect x="149.333" y="69.3333" width="5.33333" height="5.33333" fill="white"/>
<rect width="5.33333" height="5.33333" transform="matrix(-1 0 0 1 16 74.6665)" fill="black"/>
<rect width="5.33333" height="5.33333" transform="matrix(-1 0 0 1 10.6667 74.6665)" fill="white"/>
<rect x="144" y="74.6665" width="5.33333" height="5.33333" fill="black"/>
<rect x="149.333" y="74.6665" width="5.33333" height="5.33333" fill="white"/>
<rect width="5.33333" height="5.33333" transform="matrix(-1 0 0 1 16 80)" fill="black"/>
<rect width="5.33333" height="5.33333" transform="matrix(-1 0 0 1 10.6667 80)" fill="white"/>
<rect width="5.33333" height="5.33333" transform="matrix(-1 0 0 1 16 90.6665)" fill="black"/>
<rect width="5.33333" height="5.33333" transform="matrix(-1 0 0 1 10.6667 90.6665)" fill="white"/>
<rect width="5.33333" height="5.33333" transform="matrix(-1 0 0 1 10.6667 96)" fill="white"/>
<rect width="5.33333" height="5.33333" transform="matrix(-1 0 0 1 16 96)" fill="white"/>
<rect width="5.33333" height="5.33333" transform="matrix(-1 0 0 1 16 101.333)" fill="white"/>
<rect width="5.33333" height="5.33333" transform="matrix(-1 0 0 1 16 85.3333)" fill="black"/>
<rect width="5.33333" height="5.33333" transform="matrix(-1 0 0 1 10.6667 85.3333)" fill="white"/>
<rect x="144" y="90.6665" width="5.33333" height="5.33333" fill="black"/>
<rect x="149.333" y="90.6665" width="5.33333" height="5.33333" fill="white"/>
<rect x="149.333" y="96" width="5.33333" height="5.33333" fill="white"/>
<rect x="144" y="85.3333" width="5.33333" height="5.33333" fill="black"/>
<rect x="149.333" y="85.3333" width="5.33333" height="5.33333" fill="white"/>
<rect x="144" y="80" width="5.33333" height="5.33333" fill="black"/>
<rect x="149.333" y="80" width="5.33333" height="5.33333" fill="white"/>
<rect width="5.33333" height="5.33333" transform="matrix(-1 0 0 1 53.3333 112)" fill="#EFBB6B"/>
<rect width="5.33333" height="5.33333" transform="matrix(-1 0 0 1 48 112)" fill="#D69F4C"/>
<rect width="5.33333" height="5.33333" transform="matrix(-1 0 0 1 42.6667 106.667)" fill="#EFBB6B"/>
<rect width="5.33333" height="5.33333" transform="matrix(-1 0 0 1 48 106.667)" fill="#EFBB6B"/>
<rect width="5.33333" height="5.33333" transform="matrix(-1 0 0 1 37.3333 101.333)" fill="#EFBB6B"/>
<rect width="5.33333" height="5.33333" transform="matrix(-1 0 0 1 32 96)" fill="#EFBB6B"/>
<rect width="5.33333" height="5.33333" transform="matrix(-1 0 0 1 26.6667 96)" fill="#D69F4C"/>
<rect width="5.33333" height="5.33333" transform="matrix(-1 0 0 1 26.6667 90.6665)" fill="#EFBB6B"/>
<rect width="5.33333" height="5.33333" transform="matrix(-1 0 0 1 21.3333 90.6665)" fill="#D69F4C"/>
<rect width="5.33333" height="5.33333" transform="matrix(-1 0 0 1 21.3333 85.3333)" fill="#EFBB6B"/>
<rect width="5.33333" height="5.33333" transform="matrix(-1 0 0 1 21.3333 80)" fill="#EFBB6B"/>
<rect width="5.33333" height="5.33333" transform="matrix(-1 0 0 1 144 80)" fill="#B47B25"/>
<rect width="5.33333" height="5.33333" transform="matrix(-1 0 0 1 21.3333 74.6665)" fill="#D69F4C"/>
<rect width="5.33333" height="5.33333" transform="matrix(-1 0 0 1 144 74.6665)" fill="#B47B25"/>
<rect width="5.33333" height="5.33333" transform="matrix(-1 0 0 1 21.3333 69.3333)" fill="#D69F4C"/>
<rect width="5.33333" height="5.33333" transform="matrix(-1 0 0 1 144 69.3333)" fill="#D69F4C"/>
<rect width="5.33333" height="5.33333" transform="matrix(-1 0 0 1 21.3333 64)" fill="#EFBB6B"/>
<rect width="5.33333" height="5.33333" transform="matrix(-1 0 0 1 144 64)" fill="#D69F4C"/>
<rect width="5.33333" height="5.33333" transform="matrix(-1 0 0 1 21.3333 58.6665)" fill="#EFBB6B"/>
<rect width="5.33333" height="5.33333" transform="matrix(-1 0 0 1 144 58.6665)" fill="#D69F4C"/>
<rect width="5.33333" height="5.33333" transform="matrix(-1 0 0 1 21.3333 53.3333)" fill="#D69F4C"/>
<rect width="5.33333" height="5.33333" transform="matrix(-1 0 0 1 144 53.3333)" fill="#D69F4C"/>
<rect width="5.33333" height="5.33333" transform="matrix(-1 0 0 1 21.3333 48)" fill="#EFBB6B"/>
<rect width="5.33333" height="5.33333" transform="matrix(-1 0 0 1 26.6667 48)" fill="#B47B25"/>
<rect width="5.33333" height="5.33333" transform="matrix(-1 0 0 1 32 42.6665)" fill="#B47B25"/>
<rect width="5.33333" height="5.33333" transform="matrix(-1 0 0 1 37.3333 37.3333)" fill="#B47B25"/>
<rect width="5.33333" height="5.33333" transform="matrix(-1 0 0 1 48 32)" fill="#B47B25"/>
<rect width="5.33333" height="5.33333" transform="matrix(-1 0 0 1 58.6667 26.6665)" fill="#B47B25"/>
<rect width="5.33333" height="5.33333" transform="matrix(-1 0 0 1 69.3333 26.6665)" fill="#B47B25"/>
<rect width="5.33333" height="5.33333" transform="matrix(-1 0 0 1 80 26.6665)" fill="#B47B25"/>
<rect width="5.33333" height="5.33333" transform="matrix(-1 0 0 1 90.6667 26.6665)" fill="#B47B25"/>
<rect width="5.33333" height="5.33333" transform="matrix(-1 0 0 1 101.333 26.6665)" fill="#B47B25"/>
<rect width="5.33333" height="5.33333" transform="matrix(-1 0 0 1 112 32)" fill="#B47B25"/>
<rect width="5.33333" height="5.33333" transform="matrix(-1 0 0 1 122.667 37.3333)" fill="#B47B25"/>
<rect width="5.33333" height="5.33333" transform="matrix(-1 0 0 1 42.6667 37.3333)" fill="#B47B25"/>
<rect width="5.33333" height="5.33333" transform="matrix(-1 0 0 1 53.3333 32)" fill="#B47B25"/>
<rect width="5.33333" height="5.33333" transform="matrix(-1 0 0 1 64 26.6665)" fill="#B47B25"/>
<rect width="5.33333" height="5.33333" transform="matrix(-1 0 0 1 74.6667 26.6665)" fill="#B47B25"/>
<rect width="5.33333" height="5.33333" transform="matrix(-1 0 0 1 85.3333 26.6665)" fill="#B47B25"/>
<rect width="5.33333" height="5.33333" transform="matrix(-1 0 0 1 96 26.6665)" fill="#B47B25"/>
<rect width="5.33333" height="5.33333" transform="matrix(-1 0 0 1 106.667 26.6665)" fill="#B47B25"/>
<rect width="5.33333" height="5.33333" transform="matrix(-1 0 0 1 117.333 32)" fill="#B47B25"/>
<rect width="5.33333" height="5.33333" transform="matrix(-1 0 0 1 128 37.3333)" fill="#B47B25"/>
<rect width="5.33333" height="5.33333" transform="matrix(-1 0 0 1 133.333 42.6665)" fill="#B47B25"/>
<rect width="5.33333" height="5.33333" transform="matrix(-1 0 0 1 138.667 48)" fill="#B47B25"/>
<rect width="5.33333" height="5.33333" transform="matrix(-1 0 0 1 26.6667 42.6665)" fill="#EFBB6B"/>
<rect width="5.33333" height="5.33333" transform="matrix(-1 0 0 1 32 37.3333)" fill="#EFBB6B"/>
<rect width="5.33333" height="5.33333" transform="matrix(-1 0 0 1 37.3333 32)" fill="#EFBB6B"/>
<rect width="5.33333" height="5.33333" transform="matrix(-1 0 0 1 48 26.6665)" fill="#EFBB6B"/>
<rect width="5.33333" height="5.33333" transform="matrix(-1 0 0 1 112 26.6665)" fill="#D69F4C"/>
<rect width="5.33333" height="5.33333" transform="matrix(-1 0 0 1 122.667 32)" fill="#D69F4C"/>
<rect width="5.33333" height="5.33333" transform="matrix(-1 0 0 1 58.6667 21.3333)" fill="#EFBB6B"/>
<rect width="5.33333" height="5.33333" transform="matrix(-1 0 0 1 42.6667 32)" fill="#EFBB6B"/>
<rect width="5.33333" height="5.33333" transform="matrix(-1 0 0 1 53.3333 26.6665)" fill="#EFBB6B"/>
<rect width="5.33333" height="5.33333" transform="matrix(-1 0 0 1 117.333 26.6665)" fill="#D69F4C"/>
<rect width="5.33333" height="5.33333" transform="matrix(-1 0 0 1 128 32)" fill="#D69F4C"/>
<rect width="5.33333" height="5.33333" transform="matrix(-1 0 0 1 133.333 37.3333)" fill="#D69F4C"/>
<rect width="5.33333" height="5.33333" transform="matrix(-1 0 0 1 138.667 42.6665)" fill="#D69F4C"/>
<rect width="5.33333" height="5.33333" transform="matrix(-1 0 0 1 64 21.3333)" fill="#EFBB6B"/>
<rect width="5.33333" height="5.33333" transform="matrix(-1 0 0 1 69.3333 21.3333)" fill="#EFBB6B"/>
<rect width="5.33333" height="5.33333" transform="matrix(-1 0 0 1 74.6667 21.3333)" fill="#EFBB6B"/>
<rect width="5.33333" height="5.33333" transform="matrix(-1 0 0 1 80 21.3333)" fill="#EFBB6B"/>
<rect width="5.33333" height="5.33333" transform="matrix(-1 0 0 1 85.3333 21.3333)" fill="#D69F4C"/>
<rect width="5.33333" height="5.33333" transform="matrix(-1 0 0 1 90.6667 21.3333)" fill="#D69F4C"/>
<rect width="5.33333" height="5.33333" transform="matrix(-1 0 0 1 96 21.3333)" fill="#D69F4C"/>
<rect width="5.33333" height="5.33333" transform="matrix(-1 0 0 1 101.333 21.3333)" fill="#D69F4C"/>
<rect width="5.33333" height="5.33333" transform="matrix(-1 0 0 1 106.667 21.3333)" fill="#D69F4C"/>
<rect width="5.33333" height="5.33333" transform="matrix(-1 0 0 1 144 48)" fill="#D69F4C"/>
<rect width="5.33333" height="5.33333" transform="matrix(-1 0 0 1 53.3333 117.333)" fill="#D69F4C"/>
<rect width="5.33333" height="5.33333" transform="matrix(-1 0 0 1 48 117.333)" fill="#EFBB6B"/>
<rect width="5.33333" height="5.33333" transform="matrix(-1 0 0 1 42.6667 112)" fill="#D69F4C"/>
<rect width="5.33333" height="5.33333" transform="matrix(-1 0 0 1 37.3333 106.667)" fill="#D69F4C"/>
<rect width="5.33333" height="5.33333" transform="matrix(-1 0 0 1 32 101.333)" fill="#D69F4C"/>
<rect width="5.33333" height="5.33333" transform="matrix(-1 0 0 1 53.3333 122.667)" fill="#EFBB6B"/>
<rect width="5.33333" height="5.33333" transform="matrix(-1 0 0 1 48 122.667)" fill="#D69F4C"/>
<rect width="5.33333" height="5.33333" transform="matrix(-1 0 0 1 42.6667 117.333)" fill="#D69F4C"/>
<rect width="5.33333" height="5.33333" transform="matrix(-1 0 0 1 37.3333 112)" fill="#D69F4C"/>
<rect width="5.33333" height="5.33333" transform="matrix(-1 0 0 1 32 106.667)" fill="#D69F4C"/>
<rect width="5.33333" height="5.33333" transform="matrix(-1 0 0 1 53.3333 128)" fill="#D69F4C"/>
<rect width="5.33333" height="5.33333" transform="matrix(-1 0 0 1 58.6667 112)" fill="#EFBB6B"/>
<rect width="5.33333" height="5.33333" transform="matrix(-1 0 0 1 58.6667 117.333)" fill="#D69F4C"/>
<rect width="5.33333" height="5.33333" transform="matrix(-1 0 0 1 58.6667 122.667)" fill="#EFBB6B"/>
<rect width="5.33333" height="5.33333" transform="matrix(-1 0 0 1 58.6667 128)" fill="#D69F4C"/>
<rect width="5.33333" height="5.33333" transform="matrix(-1 0 0 1 64 112)" fill="#EFBB6B"/>
<rect width="5.33333" height="5.33333" transform="matrix(-1 0 0 1 64 117.333)" fill="#D69F4C"/>
<rect width="5.33333" height="5.33333" transform="matrix(-1 0 0 1 64 122.667)" fill="#D69F4C"/>
<rect width="5.33333" height="5.33333" transform="matrix(-1 0 0 1 64 128)" fill="#D69F4C"/>
<rect width="5.33333" height="5.33333" transform="matrix(-1 0 0 1 64 133.333)" fill="#D69F4C"/>
<rect width="5.33333" height="5.33333" transform="matrix(-1 0 0 1 69.3333 112)" fill="#EFBB6B"/>
<rect width="5.33333" height="5.33333" transform="matrix(-1 0 0 1 69.3333 117.333)" fill="#D69F4C"/>
<rect width="5.33333" height="5.33333" transform="matrix(-1 0 0 1 69.3333 122.667)" fill="#D69F4C"/>
<rect width="5.33333" height="5.33333" transform="matrix(-1 0 0 1 69.3333 128)" fill="#EFBB6B"/>
<rect width="5.33333" height="5.33333" transform="matrix(-1 0 0 1 69.3333 133.333)" fill="#D69F4C"/>
<rect width="5.33333" height="5.33333" transform="matrix(-1 0 0 1 74.6667 112)" fill="#EFBB6B"/>
<rect width="5.33333" height="5.33333" transform="matrix(-1 0 0 1 74.6667 117.333)" fill="#D69F4C"/>
<rect width="5.33333" height="5.33333" transform="matrix(-1 0 0 1 74.6667 122.667)" fill="#D69F4C"/>
<rect width="5.33333" height="5.33333" transform="matrix(-1 0 0 1 74.6667 128)" fill="#EFBB6B"/>
<rect width="5.33333" height="5.33333" transform="matrix(-1 0 0 1 74.6667 133.333)" fill="#D69F4C"/>
<rect width="5.33333" height="5.33333" transform="matrix(-1 0 0 1 80 112)" fill="#EFBB6B"/>
<rect width="5.33333" height="5.33333" transform="matrix(-1 0 0 1 80 117.333)" fill="#D69F4C"/>
<rect width="5.33333" height="5.33333" transform="matrix(-1 0 0 1 80 122.667)" fill="#D69F4C"/>
<rect width="5.33333" height="5.33333" transform="matrix(-1 0 0 1 80 128)" fill="#D69F4C"/>
<rect width="5.33333" height="5.33333" transform="matrix(-1 0 0 1 80 133.333)" fill="#D69F4C"/>
<rect width="5.33333" height="5.33333" transform="matrix(-1 0 0 1 85.3333 112)" fill="#EFBB6B"/>
<rect width="5.33333" height="5.33333" transform="matrix(-1 0 0 1 85.3333 117.333)" fill="#D69F4C"/>
<rect width="5.33333" height="5.33333" transform="matrix(-1 0 0 1 85.3333 122.667)" fill="#EFBB6B"/>
<rect width="5.33333" height="5.33333" transform="matrix(-1 0 0 1 85.3333 128)" fill="#D69F4C"/>
<rect width="5.33333" height="5.33333" transform="matrix(-1 0 0 1 85.3333 133.333)" fill="#B47B25"/>
<rect width="5.33333" height="5.33333" transform="matrix(-1 0 0 1 90.6667 112)" fill="#EFBB6B"/>
<rect width="5.33333" height="5.33333" transform="matrix(-1 0 0 1 90.6667 117.333)" fill="#D69F4C"/>
<rect width="5.33333" height="5.33333" transform="matrix(-1 0 0 1 90.6667 122.667)" fill="#D69F4C"/>
<rect width="5.33333" height="5.33333" transform="matrix(-1 0 0 1 90.6667 128)" fill="#B47B25"/>
<rect width="5.33333" height="5.33333" transform="matrix(-1 0 0 1 90.6667 133.333)" fill="#B47B25"/>
<rect width="5.33333" height="5.33333" transform="matrix(-1 0 0 1 96 112)" fill="#EFBB6B"/>
<rect width="5.33333" height="5.33333" transform="matrix(-1 0 0 1 96 117.333)" fill="#D69F4C"/>
<rect width="5.33333" height="5.33333" transform="matrix(-1 0 0 1 96 122.667)" fill="#B47B25"/>
<rect width="5.33333" height="5.33333" transform="matrix(-1 0 0 1 96 128)" fill="#B47B25"/>
<rect width="5.33333" height="5.33333" transform="matrix(-1 0 0 1 96 133.333)" fill="#B47B25"/>
<rect width="5.33333" height="5.33333" transform="matrix(-1 0 0 1 101.333 112)" fill="#EFBB6B"/>
<rect width="5.33333" height="5.33333" transform="matrix(-1 0 0 1 101.333 117.333)" fill="#B47B25"/>
<rect width="5.33333" height="5.33333" transform="matrix(-1 0 0 1 101.333 122.667)" fill="#B47B25"/>
<rect width="5.33333" height="5.33333" transform="matrix(-1 0 0 1 101.333 128)" fill="#B47B25"/>
<rect width="5.33333" height="5.33333" transform="matrix(-1 0 0 1 101.333 133.333)" fill="#B47B25"/>
<rect width="5.33333" height="5.33333" transform="matrix(-1 0 0 1 106.667 112)" fill="#B47B25"/>
<rect width="5.33333" height="5.33333" transform="matrix(-1 0 0 1 106.667 117.333)" fill="#B47B25"/>
<rect width="5.33333" height="5.33333" transform="matrix(-1 0 0 1 106.667 122.667)" fill="#B47B25"/>
<rect width="5.33333" height="5.33333" transform="matrix(-1 0 0 1 106.667 128)" fill="#B47B25"/>
<rect width="5.33333" height="5.33333" transform="matrix(-1 0 0 1 112 112)" fill="#B47B25"/>
<rect width="5.33333" height="5.33333" transform="matrix(-1 0 0 1 112 117.333)" fill="#B47B25"/>
<rect width="5.33333" height="5.33333" transform="matrix(-1 0 0 1 117.333 117.333)" fill="#B47B25"/>
<rect width="5.33333" height="5.33333" transform="matrix(-1 0 0 1 122.667 117.333)" fill="#B47B25"/>
<rect width="5.33333" height="5.33333" transform="matrix(-1 0 0 1 128 112)" fill="#B47B25"/>
<rect width="5.33333" height="5.33333" transform="matrix(-1 0 0 1 133.333 106.667)" fill="#B47B25"/>
<rect width="5.33333" height="5.33333" transform="matrix(-1 0 0 1 112 122.667)" fill="#B47B25"/>
<rect width="5.33333" height="5.33333" transform="matrix(-1 0 0 1 117.333 122.667)" fill="#B47B25"/>
<rect width="5.33333" height="5.33333" transform="matrix(-1 0 0 1 112 128)" fill="#B47B25"/>
<rect width="5.33333" height="5.33333" transform="matrix(-1 0 0 1 117.333 112)" fill="#B47B25"/>
<rect width="5.33333" height="5.33333" transform="matrix(-1 0 0 1 122.667 112)" fill="#B47B25"/>
<rect width="5.33333" height="5.33333" transform="matrix(-1 0 0 1 128 106.667)" fill="#B47B25"/>
<rect width="5.33333" height="5.33333" transform="matrix(-1 0 0 1 133.333 101.333)" fill="#B47B25"/>
<rect width="5.33333" height="5.33333" transform="matrix(-1 0 0 1 117.333 106.667)" fill="#B47B25"/>
<rect width="5.33333" height="5.33333" transform="matrix(-1 0 0 1 122.667 106.667)" fill="#B47B25"/>
<rect width="5.33333" height="5.33333" transform="matrix(-1 0 0 1 128 101.333)" fill="#B47B25"/>
<rect width="5.33333" height="5.33333" transform="matrix(-1 0 0 1 133.333 96)" fill="#B47B25"/>
<rect width="5.33333" height="5.33333" transform="matrix(-1 0 0 1 138.667 96)" fill="#B47B25"/>
<rect width="5.33333" height="5.33333" transform="matrix(-1 0 0 1 138.667 90.6665)" fill="#B47B25"/>
<rect width="5.33333" height="5.33333" transform="matrix(-1 0 0 1 144 90.6665)" fill="#B47B25"/>
<rect width="5.33333" height="5.33333" transform="matrix(-1 0 0 1 144 85.3333)" fill="#B47B25"/>
<rect x="154.667" y="80" width="5.33333" height="5.33333" fill="#FFCB29"/>
<rect x="154.667" y="85.3333" width="5.33333" height="5.33333" fill="#FFCB29"/>
<rect x="154.667" y="90.6665" width="5.33333" height="5.33333" fill="#FFCB29"/>
<rect x="154.667" y="96" width="5.33333" height="5.33333" fill="#FFCB29"/>
<rect x="149.333" y="101.333" width="5.33333" height="5.33333" fill="#FFCB29"/>
<rect x="144" y="106.667" width="5.33333" height="5.33333" fill="#FFCB29"/>
<rect x="144" y="112" width="5.33333" height="5.33333" fill="#FFCB29"/>
<rect x="138.667" y="117.333" width="5.33333" height="5.33333" fill="#FFCB29"/>
<rect x="133.333" y="122.667" width="5.33333" height="5.33333" fill="#FFCB29"/>
<rect x="128" y="128" width="5.33333" height="5.33333" fill="#FFCB29"/>
<rect x="122.667" y="133.333" width="5.33333" height="5.33333" fill="#FFCB29"/>
<rect x="112" y="144" width="5.33333" height="5.33333" fill="#FFCB29"/>
<rect x="117.333" y="138.667" width="5.33333" height="5.33333" fill="#FFCB29"/>
<rect x="101.333" y="149.333" width="5.33333" height="5.33333" fill="#FFCB29"/>
<rect x="106.667" y="144" width="5.33333" height="5.33333" fill="#FFCB29"/>
<rect x="90.6667" y="149.333" width="5.33333" height="5.33333" fill="#FFCB29"/>
<rect x="80" y="149.333" width="5.33333" height="5.33333" fill="#FFCB29"/>
<rect x="69.3333" y="149.333" width="5.33333" height="5.33333" fill="#FFCB29"/>
<rect x="58.6667" y="149.333" width="5.33333" height="5.33333" fill="#FFCB29"/>
<rect x="96" y="149.333" width="5.33333" height="5.33333" fill="#FFCB29"/>
<rect x="85.3333" y="149.333" width="5.33333" height="5.33333" fill="#FFCB29"/>
<rect x="74.6667" y="149.333" width="5.33333" height="5.33333" fill="#FFCB29"/>
<rect x="64" y="149.333" width="5.33333" height="5.33333" fill="#FFCB29"/>
<rect x="53.3333" y="149.333" width="5.33333" height="5.33333" fill="#FFCB29"/>
<rect x="48" y="144" width="5.33333" height="5.33333" fill="#FFCB29"/>
<rect x="42.6667" y="144" width="5.33333" height="5.33333" fill="#FFCB29"/>
<rect x="37.3333" y="138.667" width="5.33333" height="5.33333" fill="#FFCB29"/>
<rect x="32" y="133.333" width="5.33333" height="5.33333" fill="#FFCB29"/>
<rect x="26.6667" y="128" width="5.33333" height="5.33333" fill="#FFCB29"/>
<rect x="21.3333" y="122.667" width="5.33333" height="5.33333" fill="#FFCB29"/>
<rect x="10.6667" y="112" width="5.33333" height="5.33333" fill="#FFCB29"/>
<rect x="16" y="117.333" width="5.33333" height="5.33333" fill="#FFCB29"/>
<rect x="5.33334" y="101.333" width="5.33333" height="5.33333" fill="#FFCB29"/>
<rect x="10.6667" y="106.667" width="5.33333" height="5.33333" fill="#FFCB29"/>
<rect y="90.6665" width="5.33333" height="5.33333" fill="#FFCB29"/>
<rect x="5.33334" y="96" width="5.33333" height="5.33333" fill="#FFCB29"/>
<rect y="85.3333" width="5.33333" height="5.33333" fill="#FFCB29"/>
<rect y="80" width="5.33333" height="5.33333" fill="#FFCB29"/>
<rect y="74.6665" width="5.33333" height="5.33333" fill="#FFCB29"/>
<rect y="69.3333" width="5.33333" height="5.33333" fill="#FFCB29"/>
<rect y="64" width="5.33333" height="5.33333" fill="#FFCB29"/>
<rect y="58.6665" width="5.33333" height="5.33333" fill="#FFCB29"/>
<rect y="53.3333" width="5.33333" height="5.33333" fill="#FFCB29"/>
<rect y="48" width="5.33333" height="5.33333" fill="#FFCB29"/>
<rect y="42.6665" width="5.33333" height="5.33333" fill="#FFCB29"/>
<rect x="5.33334" y="37.3333" width="5.33333" height="5.33333" fill="#FFCB29"/>
<rect x="10.6667" y="32" width="5.33333" height="5.33333" fill="#FFCB29"/>
<rect x="16" y="26.6665" width="5.33333" height="5.33333" fill="#FFCB29"/>
<rect x="21.3333" y="21.3333" width="5.33333" height="5.33333" fill="#FFCB29"/>
<rect x="26.6667" y="16" width="5.33333" height="5.33333" fill="#FFCB29"/>
<rect x="37.3333" y="10.6665" width="5.33333" height="5.33333" fill="#FFCB29"/>
<rect x="48" y="5.33325" width="5.33333" height="5.33333" fill="#FFCB29"/>
<rect x="64" y="5.33325" width="5.33333" height="5.33333" fill="#FFCB29"/>
<rect x="80" y="5.33325" width="5.33333" height="5.33333" fill="#FFCB29"/>
<rect x="96" y="5.33325" width="5.33333" height="5.33333" fill="#FFCB29"/>
<rect x="32" y="16" width="5.33333" height="5.33333" fill="#FFCB29"/>
<rect x="42.6667" y="10.6665" width="5.33333" height="5.33333" fill="#FFCB29"/>
<rect x="53.3333" y="5.33325" width="5.33333" height="5.33333" fill="#FFCB29"/>
<rect x="69.3333" y="5.33325" width="5.33333" height="5.33333" fill="#FFCB29"/>
<rect x="85.3333" y="5.33325" width="5.33333" height="5.33333" fill="#FFCB29"/>
<rect x="101.333" y="5.33325" width="5.33333" height="5.33333" fill="#FFCB29"/>
<rect x="112" y="10.6665" width="5.33333" height="5.33333" fill="#FFCB29"/>
<rect x="122.667" y="16" width="5.33333" height="5.33333" fill="#FFCB29"/>
<rect x="58.6667" y="5.33325" width="5.33333" height="5.33333" fill="#FFCB29"/>
<rect x="74.6667" y="5.33325" width="5.33333" height="5.33333" fill="#FFCB29"/>
<rect x="90.6667" y="5.33325" width="5.33333" height="5.33333" fill="#FFCB29"/>
<rect x="106.667" y="5.33325" width="5.33333" height="5.33333" fill="#FFCB29"/>
<rect x="117.333" y="10.6665" width="5.33333" height="5.33333" fill="#FFCB29"/>
<rect x="128" y="16" width="5.33333" height="5.33333" fill="#FFCB29"/>
<rect x="133.333" y="21.3333" width="5.33333" height="5.33333" fill="#FFCB29"/>
<rect x="138.667" y="26.6665" width="5.33333" height="5.33333" fill="#FFCB29"/>
<rect x="144" y="32" width="5.33333" height="5.33333" fill="#FFCB29"/>
<rect x="154.667" y="42.6665" width="5.33333" height="5.33333" fill="#FFCB29"/>
<rect x="149.333" y="37.3333" width="5.33333" height="5.33333" fill="#FFCB29"/>
<rect x="154.667" y="48" width="5.33333" height="5.33333" fill="#FFCB29"/>
<rect x="154.667" y="53.3333" width="5.33333" height="5.33333" fill="#FFCB29"/>
<rect x="154.667" y="58.6665" width="5.33333" height="5.33333" fill="#FFCB29"/>
<rect x="154.667" y="64" width="5.33333" height="5.33333" fill="#FFCB29"/>
<rect x="154.667" y="69.3333" width="5.33333" height="5.33333" fill="#FFCB29"/>
<rect x="154.667" y="74.6665" width="5.33333" height="5.33333" fill="#FFCB29"/>
</svg>
