<svg width="24" height="24" viewBox="0 0 24 24" fill="none" xmlns="http://www.w3.org/2000/svg">
<rect width="2" height="2" transform="matrix(-1 0 0 1 10 2)" fill="#FF5601"/>
<rect width="2" height="2" transform="matrix(-1 0 0 1 8 4)" fill="#FF5601"/>
<rect width="2" height="2" transform="matrix(-1 0 0 1 10 6)" fill="#FFC30B"/>
<rect width="2" height="2" transform="matrix(-1 0 0 1 10 4)" fill="#CB2528"/>
<rect width="2" height="2" transform="matrix(-1 0 0 1 12 4)" fill="#CB2528"/>
<rect width="2" height="2" transform="matrix(-1 0 0 1 14 4)" fill="#CB2528"/>
<rect width="2" height="2" transform="matrix(-1 0 0 1 14 6)" fill="#CB2528"/>
<rect width="2" height="2" transform="matrix(-1 0 0 1 14 8)" fill="#CB2528"/>
<rect width="2" height="2" transform="matrix(-1 0 0 1 12 8)" fill="#CB2528"/>
<rect width="2" height="2" transform="matrix(-1 0 0 1 8 8)" fill="#CB2528"/>
<rect width="2" height="2" transform="matrix(-1 0 0 1 8 6)" fill="#CB2528"/>
<rect width="2" height="2" transform="matrix(-1 0 0 1 14 10)" fill="#CB2528"/>
<rect width="2" height="2" transform="matrix(-1 0 0 1 12 10)" fill="#CB2528"/>
<rect width="2" height="2" transform="matrix(-1 0 0 1 8 10)" fill="#CB2528"/>
<rect width="2" height="2" transform="matrix(-1 0 0 1 10 10)" fill="#CB2528"/>
<rect width="2" height="2" transform="matrix(-1 0 0 1 14 12)" fill="#CB2528"/>
<rect width="2" height="2" transform="matrix(-1 0 0 1 12 12)" fill="#CB2528"/>
<rect width="2" height="2" transform="matrix(-1 0 0 1 8 12)" fill="#CB2528"/>
<rect width="2" height="2" transform="matrix(-1 0 0 1 10 12)" fill="#CB2528"/>
<rect width="2" height="2" transform="matrix(-1 0 0 1 14 14)" fill="#E53835"/>
<rect width="2" height="2" transform="matrix(-1 0 0 1 12 14)" fill="#E53835"/>
<rect width="2" height="2" transform="matrix(-1 0 0 1 8 14)" fill="#E53835"/>
<rect width="2" height="2" transform="matrix(-1 0 0 1 6 18)" fill="#37474F"/>
<rect width="2" height="2" transform="matrix(-1 0 0 1 8 18)" fill="#37474F"/>
<rect width="2" height="2" transform="matrix(-1 0 0 1 10 18)" fill="#37474F"/>
<rect width="2" height="2" transform="matrix(-1 0 0 1 12 18)" fill="#37474F"/>
<rect width="2" height="2" transform="matrix(-1 0 0 1 14 18)" fill="#37474F"/>
<rect width="2" height="2" transform="matrix(-1 0 0 1 16 18)" fill="#37474F"/>
<rect width="2" height="2" transform="matrix(-1 0 0 1 18 18)" fill="#37474F"/>
<rect width="2" height="2" transform="matrix(-1 0 0 1 20 18)" fill="#37474F"/>
<rect width="2" height="2" transform="matrix(-1 0 0 1 10 14)" fill="#E53835"/>
<rect width="2" height="2" transform="matrix(-1 0 0 1 16 4)" fill="#CB2528"/>
<rect width="2" height="2" transform="matrix(-1 0 0 1 16 6)" fill="#CB2528"/>
<rect width="2" height="2" transform="matrix(-1 0 0 1 16 8)" fill="#CB2528"/>
<rect width="2" height="2" transform="matrix(-1 0 0 1 16 10)" fill="#CB2528"/>
<rect width="2" height="2" transform="matrix(-1 0 0 1 16 12)" fill="#CB2528"/>
<rect width="2" height="2" transform="matrix(-1 0 0 1 16 14)" fill="#E53835"/>
<rect width="2" height="2" transform="matrix(-1 0 0 1 18 6)" fill="#E53835"/>
<rect width="2" height="2" transform="matrix(-1 0 0 1 18 8)" fill="#E53835"/>
<rect width="2" height="2" transform="matrix(-1 0 0 1 18 10)" fill="#E53835"/>
<rect width="2" height="2" transform="matrix(-1 0 0 1 18 12)" fill="#E53835"/>
<rect width="2" height="2" transform="matrix(-1 0 0 1 18 14)" fill="#E53835"/>
<rect width="2" height="2" transform="matrix(-1 0 0 1 10 8)" fill="#FFC30B"/>
<rect width="2" height="2" transform="matrix(-1 0 0 1 12 6)" fill="#FFC30B"/>
<rect width="2" height="2" transform="matrix(-1 0 0 1 6 6)" fill="#FF5601"/>
<rect width="2" height="2" transform="matrix(-1 0 0 1 6 8)" fill="#FF5601"/>
<rect width="2" height="2" transform="matrix(-1 0 0 1 6 10)" fill="#FF5601"/>
<rect width="2" height="2" transform="matrix(-1 0 0 1 6 12)" fill="#FF5601"/>
<rect width="2" height="2" transform="matrix(-1 0 0 1 6 14)" fill="#FF5601"/>
<rect width="2" height="2" transform="matrix(-1 0 0 1 12 2)" fill="#FF5601"/>
<rect width="2" height="2" transform="matrix(-1 0 0 1 14 2)" fill="#FF5601"/>
<rect width="2" height="2" transform="matrix(-1 0 0 1 16 2)" fill="#FF5601"/>
<rect width="2" height="2" transform="matrix(-1 0 0 1 18 4)" fill="#FF5601"/>
<rect width="2" height="2" transform="matrix(-1 0 0 1 20 6)" fill="#FF5601"/>
<rect width="2" height="2" transform="matrix(-1 0 0 1 20 8)" fill="#FF5601"/>
<rect width="2" height="2" transform="matrix(-1 0 0 1 20 10)" fill="#FF5601"/>
<rect width="2" height="2" transform="matrix(-1 0 0 1 20 12)" fill="#FF5601"/>
<rect width="2" height="2" transform="matrix(-1 0 0 1 20 14)" fill="#FF5601"/>
<rect width="2" height="2" transform="matrix(-1 0 0 1 20 16)" fill="#FF5601"/>
<rect width="2" height="2" transform="matrix(-1 0 0 1 18 16)" fill="#FF5601"/>
<rect width="2" height="2" transform="matrix(-1 0 0 1 16 16)" fill="#FF5601"/>
<rect width="2" height="2" transform="matrix(-1 0 0 1 14 16)" fill="#FF5601"/>
<rect width="2" height="2" transform="matrix(-1 0 0 1 12 16)" fill="#FF5601"/>
<rect width="2" height="2" transform="matrix(-1 0 0 1 10 16)" fill="#FF5601"/>
<rect width="2" height="2" transform="matrix(-1 0 0 1 8 16)" fill="#FF5601"/>
<rect width="2" height="2" transform="matrix(-1 0 0 1 6 16)" fill="#FF5601"/>
<rect width="2" height="2" transform="matrix(-1 0 0 1 4 16)" fill="#FF5601"/>
<rect width="2" height="2" transform="matrix(-1 0 0 1 4 18)" fill="#FF5601"/>
<rect width="2" height="2" transform="matrix(-1 0 0 1 22 16)" fill="#FF5601"/>
<rect width="2" height="2" transform="matrix(-1 0 0 1 22 18)" fill="#FF5601"/>
<rect width="2" height="2" transform="matrix(-1 0 0 1 22 20)" fill="#FF5601"/>
<rect width="2" height="2" transform="matrix(-1 0 0 1 20 20)" fill="#FF5601"/>
<rect width="2" height="2" transform="matrix(-1 0 0 1 18 20)" fill="#FF5601"/>
<rect width="2" height="2" transform="matrix(-1 0 0 1 16 20)" fill="#FF5601"/>
<rect width="2" height="2" transform="matrix(-1 0 0 1 14 20)" fill="#FF5601"/>
<rect width="2" height="2" transform="matrix(-1 0 0 1 12 20)" fill="#FF5601"/>
<rect width="2" height="2" transform="matrix(-1 0 0 1 10 20)" fill="#FF5601"/>
<rect width="2" height="2" transform="matrix(-1 0 0 1 8 20)" fill="#FF5601"/>
<rect width="2" height="2" transform="matrix(-1 0 0 1 6 20)" fill="#FF5601"/>
<rect width="2" height="2" transform="matrix(-1 0 0 1 4 20)" fill="#FF5601"/>
</svg>
