<svg width="100%" height="100%" viewBox="0 0 24 24" fill="none" xmlns="http://www.w3.org/2000/svg">
<rect width="2" height="2" transform="matrix(-1 0 0 1 10.0001 2)" fill="#B0BEC5"/>
<rect width="2" height="2" transform="matrix(-1 0 0 1 8.00006 4)" fill="#B0BEC5"/>
<rect width="2" height="2" transform="matrix(-1 0 0 1 10.0001 6)" fill="white"/>
<rect width="2" height="2" transform="matrix(-1 0 0 1 10.0001 4)" fill="#E53835"/>
<rect width="2" height="2" transform="matrix(-1 0 0 1 12.0001 4)" fill="#E53835"/>
<rect width="2" height="2" transform="matrix(-1 0 0 1 14.0001 4)" fill="#E53835"/>
<rect width="2" height="2" transform="matrix(-1 0 0 1 14.0001 6)" fill="#E53835"/>
<rect width="2" height="2" transform="matrix(-1 0 0 1 14.0001 8)" fill="#E53835"/>
<rect width="2" height="2" transform="matrix(-1 0 0 1 12.0001 8)" fill="#E53835"/>
<rect width="2" height="2" transform="matrix(-1 0 0 1 8.00006 8)" fill="#E53835"/>
<rect width="2" height="2" transform="matrix(-1 0 0 1 8.00006 6)" fill="#E53835"/>
<rect width="2" height="2" transform="matrix(-1 0 0 1 14.0001 10)" fill="#E53835"/>
<rect width="2" height="2" transform="matrix(-1 0 0 1 12.0001 10)" fill="#E53835"/>
<rect width="2" height="2" transform="matrix(-1 0 0 1 8.00006 10)" fill="#E53835"/>
<rect width="2" height="2" transform="matrix(-1 0 0 1 10.0001 10)" fill="#E53835"/>
<rect width="2" height="2" transform="matrix(-1 0 0 1 14.0001 12)" fill="#E53835"/>
<rect width="2" height="2" transform="matrix(-1 0 0 1 12.0001 12)" fill="#E53835"/>
<rect width="2" height="2" transform="matrix(-1 0 0 1 8.00006 12)" fill="#E53835"/>
<rect width="2" height="2" transform="matrix(-1 0 0 1 10.0001 12)" fill="#E53835"/>
<rect width="2" height="2" transform="matrix(-1 0 0 1 14.0001 14)" fill="#CB2528"/>
<rect width="2" height="2" transform="matrix(-1 0 0 1 12.0001 14)" fill="#CB2528"/>
<rect width="2" height="2" transform="matrix(-1 0 0 1 8.00006 14)" fill="#CB2528"/>
<rect width="2" height="2" transform="matrix(-1 0 0 1 6.00006 18)" fill="#37474F"/>
<rect width="2" height="2" transform="matrix(-1 0 0 1 8.00006 18)" fill="#37474F"/>
<rect width="2" height="2" transform="matrix(-1 0 0 1 10.0001 18)" fill="#37474F"/>
<rect width="2" height="2" transform="matrix(-1 0 0 1 12.0001 18)" fill="#37474F"/>
<rect width="2" height="2" transform="matrix(-1 0 0 1 14.0001 18)" fill="#37474F"/>
<rect width="2" height="2" transform="matrix(-1 0 0 1 16.0001 18)" fill="#37474F"/>
<rect width="2" height="2" transform="matrix(-1 0 0 1 18.0001 18)" fill="#37474F"/>
<rect width="2" height="2" transform="matrix(-1 0 0 1 20.0001 18)" fill="#37474F"/>
<rect width="2" height="2" transform="matrix(-1 0 0 1 10.0001 14)" fill="#CB2528"/>
<rect width="2" height="2" transform="matrix(-1 0 0 1 16.0001 4)" fill="#E53835"/>
<rect width="2" height="2" transform="matrix(-1 0 0 1 16.0001 6)" fill="#E53835"/>
<rect width="2" height="2" transform="matrix(-1 0 0 1 16.0001 8)" fill="#E53835"/>
<rect width="2" height="2" transform="matrix(-1 0 0 1 16.0001 10)" fill="#E53835"/>
<rect width="2" height="2" transform="matrix(-1 0 0 1 16.0001 12)" fill="#E53835"/>
<rect width="2" height="2" transform="matrix(-1 0 0 1 16.0001 14)" fill="#CB2528"/>
<rect width="2" height="2" transform="matrix(-1 0 0 1 18.0001 6)" fill="#CB2528"/>
<rect width="2" height="2" transform="matrix(-1 0 0 1 18.0001 8)" fill="#CB2528"/>
<rect width="2" height="2" transform="matrix(-1 0 0 1 18.0001 10)" fill="#CB2528"/>
<rect width="2" height="2" transform="matrix(-1 0 0 1 18.0001 12)" fill="#CB2528"/>
<rect width="2" height="2" transform="matrix(-1 0 0 1 18.0001 14)" fill="#CB2528"/>
<rect width="2" height="2" transform="matrix(-1 0 0 1 10.0001 8)" fill="white"/>
<rect width="2" height="2" transform="matrix(-1 0 0 1 12.0001 6)" fill="white"/>
<rect width="2" height="2" transform="matrix(-1 0 0 1 6.00006 6)" fill="#B0BEC5"/>
<rect width="2" height="2" transform="matrix(-1 0 0 1 6.00006 8)" fill="#B0BEC5"/>
<rect width="2" height="2" transform="matrix(-1 0 0 1 6.00006 10)" fill="#B0BEC5"/>
<rect width="2" height="2" transform="matrix(-1 0 0 1 6.00006 12)" fill="#B0BEC5"/>
<rect width="2" height="2" transform="matrix(-1 0 0 1 6.00006 14)" fill="#B0BEC5"/>
<rect width="2" height="2" transform="matrix(-1 0 0 1 12.0001 2)" fill="#B0BEC5"/>
<rect width="2" height="2" transform="matrix(-1 0 0 1 14.0001 2)" fill="#B0BEC5"/>
<rect width="2" height="2" transform="matrix(-1 0 0 1 16.0001 2)" fill="#B0BEC5"/>
<rect width="2" height="2" transform="matrix(-1 0 0 1 18.0001 4)" fill="#B0BEC5"/>
<rect width="2" height="2" transform="matrix(-1 0 0 1 20.0001 6)" fill="#B0BEC5"/>
<rect width="2" height="2" transform="matrix(-1 0 0 1 20.0001 8)" fill="#B0BEC5"/>
<rect width="2" height="2" transform="matrix(-1 0 0 1 20.0001 10)" fill="#B0BEC5"/>
<rect width="2" height="2" transform="matrix(-1 0 0 1 20.0001 12)" fill="#B0BEC5"/>
<rect width="2" height="2" transform="matrix(-1 0 0 1 20.0001 14)" fill="#B0BEC5"/>
<rect width="2" height="2" transform="matrix(-1 0 0 1 20.0001 16)" fill="#B0BEC5"/>
<rect width="2" height="2" transform="matrix(-1 0 0 1 18.0001 16)" fill="#B0BEC5"/>
<rect width="2" height="2" transform="matrix(-1 0 0 1 16.0001 16)" fill="#B0BEC5"/>
<rect width="2" height="2" transform="matrix(-1 0 0 1 14.0001 16)" fill="#B0BEC5"/>
<rect width="2" height="2" transform="matrix(-1 0 0 1 12.0001 16)" fill="#B0BEC5"/>
<rect width="2" height="2" transform="matrix(-1 0 0 1 10.0001 16)" fill="#B0BEC5"/>
<rect width="2" height="2" transform="matrix(-1 0 0 1 8.00006 16)" fill="#B0BEC5"/>
<rect width="2" height="2" transform="matrix(-1 0 0 1 6.00006 16)" fill="#B0BEC5"/>
<rect width="2" height="2" transform="matrix(-1 0 0 1 4.00006 16)" fill="#B0BEC5"/>
<rect width="2" height="2" transform="matrix(-1 0 0 1 4.00006 18)" fill="#B0BEC5"/>
<rect width="2" height="2" transform="matrix(-1 0 0 1 22.0001 16)" fill="#B0BEC5"/>
<rect width="2" height="2" transform="matrix(-1 0 0 1 22.0001 18)" fill="#B0BEC5"/>
<rect width="2" height="2" transform="matrix(-1 0 0 1 22.0001 20)" fill="#B0BEC5"/>
<rect width="2" height="2" transform="matrix(-1 0 0 1 20.0001 20)" fill="#B0BEC5"/>
<rect width="2" height="2" transform="matrix(-1 0 0 1 18.0001 20)" fill="#B0BEC5"/>
<rect width="2" height="2" transform="matrix(-1 0 0 1 16.0001 20)" fill="#B0BEC5"/>
<rect width="2" height="2" transform="matrix(-1 0 0 1 14.0001 20)" fill="#B0BEC5"/>
<rect width="2" height="2" transform="matrix(-1 0 0 1 12.0001 20)" fill="#B0BEC5"/>
<rect width="2" height="2" transform="matrix(-1 0 0 1 10.0001 20)" fill="#B0BEC5"/>
<rect width="2" height="2" transform="matrix(-1 0 0 1 8.00006 20)" fill="#B0BEC5"/>
<rect width="2" height="2" transform="matrix(-1 0 0 1 6.00006 20)" fill="#B0BEC5"/>
<rect width="2" height="2" transform="matrix(-1 0 0 1 4.00006 20)" fill="#B0BEC5"/>
</svg>
