<svg width="72" height="72" viewBox="0 0 72 72" fill="none" xmlns="http://www.w3.org/2000/svg">
<rect width="4" height="4" transform="matrix(-1 0 0 1 16 54)" fill="#37474F"/>
<rect width="4" height="4" transform="matrix(-1 0 0 1 12 50)" fill="#37474F"/>
<rect width="4" height="4" transform="matrix(-1 0 0 1 12 46)" fill="#37474F"/>
<rect width="4" height="4" transform="matrix(-1 0 0 1 8 46)" fill="white"/>
<rect width="4" height="4" transform="matrix(-1 0 0 1 8 50)" fill="white"/>
<rect width="4" height="4" transform="matrix(-1 0 0 1 8 54)" fill="white"/>
<rect width="4" height="4" transform="matrix(-1 0 0 1 12 58)" fill="white"/>
<rect width="4" height="4" transform="matrix(-1 0 0 1 64 58)" fill="white"/>
<rect width="4" height="4" transform="matrix(-1 0 0 1 68 54)" fill="white"/>
<rect width="4" height="4" transform="matrix(-1 0 0 1 68 42)" fill="white"/>
<rect width="4" height="4" transform="matrix(-1 0 0 1 64 30)" fill="white"/>
<rect width="4" height="4" transform="matrix(-1 0 0 1 60 26)" fill="white"/>
<rect width="4" height="4" transform="matrix(-1 0 0 1 56 22)" fill="white"/>
<rect width="4" height="4" transform="matrix(-1 0 0 1 52 18)" fill="white"/>
<rect width="4" height="4" transform="matrix(-1 0 0 1 48 14)" fill="white"/>
<rect width="4" height="4" transform="matrix(-1 0 0 1 44 10)" fill="white"/>
<rect width="4" height="4" transform="matrix(-1 0 0 1 32 10)" fill="white"/>
<rect width="4" height="4" transform="matrix(-1 0 0 1 28 14)" fill="white"/>
<rect width="4" height="4" transform="matrix(-1 0 0 1 24 18)" fill="white"/>
<rect width="4" height="4" transform="matrix(-1 0 0 1 20 22)" fill="white"/>
<rect width="4" height="4" transform="matrix(-1 0 0 1 16 26)" fill="white"/>
<rect width="4" height="4" transform="matrix(-1 0 0 1 12 30)" fill="white"/>
<rect width="4" height="4" transform="matrix(-1 0 0 1 12 54)" fill="white"/>
<rect width="4" height="4" transform="matrix(-1 0 0 1 16 46)" fill="#37474F"/>
<rect width="4" height="4" transform="matrix(-1 0 0 1 16 42)" fill="#37474F"/>
<rect width="4" height="4" transform="matrix(-1 0 0 1 16 38)" fill="#37474F"/>
<rect width="4" height="4" transform="matrix(-1 0 0 1 16 34)" fill="#37474F"/>
<rect width="4" height="4" transform="matrix(-1 0 0 1 20 30)" fill="#37474F"/>
<rect width="4" height="4" transform="matrix(-1 0 0 1 24 26)" fill="#37474F"/>
<rect width="4" height="4" transform="matrix(-1 0 0 1 28 22)" fill="#37474F"/>
<rect width="4" height="4" transform="matrix(-1 0 0 1 32 22)" fill="#37474F"/>
<rect width="4" height="4" transform="matrix(-1 0 0 1 32 18)" fill="#37474F"/>
<rect width="4" height="4" transform="matrix(-1 0 0 1 44 18)" fill="#37474F"/>
<rect width="4" height="4" transform="matrix(-1 0 0 1 36 14)" fill="#37474F"/>
<rect width="4" height="4" transform="matrix(-1 0 0 1 40 14)" fill="#37474F"/>
<rect width="4" height="4" transform="matrix(-1 0 0 1 36 22)" fill="#37474F"/>
<rect width="4" height="4" transform="matrix(-1 0 0 1 40 22)" fill="#37474F"/>
<rect width="4" height="4" transform="matrix(-1 0 0 1 44 22)" fill="#37474F"/>
<rect width="4" height="4" transform="matrix(-1 0 0 1 48 22)" fill="#37474F"/>
<rect width="4" height="4" transform="matrix(-1 0 0 1 52 26)" fill="#37474F"/>
<rect width="4" height="4" transform="matrix(-1 0 0 1 56 30)" fill="#37474F"/>
<rect width="4" height="4" transform="matrix(-1 0 0 1 60 38)" fill="#37474F"/>
<rect width="4" height="4" transform="matrix(-1 0 0 1 60 34)" fill="#37474F"/>
<rect width="4" height="4" transform="matrix(-1 0 0 1 60 42)" fill="#37474F"/>
<rect width="4" height="4" transform="matrix(-1 0 0 1 20 46)" fill="#37474F"/>
<rect width="4" height="4" transform="matrix(-1 0 0 1 24 46)" fill="#37474F"/>
<rect width="4" height="4" transform="matrix(-1 0 0 1 28 46)" fill="#37474F"/>
<rect width="4" height="4" transform="matrix(-1 0 0 1 32 46)" fill="#37474F"/>
<rect width="4" height="4" transform="matrix(-1 0 0 1 36 46)" fill="#37474F"/>
<rect width="4" height="4" transform="matrix(-1 0 0 1 40 46)" fill="#37474F"/>
<rect width="4" height="4" transform="matrix(-1 0 0 1 44 46)" fill="#37474F"/>
<rect width="4" height="4" transform="matrix(-1 0 0 1 48 46)" fill="#37474F"/>
<rect width="4" height="4" transform="matrix(-1 0 0 1 52 46)" fill="#37474F"/>
<rect width="4" height="4" transform="matrix(-1 0 0 1 56 46)" fill="#37474F"/>
<rect width="4" height="4" transform="matrix(-1 0 0 1 60 46)" fill="#37474F"/>
<rect width="4" height="4" transform="matrix(-1 0 0 1 64 46)" fill="#37474F"/>
<rect width="4" height="4" transform="matrix(-1 0 0 1 20 54)" fill="#37474F"/>
<rect width="4" height="4" transform="matrix(-1 0 0 1 24 54)" fill="#37474F"/>
<rect width="4" height="4" transform="matrix(-1 0 0 1 28 54)" fill="#37474F"/>
<rect width="4" height="4" transform="matrix(-1 0 0 1 32 54)" fill="#37474F"/>
<rect width="4" height="4" transform="matrix(-1 0 0 1 36 54)" fill="#37474F"/>
<rect width="4" height="4" transform="matrix(-1 0 0 1 40 54)" fill="#37474F"/>
<rect width="4" height="4" transform="matrix(-1 0 0 1 44 54)" fill="#37474F"/>
<rect width="4" height="4" transform="matrix(-1 0 0 1 48 54)" fill="#37474F"/>
<rect width="4" height="4" transform="matrix(-1 0 0 1 52 54)" fill="#37474F"/>
<rect width="4" height="4" transform="matrix(-1 0 0 1 56 54)" fill="#37474F"/>
<rect width="4" height="4" transform="matrix(-1 0 0 1 60 54)" fill="#37474F"/>
<rect width="4" height="4" transform="matrix(-1 0 0 1 64 50)" fill="#37474F"/>
<rect width="4" height="4" transform="matrix(-1 0 0 1 16 50)" fill="#FED750"/>
<rect width="4" height="4" transform="matrix(-1 0 0 1 20 50)" fill="#FFA202"/>
<rect width="4" height="4" transform="matrix(-1 0 0 1 20 42)" fill="#FED750"/>
<rect width="4" height="4" transform="matrix(-1 0 0 1 24 42)" fill="#FFA202"/>
<rect width="4" height="4" transform="matrix(-1 0 0 1 28 42)" fill="#FFA202"/>
<rect width="4" height="4" transform="matrix(-1 0 0 1 32 42)" fill="#FFA202"/>
<rect width="4" height="4" transform="matrix(-1 0 0 1 36 42)" fill="#FFA202"/>
<rect width="4" height="4" transform="matrix(-1 0 0 1 40 42)" fill="#FFA202"/>
<rect width="4" height="4" transform="matrix(-1 0 0 1 44 42)" fill="#FFA202"/>
<rect width="4" height="4" transform="matrix(-1 0 0 1 48 42)" fill="#FFA202"/>
<rect width="4" height="4" transform="matrix(-1 0 0 1 52 42)" fill="#FFA202"/>
<rect width="4" height="4" transform="matrix(-1 0 0 1 56 42)" fill="#FF7002"/>
<rect width="4" height="4" transform="matrix(-1 0 0 1 20 38)" fill="#FED750"/>
<rect width="4" height="4" transform="matrix(-1 0 0 1 20 34)" fill="#FED750"/>
<rect width="4" height="4" transform="matrix(-1 0 0 1 24 38)" fill="#FFA202"/>
<rect width="4" height="4" transform="matrix(-1 0 0 1 24 34)" fill="#FFA202"/>
<rect width="4" height="4" transform="matrix(-1 0 0 1 24 30)" fill="#FED750"/>
<rect width="4" height="4" transform="matrix(-1 0 0 1 28 38)" fill="#FFA202"/>
<rect width="4" height="4" transform="matrix(-1 0 0 1 28 34)" fill="#FFA202"/>
<rect width="4" height="4" transform="matrix(-1 0 0 1 28 30)" fill="#FFA202"/>
<rect width="4" height="4" transform="matrix(-1 0 0 1 28 26)" fill="#FED750"/>
<rect width="4" height="4" transform="matrix(-1 0 0 1 32 38)" fill="#FFA202"/>
<rect width="4" height="4" transform="matrix(-1 0 0 1 32 34)" fill="#FFA202"/>
<rect width="4" height="4" transform="matrix(-1 0 0 1 32 30)" fill="#FFA202"/>
<rect width="4" height="4" transform="matrix(-1 0 0 1 32 26)" fill="#FED750"/>
<rect width="4" height="4" transform="matrix(-1 0 0 1 36 38)" fill="#FFA202"/>
<rect width="4" height="4" transform="matrix(-1 0 0 1 36 34)" fill="#FFA202"/>
<rect width="4" height="4" transform="matrix(-1 0 0 1 36 30)" fill="#FFA202"/>
<rect width="4" height="4" transform="matrix(-1 0 0 1 36 26)" fill="#FED750"/>
<rect width="4" height="4" transform="matrix(-1 0 0 1 36 18)" fill="#FED750"/>
<rect width="4" height="4" transform="matrix(-1 0 0 1 40 18)" fill="#FFA202"/>
<rect width="4" height="4" transform="matrix(-1 0 0 1 40 38)" fill="#FFA202"/>
<rect width="4" height="4" transform="matrix(-1 0 0 1 40 34)" fill="#FFA202"/>
<rect width="4" height="4" transform="matrix(-1 0 0 1 40 30)" fill="#FFA202"/>
<rect width="4" height="4" transform="matrix(-1 0 0 1 40 26)" fill="#FFA202"/>
<rect width="4" height="4" transform="matrix(-1 0 0 1 44 38)" fill="#FFA202"/>
<rect width="4" height="4" transform="matrix(-1 0 0 1 44 34)" fill="#FFA202"/>
<rect width="4" height="4" transform="matrix(-1 0 0 1 44 30)" fill="#FFA202"/>
<rect width="4" height="4" transform="matrix(-1 0 0 1 44 26)" fill="#FFA202"/>
<rect width="4" height="4" transform="matrix(-1 0 0 1 48 38)" fill="#FFA202"/>
<rect width="4" height="4" transform="matrix(-1 0 0 1 48 34)" fill="#FFA202"/>
<rect width="4" height="4" transform="matrix(-1 0 0 1 48 30)" fill="#FFA202"/>
<rect width="4" height="4" transform="matrix(-1 0 0 1 48 26)" fill="#FF7002"/>
<rect width="4" height="4" transform="matrix(-1 0 0 1 52 38)" fill="#FFA202"/>
<rect width="4" height="4" transform="matrix(-1 0 0 1 52 34)" fill="#FFA202"/>
<rect width="4" height="4" transform="matrix(-1 0 0 1 52 30)" fill="#FF7002"/>
<rect width="4" height="4" transform="matrix(-1 0 0 1 56 38)" fill="#FF7002"/>
<rect width="4" height="4" transform="matrix(-1 0 0 1 56 34)" fill="#FF7002"/>
<rect width="4" height="4" transform="matrix(-1 0 0 1 24 50)" fill="#FFA202"/>
<rect width="4" height="4" transform="matrix(-1 0 0 1 28 50)" fill="#FFA202"/>
<rect width="4" height="4" transform="matrix(-1 0 0 1 32 50)" fill="#FFA202"/>
<rect width="4" height="4" transform="matrix(-1 0 0 1 36 50)" fill="#FFA202"/>
<rect width="4" height="4" transform="matrix(-1 0 0 1 40 50)" fill="#FFA202"/>
<rect width="4" height="4" transform="matrix(-1 0 0 1 44 50)" fill="#FFA202"/>
<rect width="4" height="4" transform="matrix(-1 0 0 1 48 50)" fill="#FFA202"/>
<rect width="4" height="4" transform="matrix(-1 0 0 1 52 50)" fill="#FF7002"/>
<rect width="4" height="4" transform="matrix(-1 0 0 1 56 50)" fill="#FF7002"/>
<rect width="4" height="4" transform="matrix(-1 0 0 1 60 50)" fill="#FF7002"/>
<rect width="4" height="4" transform="matrix(-1 0 0 1 64 54)" fill="white"/>
<rect width="4" height="4" transform="matrix(-1 0 0 1 68 46)" fill="white"/>
<rect width="4" height="4" transform="matrix(-1 0 0 1 64 42)" fill="white"/>
<rect width="4" height="4" transform="matrix(-1 0 0 1 64 38)" fill="white"/>
<rect width="4" height="4" transform="matrix(-1 0 0 1 64 34)" fill="white"/>
<rect width="4" height="4" transform="matrix(-1 0 0 1 60 30)" fill="white"/>
<rect width="4" height="4" transform="matrix(-1 0 0 1 56 26)" fill="white"/>
<rect width="4" height="4" transform="matrix(-1 0 0 1 52 22)" fill="white"/>
<rect width="4" height="4" transform="matrix(-1 0 0 1 48 18)" fill="white"/>
<rect width="4" height="4" transform="matrix(-1 0 0 1 44 14)" fill="white"/>
<rect width="4" height="4" transform="matrix(-1 0 0 1 40 10)" fill="white"/>
<rect width="4" height="4" transform="matrix(-1 0 0 1 36 10)" fill="white"/>
<rect width="4" height="4" transform="matrix(-1 0 0 1 32 14)" fill="white"/>
<rect width="4" height="4" transform="matrix(-1 0 0 1 28 18)" fill="white"/>
<rect width="4" height="4" transform="matrix(-1 0 0 1 24 22)" fill="white"/>
<rect width="4" height="4" transform="matrix(-1 0 0 1 20 26)" fill="white"/>
<rect width="4" height="4" transform="matrix(-1 0 0 1 16 30)" fill="white"/>
<rect width="4" height="4" transform="matrix(-1 0 0 1 12 34)" fill="white"/>
<rect width="4" height="4" transform="matrix(-1 0 0 1 12 38)" fill="white"/>
<rect width="4" height="4" transform="matrix(-1 0 0 1 12 42)" fill="white"/>
<rect width="4" height="4" transform="matrix(-1 0 0 1 8 42)" fill="white"/>
<rect width="4" height="4" transform="matrix(-1 0 0 1 4 42)" fill="#FF6E32"/>
<rect width="4" height="4" transform="matrix(-1 0 0 1 4 46)" fill="#FF6E32"/>
<rect width="4" height="4" transform="matrix(-1 0 0 1 4 50)" fill="#FF6E32"/>
<rect width="4" height="4" transform="matrix(-1 0 0 1 4 54)" fill="#FF6E32"/>
<rect width="4" height="4" transform="matrix(-1 0 0 1 8 58)" fill="#FF6E32"/>
<rect width="4" height="4" transform="matrix(-1 0 0 1 12 62)" fill="#FF6E32"/>
<rect width="4" height="4" transform="matrix(-1 0 0 1 16 62)" fill="#FF6E32"/>
<rect width="4" height="4" transform="matrix(-1 0 0 1 20 62)" fill="#FF6E32"/>
<rect width="4" height="4" transform="matrix(-1 0 0 1 24 62)" fill="#FF6E32"/>
<rect width="4" height="4" transform="matrix(-1 0 0 1 28 62)" fill="#FF6E32"/>
<rect width="4" height="4" transform="matrix(-1 0 0 1 32 62)" fill="#FF6E32"/>
<rect width="4" height="4" transform="matrix(-1 0 0 1 36 62)" fill="#FF6E32"/>
<rect width="4" height="4" transform="matrix(-1 0 0 1 40 62)" fill="#FF6E32"/>
<rect width="4" height="4" transform="matrix(-1 0 0 1 44 62)" fill="#FF6E32"/>
<rect width="4" height="4" transform="matrix(-1 0 0 1 48 62)" fill="#FF6E32"/>
<rect width="4" height="4" transform="matrix(-1 0 0 1 52 62)" fill="#FF6E32"/>
<rect width="4" height="4" transform="matrix(-1 0 0 1 56 62)" fill="#FF6E32"/>
<rect width="4" height="4" transform="matrix(-1 0 0 1 60 62)" fill="#FF6E32"/>
<rect width="4" height="4" transform="matrix(-1 0 0 1 64 62)" fill="#FF6E32"/>
<rect width="4" height="4" transform="matrix(-1 0 0 1 68 58)" fill="#FF6E32"/>
<rect width="4" height="4" transform="matrix(-1 0 0 1 72 54)" fill="#FF6E32"/>
<rect width="4" height="4" transform="matrix(-1 0 0 1 72 50)" fill="#FF6E32"/>
<rect width="4" height="4" transform="matrix(-1 0 0 1 72 46)" fill="#FF6E32"/>
<rect width="4" height="4" transform="matrix(-1 0 0 1 72 42)" fill="#FF6E32"/>
<rect width="4" height="4" transform="matrix(-1 0 0 1 68 38)" fill="#FF6E32"/>
<rect width="4" height="4" transform="matrix(-1 0 0 1 68 34)" fill="#FF6E32"/>
<rect width="4" height="4" transform="matrix(-1 0 0 1 68 30)" fill="#FF6E32"/>
<rect width="4" height="4" transform="matrix(-1 0 0 1 64 26)" fill="#FF6E32"/>
<rect width="4" height="4" transform="matrix(-1 0 0 1 60 22)" fill="#FF6E32"/>
<rect width="4" height="4" transform="matrix(-1 0 0 1 56 18)" fill="#FF6E32"/>
<rect width="4" height="4" transform="matrix(-1 0 0 1 52 14)" fill="#FF6E32"/>
<rect width="4" height="4" transform="matrix(-1 0 0 1 48 10)" fill="#FF6E32"/>
<rect width="4" height="4" transform="matrix(-1 0 0 1 44 6)" fill="#FF6E32"/>
<rect width="4" height="4" transform="matrix(-1 0 0 1 40 6)" fill="#FF6E32"/>
<rect width="4" height="4" transform="matrix(-1 0 0 1 36 6)" fill="#FF6E32"/>
<rect width="4" height="4" transform="matrix(-1 0 0 1 32 6)" fill="#FF6E32"/>
<rect width="4" height="4" transform="matrix(-1 0 0 1 28 10)" fill="#FF6E32"/>
<rect width="4" height="4" transform="matrix(-1 0 0 1 24 14)" fill="#FF6E32"/>
<rect width="4" height="4" transform="matrix(-1 0 0 1 20 18)" fill="#FF6E32"/>
<rect width="4" height="4" transform="matrix(-1 0 0 1 16 22)" fill="#FF6E32"/>
<rect width="4" height="4" transform="matrix(-1 0 0 1 12 26)" fill="#FF6E32"/>
<rect width="4" height="4" transform="matrix(-1 0 0 1 8 30)" fill="#FF6E32"/>
<rect width="4" height="4" transform="matrix(-1 0 0 1 8 34)" fill="#FF6E32"/>
<rect width="4" height="4" transform="matrix(-1 0 0 1 8 38)" fill="#FF6E32"/>
<rect width="4" height="4" transform="matrix(-1 0 0 1 68 50)" fill="white"/>
<rect width="4" height="4" transform="matrix(-1 0 0 1 16 58)" fill="white"/>
<rect width="4" height="4" transform="matrix(-1 0 0 1 20 58)" fill="white"/>
<rect width="4" height="4" transform="matrix(-1 0 0 1 24 58)" fill="white"/>
<rect width="4" height="4" transform="matrix(-1 0 0 1 28 58)" fill="white"/>
<rect width="4" height="4" transform="matrix(-1 0 0 1 32 58)" fill="white"/>
<rect width="4" height="4" transform="matrix(-1 0 0 1 36 58)" fill="white"/>
<rect width="4" height="4" transform="matrix(-1 0 0 1 40 58)" fill="white"/>
<rect width="4" height="4" transform="matrix(-1 0 0 1 44 58)" fill="white"/>
<rect width="4" height="4" transform="matrix(-1 0 0 1 48 58)" fill="white"/>
<rect width="4" height="4" transform="matrix(-1 0 0 1 52 58)" fill="white"/>
<rect width="4" height="4" transform="matrix(-1 0 0 1 56 58)" fill="white"/>
<rect width="4" height="4" transform="matrix(-1 0 0 1 60 58)" fill="white"/>
</svg>
