<svg width="20" height="20" viewBox="0 0 20 20" fill="none" xmlns="http://www.w3.org/2000/svg">
<path d="M2 2H18V18H2V2Z" fill="#FFE183"/>
<path d="M2 0H18V2H2V0Z" fill="#FFA202"/>
<path d="M2 18H18V20H2V18Z" fill="#FFA202"/>
<path d="M20 2V18H18V2H20Z" fill="#FFA202"/>
<path d="M2 2V18H0L6.99382e-07 2L2 2Z" fill="#FFA202"/>
<path d="M4 7H6V9H4V7Z" fill="#37474F"/>
<path d="M4 9H6V11H4V9Z" fill="#37474F"/>
<path d="M6 9H8V11H6V9Z" fill="#37474F"/>
<path d="M6 11H8V13H6V11Z" fill="#37474F"/>
<path d="M8 11H10V13H8V11Z" fill="#37474F"/>
<path d="M10 11H12V13H10V11Z" fill="#37474F"/>
<path d="M12 9H14V11H12V9Z" fill="#37474F"/>
<path d="M14 7H16V9H14V7Z" fill="#37474F"/>
<path d="M8 13H10V15H8V13Z" fill="#37474F"/>
<path d="M10 9H12V11H10V9Z" fill="#37474F"/>
<path d="M12 7H14V9H12V7Z" fill="#37474F"/>
<path d="M14 5H16V7H14V5Z" fill="#37474F"/>
</svg>
