<svg width="20" height="20" viewBox="0 0 20 20" fill="none" xmlns="http://www.w3.org/2000/svg">
<path d="M3.33333 1.66667H16.6667V3.33333H3.33333V1.66667Z" fill="white"/>
<path d="M3.33333 16.6667H16.6667V18.3333H3.33333V16.6667Z" fill="white"/>
<path d="M18.3333 3.33333V16.6667H16.6667V3.33333L18.3333 3.33333Z" fill="white"/>
<path d="M3.33333 3.33333V16.6667H1.66667L1.66667 3.33333L3.33333 3.33333Z" fill="white"/>
<path d="M3.33333 3.33333H16.6667V16.6667H3.33333V3.33333Z" fill="white"/>
<path d="M3.33333 3.33333H5V5H3.33333V3.33333Z" fill="white"/>
<path d="M3.33333 15H5V16.6667H3.33333V15Z" fill="white"/>
<path d="M15 3.33333H16.6667V5H15V3.33333Z" fill="white"/>
<path d="M15 15H16.6667V16.6667H15V15Z" fill="white"/>
<path d="M5 7.5H6.66667V9.16667H5V7.5Z" fill="#FF5601"/>
<path d="M5 9.16667H6.66667V10.8333H5V9.16667Z" fill="#FF5601"/>
<path d="M6.66667 9.16667H8.33333V10.8333H6.66667V9.16667Z" fill="#FF5601"/>
<path d="M6.66667 10.8333H8.33333V12.5H6.66667V10.8333Z" fill="#FF5601"/>
<path d="M8.33333 10.8333H10V12.5H8.33333V10.8333Z" fill="#FF5601"/>
<path d="M8.33333 12.5H10V14.1667H8.33333V12.5Z" fill="#FF5601"/>
<path d="M10 10.8333H11.6667V12.5H10V10.8333Z" fill="#FF5601"/>
<path d="M10 9.16667H11.6667V10.8333H10V9.16667Z" fill="#FF5601"/>
<path d="M11.6667 9.16667H13.3333V10.8333H11.6667V9.16667Z" fill="#FF5601"/>
<path d="M11.6667 7.5H13.3333V9.16667H11.6667V7.5Z" fill="#FF5601"/>
<path d="M13.3333 7.5H15V9.16667H13.3333V7.5Z" fill="#FF5601"/>
<path d="M13.3333 5.83333H15V7.5H13.3333V5.83333Z" fill="#FF5601"/>
</svg>
