<svg width="60" height="60" viewBox="0 0 60 60" fill="none" xmlns="http://www.w3.org/2000/svg">
<g clip-path="url(#clip0_326_62731)">
<rect width="2" height="2" transform="matrix(-1 0 0 1 30 6)" fill="black"/>
<rect width="2" height="2" transform="matrix(-1 0 0 1 30 12)" fill="#562D29"/>
<rect width="2" height="2" transform="matrix(-1 0 0 1 30 10)" fill="#562D29"/>
<rect width="2" height="2" transform="matrix(-1 0 0 1 30 18)" fill="#562D29"/>
<rect width="2" height="2" transform="matrix(-1 0 0 1 30 14)" fill="#562D29"/>
<rect width="2" height="2" transform="matrix(-1 0 0 1 30 16)" fill="#562D29"/>
<rect x="30" y="6" width="2" height="2" fill="black"/>
<rect x="30" y="12" width="2" height="2" fill="#562D29"/>
<rect x="30" y="10" width="2" height="2" fill="#562D29"/>
<rect x="30" y="18" width="2" height="2" fill="#562D29"/>
<rect x="30" y="14" width="2" height="2" fill="#562D29"/>
<rect x="30" y="16" width="2" height="2" fill="#562D29"/>
<rect width="2" height="2" transform="matrix(-1 0 0 1 28 6)" fill="black"/>
<rect width="2" height="2" transform="matrix(-1 0 0 1 28 12)" fill="#562D29"/>
<rect width="2" height="2" transform="matrix(-1 0 0 1 28 10)" fill="#562D29"/>
<rect width="2" height="2" transform="matrix(-1 0 0 1 28 18)" fill="#562D29"/>
<rect width="2" height="2" transform="matrix(-1 0 0 1 28 14)" fill="#562D29"/>
<rect width="2" height="2" transform="matrix(-1 0 0 1 28 16)" fill="#562D29"/>
<rect x="32" y="6" width="2" height="2" fill="black"/>
<rect x="32" y="12" width="2" height="2" fill="#562D29"/>
<rect x="32" y="10" width="2" height="2" fill="#562D29"/>
<rect x="32" y="18" width="2" height="2" fill="#562D29"/>
<rect x="32" y="14" width="2" height="2" fill="#562D29"/>
<rect x="32" y="16" width="2" height="2" fill="#562D29"/>
<rect width="2" height="2" transform="matrix(-1 0 0 1 26 6)" fill="black"/>
<rect width="2" height="2" transform="matrix(-1 0 0 1 26 12)" fill="#562D29"/>
<rect width="2" height="2" transform="matrix(-1 0 0 1 26 10)" fill="#A97D78"/>
<rect width="2" height="2" transform="matrix(-1 0 0 1 26 18)" fill="#562D29"/>
<rect width="2" height="2" transform="matrix(-1 0 0 1 26 14)" fill="#562D29"/>
<rect width="2" height="2" transform="matrix(-1 0 0 1 26 16)" fill="#562D29"/>
<rect x="34" y="6" width="2" height="2" fill="black"/>
<rect x="34" y="12" width="2" height="2" fill="#562D29"/>
<rect x="34" y="10" width="2" height="2" fill="#562D29"/>
<rect x="34" y="18" width="2" height="2" fill="#A97D78"/>
<rect x="34" y="14" width="2" height="2" fill="#562D29"/>
<rect x="34" y="16" width="2" height="2" fill="#562D29"/>
<rect width="2" height="2" transform="matrix(-1 0 0 1 24 6)" fill="black"/>
<rect width="2" height="2" transform="matrix(-1 0 0 1 24 12)" fill="#A97D78"/>
<rect width="2" height="2" transform="matrix(-1 0 0 1 24 10)" fill="#562D29"/>
<rect width="2" height="2" transform="matrix(-1 0 0 1 24 18)" fill="#562D29"/>
<rect width="2" height="2" transform="matrix(-1 0 0 1 24 14)" fill="#562D29"/>
<rect width="2" height="2" transform="matrix(-1 0 0 1 24 16)" fill="#A97D78"/>
<rect width="2" height="2" transform="matrix(-1 0 0 1 20 14)" fill="#562D29"/>
<rect width="2" height="2" transform="matrix(-1 0 0 1 44 14)" fill="#562D29"/>
<rect x="36" y="6" width="2" height="2" fill="black"/>
<rect x="36" y="12" width="2" height="2" fill="#A97D78"/>
<rect x="36" y="10" width="2" height="2" fill="#562D29"/>
<rect x="36" y="18" width="2" height="2" fill="#562D29"/>
<rect x="36" y="14" width="2" height="2" fill="#562D29"/>
<rect x="36" y="16" width="2" height="2" fill="#A97D78"/>
<rect x="20" y="6" width="2" height="2" fill="black"/>
<rect x="20" y="12" width="2" height="2" fill="#562D29"/>
<rect x="20" y="10" width="2" height="2" fill="#562D29"/>
<rect x="20" y="18" width="2" height="2" fill="#562D29"/>
<rect x="20" y="14" width="2" height="2" fill="#A97D78"/>
<rect x="20" y="16" width="2" height="2" fill="#562D29"/>
<rect x="18" y="16" width="2" height="2" fill="#562D29"/>
<rect x="18" y="12" width="2" height="2" fill="#562D29"/>
<rect x="16" y="14" width="2" height="2" fill="#562D29"/>
<rect x="40" y="14" width="2" height="2" fill="#562D29"/>
<rect width="2" height="2" transform="matrix(-1 0 0 1 40 6)" fill="black"/>
<rect width="2" height="2" transform="matrix(-1 0 0 1 40 12)" fill="#562D29"/>
<rect width="2" height="2" transform="matrix(-1 0 0 1 40 10)" fill="#562D29"/>
<rect width="2" height="2" transform="matrix(-1 0 0 1 40 18)" fill="#562D29"/>
<rect width="2" height="2" transform="matrix(-1 0 0 1 40 14)" fill="#A97D78"/>
<rect width="2" height="2" transform="matrix(-1 0 0 1 40 16)" fill="#562D29"/>
<rect width="2" height="2" transform="matrix(-1 0 0 1 42 16)" fill="#562D29"/>
<rect width="2" height="2" transform="matrix(-1 0 0 1 42 12)" fill="#562D29"/>
<rect x="18" y="8" width="2" height="2" fill="black"/>
<rect width="2" height="2" transform="matrix(-1 0 0 1 42 8)" fill="black"/>
<rect x="16" y="8" width="2" height="2" fill="black"/>
<rect width="2" height="2" transform="matrix(-1 0 0 1 44 8)" fill="black"/>
<rect x="14" y="10" width="2" height="2" fill="black"/>
<rect width="2" height="2" transform="matrix(-1 0 0 1 46 10)" fill="black"/>
<rect x="12" y="12" width="2" height="2" fill="black"/>
<rect width="2" height="2" transform="matrix(-1 0 0 1 48 12)" fill="black"/>
<rect x="10" y="14" width="2" height="2" fill="black"/>
<rect width="2" height="2" transform="matrix(-1 0 0 1 50 16)" fill="black"/>
<rect width="2" height="2" transform="matrix(-1 0 0 1 48 16)" fill="black"/>
<rect width="2" height="2" transform="matrix(-1 0 0 1 48 14)" fill="black"/>
<rect x="10" y="16" width="2" height="2" fill="black"/>
<rect x="10" y="18" width="2" height="2" fill="black"/>
<rect x="12" y="18" width="2" height="2" fill="white"/>
<rect x="20" y="8" width="2" height="2" fill="white"/>
<rect x="18" y="10" width="2" height="2" fill="#DCF2FD"/>
<rect x="16" y="10" width="2" height="2" fill="#DCF2FD"/>
<rect x="16" y="12" width="2" height="2" fill="#DCF2FD"/>
<rect x="14" y="12" width="2" height="2" fill="#DCF2FD"/>
<rect x="14" y="14" width="2" height="2" fill="white"/>
<rect x="12" y="14" width="2" height="2" fill="white"/>
<rect x="12" y="16" width="2" height="2" fill="#71BBE3"/>
<rect x="12" y="20" width="2" height="2" fill="white"/>
<rect x="12" y="22" width="2" height="2" fill="white"/>
<rect x="14" y="22" width="2" height="2" fill="white"/>
<rect x="16" y="24" width="2" height="2" fill="white"/>
<rect x="18" y="24" width="2" height="2" fill="white"/>
<rect x="20" y="26" width="2" height="2" fill="white"/>
<rect x="22" y="26" width="2" height="2" fill="white"/>
<rect x="24" y="26" width="2" height="2" fill="white"/>
<rect x="26" y="26" width="2" height="2" fill="white"/>
<rect x="28" y="26" width="2" height="2" fill="white"/>
<rect x="30" y="26" width="2" height="2" fill="white"/>
<rect x="32" y="26" width="2" height="2" fill="#DCF2FD"/>
<rect x="34" y="26" width="2" height="2" fill="#DCF2FD"/>
<rect x="36" y="26" width="2" height="2" fill="#DCF2FD"/>
<rect x="38" y="26" width="2" height="2" fill="#DCF2FD"/>
<rect x="40" y="24" width="2" height="2" fill="#DCF2FD"/>
<rect x="42" y="22" width="2" height="2" fill="#DCF2FD"/>
<rect x="44" y="20" width="2" height="2" fill="white"/>
<rect x="12" y="24" width="2" height="2" fill="white"/>
<rect x="14" y="24" width="2" height="2" fill="white"/>
<rect x="16" y="26" width="2" height="2" fill="white"/>
<rect x="18" y="26" width="2" height="2" fill="white"/>
<rect x="20" y="28" width="2" height="2" fill="white"/>
<rect x="22" y="28" width="2" height="2" fill="white"/>
<rect x="24" y="28" width="2" height="2" fill="white"/>
<rect x="26" y="28" width="2" height="2" fill="white"/>
<rect x="28" y="28" width="2" height="2" fill="white"/>
<rect x="30" y="28" width="2" height="2" fill="white"/>
<rect x="32" y="28" width="2" height="2" fill="#DCF2FD"/>
<rect x="34" y="28" width="2" height="2" fill="#DCF2FD"/>
<rect x="36" y="28" width="2" height="2" fill="#DCF2FD"/>
<rect x="38" y="28" width="2" height="2" fill="#DCF2FD"/>
<rect x="40" y="26" width="2" height="2" fill="#DCF2FD"/>
<rect x="42" y="24" width="2" height="2" fill="#DCF2FD"/>
<rect x="44" y="22" width="2" height="2" fill="white"/>
<rect x="12" y="26" width="2" height="2" fill="white"/>
<rect x="14" y="26" width="2" height="2" fill="white"/>
<rect x="16" y="28" width="2" height="2" fill="white"/>
<rect x="12" y="36" width="2" height="2" fill="white"/>
<rect x="12" y="38" width="2" height="2" fill="white"/>
<rect x="12" y="40" width="2" height="2" fill="white"/>
<rect x="14" y="36" width="2" height="2" fill="white"/>
<rect x="14" y="38" width="2" height="2" fill="white"/>
<rect x="16" y="38" width="2" height="2" fill="white"/>
<rect x="18" y="40" width="2" height="2" fill="white"/>
<rect x="14" y="40" width="2" height="2" fill="white"/>
<rect x="14" y="42" width="2" height="2" fill="white"/>
<rect x="16" y="40" width="2" height="2" fill="white"/>
<rect x="16" y="42" width="2" height="2" fill="white"/>
<rect x="18" y="42" width="2" height="2" fill="white"/>
<rect x="20" y="42" width="2" height="2" fill="white"/>
<rect x="22" y="42" width="2" height="2" fill="white"/>
<rect x="18" y="44" width="2" height="2" fill="white"/>
<rect x="20" y="44" width="2" height="2" fill="white"/>
<rect x="22" y="44" width="2" height="2" fill="white"/>
<rect x="24" y="44" width="2" height="2" fill="white"/>
<rect x="22" y="46" width="2" height="2" fill="white"/>
<rect x="24" y="46" width="2" height="2" fill="white"/>
<rect x="26" y="46" width="2" height="2" fill="white"/>
<rect x="48" y="34" width="2" height="2" fill="white"/>
<rect x="50" y="30" width="2" height="2" fill="white"/>
<rect x="50" y="32" width="2" height="2" fill="white"/>
<rect x="52" y="32" width="2" height="2" fill="white"/>
<rect x="52" y="34" width="2" height="2" fill="white"/>
<rect x="52" y="36" width="2" height="2" fill="white"/>
<rect x="52" y="38" width="2" height="2" fill="white"/>
<rect x="50" y="38" width="2" height="2" fill="white"/>
<rect x="50" y="40" width="2" height="2" fill="white"/>
<rect x="50" y="42" width="2" height="2" fill="white"/>
<rect x="48" y="42" width="2" height="2" fill="white"/>
<rect x="48" y="44" width="2" height="2" fill="white"/>
<rect x="46" y="44" width="2" height="2" fill="white"/>
<rect x="46" y="46" width="2" height="2" fill="white"/>
<rect x="44" y="46" width="2" height="2" fill="white"/>
<rect x="42" y="46" width="2" height="2" fill="white"/>
<rect x="42" y="48" width="2" height="2" fill="white"/>
<rect x="40" y="48" width="2" height="2" fill="white"/>
<rect x="38" y="48" width="2" height="2" fill="white"/>
<rect x="38" y="50" width="2" height="2" fill="white"/>
<rect x="36" y="50" width="2" height="2" fill="white"/>
<rect x="34" y="50" width="2" height="2" fill="white"/>
<rect x="32" y="50" width="2" height="2" fill="white"/>
<rect x="30" y="50" width="2" height="2" fill="white"/>
<rect x="28" y="50" width="2" height="2" fill="white"/>
<rect x="26" y="50" width="2" height="2" fill="white"/>
<rect x="24" y="50" width="2" height="2" fill="white"/>
<rect x="22" y="50" width="2" height="2" fill="white"/>
<rect x="20" y="50" width="2" height="2" fill="white"/>
<rect x="20" y="48" width="2" height="2" fill="white"/>
<rect x="18" y="48" width="2" height="2" fill="white"/>
<rect x="16" y="48" width="2" height="2" fill="white"/>
<rect x="16" y="46" width="2" height="2" fill="white"/>
<rect x="14" y="46" width="2" height="2" fill="white"/>
<rect x="12" y="46" width="2" height="2" fill="white"/>
<rect x="12" y="44" width="2" height="2" fill="white"/>
<rect x="10" y="44" width="2" height="2" fill="white"/>
<rect x="10" y="42" width="2" height="2" fill="white"/>
<rect x="8" y="42" width="2" height="2" fill="white"/>
<rect x="8" y="40" width="2" height="2" fill="white"/>
<rect x="14" y="30" width="2" height="2" fill="white"/>
<rect x="16" y="32" width="2" height="2" fill="white"/>
<rect x="18" y="32" width="2" height="2" fill="white"/>
<rect x="40" y="32" width="2" height="2" fill="#DCF2FD"/>
<rect x="42" y="30" width="2" height="2" fill="#DCF2FD"/>
<rect x="44" y="28" width="2" height="2" fill="white"/>
<rect x="46" y="28" width="2" height="2" fill="white"/>
<rect x="48" y="28" width="2" height="2" fill="white"/>
<rect x="50" y="26" width="2" height="2" fill="white"/>
<rect x="52" y="24" width="2" height="2" fill="white"/>
<rect x="50" y="20" width="2" height="2" fill="white"/>
<rect x="52" y="20" width="2" height="2" fill="white"/>
<rect x="18" y="28" width="2" height="2" fill="white"/>
<rect x="20" y="30" width="2" height="2" fill="white"/>
<rect x="22" y="30" width="2" height="2" fill="white"/>
<rect x="24" y="30" width="2" height="2" fill="white"/>
<rect x="26" y="30" width="2" height="2" fill="white"/>
<rect x="28" y="30" width="2" height="2" fill="white"/>
<rect x="30" y="30" width="2" height="2" fill="white"/>
<rect x="32" y="30" width="2" height="2" fill="#DCF2FD"/>
<rect x="34" y="30" width="2" height="2" fill="#DCF2FD"/>
<rect x="36" y="30" width="2" height="2" fill="#DCF2FD"/>
<rect x="38" y="30" width="2" height="2" fill="#DCF2FD"/>
<rect x="40" y="28" width="2" height="2" fill="#DCF2FD"/>
<rect x="42" y="26" width="2" height="2" fill="#DCF2FD"/>
<rect x="44" y="24" width="2" height="2" fill="white"/>
<rect x="12" y="28" width="2" height="2" fill="white"/>
<rect x="14" y="28" width="2" height="2" fill="white"/>
<rect x="16" y="30" width="2" height="2" fill="white"/>
<rect x="14" y="32" width="2" height="2" fill="white"/>
<rect x="42" y="32" width="2" height="2" fill="#DCF2FD"/>
<rect x="44" y="30" width="2" height="2" fill="white"/>
<rect x="44" y="32" width="2" height="2" fill="white"/>
<rect x="18" y="30" width="2" height="2" fill="white"/>
<rect x="20" y="32" width="2" height="2" fill="white"/>
<rect x="22" y="32" width="2" height="2" fill="white"/>
<rect x="24" y="32" width="2" height="2" fill="white"/>
<rect x="26" y="32" width="2" height="2" fill="white"/>
<rect x="28" y="32" width="2" height="2" fill="white"/>
<rect x="30" y="32" width="2" height="2" fill="white"/>
<rect x="32" y="32" width="2" height="2" fill="#DCF2FD"/>
<rect x="34" y="32" width="2" height="2" fill="#DCF2FD"/>
<rect x="36" y="32" width="2" height="2" fill="#DCF2FD"/>
<rect x="38" y="32" width="2" height="2" fill="#DCF2FD"/>
<rect x="40" y="30" width="2" height="2" fill="#DCF2FD"/>
<rect x="42" y="28" width="2" height="2" fill="#DCF2FD"/>
<rect x="44" y="26" width="2" height="2" fill="white"/>
<rect x="46" y="26" width="2" height="2" fill="white"/>
<rect x="48" y="26" width="2" height="2" fill="white"/>
<rect x="50" y="24" width="2" height="2" fill="white"/>
<rect x="52" y="22" width="2" height="2" fill="white"/>
<rect x="50" y="18" width="2" height="2" fill="white"/>
<rect x="48" y="18" width="2" height="2" fill="white"/>
<rect x="46" y="18" width="2" height="2" fill="white"/>
<rect x="14" y="16" width="2" height="2" fill="white"/>
<rect x="14" y="18" width="2" height="2" fill="#71BBE3"/>
<rect x="16" y="20" width="2" height="2" fill="#71BBE3"/>
<rect x="16" y="16" width="2" height="2" fill="white"/>
<rect x="16" y="18" width="2" height="2" fill="white"/>
<rect x="18" y="18" width="2" height="2" fill="white"/>
<rect x="18" y="20" width="2" height="2" fill="#71BBE3"/>
<rect x="20" y="20" width="2" height="2" fill="white"/>
<rect x="20" y="22" width="2" height="2" fill="#71BBE3"/>
<rect x="22" y="20" width="2" height="2" fill="white"/>
<rect x="22" y="22" width="2" height="2" fill="#71BBE3"/>
<rect x="24" y="20" width="2" height="2" fill="white"/>
<rect x="24" y="22" width="2" height="2" fill="#71BBE3"/>
<rect x="26" y="20" width="2" height="2" fill="white"/>
<rect x="26" y="22" width="2" height="2" fill="#71BBE3"/>
<rect x="28" y="20" width="2" height="2" fill="white"/>
<rect x="28" y="22" width="2" height="2" fill="#71BBE3"/>
<rect x="30" y="20" width="2" height="2" fill="white"/>
<rect x="30" y="22" width="2" height="2" fill="#71BBE3"/>
<rect x="32" y="20" width="2" height="2" fill="white"/>
<rect x="32" y="22" width="2" height="2" fill="#71BBE3"/>
<rect x="34" y="20" width="2" height="2" fill="white"/>
<rect x="34" y="22" width="2" height="2" fill="#71BBE3"/>
<rect x="36" y="20" width="2" height="2" fill="white"/>
<rect x="36" y="22" width="2" height="2" fill="#71BBE3"/>
<rect x="38" y="20" width="2" height="2" fill="white"/>
<rect x="38" y="22" width="2" height="2" fill="#71BBE3"/>
<rect x="40" y="20" width="2" height="2" fill="#71BBE3"/>
<rect x="40" y="18" width="2" height="2" fill="white"/>
<rect x="42" y="18" width="2" height="2" fill="#71BBE3"/>
<rect x="42" y="16" width="2" height="2" fill="white"/>
<rect x="44" y="16" width="2" height="2" fill="#71BBE3"/>
<rect x="44" y="14" width="2" height="2" fill="white"/>
<rect x="44" y="12" width="2" height="2" fill="#DCF2FD"/>
<rect x="42" y="12" width="2" height="2" fill="#DCF2FD"/>
<rect x="42" y="10" width="2" height="2" fill="#DCF2FD"/>
<rect x="40" y="10" width="2" height="2" fill="#DCF2FD"/>
<rect x="22" y="8" width="2" height="2" fill="white"/>
<rect x="24" y="8" width="2" height="2" fill="white"/>
<rect x="26" y="8" width="2" height="2" fill="white"/>
<rect x="28" y="8" width="2" height="2" fill="white"/>
<rect x="30" y="8" width="2" height="2" fill="white"/>
<rect x="32" y="8" width="2" height="2" fill="white"/>
<rect x="34" y="8" width="2" height="2" fill="white"/>
<rect x="36" y="8" width="2" height="2" fill="white"/>
<rect x="38" y="8" width="2" height="2" fill="white"/>
<rect width="2" height="2" transform="matrix(-1 0 0 1 46 18)" fill="white"/>
<rect x="14" y="20" width="2" height="2" fill="white"/>
<rect width="2" height="2" transform="matrix(-1 0 0 1 44 20)" fill="white"/>
<rect x="16" y="22" width="2" height="2" fill="white"/>
<rect width="2" height="2" transform="matrix(-1 0 0 1 42 22)" fill="white"/>
<rect x="18" y="22" width="2" height="2" fill="white"/>
<rect width="2" height="2" transform="matrix(-1 0 0 1 40 24)" fill="white"/>
<rect x="20" y="24" width="2" height="2" fill="white"/>
<rect width="2" height="2" transform="matrix(-1 0 0 1 38 24)" fill="white"/>
<rect x="22" y="24" width="2" height="2" fill="white"/>
<rect width="2" height="2" transform="matrix(-1 0 0 1 36 24)" fill="white"/>
<rect x="24" y="24" width="2" height="2" fill="white"/>
<rect width="2" height="2" transform="matrix(-1 0 0 1 34 24)" fill="white"/>
<rect x="26" y="24" width="2" height="2" fill="white"/>
<rect width="2" height="2" transform="matrix(-1 0 0 1 32 24)" fill="white"/>
<rect x="28" y="24" width="2" height="2" fill="white"/>
<rect width="2" height="2" transform="matrix(-1 0 0 1 52 16)" fill="black"/>
<rect x="10" y="20" width="2" height="2" fill="black"/>
<rect x="10" y="22" width="2" height="2" fill="black"/>
<rect x="10" y="24" width="2" height="2" fill="black"/>
<rect x="10" y="26" width="2" height="2" fill="black"/>
<rect width="2" height="2" transform="matrix(-1 0 0 1 52 28)" fill="black"/>
<rect width="2" height="2" transform="matrix(-1 0 0 1 54 30)" fill="black"/>
<rect x="6" y="32" width="2" height="2" fill="black"/>
<rect x="8" y="30" width="2" height="2" fill="black"/>
<rect width="2" height="2" transform="matrix(-1 0 0 1 56 32)" fill="black"/>
<rect x="4" y="34" width="2" height="2" fill="black"/>
<rect width="2" height="2" transform="matrix(-1 0 0 1 56 34)" fill="black"/>
<rect width="2" height="2" transform="matrix(-1 0 0 1 56 36)" fill="black"/>
<rect x="4" y="36" width="2" height="2" fill="black"/>
<rect width="2" height="2" transform="matrix(-1 0 0 1 56 38)" fill="black"/>
<rect x="4" y="38" width="2" height="2" fill="black"/>
<rect width="2" height="2" transform="matrix(-1 0 0 1 54 40)" fill="black"/>
<rect x="6" y="40" width="2" height="2" fill="black"/>
<rect width="2" height="2" transform="matrix(-1 0 0 1 54 42)" fill="black"/>
<rect x="6" y="42" width="2" height="2" fill="black"/>
<rect width="2" height="2" transform="matrix(-1 0 0 1 52 44)" fill="black"/>
<rect x="8" y="44" width="2" height="2" fill="black"/>
<rect width="2" height="2" transform="matrix(-1 0 0 1 50 46)" fill="black"/>
<rect x="10" y="46" width="2" height="2" fill="black"/>
<rect width="2" height="2" transform="matrix(-1 0 0 1 48 48)" fill="black"/>
<rect x="12" y="48" width="2" height="2" fill="black"/>
<rect width="2" height="2" transform="matrix(-1 0 0 1 46 48)" fill="black"/>
<rect x="14" y="48" width="2" height="2" fill="black"/>
<rect width="2" height="2" transform="matrix(-1 0 0 1 44 50)" fill="black"/>
<rect x="16" y="50" width="2" height="2" fill="black"/>
<rect width="2" height="2" transform="matrix(-1 0 0 1 42 50)" fill="black"/>
<rect x="18" y="50" width="2" height="2" fill="black"/>
<rect width="2" height="2" transform="matrix(-1 0 0 1 40 52)" fill="black"/>
<rect x="20" y="52" width="2" height="2" fill="black"/>
<rect width="2" height="2" transform="matrix(-1 0 0 1 38 52)" fill="black"/>
<rect x="22" y="52" width="2" height="2" fill="black"/>
<rect width="2" height="2" transform="matrix(-1 0 0 1 36 52)" fill="black"/>
<rect x="24" y="52" width="2" height="2" fill="black"/>
<rect width="2" height="2" transform="matrix(-1 0 0 1 34 52)" fill="black"/>
<rect x="26" y="52" width="2" height="2" fill="black"/>
<rect width="2" height="2" transform="matrix(-1 0 0 1 32 52)" fill="black"/>
<rect x="28" y="52" width="2" height="2" fill="black"/>
<rect width="2" height="2" transform="matrix(-1 0 0 1 54 26)" fill="black"/>
<rect width="2" height="2" transform="matrix(-1 0 0 1 56 22)" fill="black"/>
<rect width="2" height="2" transform="matrix(-1 0 0 1 56 20)" fill="black"/>
<rect width="2" height="2" transform="matrix(-1 0 0 1 54 18)" fill="black"/>
<rect width="2" height="2" transform="matrix(-1 0 0 1 56 24)" fill="black"/>
<rect x="10" y="28" width="2" height="2" fill="black"/>
<rect width="2" height="2" transform="matrix(-1 0 0 1 50 30)" fill="black"/>
<rect width="2" height="2" transform="matrix(-1 0 0 1 50 24)" fill="black"/>
<rect width="2" height="2" transform="matrix(-1 0 0 1 52 22)" fill="black"/>
<rect width="2" height="2" transform="matrix(-1 0 0 1 50 20)" fill="black"/>
<rect width="2" height="2" transform="matrix(-1 0 0 1 48 20)" fill="black"/>
<rect width="2" height="2" transform="matrix(-1 0 0 1 48 22)" fill="black"/>
<rect width="2" height="2" transform="matrix(-1 0 0 1 48 24)" fill="black"/>
<rect x="12" y="32" width="2" height="2" fill="black"/>
<rect width="2" height="2" transform="matrix(-1 0 0 1 48 32)" fill="black"/>
<rect x="12" y="30" width="2" height="2" fill="black"/>
<rect width="2" height="2" transform="matrix(-1 0 0 1 48 30)" fill="black"/>
<rect x="20" y="34" width="2" height="2" fill="white"/>
<rect x="22" y="34" width="2" height="2" fill="white"/>
<rect x="24" y="34" width="2" height="2" fill="white"/>
<rect x="26" y="34" width="2" height="2" fill="white"/>
<rect x="28" y="34" width="2" height="2" fill="white"/>
<rect x="30" y="34" width="2" height="2" fill="#DCF2FD"/>
<rect x="32" y="34" width="2" height="2" fill="#DCF2FD"/>
<rect x="34" y="34" width="2" height="2" fill="#DCF2FD"/>
<rect x="36" y="34" width="2" height="2" fill="#DCF2FD"/>
<rect x="38" y="34" width="2" height="2" fill="#DCF2FD"/>
<rect x="16" y="34" width="2" height="2" fill="white"/>
<rect x="18" y="34" width="2" height="2" fill="white"/>
<rect x="20" y="36" width="2" height="2" fill="white"/>
<rect x="22" y="36" width="2" height="2" fill="white"/>
<rect x="24" y="36" width="2" height="2" fill="white"/>
<rect x="26" y="36" width="2" height="2" fill="white"/>
<rect x="28" y="36" width="2" height="2" fill="#DCF2FD"/>
<rect x="30" y="36" width="2" height="2" fill="#DCF2FD"/>
<rect x="32" y="36" width="2" height="2" fill="#DCF2FD"/>
<rect x="34" y="36" width="2" height="2" fill="#DCF2FD"/>
<rect x="36" y="36" width="2" height="2" fill="#DCF2FD"/>
<rect x="38" y="36" width="2" height="2" fill="#DCF2FD"/>
<rect x="40" y="34" width="2" height="2" fill="#DCF2FD"/>
<rect x="18" y="36" width="2" height="2" fill="white"/>
<rect x="20" y="38" width="2" height="2" fill="white"/>
<rect x="22" y="38" width="2" height="2" fill="white"/>
<rect x="24" y="38" width="2" height="2" fill="white"/>
<rect x="26" y="38" width="2" height="2" fill="white"/>
<rect x="28" y="38" width="2" height="2" fill="white"/>
<rect x="30" y="38" width="2" height="2" fill="white"/>
<rect x="32" y="38" width="2" height="2" fill="white"/>
<rect x="34" y="38" width="2" height="2" fill="white"/>
<rect x="36" y="38" width="2" height="2" fill="white"/>
<rect x="38" y="38" width="2" height="2" fill="white"/>
<rect x="40" y="36" width="2" height="2" fill="white"/>
<rect x="42" y="34" width="2" height="2" fill="white"/>
<rect x="14" y="34" width="2" height="2" fill="black"/>
<rect width="2" height="2" transform="matrix(-1 0 0 1 46 34)" fill="black"/>
<rect x="16" y="36" width="2" height="2" fill="black"/>
<rect width="2" height="2" transform="matrix(-1 0 0 1 44 36)" fill="black"/>
<rect x="18" y="38" width="2" height="2" fill="black"/>
<rect width="2" height="2" transform="matrix(-1 0 0 1 42 38)" fill="black"/>
<rect x="20" y="40" width="2" height="2" fill="black"/>
<rect width="2" height="2" transform="matrix(-1 0 0 1 40 40)" fill="black"/>
<rect x="22" y="40" width="2" height="2" fill="black"/>
<rect width="2" height="2" transform="matrix(-1 0 0 1 38 40)" fill="black"/>
<rect x="24" y="40" width="2" height="2" fill="black"/>
<rect width="2" height="2" transform="matrix(-1 0 0 1 36 40)" fill="black"/>
<rect x="26" y="40" width="2" height="2" fill="black"/>
<rect width="2" height="2" transform="matrix(-1 0 0 1 34 40)" fill="black"/>
<rect x="28" y="40" width="2" height="2" fill="black"/>
<rect width="2" height="2" transform="matrix(-1 0 0 1 32 40)" fill="black"/>
<rect x="10" y="30" width="2" height="2" fill="#DCF2FD"/>
<rect x="10" y="32" width="2" height="2" fill="#71BBE3"/>
<rect x="12" y="34" width="2" height="2" fill="#DCF2FD"/>
<rect x="10" y="36" width="2" height="2" fill="#DCF2FD"/>
<rect x="10" y="34" width="2" height="2" fill="#DCF2FD"/>
<rect x="24" y="42" width="2" height="2" fill="#DCF2FD"/>
<rect x="26" y="42" width="2" height="2" fill="#DCF2FD"/>
<rect x="26" y="44" width="2" height="2" fill="#DCF2FD"/>
<rect x="28" y="42" width="2" height="2" fill="#DCF2FD"/>
<rect x="28" y="44" width="2" height="2" fill="#DCF2FD"/>
<rect x="28" y="46" width="2" height="2" fill="#DCF2FD"/>
<rect x="30" y="42" width="2" height="2" fill="#DCF2FD"/>
<rect x="30" y="44" width="2" height="2" fill="#DCF2FD"/>
<rect x="30" y="46" width="2" height="2" fill="#DCF2FD"/>
<rect x="32" y="42" width="2" height="2" fill="#DCF2FD"/>
<rect x="32" y="44" width="2" height="2" fill="#DCF2FD"/>
<rect x="32" y="46" width="2" height="2" fill="#DCF2FD"/>
<rect x="34" y="42" width="2" height="2" fill="#DCF2FD"/>
<rect x="34" y="44" width="2" height="2" fill="#DCF2FD"/>
<rect x="34" y="46" width="2" height="2" fill="#DCF2FD"/>
<rect x="36" y="42" width="2" height="2" fill="#DCF2FD"/>
<rect x="36" y="44" width="2" height="2" fill="#DCF2FD"/>
<rect x="36" y="46" width="2" height="2" fill="#DCF2FD"/>
<rect x="38" y="42" width="2" height="2" fill="#DCF2FD"/>
<rect x="38" y="44" width="2" height="2" fill="#DCF2FD"/>
<rect x="38" y="46" width="2" height="2" fill="#71BBE3"/>
<rect x="40" y="42" width="2" height="2" fill="#DCF2FD"/>
<rect x="40" y="44" width="2" height="2" fill="#DCF2FD"/>
<rect x="40" y="46" width="2" height="2" fill="#71BBE3"/>
<rect x="40" y="40" width="2" height="2" fill="#DCF2FD"/>
<rect x="42" y="40" width="2" height="2" fill="#DCF2FD"/>
<rect x="42" y="38" width="2" height="2" fill="#DCF2FD"/>
<rect x="44" y="38" width="2" height="2" fill="#DCF2FD"/>
<rect x="44" y="36" width="2" height="2" fill="#DCF2FD"/>
<rect x="46" y="34" width="2" height="2" fill="#DCF2FD"/>
<rect x="46" y="36" width="2" height="2" fill="#DCF2FD"/>
<rect x="48" y="36" width="2" height="2" fill="#DCF2FD"/>
<rect x="48" y="38" width="2" height="2" fill="#71BBE3"/>
<rect x="46" y="38" width="2" height="2" fill="#DCF2FD"/>
<rect x="46" y="40" width="2" height="2" fill="#DCF2FD"/>
<rect x="44" y="40" width="2" height="2" fill="#DCF2FD"/>
<rect x="44" y="42" width="2" height="2" fill="#DCF2FD"/>
<rect x="42" y="42" width="2" height="2" fill="#DCF2FD"/>
<rect x="42" y="44" width="2" height="2" fill="#71BBE3"/>
<rect x="44" y="44" width="2" height="2" fill="#71BBE3"/>
<rect x="46" y="42" width="2" height="2" fill="#71BBE3"/>
<rect x="48" y="40" width="2" height="2" fill="#71BBE3"/>
<rect x="50" y="36" width="2" height="2" fill="#71BBE3"/>
<rect x="50" y="34" width="2" height="2" fill="#71BBE3"/>
<rect x="48" y="32" width="2" height="2" fill="#71BBE3"/>
<rect x="8" y="38" width="2" height="2" fill="#DCF2FD"/>
<rect x="8" y="36" width="2" height="2" fill="#71BBE3"/>
<rect x="8" y="34" width="2" height="2" fill="#71BBE3"/>
<rect x="8" y="32" width="2" height="2" fill="#DCF2FD"/>
<rect x="6" y="38" width="2" height="2" fill="#DCF2FD"/>
<rect x="6" y="36" width="2" height="2" fill="#DCF2FD"/>
<rect x="6" y="34" width="2" height="2" fill="#DCF2FD"/>
<rect x="10" y="38" width="2" height="2" fill="#71BBE3"/>
<rect x="10" y="40" width="2" height="2" fill="#71BBE3"/>
<rect x="12" y="42" width="2" height="2" fill="#71BBE3"/>
<rect x="14" y="44" width="2" height="2" fill="#71BBE3"/>
<rect x="16" y="44" width="2" height="2" fill="#71BBE3"/>
<rect x="18" y="46" width="2" height="2" fill="#71BBE3"/>
<rect x="20" y="46" width="2" height="2" fill="#71BBE3"/>
<rect x="22" y="48" width="2" height="2" fill="#71BBE3"/>
<rect x="24" y="48" width="2" height="2" fill="#71BBE3"/>
<rect x="26" y="48" width="2" height="2" fill="#71BBE3"/>
<rect x="28" y="48" width="2" height="2" fill="#71BBE3"/>
<rect x="30" y="48" width="2" height="2" fill="#71BBE3"/>
<rect x="32" y="48" width="2" height="2" fill="#71BBE3"/>
<rect x="34" y="48" width="2" height="2" fill="#71BBE3"/>
<rect x="36" y="48" width="2" height="2" fill="#71BBE3"/>
<rect x="54" y="18" width="2" height="2" fill="#FFCBB8"/>
<rect x="48" y="22" width="2" height="2" fill="#FFCBB8"/>
<rect x="56" y="18" width="2" height="2" fill="#FFCBB8"/>
<rect x="58" y="18" width="2" height="2" fill="#FF7002"/>
<rect x="56" y="16" width="2" height="2" fill="#FF7002"/>
<rect x="52" y="16" width="2" height="2" fill="#FFCBB8"/>
<rect x="54" y="16" width="2" height="2" fill="#FFCBB8"/>
<rect x="54" y="14" width="2" height="2" fill="#FF7002"/>
<rect x="50" y="14" width="2" height="2" fill="#FFCBB8"/>
<rect x="50" y="12" width="2" height="2" fill="#FF7002"/>
<rect x="52" y="14" width="2" height="2" fill="#FFCBB8"/>
<rect x="52" y="12" width="2" height="2" fill="#FF7002"/>
<rect x="48" y="14" width="2" height="2" fill="#FFCBB8"/>
<rect x="48" y="12" width="2" height="2" fill="#FFCBB8"/>
<rect x="46" y="10" width="2" height="2" fill="#FFCBB8"/>
<rect x="48" y="10" width="2" height="2" fill="#FFCBB8"/>
<rect x="50" y="10" width="2" height="2" fill="#FF7002"/>
<rect x="48" y="8" width="2" height="2" fill="#FF7002"/>
<rect x="44" y="8" width="2" height="2" fill="#FFCBB8"/>
<rect x="46" y="8" width="2" height="2" fill="#FFCBB8"/>
<rect x="46" y="6" width="2" height="2" fill="#FF7002"/>
<rect x="42" y="6" width="2" height="2" fill="#FFCBB8"/>
<rect x="42" y="4" width="2" height="2" fill="#FF7002"/>
<rect x="44" y="6" width="2" height="2" fill="#FFCBB8"/>
<rect x="44" y="4" width="2" height="2" fill="#FF7002"/>
<rect x="40" y="6" width="2" height="2" fill="#FFCBB8"/>
<rect x="38" y="4" width="2" height="2" fill="#FFCBB8"/>
<rect x="38" y="2" width="2" height="2" fill="#FF7002"/>
<rect x="40" y="4" width="2" height="2" fill="#FFCBB8"/>
<rect x="40" y="2" width="2" height="2" fill="#FF7002"/>
<rect x="36" y="4" width="2" height="2" fill="#FFCBB8"/>
<rect x="36" y="2" width="2" height="2" fill="#FF7002"/>
<rect x="34" y="4" width="2" height="2" fill="#FFCBB8"/>
<rect x="34" y="2" width="2" height="2" fill="#FF7002"/>
<rect x="32" y="4" width="2" height="2" fill="#FFCBB8"/>
<rect x="32" y="2" width="2" height="2" fill="#FF7002"/>
<rect x="30" y="4" width="2" height="2" fill="#FFCBB8"/>
<rect x="30" y="2" width="2" height="2" fill="#FF7002"/>
<rect x="28" y="4" width="2" height="2" fill="#FFCBB8"/>
<rect x="28" y="2" width="2" height="2" fill="#FF7002"/>
<rect x="26" y="4" width="2" height="2" fill="#FFCBB8"/>
<rect x="26" y="2" width="2" height="2" fill="#FF7002"/>
<rect x="24" y="4" width="2" height="2" fill="#FFCBB8"/>
<rect x="24" y="2" width="2" height="2" fill="#FF7002"/>
<rect x="22" y="4" width="2" height="2" fill="#FFCBB8"/>
<rect x="22" y="2" width="2" height="2" fill="#FF7002"/>
<rect x="20" y="4" width="2" height="2" fill="#FFCBB8"/>
<rect x="20" y="2" width="2" height="2" fill="#FF7002"/>
<rect x="18" y="6" width="2" height="2" fill="#FFCBB8"/>
<rect x="18" y="4" width="2" height="2" fill="#FFCBB8"/>
<rect x="18" y="2" width="2" height="2" fill="#FF7002"/>
<rect x="16" y="6" width="2" height="2" fill="#FFCBB8"/>
<rect x="16" y="4" width="2" height="2" fill="#FF7002"/>
<rect x="14" y="8" width="2" height="2" fill="#FFCBB8"/>
<rect x="14" y="6" width="2" height="2" fill="#FFCBB8"/>
<rect x="14" y="4" width="2" height="2" fill="#FF7002"/>
<rect x="12" y="10" width="2" height="2" fill="#FFCBB8"/>
<rect x="12" y="8" width="2" height="2" fill="#FFCBB8"/>
<rect x="12" y="6" width="2" height="2" fill="#FF7002"/>
<rect x="10" y="12" width="2" height="2" fill="#FFCBB8"/>
<rect x="10" y="10" width="2" height="2" fill="#FFCBB8"/>
<rect x="10" y="8" width="2" height="2" fill="#FF7002"/>
<rect x="8" y="14" width="2" height="2" fill="#FFCBB8"/>
<rect x="6" y="14" width="2" height="2" fill="#FF7002"/>
<rect x="8" y="12" width="2" height="2" fill="#FFCBB8"/>
<rect x="6" y="12" width="2" height="2" fill="#FF7002"/>
<rect x="8" y="10" width="2" height="2" fill="#FF7002"/>
<rect x="8" y="16" width="2" height="2" fill="#FFCBB8"/>
<rect x="6" y="16" width="2" height="2" fill="#FF7002"/>
<rect x="8" y="18" width="2" height="2" fill="#FFCBB8"/>
<rect x="6" y="18" width="2" height="2" fill="#FF7002"/>
<rect x="8" y="20" width="2" height="2" fill="#FFCBB8"/>
<rect x="6" y="20" width="2" height="2" fill="#FF7002"/>
<rect x="8" y="22" width="2" height="2" fill="#FFCBB8"/>
<rect x="6" y="22" width="2" height="2" fill="#FF7002"/>
<rect x="8" y="24" width="2" height="2" fill="#FFCBB8"/>
<rect x="6" y="24" width="2" height="2" fill="#FF7002"/>
<rect x="8" y="26" width="2" height="2" fill="#FFCBB8"/>
<rect x="6" y="26" width="2" height="2" fill="#FF7002"/>
<rect x="8" y="28" width="2" height="2" fill="#FFCBB8"/>
<rect x="6" y="28" width="2" height="2" fill="#FF7002"/>
<rect x="6" y="30" width="2" height="2" fill="#FFCBB8"/>
<rect x="6" y="28" width="2" height="2" fill="#FFCBB8"/>
<rect x="4" y="32" width="2" height="2" fill="#FFCBB8"/>
<rect x="4" y="30" width="2" height="2" fill="#FFCBB8"/>
<rect x="2" y="30" width="2" height="2" fill="#FF7002"/>
<rect x="2" y="34" width="2" height="2" fill="#FFCBB8"/>
<rect y="34" width="2" height="2" fill="#FF7002"/>
<rect x="2" y="32" width="2" height="2" fill="#FFCBB8"/>
<rect y="32" width="2" height="2" fill="#FF7002"/>
<rect x="2" y="36" width="2" height="2" fill="#FFCBB8"/>
<rect y="36" width="2" height="2" fill="#FF7002"/>
<rect x="2" y="38" width="2" height="2" fill="#FFCBB8"/>
<rect y="38" width="2" height="2" fill="#FF7002"/>
<rect x="2" y="40" width="2" height="2" fill="#FFCBB8"/>
<rect y="40" width="2" height="2" fill="#FF7002"/>
<rect x="2" y="42" width="2" height="2" fill="#FF7002"/>
<rect x="4" y="40" width="2" height="2" fill="#FFCBB8"/>
<rect x="4" y="42" width="2" height="2" fill="#FFCBB8"/>
<rect x="6" y="44" width="2" height="2" fill="#FFCBB8"/>
<rect x="4" y="44" width="2" height="2" fill="#FFCBB8"/>
<rect x="2" y="44" width="2" height="2" fill="#FF7002"/>
<rect x="4" y="46" width="2" height="2" fill="#FF7002"/>
<rect x="8" y="46" width="2" height="2" fill="#FFCBB8"/>
<rect x="6" y="46" width="2" height="2" fill="#FFCBB8"/>
<rect x="6" y="48" width="2" height="2" fill="#FF7002"/>
<rect x="10" y="48" width="2" height="2" fill="#FFCBB8"/>
<rect x="8" y="48" width="2" height="2" fill="#FFCBB8"/>
<rect x="8" y="50" width="2" height="2" fill="#FF7002"/>
<rect x="12" y="50" width="2" height="2" fill="#FFCBB8"/>
<rect x="12" y="52" width="2" height="2" fill="#FF7002"/>
<rect x="10" y="50" width="2" height="2" fill="#FFCBB8"/>
<rect x="10" y="52" width="2" height="2" fill="#FF7002"/>
<rect x="14" y="50" width="2" height="2" fill="#FFCBB8"/>
<rect x="16" y="52" width="2" height="2" fill="#FFCBB8"/>
<rect x="16" y="54" width="2" height="2" fill="#FF7002"/>
<rect x="14" y="52" width="2" height="2" fill="#FFCBB8"/>
<rect x="14" y="54" width="2" height="2" fill="#FF7002"/>
<rect x="18" y="52" width="2" height="2" fill="#FFCBB8"/>
<rect x="20" y="54" width="2" height="2" fill="#FFCBB8"/>
<rect x="20" y="56" width="2" height="2" fill="#FF7002"/>
<rect x="18" y="54" width="2" height="2" fill="#FFCBB8"/>
<rect x="18" y="56" width="2" height="2" fill="#FF7002"/>
<rect x="22" y="54" width="2" height="2" fill="#FFCBB8"/>
<rect x="22" y="56" width="2" height="2" fill="#FF7002"/>
<rect x="24" y="54" width="2" height="2" fill="#FFCBB8"/>
<rect x="24" y="56" width="2" height="2" fill="#FF7002"/>
<rect x="26" y="54" width="2" height="2" fill="#FFCBB8"/>
<rect x="26" y="56" width="2" height="2" fill="#FF7002"/>
<rect x="28" y="54" width="2" height="2" fill="#FFCBB8"/>
<rect x="28" y="56" width="2" height="2" fill="#FF7002"/>
<rect x="30" y="54" width="2" height="2" fill="#FFCBB8"/>
<rect x="30" y="56" width="2" height="2" fill="#FF7002"/>
<rect x="32" y="54" width="2" height="2" fill="#FFCBB8"/>
<rect x="32" y="56" width="2" height="2" fill="#FF7002"/>
<rect x="34" y="54" width="2" height="2" fill="#FFCBB8"/>
<rect x="34" y="56" width="2" height="2" fill="#FF7002"/>
<rect x="36" y="54" width="2" height="2" fill="#FFCBB8"/>
<rect x="36" y="56" width="2" height="2" fill="#FF7002"/>
<rect x="38" y="54" width="2" height="2" fill="#FFCBB8"/>
<rect x="38" y="56" width="2" height="2" fill="#FF7002"/>
<rect x="40" y="52" width="2" height="2" fill="#FFCBB8"/>
<rect x="40" y="54" width="2" height="2" fill="#FFCBB8"/>
<rect x="40" y="56" width="2" height="2" fill="#FF7002"/>
<rect x="42" y="54" width="2" height="2" fill="#FF7002"/>
<rect x="44" y="54" width="2" height="2" fill="#FF7002"/>
<rect x="44" y="50" width="2" height="2" fill="#FFCBB8"/>
<rect x="44" y="52" width="2" height="2" fill="#FFCBB8"/>
<rect x="46" y="52" width="2" height="2" fill="#FF7002"/>
<rect x="48" y="52" width="2" height="2" fill="#FF7002"/>
<rect x="42" y="52" width="2" height="2" fill="#FFCBB8"/>
<rect x="46" y="50" width="2" height="2" fill="#FFCBB8"/>
<rect x="48" y="48" width="2" height="2" fill="#FFCBB8"/>
<rect x="48" y="50" width="2" height="2" fill="#FFCBB8"/>
<rect x="50" y="50" width="2" height="2" fill="#FF7002"/>
<rect x="50" y="46" width="2" height="2" fill="#FFCBB8"/>
<rect x="50" y="48" width="2" height="2" fill="#FFCBB8"/>
<rect x="52" y="48" width="2" height="2" fill="#FF7002"/>
<rect x="52" y="44" width="2" height="2" fill="#FFCBB8"/>
<rect x="52" y="46" width="2" height="2" fill="#FFCBB8"/>
<rect x="54" y="46" width="2" height="2" fill="#FF7002"/>
<rect x="54" y="42" width="2" height="2" fill="#FFCBB8"/>
<rect x="56" y="42" width="2" height="2" fill="#FF7002"/>
<rect x="54" y="44" width="2" height="2" fill="#FFCBB8"/>
<rect x="56" y="44" width="2" height="2" fill="#FF7002"/>
<rect x="54" y="40" width="2" height="2" fill="#FFCBB8"/>
<rect x="56" y="38" width="2" height="2" fill="#FFCBB8"/>
<rect x="58" y="38" width="2" height="2" fill="#FF7002"/>
<rect x="56" y="40" width="2" height="2" fill="#FFCBB8"/>
<rect x="58" y="40" width="2" height="2" fill="#FF7002"/>
<rect x="56" y="36" width="2" height="2" fill="#FFCBB8"/>
<rect x="58" y="36" width="2" height="2" fill="#FF7002"/>
<rect x="56" y="34" width="2" height="2" fill="#FFCBB8"/>
<rect x="58" y="34" width="2" height="2" fill="#FF7002"/>
<rect x="56" y="32" width="2" height="2" fill="#FFCBB8"/>
<rect x="58" y="32" width="2" height="2" fill="#FF7002"/>
<rect x="54" y="30" width="2" height="2" fill="#FFCBB8"/>
<rect x="56" y="30" width="2" height="2" fill="#FFCBB8"/>
<rect x="58" y="30" width="2" height="2" fill="#FF7002"/>
<rect x="52" y="28" width="2" height="2" fill="#FFCBB8"/>
<rect x="54" y="26" width="2" height="2" fill="#FFCBB8"/>
<rect x="54" y="28" width="2" height="2" fill="#FFCBB8"/>
<rect x="56" y="28" width="2" height="2" fill="#FF7002"/>
<rect x="56" y="24" width="2" height="2" fill="#FFCBB8"/>
<rect x="58" y="24" width="2" height="2" fill="#FF7002"/>
<rect x="56" y="26" width="2" height="2" fill="#FFCBB8"/>
<rect x="58" y="26" width="2" height="2" fill="#FF7002"/>
<rect x="56" y="22" width="2" height="2" fill="#FFCBB8"/>
<rect x="58" y="22" width="2" height="2" fill="#FF7002"/>
<rect x="56" y="20" width="2" height="2" fill="#FFCBB8"/>
<rect x="58" y="20" width="2" height="2" fill="#FF7002"/>
</g>
<defs>
<clipPath id="clip0_326_62731">
<rect width="60" height="60" fill="white"/>
</clipPath>
</defs>
</svg>
