<svg width="60" height="60" viewBox="0 0 60 60" fill="none" xmlns="http://www.w3.org/2000/svg">
<rect width="2" height="2" transform="matrix(-1 0 0 1 30 52)" fill="black"/>
<rect x="30" y="52" width="2" height="2" fill="black"/>
<rect width="2" height="2" transform="matrix(-1 0 0 1 28 52)" fill="black"/>
<rect x="32" y="52" width="2" height="2" fill="black"/>
<rect width="2" height="2" transform="matrix(-1 0 0 1 26 52)" fill="black"/>
<rect x="34" y="52" width="2" height="2" fill="black"/>
<rect width="2" height="2" transform="matrix(-1 0 0 1 24 52)" fill="black"/>
<rect x="36" y="52" width="2" height="2" fill="black"/>
<rect width="2" height="2" transform="matrix(-1 0 0 1 22 50)" fill="black"/>
<rect x="38" y="50" width="2" height="2" fill="black"/>
<rect width="2" height="2" transform="matrix(-1 0 0 1 20 50)" fill="black"/>
<rect x="40" y="50" width="2" height="2" fill="black"/>
<rect width="2" height="2" transform="matrix(-1 0 0 1 18 48)" fill="black"/>
<rect x="42" y="48" width="2" height="2" fill="black"/>
<rect width="2" height="2" transform="matrix(-1 0 0 1 16 46)" fill="black"/>
<rect x="44" y="46" width="2" height="2" fill="black"/>
<rect width="2" height="2" transform="matrix(-1 0 0 1 14 44)" fill="black"/>
<rect x="46" y="44" width="2" height="2" fill="black"/>
<rect width="2" height="2" transform="matrix(-1 0 0 1 30 6)" fill="black"/>
<rect x="30" y="6" width="2" height="2" fill="black"/>
<rect width="2" height="2" transform="matrix(-1 0 0 1 28 6)" fill="black"/>
<rect x="32" y="6" width="2" height="2" fill="black"/>
<rect width="2" height="2" transform="matrix(-1 0 0 1 26 6)" fill="black"/>
<rect x="34" y="6" width="2" height="2" fill="black"/>
<rect width="2" height="2" transform="matrix(-1 0 0 1 26 6)" fill="black"/>
<rect x="34" y="6" width="2" height="2" fill="black"/>
<rect width="2" height="2" transform="matrix(-1 0 0 1 24 6)" fill="black"/>
<rect x="36" y="6" width="2" height="2" fill="black"/>
<rect width="2" height="2" transform="matrix(-1 0 0 1 22 6)" fill="black"/>
<rect x="38" y="6" width="2" height="2" fill="black"/>
<rect width="2" height="2" transform="matrix(-1 0 0 1 20 8)" fill="black"/>
<rect x="40" y="8" width="2" height="2" fill="black"/>
<rect width="2" height="2" transform="matrix(-1 0 0 1 18 8)" fill="black"/>
<rect x="42" y="8" width="2" height="2" fill="black"/>
<rect width="2" height="2" transform="matrix(-1 0 0 1 16 10)" fill="black"/>
<rect x="44" y="10" width="2" height="2" fill="black"/>
<rect width="2" height="2" transform="matrix(-1 0 0 1 14 10)" fill="black"/>
<rect x="12" y="44" width="2" height="2" transform="rotate(180 12 44)" fill="black"/>
<rect x="46" y="10" width="2" height="2" fill="black"/>
<rect width="2" height="2" transform="matrix(1 0 0 -1 48 44)" fill="black"/>
<rect width="2" height="2" transform="matrix(-1 0 0 1 12 12)" fill="black"/>
<rect x="10" y="42" width="2" height="2" transform="rotate(180 10 42)" fill="black"/>
<rect width="2" height="2" transform="matrix(-1 0 0 1 10 14)" fill="black"/>
<rect x="10" y="40" width="2" height="2" transform="rotate(180 10 40)" fill="black"/>
<rect x="14" y="38" width="2" height="2" transform="rotate(180 14 38)" fill="black"/>
<rect x="50" y="36" width="2" height="2" transform="rotate(180 50 36)" fill="black"/>
<rect x="12" y="36" width="2" height="2" transform="rotate(180 12 36)" fill="black"/>
<rect width="2" height="2" transform="matrix(1 0 0 -1 46 38)" fill="black"/>
<rect x="16" y="40" width="2" height="2" transform="rotate(180 16 40)" fill="black"/>
<rect width="2" height="2" transform="matrix(1 0 0 -1 44 40)" fill="black"/>
<rect x="20" y="42" width="2" height="2" transform="rotate(180 20 42)" fill="black"/>
<rect width="2" height="2" transform="matrix(1 0 0 -1 40 42)" fill="black"/>
<rect x="24" y="42" width="2" height="2" transform="rotate(180 24 42)" fill="black"/>
<rect width="2" height="2" transform="matrix(1 0 0 -1 36 42)" fill="black"/>
<rect x="18" y="40" width="2" height="2" transform="rotate(180 18 40)" fill="black"/>
<rect width="2" height="2" transform="matrix(1 0 0 -1 42 40)" fill="black"/>
<rect x="22" y="42" width="2" height="2" transform="rotate(180 22 42)" fill="black"/>
<rect width="2" height="2" transform="matrix(1 0 0 -1 38 42)" fill="black"/>
<rect x="26" y="42" width="2" height="2" transform="rotate(180 26 42)" fill="black"/>
<rect width="2" height="2" transform="matrix(1 0 0 -1 34 42)" fill="black"/>
<rect x="28" y="42" width="2" height="2" transform="rotate(180 28 42)" fill="black"/>
<rect width="2" height="2" transform="matrix(1 0 0 -1 32 42)" fill="black"/>
<rect x="30" y="42" width="2" height="2" transform="rotate(180 30 42)" fill="black"/>
<rect width="2" height="2" transform="matrix(1 0 0 -1 30 42)" fill="black"/>
<rect x="50" y="14" width="2" height="2" fill="black"/>
<rect width="2" height="2" transform="matrix(1 0 0 -1 50 40)" fill="black"/>
<rect x="48" y="12" width="2" height="2" fill="black"/>
<rect width="2" height="2" transform="matrix(1 0 0 -1 50 42)" fill="black"/>
<rect width="2" height="2" transform="matrix(-1 0 0 1 6 22)" fill="black"/>
<rect width="2" height="2" transform="matrix(-1 0 0 1 6 20)" fill="black"/>
<rect width="2" height="2" transform="matrix(-1 0 0 1 6 18)" fill="black"/>
<rect width="2" height="2" transform="matrix(-1 0 0 1 8 16)" fill="black"/>
<rect x="8" y="38" width="2" height="2" transform="rotate(180 8 38)" fill="black"/>
<rect x="54" y="22" width="2" height="2" fill="black"/>
<rect x="54" y="20" width="2" height="2" fill="black"/>
<rect x="54" y="18" width="2" height="2" fill="black"/>
<rect x="52" y="16" width="2" height="2" fill="black"/>
<rect width="2" height="2" transform="matrix(1 0 0 -1 52 38)" fill="black"/>
<rect width="2" height="2" transform="matrix(-1 0 0 1 6 24)" fill="black"/>
<rect x="54" y="24" width="2" height="2" fill="black"/>
<rect width="2" height="2" transform="matrix(-1 0 0 1 6 26)" fill="black"/>
<rect x="54" y="26" width="2" height="2" fill="black"/>
<rect width="2" height="2" transform="matrix(-1 0 0 1 6 28)" fill="black"/>
<rect x="54" y="28" width="2" height="2" fill="black"/>
<rect width="2" height="2" transform="matrix(-1 0 0 1 6 30)" fill="black"/>
<rect width="2" height="2" transform="matrix(-1 0 0 1 6 34)" fill="black"/>
<rect width="2" height="2" transform="matrix(-1 0 0 1 6 32)" fill="black"/>
<rect x="54" y="34" width="2" height="2" fill="black"/>
<rect x="54" y="32" width="2" height="2" fill="black"/>
<rect x="54" y="30" width="2" height="2" fill="black"/>
<rect x="12" y="42" width="2" height="2" transform="rotate(180 12 42)" fill="black"/>
<rect x="14" y="44" width="2" height="2" transform="rotate(180 14 44)" fill="black"/>
<rect x="16" y="46" width="2" height="2" transform="rotate(180 16 46)" fill="#89DD9E"/>
<rect x="54" y="28" width="2" height="2" transform="rotate(180 54 28)" fill="#60C97A"/>
<rect x="54" y="26" width="2" height="2" transform="rotate(180 54 26)" fill="#3FA158"/>
<rect x="54" y="24" width="2" height="2" transform="rotate(180 54 24)" fill="#3FA158"/>
<rect x="54" y="22" width="2" height="2" transform="rotate(180 54 22)" fill="#60C97A"/>
<rect x="54" y="20" width="2" height="2" transform="rotate(180 54 20)" fill="#89DD9E"/>
<rect x="52" y="18" width="2" height="2" transform="rotate(180 52 18)" fill="#60C97A"/>
<rect x="50" y="16" width="2" height="2" transform="rotate(180 50 16)" fill="#89DD9E"/>
<rect x="48" y="14" width="2" height="2" transform="rotate(180 48 14)" fill="#60C97A"/>
<rect x="46" y="14" width="2" height="2" transform="rotate(180 46 14)" fill="#89DD9E"/>
<rect x="44" y="12" width="2" height="2" transform="rotate(180 44 12)" fill="#60C97A"/>
<rect x="42" y="12" width="2" height="2" transform="rotate(180 42 12)" fill="#60C97A"/>
<rect x="40" y="10" width="2" height="2" transform="rotate(180 40 10)" fill="#60C97A"/>
<rect x="38" y="10" width="2" height="2" transform="rotate(180 38 10)" fill="#89DD9E"/>
<rect x="36" y="10" width="2" height="2" transform="rotate(180 36 10)" fill="#60C97A"/>
<rect x="34" y="10" width="2" height="2" transform="rotate(180 34 10)" fill="#60C97A"/>
<rect x="32" y="10" width="2" height="2" transform="rotate(180 32 10)" fill="#89DD9E"/>
<rect x="30" y="10" width="2" height="2" transform="rotate(180 30 10)" fill="#60C97A"/>
<rect x="28" y="10" width="2" height="2" transform="rotate(180 28 10)" fill="#60C97A"/>
<rect x="26" y="10" width="2" height="2" transform="rotate(180 26 10)" fill="#89DD9E"/>
<rect x="24" y="10" width="2" height="2" transform="rotate(180 24 10)" fill="#60C97A"/>
<rect x="22" y="10" width="2" height="2" transform="rotate(180 22 10)" fill="#60C97A"/>
<rect x="20" y="12" width="2" height="2" transform="rotate(180 20 12)" fill="#89DD9E"/>
<rect x="18" y="12" width="2" height="2" transform="rotate(180 18 12)" fill="#60C97A"/>
<rect x="16" y="14" width="2" height="2" transform="rotate(180 16 14)" fill="#89DD9E"/>
<rect x="14" y="14" width="2" height="2" transform="rotate(180 14 14)" fill="#60C97A"/>
<rect x="12" y="16" width="2" height="2" transform="rotate(180 12 16)" fill="#89DD9E"/>
<rect x="10" y="18" width="2" height="2" transform="rotate(180 10 18)" fill="#60C97A"/>
<rect x="8" y="20" width="2" height="2" transform="rotate(180 8 20)" fill="#60C97A"/>
<rect x="8" y="22" width="2" height="2" transform="rotate(180 8 22)" fill="#60C97A"/>
<rect x="8" y="24" width="2" height="2" transform="rotate(180 8 24)" fill="#3FA158"/>
<rect x="8" y="26" width="2" height="2" transform="rotate(180 8 26)" fill="#60C97A"/>
<rect x="8" y="28" width="2" height="2" transform="rotate(180 8 28)" fill="#3FA158"/>
<rect x="8" y="30" width="2" height="2" transform="rotate(180 8 30)" fill="#3FA158"/>
<rect x="8" y="36" width="2" height="2" transform="rotate(180 8 36)" fill="#60C97A"/>
<rect x="10" y="38" width="2" height="2" transform="rotate(180 10 38)" fill="#60C97A"/>
<rect x="12" y="40" width="2" height="2" transform="rotate(180 12 40)" fill="#60C97A"/>
<rect x="14" y="42" width="2" height="2" transform="rotate(180 14 42)" fill="#60C97A"/>
<rect x="16" y="44" width="2" height="2" transform="rotate(180 16 44)" fill="black"/>
<rect x="18" y="44" width="2" height="2" transform="rotate(180 18 44)" fill="#60C97A"/>
<rect x="18" y="46" width="2" height="2" transform="rotate(180 18 46)" fill="black"/>
<rect x="20" y="48" width="2" height="2" transform="rotate(180 20 48)" fill="#60C97A"/>
<rect x="20" y="46" width="2" height="2" transform="rotate(180 20 46)" fill="black"/>
<rect x="22" y="48" width="2" height="2" transform="rotate(180 22 48)" fill="#89DD9E"/>
<rect x="22" y="46" width="2" height="2" transform="rotate(180 22 46)" fill="black"/>
<rect x="24" y="48" width="2" height="2" transform="rotate(180 24 48)" fill="#60C97A"/>
<rect x="24" y="46" width="2" height="2" transform="rotate(180 24 46)" fill="black"/>
<rect x="26" y="48" width="2" height="2" transform="rotate(180 26 48)" fill="#60C97A"/>
<rect x="26" y="46" width="2" height="2" transform="rotate(180 26 46)" fill="black"/>
<rect x="28" y="48" width="2" height="2" transform="rotate(180 28 48)" fill="#89DD9E"/>
<rect x="28" y="46" width="2" height="2" transform="rotate(180 28 46)" fill="black"/>
<rect x="30" y="48" width="2" height="2" transform="rotate(180 30 48)" fill="#60C97A"/>
<rect x="30" y="46" width="2" height="2" transform="rotate(180 30 46)" fill="black"/>
<rect x="32" y="48" width="2" height="2" transform="rotate(180 32 48)" fill="#60C97A"/>
<rect x="32" y="46" width="2" height="2" transform="rotate(180 32 46)" fill="black"/>
<rect x="34" y="48" width="2" height="2" transform="rotate(180 34 48)" fill="#60C97A"/>
<rect x="34" y="46" width="2" height="2" transform="rotate(180 34 46)" fill="black"/>
<rect x="36" y="46" width="2" height="2" transform="rotate(180 36 46)" fill="black"/>
<rect x="18" y="48" width="2" height="2" transform="rotate(180 18 48)" fill="#60C97A"/>
<rect x="20" y="50" width="2" height="2" transform="rotate(180 20 50)" fill="#60C97A"/>
<rect x="22" y="50" width="2" height="2" transform="rotate(180 22 50)" fill="#60C97A"/>
<rect x="24" y="50" width="2" height="2" transform="rotate(180 24 50)" fill="#60C97A"/>
<rect x="24" y="52" width="2" height="2" transform="rotate(180 24 52)" fill="#60C97A"/>
<rect x="26" y="50" width="2" height="2" transform="rotate(180 26 50)" fill="#60C97A"/>
<rect x="26" y="52" width="2" height="2" transform="rotate(180 26 52)" fill="#89DD9E"/>
<rect x="28" y="50" width="2" height="2" transform="rotate(180 28 50)" fill="#60C97A"/>
<rect x="28" y="52" width="2" height="2" transform="rotate(180 28 52)" fill="#60C97A"/>
<rect x="30" y="50" width="2" height="2" transform="rotate(180 30 50)" fill="#60C97A"/>
<rect x="30" y="52" width="2" height="2" transform="rotate(180 30 52)" fill="#60C97A"/>
<rect x="32" y="50" width="2" height="2" transform="rotate(180 32 50)" fill="#89DD9E"/>
<rect x="36" y="48" width="2" height="2" transform="rotate(180 36 48)" fill="#3FA158"/>
<rect x="32" y="52" width="2" height="2" transform="rotate(180 32 52)" fill="#3FA158"/>
<rect x="34" y="50" width="2" height="2" transform="rotate(180 34 50)" fill="#3FA158"/>
<rect x="40" y="46" width="2" height="2" transform="rotate(180 40 46)" fill="black"/>
<rect x="40" y="44" width="2" height="2" transform="rotate(180 40 44)" fill="#3FA158"/>
<rect x="42" y="46" width="2" height="2" transform="rotate(180 42 46)" fill="black"/>
<rect x="42" y="44" width="2" height="2" transform="rotate(180 42 44)" fill="#3FA158"/>
<rect x="44" y="44" width="2" height="2" transform="rotate(180 44 44)" fill="#3FA158"/>
<rect x="44" y="42" width="2" height="2" transform="rotate(180 44 42)" fill="#3FA158"/>
<rect x="46" y="44" width="2" height="2" transform="rotate(180 46 44)" fill="black"/>
<rect x="46" y="42" width="2" height="2" transform="rotate(180 46 42)" fill="#3FA158"/>
<rect x="48" y="40" width="2" height="2" transform="rotate(180 48 40)" fill="#89DD9E"/>
<rect x="50" y="38" width="2" height="2" transform="rotate(180 50 38)" fill="#89DD9E"/>
<rect x="52" y="36" width="2" height="2" transform="rotate(180 52 36)" fill="#60C97A"/>
<rect x="48" y="42" width="2" height="2" transform="rotate(180 48 42)" fill="#3FA158"/>
<rect x="50" y="40" width="2" height="2" transform="rotate(180 50 40)" fill="#60C97A"/>
<rect x="52" y="38" width="2" height="2" transform="rotate(180 52 38)" fill="#3FA158"/>
<rect x="54" y="36" width="2" height="2" transform="rotate(180 54 36)" fill="#3FA158"/>
<rect x="54" y="34" width="2" height="2" transform="rotate(180 54 34)" fill="#3FA158"/>
<rect x="54" y="32" width="2" height="2" transform="rotate(180 54 32)" fill="#3FA158"/>
<rect x="54" y="30" width="2" height="2" transform="rotate(180 54 30)" fill="#3FA158"/>
<rect x="38" y="48" width="2" height="2" transform="rotate(180 38 48)" fill="#3FA158"/>
<rect x="38" y="46" width="2" height="2" transform="rotate(180 38 46)" fill="black"/>
<rect x="40" y="48" width="2" height="2" transform="rotate(180 40 48)" fill="#3FA158"/>
<rect x="42" y="48" width="2" height="2" transform="rotate(180 42 48)" fill="#3FA158"/>
<rect x="44" y="46" width="2" height="2" transform="rotate(180 44 46)" fill="black"/>
<rect x="46" y="46" width="2" height="2" transform="rotate(180 46 46)" fill="#3FA158"/>
<rect x="48" y="44" width="2" height="2" transform="rotate(180 48 44)" fill="black"/>
<rect x="50" y="42" width="2" height="2" transform="rotate(180 50 42)" fill="#3FA158"/>
<rect x="34" y="52" width="2" height="2" transform="rotate(180 34 52)" fill="#3FA158"/>
<rect x="36" y="50" width="2" height="2" transform="rotate(180 36 50)" fill="#3FA158"/>
<rect x="36" y="52" width="2" height="2" transform="rotate(180 36 52)" fill="#3FA158"/>
<rect x="38" y="50" width="2" height="2" transform="rotate(180 38 50)" fill="#3FA158"/>
<rect x="38" y="52" width="2" height="2" transform="rotate(180 38 52)" fill="#3FA158"/>
<rect x="40" y="50" width="2" height="2" transform="rotate(180 40 50)" fill="#3FA158"/>
<rect x="42" y="50" width="2" height="2" transform="rotate(180 42 50)" fill="#3FA158"/>
<rect x="44" y="48" width="2" height="2" transform="rotate(180 44 48)" fill="#3FA158"/>
<rect x="10" y="36" width="2" height="2" transform="rotate(180 10 36)" fill="#89DD9E"/>
<rect x="12" y="38" width="2" height="2" transform="rotate(180 12 38)" fill="#89DD9E"/>
<rect x="14" y="40" width="2" height="2" transform="rotate(180 14 40)" fill="#89DD9E"/>
<rect x="16" y="42" width="2" height="2" transform="rotate(180 16 42)" fill="#89DD9E"/>
<rect x="18" y="42" width="2" height="2" transform="rotate(180 18 42)" fill="#89DD9E"/>
<rect x="20" y="44" width="2" height="2" transform="rotate(180 20 44)" fill="#60C97A"/>
<rect x="22" y="44" width="2" height="2" transform="rotate(180 22 44)" fill="#89DD9E"/>
<rect x="24" y="44" width="2" height="2" transform="rotate(180 24 44)" fill="#60C97A"/>
<rect x="26" y="44" width="2" height="2" transform="rotate(180 26 44)" fill="#60C97A"/>
<rect x="28" y="44" width="2" height="2" transform="rotate(180 28 44)" fill="#89DD9E"/>
<rect x="30" y="44" width="2" height="2" transform="rotate(180 30 44)" fill="#60C97A"/>
<rect x="32" y="44" width="2" height="2" transform="rotate(180 32 44)" fill="#60C97A"/>
<rect x="34" y="44" width="2" height="2" transform="rotate(180 34 44)" fill="#89DD9E"/>
<rect x="36" y="44" width="2" height="2" transform="rotate(180 36 44)" fill="#60C97A"/>
<rect x="38" y="44" width="2" height="2" transform="rotate(180 38 44)" fill="#60C97A"/>
<rect x="8" y="32" width="2" height="2" transform="rotate(180 8 32)" fill="#3FA158"/>
<rect x="8" y="34" width="2" height="2" transform="rotate(180 8 34)" fill="#3FA158"/>
<rect x="36" y="10" width="2" height="2" fill="#3FA158"/>
<rect x="38" y="10" width="2" height="2" fill="#3FA158"/>
<rect x="40" y="12" width="2" height="2" fill="#3FA158"/>
<rect x="42" y="12" width="2" height="2" fill="#3FA158"/>
<rect x="44" y="14" width="2" height="2" fill="#3FA158"/>
<rect x="46" y="14" width="2" height="2" fill="#3FA158"/>
<rect x="48" y="16" width="2" height="2" fill="#3FA158"/>
<rect x="50" y="18" width="2" height="2" fill="#3FA158"/>
<rect x="34" y="10" width="2" height="2" fill="#3FA158"/>
<rect x="32" y="10" width="2" height="2" fill="#60C97A"/>
<rect x="30" y="10" width="2" height="2" fill="#60C97A"/>
<rect x="28" y="10" width="2" height="2" fill="#3FA158"/>
<rect x="26" y="10" width="2" height="2" fill="#3FA158"/>
<rect x="24" y="10" width="2" height="2" fill="#60C97A"/>
<rect x="22" y="10" width="2" height="2" fill="#3FA158"/>
<rect x="20" y="10" width="2" height="2" fill="#3FA158"/>
<rect x="18" y="12" width="2" height="2" fill="#3FA158"/>
<rect x="14" y="14" width="2" height="2" fill="#3FA158"/>
<rect x="16" y="12" width="2" height="2" fill="#3FA158"/>
<rect x="12" y="14" width="2" height="2" fill="#3FA158"/>
<rect x="10" y="16" width="2" height="2" fill="#3FA158"/>
<rect x="8" y="18" width="2" height="2" fill="#3FA158"/>
<rect width="2" height="2" transform="matrix(-1 0 0 1 24 12)" fill="#F88901"/>
<rect x="36" y="12" width="2" height="2" fill="#F88901"/>
<rect width="2" height="2" transform="matrix(-1 0 0 1 22 12)" fill="#F88901"/>
<rect x="38" y="12" width="2" height="2" fill="#F88901"/>
<rect width="2" height="2" transform="matrix(-1 0 0 1 24 14)" fill="#C21401"/>
<rect x="36" y="14" width="2" height="2" fill="#C21401"/>
<rect width="2" height="2" transform="matrix(-1 0 0 1 22 14)" fill="#C21401"/>
<rect x="38" y="14" width="2" height="2" fill="#C21401"/>
<rect width="2" height="2" transform="matrix(-1 0 0 1 20 14)" fill="#C21401"/>
<rect x="40" y="14" width="2" height="2" fill="#C21401"/>
<rect width="2" height="2" transform="matrix(-1 0 0 1 18 14)" fill="#F88901"/>
<rect x="42" y="14" width="2" height="2" fill="#B01100"/>
<rect width="2" height="2" transform="matrix(-1 0 0 1 24 16)" fill="#C21401"/>
<rect x="36" y="16" width="2" height="2" fill="#F7AE26"/>
<rect width="2" height="2" transform="matrix(-1 0 0 1 22 16)" fill="#C21401"/>
<rect x="38" y="16" width="2" height="2" fill="#B01100"/>
<rect width="2" height="2" transform="matrix(-1 0 0 1 20 16)" fill="#C21401"/>
<rect x="40" y="16" width="2" height="2" fill="#C21401"/>
<rect width="2" height="2" transform="matrix(-1 0 0 1 18 16)" fill="#B01100"/>
<rect x="42" y="16" width="2" height="2" fill="#C21401"/>
<rect width="2" height="2" transform="matrix(-1 0 0 1 16 16)" fill="#C21401"/>
<rect x="44" y="16" width="2" height="2" fill="#B01100"/>
<rect width="2" height="2" transform="matrix(-1 0 0 1 24 18)" fill="#F7AE26"/>
<rect x="36" y="18" width="2" height="2" fill="#F88901"/>
<rect width="2" height="2" transform="matrix(-1 0 0 1 22 18)" fill="#F88901"/>
<rect x="38" y="18" width="2" height="2" fill="#B01100"/>
<rect width="2" height="2" transform="matrix(-1 0 0 1 20 18)" fill="#B01100"/>
<rect x="40" y="18" width="2" height="2" fill="#C21401"/>
<rect width="2" height="2" transform="matrix(-1 0 0 1 18 18)" fill="#C21401"/>
<rect x="42" y="18" width="2" height="2" fill="#C21401"/>
<rect width="2" height="2" transform="matrix(-1 0 0 1 16 18)" fill="#C21401"/>
<rect width="2" height="2" transform="matrix(-1 0 0 1 14 18)" fill="#C21401"/>
<rect width="2" height="2" transform="matrix(-1 0 0 1 12 20)" fill="#C21401"/>
<rect width="2" height="2" transform="matrix(-1 0 0 1 10 22)" fill="#C21401"/>
<rect width="2" height="2" transform="matrix(-1 0 0 1 10 20)" fill="#B01100"/>
<rect x="44" y="18" width="2" height="2" fill="#F88901"/>
<rect width="2" height="2" transform="matrix(-1 0 0 1 14 16)" fill="#F88901"/>
<rect x="46" y="18" width="2" height="2" fill="#B01100"/>
<rect x="46" y="16" width="2" height="2" fill="#B01100"/>
<rect x="48" y="18" width="2" height="2" fill="#F88901"/>
<rect width="2" height="2" transform="matrix(-1 0 0 1 24 20)" fill="#F7AE26"/>
<rect x="36" y="20" width="2" height="2" fill="#F88901"/>
<rect width="2" height="2" transform="matrix(-1 0 0 1 22 20)" fill="#F7AE26"/>
<rect x="38" y="20" width="2" height="2" fill="#8BA916"/>
<rect width="2" height="2" transform="matrix(-1 0 0 1 20 20)" fill="#F7AE26"/>
<rect x="40" y="20" width="2" height="2" fill="#F7AE26"/>
<rect width="2" height="2" transform="matrix(-1 0 0 1 18 20)" fill="#C21401"/>
<rect x="42" y="20" width="2" height="2" fill="#F88901"/>
<rect width="2" height="2" transform="matrix(-1 0 0 1 16 20)" fill="#B01100"/>
<rect x="44" y="20" width="2" height="2" fill="#C21401"/>
<rect width="2" height="2" transform="matrix(-1 0 0 1 14 20)" fill="#C21401"/>
<rect x="46" y="20" width="2" height="2" fill="#C21401"/>
<rect width="2" height="2" transform="matrix(-1 0 0 1 12 18)" fill="#B01100"/>
<rect x="48" y="20" width="2" height="2" fill="#C21401"/>
<rect x="50" y="20" width="2" height="2" fill="#B01100"/>
<rect width="2" height="2" transform="matrix(-1 0 0 1 24 22)" fill="#B01100"/>
<rect x="36" y="22" width="2" height="2" fill="#C21401"/>
<rect width="2" height="2" transform="matrix(-1 0 0 1 22 22)" fill="#B01100"/>
<rect x="38" y="22" width="2" height="2" fill="#F7AE26"/>
<rect width="2" height="2" transform="matrix(-1 0 0 1 20 22)" fill="#8BA916"/>
<rect x="40" y="22" width="2" height="2" fill="#8BA916"/>
<rect width="2" height="2" transform="matrix(-1 0 0 1 18 22)" fill="#C21401"/>
<rect x="42" y="22" width="2" height="2" fill="#F7AE26"/>
<rect width="2" height="2" transform="matrix(-1 0 0 1 16 22)" fill="#C21401"/>
<rect x="44" y="22" width="2" height="2" fill="#F7AE26"/>
<rect width="2" height="2" transform="matrix(-1 0 0 1 14 22)" fill="#B01100"/>
<rect x="46" y="22" width="2" height="2" fill="#B01100"/>
<rect width="2" height="2" transform="matrix(-1 0 0 1 12 22)" fill="#B01100"/>
<rect x="48" y="22" width="2" height="2" fill="#C21401"/>
<rect x="50" y="22" width="2" height="2" fill="#C21401"/>
<rect width="2" height="2" transform="matrix(-1 0 0 1 24 24)" fill="#C21401"/>
<rect x="36" y="24" width="2" height="2" fill="#C21401"/>
<rect width="2" height="2" transform="matrix(-1 0 0 1 22 24)" fill="#8BA916"/>
<rect x="38" y="24" width="2" height="2" fill="#C21401"/>
<rect width="2" height="2" transform="matrix(-1 0 0 1 20 24)" fill="#8BA916"/>
<rect x="40" y="24" width="2" height="2" fill="#8BA916"/>
<rect width="2" height="2" transform="matrix(-1 0 0 1 18 24)" fill="#F88901"/>
<rect x="42" y="24" width="2" height="2" fill="#F88901"/>
<rect width="2" height="2" transform="matrix(-1 0 0 1 16 24)" fill="#F7AE26"/>
<rect x="44" y="24" width="2" height="2" fill="#F88901"/>
<rect width="2" height="2" transform="matrix(-1 0 0 1 14 24)" fill="#C21401"/>
<rect x="46" y="24" width="2" height="2" fill="#B01100"/>
<rect width="2" height="2" transform="matrix(-1 0 0 1 12 24)" fill="#C21401"/>
<rect x="48" y="24" width="2" height="2" fill="#C21401"/>
<rect width="2" height="2" transform="matrix(-1 0 0 1 10 24)" fill="#B01100"/>
<rect x="50" y="24" width="2" height="2" fill="#F88901"/>
<rect width="2" height="2" transform="matrix(-1 0 0 1 24 26)" fill="#F7AE26"/>
<rect x="36" y="26" width="2" height="2" fill="#F88901"/>
<rect width="2" height="2" transform="matrix(-1 0 0 1 22 26)" fill="#F7AE26"/>
<rect x="38" y="26" width="2" height="2" fill="#C21401"/>
<rect width="2" height="2" transform="matrix(-1 0 0 1 20 26)" fill="#B01100"/>
<rect x="40" y="26" width="2" height="2" fill="#C21401"/>
<rect width="2" height="2" transform="matrix(-1 0 0 1 18 26)" fill="#F7AE26"/>
<rect x="42" y="26" width="2" height="2" fill="#C21401"/>
<rect width="2" height="2" transform="matrix(-1 0 0 1 16 26)" fill="#F7AE26"/>
<rect x="44" y="26" width="2" height="2" fill="#C21401"/>
<rect width="2" height="2" transform="matrix(-1 0 0 1 14 26)" fill="#C21401"/>
<rect x="46" y="26" width="2" height="2" fill="#C21401"/>
<rect width="2" height="2" transform="matrix(-1 0 0 1 12 26)" fill="#C21401"/>
<rect x="48" y="26" width="2" height="2" fill="#C21401"/>
<rect width="2" height="2" transform="matrix(-1 0 0 1 10 26)" fill="#F88901"/>
<rect x="50" y="26" width="2" height="2" fill="#F88901"/>
<rect width="2" height="2" transform="matrix(-1 0 0 1 24 28)" fill="#F7AE26"/>
<rect x="36" y="28" width="2" height="2" fill="#C21401"/>
<rect width="2" height="2" transform="matrix(-1 0 0 1 22 28)" fill="#F88901"/>
<rect x="38" y="28" width="2" height="2" fill="#8BA916"/>
<rect width="2" height="2" transform="matrix(-1 0 0 1 20 28)" fill="#B01100"/>
<rect x="40" y="28" width="2" height="2" fill="#F7AE26"/>
<rect width="2" height="2" transform="matrix(-1 0 0 1 18 28)" fill="#F7AE26"/>
<rect x="42" y="28" width="2" height="2" fill="#F7AE26"/>
<rect width="2" height="2" transform="matrix(-1 0 0 1 16 28)" fill="#F88901"/>
<rect x="44" y="28" width="2" height="2" fill="#B01100"/>
<rect width="2" height="2" transform="matrix(-1 0 0 1 14 28)" fill="#C21401"/>
<rect x="46" y="28" width="2" height="2" fill="#F88901"/>
<rect width="2" height="2" transform="matrix(-1 0 0 1 12 28)" fill="#C21401"/>
<rect x="48" y="28" width="2" height="2" fill="#B01100"/>
<rect width="2" height="2" transform="matrix(-1 0 0 1 10 28)" fill="#F88901"/>
<rect x="50" y="28" width="2" height="2" fill="#F88901"/>
<rect width="2" height="2" transform="matrix(-1 0 0 1 24 30)" fill="#B01100"/>
<rect x="36" y="30" width="2" height="2" fill="#8BA916"/>
<rect width="2" height="2" transform="matrix(-1 0 0 1 22 30)" fill="#C21401"/>
<rect x="38" y="30" width="2" height="2" fill="#F7AE26"/>
<rect width="2" height="2" transform="matrix(-1 0 0 1 20 30)" fill="#C21401"/>
<rect x="40" y="30" width="2" height="2" fill="#F7AE26"/>
<rect width="2" height="2" transform="matrix(-1 0 0 1 18 30)" fill="#F7AE26"/>
<rect x="42" y="30" width="2" height="2" fill="#F88901"/>
<rect width="2" height="2" transform="matrix(-1 0 0 1 16 30)" fill="#B01100"/>
<rect x="44" y="30" width="2" height="2" fill="#B01100"/>
<rect width="2" height="2" transform="matrix(-1 0 0 1 14 30)" fill="#C21401"/>
<rect x="46" y="30" width="2" height="2" fill="#F88901"/>
<rect width="2" height="2" transform="matrix(-1 0 0 1 12 30)" fill="#B01100"/>
<rect x="48" y="30" width="2" height="2" fill="#B01100"/>
<rect width="2" height="2" transform="matrix(-1 0 0 1 10 30)" fill="#B01100"/>
<rect x="50" y="30" width="2" height="2" fill="#C21401"/>
<rect width="2" height="2" transform="matrix(-1 0 0 1 24 32)" fill="#F7AE26"/>
<rect x="36" y="32" width="2" height="2" fill="#C21401"/>
<rect width="2" height="2" transform="matrix(-1 0 0 1 22 32)" fill="#F7AE26"/>
<rect x="38" y="32" width="2" height="2" fill="#F88901"/>
<rect width="2" height="2" transform="matrix(-1 0 0 1 20 32)" fill="#C21401"/>
<rect x="40" y="32" width="2" height="2" fill="#F88901"/>
<rect width="2" height="2" transform="matrix(-1 0 0 1 18 32)" fill="#B01100"/>
<rect x="42" y="32" width="2" height="2" fill="#B01100"/>
<rect width="2" height="2" transform="matrix(-1 0 0 1 16 32)" fill="#C21401"/>
<rect x="44" y="32" width="2" height="2" fill="#C21401"/>
<rect width="2" height="2" transform="matrix(-1 0 0 1 14 32)" fill="#C21401"/>
<rect x="46" y="32" width="2" height="2" fill="#C21401"/>
<rect width="2" height="2" transform="matrix(-1 0 0 1 12 32)" fill="#F88901"/>
<rect width="2" height="2" transform="matrix(-1 0 0 1 10 32)" fill="#F88901"/>
<rect x="48" y="32" width="2" height="2" fill="#C21401"/>
<rect x="50" y="32" width="2" height="2" fill="#B01100"/>
<rect width="2" height="2" transform="matrix(-1 0 0 1 24 34)" fill="#F7AE26"/>
<rect x="36" y="34" width="2" height="2" fill="#C21401"/>
<rect width="2" height="2" transform="matrix(-1 0 0 1 22 34)" fill="#F88901"/>
<rect x="38" y="34" width="2" height="2" fill="#C21401"/>
<rect width="2" height="2" transform="matrix(-1 0 0 1 20 34)" fill="#C21401"/>
<rect x="40" y="34" width="2" height="2" fill="#B01100"/>
<rect width="2" height="2" transform="matrix(-1 0 0 1 18 34)" fill="#C21401"/>
<rect x="42" y="34" width="2" height="2" fill="#C21401"/>
<rect width="2" height="2" transform="matrix(-1 0 0 1 16 34)" fill="#C21401"/>
<rect x="44" y="34" width="2" height="2" fill="#C21401"/>
<rect x="44" y="36" width="2" height="2" fill="#C21401"/>
<rect width="2" height="2" transform="matrix(-1 0 0 1 14 34)" fill="#F88901"/>
<rect x="46" y="34" width="2" height="2" fill="#F88901"/>
<rect width="2" height="2" transform="matrix(-1 0 0 1 24 36)" fill="#B01100"/>
<rect x="36" y="36" width="2" height="2" fill="#C21401"/>
<rect width="2" height="2" transform="matrix(-1 0 0 1 22 36)" fill="#B01100"/>
<rect x="38" y="36" width="2" height="2" fill="#C21401"/>
<rect width="2" height="2" transform="matrix(-1 0 0 1 20 36)" fill="#C21401"/>
<rect x="40" y="36" width="2" height="2" fill="#C21401"/>
<rect width="2" height="2" transform="matrix(-1 0 0 1 18 36)" fill="#C21401"/>
<rect x="42" y="36" width="2" height="2" fill="#C21401"/>
<rect width="2" height="2" transform="matrix(-1 0 0 1 24 38)" fill="#C21401"/>
<rect x="36" y="38" width="2" height="2" fill="#C21401"/>
<rect width="2" height="2" transform="matrix(-1 0 0 1 22 38)" fill="#C21401"/>
<rect width="2" height="2" transform="matrix(-1 0 0 1 20 38)" fill="#B01100"/>
<rect width="2" height="2" transform="matrix(-1 0 0 1 16 36)" fill="#B01100"/>
<rect x="38" y="38" width="2" height="2" fill="#B01100"/>
<rect x="40" y="38" width="2" height="2" fill="#B01100"/>
<rect width="2" height="2" transform="matrix(-1 0 0 1 26 12)" fill="#F88901"/>
<rect x="34" y="12" width="2" height="2" fill="#C21401"/>
<rect width="2" height="2" transform="matrix(-1 0 0 1 26 14)" fill="#C21401"/>
<rect x="34" y="14" width="2" height="2" fill="#C21401"/>
<rect width="2" height="2" transform="matrix(-1 0 0 1 26 16)" fill="#B01100"/>
<rect x="34" y="16" width="2" height="2" fill="#F7AE26"/>
<rect width="2" height="2" transform="matrix(-1 0 0 1 26 18)" fill="#F7AE26"/>
<rect x="34" y="18" width="2" height="2" fill="#F7AE26"/>
<rect width="2" height="2" transform="matrix(-1 0 0 1 26 20)" fill="#F88901"/>
<rect x="34" y="20" width="2" height="2" fill="#C21401"/>
<rect width="2" height="2" transform="matrix(-1 0 0 1 26 22)" fill="#B01100"/>
<rect x="34" y="22" width="2" height="2" fill="#FAFBF1"/>
<rect width="2" height="2" transform="matrix(-1 0 0 1 26 24)" fill="#C21401"/>
<rect x="34" y="24" width="2" height="2" fill="#E1DACD"/>
<rect width="2" height="2" transform="matrix(-1 0 0 1 26 26)" fill="#B01100"/>
<rect x="34" y="26" width="2" height="2" fill="#E1DACD"/>
<rect width="2" height="2" transform="matrix(-1 0 0 1 26 28)" fill="#F7AE26"/>
<rect x="34" y="28" width="2" height="2" fill="#8BA916"/>
<rect width="2" height="2" transform="matrix(-1 0 0 1 26 30)" fill="#B01100"/>
<rect x="34" y="30" width="2" height="2" fill="#C21401"/>
<rect width="2" height="2" transform="matrix(-1 0 0 1 26 32)" fill="#8BA916"/>
<rect x="34" y="32" width="2" height="2" fill="#F88901"/>
<rect width="2" height="2" transform="matrix(-1 0 0 1 26 34)" fill="#F7AE26"/>
<rect x="34" y="34" width="2" height="2" fill="#F7AE26"/>
<rect width="2" height="2" transform="matrix(-1 0 0 1 26 36)" fill="#B01100"/>
<rect x="34" y="36" width="2" height="2" fill="#B01100"/>
<rect width="2" height="2" transform="matrix(-1 0 0 1 26 38)" fill="#C21401"/>
<rect x="34" y="38" width="2" height="2" fill="#C21401"/>
<rect width="2" height="2" transform="matrix(-1 0 0 1 28 12)" fill="#C21401"/>
<rect x="32" y="12" width="2" height="2" fill="#F88901"/>
<rect width="2" height="2" transform="matrix(-1 0 0 1 28 14)" fill="#C21401"/>
<rect x="32" y="14" width="2" height="2" fill="#C21401"/>
<rect width="2" height="2" transform="matrix(-1 0 0 1 28 16)" fill="#8BA916"/>
<rect x="32" y="16" width="2" height="2" fill="#C21401"/>
<rect width="2" height="2" transform="matrix(-1 0 0 1 28 18)" fill="#F7AE26"/>
<rect x="32" y="18" width="2" height="2" fill="#F7AE26"/>
<rect width="2" height="2" transform="matrix(-1 0 0 1 28 20)" fill="#C21401"/>
<rect x="32" y="20" width="2" height="2" fill="#FAFBF1"/>
<rect width="2" height="2" transform="matrix(-1 0 0 1 28 22)" fill="#F88901"/>
<rect x="32" y="22" width="2" height="2" fill="#FAFBF1"/>
<rect width="2" height="2" transform="matrix(-1 0 0 1 28 24)" fill="#FAFBF1"/>
<rect x="32" y="24" width="2" height="2" fill="#FAFBF1"/>
<rect width="2" height="2" transform="matrix(-1 0 0 1 28 26)" fill="#B01100"/>
<rect x="32" y="26" width="2" height="2" fill="#8BA916"/>
<rect width="2" height="2" transform="matrix(-1 0 0 1 28 28)" fill="#F88901"/>
<rect x="32" y="28" width="2" height="2" fill="#E1DACD"/>
<rect width="2" height="2" transform="matrix(-1 0 0 1 28 30)" fill="#8BA916"/>
<rect x="32" y="30" width="2" height="2" fill="#B01100"/>
<rect width="2" height="2" transform="matrix(-1 0 0 1 28 32)" fill="#B01100"/>
<rect x="32" y="32" width="2" height="2" fill="#F7AE26"/>
<rect width="2" height="2" transform="matrix(-1 0 0 1 28 34)" fill="#C21401"/>
<rect x="32" y="34" width="2" height="2" fill="#F7AE26"/>
<rect width="2" height="2" transform="matrix(-1 0 0 1 28 36)" fill="#C21401"/>
<rect x="32" y="36" width="2" height="2" fill="#B01100"/>
<rect width="2" height="2" transform="matrix(-1 0 0 1 28 38)" fill="#C21401"/>
<rect x="32" y="38" width="2" height="2" fill="#C21401"/>
<rect width="2" height="2" transform="matrix(-1 0 0 1 30 12)" fill="#C21401"/>
<rect x="30" y="12" width="2" height="2" fill="#C21401"/>
<rect width="2" height="2" transform="matrix(-1 0 0 1 30 14)" fill="#8BA916"/>
<rect x="30" y="14" width="2" height="2" fill="#B01100"/>
<rect width="2" height="2" transform="matrix(-1 0 0 1 30 16)" fill="#8BA916"/>
<rect x="30" y="16" width="2" height="2" fill="#C21401"/>
<rect width="2" height="2" transform="matrix(-1 0 0 1 30 18)" fill="#C21401"/>
<rect x="30" y="18" width="2" height="2" fill="#F88901"/>
<rect width="2" height="2" transform="matrix(-1 0 0 1 30 20)" fill="#F88901"/>
<rect x="30" y="20" width="2" height="2" fill="#FAFBF1"/>
<rect width="2" height="2" transform="matrix(-1 0 0 1 30 22)" fill="#FAFBF1"/>
<rect x="30" y="22" width="2" height="2" fill="#FAFBF1"/>
<rect width="2" height="2" transform="matrix(-1 0 0 1 30 24)" fill="#F6CA47"/>
<rect x="30" y="24" width="2" height="2" fill="#F6CA47"/>
<rect width="2" height="2" transform="matrix(-1 0 0 1 30 26)" fill="#F1AE00"/>
<rect x="30" y="26" width="2" height="2" fill="#F6CA47"/>
<rect width="2" height="2" transform="matrix(-1 0 0 1 30 28)" fill="#B01100"/>
<rect x="30" y="28" width="2" height="2" fill="#C21401"/>
<rect width="2" height="2" transform="matrix(-1 0 0 1 30 30)" fill="#8BA916"/>
<rect x="30" y="30" width="2" height="2" fill="#F7AE26"/>
<rect width="2" height="2" transform="matrix(-1 0 0 1 30 32)" fill="#B01100"/>
<rect x="30" y="32" width="2" height="2" fill="#F7AE26"/>
<rect width="2" height="2" transform="matrix(-1 0 0 1 30 34)" fill="#C21401"/>
<rect x="30" y="34" width="2" height="2" fill="#F88901"/>
<rect width="2" height="2" transform="matrix(-1 0 0 1 30 36)" fill="#C21401"/>
<rect x="30" y="36" width="2" height="2" fill="#B01100"/>
<rect width="2" height="2" transform="matrix(-1 0 0 1 30 38)" fill="#C21401"/>
<rect x="30" y="38" width="2" height="2" fill="#C21401"/>
<rect x="2" y="32" width="2" height="2" fill="#FFCBB8"/>
<rect y="32" width="2" height="2" fill="#FF7002"/>
<rect x="2" y="34" width="2" height="2" fill="#FFCBB8"/>
<rect y="34" width="2" height="2" fill="#FF7002"/>
<rect x="2" y="36" width="2" height="2" fill="#FFCBB8"/>
<rect y="36" width="2" height="2" fill="#FF7002"/>
<rect x="4" y="36" width="2" height="2" fill="#FFCBB8"/>
<rect x="4" y="38" width="2" height="2" fill="#FFCBB8"/>
<rect x="2" y="38" width="2" height="2" fill="#FF7002"/>
<rect x="6" y="38" width="2" height="2" fill="#FFCBB8"/>
<rect x="6" y="40" width="2" height="2" fill="#FFCBB8"/>
<rect x="4" y="40" width="2" height="2" fill="#FF7002"/>
<rect x="8" y="42" width="2" height="2" fill="#FFCBB8"/>
<rect x="6" y="42" width="2" height="2" fill="#FF7002"/>
<rect x="8" y="44" width="2" height="2" fill="#FFCBB8"/>
<rect x="6" y="44" width="2" height="2" fill="#FF7002"/>
<rect x="10" y="44" width="2" height="2" fill="#FFCBB8"/>
<rect x="10" y="46" width="2" height="2" fill="#FFCBB8"/>
<rect x="8" y="46" width="2" height="2" fill="#FF7002"/>
<rect x="12" y="46" width="2" height="2" fill="#FFCBB8"/>
<rect x="12" y="48" width="2" height="2" fill="#FFCBB8"/>
<rect x="10" y="48" width="2" height="2" fill="#FF7002"/>
<rect x="14" y="48" width="2" height="2" fill="#FFCBB8"/>
<rect x="14" y="50" width="2" height="2" fill="#FFCBB8"/>
<rect x="12" y="50" width="2" height="2" fill="#FF7002"/>
<rect x="16" y="50" width="2" height="2" fill="#FFCBB8"/>
<rect x="16" y="52" width="2" height="2" fill="#FFCBB8"/>
<rect x="14" y="52" width="2" height="2" fill="#FF7002"/>
<rect x="16" y="54" width="2" height="2" fill="#FF7002"/>
<rect x="18" y="52" width="2" height="2" fill="#FFCBB8"/>
<rect x="24" y="54" width="2" height="2" fill="#FFCBB8"/>
<rect x="24" y="56" width="2" height="2" fill="#FF7002"/>
<rect x="28" y="54" width="2" height="2" fill="#FFCBB8"/>
<rect x="28" y="56" width="2" height="2" fill="#FF7002"/>
<rect x="32" y="54" width="2" height="2" fill="#FFCBB8"/>
<rect x="32" y="56" width="2" height="2" fill="#FF7002"/>
<rect x="36" y="54" width="2" height="2" fill="#FFCBB8"/>
<rect x="36" y="56" width="2" height="2" fill="#FF7002"/>
<rect x="38" y="52" width="2" height="2" fill="#FFCBB8"/>
<rect x="38" y="54" width="2" height="2" fill="#FFCBB8"/>
<rect x="38" y="56" width="2" height="2" fill="#FF7002"/>
<rect x="40" y="54" width="2" height="2" fill="#FF7002"/>
<rect x="20" y="52" width="2" height="2" fill="#FFCBB8"/>
<rect x="20" y="54" width="2" height="2" fill="#FFCBB8"/>
<rect x="18" y="54" width="2" height="2" fill="#FF7002"/>
<rect x="20" y="56" width="2" height="2" fill="#FF7002"/>
<rect x="22" y="54" width="2" height="2" fill="#FFCBB8"/>
<rect x="22" y="56" width="2" height="2" fill="#FF7002"/>
<rect x="26" y="54" width="2" height="2" fill="#FFCBB8"/>
<rect x="26" y="56" width="2" height="2" fill="#FF7002"/>
<rect x="30" y="54" width="2" height="2" fill="#FFCBB8"/>
<rect x="30" y="56" width="2" height="2" fill="#FF7002"/>
<rect x="34" y="54" width="2" height="2" fill="#FFCBB8"/>
<rect x="34" y="56" width="2" height="2" fill="#FF7002"/>
<rect x="40" y="52" width="2" height="2" fill="#FFCBB8"/>
<rect x="42" y="50" width="2" height="2" fill="#FFCBB8"/>
<rect x="42" y="52" width="2" height="2" fill="#FFCBB8"/>
<rect x="42" y="54" width="2" height="2" fill="#FF7002"/>
<rect x="44" y="52" width="2" height="2" fill="#FF7002"/>
<rect x="44" y="48" width="2" height="2" fill="#FFCBB8"/>
<rect x="44" y="50" width="2" height="2" fill="#FFCBB8"/>
<rect x="46" y="50" width="2" height="2" fill="#FF7002"/>
<rect x="46" y="46" width="2" height="2" fill="#FFCBB8"/>
<rect x="46" y="48" width="2" height="2" fill="#FFCBB8"/>
<rect x="48" y="48" width="2" height="2" fill="#FF7002"/>
<rect x="48" y="44" width="2" height="2" fill="#FFCBB8"/>
<rect x="48" y="46" width="2" height="2" fill="#FFCBB8"/>
<rect x="50" y="46" width="2" height="2" fill="#FF7002"/>
<rect x="50" y="42" width="2" height="2" fill="#FFCBB8"/>
<rect x="50" y="44" width="2" height="2" fill="#FFCBB8"/>
<rect x="52" y="44" width="2" height="2" fill="#FF7002"/>
<rect x="52" y="40" width="2" height="2" fill="#FFCBB8"/>
<rect x="54" y="40" width="2" height="2" fill="#FF7002"/>
<rect x="52" y="42" width="2" height="2" fill="#FFCBB8"/>
<rect x="54" y="42" width="2" height="2" fill="#FF7002"/>
<rect x="54" y="36" width="2" height="2" fill="#FFCBB8"/>
<rect x="54" y="38" width="2" height="2" fill="#FFCBB8"/>
<rect x="56" y="38" width="2" height="2" fill="#FF7002"/>
<rect x="56" y="34" width="2" height="2" fill="#FFCBB8"/>
<rect x="58" y="34" width="2" height="2" fill="#FF7002"/>
<rect x="56" y="36" width="2" height="2" fill="#FFCBB8"/>
<rect x="58" y="36" width="2" height="2" fill="#FF7002"/>
<rect x="56" y="32" width="2" height="2" fill="#FFCBB8"/>
<rect x="58" y="32" width="2" height="2" fill="#FF7002"/>
<rect x="56" y="30" width="2" height="2" fill="#FFCBB8"/>
<rect x="58" y="30" width="2" height="2" fill="#FF7002"/>
<rect x="56" y="28" width="2" height="2" fill="#FFCBB8"/>
<rect x="58" y="28" width="2" height="2" fill="#FF7002"/>
<rect x="56" y="26" width="2" height="2" fill="#FFCBB8"/>
<rect x="58" y="26" width="2" height="2" fill="#FF7002"/>
<rect x="56" y="24" width="2" height="2" fill="#FFCBB8"/>
<rect x="58" y="24" width="2" height="2" fill="#FF7002"/>
<rect x="56" y="22" width="2" height="2" fill="#FFCBB8"/>
<rect x="58" y="22" width="2" height="2" fill="#FF7002"/>
<rect x="56" y="20" width="2" height="2" fill="#FFCBB8"/>
<rect x="58" y="20" width="2" height="2" fill="#FF7002"/>
<rect x="56" y="18" width="2" height="2" fill="#FFCBB8"/>
<rect x="58" y="18" width="2" height="2" fill="#FF7002"/>
<rect x="56" y="16" width="2" height="2" fill="#FFCBB8"/>
<rect x="58" y="16" width="2" height="2" fill="#FF7002"/>
<rect x="56" y="14" width="2" height="2" fill="#FF7002"/>
<rect x="34" y="4" width="2" height="2" fill="#FFCBB8"/>
<rect x="34" y="2" width="2" height="2" fill="#FF7002"/>
<rect x="28" y="4" width="2" height="2" fill="#FFCBB8"/>
<rect x="28" y="2" width="2" height="2" fill="#FF7002"/>
<rect x="22" y="4" width="2" height="2" fill="#FFCBB8"/>
<rect x="22" y="2" width="2" height="2" fill="#FF7002"/>
<rect x="18" y="6" width="2" height="2" fill="#FFCBB8"/>
<rect x="18" y="4" width="2" height="2" fill="#FFCBB8"/>
<rect x="18" y="2" width="2" height="2" fill="#FF7002"/>
<rect x="14" y="8" width="2" height="2" fill="#FFCBB8"/>
<rect x="14" y="6" width="2" height="2" fill="#FFCBB8"/>
<rect x="14" y="4" width="2" height="2" fill="#FF7002"/>
<rect x="10" y="10" width="2" height="2" fill="#FFCBB8"/>
<rect x="10" y="8" width="2" height="2" fill="#FFCBB8"/>
<rect x="10" y="6" width="2" height="2" fill="#FF7002"/>
<rect x="8" y="12" width="2" height="2" fill="#FFCBB8"/>
<rect x="8" y="10" width="2" height="2" fill="#FFCBB8"/>
<rect x="8" y="8" width="2" height="2" fill="#FF7002"/>
<rect x="6" y="14" width="2" height="2" fill="#FFCBB8"/>
<rect x="6" y="12" width="2" height="2" fill="#FFCBB8"/>
<rect x="6" y="10" width="2" height="2" fill="#FF7002"/>
<rect x="4" y="16" width="2" height="2" fill="#FFCBB8"/>
<rect x="4" y="14" width="2" height="2" fill="#FFCBB8"/>
<rect x="4" y="12" width="2" height="2" fill="#FF7002"/>
<rect x="54" y="16" width="2" height="2" fill="#FFCBB8"/>
<rect x="54" y="14" width="2" height="2" fill="#FFCBB8"/>
<rect x="54" y="12" width="2" height="2" fill="#FF7002"/>
<rect x="52" y="14" width="2" height="2" fill="#FFCBB8"/>
<rect x="52" y="12" width="2" height="2" fill="#FFCBB8"/>
<rect x="52" y="10" width="2" height="2" fill="#FF7002"/>
<rect x="50" y="12" width="2" height="2" fill="#FFCBB8"/>
<rect x="50" y="10" width="2" height="2" fill="#FFCBB8"/>
<rect x="50" y="8" width="2" height="2" fill="#FF7002"/>
<rect x="48" y="10" width="2" height="2" fill="#FFCBB8"/>
<rect x="48" y="8" width="2" height="2" fill="#FFCBB8"/>
<rect x="48" y="6" width="2" height="2" fill="#FF7002"/>
<rect x="46" y="8" width="2" height="2" fill="#FFCBB8"/>
<rect x="46" y="6" width="2" height="2" fill="#FF7002"/>
<rect x="42" y="6" width="2" height="2" fill="#FFCBB8"/>
<rect x="42" y="4" width="2" height="2" fill="#FF7002"/>
<rect x="38" y="4" width="2" height="2" fill="#FFCBB8"/>
<rect x="38" y="2" width="2" height="2" fill="#FF7002"/>
<rect x="32" y="4" width="2" height="2" fill="#FFCBB8"/>
<rect x="32" y="2" width="2" height="2" fill="#FF7002"/>
<rect x="26" y="4" width="2" height="2" fill="#FFCBB8"/>
<rect x="26" y="2" width="2" height="2" fill="#FF7002"/>
<rect x="20" y="4" width="2" height="2" fill="#FFCBB8"/>
<rect x="20" y="2" width="2" height="2" fill="#FF7002"/>
<rect x="16" y="6" width="2" height="2" fill="#FFCBB8"/>
<rect x="16" y="4" width="2" height="2" fill="#FF7002"/>
<rect x="12" y="8" width="2" height="2" fill="#FFCBB8"/>
<rect x="12" y="6" width="2" height="2" fill="#FF7002"/>
<rect x="2" y="18" width="2" height="2" fill="#FFCBB8"/>
<rect y="18" width="2" height="2" fill="#FF7002"/>
<rect x="2" y="16" width="2" height="2" fill="#FFCBB8"/>
<rect y="16" width="2" height="2" fill="#FF7002"/>
<rect x="2" y="14" width="2" height="2" fill="#FF7002"/>
<rect x="2" y="20" width="2" height="2" fill="#FFCBB8"/>
<rect y="20" width="2" height="2" fill="#FF7002"/>
<rect x="2" y="22" width="2" height="2" fill="#FFCBB8"/>
<rect y="22" width="2" height="2" fill="#FF7002"/>
<rect x="2" y="24" width="2" height="2" fill="#FFCBB8"/>
<rect y="24" width="2" height="2" fill="#FF7002"/>
<rect x="2" y="26" width="2" height="2" fill="#FFCBB8"/>
<rect y="26" width="2" height="2" fill="#FF7002"/>
<rect x="2" y="28" width="2" height="2" fill="#FFCBB8"/>
<rect y="28" width="2" height="2" fill="#FF7002"/>
<rect x="2" y="30" width="2" height="2" fill="#FFCBB8"/>
<rect y="30" width="2" height="2" fill="#FF7002"/>
<rect x="44" y="8" width="2" height="2" fill="#FFCBB8"/>
<rect x="44" y="6" width="2" height="2" fill="#FFCBB8"/>
<rect x="44" y="4" width="2" height="2" fill="#FF7002"/>
<rect x="40" y="6" width="2" height="2" fill="#FFCBB8"/>
<rect x="40" y="4" width="2" height="2" fill="#FFCBB8"/>
<rect x="40" y="2" width="2" height="2" fill="#FF7002"/>
<rect x="36" y="4" width="2" height="2" fill="#FFCBB8"/>
<rect x="36" y="2" width="2" height="2" fill="#FF7002"/>
<rect x="30" y="4" width="2" height="2" fill="#FFCBB8"/>
<rect x="30" y="2" width="2" height="2" fill="#FF7002"/>
<rect x="24" y="4" width="2" height="2" fill="#FFCBB8"/>
<rect x="24" y="2" width="2" height="2" fill="#FF7002"/>
<rect x="52" y="38" width="2" height="2" fill="#FFCBB8"/>
</svg>
