<svg width="64" height="64" viewBox="0 0 64 64" fill="none" xmlns="http://www.w3.org/2000/svg">
<g clip-path="url(#clip0_326_138645)">
<rect x="17.0669" y="53.3334" width="2.13333" height="2.13334" fill="#BFC9CC"/>
<rect x="17.0669" y="51.2" width="2.13333" height="2.13333" fill="#F4F4F4"/>
<rect x="19.2002" y="53.3334" width="2.13333" height="2.13334" fill="#BFC9CC"/>
<rect x="19.2002" y="51.2" width="2.13333" height="2.13333" fill="#F4F4F4"/>
<rect x="21.3335" y="55.4667" width="2.13333" height="2.13333" fill="#BFC9CC"/>
<rect x="21.3335" y="53.3334" width="2.13333" height="2.13334" fill="#F4F4F4"/>
<rect x="25.6001" y="55.4667" width="2.13333" height="2.13333" fill="#BFC9CC"/>
<rect x="25.6001" y="53.3334" width="2.13333" height="2.13334" fill="#F4F4F4"/>
<rect x="29.8667" y="55.4667" width="2.13333" height="2.13333" fill="#BFC9CC"/>
<rect x="29.8667" y="53.3334" width="2.13333" height="2.13334" fill="#F4F4F4"/>
<rect x="34.1333" y="55.4667" width="2.13333" height="2.13333" fill="#BFC9CC"/>
<rect x="34.1333" y="53.3334" width="2.13333" height="2.13334" fill="#F4F4F4"/>
<rect x="38.3999" y="55.4667" width="2.13333" height="2.13333" fill="#BFC9CC"/>
<rect x="38.3999" y="53.3334" width="2.13333" height="2.13334" fill="#F4F4F4"/>
<rect x="42.6665" y="53.3334" width="2.13333" height="2.13334" fill="#BFC9CC"/>
<rect x="42.6665" y="51.2" width="2.13333" height="2.13333" fill="#F4F4F4"/>
<rect x="46.9331" y="51.2" width="2.13333" height="2.13333" fill="#BFC9CC"/>
<rect x="46.9331" y="49.0667" width="2.13333" height="2.13334" fill="#F4F4F4"/>
<rect x="12.7998" y="51.2" width="2.13333" height="2.13333" fill="#BFC9CC"/>
<rect x="12.7998" y="49.0667" width="2.13333" height="2.13334" fill="#F4F4F4"/>
<rect x="10.6665" y="49.0667" width="2.13333" height="2.13334" fill="#BFC9CC"/>
<rect x="10.6665" y="46.9333" width="2.13333" height="2.13333" fill="#F4F4F4"/>
<rect x="8.5332" y="46.9333" width="2.13333" height="2.13333" fill="#BFC9CC"/>
<rect x="8.5332" y="44.8" width="2.13333" height="2.13334" fill="#F4F4F4"/>
<rect x="6.3999" y="44.8" width="2.13333" height="2.13334" fill="#BFC9CC"/>
<rect x="6.3999" y="42.6666" width="2.13333" height="2.13333" fill="#F4F4F4"/>
<rect x="23.4668" y="55.4667" width="2.13333" height="2.13333" fill="#BFC9CC"/>
<rect x="23.4668" y="53.3334" width="2.13333" height="2.13334" fill="#F4F4F4"/>
<rect x="27.7334" y="55.4667" width="2.13333" height="2.13333" fill="#BFC9CC"/>
<rect x="27.7334" y="53.3334" width="2.13333" height="2.13334" fill="#F4F4F4"/>
<rect x="32" y="55.4667" width="2.13334" height="2.13333" fill="#BFC9CC"/>
<rect x="32" y="53.3334" width="2.13334" height="2.13334" fill="#F4F4F4"/>
<rect x="36.2666" y="55.4667" width="2.13334" height="2.13333" fill="#BFC9CC"/>
<rect x="36.2666" y="53.3334" width="2.13334" height="2.13334" fill="#F4F4F4"/>
<rect x="40.5332" y="55.4667" width="2.13334" height="2.13333" fill="#BFC9CC"/>
<rect x="40.5332" y="53.3334" width="2.13334" height="2.13334" fill="#F4F4F4"/>
<rect x="44.7998" y="53.3334" width="2.13334" height="2.13334" fill="#BFC9CC"/>
<rect x="44.7998" y="51.2" width="2.13334" height="2.13333" fill="#F4F4F4"/>
<rect x="49.0669" y="51.2" width="2.13334" height="2.13333" fill="#BFC9CC"/>
<rect x="49.0669" y="49.0667" width="2.13334" height="2.13334" fill="#F4F4F4"/>
<rect x="51.2002" y="49.0667" width="2.13333" height="2.13334" fill="#BFC9CC"/>
<rect x="51.2002" y="46.9333" width="2.13333" height="2.13333" fill="#F4F4F4"/>
<rect x="53.3335" y="46.9333" width="2.13334" height="2.13333" fill="#BFC9CC"/>
<rect x="53.3335" y="44.8" width="2.13334" height="2.13334" fill="#F4F4F4"/>
<rect x="55.4668" y="44.8" width="2.13333" height="2.13334" fill="#BFC9CC"/>
<rect x="55.4668" y="42.6666" width="2.13333" height="2.13333" fill="#F4F4F4"/>
<rect x="14.9331" y="51.2" width="2.13333" height="2.13333" fill="#BFC9CC"/>
<rect x="14.9331" y="49.0667" width="2.13333" height="2.13334" fill="#F4F4F4"/>
<rect width="2.13333" height="2.13334" transform="matrix(-1 0 0 1 32 57.6)" fill="black"/>
<rect width="2.13333" height="2.13333" transform="matrix(-1 0 0 1 32 17.0667)" fill="#EF0035"/>
<rect width="2.13333" height="2.13333" transform="matrix(-1 0 0 1 32 14.9333)" fill="#FFD8AC"/>
<rect width="2.13334" height="2.13333" transform="matrix(-1 0 0 1 34.1333 14.9333)" fill="#EF0035"/>
<rect width="2.13334" height="2.13333" transform="matrix(-1 0 0 1 38.3999 12.8)" fill="#EF0035"/>
<rect width="2.13334" height="2.13333" transform="matrix(-1 0 0 1 38.3999 10.6666)" fill="#33BE00"/>
<rect width="2.13333" height="2.13333" transform="matrix(-1 0 0 1 40.5332 12.8)" fill="#EF0035"/>
<rect width="2.13333" height="2.13333" transform="matrix(-1 0 0 1 40.5332 10.6666)" fill="#FF5050"/>
<rect width="2.13334" height="2.13333" transform="matrix(-1 0 0 1 42.6665 12.8)" fill="#FF5050"/>
<rect width="2.13333" height="2.13333" transform="matrix(-1 0 0 1 44.7998 14.9333)" fill="#FF5050"/>
<rect width="2.13334" height="2.13333" transform="matrix(-1 0 0 1 42.6665 14.9333)" fill="#EF0035"/>
<rect width="2.13333" height="2.13333" transform="matrix(-1 0 0 1 40.5332 14.9333)" fill="#EF0035"/>
<rect width="2.13334" height="2.13333" transform="matrix(-1 0 0 1 38.3999 14.9333)" fill="#EF0035"/>
<rect width="2.13333" height="2.13333" transform="matrix(-1 0 0 1 36.2666 14.9333)" fill="#EF0035"/>
<rect width="2.13333" height="2.13334" transform="matrix(-1 0 0 1 29.8667 57.6)" fill="black"/>
<rect width="2.13333" height="2.13333" transform="matrix(-1 0 0 1 29.8667 17.0667)" fill="#B50028"/>
<rect width="2.13333" height="2.13333" transform="matrix(-1 0 0 1 29.8667 14.9333)" fill="#EF0035"/>
<rect width="2.13333" height="2.13334" transform="matrix(-1 0 0 1 27.7334 57.6)" fill="black"/>
<rect width="2.13333" height="2.13333" transform="matrix(-1 0 0 1 27.7334 17.0667)" fill="#EF0035"/>
<rect width="2.13333" height="2.13333" transform="matrix(-1 0 0 1 27.7334 14.9333)" fill="#EF0035"/>
<rect width="2.13333" height="2.13334" transform="matrix(-1 0 0 1 25.6001 57.6)" fill="black"/>
<rect width="2.13333" height="2.13333" transform="matrix(-1 0 0 1 25.6001 17.0667)" fill="#FFD8AC"/>
<rect width="2.13333" height="2.13333" transform="matrix(-1 0 0 1 25.6001 14.9333)" fill="#EF0035"/>
<rect width="2.13333" height="2.13334" transform="matrix(-1 0 0 1 23.4668 57.6)" fill="black"/>
<rect width="2.13333" height="2.13333" transform="matrix(-1 0 0 1 23.4668 17.0667)" fill="#EF0035"/>
<rect width="2.13333" height="2.13333" transform="matrix(-1 0 0 1 21.3335 55.4667)" fill="black"/>
<rect width="2.13333" height="2.13333" transform="matrix(-1 0 0 1 19.2002 55.4667)" fill="black"/>
<rect width="2.13333" height="2.13334" transform="matrix(-1 0 0 1 17.0669 53.3334)" fill="black"/>
<rect width="2.13333" height="2.13334" transform="matrix(-1 0 0 1 14.9331 53.3334)" fill="black"/>
<rect width="2.13333" height="2.13334" transform="matrix(-1 0 0 1 10.6665 49.0667)" fill="black"/>
<rect width="2.13333" height="2.13333" transform="matrix(-1 0 0 1 12.7998 51.2)" fill="black"/>
<rect width="2.13333" height="2.13333" transform="matrix(-1 0 0 1 8.5332 46.9333)" fill="black"/>
<rect x="32" y="57.6" width="2.13334" height="2.13334" fill="black"/>
<rect x="32" y="17.0667" width="2.13334" height="2.13333" fill="#EF0035"/>
<rect x="34.1333" y="57.6" width="2.13333" height="2.13334" fill="black"/>
<rect x="34.1333" y="17.0667" width="2.13333" height="2.13333" fill="#EF0035"/>
<rect x="29.8667" y="10.6666" width="2.13333" height="2.13333" fill="#27BD00"/>
<rect x="32" y="12.8" width="2.13334" height="2.13333" fill="#33BE00"/>
<rect x="34.1333" y="10.6666" width="2.13333" height="2.13333" fill="#33BE00"/>
<rect x="34.1333" y="8.53333" width="2.13333" height="2.13333" fill="#33BE00"/>
<rect x="34.1333" y="12.8" width="2.13333" height="2.13333" fill="#33BE00"/>
<rect x="27.7334" y="10.6666" width="2.13333" height="2.13333" fill="#27BD00"/>
<rect x="29.8667" y="12.8" width="2.13333" height="2.13333" fill="#EF0035"/>
<rect x="32" y="10.6666" width="2.13334" height="2.13333" fill="#EF0035"/>
<rect x="27.7334" y="12.8" width="2.13333" height="2.13333" fill="#EF0035"/>
<rect x="25.6001" y="10.6666" width="2.13333" height="2.13333" fill="#FF5050"/>
<rect x="23.4668" y="12.8" width="2.13333" height="2.13333" fill="#FF5050"/>
<rect x="25.6001" y="12.8" width="2.13333" height="2.13333" fill="#EF0035"/>
<rect x="21.3335" y="14.9333" width="2.13333" height="2.13333" fill="#FF5050"/>
<rect x="25.6001" y="8.53333" width="2.13333" height="2.13333" fill="#27BD00"/>
<rect x="27.7334" y="8.53333" width="2.13333" height="2.13333" fill="#27BD00"/>
<rect x="27.7334" y="6.40002" width="2.13333" height="2.13333" fill="#27BD00"/>
<rect x="36.2666" y="57.6" width="2.13334" height="2.13334" fill="black"/>
<rect x="36.2666" y="17.0667" width="2.13334" height="2.13333" fill="#FFD8AC"/>
<rect x="38.3999" y="57.6" width="2.13333" height="2.13334" fill="black"/>
<rect x="38.3999" y="17.0667" width="2.13333" height="2.13333" fill="#EF0035"/>
<rect x="40.5332" y="57.6" width="2.13334" height="2.13334" fill="black"/>
<rect x="40.5332" y="17.0667" width="2.13334" height="2.13333" fill="#EF0035"/>
<rect x="42.6665" y="55.4667" width="2.13333" height="2.13333" fill="black"/>
<rect x="44.7998" y="55.4667" width="2.13334" height="2.13333" fill="black"/>
<rect x="46.9331" y="53.3334" width="2.13333" height="2.13334" fill="black"/>
<rect x="49.0669" y="53.3334" width="2.13334" height="2.13334" fill="black"/>
<rect x="53.3335" y="49.0667" width="2.13334" height="2.13334" fill="black"/>
<rect x="51.2002" y="51.2" width="2.13333" height="2.13333" fill="black"/>
<rect x="55.4668" y="46.9333" width="2.13333" height="2.13333" fill="black"/>
<rect width="2.13334" height="2.13334" transform="matrix(-1 0 0 1 59.7334 36.2667)" fill="black"/>
<rect width="2.13333" height="2.13334" transform="matrix(-1 0 0 1 6.3999 36.2667)" fill="black"/>
<rect width="2.13334" height="2.13333" transform="matrix(-1 0 0 1 59.7334 38.4)" fill="black"/>
<rect width="2.13333" height="2.13333" transform="matrix(-1 0 0 1 6.3999 38.4)" fill="black"/>
<rect width="2.13334" height="2.13334" transform="matrix(-1 0 0 1 59.7334 40.5333)" fill="black"/>
<rect width="2.13333" height="2.13334" transform="matrix(-1 0 0 1 6.3999 40.5333)" fill="black"/>
<rect x="57.6001" y="32" width="2.13334" height="2.13334" fill="black"/>
<rect x="4.2666" y="32" width="2.13333" height="2.13334" fill="black"/>
<rect x="57.6001" y="34.1333" width="2.13334" height="2.13333" fill="black"/>
<rect x="4.2666" y="34.1333" width="2.13333" height="2.13333" fill="black"/>
<rect x="57.6001" y="42.6666" width="2.13334" height="2.13333" fill="black"/>
<rect x="4.2666" y="42.6666" width="2.13333" height="2.13333" fill="black"/>
<rect x="57.6001" y="44.8" width="2.13334" height="2.13334" fill="black"/>
<rect x="4.2666" y="44.8" width="2.13333" height="2.13334" fill="black"/>
<rect width="2.13333" height="2.13333" transform="matrix(-1 0 0 1 19.2002 19.2)" fill="black"/>
<rect width="2.13333" height="2.13333" transform="matrix(-1 0 0 1 19.2002 17.0667)" fill="black"/>
<rect width="2.13333" height="2.13333" transform="matrix(-1 0 0 1 21.3335 14.9333)" fill="black"/>
<rect width="2.13333" height="2.13333" transform="matrix(-1 0 0 1 23.4668 12.8)" fill="black"/>
<rect width="2.13333" height="2.13333" transform="matrix(-1 0 0 1 25.6001 10.6666)" fill="black"/>
<rect width="2.13333" height="2.13333" transform="matrix(-1 0 0 1 25.6001 8.53333)" fill="black"/>
<rect width="2.13333" height="2.13333" transform="matrix(-1 0 0 1 27.7334 6.40002)" fill="black"/>
<rect width="2.13333" height="2.13333" transform="matrix(-1 0 0 1 29.8667 4.26672)" fill="black"/>
<rect width="2.13333" height="2.13333" transform="matrix(-1 0 0 1 32 6.40002)" fill="black"/>
<rect width="2.13333" height="2.13333" transform="matrix(-1 0 0 1 32 8.53333)" fill="black"/>
<rect width="2.13334" height="2.13333" transform="matrix(-1 0 0 1 34.1333 8.53333)" fill="black"/>
<rect width="2.13333" height="2.13333" transform="matrix(-1 0 0 1 36.2666 6.40002)" fill="black"/>
<rect width="2.13334" height="2.13333" transform="matrix(-1 0 0 1 38.3999 8.53333)" fill="black"/>
<rect width="2.13333" height="2.13333" transform="matrix(-1 0 0 1 40.5332 8.53333)" fill="black"/>
<rect width="2.13334" height="2.13333" transform="matrix(-1 0 0 1 42.6665 10.6666)" fill="black"/>
<rect width="2.13333" height="2.13333" transform="matrix(-1 0 0 1 44.7998 12.8)" fill="black"/>
<rect width="2.13334" height="2.13333" transform="matrix(-1 0 0 1 46.9331 14.9333)" fill="black"/>
<rect width="2.13333" height="2.13333" transform="matrix(-1 0 0 1 49.0669 17.0667)" fill="black"/>
<rect width="2.13334" height="2.13333" transform="matrix(-1 0 0 1 51.2002 19.2)" fill="black"/>
<rect x="44.7998" y="19.2" width="2.13334" height="2.13333" fill="#EF0035"/>
<rect x="46.9331" y="19.2" width="2.13333" height="2.13333" fill="#B50028"/>
<rect x="42.6665" y="17.0667" width="2.13333" height="2.13333" fill="#EF0035"/>
<rect x="44.7998" y="17.0667" width="2.13334" height="2.13333" fill="#EF0035"/>
<rect x="19.2002" y="17.0667" width="2.13333" height="2.13333" fill="#FF5050"/>
<rect x="19.2002" y="19.2" width="2.13333" height="2.13333" fill="#B50028"/>
<rect x="19.2002" y="21.3334" width="2.13333" height="2.13333" fill="#FF5050"/>
<rect x="17.0669" y="21.3334" width="2.13333" height="2.13333" fill="#EF0035"/>
<rect x="44.7998" y="21.3334" width="2.13334" height="2.13333" fill="#EF0035"/>
<rect x="19.2002" y="23.4667" width="2.13333" height="2.13333" fill="#FF5050"/>
<rect x="17.0669" y="23.4667" width="2.13333" height="2.13333" fill="#B50028"/>
<rect x="44.7998" y="23.4667" width="2.13334" height="2.13333" fill="#EF0035"/>
<rect x="46.9331" y="23.4667" width="2.13333" height="2.13333" fill="#EF0035"/>
<rect x="14.9331" y="23.4667" width="2.13333" height="2.13333" fill="#B50028"/>
<rect x="19.2002" y="25.6" width="2.13333" height="2.13333" fill="#B50028"/>
<rect x="17.0669" y="25.6" width="2.13333" height="2.13333" fill="#FF9900"/>
<rect x="44.7998" y="25.6" width="2.13334" height="2.13333" fill="#B50028"/>
<rect x="46.9331" y="25.6" width="2.13333" height="2.13333" fill="#EF0035"/>
<rect x="49.0669" y="25.6" width="2.13334" height="2.13333" fill="#B50028"/>
<rect x="14.9331" y="25.6" width="2.13333" height="2.13333" fill="#FF9900"/>
<rect x="12.7998" y="25.6" width="2.13333" height="2.13333" fill="#FF9900"/>
<rect x="19.2002" y="27.7333" width="2.13333" height="2.13333" fill="#FF9900"/>
<rect x="17.0669" y="27.7333" width="2.13333" height="2.13333" fill="#FF9900"/>
<rect x="44.7998" y="27.7333" width="2.13334" height="2.13333" fill="#FFD356"/>
<rect x="46.9331" y="27.7333" width="2.13333" height="2.13333" fill="#B50028"/>
<rect x="49.0669" y="27.7333" width="2.13334" height="2.13333" fill="#FF9900"/>
<rect x="14.9331" y="27.7333" width="2.13333" height="2.13333" fill="#FFD356"/>
<rect x="12.7998" y="27.7333" width="2.13333" height="2.13333" fill="#FFD356"/>
<rect x="19.2002" y="29.8667" width="2.13333" height="2.13333" fill="#FF9900"/>
<rect x="17.0669" y="29.8667" width="2.13333" height="2.13333" fill="#FFD356"/>
<rect x="44.7998" y="29.8667" width="2.13334" height="2.13333" fill="#FFD356"/>
<rect x="46.9331" y="29.8667" width="2.13333" height="2.13333" fill="#FFD356"/>
<rect x="49.0669" y="29.8667" width="2.13334" height="2.13333" fill="#FFD356"/>
<rect x="14.9331" y="29.8667" width="2.13333" height="2.13333" fill="#FFD356"/>
<rect x="12.7998" y="29.8667" width="2.13333" height="2.13333" fill="#FFD356"/>
<rect x="10.6665" y="29.8667" width="2.13333" height="2.13333" fill="#FF9900"/>
<rect x="51.2002" y="29.8667" width="2.13333" height="2.13333" fill="#FF9900"/>
<rect x="19.2002" y="32" width="2.13333" height="2.13334" fill="#FFD356"/>
<rect x="17.0669" y="32" width="2.13333" height="2.13334" fill="#FFD356"/>
<rect x="44.7998" y="32" width="2.13334" height="2.13334" fill="#FF9900"/>
<rect x="46.9331" y="32" width="2.13333" height="2.13334" fill="#FF9900"/>
<rect x="49.0669" y="32" width="2.13334" height="2.13334" fill="#FFD356"/>
<rect x="14.9331" y="32" width="2.13333" height="2.13334" fill="#FF9900"/>
<rect x="12.7998" y="32" width="2.13333" height="2.13334" fill="#FF9900"/>
<rect x="10.6665" y="32" width="2.13333" height="2.13334" fill="#FFD356"/>
<rect x="8.5332" y="32" width="2.13333" height="2.13334" fill="#FFD356"/>
<rect x="53.3335" y="32" width="2.13334" height="2.13334" fill="#FF9900"/>
<rect x="55.4668" y="32" width="2.13333" height="2.13334" fill="#D4D4D4"/>
<rect x="53.3335" y="29.8667" width="2.13334" height="2.13333" fill="#C1BDBD"/>
<rect x="53.3335" y="27.7333" width="2.13334" height="2.13333" fill="#C1BDBD"/>
<rect x="51.2002" y="27.7333" width="2.13333" height="2.13333" fill="#C1BDBD"/>
<rect x="51.2002" y="25.6" width="2.13333" height="2.13333" fill="#C1BDBD"/>
<rect x="49.0669" y="23.4667" width="2.13334" height="2.13333" fill="#C1BDBD"/>
<rect x="51.2002" y="32" width="2.13333" height="2.13334" fill="#FFD356"/>
<rect x="19.2002" y="34.1333" width="2.13333" height="2.13333" fill="#FFD356"/>
<rect x="17.0669" y="34.1333" width="2.13333" height="2.13333" fill="#FF9900"/>
<rect x="44.7998" y="34.1333" width="2.13334" height="2.13333" fill="#FF9900"/>
<rect x="46.9331" y="34.1333" width="2.13333" height="2.13333" fill="#FF9900"/>
<rect x="49.0669" y="34.1333" width="2.13334" height="2.13333" fill="#FF9900"/>
<rect x="14.9331" y="34.1333" width="2.13333" height="2.13333" fill="#FFD356"/>
<rect x="12.7998" y="34.1333" width="2.13333" height="2.13333" fill="#FF9900"/>
<rect x="10.6665" y="34.1333" width="2.13333" height="2.13333" fill="#FFD356"/>
<rect x="8.5332" y="34.1333" width="2.13333" height="2.13333" fill="#FF9900"/>
<rect x="53.3335" y="34.1333" width="2.13334" height="2.13333" fill="#FFD356"/>
<rect x="55.4668" y="34.1333" width="2.13333" height="2.13333" fill="#D4D4D4"/>
<rect x="51.2002" y="34.1333" width="2.13333" height="2.13333" fill="#FFD356"/>
<rect x="19.2002" y="36.2667" width="2.13333" height="2.13334" fill="#FF9900"/>
<rect x="17.0669" y="36.2667" width="2.13333" height="2.13334" fill="#FFD356"/>
<rect x="44.7998" y="36.2667" width="2.13334" height="2.13334" fill="#FFD356"/>
<rect x="46.9331" y="36.2667" width="2.13333" height="2.13334" fill="#FFD356"/>
<rect x="49.0669" y="36.2667" width="2.13334" height="2.13334" fill="#FFD356"/>
<rect x="14.9331" y="36.2667" width="2.13333" height="2.13334" fill="#FF9900"/>
<rect x="12.7998" y="36.2667" width="2.13333" height="2.13334" fill="#FFD356"/>
<rect x="10.6665" y="36.2667" width="2.13333" height="2.13334" fill="#FFD356"/>
<rect x="8.5332" y="36.2667" width="2.13333" height="2.13334" fill="#C1BDBD"/>
<rect x="53.3335" y="36.2667" width="2.13334" height="2.13334" fill="#C1BDBD"/>
<rect x="55.4668" y="36.2667" width="2.13333" height="2.13334" fill="#D4D4D4"/>
<rect x="55.4668" y="38.4" width="2.13333" height="2.13333" fill="#D4D4D4"/>
<rect x="55.4668" y="40.5333" width="2.13333" height="2.13334" fill="#D4D4D4"/>
<rect x="53.3335" y="40.5333" width="2.13334" height="2.13334" fill="#D4D4D4"/>
<rect x="53.3335" y="42.6666" width="2.13334" height="2.13333" fill="#D4D4D4"/>
<rect x="49.0669" y="46.9333" width="2.13334" height="2.13333" fill="#D4D4D4"/>
<rect x="51.2002" y="36.2667" width="2.13333" height="2.13334" fill="#FF9900"/>
<rect x="19.2002" y="38.4" width="2.13333" height="2.13333" fill="#FF9900"/>
<rect x="17.0669" y="38.4" width="2.13333" height="2.13333" fill="#FF9900"/>
<rect x="44.7998" y="38.4" width="2.13334" height="2.13333" fill="#FF9900"/>
<rect x="46.9331" y="38.4" width="2.13333" height="2.13333" fill="#FFD356"/>
<rect x="49.0669" y="38.4" width="2.13334" height="2.13333" fill="#FFD356"/>
<rect x="14.9331" y="38.4" width="2.13333" height="2.13333" fill="#FFD356"/>
<rect x="12.7998" y="38.4" width="2.13333" height="2.13333" fill="#FF9900"/>
<rect x="10.6665" y="38.4" width="2.13333" height="2.13333" fill="#FFD356"/>
<rect x="53.3335" y="38.4" width="2.13334" height="2.13333" fill="#C1BDBD"/>
<rect x="51.2002" y="38.4" width="2.13333" height="2.13333" fill="#FFD356"/>
<rect x="19.2002" y="40.5333" width="2.13333" height="2.13334" fill="#FFD356"/>
<rect x="17.0669" y="40.5333" width="2.13333" height="2.13334" fill="#FFD356"/>
<rect x="44.7998" y="40.5333" width="2.13334" height="2.13334" fill="#FFD356"/>
<rect x="46.9331" y="40.5333" width="2.13333" height="2.13334" fill="#FF9900"/>
<rect x="49.0669" y="40.5333" width="2.13334" height="2.13334" fill="#FFD356"/>
<rect x="14.9331" y="40.5333" width="2.13333" height="2.13334" fill="#FFD356"/>
<rect x="12.7998" y="40.5333" width="2.13333" height="2.13334" fill="#FFD356"/>
<rect x="10.6665" y="40.5333" width="2.13333" height="2.13334" fill="#C1BDBD"/>
<rect x="51.2002" y="40.5333" width="2.13333" height="2.13334" fill="#C1BDBD"/>
<rect x="19.2002" y="42.6666" width="2.13333" height="2.13333" fill="#FF9900"/>
<rect x="17.0669" y="42.6666" width="2.13333" height="2.13333" fill="#FF9900"/>
<rect x="44.7998" y="42.6666" width="2.13334" height="2.13333" fill="#FFD356"/>
<rect x="46.9331" y="42.6666" width="2.13333" height="2.13333" fill="#FFD356"/>
<rect x="49.0669" y="42.6666" width="2.13334" height="2.13333" fill="#C1BDBD"/>
<rect x="14.9331" y="42.6666" width="2.13333" height="2.13333" fill="#FFD356"/>
<rect x="12.7998" y="42.6666" width="2.13333" height="2.13333" fill="#C1BDBD"/>
<rect x="51.2002" y="42.6666" width="2.13333" height="2.13333" fill="#D4D4D4"/>
<rect x="19.2002" y="44.8" width="2.13333" height="2.13334" fill="#C1BDBD"/>
<rect x="17.0669" y="44.8" width="2.13333" height="2.13334" fill="#C1BDBD"/>
<rect x="44.7998" y="44.8" width="2.13334" height="2.13334" fill="#C1BDBD"/>
<rect x="46.9331" y="44.8" width="2.13333" height="2.13334" fill="#C1BDBD"/>
<rect x="49.0669" y="44.8" width="2.13334" height="2.13334" fill="#D4D4D4"/>
<rect x="14.9331" y="44.8" width="2.13333" height="2.13334" fill="#C1BDBD"/>
<rect x="51.2002" y="44.8" width="2.13333" height="2.13334" fill="#D4D4D4"/>
<rect x="19.2002" y="46.9333" width="2.13333" height="2.13333" fill="#D4D4D4"/>
<rect x="14.9331" y="46.9333" width="2.13333" height="2.13333" fill="#D4D4D4"/>
<rect x="12.7998" y="44.8" width="2.13333" height="2.13334" fill="#D4D4D4"/>
<rect x="10.6665" y="42.6666" width="2.13333" height="2.13333" fill="#D4D4D4"/>
<rect x="8.5332" y="40.5333" width="2.13333" height="2.13334" fill="#D4D4D4"/>
<rect x="8.5332" y="38.4" width="2.13333" height="2.13333" fill="#C1BDBD"/>
<rect x="17.0669" y="46.9333" width="2.13333" height="2.13333" fill="#D4D4D4"/>
<rect x="12.7998" y="46.9333" width="2.13333" height="2.13333" fill="#D4D4D4"/>
<rect x="10.6665" y="44.8" width="2.13333" height="2.13334" fill="#D4D4D4"/>
<rect x="8.5332" y="42.6666" width="2.13333" height="2.13333" fill="#D4D4D4"/>
<rect x="6.3999" y="40.5333" width="2.13333" height="2.13334" fill="#D4D4D4"/>
<rect x="6.3999" y="38.4" width="2.13333" height="2.13333" fill="#D4D4D4"/>
<rect x="6.3999" y="36.2667" width="2.13333" height="2.13334" fill="#D4D4D4"/>
<rect x="6.3999" y="34.1333" width="2.13333" height="2.13333" fill="#D4D4D4"/>
<rect x="6.3999" y="32" width="2.13333" height="2.13334" fill="#D4D4D4"/>
<rect x="8.5332" y="29.8667" width="2.13333" height="2.13333" fill="#C1BDBD"/>
<rect x="8.5332" y="27.7333" width="2.13333" height="2.13333" fill="#C1BDBD"/>
<rect x="10.6665" y="27.7333" width="2.13333" height="2.13333" fill="#C1BDBD"/>
<rect x="10.6665" y="25.6" width="2.13333" height="2.13333" fill="#C1BDBD"/>
<rect x="12.7998" y="23.4667" width="2.13333" height="2.13333" fill="#C1BDBD"/>
<rect x="44.7998" y="46.9333" width="2.13334" height="2.13333" fill="#D4D4D4"/>
<rect x="44.7998" y="49.0667" width="2.13334" height="2.13334" fill="#D4D4D4"/>
<rect x="46.9331" y="46.9333" width="2.13333" height="2.13333" fill="#D4D4D4"/>
<rect x="21.3335" y="19.2" width="2.13333" height="2.13333" fill="#EF0035"/>
<rect x="21.3335" y="21.3334" width="2.13333" height="2.13333" fill="#B50028"/>
<rect x="21.3335" y="23.4667" width="2.13333" height="2.13333" fill="#B50028"/>
<rect x="21.3335" y="25.6" width="2.13333" height="2.13333" fill="#B50028"/>
<rect x="21.3335" y="27.7333" width="2.13333" height="2.13333" fill="#FFD356"/>
<rect x="21.3335" y="29.8667" width="2.13333" height="2.13333" fill="#FF9900"/>
<rect x="21.3335" y="32" width="2.13333" height="2.13334" fill="#FFD356"/>
<rect x="21.3335" y="34.1333" width="2.13333" height="2.13333" fill="#FFD356"/>
<rect x="21.3335" y="36.2667" width="2.13333" height="2.13334" fill="#FFD356"/>
<rect x="21.3335" y="38.4" width="2.13333" height="2.13333" fill="#FF9900"/>
<rect x="21.3335" y="40.5333" width="2.13333" height="2.13334" fill="#FFD356"/>
<rect x="21.3335" y="42.6666" width="2.13333" height="2.13333" fill="#FFD356"/>
<rect x="21.3335" y="44.8" width="2.13333" height="2.13334" fill="#FF9900"/>
<rect x="21.3335" y="46.9333" width="2.13333" height="2.13333" fill="#C1BDBD"/>
<rect x="23.4668" y="19.2" width="2.13333" height="2.13333" fill="#EF0035"/>
<rect x="23.4668" y="21.3334" width="2.13333" height="2.13333" fill="#B50028"/>
<rect x="23.4668" y="23.4667" width="2.13333" height="2.13333" fill="#FF5050"/>
<rect x="23.4668" y="25.6" width="2.13333" height="2.13333" fill="#B50028"/>
<rect x="23.4668" y="27.7333" width="2.13333" height="2.13333" fill="#FFD356"/>
<rect x="23.4668" y="29.8667" width="2.13333" height="2.13333" fill="#FFD356"/>
<rect x="23.4668" y="32" width="2.13333" height="2.13334" fill="#FF9900"/>
<rect x="23.4668" y="34.1333" width="2.13333" height="2.13333" fill="#FFD356"/>
<rect x="23.4668" y="36.2667" width="2.13333" height="2.13334" fill="#FF9900"/>
<rect x="23.4668" y="38.4" width="2.13333" height="2.13333" fill="#FFD356"/>
<rect x="23.4668" y="40.5333" width="2.13333" height="2.13334" fill="#FF9900"/>
<rect x="23.4668" y="42.6666" width="2.13333" height="2.13333" fill="#FFD356"/>
<rect x="23.4668" y="44.8" width="2.13333" height="2.13334" fill="#FF9900"/>
<rect x="23.4668" y="46.9333" width="2.13333" height="2.13333" fill="#C1BDBD"/>
<rect x="23.4668" y="49.0667" width="2.13333" height="2.13334" fill="#D4D4D4"/>
<rect x="21.3335" y="49.0667" width="2.13333" height="2.13334" fill="#D4D4D4"/>
<rect x="19.2002" y="49.0667" width="2.13333" height="2.13334" fill="#D4D4D4"/>
<rect x="17.0669" y="49.0667" width="2.13333" height="2.13334" fill="#D4D4D4"/>
<rect x="23.4668" y="51.2" width="2.13333" height="2.13333" fill="#D4D4D4"/>
<rect x="21.3335" y="51.2" width="2.13333" height="2.13333" fill="#D4D4D4"/>
<rect x="25.6001" y="19.2" width="2.13333" height="2.13333" fill="#FF5050"/>
<rect x="25.6001" y="21.3334" width="2.13333" height="2.13333" fill="#B50028"/>
<rect x="25.6001" y="23.4667" width="2.13333" height="2.13333" fill="#B50028"/>
<rect x="25.6001" y="25.6" width="2.13333" height="2.13333" fill="#FFD356"/>
<rect x="25.6001" y="27.7333" width="2.13333" height="2.13333" fill="#FF9900"/>
<rect x="25.6001" y="29.8667" width="2.13333" height="2.13333" fill="#FFD356"/>
<rect x="25.6001" y="32" width="2.13333" height="2.13334" fill="#FF9900"/>
<rect x="25.6001" y="34.1333" width="2.13333" height="2.13333" fill="#FF9900"/>
<rect x="25.6001" y="36.2667" width="2.13333" height="2.13334" fill="#FFD356"/>
<rect x="25.6001" y="38.4" width="2.13333" height="2.13333" fill="#FF9900"/>
<rect x="25.6001" y="40.5333" width="2.13333" height="2.13334" fill="#FF9900"/>
<rect x="25.6001" y="42.6666" width="2.13333" height="2.13333" fill="#FFD356"/>
<rect x="25.6001" y="44.8" width="2.13333" height="2.13334" fill="#FF9900"/>
<rect x="25.6001" y="46.9333" width="2.13333" height="2.13333" fill="#C1BDBD"/>
<rect x="25.6001" y="49.0667" width="2.13333" height="2.13334" fill="#D4D4D4"/>
<rect x="25.6001" y="51.2" width="2.13333" height="2.13333" fill="#D4D4D4"/>
<rect x="27.7334" y="19.2" width="2.13333" height="2.13333" fill="#FF5050"/>
<rect x="27.7334" y="21.3334" width="2.13333" height="2.13333" fill="#EF0035"/>
<rect x="29.8667" y="23.4667" width="2.13333" height="2.13333" fill="#EF0035"/>
<rect x="27.7334" y="25.6" width="2.13333" height="2.13333" fill="#B50028"/>
<rect x="27.7334" y="27.7333" width="2.13333" height="2.13333" fill="#FF9900"/>
<rect x="27.7334" y="29.8667" width="2.13333" height="2.13333" fill="#FF9900"/>
<rect x="27.7334" y="32" width="2.13333" height="2.13334" fill="#FFD356"/>
<rect x="27.7334" y="34.1333" width="2.13333" height="2.13333" fill="#FFD356"/>
<rect x="27.7334" y="36.2667" width="2.13333" height="2.13334" fill="#FF9900"/>
<rect x="27.7334" y="38.4" width="2.13333" height="2.13333" fill="#FFD356"/>
<rect x="27.7334" y="40.5333" width="2.13333" height="2.13334" fill="#FF9900"/>
<rect x="27.7334" y="42.6666" width="2.13333" height="2.13333" fill="#FFD356"/>
<rect x="27.7334" y="44.8" width="2.13333" height="2.13334" fill="#FFD356"/>
<rect x="27.7334" y="46.9333" width="2.13333" height="2.13333" fill="#C1BDBD"/>
<rect x="27.7334" y="49.0667" width="2.13333" height="2.13334" fill="#D4D4D4"/>
<rect x="27.7334" y="51.2" width="2.13333" height="2.13333" fill="#D4D4D4"/>
<rect x="29.8667" y="19.2" width="2.13333" height="2.13333" fill="#B50028"/>
<rect x="29.8667" y="21.3334" width="2.13333" height="2.13333" fill="#FF5050"/>
<rect x="27.7334" y="23.4667" width="2.13333" height="2.13333" fill="#EF0035"/>
<rect x="29.8667" y="25.6" width="2.13333" height="2.13333" fill="#EF0035"/>
<rect x="29.8667" y="27.7333" width="2.13333" height="2.13333" fill="#B50028"/>
<rect x="29.8667" y="29.8667" width="2.13333" height="2.13333" fill="#FFD356"/>
<rect x="29.8667" y="32" width="2.13333" height="2.13334" fill="#FFD356"/>
<rect x="29.8667" y="34.1333" width="2.13333" height="2.13333" fill="#EF0035"/>
<rect x="29.8667" y="36.2667" width="2.13333" height="2.13334" fill="#EF0035"/>
<rect x="29.8667" y="38.4" width="2.13333" height="2.13333" fill="#FFD356"/>
<rect x="29.8667" y="40.5333" width="2.13333" height="2.13334" fill="#FF9900"/>
<rect x="29.8667" y="42.6666" width="2.13333" height="2.13333" fill="#FF9900"/>
<rect x="29.8667" y="44.8" width="2.13333" height="2.13334" fill="#FFD356"/>
<rect x="29.8667" y="46.9333" width="2.13333" height="2.13333" fill="#C1BDBD"/>
<rect x="29.8667" y="49.0667" width="2.13333" height="2.13334" fill="#D4D4D4"/>
<rect x="29.8667" y="51.2" width="2.13333" height="2.13333" fill="#D4D4D4"/>
<rect x="32" y="19.2" width="2.13334" height="2.13333" fill="#FF5050"/>
<rect x="32" y="21.3334" width="2.13334" height="2.13333" fill="#B50028"/>
<rect x="32" y="23.4667" width="2.13334" height="2.13333" fill="#B50028"/>
<rect x="32" y="25.6" width="2.13334" height="2.13333" fill="#FFD356"/>
<rect x="32" y="27.7333" width="2.13334" height="2.13333" fill="#FF9900"/>
<rect x="32" y="29.8667" width="2.13334" height="2.13333" fill="#FF5050"/>
<rect x="32" y="32" width="2.13334" height="2.13334" fill="#EF0035"/>
<rect x="32" y="34.1333" width="2.13334" height="2.13333" fill="#EF0035"/>
<rect x="32" y="36.2667" width="2.13334" height="2.13334" fill="#EF0035"/>
<rect x="32" y="38.4" width="2.13334" height="2.13333" fill="#B50028"/>
<rect x="32" y="40.5333" width="2.13334" height="2.13334" fill="#FFD356"/>
<rect x="32" y="42.6666" width="2.13334" height="2.13333" fill="#FFD356"/>
<rect x="32" y="44.8" width="2.13334" height="2.13334" fill="#FF9900"/>
<rect x="32" y="46.9333" width="2.13334" height="2.13333" fill="#C1BDBD"/>
<rect x="32" y="49.0667" width="2.13334" height="2.13334" fill="#D4D4D4"/>
<rect x="32" y="51.2" width="2.13334" height="2.13333" fill="#D4D4D4"/>
<rect x="34.1333" y="19.2" width="2.13333" height="2.13333" fill="#EF0035"/>
<rect x="34.1333" y="21.3334" width="2.13333" height="2.13333" fill="#FF5050"/>
<rect x="34.1333" y="23.4667" width="2.13333" height="2.13333" fill="#B50028"/>
<rect x="34.1333" y="25.6" width="2.13333" height="2.13333" fill="#D15600"/>
<rect x="34.1333" y="27.7333" width="2.13333" height="2.13333" fill="#FFD356"/>
<rect x="34.1333" y="29.8667" width="2.13333" height="2.13333" fill="#FFD356"/>
<rect x="34.1333" y="32" width="2.13333" height="2.13334" fill="#FFD356"/>
<rect x="34.1333" y="34.1333" width="2.13333" height="2.13333" fill="#EF0035"/>
<rect x="34.1333" y="36.2667" width="2.13333" height="2.13334" fill="#EF0035"/>
<rect x="34.1333" y="38.4" width="2.13333" height="2.13333" fill="#B50028"/>
<rect x="34.1333" y="40.5333" width="2.13333" height="2.13334" fill="#FFD356"/>
<rect x="34.1333" y="42.6666" width="2.13333" height="2.13333" fill="#FFD356"/>
<rect x="34.1333" y="44.8" width="2.13333" height="2.13334" fill="#FF9900"/>
<rect x="34.1333" y="46.9333" width="2.13333" height="2.13333" fill="#C1BDBD"/>
<rect x="34.1333" y="49.0667" width="2.13333" height="2.13334" fill="#D4D4D4"/>
<rect x="34.1333" y="51.2" width="2.13333" height="2.13333" fill="#D4D4D4"/>
<rect x="36.2666" y="19.2" width="2.13334" height="2.13333" fill="#EF0035"/>
<rect x="36.2666" y="21.3334" width="2.13334" height="2.13333" fill="#EF0035"/>
<rect x="36.2666" y="23.4667" width="2.13334" height="2.13333" fill="#EF0035"/>
<rect x="36.2666" y="25.6" width="2.13334" height="2.13333" fill="#EF0035"/>
<rect x="36.2666" y="27.7333" width="2.13334" height="2.13333" fill="#EF0035"/>
<rect x="36.2666" y="29.8667" width="2.13334" height="2.13333" fill="#EF0035"/>
<rect x="36.2666" y="32" width="2.13334" height="2.13334" fill="#B50028"/>
<rect x="36.2666" y="34.1333" width="2.13334" height="2.13333" fill="#FFD356"/>
<rect x="36.2666" y="36.2667" width="2.13334" height="2.13334" fill="#FF9900"/>
<rect x="36.2666" y="38.4" width="2.13334" height="2.13333" fill="#FF9900"/>
<rect x="36.2666" y="40.5333" width="2.13334" height="2.13334" fill="#FF9900"/>
<rect x="36.2666" y="42.6666" width="2.13334" height="2.13333" fill="#FFD356"/>
<rect x="36.2666" y="44.8" width="2.13334" height="2.13334" fill="#FFD356"/>
<rect x="36.2666" y="46.9333" width="2.13334" height="2.13333" fill="#C1BDBD"/>
<rect x="36.2666" y="49.0667" width="2.13334" height="2.13334" fill="#D4D4D4"/>
<rect x="36.2666" y="51.2" width="2.13334" height="2.13333" fill="#D4D4D4"/>
<rect x="38.3999" y="19.2" width="2.13333" height="2.13333" fill="#FF5050"/>
<rect x="38.3999" y="21.3334" width="2.13333" height="2.13333" fill="#FF5050"/>
<rect x="38.3999" y="23.4667" width="2.13333" height="2.13333" fill="#EF0035"/>
<rect x="38.3999" y="25.6" width="2.13333" height="2.13333" fill="#FF5050"/>
<rect x="38.3999" y="27.7333" width="2.13333" height="2.13333" fill="#EF0035"/>
<rect x="38.3999" y="29.8667" width="2.13333" height="2.13333" fill="#B50028"/>
<rect x="38.3999" y="32" width="2.13333" height="2.13334" fill="#FF9900"/>
<rect x="38.3999" y="34.1333" width="2.13333" height="2.13333" fill="#FF9900"/>
<rect x="38.3999" y="36.2667" width="2.13333" height="2.13334" fill="#FFD356"/>
<rect x="38.3999" y="38.4" width="2.13333" height="2.13333" fill="#FFD356"/>
<rect x="38.3999" y="40.5333" width="2.13333" height="2.13334" fill="#FFD356"/>
<rect x="38.3999" y="42.6666" width="2.13333" height="2.13333" fill="#FFD356"/>
<rect x="38.3999" y="44.8" width="2.13333" height="2.13334" fill="#FF9900"/>
<rect x="38.3999" y="46.9333" width="2.13333" height="2.13333" fill="#C1BDBD"/>
<rect x="38.3999" y="49.0667" width="2.13333" height="2.13334" fill="#D4D4D4"/>
<rect x="38.3999" y="51.2" width="2.13333" height="2.13333" fill="#D4D4D4"/>
<rect x="40.5332" y="19.2" width="2.13334" height="2.13333" fill="#B50028"/>
<rect x="40.5332" y="21.3334" width="2.13334" height="2.13333" fill="#B50028"/>
<rect x="40.5332" y="23.4667" width="2.13334" height="2.13333" fill="#B50028"/>
<rect x="40.5332" y="25.6" width="2.13334" height="2.13333" fill="#B50028"/>
<rect x="40.5332" y="27.7333" width="2.13334" height="2.13333" fill="#B50028"/>
<rect x="40.5332" y="29.8667" width="2.13334" height="2.13333" fill="#FF9900"/>
<rect x="40.5332" y="32" width="2.13334" height="2.13334" fill="#FFD356"/>
<rect x="40.5332" y="34.1333" width="2.13334" height="2.13333" fill="#FFD356"/>
<rect x="40.5332" y="36.2667" width="2.13334" height="2.13334" fill="#FF9900"/>
<rect x="40.5332" y="38.4" width="2.13334" height="2.13333" fill="#FFD356"/>
<rect x="40.5332" y="40.5333" width="2.13334" height="2.13334" fill="#FFD356"/>
<rect x="40.5332" y="42.6666" width="2.13334" height="2.13333" fill="#FF9900"/>
<rect x="40.5332" y="44.8" width="2.13334" height="2.13334" fill="#FFD356"/>
<rect x="40.5332" y="46.9333" width="2.13334" height="2.13333" fill="#C1BDBD"/>
<rect x="40.5332" y="49.0667" width="2.13334" height="2.13334" fill="#D4D4D4"/>
<rect x="40.5332" y="51.2" width="2.13334" height="2.13333" fill="#D4D4D4"/>
<rect x="42.6665" y="19.2" width="2.13333" height="2.13333" fill="#FF5050"/>
<rect x="42.6665" y="21.3334" width="2.13333" height="2.13333" fill="#EF0035"/>
<rect x="42.6665" y="23.4667" width="2.13333" height="2.13333" fill="#EF0035"/>
<rect x="42.6665" y="25.6" width="2.13333" height="2.13333" fill="#EF0035"/>
<rect x="42.6665" y="27.7333" width="2.13333" height="2.13333" fill="#B50028"/>
<rect x="42.6665" y="29.8667" width="2.13333" height="2.13333" fill="#FFD356"/>
<rect x="42.6665" y="32" width="2.13333" height="2.13334" fill="#FFD356"/>
<rect x="42.6665" y="34.1333" width="2.13333" height="2.13333" fill="#FF9900"/>
<rect x="42.6665" y="36.2667" width="2.13333" height="2.13334" fill="#FFD356"/>
<rect x="42.6665" y="38.4" width="2.13333" height="2.13333" fill="#FF9900"/>
<rect x="42.6665" y="40.5333" width="2.13333" height="2.13334" fill="#FF9900"/>
<rect x="42.6665" y="42.6666" width="2.13333" height="2.13333" fill="#FFD356"/>
<rect x="42.6665" y="44.8" width="2.13333" height="2.13334" fill="#FFD356"/>
<rect x="42.6665" y="46.9333" width="2.13333" height="2.13333" fill="#C1BDBD"/>
<rect x="42.6665" y="49.0667" width="2.13333" height="2.13334" fill="#D4D4D4"/>
<rect width="2.13333" height="2.13333" transform="matrix(-1 0 0 1 17.0669 21.3334)" fill="black"/>
<rect x="46.9331" y="21.3334" width="2.13333" height="2.13333" fill="#FF5050"/>
<rect width="2.13333" height="2.13333" transform="matrix(-1 0 0 1 14.9331 21.3334)" fill="black"/>
<rect x="49.0669" y="21.3334" width="2.13334" height="2.13333" fill="black"/>
<rect width="2.13333" height="2.13333" transform="matrix(-1 0 0 1 12.7998 23.4667)" fill="black"/>
<rect x="51.2002" y="23.4667" width="2.13333" height="2.13333" fill="black"/>
<rect width="2.13333" height="2.13333" transform="matrix(-1 0 0 1 10.6665 25.6)" fill="black"/>
<rect x="53.3335" y="25.6" width="2.13334" height="2.13333" fill="black"/>
<rect width="2.13333" height="2.13333" transform="matrix(-1 0 0 1 8.5332 27.7333)" fill="black"/>
<rect x="55.4668" y="27.7333" width="2.13333" height="2.13333" fill="black"/>
<rect width="2.13333" height="2.13333" transform="matrix(-1 0 0 1 8.5332 29.8667)" fill="black"/>
<rect x="55.4668" y="29.8667" width="2.13333" height="2.13333" fill="black"/>
<rect x="21.3335" y="59.7333" width="2.13333" height="2.13333" fill="white"/>
<rect x="21.3335" y="61.8667" width="2.13333" height="2.13334" fill="#B0BEC5"/>
<rect x="19.2002" y="59.7333" width="2.13333" height="2.13333" fill="white"/>
<rect x="19.2002" y="61.8667" width="2.13333" height="2.13334" fill="#B0BEC5"/>
<rect x="23.4668" y="59.7333" width="2.13333" height="2.13333" fill="white"/>
<rect x="23.4668" y="61.8667" width="2.13333" height="2.13334" fill="#B0BEC5"/>
<rect x="25.6001" y="59.7333" width="2.13333" height="2.13333" fill="white"/>
<rect x="25.6001" y="61.8667" width="2.13333" height="2.13334" fill="#B0BEC5"/>
<rect x="27.7334" y="59.7333" width="2.13333" height="2.13333" fill="white"/>
<rect x="27.7334" y="61.8667" width="2.13333" height="2.13334" fill="#B0BEC5"/>
<rect x="29.8667" y="59.7333" width="2.13333" height="2.13333" fill="white"/>
<rect x="29.8667" y="61.8667" width="2.13333" height="2.13334" fill="#B0BEC5"/>
<rect x="32" y="59.7333" width="2.13334" height="2.13333" fill="white"/>
<rect x="32" y="61.8667" width="2.13334" height="2.13334" fill="#B0BEC5"/>
<rect x="34.1333" y="59.7333" width="2.13333" height="2.13333" fill="white"/>
<rect x="34.1333" y="61.8667" width="2.13333" height="2.13334" fill="#B0BEC5"/>
<rect x="36.2666" y="59.7333" width="2.13334" height="2.13333" fill="white"/>
<rect x="36.2666" y="61.8667" width="2.13334" height="2.13334" fill="#B0BEC5"/>
<rect x="38.3999" y="59.7333" width="2.13333" height="2.13333" fill="white"/>
<rect x="38.3999" y="61.8667" width="2.13333" height="2.13334" fill="#B0BEC5"/>
<rect x="40.5332" y="59.7333" width="2.13334" height="2.13333" fill="white"/>
<rect x="40.5332" y="61.8667" width="2.13334" height="2.13334" fill="#B0BEC5"/>
<rect x="42.6665" y="59.7333" width="2.13333" height="2.13333" fill="white"/>
<rect x="42.6665" y="61.8667" width="2.13333" height="2.13334" fill="#B0BEC5"/>
<rect x="42.6665" y="57.6" width="2.13333" height="2.13334" fill="white"/>
<rect x="46.9331" y="55.4667" width="2.13333" height="2.13333" fill="white"/>
<rect x="44.7998" y="57.6" width="2.13334" height="2.13334" fill="white"/>
<rect x="44.7998" y="59.7333" width="2.13334" height="2.13333" fill="#B0BEC5"/>
<rect x="49.0669" y="55.4667" width="2.13334" height="2.13333" fill="white"/>
<rect x="49.0669" y="57.6" width="2.13334" height="2.13334" fill="#B0BEC5"/>
<rect x="51.2002" y="53.3334" width="2.13333" height="2.13334" fill="white"/>
<rect x="53.3335" y="51.2" width="2.13334" height="2.13333" fill="white"/>
<rect x="55.4668" y="49.0667" width="2.13333" height="2.13334" fill="white"/>
<rect x="57.6001" y="46.9333" width="2.13334" height="2.13333" fill="white"/>
<rect x="46.9331" y="57.6" width="2.13333" height="2.13334" fill="white"/>
<rect x="46.9331" y="59.7333" width="2.13333" height="2.13333" fill="#B0BEC5"/>
<rect x="51.2002" y="55.4667" width="2.13333" height="2.13333" fill="white"/>
<rect x="51.2002" y="57.6" width="2.13333" height="2.13334" fill="#B0BEC5"/>
<rect x="53.3335" y="55.4667" width="2.13334" height="2.13333" fill="#B0BEC5"/>
<rect x="53.3335" y="53.3334" width="2.13334" height="2.13334" fill="white"/>
<rect x="55.4668" y="53.3334" width="2.13333" height="2.13334" fill="#B0BEC5"/>
<rect x="55.4668" y="51.2" width="2.13333" height="2.13333" fill="white"/>
<rect x="57.6001" y="51.2" width="2.13334" height="2.13333" fill="#B0BEC5"/>
<rect x="57.6001" y="49.0667" width="2.13334" height="2.13334" fill="white"/>
<rect x="59.7334" y="49.0667" width="2.13333" height="2.13334" fill="#B0BEC5"/>
<rect x="59.7334" y="46.9333" width="2.13333" height="2.13333" fill="white"/>
<rect x="61.8667" y="46.9333" width="2.13334" height="2.13333" fill="#B0BEC5"/>
<rect x="59.7334" y="44.8" width="2.13333" height="2.13334" fill="white"/>
<rect x="61.8667" y="44.8" width="2.13334" height="2.13334" fill="#B0BEC5"/>
<rect x="59.7334" y="42.6666" width="2.13333" height="2.13333" fill="white"/>
<rect x="61.8667" y="42.6666" width="2.13334" height="2.13333" fill="#B0BEC5"/>
<rect x="59.7334" y="40.5333" width="2.13333" height="2.13334" fill="white"/>
<rect x="61.8667" y="40.5333" width="2.13334" height="2.13334" fill="#B0BEC5"/>
<rect x="59.7334" y="38.4" width="2.13333" height="2.13333" fill="white"/>
<rect x="61.8667" y="38.4" width="2.13334" height="2.13333" fill="#B0BEC5"/>
<rect x="59.7334" y="36.2667" width="2.13333" height="2.13334" fill="white"/>
<rect x="61.8667" y="36.2667" width="2.13334" height="2.13334" fill="#B0BEC5"/>
<rect x="59.7334" y="34.1333" width="2.13333" height="2.13333" fill="white"/>
<rect x="61.8667" y="34.1333" width="2.13334" height="2.13333" fill="#B0BEC5"/>
<rect x="59.7334" y="32" width="2.13333" height="2.13334" fill="white"/>
<rect x="61.8667" y="32" width="2.13334" height="2.13334" fill="#B0BEC5"/>
<rect x="59.7334" y="29.8667" width="2.13333" height="2.13333" fill="white"/>
<rect x="61.8667" y="29.8667" width="2.13334" height="2.13333" fill="#B0BEC5"/>
<rect x="57.6001" y="29.8667" width="2.13334" height="2.13333" fill="white"/>
<rect x="57.6001" y="27.7333" width="2.13334" height="2.13333" fill="white"/>
<rect x="59.7334" y="27.7333" width="2.13333" height="2.13333" fill="#B0BEC5"/>
<rect x="57.6001" y="25.6" width="2.13334" height="2.13333" fill="white"/>
<rect x="59.7334" y="25.6" width="2.13333" height="2.13333" fill="#B0BEC5"/>
<rect x="55.4668" y="23.4667" width="2.13333" height="2.13333" fill="white"/>
<rect x="57.6001" y="23.4667" width="2.13334" height="2.13333" fill="#B0BEC5"/>
<rect x="53.3335" y="21.3334" width="2.13334" height="2.13333" fill="white"/>
<rect x="55.4668" y="21.3334" width="2.13333" height="2.13333" fill="#B0BEC5"/>
<rect x="55.4668" y="25.6" width="2.13333" height="2.13333" fill="white"/>
<rect x="53.3335" y="23.4667" width="2.13334" height="2.13333" fill="white"/>
<rect x="51.2002" y="21.3334" width="2.13333" height="2.13333" fill="white"/>
<rect x="51.2002" y="19.2" width="2.13333" height="2.13333" fill="white"/>
<rect x="53.3335" y="19.2" width="2.13334" height="2.13333" fill="#B0BEC5"/>
<rect x="51.2002" y="17.0667" width="2.13333" height="2.13333" fill="white"/>
<rect x="53.3335" y="17.0667" width="2.13334" height="2.13333" fill="#B0BEC5"/>
<rect x="51.2002" y="14.9333" width="2.13333" height="2.13333" fill="#B0BEC5"/>
<rect x="49.0669" y="14.9333" width="2.13334" height="2.13333" fill="white"/>
<rect x="49.0669" y="12.8" width="2.13334" height="2.13333" fill="#B0BEC5"/>
<rect x="46.9331" y="12.8" width="2.13333" height="2.13333" fill="white"/>
<rect x="46.9331" y="10.6666" width="2.13333" height="2.13333" fill="#B0BEC5"/>
<rect x="44.7998" y="10.6666" width="2.13334" height="2.13333" fill="white"/>
<rect x="44.7998" y="8.53333" width="2.13334" height="2.13333" fill="#B0BEC5"/>
<rect x="42.6665" y="8.53333" width="2.13333" height="2.13333" fill="white"/>
<rect x="42.6665" y="6.40002" width="2.13333" height="2.13333" fill="#B0BEC5"/>
<rect x="40.5332" y="6.40002" width="2.13334" height="2.13333" fill="white"/>
<rect x="40.5332" y="4.26672" width="2.13334" height="2.13333" fill="#B0BEC5"/>
<rect x="49.0669" y="17.0667" width="2.13334" height="2.13333" fill="white"/>
<rect x="46.9331" y="14.9333" width="2.13333" height="2.13333" fill="white"/>
<rect x="44.7998" y="12.8" width="2.13334" height="2.13333" fill="white"/>
<rect x="42.6665" y="10.6666" width="2.13333" height="2.13333" fill="white"/>
<rect x="40.5332" y="8.53333" width="2.13334" height="2.13333" fill="white"/>
<rect x="38.3999" y="6.40002" width="2.13333" height="2.13333" fill="white"/>
<rect x="38.3999" y="4.26672" width="2.13333" height="2.13333" fill="#B0BEC5"/>
<rect x="36.2666" y="6.40002" width="2.13334" height="2.13333" fill="white"/>
<rect x="36.2666" y="4.26672" width="2.13334" height="2.13333" fill="white"/>
<rect x="36.2666" y="2.1333" width="2.13334" height="2.13333" fill="#B0BEC5"/>
<rect x="34.1333" y="4.26672" width="2.13333" height="2.13333" fill="white"/>
<rect x="34.1333" y="2.1333" width="2.13333" height="2.13333" fill="#B0BEC5"/>
<rect x="32" y="4.26672" width="2.13334" height="2.13333" fill="white"/>
<rect x="32" y="2.1333" width="2.13334" height="2.13333" fill="#B0BEC5"/>
<rect x="32" y="6.40002" width="2.13334" height="2.13333" fill="white"/>
<rect x="29.8667" y="4.26672" width="2.13333" height="2.13333" fill="white"/>
<rect x="29.8667" y="2.1333" width="2.13333" height="2.13333" fill="white"/>
<rect x="29.8667" width="2.13333" height="2.13333" fill="#B0BEC5"/>
<rect x="27.7334" y="2.1333" width="2.13333" height="2.13333" fill="white"/>
<rect x="27.7334" width="2.13333" height="2.13333" fill="#B0BEC5"/>
<rect x="25.6001" y="2.1333" width="2.13333" height="2.13333" fill="white"/>
<rect x="23.4668" y="2.1333" width="2.13333" height="2.13333" fill="#B0BEC5"/>
<rect x="25.6001" width="2.13333" height="2.13333" fill="#B0BEC5"/>
<rect x="25.6001" y="4.26672" width="2.13333" height="2.13333" fill="white"/>
<rect x="23.4668" y="4.26672" width="2.13333" height="2.13333" fill="white"/>
<rect x="21.3335" y="4.26672" width="2.13333" height="2.13333" fill="#B0BEC5"/>
<rect x="23.4668" y="6.40002" width="2.13333" height="2.13333" fill="white"/>
<rect x="21.3335" y="6.40002" width="2.13333" height="2.13333" fill="white"/>
<rect x="19.2002" y="6.40002" width="2.13333" height="2.13333" fill="#B0BEC5"/>
<rect x="21.3335" y="8.53333" width="2.13333" height="2.13333" fill="white"/>
<rect x="21.3335" y="10.6666" width="2.13333" height="2.13333" fill="white"/>
<rect x="19.2002" y="10.6666" width="2.13333" height="2.13333" fill="white"/>
<rect x="19.2002" y="8.53333" width="2.13333" height="2.13333" fill="#B0BEC5"/>
<rect x="19.2002" y="12.8" width="2.13333" height="2.13333" fill="white"/>
<rect x="17.0669" y="12.8" width="2.13333" height="2.13333" fill="white"/>
<rect x="17.0669" y="10.6666" width="2.13333" height="2.13333" fill="#B0BEC5"/>
<rect x="17.0669" y="14.9333" width="2.13333" height="2.13333" fill="white"/>
<rect x="14.9331" y="14.9333" width="2.13333" height="2.13333" fill="white"/>
<rect x="14.9331" y="12.8" width="2.13333" height="2.13333" fill="#B0BEC5"/>
<rect x="12.7998" y="14.9333" width="2.13333" height="2.13333" fill="#B0BEC5"/>
<rect x="14.9331" y="17.0667" width="2.13333" height="2.13333" fill="white"/>
<rect x="14.9331" y="19.2" width="2.13333" height="2.13333" fill="white"/>
<rect x="12.7998" y="19.2" width="2.13333" height="2.13333" fill="white"/>
<rect x="12.7998" y="17.0667" width="2.13333" height="2.13333" fill="#B0BEC5"/>
<rect x="10.6665" y="19.2" width="2.13333" height="2.13333" fill="white"/>
<rect x="10.6665" y="17.0667" width="2.13333" height="2.13333" fill="#B0BEC5"/>
<rect x="8.5332" y="19.2" width="2.13333" height="2.13333" fill="#B0BEC5"/>
<rect x="10.6665" y="21.3334" width="2.13333" height="2.13333" fill="white"/>
<rect x="8.5332" y="21.3334" width="2.13333" height="2.13333" fill="white"/>
<rect x="6.3999" y="21.3334" width="2.13333" height="2.13333" fill="#B0BEC5"/>
<rect x="8.5332" y="23.4667" width="2.13333" height="2.13333" fill="white"/>
<rect x="6.3999" y="23.4667" width="2.13333" height="2.13333" fill="white"/>
<rect x="4.2666" y="23.4667" width="2.13333" height="2.13333" fill="#B0BEC5"/>
<rect x="6.3999" y="25.6" width="2.13333" height="2.13333" fill="white"/>
<rect x="4.2666" y="25.6" width="2.13333" height="2.13333" fill="white"/>
<rect x="2.1333" y="25.6" width="2.13333" height="2.13333" fill="#B0BEC5"/>
<rect x="4.2666" y="27.7333" width="2.13333" height="2.13333" fill="white"/>
<rect x="2.1333" y="27.7333" width="2.13333" height="2.13333" fill="#B0BEC5"/>
<rect x="4.2666" y="29.8667" width="2.13333" height="2.13333" fill="white"/>
<rect x="2.1333" y="29.8667" width="2.13333" height="2.13333" fill="white"/>
<rect y="29.8667" width="2.13333" height="2.13333" fill="#B0BEC5"/>
<rect x="2.1333" y="32" width="2.13333" height="2.13334" fill="white"/>
<rect y="32" width="2.13333" height="2.13334" fill="#B0BEC5"/>
<rect x="2.1333" y="34.1333" width="2.13333" height="2.13333" fill="white"/>
<rect y="34.1333" width="2.13333" height="2.13333" fill="#B0BEC5"/>
<rect x="2.1333" y="36.2667" width="2.13333" height="2.13334" fill="white"/>
<rect y="36.2667" width="2.13333" height="2.13334" fill="#B0BEC5"/>
<rect x="2.1333" y="38.4" width="2.13333" height="2.13333" fill="white"/>
<rect y="38.4" width="2.13333" height="2.13333" fill="#B0BEC5"/>
<rect x="2.1333" y="40.5333" width="2.13333" height="2.13334" fill="white"/>
<rect y="40.5333" width="2.13333" height="2.13334" fill="#B0BEC5"/>
<rect x="2.1333" y="42.6666" width="2.13333" height="2.13333" fill="white"/>
<rect y="42.6666" width="2.13333" height="2.13333" fill="#B0BEC5"/>
<rect x="2.1333" y="44.8" width="2.13333" height="2.13334" fill="white"/>
<rect y="44.8" width="2.13333" height="2.13334" fill="#B0BEC5"/>
<rect x="2.1333" y="46.9333" width="2.13333" height="2.13333" fill="white"/>
<rect y="46.9333" width="2.13333" height="2.13333" fill="#B0BEC5"/>
<rect x="2.1333" y="49.0667" width="2.13333" height="2.13334" fill="#B0BEC5"/>
<rect x="4.2666" y="46.9333" width="2.13333" height="2.13333" fill="white"/>
<rect x="4.2666" y="49.0667" width="2.13333" height="2.13334" fill="white"/>
<rect x="4.2666" y="51.2" width="2.13333" height="2.13333" fill="#B0BEC5"/>
<rect x="6.3999" y="51.2" width="2.13333" height="2.13333" fill="white"/>
<rect x="6.3999" y="53.3334" width="2.13333" height="2.13334" fill="#B0BEC5"/>
<rect x="8.5332" y="53.3334" width="2.13333" height="2.13334" fill="white"/>
<rect x="8.5332" y="55.4667" width="2.13333" height="2.13333" fill="#B0BEC5"/>
<rect x="10.6665" y="55.4667" width="2.13333" height="2.13333" fill="white"/>
<rect x="10.6665" y="57.6" width="2.13333" height="2.13334" fill="#B0BEC5"/>
<rect x="14.9331" y="57.6" width="2.13333" height="2.13334" fill="white"/>
<rect x="14.9331" y="59.7333" width="2.13333" height="2.13333" fill="#B0BEC5"/>
<rect x="6.3999" y="49.0667" width="2.13333" height="2.13334" fill="white"/>
<rect x="8.5332" y="51.2" width="2.13333" height="2.13333" fill="white"/>
<rect x="10.6665" y="53.3334" width="2.13333" height="2.13334" fill="white"/>
<rect x="12.7998" y="55.4667" width="2.13333" height="2.13333" fill="white"/>
<rect x="12.7998" y="57.6" width="2.13333" height="2.13334" fill="#B0BEC5"/>
<rect x="17.0669" y="57.6" width="2.13333" height="2.13334" fill="white"/>
<rect x="17.0669" y="59.7333" width="2.13333" height="2.13333" fill="#B0BEC5"/>
<rect x="14.9331" y="55.4667" width="2.13333" height="2.13333" fill="white"/>
<rect x="19.2002" y="57.6" width="2.13333" height="2.13334" fill="white"/>
</g>
<defs>
<clipPath id="clip0_326_138645">
<rect width="64" height="64" fill="white"/>
</clipPath>
</defs>
</svg>
