<svg width="60" height="60" viewBox="0 0 60 60" fill="none" xmlns="http://www.w3.org/2000/svg">
<g clip-path="url(#clip0_326_62735)">
<rect width="2" height="2" transform="matrix(-1 0 0 1 30 54)" fill="black"/>
<rect width="2" height="2" transform="matrix(-1 0 0 1 28 54)" fill="black"/>
<rect width="2" height="2" transform="matrix(-1 0 0 1 26 54)" fill="black"/>
<rect width="2" height="2" transform="matrix(-1 0 0 1 24 54)" fill="black"/>
<rect width="2" height="2" transform="matrix(-1 0 0 1 22 54)" fill="black"/>
<rect width="2" height="2" transform="matrix(-1 0 0 1 20 52)" fill="black"/>
<rect width="2" height="2" transform="matrix(-1 0 0 1 18 52)" fill="black"/>
<rect width="2" height="2" transform="matrix(-1 0 0 1 16 50)" fill="black"/>
<rect width="2" height="2" transform="matrix(-1 0 0 1 14 50)" fill="black"/>
<rect width="2" height="2" transform="matrix(-1 0 0 1 10 46)" fill="black"/>
<rect width="2" height="2" transform="matrix(-1 0 0 1 12 48)" fill="black"/>
<rect width="2" height="2" transform="matrix(-1 0 0 1 8 44)" fill="black"/>
<rect x="30" y="54" width="2" height="2" fill="black"/>
<rect x="32" y="54" width="2" height="2" fill="black"/>
<rect x="34" y="54" width="2" height="2" fill="black"/>
<rect x="36" y="54" width="2" height="2" fill="black"/>
<rect x="38" y="54" width="2" height="2" fill="black"/>
<rect x="40" y="52" width="2" height="2" fill="black"/>
<rect x="42" y="52" width="2" height="2" fill="black"/>
<rect x="44" y="50" width="2" height="2" fill="black"/>
<rect x="46" y="50" width="2" height="2" fill="black"/>
<rect x="50" y="46" width="2" height="2" fill="black"/>
<rect x="48" y="48" width="2" height="2" fill="black"/>
<rect x="52" y="44" width="2" height="2" fill="black"/>
<rect width="2" height="2" transform="matrix(-1 0 0 1 56 34)" fill="black"/>
<rect width="2" height="2" transform="matrix(-1 0 0 1 6 34)" fill="black"/>
<rect width="2" height="2" transform="matrix(-1 0 0 1 56 36)" fill="black"/>
<rect width="2" height="2" transform="matrix(-1 0 0 1 6 36)" fill="black"/>
<rect width="2" height="2" transform="matrix(-1 0 0 1 56 38)" fill="black"/>
<rect width="2" height="2" transform="matrix(-1 0 0 1 6 38)" fill="black"/>
<rect x="54" y="30" width="2" height="2" fill="black"/>
<rect x="4" y="30" width="2" height="2" fill="black"/>
<rect x="54" y="32" width="2" height="2" fill="black"/>
<rect x="4" y="32" width="2" height="2" fill="black"/>
<rect x="54" y="40" width="2" height="2" fill="black"/>
<rect x="4" y="40" width="2" height="2" fill="black"/>
<rect x="54" y="42" width="2" height="2" fill="black"/>
<rect x="4" y="42" width="2" height="2" fill="black"/>
<rect width="2" height="2" transform="matrix(-1 0 0 1 54 28)" fill="black"/>
<rect width="2" height="2" transform="matrix(-1 0 0 1 8 28)" fill="black"/>
<rect x="16" y="50" width="2" height="2" fill="#C2C2C2"/>
<rect x="16" y="48" width="2" height="2" fill="#F1F1F1"/>
<rect x="18" y="50" width="2" height="2" fill="#C2C2C2"/>
<rect x="18" y="48" width="2" height="2" fill="#F1F1F1"/>
<rect x="20" y="48" width="2" height="2" fill="#E1E1E1"/>
<rect x="20" y="46" width="2" height="2" fill="#E1E1E1"/>
<rect x="18" y="46" width="2" height="2" fill="#E1E1E1"/>
<rect x="16" y="46" width="2" height="2" fill="#E1E1E1"/>
<rect x="40" y="46" width="2" height="2" fill="#E1E1E1"/>
<rect x="42" y="46" width="2" height="2" fill="#E1E1E1"/>
<rect x="16" y="44" width="2" height="2" fill="#D1D1D1"/>
<rect x="42" y="44" width="2" height="2" fill="#D1D1D1"/>
<rect x="44" y="44" width="2" height="2" fill="#E1E1E1"/>
<rect x="46" y="44" width="2" height="2" fill="#E1E1E1"/>
<rect x="14" y="44" width="2" height="2" fill="#E1E1E1"/>
<rect x="12" y="44" width="2" height="2" fill="#E1E1E1"/>
<rect x="44" y="42" width="2" height="2" fill="#D1D1D1"/>
<rect x="46" y="42" width="2" height="2" fill="#E1E1E1"/>
<rect x="14" y="42" width="2" height="2" fill="#D1D1D1"/>
<rect x="12" y="42" width="2" height="2" fill="#E1E1E1"/>
<rect x="10" y="42" width="2" height="2" fill="#E1E1E1"/>
<rect x="48" y="42" width="2" height="2" fill="#E1E1E1"/>
<rect x="46" y="40" width="2" height="2" fill="#D1D1D1"/>
<rect x="12" y="40" width="2" height="2" fill="#D1D1D1"/>
<rect x="10" y="40" width="2" height="2" fill="#E1E1E1"/>
<rect x="48" y="40" width="2" height="2" fill="#E1E1E1"/>
<rect x="50" y="40" width="2" height="2" fill="#E1E1E1"/>
<rect x="8" y="40" width="2" height="2" fill="#E1E1E1"/>
<rect x="10" y="38" width="2" height="2" fill="#D1D1D1"/>
<rect x="48" y="38" width="2" height="2" fill="#D1D1D1"/>
<rect x="50" y="38" width="2" height="2" fill="#E1E1E1"/>
<rect x="8" y="38" width="2" height="2" fill="#E1E1E1"/>
<rect x="6" y="38" width="2" height="2" fill="#E1E1E1"/>
<rect x="52" y="38" width="2" height="2" fill="#E1E1E1"/>
<rect x="10" y="36" width="2" height="2" fill="#FC9D50"/>
<rect x="48" y="36" width="2" height="2" fill="#FC9D50"/>
<rect x="50" y="36" width="2" height="2" fill="#E1E1E1"/>
<rect x="8" y="36" width="2" height="2" fill="#E1E1E1"/>
<rect x="6" y="36" width="2" height="2" fill="#E1E1E1"/>
<rect x="52" y="36" width="2" height="2" fill="#E1E1E1"/>
<rect x="50" y="34" width="2" height="2" fill="#D1D1D1"/>
<rect x="8" y="34" width="2" height="2" fill="#D1D1D1"/>
<rect x="6" y="34" width="2" height="2" fill="#E1E1E1"/>
<rect x="52" y="34" width="2" height="2" fill="#E1E1E1"/>
<rect x="50" y="32" width="2" height="2" fill="#D1D1D1"/>
<rect x="8" y="32" width="2" height="2" fill="#D1D1D1"/>
<rect x="6" y="32" width="2" height="2" fill="#E1E1E1"/>
<rect x="52" y="32" width="2" height="2" fill="#E1E1E1"/>
<rect x="6" y="30" width="2" height="2" fill="#E1E1E1"/>
<rect x="52" y="30" width="2" height="2" fill="#E1E1E1"/>
<rect x="22" y="48" width="2" height="2" fill="#E1E1E1"/>
<rect x="24" y="48" width="2" height="2" fill="#E1E1E1"/>
<rect x="26" y="48" width="2" height="2" fill="#E1E1E1"/>
<rect x="28" y="48" width="2" height="2" fill="#E1E1E1"/>
<rect x="30" y="48" width="2" height="2" fill="#E1E1E1"/>
<rect x="32" y="48" width="2" height="2" fill="#E1E1E1"/>
<rect x="34" y="48" width="2" height="2" fill="#E1E1E1"/>
<rect x="36" y="48" width="2" height="2" fill="#E1E1E1"/>
<rect x="38" y="48" width="2" height="2" fill="#E1E1E1"/>
<rect x="38" y="46" width="2" height="2" fill="#E1E1E1"/>
<rect x="20" y="52" width="2" height="2" fill="#C2C2C2"/>
<rect x="20" y="50" width="2" height="2" fill="#F1F1F1"/>
<rect x="24" y="52" width="2" height="2" fill="#C2C2C2"/>
<rect x="24" y="50" width="2" height="2" fill="#F1F1F1"/>
<rect x="28" y="52" width="2" height="2" fill="#C2C2C2"/>
<rect x="28" y="50" width="2" height="2" fill="#F1F1F1"/>
<rect x="32" y="52" width="2" height="2" fill="#C2C2C2"/>
<rect x="32" y="50" width="2" height="2" fill="#F1F1F1"/>
<rect x="36" y="52" width="2" height="2" fill="#C2C2C2"/>
<rect x="36" y="50" width="2" height="2" fill="#F1F1F1"/>
<rect x="40" y="50" width="2" height="2" fill="#C2C2C2"/>
<rect x="40" y="48" width="2" height="2" fill="#F1F1F1"/>
<rect x="44" y="48" width="2" height="2" fill="#C2C2C2"/>
<rect x="44" y="46" width="2" height="2" fill="#F1F1F1"/>
<rect x="12" y="48" width="2" height="2" fill="#C2C2C2"/>
<rect x="12" y="46" width="2" height="2" fill="#F1F1F1"/>
<rect x="10" y="46" width="2" height="2" fill="#C2C2C2"/>
<rect x="10" y="44" width="2" height="2" fill="#F1F1F1"/>
<rect x="8" y="44" width="2" height="2" fill="#C2C2C2"/>
<rect x="8" y="42" width="2" height="2" fill="#F1F1F1"/>
<rect x="6" y="42" width="2" height="2" fill="#C2C2C2"/>
<rect x="6" y="40" width="2" height="2" fill="#F1F1F1"/>
<rect x="22" y="52" width="2" height="2" fill="#C2C2C2"/>
<rect x="22" y="50" width="2" height="2" fill="#F1F1F1"/>
<rect x="26" y="52" width="2" height="2" fill="#C2C2C2"/>
<rect x="26" y="50" width="2" height="2" fill="#F1F1F1"/>
<rect x="30" y="52" width="2" height="2" fill="#C2C2C2"/>
<rect x="30" y="50" width="2" height="2" fill="#F1F1F1"/>
<rect x="34" y="52" width="2" height="2" fill="#C2C2C2"/>
<rect x="34" y="50" width="2" height="2" fill="#F1F1F1"/>
<rect x="38" y="52" width="2" height="2" fill="#C2C2C2"/>
<rect x="38" y="50" width="2" height="2" fill="#F1F1F1"/>
<rect x="42" y="50" width="2" height="2" fill="#C2C2C2"/>
<rect x="42" y="48" width="2" height="2" fill="#F1F1F1"/>
<rect x="46" y="48" width="2" height="2" fill="#C2C2C2"/>
<rect x="46" y="46" width="2" height="2" fill="#F1F1F1"/>
<rect x="48" y="46" width="2" height="2" fill="#C2C2C2"/>
<rect x="48" y="44" width="2" height="2" fill="#F1F1F1"/>
<rect x="50" y="44" width="2" height="2" fill="#C2C2C2"/>
<rect x="50" y="42" width="2" height="2" fill="#F1F1F1"/>
<rect x="52" y="42" width="2" height="2" fill="#C2C2C2"/>
<rect x="52" y="40" width="2" height="2" fill="#F1F1F1"/>
<rect x="14" y="48" width="2" height="2" fill="#C2C2C2"/>
<rect x="14" y="46" width="2" height="2" fill="#F1F1F1"/>
<rect width="2" height="2" transform="matrix(-1 0 0 1 30 4)" fill="black"/>
<rect width="2" height="2" transform="matrix(-1 0 0 1 30 6)" fill="#FC9D50"/>
<rect width="2" height="2" transform="matrix(-1 0 0 1 30 8)" fill="#FC9D50"/>
<rect width="2" height="2" transform="matrix(-1 0 0 1 30 10)" fill="#FC9D50"/>
<rect width="2" height="2" transform="matrix(-1 0 0 1 30 12)" fill="#FC9D50"/>
<rect width="2" height="2" transform="matrix(-1 0 0 1 30 14)" fill="#FC9D50"/>
<rect width="2" height="2" transform="matrix(-1 0 0 1 30 16)" fill="#FC9D50"/>
<rect width="2" height="2" transform="matrix(-1 0 0 1 30 18)" fill="#FC9D50"/>
<rect width="2" height="2" transform="matrix(-1 0 0 1 30 20)" fill="#FC9D50"/>
<rect width="2" height="2" transform="matrix(-1 0 0 1 30 22)" fill="#FC9D50"/>
<rect width="2" height="2" transform="matrix(-1 0 0 1 30 24)" fill="#DA7B60"/>
<rect width="2" height="2" transform="matrix(-1 0 0 1 30 44)" fill="#FC9D50"/>
<rect x="30" y="4" width="2" height="2" fill="black"/>
<rect x="30" y="6" width="2" height="2" fill="#FC9D50"/>
<rect x="30" y="8" width="2" height="2" fill="#FC9D50"/>
<rect x="30" y="10" width="2" height="2" fill="#FC9D50"/>
<rect x="30" y="12" width="2" height="2" fill="#FC9D50"/>
<rect x="30" y="14" width="2" height="2" fill="#FC9D50"/>
<rect x="30" y="16" width="2" height="2" fill="#FFDFA5"/>
<rect x="30" y="18" width="2" height="2" fill="#DA7B60"/>
<rect x="30" y="20" width="2" height="2" fill="#FC9D50"/>
<rect x="30" y="22" width="2" height="2" fill="#FC9D50"/>
<rect x="30" y="24" width="2" height="2" fill="#DA7B60"/>
<rect x="30" y="44" width="2" height="2" fill="#FC9D50"/>
<rect width="2" height="2" transform="matrix(-1 0 0 1 28 4)" fill="black"/>
<rect width="2" height="2" transform="matrix(-1 0 0 1 28 6)" fill="#FC9D50"/>
<rect width="2" height="2" transform="matrix(-1 0 0 1 28 8)" fill="#FC9D50"/>
<rect width="2" height="2" transform="matrix(-1 0 0 1 28 10)" fill="#FC9D50"/>
<rect width="2" height="2" transform="matrix(-1 0 0 1 28 12)" fill="#FC9D50"/>
<rect width="2" height="2" transform="matrix(-1 0 0 1 28 14)" fill="#FFDFA5"/>
<rect width="2" height="2" transform="matrix(-1 0 0 1 28 16)" fill="#DA7B60"/>
<rect width="2" height="2" transform="matrix(-1 0 0 1 28 18)" fill="#FC9D50"/>
<rect width="2" height="2" transform="matrix(-1 0 0 1 28 20)" fill="#FC9D50"/>
<rect width="2" height="2" transform="matrix(-1 0 0 1 28 22)" fill="#FC9D50"/>
<rect width="2" height="2" transform="matrix(-1 0 0 1 28 24)" fill="#DA7B60"/>
<rect width="2" height="2" transform="matrix(-1 0 0 1 28 44)" fill="#FC9D50"/>
<rect x="32" y="4" width="2" height="2" fill="black"/>
<rect x="32" y="6" width="2" height="2" fill="#FC9D50"/>
<rect x="32" y="12" width="2" height="2" fill="#FC9D50"/>
<rect x="32" y="8" width="2" height="2" fill="#FFDFA5"/>
<rect x="32" y="10" width="2" height="2" fill="#DA7B60"/>
<rect x="32" y="14" width="2" height="2" fill="#FC9D50"/>
<rect x="32" y="16" width="2" height="2" fill="#FC9D50"/>
<rect x="32" y="18" width="2" height="2" fill="#FC9D50"/>
<rect x="32" y="20" width="2" height="2" fill="#FC9D50"/>
<rect x="32" y="22" width="2" height="2" fill="#FC9D50"/>
<rect x="32" y="24" width="2" height="2" fill="#DA7B60"/>
<rect x="32" y="44" width="2" height="2" fill="#FC9D50"/>
<rect width="2" height="2" transform="matrix(-1 0 0 1 26 4)" fill="black"/>
<rect width="2" height="2" transform="matrix(-1 0 0 1 26 6)" fill="#FC9D50"/>
<rect width="2" height="2" transform="matrix(-1 0 0 1 26 8)" fill="#FC9D50"/>
<rect width="2" height="2" transform="matrix(-1 0 0 1 22 8)" fill="#FC9D50"/>
<rect width="2" height="2" transform="matrix(-1 0 0 1 42 8)" fill="#FC9D50"/>
<rect width="2" height="2" transform="matrix(-1 0 0 1 26 10)" fill="#FC9D50"/>
<rect width="2" height="2" transform="matrix(-1 0 0 1 22 10)" fill="#FC9D50"/>
<rect width="2" height="2" transform="matrix(-1 0 0 1 42 10)" fill="#FC9D50"/>
<rect width="2" height="2" transform="matrix(-1 0 0 1 44 10)" fill="#FC9D50"/>
<rect width="2" height="2" transform="matrix(-1 0 0 1 26 12)" fill="#FC9D50"/>
<rect width="2" height="2" transform="matrix(-1 0 0 1 22 12)" fill="#FC9D50"/>
<rect width="2" height="2" transform="matrix(-1 0 0 1 42 12)" fill="#FC9D50"/>
<rect width="2" height="2" transform="matrix(-1 0 0 1 44 12)" fill="#FC9D50"/>
<rect width="2" height="2" transform="matrix(-1 0 0 1 46 12)" fill="#DA7B60"/>
<rect width="2" height="2" transform="matrix(-1 0 0 1 26 14)" fill="#FC9D50"/>
<rect width="2" height="2" transform="matrix(-1 0 0 1 22 14)" fill="#FC9D50"/>
<rect width="2" height="2" transform="matrix(-1 0 0 1 42 14)" fill="#FC9D50"/>
<rect width="2" height="2" transform="matrix(-1 0 0 1 44 14)" fill="#FC9D50"/>
<rect width="2" height="2" transform="matrix(-1 0 0 1 46 14)" fill="#DA7B60"/>
<rect width="2" height="2" transform="matrix(-1 0 0 1 26 16)" fill="#FC9D50"/>
<rect width="2" height="2" transform="matrix(-1 0 0 1 22 16)" fill="#FC9D50"/>
<rect width="2" height="2" transform="matrix(-1 0 0 1 42 16)" fill="#FC9D50"/>
<rect width="2" height="2" transform="matrix(-1 0 0 1 44 16)" fill="#DA7B60"/>
<rect width="2" height="2" transform="matrix(-1 0 0 1 46 16)" fill="#DA7B60"/>
<rect width="2" height="2" transform="matrix(-1 0 0 1 46 36)" fill="#B50929"/>
<rect width="2" height="2" transform="matrix(-1 0 0 1 48 34)" fill="#B50929"/>
<rect width="2" height="2" transform="matrix(-1 0 0 1 26 18)" fill="#FFDFA5"/>
<rect width="2" height="2" transform="matrix(-1 0 0 1 22 18)" fill="#FC9D50"/>
<rect width="2" height="2" transform="matrix(-1 0 0 1 42 18)" fill="#FC9D50"/>
<rect width="2" height="2" transform="matrix(-1 0 0 1 44 18)" fill="#DA7B60"/>
<rect width="2" height="2" transform="matrix(-1 0 0 1 46 18)" fill="#DA7B60"/>
<rect width="2" height="2" transform="matrix(-1 0 0 1 46 38)" fill="#FC9D50"/>
<rect width="2" height="2" transform="matrix(-1 0 0 1 26 20)" fill="#DA7B60"/>
<rect width="2" height="2" transform="matrix(-1 0 0 1 22 20)" fill="#FC9D50"/>
<rect width="2" height="2" transform="matrix(-1 0 0 1 42 20)" fill="#DA7B60"/>
<rect width="2" height="2" transform="matrix(-1 0 0 1 44 20)" fill="#DA7B60"/>
<rect width="2" height="2" transform="matrix(-1 0 0 1 44 40)" fill="#FC9D50"/>
<rect width="2" height="2" transform="matrix(-1 0 0 1 42 40)" fill="#DA7B60"/>
<rect width="2" height="2" transform="matrix(-1 0 0 1 24 42)" fill="#DA7B60"/>
<rect width="2" height="2" transform="matrix(-1 0 0 1 26 42)" fill="#DA7B60"/>
<rect width="2" height="2" transform="matrix(-1 0 0 1 28 42)" fill="#DA7B60"/>
<rect width="2" height="2" transform="matrix(-1 0 0 1 30 42)" fill="#DA7B60"/>
<rect width="2" height="2" transform="matrix(-1 0 0 1 32 42)" fill="#DA7B60"/>
<rect width="2" height="2" transform="matrix(-1 0 0 1 34 42)" fill="#DA7B60"/>
<rect width="2" height="2" transform="matrix(-1 0 0 1 36 42)" fill="#DA7B60"/>
<rect width="2" height="2" transform="matrix(-1 0 0 1 38 42)" fill="#DA7B60"/>
<rect width="2" height="2" transform="matrix(-1 0 0 1 26 22)" fill="#FC9D50"/>
<rect width="2" height="2" transform="matrix(-1 0 0 1 22 22)" fill="#FC9D50"/>
<rect width="2" height="2" transform="matrix(-1 0 0 1 22 42)" fill="#FC9D50"/>
<rect width="2" height="2" transform="matrix(-1 0 0 1 42 22)" fill="#DA7B60"/>
<rect width="2" height="2" transform="matrix(-1 0 0 1 42 42)" fill="#FC9D50"/>
<rect width="2" height="2" transform="matrix(-1 0 0 1 26 24)" fill="#DA7B60"/>
<rect width="2" height="2" transform="matrix(-1 0 0 1 26 44)" fill="#FC9D50"/>
<rect x="34" y="4" width="2" height="2" fill="black"/>
<rect x="34" y="6" width="2" height="2" fill="#FC9D50"/>
<rect x="34" y="8" width="2" height="2" fill="#FC9D50"/>
<rect x="34" y="10" width="2" height="2" fill="#FC9D50"/>
<rect x="34" y="12" width="2" height="2" fill="#FC9D50"/>
<rect x="34" y="14" width="2" height="2" fill="#FFDFA5"/>
<rect x="34" y="16" width="2" height="2" fill="#DA7B60"/>
<rect x="34" y="18" width="2" height="2" fill="#FC9D50"/>
<rect x="34" y="20" width="2" height="2" fill="#FC9D50"/>
<rect x="34" y="22" width="2" height="2" fill="#DA7B60"/>
<rect x="34" y="24" width="2" height="2" fill="#DA7B60"/>
<rect x="34" y="44" width="2" height="2" fill="#FC9D50"/>
<rect width="2" height="2" transform="matrix(-1 0 0 1 24 4)" fill="black"/>
<rect width="2" height="2" transform="matrix(-1 0 0 1 24 6)" fill="#FC9D50"/>
<rect width="2" height="2" transform="matrix(-1 0 0 1 24 8)" fill="#FFDFA5"/>
<rect width="2" height="2" transform="matrix(-1 0 0 1 20 8)" fill="#FC9D50"/>
<rect width="2" height="2" transform="matrix(-1 0 0 1 40 8)" fill="#FC9D50"/>
<rect width="2" height="2" transform="matrix(-1 0 0 1 24 10)" fill="#DA7B60"/>
<rect width="2" height="2" transform="matrix(-1 0 0 1 20 10)" fill="#FC9D50"/>
<rect width="2" height="2" transform="matrix(-1 0 0 1 18 10)" fill="#FC9D50"/>
<rect width="2" height="2" transform="matrix(-1 0 0 1 40 10)" fill="#FC9D50"/>
<rect width="2" height="2" transform="matrix(-1 0 0 1 24 12)" fill="#FC9D50"/>
<rect width="2" height="2" transform="matrix(-1 0 0 1 20 12)" fill="#FC9D50"/>
<rect width="2" height="2" transform="matrix(-1 0 0 1 18 12)" fill="#FC9D50"/>
<rect width="2" height="2" transform="matrix(-1 0 0 1 16 12)" fill="#FC9D50"/>
<rect width="2" height="2" transform="matrix(-1 0 0 1 40 12)" fill="#FFDFA5"/>
<rect width="2" height="2" transform="matrix(-1 0 0 1 24 14)" fill="#FC9D50"/>
<rect width="2" height="2" transform="matrix(-1 0 0 1 20 14)" fill="#FFDFA5"/>
<rect width="2" height="2" transform="matrix(-1 0 0 1 18 14)" fill="#FC9D50"/>
<rect width="2" height="2" transform="matrix(-1 0 0 1 16 14)" fill="#FC9D50"/>
<rect width="2" height="2" transform="matrix(-1 0 0 1 40 14)" fill="#DA7B60"/>
<rect width="2" height="2" transform="matrix(-1 0 0 1 24 16)" fill="#FC9D50"/>
<rect width="2" height="2" transform="matrix(-1 0 0 1 20 16)" fill="#DA7B60"/>
<rect width="2" height="2" transform="matrix(-1 0 0 1 18 16)" fill="#FC9D50"/>
<rect width="2" height="2" transform="matrix(-1 0 0 1 16 16)" fill="#FC9D50"/>
<rect width="2" height="2" transform="matrix(-1 0 0 1 16 36)" fill="#FC9D50"/>
<rect width="2" height="2" transform="matrix(-1 0 0 1 40 16)" fill="#FC9D50"/>
<rect width="2" height="2" transform="matrix(-1 0 0 1 24 18)" fill="#FC9D50"/>
<rect width="2" height="2" transform="matrix(-1 0 0 1 20 18)" fill="#FC9D50"/>
<rect width="2" height="2" transform="matrix(-1 0 0 1 18 18)" fill="#FC9D50"/>
<rect width="2" height="2" transform="matrix(-1 0 0 1 16 18)" fill="#FC9D50"/>
<rect width="2" height="2" transform="matrix(-1 0 0 1 16 38)" fill="#FC9D50"/>
<rect width="2" height="2" transform="matrix(-1 0 0 1 40 18)" fill="#FC9D50"/>
<rect width="2" height="2" transform="matrix(-1 0 0 1 24 20)" fill="#FC9D50"/>
<rect width="2" height="2" transform="matrix(-1 0 0 1 20 20)" fill="#FC9D50"/>
<rect width="2" height="2" transform="matrix(-1 0 0 1 18 20)" fill="#DA7B60"/>
<rect width="2" height="2" transform="matrix(-1 0 0 1 18 40)" fill="#FC9D50"/>
<rect width="2" height="2" transform="matrix(-1 0 0 1 20 40)" fill="#DA7B60"/>
<rect width="2" height="2" transform="matrix(-1 0 0 1 40 20)" fill="#FC9D50"/>
<rect width="2" height="2" transform="matrix(-1 0 0 1 24 22)" fill="#FC9D50"/>
<rect width="2" height="2" transform="matrix(-1 0 0 1 20 22)" fill="#DA7B60"/>
<rect width="2" height="2" transform="matrix(-1 0 0 1 20 42)" fill="#FC9D50"/>
<rect width="2" height="2" transform="matrix(-1 0 0 1 40 22)" fill="#DA7B60"/>
<rect width="2" height="2" transform="matrix(-1 0 0 1 40 42)" fill="#FC9D50"/>
<rect width="2" height="2" transform="matrix(-1 0 0 1 24 24)" fill="#DA7B60"/>
<rect width="2" height="2" transform="matrix(-1 0 0 1 24 44)" fill="#FC9D50"/>
<rect x="36" y="4" width="2" height="2" fill="black"/>
<rect x="36" y="6" width="2" height="2" fill="#FC9D50"/>
<rect x="36" y="8" width="2" height="2" fill="#FC9D50"/>
<rect x="36" y="10" width="2" height="2" fill="#FC9D50"/>
<rect x="36" y="12" width="2" height="2" fill="#FC9D50"/>
<rect x="36" y="14" width="2" height="2" fill="#FC9D50"/>
<rect x="36" y="16" width="2" height="2" fill="#FC9D50"/>
<rect x="36" y="18" width="2" height="2" fill="#FC9D50"/>
<rect x="36" y="20" width="2" height="2" fill="#FC9D50"/>
<rect x="36" y="22" width="2" height="2" fill="#DA7B60"/>
<rect x="36" y="24" width="2" height="2" fill="#DA7B60"/>
<rect x="36" y="44" width="2" height="2" fill="#FC9D50"/>
<rect width="2" height="2" transform="matrix(-1 0 0 1 22 6)" fill="black"/>
<rect x="38" y="6" width="2" height="2" fill="black"/>
<rect width="2" height="2" transform="matrix(-1 0 0 1 20 6)" fill="black"/>
<rect x="40" y="6" width="2" height="2" fill="black"/>
<rect width="2" height="2" transform="matrix(-1 0 0 1 18 8)" fill="black"/>
<rect x="42" y="8" width="2" height="2" fill="black"/>
<rect width="2" height="2" transform="matrix(-1 0 0 1 16 10)" fill="black"/>
<rect x="44" y="10" width="2" height="2" fill="black"/>
<rect width="2" height="2" transform="matrix(-1 0 0 1 14 12)" fill="black"/>
<rect x="46" y="12" width="2" height="2" fill="black"/>
<rect width="2" height="2" transform="matrix(-1 0 0 1 14 14)" fill="black"/>
<rect x="46" y="14" width="2" height="2" fill="black"/>
<rect width="2" height="2" transform="matrix(-1 0 0 1 14 16)" fill="black"/>
<rect width="2" height="2" transform="matrix(-1 0 0 1 14 36)" fill="black"/>
<rect x="46" y="16" width="2" height="2" fill="black"/>
<rect x="46" y="36" width="2" height="2" fill="black"/>
<rect width="2" height="2" transform="matrix(-1 0 0 1 14 16)" fill="black"/>
<rect width="2" height="2" transform="matrix(-1 0 0 1 14 36)" fill="#FC9D50"/>
<rect x="46" y="16" width="2" height="2" fill="black"/>
<rect x="46" y="36" width="2" height="2" fill="#FC9D50"/>
<rect width="2" height="2" transform="matrix(-1 0 0 1 14 18)" fill="black"/>
<rect width="2" height="2" transform="matrix(-1 0 0 1 12 20)" fill="black"/>
<rect width="2" height="2" transform="matrix(-1 0 0 1 10 22)" fill="black"/>
<rect width="2" height="2" transform="matrix(-1 0 0 1 12 24)" fill="black"/>
<rect width="2" height="2" transform="matrix(-1 0 0 1 10 26)" fill="black"/>
<rect width="2" height="2" transform="matrix(-1 0 0 1 10 28)" fill="#D1D1D1"/>
<rect width="2" height="2" transform="matrix(-1 0 0 1 10 30)" fill="#D1D1D1"/>
<rect width="2" height="2" transform="matrix(-1 0 0 1 12 32)" fill="#FC9D50"/>
<rect width="2" height="2" transform="matrix(-1 0 0 1 12 34)" fill="#FC9D50"/>
<rect width="2" height="2" transform="matrix(-1 0 0 1 14 20)" fill="#A1D000"/>
<rect width="2" height="2" transform="matrix(-1 0 0 1 12 22)" fill="#5AB400"/>
<rect width="2" height="2" transform="matrix(-1 0 0 1 14 22)" fill="#5AB400"/>
<rect width="2" height="2" transform="matrix(-1 0 0 1 14 24)" fill="#A1D000"/>
<rect width="2" height="2" transform="matrix(-1 0 0 1 16 26)" fill="#A1D000"/>
<rect width="2" height="2" transform="matrix(-1 0 0 1 14 26)" fill="#FF9A00"/>
<rect width="2" height="2" transform="matrix(-1 0 0 1 14 28)" fill="#773109"/>
<rect width="2" height="2" transform="matrix(-1 0 0 1 16 30)" fill="#773109"/>
<rect width="2" height="2" transform="matrix(-1 0 0 1 14 30)" fill="#773109"/>
<rect width="2" height="2" transform="matrix(-1 0 0 1 12 30)" fill="#5C2311"/>
<rect width="2" height="2" transform="matrix(-1 0 0 1 12 28)" fill="#5C2311"/>
<rect width="2" height="2" transform="matrix(-1 0 0 1 12 26)" fill="#5C2311"/>
<rect width="2" height="2" transform="matrix(-1 0 0 1 14 32)" fill="#5C2311"/>
<rect width="2" height="2" transform="matrix(-1 0 0 1 14 34)" fill="#B50929"/>
<rect width="2" height="2" transform="matrix(-1 0 0 1 16 36)" fill="#B50929"/>
<rect width="2" height="2" transform="matrix(-1 0 0 1 18 36)" fill="#B50929"/>
<rect width="2" height="2" transform="matrix(-1 0 0 1 18 38)" fill="#B50929"/>
<rect width="2" height="2" transform="matrix(-1 0 0 1 20 38)" fill="#B50929"/>
<rect width="2" height="2" transform="matrix(-1 0 0 1 22 40)" fill="#B50929"/>
<rect width="2" height="2" transform="matrix(-1 0 0 1 26 40)" fill="#B50929"/>
<rect width="2" height="2" transform="matrix(-1 0 0 1 30 40)" fill="#B50929"/>
<rect width="2" height="2" transform="matrix(-1 0 0 1 34 40)" fill="#B50929"/>
<rect width="2" height="2" transform="matrix(-1 0 0 1 38 40)" fill="#B50929"/>
<rect width="2" height="2" transform="matrix(-1 0 0 1 22 38)" fill="#B50929"/>
<rect width="2" height="2" transform="matrix(-1 0 0 1 24 40)" fill="#B50929"/>
<rect width="2" height="2" transform="matrix(-1 0 0 1 28 40)" fill="#B50929"/>
<rect width="2" height="2" transform="matrix(-1 0 0 1 32 40)" fill="#B50929"/>
<rect width="2" height="2" transform="matrix(-1 0 0 1 36 40)" fill="#B50929"/>
<rect width="2" height="2" transform="matrix(-1 0 0 1 40 40)" fill="#B50929"/>
<rect width="2" height="2" transform="matrix(-1 0 0 1 40 38)" fill="#B50929"/>
<rect width="2" height="2" transform="matrix(-1 0 0 1 42 38)" fill="#B50929"/>
<rect width="2" height="2" transform="matrix(-1 0 0 1 44 38)" fill="#B50929"/>
<rect width="2" height="2" transform="matrix(-1 0 0 1 44 36)" fill="#B50929"/>
<rect width="2" height="2" transform="matrix(-1 0 0 1 16 32)" fill="#773109"/>
<rect width="2" height="2" transform="matrix(-1 0 0 1 16 34)" fill="#5C2311"/>
<rect width="2" height="2" transform="matrix(-1 0 0 1 18 34)" fill="#773109"/>
<rect width="2" height="2" transform="matrix(-1 0 0 1 20 36)" fill="#5C2311"/>
<rect width="2" height="2" transform="matrix(-1 0 0 1 22 34)" fill="#773109"/>
<rect width="2" height="2" transform="matrix(-1 0 0 1 22 36)" fill="#773109"/>
<rect width="2" height="2" transform="matrix(-1 0 0 1 30 32)" fill="#5C2311"/>
<rect width="2" height="2" transform="matrix(-1 0 0 1 30 34)" fill="#773109"/>
<rect width="2" height="2" transform="matrix(-1 0 0 1 30 36)" fill="#773109"/>
<rect width="2" height="2" transform="matrix(-1 0 0 1 30 38)" fill="#5C2311"/>
<rect width="2" height="2" transform="matrix(-1 0 0 1 38 34)" fill="#773109"/>
<rect width="2" height="2" transform="matrix(-1 0 0 1 38 36)" fill="#773109"/>
<rect width="2" height="2" transform="matrix(-1 0 0 1 38 38)" fill="#5C2311"/>
<rect width="2" height="2" transform="matrix(-1 0 0 1 38 32)" fill="#FF9A00"/>
<rect width="2" height="2" transform="matrix(-1 0 0 1 24 34)" fill="#773109"/>
<rect width="2" height="2" transform="matrix(-1 0 0 1 24 36)" fill="#773109"/>
<rect width="2" height="2" transform="matrix(-1 0 0 1 24 38)" fill="#5C2311"/>
<rect width="2" height="2" transform="matrix(-1 0 0 1 32 32)" fill="#FF9A00"/>
<rect width="2" height="2" transform="matrix(-1 0 0 1 32 34)" fill="#773109"/>
<rect width="2" height="2" transform="matrix(-1 0 0 1 32 36)" fill="#773109"/>
<rect width="2" height="2" transform="matrix(-1 0 0 1 32 38)" fill="#5C2311"/>
<rect width="2" height="2" transform="matrix(-1 0 0 1 40 34)" fill="#773109"/>
<rect width="2" height="2" transform="matrix(-1 0 0 1 40 36)" fill="#5C2311"/>
<rect width="2" height="2" transform="matrix(-1 0 0 1 40 32)" fill="#FF9A00"/>
<rect width="2" height="2" transform="matrix(-1 0 0 1 26 34)" fill="#5C2311"/>
<rect width="2" height="2" transform="matrix(-1 0 0 1 26 36)" fill="#773109"/>
<rect width="2" height="2" transform="matrix(-1 0 0 1 26 38)" fill="#5C2311"/>
<rect width="2" height="2" transform="matrix(-1 0 0 1 34 32)" fill="#FFCC00"/>
<rect width="2" height="2" transform="matrix(-1 0 0 1 34 34)" fill="#773109"/>
<rect width="2" height="2" transform="matrix(-1 0 0 1 34 36)" fill="#5C2311"/>
<rect width="2" height="2" transform="matrix(-1 0 0 1 34 38)" fill="#5C2311"/>
<rect width="2" height="2" transform="matrix(-1 0 0 1 42 34)" fill="#773109"/>
<rect width="2" height="2" transform="matrix(-1 0 0 1 42 36)" fill="#5C2311"/>
<rect width="2" height="2" transform="matrix(-1 0 0 1 42 32)" fill="#773109"/>
<rect width="2" height="2" transform="matrix(-1 0 0 1 28 34)" fill="#773109"/>
<rect width="2" height="2" transform="matrix(-1 0 0 1 28 36)" fill="#773109"/>
<rect width="2" height="2" transform="matrix(-1 0 0 1 28 38)" fill="#5C2311"/>
<rect width="2" height="2" transform="matrix(-1 0 0 1 36 32)" fill="#773109"/>
<rect width="2" height="2" transform="matrix(-1 0 0 1 36 34)" fill="#5C2311"/>
<rect width="2" height="2" transform="matrix(-1 0 0 1 36 36)" fill="#773109"/>
<rect width="2" height="2" transform="matrix(-1 0 0 1 36 38)" fill="#5C2311"/>
<rect width="2" height="2" transform="matrix(-1 0 0 1 44 34)" fill="#5C2311"/>
<rect width="2" height="2" transform="matrix(-1 0 0 1 46 34)" fill="#5C2311"/>
<rect width="2" height="2" transform="matrix(-1 0 0 1 44 32)" fill="#773109"/>
<rect width="2" height="2" transform="matrix(-1 0 0 1 44 30)" fill="#5C2311"/>
<rect width="2" height="2" transform="matrix(-1 0 0 1 46 30)" fill="#FF9A00"/>
<rect width="2" height="2" transform="matrix(-1 0 0 1 46 32)" fill="#773109"/>
<rect width="2" height="2" transform="matrix(-1 0 0 1 48 32)" fill="#5C2311"/>
<rect width="2" height="2" transform="matrix(-1 0 0 1 50 30)" fill="#5C2311"/>
<rect width="2" height="2" transform="matrix(-1 0 0 1 48 30)" fill="#773109"/>
<rect width="2" height="2" transform="matrix(-1 0 0 1 50 28)" fill="#5C2311"/>
<rect width="2" height="2" transform="matrix(-1 0 0 1 48 28)" fill="#FFCC00"/>
<rect width="2" height="2" transform="matrix(-1 0 0 1 50 26)" fill="#5C2311"/>
<rect width="2" height="2" transform="matrix(-1 0 0 1 16 28)" fill="#FF9A00"/>
<rect width="2" height="2" transform="matrix(-1 0 0 1 18 32)" fill="#FF9A00"/>
<rect width="2" height="2" transform="matrix(-1 0 0 1 18 30)" fill="#FF9A00"/>
<rect width="2" height="2" transform="matrix(-1 0 0 1 20 32)" fill="#FF9A00"/>
<rect width="2" height="2" transform="matrix(-1 0 0 1 20 34)" fill="#FFCC00"/>
<rect width="2" height="2" transform="matrix(-1 0 0 1 22 32)" fill="#FF9A00"/>
<rect width="2" height="2" transform="matrix(-1 0 0 1 24 32)" fill="#FF9A00"/>
<rect width="2" height="2" transform="matrix(-1 0 0 1 26 32)" fill="#FFCC00"/>
<rect width="2" height="2" transform="matrix(-1 0 0 1 28 32)" fill="#FFCC00"/>
<rect width="2" height="2" transform="matrix(-1 0 0 1 24 30)" fill="#FF9A00"/>
<rect width="2" height="2" transform="matrix(-1 0 0 1 30 30)" fill="#FF9A00"/>
<rect width="2" height="2" transform="matrix(-1 0 0 1 38 30)" fill="#FFCC00"/>
<rect width="2" height="2" transform="matrix(-1 0 0 1 42 30)" fill="#FFCC00"/>
<rect width="2" height="2" transform="matrix(-1 0 0 1 44 28)" fill="#FFCC00"/>
<rect width="2" height="2" transform="matrix(-1 0 0 1 18 28)" fill="#A1D000"/>
<rect width="2" height="2" transform="matrix(-1 0 0 1 20 30)" fill="#5AB400"/>
<rect width="2" height="2" transform="matrix(-1 0 0 1 26 28)" fill="#A1D000"/>
<rect width="2" height="2" transform="matrix(-1 0 0 1 26 30)" fill="#5AB400"/>
<rect width="2" height="2" transform="matrix(-1 0 0 1 28 30)" fill="#A1D000"/>
<rect width="2" height="2" transform="matrix(-1 0 0 1 32 30)" fill="#A1D000"/>
<rect width="2" height="2" transform="matrix(-1 0 0 1 38 28)" fill="#A1D000"/>
<rect width="2" height="2" transform="matrix(-1 0 0 1 42 26)" fill="#5AB400"/>
<rect width="2" height="2" transform="matrix(-1 0 0 1 44 24)" fill="#A1D000"/>
<rect width="2" height="2" transform="matrix(-1 0 0 1 46 22)" fill="#A1D000"/>
<rect width="2" height="2" transform="matrix(-1 0 0 1 16 22)" fill="#A1D000"/>
<rect width="2" height="2" transform="matrix(-1 0 0 1 16 24)" fill="#5AB400"/>
<rect width="2" height="2" transform="matrix(-1 0 0 1 18 26)" fill="#A1D000"/>
<rect width="2" height="2" transform="matrix(-1 0 0 1 20 28)" fill="#A1D000"/>
<rect width="2" height="2" transform="matrix(-1 0 0 1 22 30)" fill="#5AB400"/>
<rect width="2" height="2" transform="matrix(-1 0 0 1 28 28)" fill="#A1D000"/>
<rect width="2" height="2" transform="matrix(-1 0 0 1 34 30)" fill="#A1D000"/>
<rect width="2" height="2" transform="matrix(-1 0 0 1 40 28)" fill="#A1D000"/>
<rect width="2" height="2" transform="matrix(-1 0 0 1 40 30)" fill="#5AB400"/>
<rect width="2" height="2" transform="matrix(-1 0 0 1 40 26)" fill="#5AB400"/>
<rect width="2" height="2" transform="matrix(-1 0 0 1 44 26)" fill="#A1D000"/>
<rect width="2" height="2" transform="matrix(-1 0 0 1 46 24)" fill="#A1D000"/>
<rect width="2" height="2" transform="matrix(-1 0 0 1 48 22)" fill="#5AB400"/>
<rect width="2" height="2" transform="matrix(-1 0 0 1 48 20)" fill="#5AB400"/>
<rect width="2" height="2" transform="matrix(-1 0 0 1 18 24)" fill="#A1D000"/>
<rect width="2" height="2" transform="matrix(-1 0 0 1 20 26)" fill="#5AB400"/>
<rect width="2" height="2" transform="matrix(-1 0 0 1 22 26)" fill="#A1D000"/>
<rect width="2" height="2" transform="matrix(-1 0 0 1 24 28)" fill="#A1D000"/>
<rect width="2" height="2" transform="matrix(-1 0 0 1 22 28)" fill="#A1D000"/>
<rect width="2" height="2" transform="matrix(-1 0 0 1 30 28)" fill="#A1D000"/>
<rect width="2" height="2" transform="matrix(-1 0 0 1 32 28)" fill="#A1D000"/>
<rect width="2" height="2" transform="matrix(-1 0 0 1 34 28)" fill="#A1D000"/>
<rect width="2" height="2" transform="matrix(-1 0 0 1 36 28)" fill="#A1D000"/>
<rect width="2" height="2" transform="matrix(-1 0 0 1 36 30)" fill="#5AB400"/>
<rect width="2" height="2" transform="matrix(-1 0 0 1 42 28)" fill="#A1D000"/>
<rect width="2" height="2" transform="matrix(-1 0 0 1 46 26)" fill="#5AB400"/>
<rect width="2" height="2" transform="matrix(-1 0 0 1 48 26)" fill="#A1D000"/>
<rect width="2" height="2" transform="matrix(-1 0 0 1 46 28)" fill="#5AB400"/>
<rect width="2" height="2" transform="matrix(-1 0 0 1 48 24)" fill="#5AB400"/>
<rect width="2" height="2" transform="matrix(-1 0 0 1 50 22)" fill="#5AB400"/>
<rect width="2" height="2" transform="matrix(-1 0 0 1 14 38)" fill="#FC9D50"/>
<rect x="46" y="18" width="2" height="2" fill="black"/>
<rect x="48" y="20" width="2" height="2" fill="black"/>
<rect x="50" y="22" width="2" height="2" fill="black"/>
<rect x="48" y="24" width="2" height="2" fill="black"/>
<rect x="50" y="26" width="2" height="2" fill="black"/>
<rect x="50" y="28" width="2" height="2" fill="#D1D1D1"/>
<rect x="50" y="30" width="2" height="2" fill="#D1D1D1"/>
<rect x="48" y="32" width="2" height="2" fill="#FC9D50"/>
<rect x="48" y="34" width="2" height="2" fill="#FC9D50"/>
<rect x="46" y="38" width="2" height="2" fill="#FC9D50"/>
<rect width="2" height="2" transform="matrix(-1 0 0 1 16 20)" fill="#DA7B60"/>
<rect width="2" height="2" transform="matrix(-1 0 0 1 16 40)" fill="#FC9D50"/>
<rect x="44" y="20" width="2" height="2" fill="#DA7B60"/>
<rect x="44" y="40" width="2" height="2" fill="#FC9D50"/>
<rect width="2" height="2" transform="matrix(-1 0 0 1 18 22)" fill="#DA7B60"/>
<rect width="2" height="2" transform="matrix(-1 0 0 1 18 42)" fill="#FC9D50"/>
<rect x="42" y="22" width="2" height="2" fill="#DA7B60"/>
<rect x="42" y="42" width="2" height="2" fill="#FC9D50"/>
<rect width="2" height="2" transform="matrix(-1 0 0 1 20 24)" fill="#DA7B60"/>
<rect width="2" height="2" transform="matrix(-1 0 0 1 20 44)" fill="#FC9D50"/>
<rect x="40" y="24" width="2" height="2" fill="#DA7B60"/>
<rect x="40" y="44" width="2" height="2" fill="#FC9D50"/>
<rect width="2" height="2" transform="matrix(-1 0 0 1 22 24)" fill="#DA7B60"/>
<rect width="2" height="2" transform="matrix(-1 0 0 1 22 44)" fill="#FC9D50"/>
<rect x="38" y="24" width="2" height="2" fill="#DA7B60"/>
<rect x="38" y="44" width="2" height="2" fill="#FC9D50"/>
<rect width="2" height="2" transform="matrix(-1 0 0 1 24 26)" fill="#DA7B60"/>
<rect width="2" height="2" transform="matrix(-1 0 0 1 24 46)" fill="#D1D1D1"/>
<rect x="36" y="26" width="2" height="2" fill="#DA7B60"/>
<rect x="36" y="46" width="2" height="2" fill="#D1D1D1"/>
<rect width="2" height="2" transform="matrix(-1 0 0 1 26 26)" fill="#DA7B60"/>
<rect width="2" height="2" transform="matrix(-1 0 0 1 26 46)" fill="#D1D1D1"/>
<rect x="34" y="26" width="2" height="2" fill="#DA7B60"/>
<rect x="34" y="46" width="2" height="2" fill="#D1D1D1"/>
<rect width="2" height="2" transform="matrix(-1 0 0 1 28 26)" fill="#DA7B60"/>
<rect width="2" height="2" transform="matrix(-1 0 0 1 28 46)" fill="#D1D1D1"/>
<rect x="32" y="26" width="2" height="2" fill="#DA7B60"/>
<rect x="32" y="46" width="2" height="2" fill="#D1D1D1"/>
<rect width="2" height="2" transform="matrix(-1 0 0 1 30 26)" fill="#DA7B60"/>
<rect width="2" height="2" transform="matrix(-1 0 0 1 30 46)" fill="#D1D1D1"/>
<rect x="30" y="26" width="2" height="2" fill="#DA7B60"/>
<rect x="30" y="46" width="2" height="2" fill="#D1D1D1"/>
<rect x="4" y="28" width="2" height="2" fill="#FFCBB8"/>
<rect x="6" y="26" width="2" height="2" fill="#FFCBB8"/>
<rect x="6" y="24" width="2" height="2" fill="#FFCBB8"/>
<rect x="4" y="24" width="2" height="2" fill="#FF7002"/>
<rect x="6" y="22" width="2" height="2" fill="#FFCBB8"/>
<rect x="4" y="22" width="2" height="2" fill="#FF7002"/>
<rect x="6" y="20" width="2" height="2" fill="#FFCBB8"/>
<rect x="4" y="20" width="2" height="2" fill="#FF7002"/>
<rect x="8" y="18" width="2" height="2" fill="#FFCBB8"/>
<rect x="6" y="18" width="2" height="2" fill="#FF7002"/>
<rect x="8" y="20" width="2" height="2" fill="#FFCBB8"/>
<rect x="10" y="18" width="2" height="2" fill="#FFCBB8"/>
<rect x="10" y="16" width="2" height="2" fill="#FFCBB8"/>
<rect x="8" y="16" width="2" height="2" fill="#FF7002"/>
<rect x="10" y="14" width="2" height="2" fill="#FFCBB8"/>
<rect x="8" y="14" width="2" height="2" fill="#FF7002"/>
<rect x="10" y="12" width="2" height="2" fill="#FFCBB8"/>
<rect x="8" y="12" width="2" height="2" fill="#FF7002"/>
<rect x="10" y="10" width="2" height="2" fill="#FFCBB8"/>
<rect x="8" y="10" width="2" height="2" fill="#FF7002"/>
<rect x="10" y="8" width="2" height="2" fill="#FF7002"/>
<rect x="12" y="8" width="2" height="2" fill="#FFCBB8"/>
<rect x="12" y="6" width="2" height="2" fill="#FF7002"/>
<rect x="14" y="6" width="2" height="2" fill="#FFCBB8"/>
<rect x="14" y="4" width="2" height="2" fill="#FF7002"/>
<rect x="16" y="4" width="2" height="2" fill="#FFCBB8"/>
<rect x="16" y="2" width="2" height="2" fill="#FF7002"/>
<rect x="12" y="10" width="2" height="2" fill="#FFCBB8"/>
<rect x="14" y="8" width="2" height="2" fill="#FFCBB8"/>
<rect x="16" y="6" width="2" height="2" fill="#FFCBB8"/>
<rect x="18" y="4" width="2" height="2" fill="#FFCBB8"/>
<rect x="18" y="2" width="2" height="2" fill="#FF7002"/>
<rect x="20" y="2" width="2" height="2" fill="#FFCBB8"/>
<rect x="20" width="2" height="2" fill="#FF7002"/>
<rect x="24" y="2" width="2" height="2" fill="#FFCBB8"/>
<rect x="24" width="2" height="2" fill="#FF7002"/>
<rect x="28" y="2" width="2" height="2" fill="#FFCBB8"/>
<rect x="28" width="2" height="2" fill="#FF7002"/>
<rect x="32" y="2" width="2" height="2" fill="#FFCBB8"/>
<rect x="32" width="2" height="2" fill="#FF7002"/>
<rect x="36" y="2" width="2" height="2" fill="#FFCBB8"/>
<rect x="36" width="2" height="2" fill="#FF7002"/>
<rect x="38" y="4" width="2" height="2" fill="#FFCBB8"/>
<rect x="20" y="4" width="2" height="2" fill="#FFCBB8"/>
<rect x="22" y="2" width="2" height="2" fill="#FFCBB8"/>
<rect x="22" width="2" height="2" fill="#FF7002"/>
<rect x="26" y="2" width="2" height="2" fill="#FFCBB8"/>
<rect x="26" width="2" height="2" fill="#FF7002"/>
<rect x="30" y="2" width="2" height="2" fill="#FFCBB8"/>
<rect x="30" width="2" height="2" fill="#FF7002"/>
<rect x="34" y="2" width="2" height="2" fill="#FFCBB8"/>
<rect x="34" width="2" height="2" fill="#FF7002"/>
<rect x="38" y="2" width="2" height="2" fill="#FFCBB8"/>
<rect x="38" width="2" height="2" fill="#FF7002"/>
<rect x="40" y="4" width="2" height="2" fill="#FFCBB8"/>
<rect x="40" y="2" width="2" height="2" fill="#FF7002"/>
<rect x="42" y="6" width="2" height="2" fill="#FFCBB8"/>
<rect x="44" y="8" width="2" height="2" fill="#FFCBB8"/>
<rect x="46" y="10" width="2" height="2" fill="#FFCBB8"/>
<rect x="42" y="4" width="2" height="2" fill="#FFCBB8"/>
<rect x="42" y="2" width="2" height="2" fill="#FF7002"/>
<rect x="44" y="6" width="2" height="2" fill="#FFCBB8"/>
<rect x="44" y="4" width="2" height="2" fill="#FF7002"/>
<rect x="46" y="8" width="2" height="2" fill="#FFCBB8"/>
<rect x="46" y="6" width="2" height="2" fill="#FF7002"/>
<rect x="48" y="10" width="2" height="2" fill="#FFCBB8"/>
<rect x="50" y="10" width="2" height="2" fill="#FF7002"/>
<rect x="48" y="8" width="2" height="2" fill="#FF7002"/>
<rect x="48" y="12" width="2" height="2" fill="#FFCBB8"/>
<rect x="50" y="12" width="2" height="2" fill="#FF7002"/>
<rect x="48" y="14" width="2" height="2" fill="#FFCBB8"/>
<rect x="50" y="14" width="2" height="2" fill="#FF7002"/>
<rect x="48" y="16" width="2" height="2" fill="#FFCBB8"/>
<rect x="50" y="16" width="2" height="2" fill="#FF7002"/>
<rect x="48" y="18" width="2" height="2" fill="#FFCBB8"/>
<rect x="50" y="18" width="2" height="2" fill="#FFCBB8"/>
<rect x="52" y="18" width="2" height="2" fill="#FF7002"/>
<rect x="50" y="20" width="2" height="2" fill="#FFCBB8"/>
<rect x="52" y="20" width="2" height="2" fill="#FFCBB8"/>
<rect x="54" y="20" width="2" height="2" fill="#FF7002"/>
<rect x="52" y="22" width="2" height="2" fill="#FFCBB8"/>
<rect x="54" y="22" width="2" height="2" fill="#FF7002"/>
<rect x="52" y="24" width="2" height="2" fill="#FFCBB8"/>
<rect x="54" y="24" width="2" height="2" fill="#FF7002"/>
<rect x="50" y="24" width="2" height="2" fill="#FFCBB8"/>
<rect x="52" y="26" width="2" height="2" fill="#FFCBB8"/>
<rect x="54" y="26" width="2" height="2" fill="#FFCBB8"/>
<rect x="56" y="26" width="2" height="2" fill="#FF7002"/>
<rect x="54" y="28" width="2" height="2" fill="#FFCBB8"/>
<rect x="56" y="28" width="2" height="2" fill="#FFCBB8"/>
<rect x="58" y="28" width="2" height="2" fill="#FF7002"/>
<rect x="56" y="30" width="2" height="2" fill="#FFCBB8"/>
<rect x="58" y="30" width="2" height="2" fill="#FF7002"/>
<rect x="56" y="32" width="2" height="2" fill="#FFCBB8"/>
<rect x="58" y="32" width="2" height="2" fill="#FF7002"/>
<rect x="56" y="34" width="2" height="2" fill="#FFCBB8"/>
<rect x="58" y="34" width="2" height="2" fill="#FF7002"/>
<rect x="56" y="36" width="2" height="2" fill="#FFCBB8"/>
<rect x="58" y="36" width="2" height="2" fill="#FF7002"/>
<rect x="56" y="38" width="2" height="2" fill="#FFCBB8"/>
<rect x="58" y="38" width="2" height="2" fill="#FF7002"/>
<rect x="56" y="40" width="2" height="2" fill="#FFCBB8"/>
<rect x="58" y="40" width="2" height="2" fill="#FF7002"/>
<rect x="56" y="42" width="2" height="2" fill="#FFCBB8"/>
<rect x="58" y="42" width="2" height="2" fill="#FF7002"/>
<rect x="56" y="44" width="2" height="2" fill="#FFCBB8"/>
<rect x="58" y="44" width="2" height="2" fill="#FF7002"/>
<rect x="54" y="46" width="2" height="2" fill="#FFCBB8"/>
<rect x="56" y="46" width="2" height="2" fill="#FF7002"/>
<rect x="52" y="48" width="2" height="2" fill="#FFCBB8"/>
<rect x="54" y="48" width="2" height="2" fill="#FF7002"/>
<rect x="50" y="50" width="2" height="2" fill="#FFCBB8"/>
<rect x="52" y="50" width="2" height="2" fill="#FF7002"/>
<rect x="48" y="52" width="2" height="2" fill="#FFCBB8"/>
<rect x="50" y="52" width="2" height="2" fill="#FF7002"/>
<rect x="44" y="54" width="2" height="2" fill="#FFCBB8"/>
<rect x="44" y="56" width="2" height="2" fill="#FF7002"/>
<rect x="46" y="54" width="2" height="2" fill="#FF7002"/>
<rect x="48" y="54" width="2" height="2" fill="#FF7002"/>
<rect x="40" y="56" width="2" height="2" fill="#FFCBB8"/>
<rect x="40" y="58" width="2" height="2" fill="#FF7002"/>
<rect x="42" y="56" width="2" height="2" fill="#FF7002"/>
<rect x="34" y="56" width="2" height="2" fill="#FFCBB8"/>
<rect x="34" y="58" width="2" height="2" fill="#FF7002"/>
<rect x="28" y="56" width="2" height="2" fill="#FFCBB8"/>
<rect x="28" y="58" width="2" height="2" fill="#FF7002"/>
<rect x="22" y="56" width="2" height="2" fill="#FFCBB8"/>
<rect x="22" y="58" width="2" height="2" fill="#FF7002"/>
<rect x="18" y="54" width="2" height="2" fill="#FFCBB8"/>
<rect x="14" y="52" width="2" height="2" fill="#FFCBB8"/>
<rect x="54" y="44" width="2" height="2" fill="#FFCBB8"/>
<rect x="52" y="46" width="2" height="2" fill="#FFCBB8"/>
<rect x="50" y="48" width="2" height="2" fill="#FFCBB8"/>
<rect x="48" y="50" width="2" height="2" fill="#FFCBB8"/>
<rect x="46" y="52" width="2" height="2" fill="#FFCBB8"/>
<rect x="42" y="54" width="2" height="2" fill="#FFCBB8"/>
<rect x="38" y="56" width="2" height="2" fill="#FFCBB8"/>
<rect x="38" y="58" width="2" height="2" fill="#FF7002"/>
<rect x="32" y="56" width="2" height="2" fill="#FFCBB8"/>
<rect x="32" y="58" width="2" height="2" fill="#FF7002"/>
<rect x="26" y="56" width="2" height="2" fill="#FFCBB8"/>
<rect x="26" y="58" width="2" height="2" fill="#FF7002"/>
<rect x="20" y="56" width="2" height="2" fill="#FFCBB8"/>
<rect x="20" y="58" width="2" height="2" fill="#FF7002"/>
<rect x="16" y="54" width="2" height="2" fill="#FFCBB8"/>
<rect x="12" y="52" width="2" height="2" fill="#FFCBB8"/>
<rect x="44" y="52" width="2" height="2" fill="#FFCBB8"/>
<rect x="40" y="54" width="2" height="2" fill="#FFCBB8"/>
<rect x="36" y="56" width="2" height="2" fill="#FFCBB8"/>
<rect x="36" y="58" width="2" height="2" fill="#FF7002"/>
<rect x="30" y="56" width="2" height="2" fill="#FFCBB8"/>
<rect x="30" y="58" width="2" height="2" fill="#FF7002"/>
<rect x="24" y="56" width="2" height="2" fill="#FFCBB8"/>
<rect x="24" y="58" width="2" height="2" fill="#FF7002"/>
<rect x="18" y="56" width="2" height="2" fill="#FFCBB8"/>
<rect x="18" y="58" width="2" height="2" fill="#FF7002"/>
<rect x="16" y="56" width="2" height="2" fill="#FF7002"/>
<rect x="14" y="54" width="2" height="2" fill="#FFCBB8"/>
<rect x="14" y="56" width="2" height="2" fill="#FF7002"/>
<rect x="12" y="54" width="2" height="2" fill="#FF7002"/>
<rect x="10" y="52" width="2" height="2" fill="#FFCBB8"/>
<rect x="10" y="54" width="2" height="2" fill="#FF7002"/>
<rect x="8" y="52" width="2" height="2" fill="#FF7002"/>
<rect x="10" y="50" width="2" height="2" fill="#FFCBB8"/>
<rect x="8" y="48" width="2" height="2" fill="#FFCBB8"/>
<rect x="6" y="46" width="2" height="2" fill="#FFCBB8"/>
<rect x="4" y="44" width="2" height="2" fill="#FFCBB8"/>
<rect x="2" y="42" width="2" height="2" fill="#FFCBB8"/>
<rect y="42" width="2" height="2" fill="#FF7002"/>
<rect x="8" y="50" width="2" height="2" fill="#FFCBB8"/>
<rect x="6" y="50" width="2" height="2" fill="#FF7002"/>
<rect x="6" y="48" width="2" height="2" fill="#FFCBB8"/>
<rect x="4" y="48" width="2" height="2" fill="#FF7002"/>
<rect x="4" y="46" width="2" height="2" fill="#FFCBB8"/>
<rect x="2" y="46" width="2" height="2" fill="#FF7002"/>
<rect x="2" y="44" width="2" height="2" fill="#FFCBB8"/>
<rect y="44" width="2" height="2" fill="#FF7002"/>
<rect x="2" y="40" width="2" height="2" fill="#FFCBB8"/>
<rect y="40" width="2" height="2" fill="#FF7002"/>
<rect x="2" y="38" width="2" height="2" fill="#FFCBB8"/>
<rect y="38" width="2" height="2" fill="#FF7002"/>
<rect x="2" y="36" width="2" height="2" fill="#FFCBB8"/>
<rect y="36" width="2" height="2" fill="#FF7002"/>
<rect x="2" y="34" width="2" height="2" fill="#FFCBB8"/>
<rect y="34" width="2" height="2" fill="#FF7002"/>
<rect x="2" y="32" width="2" height="2" fill="#FFCBB8"/>
<rect y="32" width="2" height="2" fill="#FF7002"/>
<rect x="2" y="30" width="2" height="2" fill="#FFCBB8"/>
<rect y="30" width="2" height="2" fill="#FF7002"/>
<rect x="2" y="28" width="2" height="2" fill="#FFCBB8"/>
<rect y="28" width="2" height="2" fill="#FF7002"/>
<rect x="8" y="24" width="2" height="2" fill="#FFCBB8"/>
<rect x="4" y="26" width="2" height="2" fill="#FFCBB8"/>
<rect x="2" y="26" width="2" height="2" fill="#FF7002"/>
</g>
<defs>
<clipPath id="clip0_326_62735">
<rect width="60" height="60" fill="white"/>
</clipPath>
</defs>
</svg>
