<svg width="64" height="64" viewBox="0 0 64 64" fill="none" xmlns="http://www.w3.org/2000/svg">
<rect width="2.13333" height="2.13333" transform="matrix(-1 0 0 1 32 55.4667)" fill="black"/>
<rect x="32" y="55.4667" width="2.13334" height="2.13333" fill="black"/>
<rect width="2.13333" height="2.13333" transform="matrix(-1 0 0 1 29.8667 55.4667)" fill="black"/>
<rect x="34.1333" y="55.4667" width="2.13333" height="2.13333" fill="black"/>
<rect width="2.13333" height="2.13333" transform="matrix(-1 0 0 1 27.7334 55.4667)" fill="black"/>
<rect x="36.2666" y="55.4667" width="2.13334" height="2.13333" fill="black"/>
<rect width="2.13333" height="2.13333" transform="matrix(-1 0 0 1 25.6001 55.4667)" fill="black"/>
<rect x="38.3999" y="55.4667" width="2.13333" height="2.13333" fill="black"/>
<rect width="2.13333" height="2.13334" transform="matrix(-1 0 0 1 23.4668 53.3334)" fill="black"/>
<rect x="40.5332" y="53.3334" width="2.13334" height="2.13334" fill="black"/>
<rect width="2.13333" height="2.13334" transform="matrix(-1 0 0 1 21.3335 53.3334)" fill="black"/>
<rect x="42.6665" y="53.3334" width="2.13333" height="2.13334" fill="black"/>
<rect width="2.13333" height="2.13333" transform="matrix(-1 0 0 1 19.2002 51.2)" fill="black"/>
<rect x="44.7998" y="51.2" width="2.13334" height="2.13333" fill="black"/>
<rect width="2.13333" height="2.13334" transform="matrix(-1 0 0 1 17.0669 49.0667)" fill="black"/>
<rect x="46.9331" y="49.0667" width="2.13333" height="2.13334" fill="black"/>
<rect width="2.13333" height="2.13333" transform="matrix(-1 0 0 1 14.9331 46.9333)" fill="black"/>
<rect x="49.0669" y="46.9333" width="2.13334" height="2.13333" fill="black"/>
<rect width="2.13333" height="2.13333" transform="matrix(-1 0 0 1 32 6.40002)" fill="black"/>
<rect x="32" y="6.40002" width="2.13334" height="2.13333" fill="black"/>
<rect width="2.13333" height="2.13333" transform="matrix(-1 0 0 1 29.8667 6.40002)" fill="black"/>
<rect x="34.1333" y="6.40002" width="2.13333" height="2.13333" fill="black"/>
<rect width="2.13333" height="2.13333" transform="matrix(-1 0 0 1 27.7334 6.40002)" fill="black"/>
<rect x="36.2666" y="6.40002" width="2.13334" height="2.13333" fill="black"/>
<rect width="2.13333" height="2.13333" transform="matrix(-1 0 0 1 27.7334 6.40002)" fill="black"/>
<rect x="36.2666" y="6.40002" width="2.13334" height="2.13333" fill="black"/>
<rect width="2.13333" height="2.13333" transform="matrix(-1 0 0 1 25.6001 6.40002)" fill="black"/>
<rect x="38.3999" y="6.40002" width="2.13333" height="2.13333" fill="black"/>
<rect width="2.13333" height="2.13333" transform="matrix(-1 0 0 1 23.4668 6.40002)" fill="black"/>
<rect x="40.5332" y="6.40002" width="2.13334" height="2.13333" fill="black"/>
<rect width="2.13333" height="2.13333" transform="matrix(-1 0 0 1 21.3335 8.53333)" fill="black"/>
<rect x="42.6665" y="8.53333" width="2.13333" height="2.13333" fill="black"/>
<rect width="2.13333" height="2.13333" transform="matrix(-1 0 0 1 19.2002 8.53333)" fill="black"/>
<rect x="44.7998" y="8.53333" width="2.13334" height="2.13333" fill="black"/>
<rect width="2.13333" height="2.13333" transform="matrix(-1 0 0 1 17.0669 10.6666)" fill="black"/>
<rect x="46.9331" y="10.6666" width="2.13333" height="2.13333" fill="black"/>
<rect width="2.13333" height="2.13333" transform="matrix(-1 0 0 1 14.9331 10.6666)" fill="black"/>
<rect x="12.7998" y="46.9333" width="2.13333" height="2.13334" transform="rotate(180 12.7998 46.9333)" fill="black"/>
<rect x="49.0669" y="10.6666" width="2.13334" height="2.13333" fill="black"/>
<rect width="2.13333" height="2.13334" transform="matrix(1 0 0 -1 51.2002 46.9333)" fill="black"/>
<rect width="2.13333" height="2.13333" transform="matrix(-1 0 0 1 12.7998 12.8)" fill="black"/>
<rect x="10.6665" y="44.8" width="2.13333" height="2.13333" transform="rotate(180 10.6665 44.8)" fill="black"/>
<rect width="2.13333" height="2.13333" transform="matrix(-1 0 0 1 10.6665 14.9333)" fill="black"/>
<rect x="10.6665" y="42.6666" width="2.13333" height="2.13334" transform="rotate(180 10.6665 42.6666)" fill="black"/>
<rect x="14.9331" y="40.5333" width="2.13333" height="2.13333" transform="rotate(180 14.9331 40.5333)" fill="black"/>
<rect x="53.3335" y="38.4" width="2.13333" height="2.13334" transform="rotate(180 53.3335 38.4)" fill="black"/>
<rect x="12.7998" y="38.4" width="2.13333" height="2.13334" transform="rotate(180 12.7998 38.4)" fill="black"/>
<rect width="2.13334" height="2.13333" transform="matrix(1 0 0 -1 49.0669 40.5333)" fill="black"/>
<rect x="17.0669" y="42.6666" width="2.13333" height="2.13334" transform="rotate(180 17.0669 42.6666)" fill="black"/>
<rect width="2.13333" height="2.13334" transform="matrix(1 0 0 -1 46.9331 42.6666)" fill="black"/>
<rect x="21.3335" y="44.8" width="2.13333" height="2.13333" transform="rotate(180 21.3335 44.8)" fill="black"/>
<rect width="2.13333" height="2.13333" transform="matrix(1 0 0 -1 42.6665 44.8)" fill="black"/>
<rect x="25.6001" y="44.8" width="2.13333" height="2.13333" transform="rotate(180 25.6001 44.8)" fill="black"/>
<rect width="2.13333" height="2.13333" transform="matrix(1 0 0 -1 38.3999 44.8)" fill="black"/>
<rect x="19.2002" y="42.6666" width="2.13333" height="2.13334" transform="rotate(180 19.2002 42.6666)" fill="black"/>
<rect width="2.13334" height="2.13334" transform="matrix(1 0 0 -1 44.7998 42.6666)" fill="black"/>
<rect x="23.4668" y="44.8" width="2.13333" height="2.13333" transform="rotate(180 23.4668 44.8)" fill="black"/>
<rect width="2.13334" height="2.13333" transform="matrix(1 0 0 -1 40.5332 44.8)" fill="black"/>
<rect x="27.7334" y="44.8" width="2.13333" height="2.13333" transform="rotate(180 27.7334 44.8)" fill="black"/>
<rect width="2.13334" height="2.13333" transform="matrix(1 0 0 -1 36.2666 44.8)" fill="black"/>
<rect x="29.8667" y="44.8" width="2.13333" height="2.13333" transform="rotate(180 29.8667 44.8)" fill="black"/>
<rect width="2.13333" height="2.13333" transform="matrix(1 0 0 -1 34.1333 44.8)" fill="black"/>
<rect x="32" y="44.8" width="2.13333" height="2.13333" transform="rotate(180 32 44.8)" fill="black"/>
<rect width="2.13334" height="2.13333" transform="matrix(1 0 0 -1 32 44.8)" fill="black"/>
<rect x="53.3335" y="14.9333" width="2.13334" height="2.13333" fill="black"/>
<rect width="2.13334" height="2.13334" transform="matrix(1 0 0 -1 53.3335 42.6666)" fill="black"/>
<rect x="51.2002" y="12.8" width="2.13333" height="2.13333" fill="black"/>
<rect width="2.13334" height="2.13333" transform="matrix(1 0 0 -1 53.3335 44.8)" fill="black"/>
<rect width="2.13333" height="2.13333" transform="matrix(-1 0 0 1 6.3999 23.4667)" fill="black"/>
<rect width="2.13333" height="2.13333" transform="matrix(-1 0 0 1 6.3999 21.3334)" fill="black"/>
<rect width="2.13333" height="2.13333" transform="matrix(-1 0 0 1 6.3999 19.2)" fill="black"/>
<rect width="2.13333" height="2.13333" transform="matrix(-1 0 0 1 8.5332 17.0667)" fill="black"/>
<rect x="8.5332" y="40.5333" width="2.13333" height="2.13333" transform="rotate(180 8.5332 40.5333)" fill="black"/>
<rect x="57.6001" y="23.4667" width="2.13334" height="2.13333" fill="black"/>
<rect x="57.6001" y="21.3334" width="2.13334" height="2.13333" fill="black"/>
<rect x="57.6001" y="19.2" width="2.13334" height="2.13333" fill="black"/>
<rect x="55.4668" y="17.0667" width="2.13333" height="2.13333" fill="black"/>
<rect width="2.13333" height="2.13333" transform="matrix(1 0 0 -1 55.4668 40.5333)" fill="black"/>
<rect width="2.13333" height="2.13333" transform="matrix(-1 0 0 1 6.3999 25.6)" fill="black"/>
<rect x="57.6001" y="25.6" width="2.13334" height="2.13333" fill="black"/>
<rect width="2.13333" height="2.13333" transform="matrix(-1 0 0 1 6.3999 27.7333)" fill="black"/>
<rect x="57.6001" y="27.7333" width="2.13334" height="2.13333" fill="black"/>
<rect width="2.13333" height="2.13333" transform="matrix(-1 0 0 1 6.3999 29.8667)" fill="black"/>
<rect x="57.6001" y="29.8667" width="2.13334" height="2.13333" fill="black"/>
<rect width="2.13333" height="2.13334" transform="matrix(-1 0 0 1 6.3999 32)" fill="black"/>
<rect width="2.13333" height="2.13334" transform="matrix(-1 0 0 1 6.3999 36.2667)" fill="black"/>
<rect width="2.13333" height="2.13333" transform="matrix(-1 0 0 1 6.3999 34.1333)" fill="black"/>
<rect x="57.6001" y="36.2667" width="2.13334" height="2.13334" fill="black"/>
<rect x="57.6001" y="34.1333" width="2.13334" height="2.13333" fill="black"/>
<rect x="57.6001" y="32" width="2.13334" height="2.13334" fill="black"/>
<rect x="57.6001" y="25.6" width="2.13333" height="2.13333" transform="rotate(180 57.6001 25.6)" fill="#E9E8E6"/>
<rect x="57.6001" y="27.7333" width="2.13333" height="2.13333" transform="rotate(180 57.6001 27.7333)" fill="#E9E8E6"/>
<rect x="57.6001" y="29.8667" width="2.13333" height="2.13333" transform="rotate(180 57.6001 29.8667)" fill="#E9E8E6"/>
<rect x="57.6001" y="32" width="2.13333" height="2.13333" transform="rotate(180 57.6001 32)" fill="#E9E8E6"/>
<rect x="57.6001" y="36.2667" width="2.13333" height="2.13333" transform="rotate(180 57.6001 36.2667)" fill="#E9E8E6"/>
<rect x="42.6665" y="51.2" width="2.13334" height="2.13334" transform="rotate(180 42.6665 51.2)" fill="#CECFCA"/>
<rect x="44.7998" y="51.2" width="2.13333" height="2.13334" transform="rotate(180 44.7998 51.2)" fill="#CECFCA"/>
<rect x="46.9331" y="51.2" width="2.13334" height="2.13334" transform="rotate(180 46.9331 51.2)" fill="#CECFCA"/>
<rect x="46.9331" y="49.0667" width="2.13334" height="2.13333" transform="rotate(180 46.9331 49.0667)" fill="#CECFCA"/>
<rect x="49.0669" y="49.0667" width="2.13333" height="2.13333" transform="rotate(180 49.0669 49.0667)" fill="#CECFCA"/>
<rect x="51.2002" y="46.9333" width="2.13334" height="2.13334" transform="rotate(180 51.2002 46.9333)" fill="#CECFCA"/>
<rect x="53.3335" y="44.8" width="2.13333" height="2.13333" transform="rotate(180 53.3335 44.8)" fill="#CECFCA"/>
<rect x="8.5332" y="21.3334" width="2.13333" height="2.13333" transform="rotate(180 8.5332 21.3334)" fill="#E9E8E6"/>
<rect width="2.13333" height="2.13333" transform="matrix(1 0 0 -1 55.4668 21.3334)" fill="#E9E8E6"/>
<rect x="10.6665" y="19.2" width="2.13333" height="2.13333" transform="rotate(180 10.6665 19.2)" fill="#E9E8E6"/>
<rect x="12.7998" y="17.0667" width="2.13333" height="2.13333" transform="rotate(180 12.7998 17.0667)" fill="#E9E8E6"/>
<rect x="14.9331" y="14.9333" width="2.13333" height="2.13333" transform="rotate(180 14.9331 14.9333)" fill="#E9E8E6"/>
<rect x="17.0669" y="14.9333" width="2.13333" height="2.13333" transform="rotate(180 17.0669 14.9333)" fill="#E9E8E6"/>
<rect x="19.2002" y="12.8" width="2.13333" height="2.13333" transform="rotate(180 19.2002 12.8)" fill="#E9E8E6"/>
<rect x="21.3335" y="12.8" width="2.13333" height="2.13333" transform="rotate(180 21.3335 12.8)" fill="#E9E8E6"/>
<rect x="23.4668" y="10.6666" width="2.13333" height="2.13333" transform="rotate(180 23.4668 10.6666)" fill="#E9E8E6"/>
<rect x="25.6001" y="10.6666" width="2.13333" height="2.13333" transform="rotate(180 25.6001 10.6666)" fill="#E9E8E6"/>
<rect x="27.7334" y="10.6666" width="2.13333" height="2.13333" transform="rotate(180 27.7334 10.6666)" fill="#E9E8E6"/>
<rect x="29.8667" y="10.6666" width="2.13333" height="2.13333" transform="rotate(180 29.8667 10.6666)" fill="#E9E8E6"/>
<rect x="32" y="10.6666" width="2.13333" height="2.13333" transform="rotate(180 32 10.6666)" fill="#E9E8E6"/>
<rect x="34.1333" y="10.6666" width="2.13334" height="2.13333" transform="rotate(180 34.1333 10.6666)" fill="#E9E8E6"/>
<rect x="36.2666" y="10.6666" width="2.13333" height="2.13333" transform="rotate(180 36.2666 10.6666)" fill="#E9E8E6"/>
<rect x="38.3999" y="10.6666" width="2.13334" height="2.13333" transform="rotate(180 38.3999 10.6666)" fill="#E9E8E6"/>
<rect x="40.5332" y="10.6666" width="2.13333" height="2.13333" transform="rotate(180 40.5332 10.6666)" fill="#E9E8E6"/>
<rect x="42.6665" y="10.6666" width="2.13334" height="2.13333" transform="rotate(180 42.6665 10.6666)" fill="#E9E8E6"/>
<rect x="44.7998" y="12.8" width="2.13333" height="2.13333" transform="rotate(180 44.7998 12.8)" fill="#E9E8E6"/>
<rect x="46.9331" y="12.8" width="2.13334" height="2.13333" transform="rotate(180 46.9331 12.8)" fill="#E9E8E6"/>
<rect x="49.0669" y="14.9333" width="2.13333" height="2.13333" transform="rotate(180 49.0669 14.9333)" fill="#E9E8E6"/>
<rect x="51.2002" y="14.9333" width="2.13334" height="2.13333" transform="rotate(180 51.2002 14.9333)" fill="#E9E8E6"/>
<rect x="53.3335" y="17.0667" width="2.13333" height="2.13333" transform="rotate(180 53.3335 17.0667)" fill="#E9E8E6"/>
<rect x="55.4668" y="19.2" width="2.13334" height="2.13333" transform="rotate(180 55.4668 19.2)" fill="#E9E8E6"/>
<rect x="38.3999" y="55.4667" width="2.13334" height="2.13334" transform="rotate(180 38.3999 55.4667)" fill="#CECFCA"/>
<rect x="40.5332" y="53.3334" width="2.13333" height="2.13333" transform="rotate(180 40.5332 53.3334)" fill="#CECFCA"/>
<rect x="40.5332" y="55.4667" width="2.13333" height="2.13334" transform="rotate(180 40.5332 55.4667)" fill="#CECFCA"/>
<rect x="42.6665" y="53.3334" width="2.13334" height="2.13333" transform="rotate(180 42.6665 53.3334)" fill="#CECFCA"/>
<rect x="44.7998" y="53.3334" width="2.13333" height="2.13333" transform="rotate(180 44.7998 53.3334)" fill="#CECFCA"/>
<rect width="2.13333" height="2.13334" transform="matrix(1 0 0 -1 55.4668 34.1333)" fill="#CECFCA"/>
<rect x="10.6665" y="23.4667" width="2.13333" height="2.13333" transform="rotate(180 10.6665 23.4667)" fill="#CECFCA"/>
<rect x="12.7998" y="21.3334" width="2.13333" height="2.13333" transform="rotate(180 12.7998 21.3334)" fill="#CECFCA"/>
<rect x="14.9331" y="19.2" width="2.13333" height="2.13333" transform="rotate(180 14.9331 19.2)" fill="#CECFCA"/>
<rect x="17.0669" y="19.2" width="2.13333" height="2.13333" transform="rotate(180 17.0669 19.2)" fill="#4A2107"/>
<rect x="19.2002" y="17.0667" width="2.13333" height="2.13333" transform="rotate(180 19.2002 17.0667)" fill="#CECFCA"/>
<rect x="21.3335" y="17.0667" width="2.13333" height="2.13333" transform="rotate(180 21.3335 17.0667)" fill="#4A2107"/>
<rect x="23.4668" y="14.9333" width="2.13333" height="2.13333" transform="rotate(180 23.4668 14.9333)" fill="#CECFCA"/>
<rect x="25.6001" y="14.9333" width="2.13333" height="2.13333" transform="rotate(180 25.6001 14.9333)" fill="#4A2107"/>
<rect x="27.7334" y="14.9333" width="2.13333" height="2.13333" transform="rotate(180 27.7334 14.9333)" fill="#4A2107"/>
<rect x="29.8667" y="14.9333" width="2.13333" height="2.13333" transform="rotate(180 29.8667 14.9333)" fill="#160A03"/>
<rect x="32" y="14.9333" width="2.13333" height="2.13333" transform="rotate(180 32 14.9333)" fill="#994916"/>
<rect x="34.1333" y="14.9333" width="2.13334" height="2.13333" transform="rotate(180 34.1333 14.9333)" fill="#160A03"/>
<rect x="36.2666" y="14.9333" width="2.13333" height="2.13333" transform="rotate(180 36.2666 14.9333)" fill="#160A03"/>
<rect x="38.3999" y="14.9333" width="2.13334" height="2.13333" transform="rotate(180 38.3999 14.9333)" fill="#4A2107"/>
<rect x="40.5332" y="14.9333" width="2.13333" height="2.13333" transform="rotate(180 40.5332 14.9333)" fill="#994916"/>
<rect x="42.6665" y="14.9333" width="2.13334" height="2.13333" transform="rotate(180 42.6665 14.9333)" fill="#CECFCA"/>
<rect x="44.7998" y="17.0667" width="2.13333" height="2.13333" transform="rotate(180 44.7998 17.0667)" fill="#4A2107"/>
<rect x="46.9331" y="17.0667" width="2.13334" height="2.13333" transform="rotate(180 46.9331 17.0667)" fill="#CECFCA"/>
<rect x="49.0669" y="19.2" width="2.13333" height="2.13333" transform="rotate(180 49.0669 19.2)" fill="#4A2107"/>
<rect x="51.2002" y="19.2" width="2.13334" height="2.13333" transform="rotate(180 51.2002 19.2)" fill="#CECFCA"/>
<rect x="53.3335" y="21.3334" width="2.13333" height="2.13333" transform="rotate(180 53.3335 21.3334)" fill="#CECFCA"/>
<rect x="55.4668" y="23.4667" width="2.13334" height="2.13333" transform="rotate(180 55.4668 23.4667)" fill="#CECFCA"/>
<rect x="12.7998" y="42.6666" width="2.13333" height="2.13334" transform="rotate(180 12.7998 42.6666)" fill="#3986CB"/>
<rect x="55.4668" y="40.5333" width="2.13334" height="2.13333" transform="rotate(180 55.4668 40.5333)" fill="#3986CB"/>
<rect x="10.6665" y="40.5333" width="2.13333" height="2.13333" transform="rotate(180 10.6665 40.5333)" fill="#3986CB"/>
<rect x="8.5332" y="38.4" width="2.13333" height="2.13334" transform="rotate(180 8.5332 38.4)" fill="#3986CB"/>
<rect width="2.13333" height="2.13334" transform="matrix(1 0 0 -1 55.4668 38.4)" fill="#3986CB"/>
<rect x="14.9331" y="44.8" width="2.13333" height="2.13333" transform="rotate(180 14.9331 44.8)" fill="#3986CB"/>
<rect x="17.0669" y="46.9333" width="2.13333" height="2.13334" transform="rotate(180 17.0669 46.9333)" fill="#3986CB"/>
<rect x="19.2002" y="46.9333" width="2.13333" height="2.13334" transform="rotate(180 19.2002 46.9333)" fill="#3986CB"/>
<rect x="21.3335" y="49.0667" width="2.13333" height="2.13333" transform="rotate(180 21.3335 49.0667)" fill="#3986CB"/>
<rect x="23.4668" y="49.0667" width="2.13333" height="2.13333" transform="rotate(180 23.4668 49.0667)" fill="#3986CB"/>
<rect x="25.6001" y="49.0667" width="2.13333" height="2.13333" transform="rotate(180 25.6001 49.0667)" fill="#3986CB"/>
<rect x="27.7334" y="49.0667" width="2.13333" height="2.13333" transform="rotate(180 27.7334 49.0667)" fill="#3986CB"/>
<rect x="29.8667" y="49.0667" width="2.13333" height="2.13333" transform="rotate(180 29.8667 49.0667)" fill="#3986CB"/>
<rect x="32" y="49.0667" width="2.13333" height="2.13333" transform="rotate(180 32 49.0667)" fill="#3986CB"/>
<rect x="34.1333" y="49.0667" width="2.13334" height="2.13333" transform="rotate(180 34.1333 49.0667)" fill="#3986CB"/>
<rect x="36.2666" y="49.0667" width="2.13333" height="2.13333" transform="rotate(180 36.2666 49.0667)" fill="#3986CB"/>
<rect x="38.3999" y="49.0667" width="2.13334" height="2.13333" transform="rotate(180 38.3999 49.0667)" fill="#3986CB"/>
<rect x="40.5332" y="49.0667" width="2.13333" height="2.13333" transform="rotate(180 40.5332 49.0667)" fill="#3986CB"/>
<rect x="42.6665" y="49.0667" width="2.13334" height="2.13333" transform="rotate(180 42.6665 49.0667)" fill="#3986CB"/>
<rect x="44.7998" y="49.0667" width="2.13333" height="2.13333" transform="rotate(180 44.7998 49.0667)" fill="#3986CB"/>
<rect x="46.9331" y="46.9333" width="2.13334" height="2.13334" transform="rotate(180 46.9331 46.9333)" fill="#3986CB"/>
<rect x="49.0669" y="46.9333" width="2.13333" height="2.13334" transform="rotate(180 49.0669 46.9333)" fill="#3986CB"/>
<rect x="51.2002" y="44.8" width="2.13334" height="2.13333" transform="rotate(180 51.2002 44.8)" fill="#3986CB"/>
<rect x="53.3335" y="42.6666" width="2.13333" height="2.13334" transform="rotate(180 53.3335 42.6666)" fill="#3986CB"/>
<rect x="10.6665" y="21.3334" width="2.13333" height="2.13333" transform="rotate(180 10.6665 21.3334)" fill="#8DAECC"/>
<rect width="2.13334" height="2.13333" transform="matrix(1 0 0 -1 53.3335 21.3334)" fill="#8DAECC"/>
<rect x="12.7998" y="19.2" width="2.13333" height="2.13333" transform="rotate(180 12.7998 19.2)" fill="#8DAECC"/>
<rect width="2.13333" height="2.13333" transform="matrix(1 0 0 -1 51.2002 19.2)" fill="#8DAECC"/>
<rect x="14.9331" y="17.0667" width="2.13333" height="2.13333" transform="rotate(180 14.9331 17.0667)" fill="#8DAECC"/>
<rect width="2.13334" height="2.13333" transform="matrix(1 0 0 -1 49.0669 17.0667)" fill="#8DAECC"/>
<rect x="17.0669" y="17.0667" width="2.13333" height="2.13333" transform="rotate(180 17.0669 17.0667)" fill="#8DAECC"/>
<rect width="2.13333" height="2.13333" transform="matrix(1 0 0 -1 46.9331 17.0667)" fill="#8DAECC"/>
<rect x="19.2002" y="14.9333" width="2.13333" height="2.13333" transform="rotate(180 19.2002 14.9333)" fill="#8DAECC"/>
<rect width="2.13334" height="2.13333" transform="matrix(1 0 0 -1 44.7998 14.9333)" fill="#8DAECC"/>
<rect x="21.3335" y="14.9333" width="2.13333" height="2.13333" transform="rotate(180 21.3335 14.9333)" fill="#8DAECC"/>
<rect width="2.13333" height="2.13333" transform="matrix(1 0 0 -1 42.6665 14.9333)" fill="#8DAECC"/>
<rect x="23.4668" y="12.8" width="2.13333" height="2.13333" transform="rotate(180 23.4668 12.8)" fill="#8DAECC"/>
<rect width="2.13334" height="2.13333" transform="matrix(1 0 0 -1 40.5332 12.8)" fill="#8DAECC"/>
<rect x="25.6001" y="12.8" width="2.13333" height="2.13333" transform="rotate(180 25.6001 12.8)" fill="#8DAECC"/>
<rect width="2.13333" height="2.13333" transform="matrix(1 0 0 -1 38.3999 12.8)" fill="#8DAECC"/>
<rect x="27.7334" y="12.8" width="2.13333" height="2.13333" transform="rotate(180 27.7334 12.8)" fill="#8DAECC"/>
<rect width="2.13334" height="2.13333" transform="matrix(1 0 0 -1 36.2666 12.8)" fill="#8DAECC"/>
<rect x="29.8667" y="12.8" width="2.13333" height="2.13333" transform="rotate(180 29.8667 12.8)" fill="#8DAECC"/>
<rect width="2.13333" height="2.13333" transform="matrix(1 0 0 -1 34.1333 12.8)" fill="#8DAECC"/>
<rect x="32" y="12.8" width="2.13333" height="2.13333" transform="rotate(180 32 12.8)" fill="#8DAECC"/>
<rect width="2.13334" height="2.13333" transform="matrix(1 0 0 -1 32 12.8)" fill="#8DAECC"/>
<rect x="8.5332" y="23.4667" width="2.13333" height="2.13333" transform="rotate(180 8.5332 23.4667)" fill="#E9E8E6"/>
<rect width="2.13333" height="2.13333" transform="matrix(1 0 0 -1 55.4668 23.4667)" fill="#E9E8E6"/>
<rect x="12.7998" y="44.8" width="2.13333" height="2.13333" transform="rotate(180 12.7998 44.8)" fill="#E9E8E6"/>
<rect x="14.9331" y="46.9333" width="2.13333" height="2.13334" transform="rotate(180 14.9331 46.9333)" fill="#E9E8E6"/>
<rect x="17.0669" y="49.0667" width="2.13333" height="2.13333" transform="rotate(180 17.0669 49.0667)" fill="#E9E8E6"/>
<rect x="19.2002" y="49.0667" width="2.13333" height="2.13333" transform="rotate(180 19.2002 49.0667)" fill="#E9E8E6"/>
<rect x="19.2002" y="51.2" width="2.13333" height="2.13334" transform="rotate(180 19.2002 51.2)" fill="#E9E8E6"/>
<rect x="21.3335" y="51.2" width="2.13333" height="2.13334" transform="rotate(180 21.3335 51.2)" fill="#E9E8E6"/>
<rect x="23.4668" y="51.2" width="2.13333" height="2.13334" transform="rotate(180 23.4668 51.2)" fill="#E9E8E6"/>
<rect x="25.6001" y="51.2" width="2.13333" height="2.13334" transform="rotate(180 25.6001 51.2)" fill="#E9E8E6"/>
<rect x="27.7334" y="51.2" width="2.13333" height="2.13334" transform="rotate(180 27.7334 51.2)" fill="#E9E8E6"/>
<rect x="29.8667" y="51.2" width="2.13333" height="2.13334" transform="rotate(180 29.8667 51.2)" fill="#E9E8E6"/>
<rect x="32" y="51.2" width="2.13333" height="2.13334" transform="rotate(180 32 51.2)" fill="#E9E8E6"/>
<rect x="34.1333" y="51.2" width="2.13334" height="2.13334" transform="rotate(180 34.1333 51.2)" fill="#E9E8E6"/>
<rect x="36.2666" y="51.2" width="2.13333" height="2.13334" transform="rotate(180 36.2666 51.2)" fill="#E9E8E6"/>
<rect x="38.3999" y="51.2" width="2.13334" height="2.13334" transform="rotate(180 38.3999 51.2)" fill="#E9E8E6"/>
<rect x="40.5332" y="51.2" width="2.13333" height="2.13334" transform="rotate(180 40.5332 51.2)" fill="#E9E8E6"/>
<rect x="8.5332" y="36.2667" width="2.13333" height="2.13333" transform="rotate(180 8.5332 36.2667)" fill="#E9E8E6"/>
<rect x="8.5332" y="34.1333" width="2.13333" height="2.13334" transform="rotate(180 8.5332 34.1333)" fill="#E9E8E6"/>
<rect x="8.5332" y="32" width="2.13333" height="2.13333" transform="rotate(180 8.5332 32)" fill="#E9E8E6"/>
<rect x="8.5332" y="29.8667" width="2.13333" height="2.13333" transform="rotate(180 8.5332 29.8667)" fill="#E9E8E6"/>
<rect x="8.5332" y="27.7333" width="2.13333" height="2.13333" transform="rotate(180 8.5332 27.7333)" fill="#E9E8E6"/>
<rect x="8.5332" y="25.6" width="2.13333" height="2.13333" transform="rotate(180 8.5332 25.6)" fill="#E9E8E6"/>
<rect x="57.6001" y="34.1333" width="2.13333" height="2.13334" transform="rotate(180 57.6001 34.1333)" fill="#E9E8E6"/>
<rect x="12.7998" y="40.5333" width="2.13333" height="2.13333" transform="rotate(180 12.7998 40.5333)" fill="#E9E8E6"/>
<rect x="10.6665" y="38.4" width="2.13333" height="2.13334" transform="rotate(180 10.6665 38.4)" fill="#E9E8E6"/>
<rect x="14.9331" y="42.6666" width="2.13333" height="2.13334" transform="rotate(180 14.9331 42.6666)" fill="#E9E8E6"/>
<rect x="17.0669" y="44.8" width="2.13333" height="2.13333" transform="rotate(180 17.0669 44.8)" fill="#E9E8E6"/>
<rect x="19.2002" y="44.8" width="2.13333" height="2.13333" transform="rotate(180 19.2002 44.8)" fill="#E9E8E6"/>
<rect x="21.3335" y="46.9333" width="2.13333" height="2.13334" transform="rotate(180 21.3335 46.9333)" fill="#E9E8E6"/>
<rect x="23.4668" y="46.9333" width="2.13333" height="2.13334" transform="rotate(180 23.4668 46.9333)" fill="#E9E8E6"/>
<rect x="25.6001" y="46.9333" width="2.13333" height="2.13334" transform="rotate(180 25.6001 46.9333)" fill="#E9E8E6"/>
<rect x="27.7334" y="46.9333" width="2.13333" height="2.13334" transform="rotate(180 27.7334 46.9333)" fill="#E9E8E6"/>
<rect x="29.8667" y="46.9333" width="2.13333" height="2.13334" transform="rotate(180 29.8667 46.9333)" fill="#E9E8E6"/>
<rect x="32" y="46.9333" width="2.13333" height="2.13334" transform="rotate(180 32 46.9333)" fill="#E9E8E6"/>
<rect x="34.1333" y="46.9333" width="2.13334" height="2.13334" transform="rotate(180 34.1333 46.9333)" fill="#E9E8E6"/>
<rect x="36.2666" y="46.9333" width="2.13333" height="2.13334" transform="rotate(180 36.2666 46.9333)" fill="#E9E8E6"/>
<rect x="38.3999" y="46.9333" width="2.13334" height="2.13334" transform="rotate(180 38.3999 46.9333)" fill="#E9E8E6"/>
<rect x="40.5332" y="46.9333" width="2.13333" height="2.13334" transform="rotate(180 40.5332 46.9333)" fill="#E9E8E6"/>
<rect x="42.6665" y="46.9333" width="2.13334" height="2.13334" transform="rotate(180 42.6665 46.9333)" fill="#E9E8E6"/>
<rect x="44.7998" y="46.9333" width="2.13333" height="2.13334" transform="rotate(180 44.7998 46.9333)" fill="#E9E8E6"/>
<rect x="46.9331" y="44.8" width="2.13334" height="2.13333" transform="rotate(180 46.9331 44.8)" fill="#E9E8E6"/>
<rect x="49.0669" y="44.8" width="2.13333" height="2.13333" transform="rotate(180 49.0669 44.8)" fill="#E9E8E6"/>
<rect x="51.2002" y="42.6666" width="2.13334" height="2.13334" transform="rotate(180 51.2002 42.6666)" fill="#E9E8E6"/>
<rect x="53.3335" y="40.5333" width="2.13333" height="2.13333" transform="rotate(180 53.3335 40.5333)" fill="#E9E8E6"/>
<rect x="55.4668" y="38.4" width="2.13334" height="2.13334" transform="rotate(180 55.4668 38.4)" fill="#E9E8E6"/>
<rect x="21.3335" y="53.3334" width="2.13333" height="2.13333" transform="rotate(180 21.3335 53.3334)" fill="#E9E8E6"/>
<rect x="23.4668" y="53.3334" width="2.13333" height="2.13333" transform="rotate(180 23.4668 53.3334)" fill="#E9E8E6"/>
<rect x="25.6001" y="53.3334" width="2.13333" height="2.13333" transform="rotate(180 25.6001 53.3334)" fill="#E9E8E6"/>
<rect x="25.6001" y="55.4667" width="2.13333" height="2.13334" transform="rotate(180 25.6001 55.4667)" fill="#E9E8E6"/>
<rect x="27.7334" y="53.3334" width="2.13333" height="2.13333" transform="rotate(180 27.7334 53.3334)" fill="#E9E8E6"/>
<rect x="27.7334" y="55.4667" width="2.13333" height="2.13334" transform="rotate(180 27.7334 55.4667)" fill="#E9E8E6"/>
<rect x="29.8667" y="53.3334" width="2.13333" height="2.13333" transform="rotate(180 29.8667 53.3334)" fill="#E9E8E6"/>
<rect x="29.8667" y="55.4667" width="2.13333" height="2.13334" transform="rotate(180 29.8667 55.4667)" fill="#E9E8E6"/>
<rect x="32" y="53.3334" width="2.13333" height="2.13333" transform="rotate(180 32 53.3334)" fill="#E9E8E6"/>
<rect x="32" y="55.4667" width="2.13333" height="2.13334" transform="rotate(180 32 55.4667)" fill="#E9E8E6"/>
<rect x="34.1333" y="53.3334" width="2.13334" height="2.13333" transform="rotate(180 34.1333 53.3334)" fill="#E9E8E6"/>
<rect x="34.1333" y="55.4667" width="2.13334" height="2.13334" transform="rotate(180 34.1333 55.4667)" fill="#E9E8E6"/>
<rect x="36.2666" y="53.3334" width="2.13333" height="2.13333" transform="rotate(180 36.2666 53.3334)" fill="#E9E8E6"/>
<rect x="36.2666" y="55.4667" width="2.13333" height="2.13334" transform="rotate(180 36.2666 55.4667)" fill="#E9E8E6"/>
<rect x="38.3999" y="53.3334" width="2.13334" height="2.13333" transform="rotate(180 38.3999 53.3334)" fill="#E9E8E6"/>
<rect x="8.5332" y="34.1333" width="2.13333" height="2.13334" transform="rotate(180 8.5332 34.1333)" fill="#E9E8E6"/>
<rect width="2.13333" height="2.13333" transform="matrix(-1 0 0 1 23.4668 25.6)" fill="#4A2107"/>
<rect width="2.13333" height="2.13333" transform="matrix(-1 0 0 1 23.4668 23.4667)" fill="#160A03"/>
<rect width="2.13333" height="2.13333" transform="matrix(-1 0 0 1 36.2666 23.4667)" fill="#D6CF6E"/>
<rect width="2.13333" height="2.13333" transform="matrix(-1 0 0 1 23.4668 21.3334)" fill="#994916"/>
<rect width="2.13333" height="2.13333" transform="matrix(-1 0 0 1 36.2666 21.3334)" fill="#7B9C04"/>
<rect width="2.13333" height="2.13333" transform="matrix(-1 0 0 1 23.4668 19.2)" fill="#4A2107"/>
<rect width="2.13333" height="2.13333" transform="matrix(-1 0 0 1 23.4668 17.0667)" fill="#4A2107"/>
<rect width="2.13333" height="2.13333" transform="matrix(-1 0 0 1 23.4668 14.9333)" fill="#160A03"/>
<rect width="2.13333" height="2.13333" transform="matrix(-1 0 0 1 36.2666 19.2)" fill="#4A2107"/>
<rect width="2.13333" height="2.13333" transform="matrix(-1 0 0 1 36.2666 17.0667)" fill="#4A2107"/>
<rect width="2.13333" height="2.13333" transform="matrix(-1 0 0 1 36.2666 14.9333)" fill="#994916"/>
<rect width="2.13333" height="2.13333" transform="matrix(-1 0 0 1 19.2002 25.6)" fill="#994916"/>
<rect width="2.13333" height="2.13333" transform="matrix(-1 0 0 1 19.2002 23.4667)" fill="#160A03"/>
<rect width="2.13333" height="2.13333" transform="matrix(-1 0 0 1 19.2002 21.3334)" fill="#160A03"/>
<rect width="2.13333" height="2.13333" transform="matrix(-1 0 0 1 19.2002 19.2)" fill="#4A2107"/>
<rect width="2.13333" height="2.13333" transform="matrix(-1 0 0 1 19.2002 17.0667)" fill="#160A03"/>
<rect width="2.13333" height="2.13333" transform="matrix(-1 0 0 1 14.9331 23.4667)" fill="#4A2107"/>
<rect width="2.13333" height="2.13333" transform="matrix(-1 0 0 1 10.6665 23.4667)" fill="#4A2107"/>
<rect width="2.13333" height="2.13333" transform="matrix(-1 0 0 1 10.6665 25.6)" fill="#4A2107"/>
<rect width="2.13333" height="2.13333" transform="matrix(-1 0 0 1 14.9331 21.3334)" fill="#160A03"/>
<rect width="2.13333" height="2.13333" transform="matrix(-1 0 0 1 12.7998 23.4667)" fill="#160A03"/>
<rect width="2.13334" height="2.13333" transform="matrix(-1 0 0 1 34.1333 25.6)" fill="#7B9C04"/>
<rect width="2.13334" height="2.13333" transform="matrix(-1 0 0 1 34.1333 23.4667)" fill="#D6CF6E"/>
<rect width="2.13334" height="2.13333" transform="matrix(-1 0 0 1 46.9331 23.4667)" fill="#4A2107"/>
<rect width="2.13334" height="2.13333" transform="matrix(-1 0 0 1 34.1333 21.3334)" fill="#4A2107"/>
<rect width="2.13334" height="2.13333" transform="matrix(-1 0 0 1 46.9331 21.3334)" fill="#160A03"/>
<rect width="2.13334" height="2.13333" transform="matrix(-1 0 0 1 51.2002 21.3334)" fill="#160A03"/>
<rect width="2.13333" height="2.13333" transform="matrix(-1 0 0 1 49.0669 21.3334)" fill="#160A03"/>
<rect width="2.13333" height="2.13333" transform="matrix(-1 0 0 1 49.0669 19.2)" fill="#160A03"/>
<rect width="2.13334" height="2.13333" transform="matrix(-1 0 0 1 34.1333 19.2)" fill="#160A03"/>
<rect width="2.13334" height="2.13333" transform="matrix(-1 0 0 1 34.1333 17.0667)" fill="#160A03"/>
<rect width="2.13334" height="2.13333" transform="matrix(-1 0 0 1 34.1333 14.9333)" fill="#4A2107"/>
<rect width="2.13334" height="2.13333" transform="matrix(-1 0 0 1 46.9331 19.2)" fill="#4A2107"/>
<rect width="2.13334" height="2.13333" transform="matrix(-1 0 0 1 46.9331 17.0667)" fill="#4A2107"/>
<rect width="2.13334" height="2.13333" transform="matrix(-1 0 0 1 51.2002 19.2)" fill="#4A2107"/>
<rect width="2.13333" height="2.13333" transform="matrix(-1 0 0 1 53.3335 21.3334)" fill="#4A2107"/>
<rect width="2.13333" height="2.13333" transform="matrix(-1 0 0 1 14.9331 19.2)" fill="#4A2107"/>
<rect width="2.13333" height="2.13333" transform="matrix(-1 0 0 1 23.4668 27.7333)" fill="#4A2107"/>
<rect width="2.13333" height="2.13333" transform="matrix(-1 0 0 1 19.2002 27.7333)" fill="#4A2107"/>
<rect width="2.13333" height="2.13333" transform="matrix(-1 0 0 1 14.9331 25.6)" fill="#160A03"/>
<rect width="2.13333" height="2.13333" transform="matrix(-1 0 0 1 12.7998 25.6)" fill="#160A03"/>
<rect width="2.13334" height="2.13333" transform="matrix(-1 0 0 1 34.1333 27.7333)" fill="#4A2107"/>
<rect width="2.13333" height="2.13333" transform="matrix(-1 0 0 1 23.4668 29.8667)" fill="#160A03"/>
<rect width="2.13333" height="2.13333" transform="matrix(-1 0 0 1 19.2002 29.8667)" fill="#160A03"/>
<rect width="2.13333" height="2.13333" transform="matrix(-1 0 0 1 14.9331 27.7333)" fill="#160A03"/>
<rect width="2.13333" height="2.13333" transform="matrix(-1 0 0 1 12.7998 27.7333)" fill="#160A03"/>
<rect width="2.13333" height="2.13333" transform="matrix(-1 0 0 1 10.6665 29.8667)" fill="#160A03"/>
<rect width="2.13334" height="2.13333" transform="matrix(-1 0 0 1 34.1333 29.8667)" fill="#4A2107"/>
<rect width="2.13333" height="2.13334" transform="matrix(-1 0 0 1 23.4668 32)" fill="#160A03"/>
<rect width="2.13333" height="2.13334" transform="matrix(-1 0 0 1 19.2002 32)" fill="#160A03"/>
<rect width="2.13333" height="2.13333" transform="matrix(-1 0 0 1 14.9331 29.8667)" fill="#4A2107"/>
<rect width="2.13333" height="2.13333" transform="matrix(-1 0 0 1 12.7998 29.8667)" fill="#4A2107"/>
<rect width="2.13334" height="2.13334" transform="matrix(-1 0 0 1 34.1333 32)" fill="#DDA70F"/>
<rect width="2.13333" height="2.13333" transform="matrix(-1 0 0 1 23.4668 34.1333)" fill="#160A03"/>
<rect width="2.13333" height="2.13333" transform="matrix(-1 0 0 1 19.2002 34.1333)" fill="#4A2107"/>
<rect width="2.13333" height="2.13334" transform="matrix(-1 0 0 1 14.9331 32)" fill="#160A03"/>
<rect width="2.13333" height="2.13333" transform="matrix(-1 0 0 1 10.6665 34.1333)" fill="#160A03"/>
<rect width="2.13333" height="2.13334" transform="matrix(-1 0 0 1 12.7998 32)" fill="#994916"/>
<rect width="2.13334" height="2.13333" transform="matrix(-1 0 0 1 34.1333 34.1333)" fill="#F5C815"/>
<rect width="2.13333" height="2.13334" transform="matrix(-1 0 0 1 23.4668 36.2667)" fill="#F5C815"/>
<rect width="2.13333" height="2.13334" transform="matrix(-1 0 0 1 19.2002 36.2667)" fill="#F5C815"/>
<rect width="2.13333" height="2.13333" transform="matrix(-1 0 0 1 14.9331 34.1333)" fill="#4A2107"/>
<rect width="2.13333" height="2.13334" transform="matrix(-1 0 0 1 14.9331 36.2667)" fill="#4A2107"/>
<rect width="2.13334" height="2.13334" transform="matrix(-1 0 0 1 34.1333 36.2667)" fill="#F5C815"/>
<rect width="2.13333" height="2.13333" transform="matrix(-1 0 0 1 23.4668 38.4)" fill="#DDA70F"/>
<rect width="2.13334" height="2.13333" transform="matrix(-1 0 0 1 34.1333 38.4)" fill="#DDA70F"/>
<rect width="2.13333" height="2.13333" transform="matrix(-1 0 0 1 25.6001 25.6)" fill="#160A03"/>
<rect width="2.13333" height="2.13333" transform="matrix(-1 0 0 1 25.6001 23.4667)" fill="#4A2107"/>
<rect width="2.13334" height="2.13333" transform="matrix(-1 0 0 1 38.3999 23.4667)" fill="#7B9C04"/>
<rect width="2.13333" height="2.13333" transform="matrix(-1 0 0 1 25.6001 21.3334)" fill="#4A2107"/>
<rect width="2.13334" height="2.13333" transform="matrix(-1 0 0 1 38.3999 21.3334)" fill="#4A2107"/>
<rect width="2.13333" height="2.13333" transform="matrix(-1 0 0 1 25.6001 19.2)" fill="#160A03"/>
<rect width="2.13333" height="2.13333" transform="matrix(-1 0 0 1 25.6001 17.0667)" fill="#160A03"/>
<rect width="2.13333" height="2.13333" transform="matrix(-1 0 0 1 25.6001 14.9333)" fill="#160A03"/>
<rect width="2.13334" height="2.13333" transform="matrix(-1 0 0 1 38.3999 19.2)" fill="#4A2107"/>
<rect width="2.13334" height="2.13333" transform="matrix(-1 0 0 1 38.3999 17.0667)" fill="#160A03"/>
<rect width="2.13334" height="2.13333" transform="matrix(-1 0 0 1 38.3999 14.9333)" fill="#160A03"/>
<rect width="2.13333" height="2.13333" transform="matrix(-1 0 0 1 21.3335 25.6)" fill="#4A2107"/>
<rect width="2.13333" height="2.13333" transform="matrix(-1 0 0 1 21.3335 23.4667)" fill="#160A03"/>
<rect width="2.13333" height="2.13333" transform="matrix(-1 0 0 1 21.3335 21.3334)" fill="#4A2107"/>
<rect width="2.13333" height="2.13333" transform="matrix(-1 0 0 1 21.3335 19.2)" fill="#160A03"/>
<rect width="2.13333" height="2.13333" transform="matrix(-1 0 0 1 21.3335 17.0667)" fill="#160A03"/>
<rect width="2.13333" height="2.13333" transform="matrix(-1 0 0 1 17.0669 23.4667)" fill="#4A2107"/>
<rect width="2.13333" height="2.13333" transform="matrix(-1 0 0 1 17.0669 21.3334)" fill="#160A03"/>
<rect width="2.13333" height="2.13333" transform="matrix(-1 0 0 1 17.0669 19.2)" fill="#994916"/>
<rect width="2.13333" height="2.13333" transform="matrix(-1 0 0 1 12.7998 21.3334)" fill="#994916"/>
<rect width="2.13333" height="2.13334" transform="matrix(-1 0 0 1 10.6665 32)" fill="#994916"/>
<rect width="2.13333" height="2.13333" transform="matrix(-1 0 0 1 12.7998 34.1333)" fill="#994916"/>
<rect width="2.13333" height="2.13334" transform="matrix(-1 0 0 1 17.0669 36.2667)" fill="#994916"/>
<rect width="2.13333" height="2.13333" transform="matrix(-1 0 0 1 10.6665 27.7333)" fill="#994916"/>
<rect width="2.13333" height="2.13333" transform="matrix(-1 0 0 1 36.2666 25.6)" fill="#994916"/>
<rect width="2.13333" height="2.13333" transform="matrix(-1 0 0 1 25.6001 27.7333)" fill="#4A2107"/>
<rect width="2.13333" height="2.13333" transform="matrix(-1 0 0 1 21.3335 27.7333)" fill="#160A03"/>
<rect width="2.13333" height="2.13333" transform="matrix(-1 0 0 1 17.0669 25.6)" fill="#160A03"/>
<rect width="2.13333" height="2.13333" transform="matrix(-1 0 0 1 36.2666 27.7333)" fill="#4A2107"/>
<rect width="2.13333" height="2.13333" transform="matrix(-1 0 0 1 25.6001 29.8667)" fill="#4A2107"/>
<rect width="2.13333" height="2.13333" transform="matrix(-1 0 0 1 21.3335 29.8667)" fill="#994916"/>
<rect width="2.13333" height="2.13333" transform="matrix(-1 0 0 1 17.0669 27.7333)" fill="#994916"/>
<rect width="2.13333" height="2.13333" transform="matrix(-1 0 0 1 36.2666 29.8667)" fill="#F5C815"/>
<rect width="2.13333" height="2.13334" transform="matrix(-1 0 0 1 25.6001 32)" fill="#160A03"/>
<rect width="2.13333" height="2.13334" transform="matrix(-1 0 0 1 21.3335 32)" fill="#4A2107"/>
<rect width="2.13333" height="2.13333" transform="matrix(-1 0 0 1 17.0669 29.8667)" fill="#4A2107"/>
<rect width="2.13333" height="2.13334" transform="matrix(-1 0 0 1 36.2666 32)" fill="#DDA70F"/>
<rect width="2.13333" height="2.13333" transform="matrix(-1 0 0 1 25.6001 34.1333)" fill="#DDA70F"/>
<rect width="2.13333" height="2.13333" transform="matrix(-1 0 0 1 21.3335 34.1333)" fill="#160A03"/>
<rect width="2.13333" height="2.13334" transform="matrix(-1 0 0 1 17.0669 32)" fill="#160A03"/>
<rect width="2.13333" height="2.13333" transform="matrix(-1 0 0 1 36.2666 34.1333)" fill="#F5C815"/>
<rect width="2.13333" height="2.13334" transform="matrix(-1 0 0 1 25.6001 36.2667)" fill="#F5C815"/>
<rect width="2.13333" height="2.13334" transform="matrix(-1 0 0 1 21.3335 36.2667)" fill="#F5C815"/>
<rect width="2.13333" height="2.13333" transform="matrix(-1 0 0 1 21.3335 38.4)" fill="#DDA70F"/>
<rect width="2.13333" height="2.13334" transform="matrix(-1 0 0 1 21.3335 40.5333)" fill="#F5C815"/>
<rect width="2.13333" height="2.13334" transform="matrix(-1 0 0 1 23.4668 40.5333)" fill="#F5C815"/>
<rect width="2.13333" height="2.13334" transform="matrix(-1 0 0 1 25.6001 40.5333)" fill="#F5C815"/>
<rect width="2.13333" height="2.13334" transform="matrix(-1 0 0 1 27.7334 40.5333)" fill="#F5C815"/>
<rect width="2.13333" height="2.13334" transform="matrix(-1 0 0 1 29.8667 40.5333)" fill="#F5C815"/>
<rect width="2.13333" height="2.13334" transform="matrix(-1 0 0 1 32 40.5333)" fill="#F5C815"/>
<rect width="2.13334" height="2.13334" transform="matrix(-1 0 0 1 34.1333 40.5333)" fill="#F5C815"/>
<rect width="2.13333" height="2.13334" transform="matrix(-1 0 0 1 36.2666 40.5333)" fill="#F5C815"/>
<rect width="2.13334" height="2.13334" transform="matrix(-1 0 0 1 38.3999 40.5333)" fill="#F5C815"/>
<rect width="2.13333" height="2.13334" transform="matrix(-1 0 0 1 40.5332 40.5333)" fill="#F5C815"/>
<rect width="2.13334" height="2.13334" transform="matrix(-1 0 0 1 42.6665 40.5333)" fill="#F5C815"/>
<rect width="2.13333" height="2.13334" transform="matrix(-1 0 0 1 44.7998 40.5333)" fill="#F5C815"/>
<rect width="2.13333" height="2.13333" transform="matrix(-1 0 0 1 44.7998 38.4)" fill="#F5C815"/>
<rect width="2.13334" height="2.13333" transform="matrix(-1 0 0 1 46.9331 38.4)" fill="#F5C815"/>
<rect width="2.13333" height="2.13333" transform="matrix(-1 0 0 1 49.0669 38.4)" fill="#F5C815"/>
<rect width="2.13333" height="2.13334" transform="matrix(-1 0 0 1 49.0669 36.2667)" fill="#F5C815"/>
<rect width="2.13333" height="2.13333" transform="matrix(-1 0 0 1 53.3335 34.1333)" fill="#F5C815"/>
<rect width="2.13334" height="2.13334" transform="matrix(-1 0 0 1 51.2002 36.2667)" fill="#F5C815"/>
<rect width="2.13334" height="2.13333" transform="matrix(-1 0 0 1 55.4668 34.1333)" fill="#F5C815"/>
<rect width="2.13333" height="2.13333" transform="matrix(-1 0 0 1 19.2002 38.4)" fill="#F5C815"/>
<rect width="2.13333" height="2.13333" transform="matrix(-1 0 0 1 17.0669 38.4)" fill="#F5C815"/>
<rect width="2.13333" height="2.13333" transform="matrix(-1 0 0 1 17.0669 34.1333)" fill="#4A2107"/>
<rect width="2.13333" height="2.13334" transform="matrix(-1 0 0 1 36.2666 36.2667)" fill="#F5C815"/>
<rect width="2.13333" height="2.13333" transform="matrix(-1 0 0 1 25.6001 38.4)" fill="#DDA70F"/>
<rect width="2.13333" height="2.13333" transform="matrix(-1 0 0 1 36.2666 38.4)" fill="#DDA70F"/>
<rect width="2.13333" height="2.13333" transform="matrix(-1 0 0 1 27.7334 25.6)" fill="#7B9C04"/>
<rect width="2.13333" height="2.13333" transform="matrix(-1 0 0 1 27.7334 23.4667)" fill="#160A03"/>
<rect width="2.13333" height="2.13333" transform="matrix(-1 0 0 1 40.5332 23.4667)" fill="#4A2107"/>
<rect width="2.13333" height="2.13333" transform="matrix(-1 0 0 1 27.7334 21.3334)" fill="#4A2107"/>
<rect width="2.13333" height="2.13333" transform="matrix(-1 0 0 1 40.5332 21.3334)" fill="#160A03"/>
<rect width="2.13333" height="2.13333" transform="matrix(-1 0 0 1 27.7334 19.2)" fill="#4A2107"/>
<rect width="2.13333" height="2.13333" transform="matrix(-1 0 0 1 27.7334 17.0667)" fill="#994916"/>
<rect width="2.13333" height="2.13333" transform="matrix(-1 0 0 1 27.7334 14.9333)" fill="#160A03"/>
<rect width="2.13333" height="2.13333" transform="matrix(-1 0 0 1 40.5332 19.2)" fill="#160A03"/>
<rect width="2.13333" height="2.13333" transform="matrix(-1 0 0 1 40.5332 17.0667)" fill="#4A2107"/>
<rect width="2.13333" height="2.13333" transform="matrix(-1 0 0 1 40.5332 14.9333)" fill="#160A03"/>
<rect width="2.13334" height="2.13333" transform="matrix(-1 0 0 1 38.3999 25.6)" fill="#4A2107"/>
<rect width="2.13333" height="2.13333" transform="matrix(-1 0 0 1 27.7334 27.7333)" fill="#994916"/>
<rect width="2.13334" height="2.13333" transform="matrix(-1 0 0 1 38.3999 27.7333)" fill="#994916"/>
<rect width="2.13333" height="2.13333" transform="matrix(-1 0 0 1 27.7334 29.8667)" fill="#4A2107"/>
<rect width="2.13334" height="2.13333" transform="matrix(-1 0 0 1 38.3999 29.8667)" fill="#F5C815"/>
<rect width="2.13333" height="2.13334" transform="matrix(-1 0 0 1 27.7334 32)" fill="#160A03"/>
<rect width="2.13334" height="2.13334" transform="matrix(-1 0 0 1 38.3999 32)" fill="#DDA70F"/>
<rect width="2.13333" height="2.13333" transform="matrix(-1 0 0 1 27.7334 34.1333)" fill="#DDA70F"/>
<rect width="2.13334" height="2.13333" transform="matrix(-1 0 0 1 38.3999 34.1333)" fill="#F5C815"/>
<rect width="2.13333" height="2.13334" transform="matrix(-1 0 0 1 27.7334 36.2667)" fill="#F5C815"/>
<rect width="2.13334" height="2.13334" transform="matrix(-1 0 0 1 38.3999 36.2667)" fill="#DDA70F"/>
<rect width="2.13333" height="2.13333" transform="matrix(-1 0 0 1 27.7334 38.4)" fill="#DDA70F"/>
<rect width="2.13334" height="2.13333" transform="matrix(-1 0 0 1 38.3999 38.4)" fill="#F5C815"/>
<rect width="2.13333" height="2.13333" transform="matrix(-1 0 0 1 29.8667 25.6)" fill="#D6CF6E"/>
<rect width="2.13333" height="2.13333" transform="matrix(-1 0 0 1 29.8667 23.4667)" fill="#7B9C04"/>
<rect width="2.13334" height="2.13333" transform="matrix(-1 0 0 1 42.6665 23.4667)" fill="#994916"/>
<rect width="2.13333" height="2.13333" transform="matrix(-1 0 0 1 29.8667 21.3334)" fill="#4A2107"/>
<rect width="2.13334" height="2.13333" transform="matrix(-1 0 0 1 42.6665 21.3334)" fill="#160A03"/>
<rect width="2.13333" height="2.13333" transform="matrix(-1 0 0 1 29.8667 19.2)" fill="#160A03"/>
<rect width="2.13333" height="2.13333" transform="matrix(-1 0 0 1 29.8667 17.0667)" fill="#994916"/>
<rect width="2.13333" height="2.13333" transform="matrix(-1 0 0 1 29.8667 14.9333)" fill="#4A2107"/>
<rect width="2.13334" height="2.13333" transform="matrix(-1 0 0 1 42.6665 19.2)" fill="#4A2107"/>
<rect width="2.13334" height="2.13333" transform="matrix(-1 0 0 1 42.6665 17.0667)" fill="#4A2107"/>
<rect width="2.13334" height="2.13333" transform="matrix(-1 0 0 1 42.6665 14.9333)" fill="#160A03"/>
<rect width="2.13333" height="2.13333" transform="matrix(-1 0 0 1 40.5332 25.6)" fill="#4A2107"/>
<rect width="2.13333" height="2.13333" transform="matrix(-1 0 0 1 44.7998 25.6)" fill="#F5C815"/>
<rect width="2.13333" height="2.13333" transform="matrix(-1 0 0 1 49.0669 23.4667)" fill="#DDA70F"/>
<rect width="2.13333" height="2.13333" transform="matrix(-1 0 0 1 29.8667 27.7333)" fill="#7B9C04"/>
<rect width="2.13333" height="2.13333" transform="matrix(-1 0 0 1 40.5332 27.7333)" fill="#4A2107"/>
<rect width="2.13333" height="2.13333" transform="matrix(-1 0 0 1 44.7998 27.7333)" fill="#DDA70F"/>
<rect width="2.13333" height="2.13333" transform="matrix(-1 0 0 1 49.0669 25.6)" fill="#F5C815"/>
<rect width="2.13333" height="2.13333" transform="matrix(-1 0 0 1 29.8667 29.8667)" fill="#160A03"/>
<rect width="2.13333" height="2.13333" transform="matrix(-1 0 0 1 40.5332 29.8667)" fill="#F5C815"/>
<rect width="2.13333" height="2.13333" transform="matrix(-1 0 0 1 44.7998 29.8667)" fill="#F5C815"/>
<rect width="2.13333" height="2.13333" transform="matrix(-1 0 0 1 49.0669 27.7333)" fill="#DDA70F"/>
<rect width="2.13333" height="2.13334" transform="matrix(-1 0 0 1 29.8667 32)" fill="#4A2107"/>
<rect width="2.13333" height="2.13334" transform="matrix(-1 0 0 1 40.5332 32)" fill="#DDA70F"/>
<rect width="2.13333" height="2.13334" transform="matrix(-1 0 0 1 44.7998 32)" fill="#F5C815"/>
<rect width="2.13333" height="2.13333" transform="matrix(-1 0 0 1 49.0669 29.8667)" fill="#F5C815"/>
<rect width="2.13333" height="2.13333" transform="matrix(-1 0 0 1 29.8667 34.1333)" fill="#DDA70F"/>
<rect width="2.13333" height="2.13333" transform="matrix(-1 0 0 1 40.5332 34.1333)" fill="#F5C815"/>
<rect width="2.13333" height="2.13333" transform="matrix(-1 0 0 1 44.7998 34.1333)" fill="#DDA70F"/>
<rect width="2.13333" height="2.13334" transform="matrix(-1 0 0 1 49.0669 32)" fill="#DDA70F"/>
<rect width="2.13333" height="2.13334" transform="matrix(-1 0 0 1 29.8667 36.2667)" fill="#F5C815"/>
<rect width="2.13333" height="2.13334" transform="matrix(-1 0 0 1 40.5332 36.2667)" fill="#DDA70F"/>
<rect width="2.13333" height="2.13334" transform="matrix(-1 0 0 1 44.7998 36.2667)" fill="#F5C815"/>
<rect width="2.13333" height="2.13333" transform="matrix(-1 0 0 1 49.0669 34.1333)" fill="#F5C815"/>
<rect width="2.13333" height="2.13333" transform="matrix(-1 0 0 1 29.8667 38.4)" fill="#DDA70F"/>
<rect width="2.13333" height="2.13333" transform="matrix(-1 0 0 1 40.5332 38.4)" fill="#F5C815"/>
<rect width="2.13333" height="2.13333" transform="matrix(-1 0 0 1 32 25.6)" fill="#D6CF6E"/>
<rect width="2.13333" height="2.13333" transform="matrix(-1 0 0 1 32 23.4667)" fill="#4A2107"/>
<rect width="2.13333" height="2.13333" transform="matrix(-1 0 0 1 44.7998 23.4667)" fill="#160A03"/>
<rect width="2.13333" height="2.13333" transform="matrix(-1 0 0 1 32 21.3334)" fill="#160A03"/>
<rect width="2.13333" height="2.13333" transform="matrix(-1 0 0 1 44.7998 21.3334)" fill="#4A2107"/>
<rect width="2.13333" height="2.13333" transform="matrix(-1 0 0 1 32 19.2)" fill="#4A2107"/>
<rect width="2.13333" height="2.13333" transform="matrix(-1 0 0 1 32 17.0667)" fill="#4A2107"/>
<rect width="2.13333" height="2.13333" transform="matrix(-1 0 0 1 32 14.9333)" fill="#160A03"/>
<rect width="2.13333" height="2.13333" transform="matrix(-1 0 0 1 44.7998 19.2)" fill="#160A03"/>
<rect width="2.13333" height="2.13333" transform="matrix(-1 0 0 1 44.7998 17.0667)" fill="#4A2107"/>
<rect width="2.13334" height="2.13333" transform="matrix(-1 0 0 1 42.6665 25.6)" fill="#160A03"/>
<rect width="2.13334" height="2.13333" transform="matrix(-1 0 0 1 46.9331 25.6)" fill="#F5C815"/>
<rect width="2.13334" height="2.13333" transform="matrix(-1 0 0 1 51.2002 23.4667)" fill="#F5C815"/>
<rect width="2.13333" height="2.13333" transform="matrix(-1 0 0 1 53.3335 23.4667)" fill="#F5C815"/>
<rect width="2.13334" height="2.13333" transform="matrix(-1 0 0 1 55.4668 23.4667)" fill="#F5C815"/>
<rect width="2.13333" height="2.13333" transform="matrix(-1 0 0 1 32 27.7333)" fill="#4A2107"/>
<rect width="2.13334" height="2.13333" transform="matrix(-1 0 0 1 42.6665 27.7333)" fill="#F5C815"/>
<rect width="2.13334" height="2.13333" transform="matrix(-1 0 0 1 46.9331 27.7333)" fill="#DDA70F"/>
<rect width="2.13334" height="2.13333" transform="matrix(-1 0 0 1 51.2002 25.6)" fill="#DDA70F"/>
<rect width="2.13333" height="2.13333" transform="matrix(-1 0 0 1 53.3335 25.6)" fill="#DDA70F"/>
<rect width="2.13334" height="2.13333" transform="matrix(-1 0 0 1 55.4668 25.6)" fill="#DDA70F"/>
<rect width="2.13333" height="2.13333" transform="matrix(-1 0 0 1 32 29.8667)" fill="#4A2107"/>
<rect width="2.13334" height="2.13333" transform="matrix(-1 0 0 1 42.6665 29.8667)" fill="#DDA70F"/>
<rect width="2.13334" height="2.13333" transform="matrix(-1 0 0 1 46.9331 29.8667)" fill="#F5C815"/>
<rect width="2.13334" height="2.13333" transform="matrix(-1 0 0 1 51.2002 27.7333)" fill="#F5C815"/>
<rect width="2.13333" height="2.13333" transform="matrix(-1 0 0 1 53.3335 27.7333)" fill="#F5C815"/>
<rect width="2.13334" height="2.13333" transform="matrix(-1 0 0 1 55.4668 27.7333)" fill="#F5C815"/>
<rect width="2.13333" height="2.13334" transform="matrix(-1 0 0 1 32 32)" fill="#DDA70F"/>
<rect width="2.13334" height="2.13334" transform="matrix(-1 0 0 1 42.6665 32)" fill="#F5C815"/>
<rect width="2.13334" height="2.13334" transform="matrix(-1 0 0 1 46.9331 32)" fill="#F5C815"/>
<rect width="2.13334" height="2.13333" transform="matrix(-1 0 0 1 51.2002 29.8667)" fill="#F5C815"/>
<rect width="2.13333" height="2.13333" transform="matrix(-1 0 0 1 53.3335 29.8667)" fill="#F5C815"/>
<rect width="2.13334" height="2.13333" transform="matrix(-1 0 0 1 55.4668 29.8667)" fill="#F5C815"/>
<rect width="2.13333" height="2.13333" transform="matrix(-1 0 0 1 32 34.1333)" fill="#F5C815"/>
<rect width="2.13334" height="2.13333" transform="matrix(-1 0 0 1 42.6665 34.1333)" fill="#F5C815"/>
<rect width="2.13334" height="2.13333" transform="matrix(-1 0 0 1 46.9331 34.1333)" fill="#DDA70F"/>
<rect width="2.13334" height="2.13334" transform="matrix(-1 0 0 1 51.2002 32)" fill="#DDA70F"/>
<rect width="2.13333" height="2.13334" transform="matrix(-1 0 0 1 53.3335 32)" fill="#DDA70F"/>
<rect width="2.13334" height="2.13334" transform="matrix(-1 0 0 1 55.4668 32)" fill="#DDA70F"/>
<rect width="2.13333" height="2.13334" transform="matrix(-1 0 0 1 32 36.2667)" fill="#F5C815"/>
<rect width="2.13334" height="2.13334" transform="matrix(-1 0 0 1 42.6665 36.2667)" fill="#DDA70F"/>
<rect width="2.13334" height="2.13334" transform="matrix(-1 0 0 1 46.9331 36.2667)" fill="#F5C815"/>
<rect width="2.13334" height="2.13333" transform="matrix(-1 0 0 1 51.2002 34.1333)" fill="#F5C815"/>
<rect width="2.13333" height="2.13333" transform="matrix(-1 0 0 1 32 38.4)" fill="#DDA70F"/>
<rect width="2.13334" height="2.13333" transform="matrix(-1 0 0 1 42.6665 38.4)" fill="#F5C815"/>
<rect x="40.5332" y="55.4667" width="2.13334" height="2.13333" fill="white"/>
<rect x="42.6665" y="55.4667" width="2.13333" height="2.13333" fill="white"/>
<rect x="42.6665" y="57.6" width="2.13333" height="2.13334" fill="#B0BEC5"/>
<rect x="44.7998" y="53.3334" width="2.13334" height="2.13334" fill="white"/>
<rect x="46.9331" y="51.2" width="2.13333" height="2.13333" fill="white"/>
<rect x="49.0669" y="49.0667" width="2.13334" height="2.13334" fill="white"/>
<rect x="51.2002" y="46.9333" width="2.13333" height="2.13333" fill="white"/>
<rect x="53.3335" y="44.8" width="2.13334" height="2.13334" fill="white"/>
<rect x="55.4668" y="42.6666" width="2.13333" height="2.13333" fill="white"/>
<rect x="57.6001" y="42.6666" width="2.13334" height="2.13333" fill="#B0BEC5"/>
<rect x="44.7998" y="55.4667" width="2.13334" height="2.13333" fill="white"/>
<rect x="44.7998" y="57.6" width="2.13334" height="2.13334" fill="#B0BEC5"/>
<rect x="46.9331" y="55.4667" width="2.13333" height="2.13333" fill="#B0BEC5"/>
<rect x="46.9331" y="53.3334" width="2.13333" height="2.13334" fill="white"/>
<rect x="49.0669" y="53.3334" width="2.13334" height="2.13334" fill="#B0BEC5"/>
<rect x="49.0669" y="51.2" width="2.13334" height="2.13333" fill="white"/>
<rect x="51.2002" y="51.2" width="2.13333" height="2.13333" fill="#B0BEC5"/>
<rect x="51.2002" y="49.0667" width="2.13333" height="2.13334" fill="white"/>
<rect x="53.3335" y="49.0667" width="2.13334" height="2.13334" fill="#B0BEC5"/>
<rect x="53.3335" y="46.9333" width="2.13334" height="2.13333" fill="white"/>
<rect x="55.4668" y="46.9333" width="2.13333" height="2.13333" fill="#B0BEC5"/>
<rect x="55.4668" y="44.8" width="2.13333" height="2.13334" fill="white"/>
<rect x="57.6001" y="44.8" width="2.13334" height="2.13334" fill="#B0BEC5"/>
<rect x="55.4668" y="40.5333" width="2.13333" height="2.13334" fill="white"/>
<rect x="57.6001" y="40.5333" width="2.13334" height="2.13334" fill="white"/>
<rect x="59.7334" y="40.5333" width="2.13333" height="2.13334" fill="#B0BEC5"/>
<rect x="57.6001" y="38.4" width="2.13334" height="2.13333" fill="white"/>
<rect x="59.7334" y="38.4" width="2.13333" height="2.13333" fill="white"/>
<rect x="61.8667" y="38.4" width="2.13334" height="2.13333" fill="#B0BEC5"/>
<rect x="59.7334" y="36.2667" width="2.13333" height="2.13334" fill="white"/>
<rect x="61.8667" y="36.2667" width="2.13334" height="2.13334" fill="#B0BEC5"/>
<rect x="59.7334" y="34.1333" width="2.13333" height="2.13333" fill="white"/>
<rect x="61.8667" y="34.1333" width="2.13334" height="2.13333" fill="#B0BEC5"/>
<rect x="59.7334" y="32" width="2.13333" height="2.13334" fill="white"/>
<rect x="61.8667" y="32" width="2.13334" height="2.13334" fill="#B0BEC5"/>
<rect x="59.7334" y="29.8667" width="2.13333" height="2.13333" fill="white"/>
<rect x="61.8667" y="29.8667" width="2.13334" height="2.13333" fill="#B0BEC5"/>
<rect x="59.7334" y="27.7333" width="2.13333" height="2.13333" fill="white"/>
<rect x="61.8667" y="27.7333" width="2.13334" height="2.13333" fill="#B0BEC5"/>
<rect x="59.7334" y="25.6" width="2.13333" height="2.13333" fill="white"/>
<rect x="61.8667" y="25.6" width="2.13334" height="2.13333" fill="#B0BEC5"/>
<rect x="59.7334" y="23.4667" width="2.13333" height="2.13333" fill="white"/>
<rect x="61.8667" y="23.4667" width="2.13334" height="2.13333" fill="#B0BEC5"/>
<rect x="59.7334" y="21.3334" width="2.13333" height="2.13333" fill="white"/>
<rect x="61.8667" y="21.3334" width="2.13334" height="2.13333" fill="#B0BEC5"/>
<rect x="59.7334" y="19.2" width="2.13333" height="2.13333" fill="white"/>
<rect x="61.8667" y="19.2" width="2.13334" height="2.13333" fill="#B0BEC5"/>
<rect x="59.7334" y="17.0667" width="2.13333" height="2.13333" fill="white"/>
<rect x="61.8667" y="17.0667" width="2.13334" height="2.13333" fill="#B0BEC5"/>
<rect x="59.7334" y="14.9333" width="2.13333" height="2.13333" fill="#B0BEC5"/>
<rect x="57.6001" y="14.9333" width="2.13334" height="2.13333" fill="white"/>
<rect x="57.6001" y="12.8" width="2.13334" height="2.13333" fill="#B0BEC5"/>
<rect x="55.4668" y="12.8" width="2.13333" height="2.13333" fill="white"/>
<rect x="55.4668" y="10.6666" width="2.13333" height="2.13333" fill="#B0BEC5"/>
<rect x="53.3335" y="10.6666" width="2.13334" height="2.13333" fill="white"/>
<rect x="53.3335" y="8.53333" width="2.13334" height="2.13333" fill="#B0BEC5"/>
<rect x="51.2002" y="8.53333" width="2.13333" height="2.13333" fill="white"/>
<rect x="51.2002" y="6.40002" width="2.13333" height="2.13333" fill="#B0BEC5"/>
<rect x="46.9331" y="6.40002" width="2.13333" height="2.13333" fill="white"/>
<rect x="46.9331" y="4.26672" width="2.13333" height="2.13333" fill="#B0BEC5"/>
<rect x="42.6665" y="4.26672" width="2.13333" height="2.13333" fill="white"/>
<rect x="36.2666" y="4.26672" width="2.13334" height="2.13333" fill="white"/>
<rect x="29.8667" y="4.26672" width="2.13333" height="2.13333" fill="white"/>
<rect x="23.4668" y="4.26672" width="2.13333" height="2.13333" fill="white"/>
<rect x="19.2002" y="6.40002" width="2.13333" height="2.13333" fill="white"/>
<rect x="14.9331" y="8.53333" width="2.13333" height="2.13333" fill="white"/>
<rect x="57.6001" y="17.0667" width="2.13334" height="2.13333" fill="white"/>
<rect x="55.4668" y="14.9333" width="2.13333" height="2.13333" fill="white"/>
<rect x="53.3335" y="12.8" width="2.13334" height="2.13333" fill="white"/>
<rect x="51.2002" y="10.6666" width="2.13333" height="2.13333" fill="white"/>
<rect x="49.0669" y="8.53333" width="2.13334" height="2.13333" fill="white"/>
<rect x="49.0669" y="6.40002" width="2.13334" height="2.13333" fill="#B0BEC5"/>
<rect x="44.7998" y="6.40002" width="2.13334" height="2.13333" fill="white"/>
<rect x="44.7998" y="4.26672" width="2.13334" height="2.13333" fill="#B0BEC5"/>
<rect x="40.5332" y="4.26672" width="2.13334" height="2.13333" fill="white"/>
<rect x="34.1333" y="4.26672" width="2.13333" height="2.13333" fill="white"/>
<rect x="27.7334" y="4.26672" width="2.13333" height="2.13333" fill="white"/>
<rect x="21.3335" y="4.26672" width="2.13333" height="2.13333" fill="white"/>
<rect x="17.0669" y="6.40002" width="2.13333" height="2.13333" fill="white"/>
<rect x="17.0669" y="4.26672" width="2.13333" height="2.13333" fill="#B0BEC5"/>
<rect x="12.7998" y="8.53333" width="2.13333" height="2.13333" fill="white"/>
<rect x="12.7998" y="6.40002" width="2.13333" height="2.13333" fill="#B0BEC5"/>
<rect x="10.6665" y="10.6666" width="2.13333" height="2.13333" fill="white"/>
<rect x="8.5332" y="12.8" width="2.13333" height="2.13333" fill="white"/>
<rect x="6.3999" y="14.9333" width="2.13333" height="2.13333" fill="white"/>
<rect x="4.2666" y="17.0667" width="2.13333" height="2.13333" fill="white"/>
<rect x="46.9331" y="8.53333" width="2.13333" height="2.13333" fill="white"/>
<rect x="42.6665" y="6.40002" width="2.13333" height="2.13333" fill="white"/>
<rect x="38.3999" y="4.26672" width="2.13333" height="2.13333" fill="white"/>
<rect x="32" y="4.26672" width="2.13334" height="2.13333" fill="white"/>
<rect x="25.6001" y="4.26672" width="2.13333" height="2.13333" fill="white"/>
<rect x="19.2002" y="4.26672" width="2.13333" height="2.13333" fill="white"/>
<rect x="19.2002" y="2.1333" width="2.13333" height="2.13333" fill="#B0BEC5"/>
<rect x="21.3335" y="2.1333" width="2.13333" height="2.13333" fill="#B0BEC5"/>
<rect x="23.4668" y="2.1333" width="2.13333" height="2.13333" fill="#B0BEC5"/>
<rect x="25.6001" y="2.1333" width="2.13333" height="2.13333" fill="#B0BEC5"/>
<rect x="27.7334" y="2.1333" width="2.13333" height="2.13333" fill="#B0BEC5"/>
<rect x="29.8667" y="2.1333" width="2.13333" height="2.13333" fill="#B0BEC5"/>
<rect x="32" y="2.1333" width="2.13334" height="2.13333" fill="#B0BEC5"/>
<rect x="34.1333" y="2.1333" width="2.13333" height="2.13333" fill="#B0BEC5"/>
<rect x="36.2666" y="2.1333" width="2.13334" height="2.13333" fill="#B0BEC5"/>
<rect x="38.3999" y="2.1333" width="2.13333" height="2.13333" fill="#B0BEC5"/>
<rect x="40.5332" y="2.1333" width="2.13334" height="2.13333" fill="#B0BEC5"/>
<rect x="42.6665" y="2.1333" width="2.13333" height="2.13333" fill="#B0BEC5"/>
<rect x="14.9331" y="6.40002" width="2.13333" height="2.13333" fill="white"/>
<rect x="14.9331" y="4.26672" width="2.13333" height="2.13333" fill="#B0BEC5"/>
<rect x="10.6665" y="8.53333" width="2.13333" height="2.13333" fill="white"/>
<rect x="10.6665" y="6.40002" width="2.13333" height="2.13333" fill="#B0BEC5"/>
<rect x="8.5332" y="8.53333" width="2.13333" height="2.13333" fill="#B0BEC5"/>
<rect x="8.5332" y="10.6666" width="2.13333" height="2.13333" fill="white"/>
<rect x="6.3999" y="10.6666" width="2.13333" height="2.13333" fill="#B0BEC5"/>
<rect x="6.3999" y="12.8" width="2.13333" height="2.13333" fill="white"/>
<rect x="4.2666" y="12.8" width="2.13333" height="2.13333" fill="#B0BEC5"/>
<rect x="4.2666" y="14.9333" width="2.13333" height="2.13333" fill="white"/>
<rect x="2.1333" y="14.9333" width="2.13333" height="2.13333" fill="#B0BEC5"/>
<rect x="2.1333" y="17.0667" width="2.13333" height="2.13333" fill="white"/>
<rect y="17.0667" width="2.13333" height="2.13333" fill="#B0BEC5"/>
<rect x="2.1333" y="19.2" width="2.13333" height="2.13333" fill="white"/>
<rect y="19.2" width="2.13333" height="2.13333" fill="#B0BEC5"/>
<rect x="2.1333" y="21.3334" width="2.13333" height="2.13333" fill="white"/>
<rect y="21.3334" width="2.13333" height="2.13333" fill="#B0BEC5"/>
<rect x="2.1333" y="23.4667" width="2.13333" height="2.13333" fill="white"/>
<rect y="23.4667" width="2.13333" height="2.13333" fill="#B0BEC5"/>
<rect x="2.1333" y="25.6" width="2.13333" height="2.13333" fill="white"/>
<rect y="25.6" width="2.13333" height="2.13333" fill="#B0BEC5"/>
<rect x="2.1333" y="27.7333" width="2.13333" height="2.13333" fill="white"/>
<rect y="27.7333" width="2.13333" height="2.13333" fill="#B0BEC5"/>
<rect x="2.1333" y="29.8667" width="2.13333" height="2.13333" fill="white"/>
<rect y="29.8667" width="2.13333" height="2.13333" fill="#B0BEC5"/>
<rect x="2.1333" y="32" width="2.13333" height="2.13334" fill="white"/>
<rect y="32" width="2.13333" height="2.13334" fill="#B0BEC5"/>
<rect x="2.1333" y="34.1333" width="2.13333" height="2.13333" fill="white"/>
<rect y="34.1333" width="2.13333" height="2.13333" fill="#B0BEC5"/>
<rect x="2.1333" y="36.2667" width="2.13333" height="2.13334" fill="white"/>
<rect y="36.2667" width="2.13333" height="2.13334" fill="#B0BEC5"/>
<rect x="2.1333" y="38.4" width="2.13333" height="2.13333" fill="white"/>
<rect y="38.4" width="2.13333" height="2.13333" fill="#B0BEC5"/>
<rect x="4.2666" y="40.5333" width="2.13333" height="2.13334" fill="white"/>
<rect x="2.1333" y="40.5333" width="2.13333" height="2.13334" fill="#B0BEC5"/>
<rect x="4.2666" y="38.4" width="2.13333" height="2.13333" fill="white"/>
<rect x="6.3999" y="40.5333" width="2.13333" height="2.13334" fill="white"/>
<rect x="6.3999" y="42.6666" width="2.13333" height="2.13333" fill="white"/>
<rect x="4.2666" y="42.6666" width="2.13333" height="2.13333" fill="#B0BEC5"/>
<rect x="6.3999" y="44.8" width="2.13333" height="2.13334" fill="white"/>
<rect x="4.2666" y="44.8" width="2.13333" height="2.13334" fill="#B0BEC5"/>
<rect x="6.3999" y="46.9333" width="2.13333" height="2.13333" fill="#B0BEC5"/>
<rect x="8.5332" y="46.9333" width="2.13333" height="2.13333" fill="white"/>
<rect x="8.5332" y="49.0667" width="2.13333" height="2.13334" fill="#B0BEC5"/>
<rect x="10.6665" y="49.0667" width="2.13333" height="2.13334" fill="white"/>
<rect x="10.6665" y="51.2" width="2.13333" height="2.13333" fill="#B0BEC5"/>
<rect x="12.7998" y="51.2" width="2.13333" height="2.13333" fill="white"/>
<rect x="12.7998" y="53.3334" width="2.13333" height="2.13334" fill="#B0BEC5"/>
<rect x="14.9331" y="53.3334" width="2.13333" height="2.13334" fill="white"/>
<rect x="14.9331" y="55.4667" width="2.13333" height="2.13333" fill="#B0BEC5"/>
<rect x="17.0669" y="55.4667" width="2.13333" height="2.13333" fill="white"/>
<rect x="17.0669" y="57.6" width="2.13333" height="2.13334" fill="#B0BEC5"/>
<rect x="8.5332" y="44.8" width="2.13333" height="2.13334" fill="white"/>
<rect x="10.6665" y="46.9333" width="2.13333" height="2.13333" fill="white"/>
<rect x="12.7998" y="49.0667" width="2.13333" height="2.13334" fill="white"/>
<rect x="14.9331" y="51.2" width="2.13333" height="2.13333" fill="white"/>
<rect x="17.0669" y="53.3334" width="2.13333" height="2.13334" fill="white"/>
<rect x="19.2002" y="55.4667" width="2.13333" height="2.13333" fill="white"/>
<rect x="19.2002" y="57.6" width="2.13333" height="2.13334" fill="#B0BEC5"/>
<rect x="21.3335" y="55.4667" width="2.13333" height="2.13333" fill="white"/>
<rect x="21.3335" y="57.6" width="2.13333" height="2.13334" fill="white"/>
<rect x="21.3335" y="59.7333" width="2.13333" height="2.13333" fill="#B0BEC5"/>
<rect x="23.4668" y="57.6" width="2.13333" height="2.13334" fill="white"/>
<rect x="23.4668" y="59.7333" width="2.13333" height="2.13333" fill="#B0BEC5"/>
<rect x="25.6001" y="57.6" width="2.13333" height="2.13334" fill="white"/>
<rect x="25.6001" y="59.7333" width="2.13333" height="2.13333" fill="#B0BEC5"/>
<rect x="27.7334" y="57.6" width="2.13333" height="2.13334" fill="white"/>
<rect x="27.7334" y="59.7333" width="2.13333" height="2.13333" fill="#B0BEC5"/>
<rect x="29.8667" y="57.6" width="2.13333" height="2.13334" fill="white"/>
<rect x="29.8667" y="59.7333" width="2.13333" height="2.13333" fill="#B0BEC5"/>
<rect x="32" y="57.6" width="2.13334" height="2.13334" fill="white"/>
<rect x="32" y="59.7333" width="2.13334" height="2.13333" fill="#B0BEC5"/>
<rect x="34.1333" y="57.6" width="2.13333" height="2.13334" fill="white"/>
<rect x="34.1333" y="59.7333" width="2.13333" height="2.13333" fill="#B0BEC5"/>
<rect x="36.2666" y="57.6" width="2.13334" height="2.13334" fill="white"/>
<rect x="36.2666" y="59.7333" width="2.13334" height="2.13333" fill="#B0BEC5"/>
<rect x="38.3999" y="57.6" width="2.13333" height="2.13334" fill="white"/>
<rect x="38.3999" y="59.7333" width="2.13333" height="2.13333" fill="#B0BEC5"/>
<rect x="40.5332" y="57.6" width="2.13334" height="2.13334" fill="white"/>
<rect x="40.5332" y="59.7333" width="2.13334" height="2.13333" fill="#B0BEC5"/>
</svg>
