<svg width="64" height="64" viewBox="0 0 64 64" fill="none" xmlns="http://www.w3.org/2000/svg">
<g id="Icons/Menu/Main">
<rect id="Rectangle 9754" x="11.7334" y="28.8" width="2.13333" height="2.13333" fill="#FFA202"/>
<rect id="Rectangle 9854" x="30.9331" y="28.8" width="2.13333" height="2.13333" fill="#FFA202"/>
<rect id="Rectangle 9935" x="50.1333" y="28.8" width="2.13333" height="2.13333" fill="#FFA202"/>
<rect id="Rectangle 9755" x="11.7334" y="26.6667" width="2.13333" height="2.13333" fill="#FFA202"/>
<rect id="Rectangle 9855" x="30.9331" y="26.6667" width="2.13333" height="2.13333" fill="#FFA202"/>
<rect id="Rectangle 9936" x="50.1333" y="26.6667" width="2.13333" height="2.13333" fill="#FFA202"/>
<rect id="Rectangle 9757" x="11.7334" y="24.5334" width="2.13333" height="2.13333" fill="black"/>
<rect id="Rectangle 9856" x="30.9331" y="24.5334" width="2.13333" height="2.13333" fill="black"/>
<rect id="Rectangle 9937" x="50.1333" y="24.5334" width="2.13333" height="2.13333" fill="black"/>
<rect id="Rectangle 9758" x="11.7334" y="22.3999" width="2.13333" height="2.13333" fill="white"/>
<rect id="Rectangle 10016" x="11.7334" y="20.2666" width="2.13333" height="2.13333" fill="#B0BEC5"/>
<rect id="Rectangle 10052" x="11.7334" y="41.6001" width="2.13333" height="2.13334" fill="#B0BEC5"/>
<rect id="Rectangle 9857" x="30.9331" y="22.3999" width="2.13333" height="2.13333" fill="white"/>
<rect id="Rectangle 10017" x="30.9331" y="20.2666" width="2.13333" height="2.13333" fill="#B0BEC5"/>
<rect id="Rectangle 10053" x="30.9331" y="41.6001" width="2.13333" height="2.13334" fill="#B0BEC5"/>
<rect id="Rectangle 9938" x="50.1333" y="22.3999" width="2.13333" height="2.13333" fill="white"/>
<rect id="Rectangle 10018" x="50.1333" y="20.2666" width="2.13333" height="2.13333" fill="#B0BEC5"/>
<rect id="Rectangle 10054" x="50.1333" y="41.6001" width="2.13333" height="2.13334" fill="#B0BEC5"/>
<rect id="Rectangle 9759" x="11.7334" y="37.3333" width="2.13333" height="2.13334" fill="black"/>
<rect id="Rectangle 9858" x="30.9331" y="37.3333" width="2.13333" height="2.13334" fill="black"/>
<rect id="Rectangle 9939" x="50.1333" y="37.3333" width="2.13333" height="2.13334" fill="black"/>
<rect id="Rectangle 9760" x="11.7334" y="35.2" width="2.13333" height="2.13333" fill="#FF5601"/>
<rect id="Rectangle 9859" x="30.9331" y="35.2" width="2.13333" height="2.13333" fill="#FF5601"/>
<rect id="Rectangle 9940" x="50.1333" y="35.2" width="2.13333" height="2.13333" fill="#FF5601"/>
<rect id="Rectangle 9761" x="9.6001" y="28.8" width="2.13333" height="2.13333" fill="#FFA202"/>
<rect id="Rectangle 9860" x="28.7998" y="28.8" width="2.13333" height="2.13333" fill="#FFA202"/>
<rect id="Rectangle 9941" x="48" y="28.8" width="2.13334" height="2.13333" fill="#FFA202"/>
<rect id="Rectangle 9762" x="7.4668" y="28.8" width="2.13333" height="2.13333" fill="#FFC30B"/>
<rect id="Rectangle 9861" x="26.6665" y="28.8" width="2.13333" height="2.13333" fill="#FFC30B"/>
<rect id="Rectangle 9942" x="45.8667" y="28.8" width="2.13334" height="2.13333" fill="#FFC30B"/>
<rect id="Rectangle 9764" x="7.4668" y="26.6667" width="2.13333" height="2.13333" fill="#FFC30B"/>
<rect id="Rectangle 9862" x="26.6665" y="26.6667" width="2.13333" height="2.13333" fill="#FFC30B"/>
<rect id="Rectangle 9943" x="45.8667" y="26.6667" width="2.13334" height="2.13333" fill="#FFC30B"/>
<rect id="Rectangle 9765" x="9.6001" y="26.6667" width="2.13333" height="2.13333" fill="#FFC30B"/>
<rect id="Rectangle 9863" x="28.7998" y="26.6667" width="2.13333" height="2.13333" fill="#FFC30B"/>
<rect id="Rectangle 9944" x="48" y="26.6667" width="2.13334" height="2.13333" fill="#FFC30B"/>
<rect id="Rectangle 9766" x="9.6001" y="24.5334" width="2.13333" height="2.13333" fill="black"/>
<rect id="Rectangle 9864" x="28.7998" y="24.5334" width="2.13333" height="2.13333" fill="black"/>
<rect id="Rectangle 9945" x="48" y="24.5334" width="2.13334" height="2.13333" fill="black"/>
<rect id="Rectangle 9767" x="9.6001" y="22.3999" width="2.13333" height="2.13333" fill="white"/>
<rect id="Rectangle 10019" x="9.6001" y="20.2666" width="2.13333" height="2.13333" fill="#B0BEC5"/>
<rect id="Rectangle 10055" x="9.6001" y="41.6001" width="2.13333" height="2.13334" fill="#B0BEC5"/>
<rect id="Rectangle 9865" x="28.7998" y="22.3999" width="2.13333" height="2.13333" fill="white"/>
<rect id="Rectangle 10020" x="28.7998" y="20.2666" width="2.13333" height="2.13333" fill="#B0BEC5"/>
<rect id="Rectangle 10056" x="28.7998" y="41.6001" width="2.13333" height="2.13334" fill="#B0BEC5"/>
<rect id="Rectangle 9946" x="48" y="22.3999" width="2.13334" height="2.13333" fill="white"/>
<rect id="Rectangle 10021" x="48" y="20.2666" width="2.13334" height="2.13333" fill="#B0BEC5"/>
<rect id="Rectangle 10057" x="48" y="41.6001" width="2.13334" height="2.13334" fill="#B0BEC5"/>
<rect id="Rectangle 9768" x="9.6001" y="37.3333" width="2.13333" height="2.13334" fill="black"/>
<rect id="Rectangle 9866" x="28.7998" y="37.3333" width="2.13333" height="2.13334" fill="black"/>
<rect id="Rectangle 9947" x="48" y="37.3333" width="2.13334" height="2.13334" fill="black"/>
<rect id="Rectangle 9770" x="7.4668" y="24.5334" width="2.13333" height="2.13333" fill="black"/>
<rect id="Rectangle 9867" x="26.6665" y="24.5334" width="2.13333" height="2.13333" fill="black"/>
<rect id="Rectangle 9948" x="45.8667" y="24.5334" width="2.13334" height="2.13333" fill="black"/>
<rect id="Rectangle 9771" x="7.4668" y="22.3999" width="2.13333" height="2.13333" fill="white"/>
<rect id="Rectangle 10022" x="7.4668" y="20.2666" width="2.13333" height="2.13333" fill="#B0BEC5"/>
<rect id="Rectangle 10058" x="7.4668" y="41.6001" width="2.13333" height="2.13334" fill="#B0BEC5"/>
<rect id="Rectangle 9868" x="26.6665" y="22.3999" width="2.13333" height="2.13333" fill="white"/>
<rect id="Rectangle 10023" x="26.6665" y="20.2666" width="2.13333" height="2.13333" fill="#B0BEC5"/>
<rect id="Rectangle 10059" x="26.6665" y="41.6001" width="2.13333" height="2.13334" fill="#B0BEC5"/>
<rect id="Rectangle 9949" x="45.8667" y="22.3999" width="2.13334" height="2.13333" fill="white"/>
<rect id="Rectangle 10024" x="45.8667" y="20.2666" width="2.13334" height="2.13333" fill="#B0BEC5"/>
<rect id="Rectangle 10060" x="45.8667" y="41.6001" width="2.13334" height="2.13334" fill="#B0BEC5"/>
<rect id="Rectangle 9772" x="7.4668" y="37.3333" width="2.13333" height="2.13334" fill="black"/>
<rect id="Rectangle 9869" x="26.6665" y="37.3333" width="2.13333" height="2.13334" fill="black"/>
<rect id="Rectangle 9950" x="45.8667" y="37.3333" width="2.13334" height="2.13334" fill="black"/>
<rect id="Rectangle 9773" x="9.6001" y="35.2" width="2.13333" height="2.13333" fill="#FF5601"/>
<rect id="Rectangle 9870" x="28.7998" y="35.2" width="2.13333" height="2.13333" fill="#FF5601"/>
<rect id="Rectangle 9951" x="48" y="35.2" width="2.13334" height="2.13333" fill="#FF5601"/>
<rect id="Rectangle 9774" x="7.4668" y="35.2" width="2.13333" height="2.13333" fill="#FF5601"/>
<rect id="Rectangle 9871" x="26.6665" y="35.2" width="2.13333" height="2.13333" fill="#FF5601"/>
<rect id="Rectangle 9952" x="45.8667" y="35.2" width="2.13334" height="2.13333" fill="#FF5601"/>
<rect id="Rectangle 9775" x="11.7334" y="30.9333" width="2.13333" height="2.13333" fill="#FFA202"/>
<rect id="Rectangle 9872" x="30.9331" y="30.9333" width="2.13333" height="2.13333" fill="#FFA202"/>
<rect id="Rectangle 9953" x="50.1333" y="30.9333" width="2.13333" height="2.13333" fill="#FFA202"/>
<rect id="Rectangle 9776" x="11.7334" y="33.0667" width="2.13333" height="2.13334" fill="#FF7002"/>
<rect id="Rectangle 9873" x="30.9331" y="33.0667" width="2.13333" height="2.13334" fill="#FF7002"/>
<rect id="Rectangle 9954" x="50.1333" y="33.0667" width="2.13333" height="2.13334" fill="#FF7002"/>
<rect id="Rectangle 9777" x="9.6001" y="30.9333" width="2.13333" height="2.13333" fill="#FFA202"/>
<rect id="Rectangle 9874" x="28.7998" y="30.9333" width="2.13333" height="2.13333" fill="#FFA202"/>
<rect id="Rectangle 9955" x="48" y="30.9333" width="2.13334" height="2.13333" fill="#FFA202"/>
<rect id="Rectangle 9778" x="7.4668" y="30.9333" width="2.13333" height="2.13333" fill="#FFA202"/>
<rect id="Rectangle 9875" x="26.6665" y="30.9333" width="2.13333" height="2.13333" fill="#FFA202"/>
<rect id="Rectangle 9956" x="45.8667" y="30.9333" width="2.13334" height="2.13333" fill="#FFA202"/>
<rect id="Rectangle 9779" x="9.6001" y="33.0667" width="2.13333" height="2.13334" fill="#FF7002"/>
<rect id="Rectangle 9876" x="28.7998" y="33.0667" width="2.13333" height="2.13334" fill="#FF7002"/>
<rect id="Rectangle 9957" x="48" y="33.0667" width="2.13334" height="2.13334" fill="#FF7002"/>
<rect id="Rectangle 9780" x="7.4668" y="33.0667" width="2.13333" height="2.13334" fill="#FF7002"/>
<rect id="Rectangle 9877" x="26.6665" y="33.0667" width="2.13333" height="2.13334" fill="#FF7002"/>
<rect id="Rectangle 9958" x="45.8667" y="33.0667" width="2.13334" height="2.13334" fill="#FF7002"/>
<rect id="Rectangle 9781" x="13.8667" y="28.8" width="2.13333" height="2.13333" fill="#FF7002"/>
<rect id="Rectangle 9878" x="33.0669" y="28.8" width="2.13334" height="2.13333" fill="#FF7002"/>
<rect id="Rectangle 9959" x="52.2666" y="28.8" width="2.13334" height="2.13333" fill="#FF7002"/>
<rect id="Rectangle 9782" x="16" y="28.8" width="2.13333" height="2.13333" fill="#FF5601"/>
<rect id="Rectangle 9879" x="35.2002" y="28.8" width="2.13333" height="2.13333" fill="#FF5601"/>
<rect id="Rectangle 9960" x="54.3999" y="28.8" width="2.13333" height="2.13333" fill="#FF5601"/>
<rect id="Rectangle 9783" x="18.1333" y="28.8" width="2.13333" height="2.13333" fill="black"/>
<rect id="Rectangle 9880" x="37.3335" y="28.8" width="2.13334" height="2.13333" fill="black"/>
<rect id="Rectangle 9961" x="56.5332" y="28.8" width="2.13334" height="2.13333" fill="black"/>
<rect id="Rectangle 9784" x="13.8667" y="26.6667" width="2.13333" height="2.13333" fill="#FF7002"/>
<rect id="Rectangle 9881" x="33.0669" y="26.6667" width="2.13334" height="2.13333" fill="#FF7002"/>
<rect id="Rectangle 9962" x="52.2666" y="26.6667" width="2.13334" height="2.13333" fill="#FF7002"/>
<rect id="Rectangle 9786" x="13.8667" y="24.5334" width="2.13333" height="2.13333" fill="black"/>
<rect id="Rectangle 9882" x="33.0669" y="24.5334" width="2.13334" height="2.13333" fill="black"/>
<rect id="Rectangle 9963" x="52.2666" y="24.5334" width="2.13334" height="2.13333" fill="black"/>
<rect id="Rectangle 9787" x="13.8667" y="22.3999" width="2.13333" height="2.13333" fill="white"/>
<rect id="Rectangle 10025" x="13.8667" y="20.2666" width="2.13333" height="2.13333" fill="#B0BEC5"/>
<rect id="Rectangle 10061" x="13.8667" y="41.6001" width="2.13333" height="2.13334" fill="#B0BEC5"/>
<rect id="Rectangle 9883" x="33.0669" y="22.3999" width="2.13334" height="2.13333" fill="white"/>
<rect id="Rectangle 10026" x="33.0669" y="20.2666" width="2.13334" height="2.13333" fill="#B0BEC5"/>
<rect id="Rectangle 10062" x="33.0669" y="41.6001" width="2.13334" height="2.13334" fill="#B0BEC5"/>
<rect id="Rectangle 9964" x="52.2666" y="22.3999" width="2.13334" height="2.13333" fill="white"/>
<rect id="Rectangle 10027" x="52.2666" y="20.2666" width="2.13334" height="2.13333" fill="#B0BEC5"/>
<rect id="Rectangle 10063" x="52.2666" y="41.6001" width="2.13334" height="2.13334" fill="#B0BEC5"/>
<rect id="Rectangle 9788" x="13.8667" y="37.3333" width="2.13333" height="2.13334" fill="black"/>
<rect id="Rectangle 9884" x="33.0669" y="37.3333" width="2.13334" height="2.13334" fill="black"/>
<rect id="Rectangle 9965" x="52.2666" y="37.3333" width="2.13334" height="2.13334" fill="black"/>
<rect id="Rectangle 9789" x="13.8667" y="35.2" width="2.13333" height="2.13333" fill="#FF5601"/>
<rect id="Rectangle 9885" x="33.0669" y="35.2" width="2.13334" height="2.13333" fill="#FF5601"/>
<rect id="Rectangle 9966" x="52.2666" y="35.2" width="2.13334" height="2.13333" fill="#FF5601"/>
<rect id="Rectangle 9790" x="16" y="26.6667" width="2.13333" height="2.13333" fill="#FF5601"/>
<rect id="Rectangle 9886" x="35.2002" y="26.6667" width="2.13333" height="2.13333" fill="#FF5601"/>
<rect id="Rectangle 9967" x="54.3999" y="26.6667" width="2.13333" height="2.13333" fill="#FF5601"/>
<rect id="Rectangle 9791" x="18.1333" y="26.6667" width="2.13333" height="2.13333" fill="black"/>
<rect id="Rectangle 9887" x="37.3335" y="26.6667" width="2.13334" height="2.13333" fill="black"/>
<rect id="Rectangle 9968" x="56.5332" y="26.6667" width="2.13334" height="2.13333" fill="black"/>
<rect id="Rectangle 9793" x="16" y="24.5334" width="2.13333" height="2.13333" fill="black"/>
<rect id="Rectangle 9888" x="35.2002" y="24.5334" width="2.13333" height="2.13333" fill="black"/>
<rect id="Rectangle 9969" x="54.3999" y="24.5334" width="2.13333" height="2.13333" fill="black"/>
<rect id="Rectangle 9794" x="16" y="22.3999" width="2.13333" height="2.13333" fill="white"/>
<rect id="Rectangle 10028" x="16" y="20.2666" width="2.13333" height="2.13333" fill="#B0BEC5"/>
<rect id="Rectangle 10064" x="16" y="41.6001" width="2.13333" height="2.13334" fill="#B0BEC5"/>
<rect id="Rectangle 9889" x="35.2002" y="22.3999" width="2.13333" height="2.13333" fill="white"/>
<rect id="Rectangle 10029" x="35.2002" y="20.2666" width="2.13333" height="2.13333" fill="#B0BEC5"/>
<rect id="Rectangle 10065" x="35.2002" y="41.6001" width="2.13333" height="2.13334" fill="#B0BEC5"/>
<rect id="Rectangle 9970" x="54.3999" y="22.3999" width="2.13333" height="2.13333" fill="white"/>
<rect id="Rectangle 10030" x="54.3999" y="20.2666" width="2.13333" height="2.13333" fill="#B0BEC5"/>
<rect id="Rectangle 10066" x="54.3999" y="41.6001" width="2.13333" height="2.13334" fill="#B0BEC5"/>
<rect id="Rectangle 9795" x="16" y="37.3333" width="2.13333" height="2.13334" fill="black"/>
<rect id="Rectangle 9890" x="35.2002" y="37.3333" width="2.13333" height="2.13334" fill="black"/>
<rect id="Rectangle 9971" x="54.3999" y="37.3333" width="2.13333" height="2.13334" fill="black"/>
<rect id="Rectangle 9796" x="18.1333" y="24.5334" width="2.13333" height="2.13333" fill="black"/>
<rect id="Rectangle 9891" x="37.3335" y="24.5334" width="2.13334" height="2.13333" fill="black"/>
<rect id="Rectangle 9972" x="56.5332" y="24.5334" width="2.13334" height="2.13333" fill="black"/>
<rect id="Rectangle 9798" x="18.1333" y="22.3999" width="2.13333" height="2.13333" fill="white"/>
<rect id="Rectangle 10031" x="18.1333" y="20.2666" width="2.13333" height="2.13333" fill="#B0BEC5"/>
<rect id="Rectangle 10067" x="18.1333" y="41.6001" width="2.13333" height="2.13334" fill="#B0BEC5"/>
<rect id="Rectangle 9892" x="37.3335" y="22.3999" width="2.13334" height="2.13333" fill="white"/>
<rect id="Rectangle 10032" x="37.3335" y="20.2666" width="2.13334" height="2.13333" fill="#B0BEC5"/>
<rect id="Rectangle 10068" x="37.3335" y="41.6001" width="2.13334" height="2.13334" fill="#B0BEC5"/>
<rect id="Rectangle 9973" x="56.5332" y="22.3999" width="2.13334" height="2.13333" fill="white"/>
<rect id="Rectangle 10033" x="56.5332" y="20.2666" width="2.13334" height="2.13333" fill="#B0BEC5"/>
<rect id="Rectangle 10069" x="56.5332" y="41.6001" width="2.13334" height="2.13334" fill="#B0BEC5"/>
<rect id="Rectangle 9799" x="18.1333" y="37.3333" width="2.13333" height="2.13334" fill="black"/>
<rect id="Rectangle 9893" x="37.3335" y="37.3333" width="2.13334" height="2.13334" fill="black"/>
<rect id="Rectangle 9974" x="56.5332" y="37.3333" width="2.13334" height="2.13334" fill="black"/>
<rect id="Rectangle 9800" x="20.2666" y="22.3999" width="2.13333" height="2.13333" fill="white"/>
<rect id="Rectangle 10034" x="20.2666" y="20.2666" width="2.13333" height="2.13333" fill="#B0BEC5"/>
<rect id="Rectangle 10070" x="20.2666" y="41.6001" width="2.13333" height="2.13334" fill="#B0BEC5"/>
<rect id="Rectangle 9894" x="39.4668" y="22.3999" width="2.13333" height="2.13333" fill="white"/>
<rect id="Rectangle 10035" x="39.4668" y="20.2666" width="2.13333" height="2.13333" fill="#B0BEC5"/>
<rect id="Rectangle 10071" x="39.4668" y="41.6001" width="2.13333" height="2.13334" fill="#B0BEC5"/>
<rect id="Rectangle 9975" x="58.6665" y="22.3999" width="2.13333" height="2.13333" fill="white"/>
<rect id="Rectangle 10043" x="60.7998" y="22.3999" width="2.13334" height="2.13333" fill="#B0BEC5"/>
<rect id="Rectangle 10079" x="1.06689" y="22.3999" width="2.13333" height="2.13333" fill="#B0BEC5"/>
<rect id="Rectangle 10036" x="58.6665" y="20.2666" width="2.13333" height="2.13333" fill="#B0BEC5"/>
<rect id="Rectangle 10072" x="58.6665" y="41.6001" width="2.13333" height="2.13334" fill="#B0BEC5"/>
<rect id="Rectangle 9812" x="20.2666" y="39.4666" width="2.13333" height="2.13333" fill="white"/>
<rect id="Rectangle 9895" x="39.4668" y="39.4666" width="2.13333" height="2.13333" fill="white"/>
<rect id="Rectangle 9976" x="58.6665" y="39.4666" width="2.13333" height="2.13333" fill="white"/>
<rect id="Rectangle 10044" x="60.7998" y="39.4666" width="2.13334" height="2.13333" fill="#B0BEC5"/>
<rect id="Rectangle 10080" x="1.06689" y="39.4666" width="2.13333" height="2.13333" fill="#B0BEC5"/>
<rect id="Rectangle 9813" x="18.1333" y="39.4666" width="2.13333" height="2.13333" fill="white"/>
<rect id="Rectangle 9896" x="37.3335" y="39.4666" width="2.13334" height="2.13333" fill="white"/>
<rect id="Rectangle 9977" x="56.5332" y="39.4666" width="2.13334" height="2.13333" fill="white"/>
<rect id="Rectangle 9814" x="16" y="39.4666" width="2.13333" height="2.13333" fill="white"/>
<rect id="Rectangle 9897" x="35.2002" y="39.4666" width="2.13333" height="2.13333" fill="white"/>
<rect id="Rectangle 9978" x="54.3999" y="39.4666" width="2.13333" height="2.13333" fill="white"/>
<rect id="Rectangle 9815" x="13.8667" y="39.4666" width="2.13333" height="2.13333" fill="white"/>
<rect id="Rectangle 9898" x="33.0669" y="39.4666" width="2.13334" height="2.13333" fill="white"/>
<rect id="Rectangle 9979" x="52.2666" y="39.4666" width="2.13334" height="2.13333" fill="white"/>
<rect id="Rectangle 9816" x="11.7334" y="39.4666" width="2.13333" height="2.13333" fill="white"/>
<rect id="Rectangle 9899" x="30.9331" y="39.4666" width="2.13333" height="2.13333" fill="white"/>
<rect id="Rectangle 9980" x="50.1333" y="39.4666" width="2.13333" height="2.13333" fill="white"/>
<rect id="Rectangle 9817" x="9.6001" y="39.4666" width="2.13333" height="2.13333" fill="white"/>
<rect id="Rectangle 9900" x="28.7998" y="39.4666" width="2.13333" height="2.13333" fill="white"/>
<rect id="Rectangle 9981" x="48" y="39.4666" width="2.13334" height="2.13333" fill="white"/>
<rect id="Rectangle 9818" x="7.4668" y="39.4666" width="2.13333" height="2.13333" fill="white"/>
<rect id="Rectangle 9901" x="26.6665" y="39.4666" width="2.13333" height="2.13333" fill="white"/>
<rect id="Rectangle 9982" x="45.8667" y="39.4666" width="2.13334" height="2.13333" fill="white"/>
<rect id="Rectangle 9819" x="5.3335" y="39.4666" width="2.13333" height="2.13333" fill="white"/>
<rect id="Rectangle 9902" x="24.5332" y="39.4666" width="2.13333" height="2.13333" fill="white"/>
<rect id="Rectangle 9983" x="43.7334" y="39.4666" width="2.13333" height="2.13333" fill="white"/>
<rect id="Rectangle 9820" x="3.2002" y="39.4666" width="2.13333" height="2.13333" fill="white"/>
<rect id="Rectangle 9903" x="22.3999" y="39.4666" width="2.13333" height="2.13333" fill="white"/>
<rect id="Rectangle 9984" x="41.6001" y="39.4666" width="2.13334" height="2.13333" fill="white"/>
<rect id="Rectangle 9821" x="3.2002" y="37.3333" width="2.13333" height="2.13334" fill="white"/>
<rect id="Rectangle 9904" x="22.3999" y="37.3333" width="2.13333" height="2.13334" fill="white"/>
<rect id="Rectangle 9985" x="41.6001" y="37.3333" width="2.13334" height="2.13334" fill="white"/>
<rect id="Rectangle 9822" x="3.2002" y="35.2" width="2.13333" height="2.13333" fill="white"/>
<rect id="Rectangle 9905" x="22.3999" y="35.2" width="2.13333" height="2.13333" fill="white"/>
<rect id="Rectangle 9986" x="41.6001" y="35.2" width="2.13334" height="2.13333" fill="white"/>
<rect id="Rectangle 9823" x="3.2002" y="33.0667" width="2.13333" height="2.13334" fill="white"/>
<rect id="Rectangle 9906" x="22.3999" y="33.0667" width="2.13333" height="2.13334" fill="white"/>
<rect id="Rectangle 9987" x="41.6001" y="33.0667" width="2.13334" height="2.13334" fill="white"/>
<rect id="Rectangle 9824" x="3.2002" y="30.9333" width="2.13333" height="2.13333" fill="white"/>
<rect id="Rectangle 9907" x="22.3999" y="30.9333" width="2.13333" height="2.13333" fill="white"/>
<rect id="Rectangle 9988" x="41.6001" y="30.9333" width="2.13334" height="2.13333" fill="white"/>
<rect id="Rectangle 9825" x="3.2002" y="28.8" width="2.13333" height="2.13333" fill="white"/>
<rect id="Rectangle 9908" x="22.3999" y="28.8" width="2.13333" height="2.13333" fill="white"/>
<rect id="Rectangle 9989" x="41.6001" y="28.8" width="2.13334" height="2.13333" fill="white"/>
<rect id="Rectangle 9826" x="3.2002" y="26.6667" width="2.13333" height="2.13333" fill="white"/>
<rect id="Rectangle 9909" x="22.3999" y="26.6667" width="2.13333" height="2.13333" fill="white"/>
<rect id="Rectangle 9990" x="41.6001" y="26.6667" width="2.13334" height="2.13333" fill="white"/>
<rect id="Rectangle 9827" x="3.2002" y="24.5334" width="2.13333" height="2.13333" fill="white"/>
<rect id="Rectangle 9910" x="22.3999" y="24.5334" width="2.13333" height="2.13333" fill="white"/>
<rect id="Rectangle 9991" x="41.6001" y="24.5334" width="2.13334" height="2.13333" fill="white"/>
<rect id="Rectangle 9828" x="3.2002" y="22.3999" width="2.13333" height="2.13333" fill="white"/>
<rect id="Rectangle 10037" x="3.2002" y="20.2666" width="2.13333" height="2.13333" fill="#B0BEC5"/>
<rect id="Rectangle 10073" x="3.2002" y="41.6001" width="2.13333" height="2.13334" fill="#B0BEC5"/>
<rect id="Rectangle 9911" x="22.3999" y="22.3999" width="2.13333" height="2.13333" fill="white"/>
<rect id="Rectangle 10038" x="22.3999" y="20.2666" width="2.13333" height="2.13333" fill="#B0BEC5"/>
<rect id="Rectangle 10074" x="22.3999" y="41.6001" width="2.13333" height="2.13334" fill="#B0BEC5"/>
<rect id="Rectangle 9992" x="41.6001" y="22.3999" width="2.13334" height="2.13333" fill="white"/>
<rect id="Rectangle 10039" x="41.6001" y="20.2666" width="2.13334" height="2.13333" fill="#B0BEC5"/>
<rect id="Rectangle 10075" x="41.6001" y="41.6001" width="2.13334" height="2.13334" fill="#B0BEC5"/>
<rect id="Rectangle 9831" x="5.3335" y="22.3999" width="2.13333" height="2.13333" fill="white"/>
<rect id="Rectangle 10040" x="5.3335" y="20.2666" width="2.13333" height="2.13333" fill="#B0BEC5"/>
<rect id="Rectangle 10076" x="5.3335" y="41.6001" width="2.13333" height="2.13334" fill="#B0BEC5"/>
<rect id="Rectangle 9912" x="24.5332" y="22.3999" width="2.13333" height="2.13333" fill="white"/>
<rect id="Rectangle 10041" x="24.5332" y="20.2666" width="2.13333" height="2.13333" fill="#B0BEC5"/>
<rect id="Rectangle 10077" x="24.5332" y="41.6001" width="2.13333" height="2.13334" fill="#B0BEC5"/>
<rect id="Rectangle 9993" x="43.7334" y="22.3999" width="2.13333" height="2.13333" fill="white"/>
<rect id="Rectangle 10042" x="43.7334" y="20.2666" width="2.13333" height="2.13333" fill="#B0BEC5"/>
<rect id="Rectangle 10078" x="43.7334" y="41.6001" width="2.13333" height="2.13334" fill="#B0BEC5"/>
<rect id="Rectangle 9832" x="20.2666" y="24.5334" width="2.13333" height="2.13333" fill="white"/>
<rect id="Rectangle 9913" x="39.4668" y="24.5334" width="2.13333" height="2.13333" fill="white"/>
<rect id="Rectangle 9994" x="58.6665" y="24.5334" width="2.13333" height="2.13333" fill="white"/>
<rect id="Rectangle 10045" x="60.7998" y="24.5334" width="2.13334" height="2.13333" fill="#B0BEC5"/>
<rect id="Rectangle 10081" x="1.06689" y="24.5334" width="2.13333" height="2.13333" fill="#B0BEC5"/>
<rect id="Rectangle 9833" x="5.3335" y="24.5334" width="2.13333" height="2.13333" fill="black"/>
<rect id="Rectangle 9914" x="24.5332" y="24.5334" width="2.13333" height="2.13333" fill="black"/>
<rect id="Rectangle 9995" x="43.7334" y="24.5334" width="2.13333" height="2.13333" fill="black"/>
<rect id="Rectangle 9834" x="20.2666" y="26.6667" width="2.13333" height="2.13333" fill="white"/>
<rect id="Rectangle 9915" x="39.4668" y="26.6667" width="2.13333" height="2.13333" fill="white"/>
<rect id="Rectangle 9996" x="58.6665" y="26.6667" width="2.13333" height="2.13333" fill="white"/>
<rect id="Rectangle 10046" x="60.7998" y="26.6667" width="2.13334" height="2.13333" fill="#B0BEC5"/>
<rect id="Rectangle 10082" x="1.06689" y="26.6667" width="2.13333" height="2.13333" fill="#B0BEC5"/>
<rect id="Rectangle 9835" x="5.3335" y="26.6667" width="2.13333" height="2.13333" fill="black"/>
<rect id="Rectangle 9916" x="24.5332" y="26.6667" width="2.13333" height="2.13333" fill="black"/>
<rect id="Rectangle 9997" x="43.7334" y="26.6667" width="2.13333" height="2.13333" fill="black"/>
<rect id="Rectangle 9836" x="20.2666" y="28.8" width="2.13333" height="2.13333" fill="white"/>
<rect id="Rectangle 9917" x="39.4668" y="28.8" width="2.13333" height="2.13333" fill="white"/>
<rect id="Rectangle 9998" x="58.6665" y="28.8" width="2.13333" height="2.13333" fill="white"/>
<rect id="Rectangle 10047" x="60.7998" y="28.8" width="2.13334" height="2.13333" fill="#B0BEC5"/>
<rect id="Rectangle 10083" x="1.06689" y="28.8" width="2.13333" height="2.13333" fill="#B0BEC5"/>
<rect id="Rectangle 9837" x="5.3335" y="28.8" width="2.13333" height="2.13333" fill="black"/>
<rect id="Rectangle 9918" x="24.5332" y="28.8" width="2.13333" height="2.13333" fill="black"/>
<rect id="Rectangle 9999" x="43.7334" y="28.8" width="2.13333" height="2.13333" fill="black"/>
<rect id="Rectangle 9838" x="20.2666" y="30.9333" width="2.13333" height="2.13333" fill="white"/>
<rect id="Rectangle 9919" x="39.4668" y="30.9333" width="2.13333" height="2.13333" fill="white"/>
<rect id="Rectangle 10000" x="58.6665" y="30.9333" width="2.13333" height="2.13333" fill="white"/>
<rect id="Rectangle 10048" x="60.7998" y="30.9333" width="2.13334" height="2.13333" fill="#B0BEC5"/>
<rect id="Rectangle 10084" x="1.06689" y="30.9333" width="2.13333" height="2.13333" fill="#B0BEC5"/>
<rect id="Rectangle 9839" x="5.3335" y="30.9333" width="2.13333" height="2.13333" fill="black"/>
<rect id="Rectangle 9920" x="24.5332" y="30.9333" width="2.13333" height="2.13333" fill="black"/>
<rect id="Rectangle 10001" x="43.7334" y="30.9333" width="2.13333" height="2.13333" fill="black"/>
<rect id="Rectangle 9840" x="20.2666" y="33.0667" width="2.13333" height="2.13334" fill="white"/>
<rect id="Rectangle 9921" x="39.4668" y="33.0667" width="2.13333" height="2.13334" fill="white"/>
<rect id="Rectangle 10002" x="58.6665" y="33.0667" width="2.13333" height="2.13334" fill="white"/>
<rect id="Rectangle 10049" x="60.7998" y="33.0667" width="2.13334" height="2.13334" fill="#B0BEC5"/>
<rect id="Rectangle 10085" x="1.06689" y="33.0667" width="2.13333" height="2.13334" fill="#B0BEC5"/>
<rect id="Rectangle 9841" x="5.3335" y="33.0667" width="2.13333" height="2.13334" fill="black"/>
<rect id="Rectangle 9922" x="24.5332" y="33.0667" width="2.13333" height="2.13334" fill="black"/>
<rect id="Rectangle 10003" x="43.7334" y="33.0667" width="2.13333" height="2.13334" fill="black"/>
<rect id="Rectangle 9842" x="20.2666" y="35.2" width="2.13333" height="2.13333" fill="white"/>
<rect id="Rectangle 9923" x="39.4668" y="35.2" width="2.13333" height="2.13333" fill="white"/>
<rect id="Rectangle 10004" x="58.6665" y="35.2" width="2.13333" height="2.13333" fill="white"/>
<rect id="Rectangle 10050" x="60.7998" y="35.2" width="2.13334" height="2.13333" fill="#B0BEC5"/>
<rect id="Rectangle 10086" x="1.06689" y="35.2" width="2.13333" height="2.13333" fill="#B0BEC5"/>
<rect id="Rectangle 9843" x="5.3335" y="35.2" width="2.13333" height="2.13333" fill="black"/>
<rect id="Rectangle 9924" x="24.5332" y="35.2" width="2.13333" height="2.13333" fill="black"/>
<rect id="Rectangle 10005" x="43.7334" y="35.2" width="2.13333" height="2.13333" fill="black"/>
<rect id="Rectangle 9844" x="20.2666" y="37.3333" width="2.13333" height="2.13334" fill="white"/>
<rect id="Rectangle 9925" x="39.4668" y="37.3333" width="2.13333" height="2.13334" fill="white"/>
<rect id="Rectangle 10006" x="58.6665" y="37.3333" width="2.13333" height="2.13334" fill="white"/>
<rect id="Rectangle 10051" x="60.7998" y="37.3333" width="2.13334" height="2.13334" fill="#B0BEC5"/>
<rect id="Rectangle 10087" x="1.06689" y="37.3333" width="2.13333" height="2.13334" fill="#B0BEC5"/>
<rect id="Rectangle 9845" x="5.3335" y="37.3333" width="2.13333" height="2.13334" fill="black"/>
<rect id="Rectangle 9926" x="24.5332" y="37.3333" width="2.13333" height="2.13334" fill="black"/>
<rect id="Rectangle 10007" x="43.7334" y="37.3333" width="2.13333" height="2.13334" fill="black"/>
<rect id="Rectangle 9846" x="16" y="35.2" width="2.13333" height="2.13333" fill="#FF5601"/>
<rect id="Rectangle 9927" x="35.2002" y="35.2" width="2.13333" height="2.13333" fill="#FF5601"/>
<rect id="Rectangle 10008" x="54.3999" y="35.2" width="2.13333" height="2.13333" fill="#FF5601"/>
<rect id="Rectangle 9847" x="18.1333" y="35.2" width="2.13333" height="2.13333" fill="black"/>
<rect id="Rectangle 9928" x="37.3335" y="35.2" width="2.13334" height="2.13333" fill="black"/>
<rect id="Rectangle 10009" x="56.5332" y="35.2" width="2.13334" height="2.13333" fill="black"/>
<rect id="Rectangle 9848" x="13.8667" y="30.9333" width="2.13333" height="2.13333" fill="#FF7002"/>
<rect id="Rectangle 9929" x="33.0669" y="30.9333" width="2.13334" height="2.13333" fill="#FF7002"/>
<rect id="Rectangle 10010" x="52.2666" y="30.9333" width="2.13334" height="2.13333" fill="#FF7002"/>
<rect id="Rectangle 9849" x="16" y="30.9333" width="2.13333" height="2.13333" fill="#FF5601"/>
<rect id="Rectangle 9930" x="35.2002" y="30.9333" width="2.13333" height="2.13333" fill="#FF5601"/>
<rect id="Rectangle 10011" x="54.3999" y="30.9333" width="2.13333" height="2.13333" fill="#FF5601"/>
<rect id="Rectangle 9850" x="18.1333" y="30.9333" width="2.13333" height="2.13333" fill="black"/>
<rect id="Rectangle 9931" x="37.3335" y="30.9333" width="2.13334" height="2.13333" fill="black"/>
<rect id="Rectangle 10012" x="56.5332" y="30.9333" width="2.13334" height="2.13333" fill="black"/>
<rect id="Rectangle 9851" x="13.8667" y="33.0667" width="2.13333" height="2.13334" fill="#FF7002"/>
<rect id="Rectangle 9932" x="33.0669" y="33.0667" width="2.13334" height="2.13334" fill="#FF7002"/>
<rect id="Rectangle 10013" x="52.2666" y="33.0667" width="2.13334" height="2.13334" fill="#FF7002"/>
<rect id="Rectangle 9852" x="16" y="33.0667" width="2.13333" height="2.13334" fill="#FF5601"/>
<rect id="Rectangle 9933" x="35.2002" y="33.0667" width="2.13333" height="2.13334" fill="#FF5601"/>
<rect id="Rectangle 10014" x="54.3999" y="33.0667" width="2.13333" height="2.13334" fill="#FF5601"/>
<rect id="Rectangle 9853" x="18.1333" y="33.0667" width="2.13333" height="2.13334" fill="black"/>
<rect id="Rectangle 9934" x="37.3335" y="33.0667" width="2.13334" height="2.13334" fill="black"/>
<rect id="Rectangle 10015" x="56.5332" y="33.0667" width="2.13334" height="2.13334" fill="black"/>
</g>
</svg>
