<svg width="64" height="64" viewBox="0 0 64 64" fill="none" xmlns="http://www.w3.org/2000/svg">
<g clip-path="url(#clip0_326_138668)">
<rect width="2.13333" height="2.13333" transform="matrix(-1 0 0 1 32 6.3999)" fill="black"/>
<rect width="2.13333" height="2.13333" transform="matrix(-1 0 0 1 32 12.8)" fill="#562D29"/>
<rect width="2.13333" height="2.13333" transform="matrix(-1 0 0 1 32 10.6667)" fill="#562D29"/>
<rect width="2.13333" height="2.13333" transform="matrix(-1 0 0 1 32 19.2)" fill="#562D29"/>
<rect width="2.13333" height="2.13333" transform="matrix(-1 0 0 1 32 14.9333)" fill="#562D29"/>
<rect width="2.13333" height="2.13333" transform="matrix(-1 0 0 1 32 17.0667)" fill="#562D29"/>
<rect x="32" y="6.3999" width="2.13334" height="2.13333" fill="black"/>
<rect x="32" y="12.8" width="2.13334" height="2.13333" fill="#562D29"/>
<rect x="32" y="10.6667" width="2.13334" height="2.13333" fill="#562D29"/>
<rect x="32" y="19.2" width="2.13334" height="2.13333" fill="#562D29"/>
<rect x="32" y="14.9333" width="2.13334" height="2.13333" fill="#562D29"/>
<rect x="32" y="17.0667" width="2.13334" height="2.13333" fill="#562D29"/>
<rect width="2.13333" height="2.13333" transform="matrix(-1 0 0 1 29.8667 6.3999)" fill="black"/>
<rect width="2.13333" height="2.13333" transform="matrix(-1 0 0 1 29.8667 12.8)" fill="#562D29"/>
<rect width="2.13333" height="2.13333" transform="matrix(-1 0 0 1 29.8667 10.6667)" fill="#562D29"/>
<rect width="2.13333" height="2.13333" transform="matrix(-1 0 0 1 29.8667 19.2)" fill="#562D29"/>
<rect width="2.13333" height="2.13333" transform="matrix(-1 0 0 1 29.8667 14.9333)" fill="#562D29"/>
<rect width="2.13333" height="2.13333" transform="matrix(-1 0 0 1 29.8667 17.0667)" fill="#562D29"/>
<rect x="34.1333" y="6.3999" width="2.13333" height="2.13333" fill="black"/>
<rect x="34.1333" y="12.8" width="2.13333" height="2.13333" fill="#562D29"/>
<rect x="34.1333" y="10.6667" width="2.13333" height="2.13333" fill="#562D29"/>
<rect x="34.1333" y="19.2" width="2.13333" height="2.13333" fill="#562D29"/>
<rect x="34.1333" y="14.9333" width="2.13333" height="2.13333" fill="#562D29"/>
<rect x="34.1333" y="17.0667" width="2.13333" height="2.13333" fill="#562D29"/>
<rect width="2.13333" height="2.13333" transform="matrix(-1 0 0 1 27.7334 6.3999)" fill="black"/>
<rect width="2.13333" height="2.13333" transform="matrix(-1 0 0 1 27.7334 12.8)" fill="#562D29"/>
<rect width="2.13333" height="2.13333" transform="matrix(-1 0 0 1 27.7334 10.6667)" fill="#A97D78"/>
<rect width="2.13333" height="2.13333" transform="matrix(-1 0 0 1 27.7334 19.2)" fill="#562D29"/>
<rect width="2.13333" height="2.13333" transform="matrix(-1 0 0 1 27.7334 14.9333)" fill="#562D29"/>
<rect width="2.13333" height="2.13333" transform="matrix(-1 0 0 1 27.7334 17.0667)" fill="#562D29"/>
<rect x="36.2666" y="6.3999" width="2.13334" height="2.13333" fill="black"/>
<rect x="36.2666" y="12.8" width="2.13334" height="2.13333" fill="#562D29"/>
<rect x="36.2666" y="10.6667" width="2.13334" height="2.13333" fill="#562D29"/>
<rect x="36.2666" y="19.2" width="2.13334" height="2.13333" fill="#A97D78"/>
<rect x="36.2666" y="14.9333" width="2.13334" height="2.13333" fill="#562D29"/>
<rect x="36.2666" y="17.0667" width="2.13334" height="2.13333" fill="#562D29"/>
<rect width="2.13333" height="2.13333" transform="matrix(-1 0 0 1 25.6001 6.3999)" fill="black"/>
<rect width="2.13333" height="2.13333" transform="matrix(-1 0 0 1 25.6001 12.8)" fill="#A97D78"/>
<rect width="2.13333" height="2.13333" transform="matrix(-1 0 0 1 25.6001 10.6667)" fill="#562D29"/>
<rect width="2.13333" height="2.13333" transform="matrix(-1 0 0 1 25.6001 19.2)" fill="#562D29"/>
<rect width="2.13333" height="2.13333" transform="matrix(-1 0 0 1 25.6001 14.9333)" fill="#562D29"/>
<rect width="2.13333" height="2.13333" transform="matrix(-1 0 0 1 25.6001 17.0667)" fill="#A97D78"/>
<rect width="2.13333" height="2.13333" transform="matrix(-1 0 0 1 21.3335 14.9333)" fill="#562D29"/>
<rect width="2.13334" height="2.13333" transform="matrix(-1 0 0 1 46.9331 14.9333)" fill="#562D29"/>
<rect x="38.3999" y="6.3999" width="2.13333" height="2.13333" fill="black"/>
<rect x="38.3999" y="12.8" width="2.13333" height="2.13333" fill="#A97D78"/>
<rect x="38.3999" y="10.6667" width="2.13333" height="2.13333" fill="#562D29"/>
<rect x="38.3999" y="19.2" width="2.13333" height="2.13333" fill="#562D29"/>
<rect x="38.3999" y="14.9333" width="2.13333" height="2.13333" fill="#562D29"/>
<rect x="38.3999" y="17.0667" width="2.13333" height="2.13333" fill="#A97D78"/>
<rect x="21.3335" y="6.3999" width="2.13333" height="2.13333" fill="black"/>
<rect x="21.3335" y="12.8" width="2.13333" height="2.13333" fill="#562D29"/>
<rect x="21.3335" y="10.6667" width="2.13333" height="2.13333" fill="#562D29"/>
<rect x="21.3335" y="19.2" width="2.13333" height="2.13333" fill="#562D29"/>
<rect x="21.3335" y="14.9333" width="2.13333" height="2.13333" fill="#A97D78"/>
<rect x="21.3335" y="17.0667" width="2.13333" height="2.13333" fill="#562D29"/>
<rect x="19.2002" y="17.0667" width="2.13333" height="2.13333" fill="#562D29"/>
<rect x="19.2002" y="12.8" width="2.13333" height="2.13333" fill="#562D29"/>
<rect x="17.0669" y="14.9333" width="2.13333" height="2.13333" fill="#562D29"/>
<rect x="42.6665" y="14.9333" width="2.13333" height="2.13333" fill="#562D29"/>
<rect width="2.13334" height="2.13333" transform="matrix(-1 0 0 1 42.6665 6.3999)" fill="black"/>
<rect width="2.13334" height="2.13333" transform="matrix(-1 0 0 1 42.6665 12.8)" fill="#562D29"/>
<rect width="2.13334" height="2.13333" transform="matrix(-1 0 0 1 42.6665 10.6667)" fill="#562D29"/>
<rect width="2.13334" height="2.13333" transform="matrix(-1 0 0 1 42.6665 19.2)" fill="#562D29"/>
<rect width="2.13334" height="2.13333" transform="matrix(-1 0 0 1 42.6665 14.9333)" fill="#A97D78"/>
<rect width="2.13334" height="2.13333" transform="matrix(-1 0 0 1 42.6665 17.0667)" fill="#562D29"/>
<rect width="2.13333" height="2.13333" transform="matrix(-1 0 0 1 44.7998 17.0667)" fill="#562D29"/>
<rect width="2.13333" height="2.13333" transform="matrix(-1 0 0 1 44.7998 12.8)" fill="#562D29"/>
<rect x="19.2002" y="8.53345" width="2.13333" height="2.13333" fill="black"/>
<rect width="2.13333" height="2.13333" transform="matrix(-1 0 0 1 44.7998 8.53345)" fill="black"/>
<rect x="17.0669" y="8.53345" width="2.13333" height="2.13333" fill="black"/>
<rect width="2.13334" height="2.13333" transform="matrix(-1 0 0 1 46.9331 8.53345)" fill="black"/>
<rect x="14.9331" y="10.6667" width="2.13333" height="2.13333" fill="black"/>
<rect width="2.13333" height="2.13333" transform="matrix(-1 0 0 1 49.0669 10.6667)" fill="black"/>
<rect x="12.7998" y="12.8" width="2.13333" height="2.13333" fill="black"/>
<rect width="2.13334" height="2.13333" transform="matrix(-1 0 0 1 51.2002 12.8)" fill="black"/>
<rect x="10.6665" y="14.9333" width="2.13333" height="2.13333" fill="black"/>
<rect width="2.13333" height="2.13333" transform="matrix(-1 0 0 1 53.3335 17.0667)" fill="black"/>
<rect width="2.13334" height="2.13333" transform="matrix(-1 0 0 1 51.2002 17.0667)" fill="black"/>
<rect width="2.13334" height="2.13333" transform="matrix(-1 0 0 1 51.2002 14.9333)" fill="black"/>
<rect x="10.6665" y="17.0667" width="2.13333" height="2.13333" fill="black"/>
<rect x="10.6665" y="19.2" width="2.13333" height="2.13333" fill="black"/>
<rect x="12.7998" y="19.2" width="2.13333" height="2.13333" fill="white"/>
<rect x="21.3335" y="8.53345" width="2.13333" height="2.13333" fill="white"/>
<rect x="19.2002" y="10.6667" width="2.13333" height="2.13333" fill="#DCF2FD"/>
<rect x="17.0669" y="10.6667" width="2.13333" height="2.13333" fill="#DCF2FD"/>
<rect x="17.0669" y="12.8" width="2.13333" height="2.13333" fill="#DCF2FD"/>
<rect x="14.9331" y="12.8" width="2.13333" height="2.13333" fill="#DCF2FD"/>
<rect x="14.9331" y="14.9333" width="2.13333" height="2.13333" fill="white"/>
<rect x="12.7998" y="14.9333" width="2.13333" height="2.13333" fill="white"/>
<rect x="12.7998" y="17.0667" width="2.13333" height="2.13333" fill="#71BBE3"/>
<rect x="12.7998" y="21.3333" width="2.13333" height="2.13333" fill="white"/>
<rect x="12.7998" y="23.4666" width="2.13333" height="2.13333" fill="white"/>
<rect x="14.9331" y="23.4666" width="2.13333" height="2.13333" fill="white"/>
<rect x="17.0669" y="25.6001" width="2.13333" height="2.13333" fill="white"/>
<rect x="19.2002" y="25.6001" width="2.13333" height="2.13333" fill="white"/>
<rect x="21.3335" y="27.7334" width="2.13333" height="2.13333" fill="white"/>
<rect x="23.4668" y="27.7334" width="2.13333" height="2.13333" fill="white"/>
<rect x="25.6001" y="27.7334" width="2.13333" height="2.13333" fill="white"/>
<rect x="27.7334" y="27.7334" width="2.13333" height="2.13333" fill="white"/>
<rect x="29.8667" y="27.7334" width="2.13333" height="2.13333" fill="white"/>
<rect x="32" y="27.7334" width="2.13334" height="2.13333" fill="white"/>
<rect x="34.1333" y="27.7334" width="2.13333" height="2.13333" fill="#DCF2FD"/>
<rect x="36.2666" y="27.7334" width="2.13334" height="2.13333" fill="#DCF2FD"/>
<rect x="38.3999" y="27.7334" width="2.13333" height="2.13333" fill="#DCF2FD"/>
<rect x="40.5332" y="27.7334" width="2.13334" height="2.13333" fill="#DCF2FD"/>
<rect x="42.6665" y="25.6001" width="2.13333" height="2.13333" fill="#DCF2FD"/>
<rect x="44.7998" y="23.4666" width="2.13334" height="2.13333" fill="#DCF2FD"/>
<rect x="46.9331" y="21.3333" width="2.13333" height="2.13333" fill="white"/>
<rect x="12.7998" y="25.6001" width="2.13333" height="2.13333" fill="white"/>
<rect x="14.9331" y="25.6001" width="2.13333" height="2.13333" fill="white"/>
<rect x="17.0669" y="27.7334" width="2.13333" height="2.13333" fill="white"/>
<rect x="19.2002" y="27.7334" width="2.13333" height="2.13333" fill="white"/>
<rect x="21.3335" y="29.8667" width="2.13333" height="2.13333" fill="white"/>
<rect x="23.4668" y="29.8667" width="2.13333" height="2.13333" fill="white"/>
<rect x="25.6001" y="29.8667" width="2.13333" height="2.13333" fill="white"/>
<rect x="27.7334" y="29.8667" width="2.13333" height="2.13333" fill="white"/>
<rect x="29.8667" y="29.8667" width="2.13333" height="2.13333" fill="white"/>
<rect x="32" y="29.8667" width="2.13334" height="2.13333" fill="white"/>
<rect x="34.1333" y="29.8667" width="2.13333" height="2.13333" fill="#DCF2FD"/>
<rect x="36.2666" y="29.8667" width="2.13334" height="2.13333" fill="#DCF2FD"/>
<rect x="38.3999" y="29.8667" width="2.13333" height="2.13333" fill="#DCF2FD"/>
<rect x="40.5332" y="29.8667" width="2.13334" height="2.13333" fill="#DCF2FD"/>
<rect x="42.6665" y="27.7334" width="2.13333" height="2.13333" fill="#DCF2FD"/>
<rect x="44.7998" y="25.6001" width="2.13334" height="2.13333" fill="#DCF2FD"/>
<rect x="46.9331" y="23.4666" width="2.13333" height="2.13333" fill="white"/>
<rect x="12.7998" y="27.7334" width="2.13333" height="2.13333" fill="white"/>
<rect x="14.9331" y="27.7334" width="2.13333" height="2.13333" fill="white"/>
<rect x="17.0669" y="29.8667" width="2.13333" height="2.13333" fill="white"/>
<rect x="12.7998" y="38.3999" width="2.13333" height="2.13333" fill="white"/>
<rect x="12.7998" y="40.5334" width="2.13333" height="2.13334" fill="white"/>
<rect x="12.7998" y="42.6667" width="2.13333" height="2.13333" fill="white"/>
<rect x="14.9331" y="38.3999" width="2.13333" height="2.13333" fill="white"/>
<rect x="14.9331" y="40.5334" width="2.13333" height="2.13334" fill="white"/>
<rect x="17.0669" y="40.5334" width="2.13333" height="2.13334" fill="white"/>
<rect x="19.2002" y="42.6667" width="2.13333" height="2.13333" fill="white"/>
<rect x="14.9331" y="42.6667" width="2.13333" height="2.13333" fill="white"/>
<rect x="14.9331" y="44.8" width="2.13333" height="2.13334" fill="white"/>
<rect x="17.0669" y="42.6667" width="2.13333" height="2.13333" fill="white"/>
<rect x="17.0669" y="44.8" width="2.13333" height="2.13334" fill="white"/>
<rect x="19.2002" y="44.8" width="2.13333" height="2.13334" fill="white"/>
<rect x="21.3335" y="44.8" width="2.13333" height="2.13334" fill="white"/>
<rect x="23.4668" y="44.8" width="2.13333" height="2.13334" fill="white"/>
<rect x="19.2002" y="46.9333" width="2.13333" height="2.13333" fill="white"/>
<rect x="21.3335" y="46.9333" width="2.13333" height="2.13333" fill="white"/>
<rect x="23.4668" y="46.9333" width="2.13333" height="2.13333" fill="white"/>
<rect x="25.6001" y="46.9333" width="2.13333" height="2.13333" fill="white"/>
<rect x="23.4668" y="49.0667" width="2.13333" height="2.13334" fill="white"/>
<rect x="25.6001" y="49.0667" width="2.13333" height="2.13334" fill="white"/>
<rect x="27.7334" y="49.0667" width="2.13333" height="2.13334" fill="white"/>
<rect x="51.2002" y="36.2666" width="2.13333" height="2.13334" fill="white"/>
<rect x="53.3335" y="32" width="2.13334" height="2.13334" fill="white"/>
<rect x="53.3335" y="34.1333" width="2.13334" height="2.13333" fill="white"/>
<rect x="55.4668" y="34.1333" width="2.13333" height="2.13333" fill="white"/>
<rect x="55.4668" y="36.2666" width="2.13333" height="2.13334" fill="white"/>
<rect x="55.4668" y="38.3999" width="2.13333" height="2.13333" fill="white"/>
<rect x="55.4668" y="40.5334" width="2.13333" height="2.13334" fill="white"/>
<rect x="53.3335" y="40.5334" width="2.13334" height="2.13334" fill="white"/>
<rect x="53.3335" y="42.6667" width="2.13334" height="2.13333" fill="white"/>
<rect x="53.3335" y="44.8" width="2.13334" height="2.13334" fill="white"/>
<rect x="51.2002" y="44.8" width="2.13333" height="2.13334" fill="white"/>
<rect x="51.2002" y="46.9333" width="2.13333" height="2.13333" fill="white"/>
<rect x="49.0669" y="46.9333" width="2.13334" height="2.13333" fill="white"/>
<rect x="49.0669" y="49.0667" width="2.13334" height="2.13334" fill="white"/>
<rect x="46.9331" y="49.0667" width="2.13333" height="2.13334" fill="white"/>
<rect x="44.7998" y="49.0667" width="2.13334" height="2.13334" fill="white"/>
<rect x="44.7998" y="51.2" width="2.13334" height="2.13333" fill="white"/>
<rect x="42.6665" y="51.2" width="2.13333" height="2.13333" fill="white"/>
<rect x="40.5332" y="51.2" width="2.13334" height="2.13333" fill="white"/>
<rect x="40.5332" y="53.3333" width="2.13334" height="2.13334" fill="white"/>
<rect x="38.3999" y="53.3333" width="2.13333" height="2.13334" fill="white"/>
<rect x="36.2666" y="53.3333" width="2.13334" height="2.13334" fill="white"/>
<rect x="34.1333" y="53.3333" width="2.13333" height="2.13334" fill="white"/>
<rect x="32" y="53.3333" width="2.13334" height="2.13334" fill="white"/>
<rect x="29.8667" y="53.3333" width="2.13333" height="2.13334" fill="white"/>
<rect x="27.7334" y="53.3333" width="2.13333" height="2.13334" fill="white"/>
<rect x="25.6001" y="53.3333" width="2.13333" height="2.13334" fill="white"/>
<rect x="23.4668" y="53.3333" width="2.13333" height="2.13334" fill="white"/>
<rect x="21.3335" y="53.3333" width="2.13333" height="2.13334" fill="white"/>
<rect x="21.3335" y="51.2" width="2.13333" height="2.13333" fill="white"/>
<rect x="19.2002" y="51.2" width="2.13333" height="2.13333" fill="white"/>
<rect x="17.0669" y="51.2" width="2.13333" height="2.13333" fill="white"/>
<rect x="17.0669" y="49.0667" width="2.13333" height="2.13334" fill="white"/>
<rect x="14.9331" y="49.0667" width="2.13333" height="2.13334" fill="white"/>
<rect x="12.7998" y="49.0667" width="2.13333" height="2.13334" fill="white"/>
<rect x="12.7998" y="46.9333" width="2.13333" height="2.13333" fill="white"/>
<rect x="10.6665" y="46.9333" width="2.13333" height="2.13333" fill="white"/>
<rect x="10.6665" y="44.8" width="2.13333" height="2.13334" fill="white"/>
<rect x="8.5332" y="44.8" width="2.13333" height="2.13334" fill="white"/>
<rect x="8.5332" y="42.6667" width="2.13333" height="2.13333" fill="white"/>
<rect x="14.9331" y="32" width="2.13333" height="2.13334" fill="white"/>
<rect x="17.0669" y="34.1333" width="2.13333" height="2.13333" fill="white"/>
<rect x="19.2002" y="34.1333" width="2.13333" height="2.13333" fill="white"/>
<rect x="42.6665" y="34.1333" width="2.13333" height="2.13333" fill="#DCF2FD"/>
<rect x="44.7998" y="32" width="2.13334" height="2.13334" fill="#DCF2FD"/>
<rect x="46.9331" y="29.8667" width="2.13333" height="2.13333" fill="white"/>
<rect x="49.0669" y="29.8667" width="2.13334" height="2.13333" fill="white"/>
<rect x="51.2002" y="29.8667" width="2.13333" height="2.13333" fill="white"/>
<rect x="53.3335" y="27.7334" width="2.13334" height="2.13333" fill="white"/>
<rect x="55.4668" y="25.6001" width="2.13333" height="2.13333" fill="white"/>
<rect x="53.3335" y="21.3333" width="2.13334" height="2.13333" fill="white"/>
<rect x="55.4668" y="21.3333" width="2.13333" height="2.13333" fill="white"/>
<rect x="19.2002" y="29.8667" width="2.13333" height="2.13333" fill="white"/>
<rect x="21.3335" y="32" width="2.13333" height="2.13334" fill="white"/>
<rect x="23.4668" y="32" width="2.13333" height="2.13334" fill="white"/>
<rect x="25.6001" y="32" width="2.13333" height="2.13334" fill="white"/>
<rect x="27.7334" y="32" width="2.13333" height="2.13334" fill="white"/>
<rect x="29.8667" y="32" width="2.13333" height="2.13334" fill="white"/>
<rect x="32" y="32" width="2.13334" height="2.13334" fill="white"/>
<rect x="34.1333" y="32" width="2.13333" height="2.13334" fill="#DCF2FD"/>
<rect x="36.2666" y="32" width="2.13334" height="2.13334" fill="#DCF2FD"/>
<rect x="38.3999" y="32" width="2.13333" height="2.13334" fill="#DCF2FD"/>
<rect x="40.5332" y="32" width="2.13334" height="2.13334" fill="#DCF2FD"/>
<rect x="42.6665" y="29.8667" width="2.13333" height="2.13333" fill="#DCF2FD"/>
<rect x="44.7998" y="27.7334" width="2.13334" height="2.13333" fill="#DCF2FD"/>
<rect x="46.9331" y="25.6001" width="2.13333" height="2.13333" fill="white"/>
<rect x="12.7998" y="29.8667" width="2.13333" height="2.13333" fill="white"/>
<rect x="14.9331" y="29.8667" width="2.13333" height="2.13333" fill="white"/>
<rect x="17.0669" y="32" width="2.13333" height="2.13334" fill="white"/>
<rect x="14.9331" y="34.1333" width="2.13333" height="2.13333" fill="white"/>
<rect x="44.7998" y="34.1333" width="2.13334" height="2.13333" fill="#DCF2FD"/>
<rect x="46.9331" y="32" width="2.13333" height="2.13334" fill="white"/>
<rect x="46.9331" y="34.1333" width="2.13333" height="2.13333" fill="white"/>
<rect x="19.2002" y="32" width="2.13333" height="2.13334" fill="white"/>
<rect x="21.3335" y="34.1333" width="2.13333" height="2.13333" fill="white"/>
<rect x="23.4668" y="34.1333" width="2.13333" height="2.13333" fill="white"/>
<rect x="25.6001" y="34.1333" width="2.13333" height="2.13333" fill="white"/>
<rect x="27.7334" y="34.1333" width="2.13333" height="2.13333" fill="white"/>
<rect x="29.8667" y="34.1333" width="2.13333" height="2.13333" fill="white"/>
<rect x="32" y="34.1333" width="2.13334" height="2.13333" fill="white"/>
<rect x="34.1333" y="34.1333" width="2.13333" height="2.13333" fill="#DCF2FD"/>
<rect x="36.2666" y="34.1333" width="2.13334" height="2.13333" fill="#DCF2FD"/>
<rect x="38.3999" y="34.1333" width="2.13333" height="2.13333" fill="#DCF2FD"/>
<rect x="40.5332" y="34.1333" width="2.13334" height="2.13333" fill="#DCF2FD"/>
<rect x="42.6665" y="32" width="2.13333" height="2.13334" fill="#DCF2FD"/>
<rect x="44.7998" y="29.8667" width="2.13334" height="2.13333" fill="#DCF2FD"/>
<rect x="46.9331" y="27.7334" width="2.13333" height="2.13333" fill="white"/>
<rect x="49.0669" y="27.7334" width="2.13334" height="2.13333" fill="white"/>
<rect x="51.2002" y="27.7334" width="2.13333" height="2.13333" fill="white"/>
<rect x="53.3335" y="25.6001" width="2.13334" height="2.13333" fill="white"/>
<rect x="55.4668" y="23.4666" width="2.13333" height="2.13333" fill="white"/>
<rect x="53.3335" y="19.2" width="2.13334" height="2.13333" fill="white"/>
<rect x="51.2002" y="19.2" width="2.13333" height="2.13333" fill="white"/>
<rect x="49.0669" y="19.2" width="2.13334" height="2.13333" fill="white"/>
<rect x="14.9331" y="17.0667" width="2.13333" height="2.13333" fill="white"/>
<rect x="14.9331" y="19.2" width="2.13333" height="2.13333" fill="#71BBE3"/>
<rect x="17.0669" y="21.3333" width="2.13333" height="2.13333" fill="#71BBE3"/>
<rect x="17.0669" y="17.0667" width="2.13333" height="2.13333" fill="white"/>
<rect x="17.0669" y="19.2" width="2.13333" height="2.13333" fill="white"/>
<rect x="19.2002" y="19.2" width="2.13333" height="2.13333" fill="white"/>
<rect x="19.2002" y="21.3333" width="2.13333" height="2.13333" fill="#71BBE3"/>
<rect x="21.3335" y="21.3333" width="2.13333" height="2.13333" fill="white"/>
<rect x="21.3335" y="23.4666" width="2.13333" height="2.13333" fill="#71BBE3"/>
<rect x="23.4668" y="21.3333" width="2.13333" height="2.13333" fill="white"/>
<rect x="23.4668" y="23.4666" width="2.13333" height="2.13333" fill="#71BBE3"/>
<rect x="25.6001" y="21.3333" width="2.13333" height="2.13333" fill="white"/>
<rect x="25.6001" y="23.4666" width="2.13333" height="2.13333" fill="#71BBE3"/>
<rect x="27.7334" y="21.3333" width="2.13333" height="2.13333" fill="white"/>
<rect x="27.7334" y="23.4666" width="2.13333" height="2.13333" fill="#71BBE3"/>
<rect x="29.8667" y="21.3333" width="2.13333" height="2.13333" fill="white"/>
<rect x="29.8667" y="23.4666" width="2.13333" height="2.13333" fill="#71BBE3"/>
<rect x="32" y="21.3333" width="2.13334" height="2.13333" fill="white"/>
<rect x="32" y="23.4666" width="2.13334" height="2.13333" fill="#71BBE3"/>
<rect x="34.1333" y="21.3333" width="2.13333" height="2.13333" fill="white"/>
<rect x="34.1333" y="23.4666" width="2.13333" height="2.13333" fill="#71BBE3"/>
<rect x="36.2666" y="21.3333" width="2.13334" height="2.13333" fill="white"/>
<rect x="36.2666" y="23.4666" width="2.13334" height="2.13333" fill="#71BBE3"/>
<rect x="38.3999" y="21.3333" width="2.13333" height="2.13333" fill="white"/>
<rect x="38.3999" y="23.4666" width="2.13333" height="2.13333" fill="#71BBE3"/>
<rect x="40.5332" y="21.3333" width="2.13334" height="2.13333" fill="white"/>
<rect x="40.5332" y="23.4666" width="2.13334" height="2.13333" fill="#71BBE3"/>
<rect x="42.6665" y="21.3333" width="2.13333" height="2.13333" fill="#71BBE3"/>
<rect x="42.6665" y="19.2" width="2.13333" height="2.13333" fill="white"/>
<rect x="44.7998" y="19.2" width="2.13334" height="2.13333" fill="#71BBE3"/>
<rect x="44.7998" y="17.0667" width="2.13334" height="2.13333" fill="white"/>
<rect x="46.9331" y="17.0667" width="2.13333" height="2.13333" fill="#71BBE3"/>
<rect x="46.9331" y="14.9333" width="2.13333" height="2.13333" fill="white"/>
<rect x="46.9331" y="12.8" width="2.13333" height="2.13333" fill="#DCF2FD"/>
<rect x="44.7998" y="12.8" width="2.13334" height="2.13333" fill="#DCF2FD"/>
<rect x="44.7998" y="10.6667" width="2.13334" height="2.13333" fill="#DCF2FD"/>
<rect x="42.6665" y="10.6667" width="2.13333" height="2.13333" fill="#DCF2FD"/>
<rect x="23.4668" y="8.53345" width="2.13333" height="2.13333" fill="white"/>
<rect x="25.6001" y="8.53345" width="2.13333" height="2.13333" fill="white"/>
<rect x="27.7334" y="8.53345" width="2.13333" height="2.13333" fill="white"/>
<rect x="29.8667" y="8.53345" width="2.13333" height="2.13333" fill="white"/>
<rect x="32" y="8.53345" width="2.13334" height="2.13333" fill="white"/>
<rect x="34.1333" y="8.53345" width="2.13333" height="2.13333" fill="white"/>
<rect x="36.2666" y="8.53345" width="2.13334" height="2.13333" fill="white"/>
<rect x="38.3999" y="8.53345" width="2.13333" height="2.13333" fill="white"/>
<rect x="40.5332" y="8.53345" width="2.13334" height="2.13333" fill="white"/>
<rect width="2.13333" height="2.13333" transform="matrix(-1 0 0 1 49.0669 19.2)" fill="white"/>
<rect x="14.9331" y="21.3333" width="2.13333" height="2.13333" fill="white"/>
<rect width="2.13334" height="2.13333" transform="matrix(-1 0 0 1 46.9331 21.3333)" fill="white"/>
<rect x="17.0669" y="23.4666" width="2.13333" height="2.13333" fill="white"/>
<rect width="2.13333" height="2.13333" transform="matrix(-1 0 0 1 44.7998 23.4666)" fill="white"/>
<rect x="19.2002" y="23.4666" width="2.13333" height="2.13333" fill="white"/>
<rect width="2.13334" height="2.13333" transform="matrix(-1 0 0 1 42.6665 25.6001)" fill="white"/>
<rect x="21.3335" y="25.6001" width="2.13333" height="2.13333" fill="white"/>
<rect width="2.13333" height="2.13333" transform="matrix(-1 0 0 1 40.5332 25.6001)" fill="white"/>
<rect x="23.4668" y="25.6001" width="2.13333" height="2.13333" fill="white"/>
<rect width="2.13334" height="2.13333" transform="matrix(-1 0 0 1 38.3999 25.6001)" fill="white"/>
<rect x="25.6001" y="25.6001" width="2.13333" height="2.13333" fill="white"/>
<rect width="2.13333" height="2.13333" transform="matrix(-1 0 0 1 36.2666 25.6001)" fill="white"/>
<rect x="27.7334" y="25.6001" width="2.13333" height="2.13333" fill="white"/>
<rect width="2.13334" height="2.13333" transform="matrix(-1 0 0 1 34.1333 25.6001)" fill="white"/>
<rect x="29.8667" y="25.6001" width="2.13333" height="2.13333" fill="white"/>
<rect width="2.13334" height="2.13333" transform="matrix(-1 0 0 1 55.4668 17.0667)" fill="black"/>
<rect x="10.6665" y="21.3333" width="2.13333" height="2.13333" fill="black"/>
<rect x="10.6665" y="23.4666" width="2.13333" height="2.13333" fill="black"/>
<rect x="10.6665" y="25.6001" width="2.13333" height="2.13333" fill="black"/>
<rect x="10.6665" y="27.7334" width="2.13333" height="2.13333" fill="black"/>
<rect width="2.13334" height="2.13333" transform="matrix(-1 0 0 1 55.4668 29.8667)" fill="black"/>
<rect width="2.13333" height="2.13334" transform="matrix(-1 0 0 1 57.6001 32)" fill="black"/>
<rect x="6.3999" y="34.1333" width="2.13333" height="2.13333" fill="black"/>
<rect x="8.5332" y="32" width="2.13333" height="2.13334" fill="black"/>
<rect width="2.13334" height="2.13333" transform="matrix(-1 0 0 1 59.7334 34.1333)" fill="black"/>
<rect x="4.2666" y="36.2666" width="2.13333" height="2.13334" fill="black"/>
<rect width="2.13334" height="2.13334" transform="matrix(-1 0 0 1 59.7334 36.2666)" fill="black"/>
<rect width="2.13334" height="2.13333" transform="matrix(-1 0 0 1 59.7334 38.3999)" fill="black"/>
<rect x="4.2666" y="38.3999" width="2.13333" height="2.13333" fill="black"/>
<rect width="2.13334" height="2.13334" transform="matrix(-1 0 0 1 59.7334 40.5334)" fill="black"/>
<rect x="4.2666" y="40.5334" width="2.13333" height="2.13334" fill="black"/>
<rect width="2.13333" height="2.13333" transform="matrix(-1 0 0 1 57.6001 42.6667)" fill="black"/>
<rect x="6.3999" y="42.6667" width="2.13333" height="2.13333" fill="black"/>
<rect width="2.13333" height="2.13334" transform="matrix(-1 0 0 1 57.6001 44.8)" fill="black"/>
<rect x="6.3999" y="44.8" width="2.13333" height="2.13334" fill="black"/>
<rect width="2.13334" height="2.13333" transform="matrix(-1 0 0 1 55.4668 46.9333)" fill="black"/>
<rect x="8.5332" y="46.9333" width="2.13333" height="2.13333" fill="black"/>
<rect width="2.13333" height="2.13334" transform="matrix(-1 0 0 1 53.3335 49.0667)" fill="black"/>
<rect x="10.6665" y="49.0667" width="2.13333" height="2.13334" fill="black"/>
<rect width="2.13334" height="2.13333" transform="matrix(-1 0 0 1 51.2002 51.2)" fill="black"/>
<rect x="12.7998" y="51.2" width="2.13333" height="2.13333" fill="black"/>
<rect width="2.13333" height="2.13333" transform="matrix(-1 0 0 1 49.0669 51.2)" fill="black"/>
<rect x="14.9331" y="51.2" width="2.13333" height="2.13333" fill="black"/>
<rect width="2.13334" height="2.13334" transform="matrix(-1 0 0 1 46.9331 53.3333)" fill="black"/>
<rect x="17.0669" y="53.3333" width="2.13333" height="2.13334" fill="black"/>
<rect width="2.13333" height="2.13334" transform="matrix(-1 0 0 1 44.7998 53.3333)" fill="black"/>
<rect x="19.2002" y="53.3333" width="2.13333" height="2.13334" fill="black"/>
<rect width="2.13334" height="2.13333" transform="matrix(-1 0 0 1 42.6665 55.4666)" fill="black"/>
<rect x="21.3335" y="55.4666" width="2.13333" height="2.13333" fill="black"/>
<rect width="2.13333" height="2.13333" transform="matrix(-1 0 0 1 40.5332 55.4666)" fill="black"/>
<rect x="23.4668" y="55.4666" width="2.13333" height="2.13333" fill="black"/>
<rect width="2.13334" height="2.13333" transform="matrix(-1 0 0 1 38.3999 55.4666)" fill="black"/>
<rect x="25.6001" y="55.4666" width="2.13333" height="2.13333" fill="black"/>
<rect width="2.13333" height="2.13333" transform="matrix(-1 0 0 1 36.2666 55.4666)" fill="black"/>
<rect x="27.7334" y="55.4666" width="2.13333" height="2.13333" fill="black"/>
<rect width="2.13334" height="2.13333" transform="matrix(-1 0 0 1 34.1333 55.4666)" fill="black"/>
<rect x="29.8667" y="55.4666" width="2.13333" height="2.13333" fill="black"/>
<rect width="2.13333" height="2.13333" transform="matrix(-1 0 0 1 57.6001 27.7334)" fill="black"/>
<rect width="2.13334" height="2.13333" transform="matrix(-1 0 0 1 59.7334 23.4666)" fill="black"/>
<rect width="2.13334" height="2.13333" transform="matrix(-1 0 0 1 59.7334 21.3333)" fill="black"/>
<rect width="2.13333" height="2.13333" transform="matrix(-1 0 0 1 57.6001 19.2)" fill="black"/>
<rect width="2.13334" height="2.13333" transform="matrix(-1 0 0 1 59.7334 25.6001)" fill="black"/>
<rect x="10.6665" y="29.8667" width="2.13333" height="2.13333" fill="black"/>
<rect width="2.13333" height="2.13334" transform="matrix(-1 0 0 1 53.3335 32)" fill="black"/>
<rect width="2.13333" height="2.13333" transform="matrix(-1 0 0 1 53.3335 25.6001)" fill="black"/>
<rect width="2.13334" height="2.13333" transform="matrix(-1 0 0 1 55.4668 23.4666)" fill="black"/>
<rect width="2.13333" height="2.13333" transform="matrix(-1 0 0 1 53.3335 21.3333)" fill="black"/>
<rect width="2.13334" height="2.13333" transform="matrix(-1 0 0 1 51.2002 21.3333)" fill="black"/>
<rect width="2.13334" height="2.13333" transform="matrix(-1 0 0 1 51.2002 23.4666)" fill="black"/>
<rect width="2.13334" height="2.13333" transform="matrix(-1 0 0 1 51.2002 25.6001)" fill="black"/>
<rect x="12.7998" y="34.1333" width="2.13333" height="2.13333" fill="black"/>
<rect width="2.13334" height="2.13333" transform="matrix(-1 0 0 1 51.2002 34.1333)" fill="black"/>
<rect x="12.7998" y="32" width="2.13333" height="2.13334" fill="black"/>
<rect width="2.13334" height="2.13334" transform="matrix(-1 0 0 1 51.2002 32)" fill="black"/>
<rect x="21.3335" y="36.2666" width="2.13333" height="2.13334" fill="white"/>
<rect x="23.4668" y="36.2666" width="2.13333" height="2.13334" fill="white"/>
<rect x="25.6001" y="36.2666" width="2.13333" height="2.13334" fill="white"/>
<rect x="27.7334" y="36.2666" width="2.13333" height="2.13334" fill="white"/>
<rect x="29.8667" y="36.2666" width="2.13333" height="2.13334" fill="white"/>
<rect x="32" y="36.2666" width="2.13334" height="2.13334" fill="#DCF2FD"/>
<rect x="34.1333" y="36.2666" width="2.13333" height="2.13334" fill="#DCF2FD"/>
<rect x="36.2666" y="36.2666" width="2.13334" height="2.13334" fill="#DCF2FD"/>
<rect x="38.3999" y="36.2666" width="2.13333" height="2.13334" fill="#DCF2FD"/>
<rect x="40.5332" y="36.2666" width="2.13334" height="2.13334" fill="#DCF2FD"/>
<rect x="17.0669" y="36.2666" width="2.13333" height="2.13334" fill="white"/>
<rect x="19.2002" y="36.2666" width="2.13333" height="2.13334" fill="white"/>
<rect x="21.3335" y="38.3999" width="2.13333" height="2.13333" fill="white"/>
<rect x="23.4668" y="38.3999" width="2.13333" height="2.13333" fill="white"/>
<rect x="25.6001" y="38.3999" width="2.13333" height="2.13333" fill="white"/>
<rect x="27.7334" y="38.3999" width="2.13333" height="2.13333" fill="white"/>
<rect x="29.8667" y="38.3999" width="2.13333" height="2.13333" fill="#DCF2FD"/>
<rect x="32" y="38.3999" width="2.13334" height="2.13333" fill="#DCF2FD"/>
<rect x="34.1333" y="38.3999" width="2.13333" height="2.13333" fill="#DCF2FD"/>
<rect x="36.2666" y="38.3999" width="2.13334" height="2.13333" fill="#DCF2FD"/>
<rect x="38.3999" y="38.3999" width="2.13333" height="2.13333" fill="#DCF2FD"/>
<rect x="40.5332" y="38.3999" width="2.13334" height="2.13333" fill="#DCF2FD"/>
<rect x="42.6665" y="36.2666" width="2.13333" height="2.13334" fill="#DCF2FD"/>
<rect x="19.2002" y="38.3999" width="2.13333" height="2.13333" fill="white"/>
<rect x="21.3335" y="40.5334" width="2.13333" height="2.13334" fill="white"/>
<rect x="23.4668" y="40.5334" width="2.13333" height="2.13334" fill="white"/>
<rect x="25.6001" y="40.5334" width="2.13333" height="2.13334" fill="white"/>
<rect x="27.7334" y="40.5334" width="2.13333" height="2.13334" fill="white"/>
<rect x="29.8667" y="40.5334" width="2.13333" height="2.13334" fill="white"/>
<rect x="32" y="40.5334" width="2.13334" height="2.13334" fill="white"/>
<rect x="34.1333" y="40.5334" width="2.13333" height="2.13334" fill="white"/>
<rect x="36.2666" y="40.5334" width="2.13334" height="2.13334" fill="white"/>
<rect x="38.3999" y="40.5334" width="2.13333" height="2.13334" fill="white"/>
<rect x="40.5332" y="40.5334" width="2.13334" height="2.13334" fill="white"/>
<rect x="42.6665" y="38.3999" width="2.13333" height="2.13333" fill="white"/>
<rect x="44.7998" y="36.2666" width="2.13334" height="2.13334" fill="white"/>
<rect x="14.9331" y="36.2666" width="2.13333" height="2.13334" fill="black"/>
<rect width="2.13333" height="2.13334" transform="matrix(-1 0 0 1 49.0669 36.2666)" fill="black"/>
<rect x="17.0669" y="38.3999" width="2.13333" height="2.13333" fill="black"/>
<rect width="2.13334" height="2.13333" transform="matrix(-1 0 0 1 46.9331 38.3999)" fill="black"/>
<rect x="19.2002" y="40.5334" width="2.13333" height="2.13334" fill="black"/>
<rect width="2.13333" height="2.13334" transform="matrix(-1 0 0 1 44.7998 40.5334)" fill="black"/>
<rect x="21.3335" y="42.6667" width="2.13333" height="2.13333" fill="black"/>
<rect width="2.13334" height="2.13333" transform="matrix(-1 0 0 1 42.6665 42.6667)" fill="black"/>
<rect x="23.4668" y="42.6667" width="2.13333" height="2.13333" fill="black"/>
<rect width="2.13333" height="2.13333" transform="matrix(-1 0 0 1 40.5332 42.6667)" fill="black"/>
<rect x="25.6001" y="42.6667" width="2.13333" height="2.13333" fill="black"/>
<rect width="2.13334" height="2.13333" transform="matrix(-1 0 0 1 38.3999 42.6667)" fill="black"/>
<rect x="27.7334" y="42.6667" width="2.13333" height="2.13333" fill="black"/>
<rect width="2.13333" height="2.13333" transform="matrix(-1 0 0 1 36.2666 42.6667)" fill="black"/>
<rect x="29.8667" y="42.6667" width="2.13333" height="2.13333" fill="black"/>
<rect width="2.13334" height="2.13333" transform="matrix(-1 0 0 1 34.1333 42.6667)" fill="black"/>
<rect x="10.6665" y="32" width="2.13333" height="2.13334" fill="#DCF2FD"/>
<rect x="10.6665" y="34.1333" width="2.13333" height="2.13333" fill="#71BBE3"/>
<rect x="12.7998" y="36.2666" width="2.13333" height="2.13334" fill="#DCF2FD"/>
<rect x="10.6665" y="38.3999" width="2.13333" height="2.13333" fill="#DCF2FD"/>
<rect x="10.6665" y="36.2666" width="2.13333" height="2.13334" fill="#DCF2FD"/>
<rect x="25.6001" y="44.8" width="2.13333" height="2.13334" fill="#DCF2FD"/>
<rect x="27.7334" y="44.8" width="2.13333" height="2.13334" fill="#DCF2FD"/>
<rect x="27.7334" y="46.9333" width="2.13333" height="2.13333" fill="#DCF2FD"/>
<rect x="29.8667" y="44.8" width="2.13333" height="2.13334" fill="#DCF2FD"/>
<rect x="29.8667" y="46.9333" width="2.13333" height="2.13333" fill="#DCF2FD"/>
<rect x="29.8667" y="49.0667" width="2.13333" height="2.13334" fill="#DCF2FD"/>
<rect x="32" y="44.8" width="2.13334" height="2.13334" fill="#DCF2FD"/>
<rect x="32" y="46.9333" width="2.13334" height="2.13333" fill="#DCF2FD"/>
<rect x="32" y="49.0667" width="2.13334" height="2.13334" fill="#DCF2FD"/>
<rect x="34.1333" y="44.8" width="2.13333" height="2.13334" fill="#DCF2FD"/>
<rect x="34.1333" y="46.9333" width="2.13333" height="2.13333" fill="#DCF2FD"/>
<rect x="34.1333" y="49.0667" width="2.13333" height="2.13334" fill="#DCF2FD"/>
<rect x="36.2666" y="44.8" width="2.13334" height="2.13334" fill="#DCF2FD"/>
<rect x="36.2666" y="46.9333" width="2.13334" height="2.13333" fill="#DCF2FD"/>
<rect x="36.2666" y="49.0667" width="2.13334" height="2.13334" fill="#DCF2FD"/>
<rect x="38.3999" y="44.8" width="2.13333" height="2.13334" fill="#DCF2FD"/>
<rect x="38.3999" y="46.9333" width="2.13333" height="2.13333" fill="#DCF2FD"/>
<rect x="38.3999" y="49.0667" width="2.13333" height="2.13334" fill="#DCF2FD"/>
<rect x="40.5332" y="44.8" width="2.13334" height="2.13334" fill="#DCF2FD"/>
<rect x="40.5332" y="46.9333" width="2.13334" height="2.13333" fill="#DCF2FD"/>
<rect x="40.5332" y="49.0667" width="2.13334" height="2.13334" fill="#71BBE3"/>
<rect x="42.6665" y="44.8" width="2.13333" height="2.13334" fill="#DCF2FD"/>
<rect x="42.6665" y="46.9333" width="2.13333" height="2.13333" fill="#DCF2FD"/>
<rect x="42.6665" y="49.0667" width="2.13333" height="2.13334" fill="#71BBE3"/>
<rect x="42.6665" y="42.6667" width="2.13333" height="2.13333" fill="#DCF2FD"/>
<rect x="44.7998" y="42.6667" width="2.13334" height="2.13333" fill="#DCF2FD"/>
<rect x="44.7998" y="40.5334" width="2.13334" height="2.13334" fill="#DCF2FD"/>
<rect x="46.9331" y="40.5334" width="2.13333" height="2.13334" fill="#DCF2FD"/>
<rect x="46.9331" y="38.3999" width="2.13333" height="2.13333" fill="#DCF2FD"/>
<rect x="49.0669" y="36.2666" width="2.13334" height="2.13334" fill="#DCF2FD"/>
<rect x="49.0669" y="38.3999" width="2.13334" height="2.13333" fill="#DCF2FD"/>
<rect x="51.2002" y="38.3999" width="2.13333" height="2.13333" fill="#DCF2FD"/>
<rect x="51.2002" y="40.5334" width="2.13333" height="2.13334" fill="#71BBE3"/>
<rect x="49.0669" y="40.5334" width="2.13334" height="2.13334" fill="#DCF2FD"/>
<rect x="49.0669" y="42.6667" width="2.13334" height="2.13333" fill="#DCF2FD"/>
<rect x="46.9331" y="42.6667" width="2.13333" height="2.13333" fill="#DCF2FD"/>
<rect x="46.9331" y="44.8" width="2.13333" height="2.13334" fill="#DCF2FD"/>
<rect x="44.7998" y="44.8" width="2.13334" height="2.13334" fill="#DCF2FD"/>
<rect x="44.7998" y="46.9333" width="2.13334" height="2.13333" fill="#71BBE3"/>
<rect x="46.9331" y="46.9333" width="2.13333" height="2.13333" fill="#71BBE3"/>
<rect x="49.0669" y="44.8" width="2.13334" height="2.13334" fill="#71BBE3"/>
<rect x="51.2002" y="42.6667" width="2.13333" height="2.13333" fill="#71BBE3"/>
<rect x="53.3335" y="38.3999" width="2.13334" height="2.13333" fill="#71BBE3"/>
<rect x="53.3335" y="36.2666" width="2.13334" height="2.13334" fill="#71BBE3"/>
<rect x="51.2002" y="34.1333" width="2.13333" height="2.13333" fill="#71BBE3"/>
<rect x="8.5332" y="40.5334" width="2.13333" height="2.13334" fill="#DCF2FD"/>
<rect x="8.5332" y="38.3999" width="2.13333" height="2.13333" fill="#71BBE3"/>
<rect x="8.5332" y="36.2666" width="2.13333" height="2.13334" fill="#71BBE3"/>
<rect x="8.5332" y="34.1333" width="2.13333" height="2.13333" fill="#DCF2FD"/>
<rect x="6.3999" y="40.5334" width="2.13333" height="2.13334" fill="#DCF2FD"/>
<rect x="6.3999" y="38.3999" width="2.13333" height="2.13333" fill="#DCF2FD"/>
<rect x="6.3999" y="36.2666" width="2.13333" height="2.13334" fill="#DCF2FD"/>
<rect x="10.6665" y="40.5334" width="2.13333" height="2.13334" fill="#71BBE3"/>
<rect x="10.6665" y="42.6667" width="2.13333" height="2.13333" fill="#71BBE3"/>
<rect x="12.7998" y="44.8" width="2.13333" height="2.13334" fill="#71BBE3"/>
<rect x="14.9331" y="46.9333" width="2.13333" height="2.13333" fill="#71BBE3"/>
<rect x="17.0669" y="46.9333" width="2.13333" height="2.13333" fill="#71BBE3"/>
<rect x="19.2002" y="49.0667" width="2.13333" height="2.13334" fill="#71BBE3"/>
<rect x="21.3335" y="49.0667" width="2.13333" height="2.13334" fill="#71BBE3"/>
<rect x="23.4668" y="51.2" width="2.13333" height="2.13333" fill="#71BBE3"/>
<rect x="25.6001" y="51.2" width="2.13333" height="2.13333" fill="#71BBE3"/>
<rect x="27.7334" y="51.2" width="2.13333" height="2.13333" fill="#71BBE3"/>
<rect x="29.8667" y="51.2" width="2.13333" height="2.13333" fill="#71BBE3"/>
<rect x="32" y="51.2" width="2.13334" height="2.13333" fill="#71BBE3"/>
<rect x="34.1333" y="51.2" width="2.13333" height="2.13333" fill="#71BBE3"/>
<rect x="36.2666" y="51.2" width="2.13334" height="2.13333" fill="#71BBE3"/>
<rect x="38.3999" y="51.2" width="2.13333" height="2.13333" fill="#71BBE3"/>
<rect x="57.6001" y="19.2" width="2.13334" height="2.13333" fill="white"/>
<rect x="51.2002" y="23.4666" width="2.13333" height="2.13333" fill="white"/>
<rect x="59.7334" y="19.2" width="2.13333" height="2.13333" fill="white"/>
<rect x="61.8667" y="19.2" width="2.13334" height="2.13333" fill="#B0BEC5"/>
<rect x="59.7334" y="17.0667" width="2.13333" height="2.13333" fill="#B0BEC5"/>
<rect x="55.4668" y="17.0667" width="2.13333" height="2.13333" fill="white"/>
<rect x="57.6001" y="17.0667" width="2.13334" height="2.13333" fill="white"/>
<rect x="57.6001" y="14.9333" width="2.13334" height="2.13333" fill="#B0BEC5"/>
<rect x="53.3335" y="14.9333" width="2.13334" height="2.13333" fill="white"/>
<rect x="53.3335" y="12.8" width="2.13334" height="2.13333" fill="#B0BEC5"/>
<rect x="55.4668" y="14.9333" width="2.13333" height="2.13333" fill="white"/>
<rect x="55.4668" y="12.8" width="2.13333" height="2.13333" fill="#B0BEC5"/>
<rect x="51.2002" y="14.9333" width="2.13333" height="2.13333" fill="white"/>
<rect x="51.2002" y="12.8" width="2.13333" height="2.13333" fill="white"/>
<rect x="49.0669" y="10.6667" width="2.13334" height="2.13333" fill="white"/>
<rect x="51.2002" y="10.6667" width="2.13333" height="2.13333" fill="white"/>
<rect x="53.3335" y="10.6667" width="2.13334" height="2.13333" fill="#B0BEC5"/>
<rect x="51.2002" y="8.53345" width="2.13333" height="2.13333" fill="#B0BEC5"/>
<rect x="46.9331" y="8.53345" width="2.13333" height="2.13333" fill="white"/>
<rect x="49.0669" y="8.53345" width="2.13334" height="2.13333" fill="white"/>
<rect x="49.0669" y="6.3999" width="2.13334" height="2.13333" fill="#B0BEC5"/>
<rect x="44.7998" y="6.3999" width="2.13334" height="2.13333" fill="white"/>
<rect x="44.7998" y="4.2666" width="2.13334" height="2.13333" fill="#B0BEC5"/>
<rect x="46.9331" y="6.3999" width="2.13333" height="2.13333" fill="white"/>
<rect x="46.9331" y="4.2666" width="2.13333" height="2.13333" fill="#B0BEC5"/>
<rect x="42.6665" y="6.3999" width="2.13333" height="2.13333" fill="white"/>
<rect x="40.5332" y="4.2666" width="2.13334" height="2.13333" fill="white"/>
<rect x="40.5332" y="2.1333" width="2.13334" height="2.13333" fill="#B0BEC5"/>
<rect x="42.6665" y="4.2666" width="2.13333" height="2.13333" fill="white"/>
<rect x="42.6665" y="2.1333" width="2.13333" height="2.13333" fill="#B0BEC5"/>
<rect x="38.3999" y="4.2666" width="2.13333" height="2.13333" fill="white"/>
<rect x="38.3999" y="2.1333" width="2.13333" height="2.13333" fill="#B0BEC5"/>
<rect x="36.2666" y="4.2666" width="2.13334" height="2.13333" fill="white"/>
<rect x="36.2666" y="2.1333" width="2.13334" height="2.13333" fill="#B0BEC5"/>
<rect x="34.1333" y="4.2666" width="2.13333" height="2.13333" fill="white"/>
<rect x="34.1333" y="2.1333" width="2.13333" height="2.13333" fill="#B0BEC5"/>
<rect x="32" y="4.2666" width="2.13334" height="2.13333" fill="white"/>
<rect x="32" y="2.1333" width="2.13334" height="2.13333" fill="#B0BEC5"/>
<rect x="29.8667" y="4.2666" width="2.13333" height="2.13333" fill="white"/>
<rect x="29.8667" y="2.1333" width="2.13333" height="2.13333" fill="#B0BEC5"/>
<rect x="27.7334" y="4.2666" width="2.13333" height="2.13333" fill="white"/>
<rect x="27.7334" y="2.1333" width="2.13333" height="2.13333" fill="#B0BEC5"/>
<rect x="25.6001" y="4.2666" width="2.13333" height="2.13333" fill="white"/>
<rect x="25.6001" y="2.1333" width="2.13333" height="2.13333" fill="#B0BEC5"/>
<rect x="23.4668" y="4.2666" width="2.13333" height="2.13333" fill="white"/>
<rect x="23.4668" y="2.1333" width="2.13333" height="2.13333" fill="#B0BEC5"/>
<rect x="21.3335" y="4.2666" width="2.13333" height="2.13333" fill="white"/>
<rect x="21.3335" y="2.1333" width="2.13333" height="2.13333" fill="#B0BEC5"/>
<rect x="19.2002" y="6.3999" width="2.13333" height="2.13333" fill="white"/>
<rect x="19.2002" y="4.2666" width="2.13333" height="2.13333" fill="white"/>
<rect x="19.2002" y="2.1333" width="2.13333" height="2.13333" fill="#B0BEC5"/>
<rect x="17.0669" y="6.3999" width="2.13333" height="2.13333" fill="white"/>
<rect x="17.0669" y="4.2666" width="2.13333" height="2.13333" fill="#B0BEC5"/>
<rect x="14.9331" y="8.53345" width="2.13333" height="2.13333" fill="white"/>
<rect x="14.9331" y="6.3999" width="2.13333" height="2.13333" fill="white"/>
<rect x="14.9331" y="4.2666" width="2.13333" height="2.13333" fill="#B0BEC5"/>
<rect x="12.7998" y="10.6667" width="2.13333" height="2.13333" fill="white"/>
<rect x="12.7998" y="8.53345" width="2.13333" height="2.13333" fill="white"/>
<rect x="12.7998" y="6.3999" width="2.13333" height="2.13333" fill="#B0BEC5"/>
<rect x="10.6665" y="12.8" width="2.13333" height="2.13333" fill="white"/>
<rect x="10.6665" y="10.6667" width="2.13333" height="2.13333" fill="white"/>
<rect x="10.6665" y="8.53345" width="2.13333" height="2.13333" fill="#B0BEC5"/>
<rect x="8.5332" y="14.9333" width="2.13333" height="2.13333" fill="white"/>
<rect x="6.3999" y="14.9333" width="2.13333" height="2.13333" fill="#B0BEC5"/>
<rect x="8.5332" y="12.8" width="2.13333" height="2.13333" fill="white"/>
<rect x="6.3999" y="12.8" width="2.13333" height="2.13333" fill="#B0BEC5"/>
<rect x="8.5332" y="10.6667" width="2.13333" height="2.13333" fill="#B0BEC5"/>
<rect x="8.5332" y="17.0667" width="2.13333" height="2.13333" fill="white"/>
<rect x="6.3999" y="17.0667" width="2.13333" height="2.13333" fill="#B0BEC5"/>
<rect x="8.5332" y="19.2" width="2.13333" height="2.13333" fill="white"/>
<rect x="6.3999" y="19.2" width="2.13333" height="2.13333" fill="#B0BEC5"/>
<rect x="8.5332" y="21.3333" width="2.13333" height="2.13333" fill="white"/>
<rect x="6.3999" y="21.3333" width="2.13333" height="2.13333" fill="#B0BEC5"/>
<rect x="8.5332" y="23.4666" width="2.13333" height="2.13333" fill="white"/>
<rect x="6.3999" y="23.4666" width="2.13333" height="2.13333" fill="#B0BEC5"/>
<rect x="8.5332" y="25.6001" width="2.13333" height="2.13333" fill="white"/>
<rect x="6.3999" y="25.6001" width="2.13333" height="2.13333" fill="#B0BEC5"/>
<rect x="8.5332" y="27.7334" width="2.13333" height="2.13333" fill="white"/>
<rect x="6.3999" y="27.7334" width="2.13333" height="2.13333" fill="#B0BEC5"/>
<rect x="8.5332" y="29.8667" width="2.13333" height="2.13333" fill="white"/>
<rect x="6.3999" y="29.8667" width="2.13333" height="2.13333" fill="#B0BEC5"/>
<rect x="6.3999" y="32" width="2.13333" height="2.13334" fill="white"/>
<rect x="6.3999" y="29.8667" width="2.13333" height="2.13333" fill="white"/>
<rect x="4.2666" y="34.1333" width="2.13333" height="2.13333" fill="white"/>
<rect x="4.2666" y="32" width="2.13333" height="2.13334" fill="white"/>
<rect x="2.1333" y="32" width="2.13333" height="2.13334" fill="#B0BEC5"/>
<rect x="2.1333" y="36.2666" width="2.13333" height="2.13334" fill="white"/>
<rect y="36.2666" width="2.13333" height="2.13334" fill="#B0BEC5"/>
<rect x="2.1333" y="34.1333" width="2.13333" height="2.13333" fill="white"/>
<rect y="34.1333" width="2.13333" height="2.13333" fill="#B0BEC5"/>
<rect x="2.1333" y="38.3999" width="2.13333" height="2.13333" fill="white"/>
<rect y="38.3999" width="2.13333" height="2.13333" fill="#B0BEC5"/>
<rect x="2.1333" y="40.5334" width="2.13333" height="2.13334" fill="white"/>
<rect y="40.5334" width="2.13333" height="2.13334" fill="#B0BEC5"/>
<rect x="2.1333" y="42.6667" width="2.13333" height="2.13333" fill="white"/>
<rect y="42.6667" width="2.13333" height="2.13333" fill="#B0BEC5"/>
<rect x="2.1333" y="44.8" width="2.13333" height="2.13334" fill="#B0BEC5"/>
<rect x="4.2666" y="42.6667" width="2.13333" height="2.13333" fill="white"/>
<rect x="4.2666" y="44.8" width="2.13333" height="2.13334" fill="white"/>
<rect x="6.3999" y="46.9333" width="2.13333" height="2.13333" fill="white"/>
<rect x="4.2666" y="46.9333" width="2.13333" height="2.13333" fill="white"/>
<rect x="2.1333" y="46.9333" width="2.13333" height="2.13333" fill="#B0BEC5"/>
<rect x="4.2666" y="49.0667" width="2.13333" height="2.13334" fill="#B0BEC5"/>
<rect x="8.5332" y="49.0667" width="2.13333" height="2.13334" fill="white"/>
<rect x="6.3999" y="49.0667" width="2.13333" height="2.13334" fill="white"/>
<rect x="6.3999" y="51.2" width="2.13333" height="2.13333" fill="#B0BEC5"/>
<rect x="10.6665" y="51.2" width="2.13333" height="2.13333" fill="white"/>
<rect x="8.5332" y="51.2" width="2.13333" height="2.13333" fill="white"/>
<rect x="8.5332" y="53.3333" width="2.13333" height="2.13334" fill="#B0BEC5"/>
<rect x="12.7998" y="53.3333" width="2.13333" height="2.13334" fill="white"/>
<rect x="12.7998" y="55.4666" width="2.13333" height="2.13333" fill="#B0BEC5"/>
<rect x="10.6665" y="53.3333" width="2.13333" height="2.13334" fill="white"/>
<rect x="10.6665" y="55.4666" width="2.13333" height="2.13333" fill="#B0BEC5"/>
<rect x="14.9331" y="53.3333" width="2.13333" height="2.13334" fill="white"/>
<rect x="17.0669" y="55.4666" width="2.13333" height="2.13333" fill="white"/>
<rect x="17.0669" y="57.6001" width="2.13333" height="2.13334" fill="#B0BEC5"/>
<rect x="14.9331" y="55.4666" width="2.13333" height="2.13333" fill="white"/>
<rect x="14.9331" y="57.6001" width="2.13333" height="2.13334" fill="#B0BEC5"/>
<rect x="19.2002" y="55.4666" width="2.13333" height="2.13333" fill="white"/>
<rect x="21.3335" y="57.6001" width="2.13333" height="2.13334" fill="white"/>
<rect x="21.3335" y="59.7334" width="2.13333" height="2.13333" fill="#B0BEC5"/>
<rect x="19.2002" y="57.6001" width="2.13333" height="2.13334" fill="white"/>
<rect x="19.2002" y="59.7334" width="2.13333" height="2.13333" fill="#B0BEC5"/>
<rect x="23.4668" y="57.6001" width="2.13333" height="2.13334" fill="white"/>
<rect x="23.4668" y="59.7334" width="2.13333" height="2.13333" fill="#B0BEC5"/>
<rect x="25.6001" y="57.6001" width="2.13333" height="2.13334" fill="white"/>
<rect x="25.6001" y="59.7334" width="2.13333" height="2.13333" fill="#B0BEC5"/>
<rect x="27.7334" y="57.6001" width="2.13333" height="2.13334" fill="white"/>
<rect x="27.7334" y="59.7334" width="2.13333" height="2.13333" fill="#B0BEC5"/>
<rect x="29.8667" y="57.6001" width="2.13333" height="2.13334" fill="white"/>
<rect x="29.8667" y="59.7334" width="2.13333" height="2.13333" fill="#B0BEC5"/>
<rect x="32" y="57.6001" width="2.13334" height="2.13334" fill="white"/>
<rect x="32" y="59.7334" width="2.13334" height="2.13333" fill="#B0BEC5"/>
<rect x="34.1333" y="57.6001" width="2.13333" height="2.13334" fill="white"/>
<rect x="34.1333" y="59.7334" width="2.13333" height="2.13333" fill="#B0BEC5"/>
<rect x="36.2666" y="57.6001" width="2.13334" height="2.13334" fill="white"/>
<rect x="36.2666" y="59.7334" width="2.13334" height="2.13333" fill="#B0BEC5"/>
<rect x="38.3999" y="57.6001" width="2.13333" height="2.13334" fill="white"/>
<rect x="38.3999" y="59.7334" width="2.13333" height="2.13333" fill="#B0BEC5"/>
<rect x="40.5332" y="57.6001" width="2.13334" height="2.13334" fill="white"/>
<rect x="40.5332" y="59.7334" width="2.13334" height="2.13333" fill="#B0BEC5"/>
<rect x="42.6665" y="55.4666" width="2.13333" height="2.13333" fill="white"/>
<rect x="42.6665" y="57.6001" width="2.13333" height="2.13334" fill="white"/>
<rect x="42.6665" y="59.7334" width="2.13333" height="2.13333" fill="#B0BEC5"/>
<rect x="44.7998" y="57.6001" width="2.13334" height="2.13334" fill="#B0BEC5"/>
<rect x="46.9331" y="57.6001" width="2.13333" height="2.13334" fill="#B0BEC5"/>
<rect x="46.9331" y="53.3333" width="2.13333" height="2.13334" fill="white"/>
<rect x="46.9331" y="55.4666" width="2.13333" height="2.13333" fill="white"/>
<rect x="49.0669" y="55.4666" width="2.13334" height="2.13333" fill="#B0BEC5"/>
<rect x="51.2002" y="55.4666" width="2.13333" height="2.13333" fill="#B0BEC5"/>
<rect x="44.7998" y="55.4666" width="2.13334" height="2.13333" fill="white"/>
<rect x="49.0669" y="53.3333" width="2.13334" height="2.13334" fill="white"/>
<rect x="51.2002" y="51.2" width="2.13333" height="2.13333" fill="white"/>
<rect x="51.2002" y="53.3333" width="2.13333" height="2.13334" fill="white"/>
<rect x="53.3335" y="53.3333" width="2.13334" height="2.13334" fill="#B0BEC5"/>
<rect x="53.3335" y="49.0667" width="2.13334" height="2.13334" fill="white"/>
<rect x="53.3335" y="51.2" width="2.13334" height="2.13333" fill="white"/>
<rect x="55.4668" y="51.2" width="2.13333" height="2.13333" fill="#B0BEC5"/>
<rect x="55.4668" y="46.9333" width="2.13333" height="2.13333" fill="white"/>
<rect x="55.4668" y="49.0667" width="2.13333" height="2.13334" fill="white"/>
<rect x="57.6001" y="49.0667" width="2.13334" height="2.13334" fill="#B0BEC5"/>
<rect x="57.6001" y="44.8" width="2.13334" height="2.13334" fill="white"/>
<rect x="59.7334" y="44.8" width="2.13333" height="2.13334" fill="#B0BEC5"/>
<rect x="57.6001" y="46.9333" width="2.13334" height="2.13333" fill="white"/>
<rect x="59.7334" y="46.9333" width="2.13333" height="2.13333" fill="#B0BEC5"/>
<rect x="57.6001" y="42.6667" width="2.13334" height="2.13333" fill="white"/>
<rect x="59.7334" y="40.5334" width="2.13333" height="2.13334" fill="white"/>
<rect x="61.8667" y="40.5334" width="2.13334" height="2.13334" fill="#B0BEC5"/>
<rect x="59.7334" y="42.6667" width="2.13333" height="2.13333" fill="white"/>
<rect x="61.8667" y="42.6667" width="2.13334" height="2.13333" fill="#B0BEC5"/>
<rect x="59.7334" y="38.3999" width="2.13333" height="2.13333" fill="white"/>
<rect x="61.8667" y="38.3999" width="2.13334" height="2.13333" fill="#B0BEC5"/>
<rect x="59.7334" y="36.2666" width="2.13333" height="2.13334" fill="white"/>
<rect x="61.8667" y="36.2666" width="2.13334" height="2.13334" fill="#B0BEC5"/>
<rect x="59.7334" y="34.1333" width="2.13333" height="2.13333" fill="white"/>
<rect x="61.8667" y="34.1333" width="2.13334" height="2.13333" fill="#B0BEC5"/>
<rect x="57.6001" y="32" width="2.13334" height="2.13334" fill="white"/>
<rect x="59.7334" y="32" width="2.13333" height="2.13334" fill="white"/>
<rect x="61.8667" y="32" width="2.13334" height="2.13334" fill="#B0BEC5"/>
<rect x="55.4668" y="29.8667" width="2.13333" height="2.13333" fill="white"/>
<rect x="57.6001" y="27.7334" width="2.13334" height="2.13333" fill="white"/>
<rect x="57.6001" y="29.8667" width="2.13334" height="2.13333" fill="white"/>
<rect x="59.7334" y="29.8667" width="2.13333" height="2.13333" fill="#B0BEC5"/>
<rect x="59.7334" y="25.6001" width="2.13333" height="2.13333" fill="white"/>
<rect x="61.8667" y="25.6001" width="2.13334" height="2.13333" fill="#B0BEC5"/>
<rect x="59.7334" y="27.7334" width="2.13333" height="2.13333" fill="white"/>
<rect x="61.8667" y="27.7334" width="2.13334" height="2.13333" fill="#B0BEC5"/>
<rect x="59.7334" y="23.4666" width="2.13333" height="2.13333" fill="white"/>
<rect x="61.8667" y="23.4666" width="2.13334" height="2.13333" fill="#B0BEC5"/>
<rect x="59.7334" y="21.3333" width="2.13333" height="2.13333" fill="white"/>
<rect x="61.8667" y="21.3333" width="2.13334" height="2.13333" fill="#B0BEC5"/>
</g>
<defs>
<clipPath id="clip0_326_138668">
<rect width="64" height="64" fill="white"/>
</clipPath>
</defs>
</svg>
