<svg width="60" height="60" viewBox="0 0 60 60" fill="none" xmlns="http://www.w3.org/2000/svg">
<rect width="2" height="2" transform="matrix(-1 0 0 1 30 6)" fill="black"/>
<rect width="2" height="2" transform="matrix(-1 0 0 1 30 52)" fill="black"/>
<rect x="30" y="6" width="2" height="2" fill="black"/>
<rect x="30" y="52" width="2" height="2" fill="black"/>
<rect width="2" height="2" transform="matrix(-1 0 0 1 28 6)" fill="black"/>
<rect width="2" height="2" transform="matrix(-1 0 0 1 28 52)" fill="black"/>
<rect x="32" y="6" width="2" height="2" fill="black"/>
<rect x="32" y="52" width="2" height="2" fill="black"/>
<rect width="2" height="2" transform="matrix(-1 0 0 1 26 6)" fill="black"/>
<rect width="2" height="2" transform="matrix(-1 0 0 1 26 52)" fill="black"/>
<rect width="2" height="2" transform="matrix(-1 0 0 1 22 50)" fill="black"/>
<rect x="38" y="50" width="2" height="2" fill="black"/>
<rect width="2" height="2" transform="matrix(-1 0 0 1 18 48)" fill="black"/>
<rect x="42" y="48" width="2" height="2" fill="black"/>
<rect width="2" height="2" transform="matrix(-1 0 0 1 14 46)" fill="black"/>
<rect x="46" y="46" width="2" height="2" fill="black"/>
<rect x="34" y="6" width="2" height="2" fill="black"/>
<rect x="34" y="52" width="2" height="2" fill="black"/>
<rect width="2" height="2" transform="matrix(-1 0 0 1 26 6)" fill="black"/>
<rect width="2" height="2" transform="matrix(-1 0 0 1 26 52)" fill="black"/>
<rect width="2" height="2" transform="matrix(-1 0 0 1 22 50)" fill="black"/>
<rect x="38" y="50" width="2" height="2" fill="black"/>
<rect width="2" height="2" transform="matrix(-1 0 0 1 18 48)" fill="black"/>
<rect x="42" y="48" width="2" height="2" fill="black"/>
<rect width="2" height="2" transform="matrix(-1 0 0 1 14 46)" fill="black"/>
<rect x="46" y="46" width="2" height="2" fill="black"/>
<rect x="34" y="6" width="2" height="2" fill="black"/>
<rect x="34" y="52" width="2" height="2" fill="black"/>
<rect width="2" height="2" transform="matrix(-1 0 0 1 24 6)" fill="black"/>
<rect width="2" height="2" transform="matrix(-1 0 0 1 24 52)" fill="black"/>
<rect width="2" height="2" transform="matrix(-1 0 0 1 20 50)" fill="black"/>
<rect x="40" y="50" width="2" height="2" fill="black"/>
<rect width="2" height="2" transform="matrix(-1 0 0 1 16 48)" fill="black"/>
<rect x="44" y="48" width="2" height="2" fill="black"/>
<rect width="2" height="2" transform="matrix(-1 0 0 1 12 44)" fill="black"/>
<rect x="48" y="44" width="2" height="2" fill="black"/>
<rect width="2" height="2" transform="matrix(-1 0 0 1 10 42)" fill="black"/>
<rect x="50" y="42" width="2" height="2" fill="black"/>
<rect width="2" height="2" transform="matrix(-1 0 0 1 8 40)" fill="black"/>
<rect x="52" y="40" width="2" height="2" fill="black"/>
<rect width="2" height="2" transform="matrix(-1 0 0 1 6 36)" fill="black"/>
<rect x="54" y="36" width="2" height="2" fill="black"/>
<rect width="2" height="2" transform="matrix(-1 0 0 1 8 38)" fill="black"/>
<rect width="2" height="2" transform="matrix(-1 0 0 1 10 34)" fill="black"/>
<rect width="2" height="2" transform="matrix(-1 0 0 1 8 36)" fill="#A4907F"/>
<rect width="2" height="2" transform="matrix(-1 0 0 1 8 34)" fill="#CFB8A5"/>
<rect width="2" height="2" transform="matrix(-1 0 0 1 8 32)" fill="#CFB8A5"/>
<rect width="2" height="2" transform="matrix(-1 0 0 1 8 30)" fill="#CFB8A5"/>
<rect width="2" height="2" transform="matrix(-1 0 0 1 8 28)" fill="#CFB8A5"/>
<rect width="2" height="2" transform="matrix(-1 0 0 1 8 26)" fill="#CFB8A5"/>
<rect width="2" height="2" transform="matrix(-1 0 0 1 8 24)" fill="#CFB8A5"/>
<rect width="2" height="2" transform="matrix(-1 0 0 1 8 22)" fill="#CFB8A5"/>
<rect width="2" height="2" transform="matrix(-1 0 0 1 8 20)" fill="#CFB8A5"/>
<rect width="2" height="2" transform="matrix(-1 0 0 1 8 18)" fill="#CFB8A5"/>
<rect width="2" height="2" transform="matrix(-1 0 0 1 10 16)" fill="#815F4A"/>
<rect width="2" height="2" transform="matrix(-1 0 0 1 12 14)" fill="#815F4A"/>
<rect width="2" height="2" transform="matrix(-1 0 0 1 14 12)" fill="#815F4A"/>
<rect width="2" height="2" transform="matrix(-1 0 0 1 16 12)" fill="#815F4A"/>
<rect width="2" height="2" transform="matrix(-1 0 0 1 18 10)" fill="#815F4A"/>
<rect width="2" height="2" transform="matrix(-1 0 0 1 20 10)" fill="#815F4A"/>
<rect width="2" height="2" transform="matrix(-1 0 0 1 22 8)" fill="#A4907F"/>
<rect width="2" height="2" transform="matrix(-1 0 0 1 24 8)" fill="#A4907F"/>
<rect width="2" height="2" transform="matrix(-1 0 0 1 26 8)" fill="#A4907F"/>
<rect width="2" height="2" transform="matrix(-1 0 0 1 28 8)" fill="#A4907F"/>
<rect width="2" height="2" transform="matrix(-1 0 0 1 30 8)" fill="#A4907F"/>
<rect width="2" height="2" transform="matrix(-1 0 0 1 32 8)" fill="#A4907F"/>
<rect width="2" height="2" transform="matrix(-1 0 0 1 34 8)" fill="#A4907F"/>
<rect width="2" height="2" transform="matrix(-1 0 0 1 36 8)" fill="#A4907F"/>
<rect width="2" height="2" transform="matrix(-1 0 0 1 38 8)" fill="#A4907F"/>
<rect width="2" height="2" transform="matrix(-1 0 0 1 40 8)" fill="#A4907F"/>
<rect width="2" height="2" transform="matrix(-1 0 0 1 42 10)" fill="#A4907F"/>
<rect width="2" height="2" transform="matrix(-1 0 0 1 44 10)" fill="#A4907F"/>
<rect width="2" height="2" transform="matrix(-1 0 0 1 46 12)" fill="#A4907F"/>
<rect width="2" height="2" transform="matrix(-1 0 0 1 48 12)" fill="#A4907F"/>
<rect width="2" height="2" transform="matrix(-1 0 0 1 50 14)" fill="#A4907F"/>
<rect width="2" height="2" transform="matrix(-1 0 0 1 52 16)" fill="#A4907F"/>
<rect width="2" height="2" transform="matrix(-1 0 0 1 54 18)" fill="#CFB8A5"/>
<rect width="2" height="2" transform="matrix(-1 0 0 1 54 20)" fill="#CFB8A5"/>
<rect width="2" height="2" transform="matrix(-1 0 0 1 54 22)" fill="#CFB8A5"/>
<rect width="2" height="2" transform="matrix(-1 0 0 1 54 24)" fill="#CFB8A5"/>
<rect width="2" height="2" transform="matrix(-1 0 0 1 54 26)" fill="#CFB8A5"/>
<rect width="2" height="2" transform="matrix(-1 0 0 1 54 28)" fill="#CFB8A5"/>
<rect width="2" height="2" transform="matrix(-1 0 0 1 54 30)" fill="#CFB8A5"/>
<rect width="2" height="2" transform="matrix(-1 0 0 1 54 32)" fill="#CFB8A5"/>
<rect width="2" height="2" transform="matrix(-1 0 0 1 10 36)" fill="#CFB8A5"/>
<rect width="2" height="2" transform="matrix(-1 0 0 1 12 38)" fill="#CFB8A5"/>
<rect width="2" height="2" transform="matrix(-1 0 0 1 14 40)" fill="#CFB8A5"/>
<rect width="2" height="2" transform="matrix(-1 0 0 1 16 40)" fill="#CFB8A5"/>
<rect width="2" height="2" transform="matrix(-1 0 0 1 18 42)" fill="#CFB8A5"/>
<rect width="2" height="2" transform="matrix(-1 0 0 1 20 42)" fill="#CFB8A5"/>
<rect width="2" height="2" transform="matrix(-1 0 0 1 22 42)" fill="#CFB8A5"/>
<rect width="2" height="2" transform="matrix(-1 0 0 1 24 42)" fill="#CFB8A5"/>
<rect width="2" height="2" transform="matrix(-1 0 0 1 26 42)" fill="#CFB8A5"/>
<rect width="2" height="2" transform="matrix(-1 0 0 1 28 42)" fill="#CFB8A5"/>
<rect width="2" height="2" transform="matrix(-1 0 0 1 30 42)" fill="#CFB8A5"/>
<rect width="2" height="2" transform="matrix(-1 0 0 1 32 42)" fill="#CFB8A5"/>
<rect width="2" height="2" transform="matrix(-1 0 0 1 34 42)" fill="#CFB8A5"/>
<rect width="2" height="2" transform="matrix(-1 0 0 1 36 42)" fill="#CFB8A5"/>
<rect width="2" height="2" transform="matrix(-1 0 0 1 38 42)" fill="#CFB8A5"/>
<rect width="2" height="2" transform="matrix(-1 0 0 1 40 42)" fill="#CFB8A5"/>
<rect width="2" height="2" transform="matrix(-1 0 0 1 42 42)" fill="#CFB8A5"/>
<rect width="2" height="2" transform="matrix(-1 0 0 1 44 42)" fill="#CFB8A5"/>
<rect width="2" height="2" transform="matrix(-1 0 0 1 46 42)" fill="#CFB8A5"/>
<rect width="2" height="2" transform="matrix(-1 0 0 1 48 40)" fill="#CFB8A5"/>
<rect width="2" height="2" transform="matrix(-1 0 0 1 46 40)" fill="#CFB8A5"/>
<rect width="2" height="2" transform="matrix(-1 0 0 1 50 38)" fill="#CFB8A5"/>
<rect width="2" height="2" transform="matrix(-1 0 0 1 52 36)" fill="#CFB8A5"/>
<rect width="2" height="2" transform="matrix(-1 0 0 1 54 34)" fill="#CFB8A5"/>
<rect width="2" height="2" transform="matrix(-1 0 0 1 10 38)" fill="#A4907F"/>
<rect width="2" height="2" transform="matrix(-1 0 0 1 12 40)" fill="#A4907F"/>
<rect width="2" height="2" transform="matrix(-1 0 0 1 14 42)" fill="#A4907F"/>
<rect width="2" height="2" transform="matrix(-1 0 0 1 16 42)" fill="#CFB8A5"/>
<rect width="2" height="2" transform="matrix(-1 0 0 1 18 44)" fill="#A4907F"/>
<rect width="2" height="2" transform="matrix(-1 0 0 1 20 44)" fill="#A4907F"/>
<rect width="2" height="2" transform="matrix(-1 0 0 1 22 44)" fill="#A4907F"/>
<rect width="2" height="2" transform="matrix(-1 0 0 1 24 44)" fill="#A4907F"/>
<rect width="2" height="2" transform="matrix(-1 0 0 1 26 44)" fill="#A4907F"/>
<rect width="2" height="2" transform="matrix(-1 0 0 1 28 44)" fill="#A4907F"/>
<rect width="2" height="2" transform="matrix(-1 0 0 1 30 44)" fill="#A4907F"/>
<rect width="2" height="2" transform="matrix(-1 0 0 1 32 44)" fill="#A4907F"/>
<rect width="2" height="2" transform="matrix(-1 0 0 1 34 44)" fill="#A4907F"/>
<rect width="2" height="2" transform="matrix(-1 0 0 1 36 44)" fill="#A4907F"/>
<rect width="2" height="2" transform="matrix(-1 0 0 1 38 44)" fill="#A4907F"/>
<rect width="2" height="2" transform="matrix(-1 0 0 1 40 44)" fill="#A4907F"/>
<rect width="2" height="2" transform="matrix(-1 0 0 1 42 44)" fill="#A4907F"/>
<rect width="2" height="2" transform="matrix(-1 0 0 1 44 44)" fill="#A4907F"/>
<rect width="2" height="2" transform="matrix(-1 0 0 1 46 44)" fill="#A4907F"/>
<rect width="2" height="2" transform="matrix(-1 0 0 1 48 42)" fill="#A4907F"/>
<rect width="2" height="2" transform="matrix(-1 0 0 1 50 40)" fill="#A4907F"/>
<rect width="2" height="2" transform="matrix(-1 0 0 1 52 38)" fill="#A4907F"/>
<rect width="2" height="2" transform="matrix(-1 0 0 1 54 36)" fill="#A4907F"/>
<rect width="2" height="2" transform="matrix(-1 0 0 1 10 40)" fill="#A4907F"/>
<rect width="2" height="2" transform="matrix(-1 0 0 1 12 42)" fill="#A4907F"/>
<rect width="2" height="2" transform="matrix(-1 0 0 1 14 44)" fill="#A4907F"/>
<rect width="2" height="2" transform="matrix(-1 0 0 1 16 44)" fill="#A4907F"/>
<rect width="2" height="2" transform="matrix(-1 0 0 1 18 46)" fill="#A4907F"/>
<rect width="2" height="2" transform="matrix(-1 0 0 1 20 46)" fill="#A4907F"/>
<rect width="2" height="2" transform="matrix(-1 0 0 1 20 48)" fill="#A4907F"/>
<rect width="2" height="2" transform="matrix(-1 0 0 1 22 46)" fill="#A4907F"/>
<rect width="2" height="2" transform="matrix(-1 0 0 1 22 48)" fill="#A4907F"/>
<rect width="2" height="2" transform="matrix(-1 0 0 1 24 46)" fill="#A4907F"/>
<rect width="2" height="2" transform="matrix(-1 0 0 1 24 48)" fill="#A4907F"/>
<rect width="2" height="2" transform="matrix(-1 0 0 1 24 50)" fill="#A4907F"/>
<rect width="2" height="2" transform="matrix(-1 0 0 1 26 46)" fill="#A4907F"/>
<rect width="2" height="2" transform="matrix(-1 0 0 1 26 48)" fill="#A4907F"/>
<rect width="2" height="2" transform="matrix(-1 0 0 1 26 50)" fill="#A4907F"/>
<rect width="2" height="2" transform="matrix(-1 0 0 1 28 46)" fill="#A4907F"/>
<rect width="2" height="2" transform="matrix(-1 0 0 1 28 48)" fill="#A4907F"/>
<rect width="2" height="2" transform="matrix(-1 0 0 1 28 50)" fill="#A4907F"/>
<rect width="2" height="2" transform="matrix(-1 0 0 1 30 46)" fill="#A4907F"/>
<rect width="2" height="2" transform="matrix(-1 0 0 1 30 48)" fill="#A4907F"/>
<rect width="2" height="2" transform="matrix(-1 0 0 1 30 50)" fill="#A4907F"/>
<rect width="2" height="2" transform="matrix(-1 0 0 1 32 46)" fill="#A4907F"/>
<rect width="2" height="2" transform="matrix(-1 0 0 1 32 48)" fill="#A4907F"/>
<rect width="2" height="2" transform="matrix(-1 0 0 1 32 50)" fill="#A4907F"/>
<rect width="2" height="2" transform="matrix(-1 0 0 1 34 46)" fill="#A4907F"/>
<rect width="2" height="2" transform="matrix(-1 0 0 1 34 48)" fill="#A4907F"/>
<rect width="2" height="2" transform="matrix(-1 0 0 1 34 50)" fill="#A4907F"/>
<rect width="2" height="2" transform="matrix(-1 0 0 1 36 46)" fill="#A4907F"/>
<rect width="2" height="2" transform="matrix(-1 0 0 1 36 48)" fill="#A4907F"/>
<rect width="2" height="2" transform="matrix(-1 0 0 1 36 50)" fill="#A4907F"/>
<rect width="2" height="2" transform="matrix(-1 0 0 1 38 46)" fill="#A4907F"/>
<rect width="2" height="2" transform="matrix(-1 0 0 1 38 48)" fill="#A4907F"/>
<rect width="2" height="2" transform="matrix(-1 0 0 1 38 50)" fill="#A4907F"/>
<rect width="2" height="2" transform="matrix(-1 0 0 1 40 46)" fill="#A4907F"/>
<rect width="2" height="2" transform="matrix(-1 0 0 1 40 48)" fill="#A4907F"/>
<rect width="2" height="2" transform="matrix(-1 0 0 1 42 46)" fill="#A4907F"/>
<rect width="2" height="2" transform="matrix(-1 0 0 1 42 48)" fill="#A4907F"/>
<rect width="2" height="2" transform="matrix(-1 0 0 1 44 46)" fill="#A4907F"/>
<rect width="2" height="2" transform="matrix(-1 0 0 1 46 46)" fill="#A4907F"/>
<rect width="2" height="2" transform="matrix(-1 0 0 1 48 44)" fill="#A4907F"/>
<rect width="2" height="2" transform="matrix(-1 0 0 1 50 42)" fill="#A4907F"/>
<rect width="2" height="2" transform="matrix(-1 0 0 1 52 40)" fill="#A4907F"/>
<rect width="2" height="2" transform="matrix(-1 0 0 1 16 46)" fill="#A4907F"/>
<rect x="50" y="34" width="2" height="2" fill="black"/>
<rect width="2" height="2" transform="matrix(-1 0 0 1 12 36)" fill="black"/>
<rect x="48" y="36" width="2" height="2" fill="black"/>
<rect width="2" height="2" transform="matrix(-1 0 0 1 14 38)" fill="black"/>
<rect x="46" y="38" width="2" height="2" fill="black"/>
<rect width="2" height="2" transform="matrix(-1 0 0 1 18 40)" fill="black"/>
<rect x="42" y="40" width="2" height="2" fill="black"/>
<rect width="2" height="2" transform="matrix(-1 0 0 1 22 40)" fill="black"/>
<rect x="38" y="40" width="2" height="2" fill="black"/>
<rect width="2" height="2" transform="matrix(-1 0 0 1 26 40)" fill="black"/>
<rect x="34" y="40" width="2" height="2" fill="black"/>
<rect width="2" height="2" transform="matrix(-1 0 0 1 30 40)" fill="black"/>
<rect x="30" y="40" width="2" height="2" fill="black"/>
<rect width="2" height="2" transform="matrix(-1 0 0 1 16 38)" fill="black"/>
<rect x="44" y="38" width="2" height="2" fill="black"/>
<rect width="2" height="2" transform="matrix(-1 0 0 1 20 40)" fill="black"/>
<rect x="40" y="40" width="2" height="2" fill="black"/>
<rect width="2" height="2" transform="matrix(-1 0 0 1 24 40)" fill="black"/>
<rect x="36" y="40" width="2" height="2" fill="black"/>
<rect width="2" height="2" transform="matrix(-1 0 0 1 28 40)" fill="black"/>
<rect x="32" y="40" width="2" height="2" fill="black"/>
<rect x="52" y="38" width="2" height="2" fill="black"/>
<rect width="2" height="2" transform="matrix(-1 0 0 1 6 34)" fill="black"/>
<rect x="54" y="34" width="2" height="2" fill="black"/>
<rect width="2" height="2" transform="matrix(-1 0 0 1 6 32)" fill="black"/>
<rect x="36" y="6" width="2" height="2" fill="black"/>
<rect x="36" y="52" width="2" height="2" fill="black"/>
<rect width="2" height="2" transform="matrix(-1 0 0 1 22 6)" fill="black"/>
<rect x="38" y="6" width="2" height="2" fill="black"/>
<rect width="2" height="2" transform="matrix(-1 0 0 1 20 8)" fill="black"/>
<rect x="40" y="8" width="2" height="2" fill="black"/>
<rect width="2" height="2" transform="matrix(-1 0 0 1 18 8)" fill="black"/>
<rect x="42" y="8" width="2" height="2" fill="black"/>
<rect width="2" height="2" transform="matrix(-1 0 0 1 16 10)" fill="black"/>
<rect x="44" y="10" width="2" height="2" fill="black"/>
<rect width="2" height="2" transform="matrix(-1 0 0 1 14 10)" fill="black"/>
<rect x="46" y="10" width="2" height="2" fill="black"/>
<rect width="2" height="2" transform="matrix(-1 0 0 1 12 12)" fill="black"/>
<rect width="2" height="2" transform="matrix(-1 0 0 1 10 14)" fill="black"/>
<rect x="50" y="14" width="2" height="2" fill="black"/>
<rect x="48" y="12" width="2" height="2" fill="black"/>
<rect width="2" height="2" transform="matrix(-1 0 0 1 6 20)" fill="black"/>
<rect width="2" height="2" transform="matrix(-1 0 0 1 6 18)" fill="black"/>
<rect width="2" height="2" transform="matrix(-1 0 0 1 8 16)" fill="black"/>
<rect x="54" y="20" width="2" height="2" fill="black"/>
<rect x="54" y="18" width="2" height="2" fill="black"/>
<rect x="52" y="16" width="2" height="2" fill="black"/>
<rect width="2" height="2" transform="matrix(-1 0 0 1 6 22)" fill="black"/>
<rect x="54" y="22" width="2" height="2" fill="black"/>
<rect width="2" height="2" transform="matrix(-1 0 0 1 6 24)" fill="black"/>
<rect x="54" y="24" width="2" height="2" fill="black"/>
<rect width="2" height="2" transform="matrix(-1 0 0 1 6 26)" fill="black"/>
<rect x="54" y="26" width="2" height="2" fill="black"/>
<rect width="2" height="2" transform="matrix(-1 0 0 1 6 28)" fill="black"/>
<rect width="2" height="2" transform="matrix(-1 0 0 1 6 30)" fill="black"/>
<rect x="54" y="30" width="2" height="2" fill="black"/>
<rect x="54" y="32" width="2" height="2" fill="black"/>
<rect x="54" y="28" width="2" height="2" fill="black"/>
<rect width="2" height="2" transform="matrix(-1 0 0 1 14 32)" fill="#FC6B00"/>
<rect width="2" height="2" transform="matrix(-1 0 0 1 12 32)" fill="#D63819"/>
<rect width="2" height="2" transform="matrix(-1 0 0 1 10 30)" fill="#FC6B00"/>
<rect width="2" height="2" transform="matrix(-1 0 0 1 18 32)" fill="#FC6B00"/>
<rect x="42" y="32" width="2" height="2" fill="#BE8C52"/>
<rect x="46" y="32" width="2" height="2" fill="#BE8C52"/>
<rect x="48" y="32" width="2" height="2" fill="#EAC294"/>
<rect x="50" y="30" width="2" height="2" fill="#EAC294"/>
<rect x="40" y="36" width="2" height="2" fill="#EAC294"/>
<rect x="42" y="36" width="2" height="2" fill="#EAC294"/>
<rect x="44" y="36" width="2" height="2" fill="#BE8C52"/>
<rect x="44" y="34" width="2" height="2" fill="#EAC294"/>
<rect x="46" y="36" width="2" height="2" fill="#EAC294"/>
<rect x="46" y="34" width="2" height="2" fill="#BE8C52"/>
<rect x="48" y="34" width="2" height="2" fill="#EAC294"/>
<rect x="50" y="32" width="2" height="2" fill="#BE8C52"/>
<rect x="42" y="38" width="2" height="2" fill="#BE8C52"/>
<rect width="2" height="2" transform="matrix(-1 0 0 1 18 34)" fill="#D63819"/>
<rect x="42" y="34" width="2" height="2" fill="#BE8C52"/>
<rect width="2" height="2" transform="matrix(-1 0 0 1 18 28)" fill="#FC6B00"/>
<rect x="42" y="28" width="2" height="2" fill="#EAC294"/>
<rect x="46" y="28" width="2" height="2" fill="#BE8C52"/>
<rect width="2" height="2" transform="matrix(-1 0 0 1 14 30)" fill="#D63819"/>
<rect width="2" height="2" transform="matrix(-1 0 0 1 14 28)" fill="#FC6B00"/>
<rect width="2" height="2" transform="matrix(-1 0 0 1 14 26)" fill="#D63819"/>
<rect width="2" height="2" transform="matrix(-1 0 0 1 12 30)" fill="#D63819"/>
<rect width="2" height="2" transform="matrix(-1 0 0 1 12 28)" fill="#FC6B00"/>
<rect width="2" height="2" transform="matrix(-1 0 0 1 10 28)" fill="#D63819"/>
<rect width="2" height="2" transform="matrix(-1 0 0 1 10 26)" fill="#571700"/>
<rect x="50" y="26" width="2" height="2" fill="#F8ED6A"/>
<rect width="2" height="2" transform="matrix(-1 0 0 1 10 24)" fill="#903A1B"/>
<rect x="50" y="24" width="2" height="2" fill="#F8ED6A"/>
<rect width="2" height="2" transform="matrix(-1 0 0 1 14 24)" fill="#571700"/>
<rect x="46" y="24" width="2" height="2" fill="#F5DA6B"/>
<rect width="2" height="2" transform="matrix(-1 0 0 1 14 22)" fill="#903A1B"/>
<rect x="46" y="22" width="2" height="2" fill="#F8ED6A"/>
<rect x="48" y="22" width="2" height="2" fill="#F5DA6B"/>
<rect width="2" height="2" transform="matrix(-1 0 0 1 14 20)" fill="#571700"/>
<rect x="46" y="20" width="2" height="2" fill="#F8ED6A"/>
<rect x="48" y="20" width="2" height="2" fill="#F8ED6A"/>
<rect width="2" height="2" transform="matrix(-1 0 0 1 14 18)" fill="#571700"/>
<rect x="46" y="18" width="2" height="2" fill="#F5DA6B"/>
<rect width="2" height="2" transform="matrix(-1 0 0 1 14 16)" fill="#571700"/>
<rect x="46" y="16" width="2" height="2" fill="#F8ED6A"/>
<rect width="2" height="2" transform="matrix(-1 0 0 1 16 16)" fill="#903A1B"/>
<rect x="44" y="16" width="2" height="2" fill="#F8ED6A"/>
<rect width="2" height="2" transform="matrix(-1 0 0 1 18 16)" fill="#571700"/>
<rect x="42" y="16" width="2" height="2" fill="#F5DA6B"/>
<rect width="2" height="2" transform="matrix(-1 0 0 1 18 14)" fill="#903A1B"/>
<rect width="2" height="2" transform="matrix(-1 0 0 1 42 14)" fill="#F8ED6A"/>
<rect width="2" height="2" transform="matrix(-1 0 0 1 42 12)" fill="#F8ED6A"/>
<rect width="2" height="2" transform="matrix(-1 0 0 1 44 12)" fill="#F5DA6B"/>
<rect width="2" height="2" transform="matrix(-1 0 0 1 46 14)" fill="#F5DA6B"/>
<rect width="2" height="2" transform="matrix(-1 0 0 1 48 14)" fill="#F5DA6B"/>
<rect width="2" height="2" transform="matrix(-1 0 0 1 50 16)" fill="#F8ED6A"/>
<rect width="2" height="2" transform="matrix(-1 0 0 1 50 18)" fill="#F5DA6B"/>
<rect width="2" height="2" transform="matrix(-1 0 0 1 52 18)" fill="#F5DA6B"/>
<rect width="2" height="2" transform="matrix(-1 0 0 1 52 20)" fill="#F5DA6B"/>
<rect width="2" height="2" transform="matrix(-1 0 0 1 20 16)" fill="#903A1B"/>
<rect x="40" y="16" width="2" height="2" fill="#F5DA6B"/>
<rect width="2" height="2" transform="matrix(-1 0 0 1 22 16)" fill="#571700"/>
<rect x="38" y="16" width="2" height="2" fill="#F8ED6A"/>
<rect width="2" height="2" transform="matrix(-1 0 0 1 20 14)" fill="#571700"/>
<rect width="2" height="2" transform="matrix(-1 0 0 1 44 14)" fill="#F8ED6A"/>
<rect width="2" height="2" transform="matrix(-1 0 0 1 22 14)" fill="#FCEFC5"/>
<rect width="2" height="2" transform="matrix(-1 0 0 1 24 14)" fill="#FCEFC5"/>
<rect width="2" height="2" transform="matrix(-1 0 0 1 26 14)" fill="#DDC494"/>
<rect width="2" height="2" transform="matrix(-1 0 0 1 28 14)" fill="#DDC494"/>
<rect width="2" height="2" transform="matrix(-1 0 0 1 30 16)" fill="#DDC494"/>
<rect width="2" height="2" transform="matrix(-1 0 0 1 24 16)" fill="#FCEFC5"/>
<rect width="2" height="2" transform="matrix(-1 0 0 1 32 16)" fill="#FCEFC5"/>
<rect width="2" height="2" transform="matrix(-1 0 0 1 30 14)" fill="#FCEFC5"/>
<rect width="2" height="2" transform="matrix(-1 0 0 1 32 14)" fill="#FCEFC5"/>
<rect width="2" height="2" transform="matrix(-1 0 0 1 34 14)" fill="#DDC494"/>
<rect width="2" height="2" transform="matrix(-1 0 0 1 36 14)" fill="#DDC494"/>
<rect width="2" height="2" transform="matrix(-1 0 0 1 38 14)" fill="#FCEFC5"/>
<rect width="2" height="2" transform="matrix(-1 0 0 1 38 16)" fill="#FCEFC5"/>
<rect width="2" height="2" transform="matrix(-1 0 0 1 40 14)" fill="#FCEFC5"/>
<rect width="2" height="2" transform="matrix(-1 0 0 1 22 12)" fill="#DDC494"/>
<rect width="2" height="2" transform="matrix(-1 0 0 1 24 12)" fill="#FCEFC5"/>
<rect width="2" height="2" transform="matrix(-1 0 0 1 22 10)" fill="#DDC494"/>
<rect width="2" height="2" transform="matrix(-1 0 0 1 24 10)" fill="#FCEFC5"/>
<rect width="2" height="2" transform="matrix(-1 0 0 1 26 10)" fill="#DDC494"/>
<rect width="2" height="2" transform="matrix(-1 0 0 1 28 10)" fill="#FCEFC5"/>
<rect width="2" height="2" transform="matrix(-1 0 0 1 30 10)" fill="#DDC494"/>
<rect width="2" height="2" transform="matrix(-1 0 0 1 32 10)" fill="#FCEFC5"/>
<rect width="2" height="2" transform="matrix(-1 0 0 1 34 10)" fill="#DDC494"/>
<rect width="2" height="2" transform="matrix(-1 0 0 1 36 10)" fill="#DDC494"/>
<rect width="2" height="2" transform="matrix(-1 0 0 1 38 10)" fill="#FCEFC5"/>
<rect width="2" height="2" transform="matrix(-1 0 0 1 40 10)" fill="#DDC494"/>
<rect width="2" height="2" transform="matrix(-1 0 0 1 26 12)" fill="#FCEFC5"/>
<rect width="2" height="2" transform="matrix(-1 0 0 1 28 12)" fill="#DDC494"/>
<rect width="2" height="2" transform="matrix(-1 0 0 1 30 12)" fill="#FCEFC5"/>
<rect width="2" height="2" transform="matrix(-1 0 0 1 32 12)" fill="#DDC494"/>
<rect width="2" height="2" transform="matrix(-1 0 0 1 34 12)" fill="#FCEFC5"/>
<rect width="2" height="2" transform="matrix(-1 0 0 1 36 12)" fill="#FCEFC5"/>
<rect width="2" height="2" transform="matrix(-1 0 0 1 38 12)" fill="#DDC494"/>
<rect width="2" height="2" transform="matrix(-1 0 0 1 40 12)" fill="#DDC494"/>
<rect width="2" height="2" transform="matrix(-1 0 0 1 16 18)" fill="#903A1B"/>
<rect x="44" y="18" width="2" height="2" fill="#F8ED6A"/>
<rect width="2" height="2" transform="matrix(-1 0 0 1 10 22)" fill="#903A1B"/>
<rect width="2" height="2" transform="matrix(-1 0 0 1 10 20)" fill="#571700"/>
<rect width="2" height="2" transform="matrix(-1 0 0 1 10 18)" fill="#571700"/>
<rect width="2" height="2" transform="matrix(-1 0 0 1 12 18)" fill="#571700"/>
<rect width="2" height="2" transform="matrix(-1 0 0 1 12 16)" fill="#571700"/>
<rect width="2" height="2" transform="matrix(-1 0 0 1 14 14)" fill="#903A1B"/>
<rect width="2" height="2" transform="matrix(-1 0 0 1 16 14)" fill="#571700"/>
<rect width="2" height="2" transform="matrix(-1 0 0 1 18 12)" fill="#571700"/>
<rect width="2" height="2" transform="matrix(-1 0 0 1 20 12)" fill="#903A1B"/>
<rect x="50" y="22" width="2" height="2" fill="#F5DA6B"/>
<rect width="2" height="2" transform="matrix(-1 0 0 1 12 26)" fill="#571700"/>
<rect x="48" y="26" width="2" height="2" fill="#F5DA6B"/>
<rect width="2" height="2" transform="matrix(-1 0 0 1 12 24)" fill="#903A1B"/>
<rect x="48" y="24" width="2" height="2" fill="#F8ED6A"/>
<rect width="2" height="2" transform="matrix(-1 0 0 1 16 24)" fill="#903A1B"/>
<rect x="44" y="24" width="2" height="2" fill="#F5DA6B"/>
<rect width="2" height="2" transform="matrix(-1 0 0 1 16 22)" fill="#571700"/>
<rect x="44" y="22" width="2" height="2" fill="#F8ED6A"/>
<rect width="2" height="2" transform="matrix(-1 0 0 1 18 22)" fill="#903A1B"/>
<rect x="42" y="22" width="2" height="2" fill="#F5DA6B"/>
<rect width="2" height="2" transform="matrix(-1 0 0 1 16 20)" fill="#903A1B"/>
<rect x="44" y="20" width="2" height="2" fill="#F5DA6B"/>
<rect width="2" height="2" transform="matrix(-1 0 0 1 18 20)" fill="#571700"/>
<rect x="42" y="20" width="2" height="2" fill="#F8ED6A"/>
<rect width="2" height="2" transform="matrix(-1 0 0 1 20 20)" fill="#903A1B"/>
<rect x="40" y="20" width="2" height="2" fill="#F8ED6A"/>
<rect width="2" height="2" transform="matrix(-1 0 0 1 18 18)" fill="#571700"/>
<rect x="42" y="18" width="2" height="2" fill="#F5DA6B"/>
<rect width="2" height="2" transform="matrix(-1 0 0 1 20 18)" fill="#571700"/>
<rect x="40" y="18" width="2" height="2" fill="#F5DA6B"/>
<rect width="2" height="2" transform="matrix(-1 0 0 1 22 18)" fill="#903A1B"/>
<rect x="38" y="18" width="2" height="2" fill="#F8ED6A"/>
<rect width="2" height="2" transform="matrix(-1 0 0 1 12 22)" fill="#571700"/>
<rect width="2" height="2" transform="matrix(-1 0 0 1 12 20)" fill="#903A1B"/>
<rect width="2" height="2" transform="matrix(-1 0 0 1 18 30)" fill="#D63819"/>
<rect x="42" y="30" width="2" height="2" fill="#EAC294"/>
<rect x="46" y="30" width="2" height="2" fill="#EAC294"/>
<rect width="2" height="2" transform="matrix(-1 0 0 1 18 26)" fill="#D63819"/>
<rect x="42" y="26" width="2" height="2" fill="#BE8C52"/>
<rect x="46" y="26" width="2" height="2" fill="#BE8C52"/>
<rect width="2" height="2" transform="matrix(-1 0 0 1 22 26)" fill="white"/>
<rect width="2" height="2" transform="matrix(-1 0 0 1 18 24)" fill="#D63819"/>
<rect x="42" y="24" width="2" height="2" fill="#BE8C52"/>
<rect width="2" height="2" transform="matrix(-1 0 0 1 22 24)" fill="white"/>
<rect width="2" height="2" transform="matrix(-1 0 0 1 20 22)" fill="white"/>
<rect width="2" height="2" transform="matrix(-1 0 0 1 22 20)" fill="white"/>
<rect width="2" height="2" transform="matrix(-1 0 0 1 22 22)" fill="white"/>
<rect width="2" height="2" transform="matrix(-1 0 0 1 24 20)" fill="white"/>
<rect width="2" height="2" transform="matrix(-1 0 0 1 24 18)" fill="white"/>
<rect width="2" height="2" transform="matrix(-1 0 0 1 26 18)" fill="white"/>
<rect width="2" height="2" transform="matrix(-1 0 0 1 30 18)" fill="white"/>
<rect width="2" height="2" transform="matrix(-1 0 0 1 34 18)" fill="white"/>
<rect width="2" height="2" transform="matrix(-1 0 0 1 34 20)" fill="white"/>
<rect width="2" height="2" transform="matrix(-1 0 0 1 34 16)" fill="white"/>
<rect width="2" height="2" transform="matrix(-1 0 0 1 26 16)" fill="white"/>
<rect width="2" height="2" transform="matrix(-1 0 0 1 28 18)" fill="white"/>
<rect width="2" height="2" transform="matrix(-1 0 0 1 32 18)" fill="white"/>
<rect width="2" height="2" transform="matrix(-1 0 0 1 36 18)" fill="white"/>
<rect width="2" height="2" transform="matrix(-1 0 0 1 38 18)" fill="white"/>
<rect width="2" height="2" transform="matrix(-1 0 0 1 38 20)" fill="white"/>
<rect width="2" height="2" transform="matrix(-1 0 0 1 38 22)" fill="white"/>
<rect width="2" height="2" transform="matrix(-1 0 0 1 38 24)" fill="white"/>
<rect width="2" height="2" transform="matrix(-1 0 0 1 38 26)" fill="white"/>
<rect width="2" height="2" transform="matrix(-1 0 0 1 38 28)" fill="#E9E5CC"/>
<rect width="2" height="2" transform="matrix(-1 0 0 1 40 20)" fill="white"/>
<rect width="2" height="2" transform="matrix(-1 0 0 1 40 22)" fill="white"/>
<rect width="2" height="2" transform="matrix(-1 0 0 1 42 22)" fill="#E9E5CC"/>
<rect width="2" height="2" transform="matrix(-1 0 0 1 40 24)" fill="white"/>
<rect width="2" height="2" transform="matrix(-1 0 0 1 40 26)" fill="#E9E5CC"/>
<rect width="2" height="2" transform="matrix(-1 0 0 1 36 20)" fill="white"/>
<rect width="2" height="2" transform="matrix(-1 0 0 1 36 22)" fill="white"/>
<rect width="2" height="2" transform="matrix(-1 0 0 1 36 24)" fill="white"/>
<rect width="2" height="2" transform="matrix(-1 0 0 1 36 26)" fill="white"/>
<rect width="2" height="2" transform="matrix(-1 0 0 1 36 28)" fill="white"/>
<rect width="2" height="2" transform="matrix(-1 0 0 1 32 28)" fill="white"/>
<rect width="2" height="2" transform="matrix(-1 0 0 1 28 28)" fill="white"/>
<rect width="2" height="2" transform="matrix(-1 0 0 1 36 30)" fill="#E9E5CC"/>
<rect width="2" height="2" transform="matrix(-1 0 0 1 32 30)" fill="#E9E5CC"/>
<rect width="2" height="2" transform="matrix(-1 0 0 1 28 30)" fill="#E9E5CC"/>
<rect width="2" height="2" transform="matrix(-1 0 0 1 34 26)" fill="#E9E5CC"/>
<rect width="2" height="2" transform="matrix(-1 0 0 1 34 28)" fill="white"/>
<rect width="2" height="2" transform="matrix(-1 0 0 1 30 28)" fill="white"/>
<rect width="2" height="2" transform="matrix(-1 0 0 1 26 28)" fill="white"/>
<rect width="2" height="2" transform="matrix(-1 0 0 1 34 30)" fill="#E9E5CC"/>
<rect width="2" height="2" transform="matrix(-1 0 0 1 30 30)" fill="#E9E5CC"/>
<rect width="2" height="2" transform="matrix(-1 0 0 1 26 30)" fill="#E9E5CC"/>
<rect width="2" height="2" transform="matrix(-1 0 0 1 36 16)" fill="white"/>
<rect width="2" height="2" transform="matrix(-1 0 0 1 28 16)" fill="white"/>
<rect width="2" height="2" transform="matrix(-1 0 0 1 24 22)" fill="white"/>
<rect width="2" height="2" transform="matrix(-1 0 0 1 26 20)" fill="white"/>
<rect width="2" height="2" transform="matrix(-1 0 0 1 16 28)" fill="#D63819"/>
<rect width="2" height="2" transform="matrix(-1 0 0 1 16 26)" fill="#FC6B00"/>
<rect width="2" height="2" transform="matrix(-1 0 0 1 16 32)" fill="#FC6B00"/>
<rect width="2" height="2" transform="matrix(-1 0 0 1 20 32)" fill="#D63819"/>
<rect x="40" y="32" width="2" height="2" fill="#EAC294"/>
<rect x="44" y="32" width="2" height="2" fill="#EAC294"/>
<rect width="2" height="2" transform="matrix(-1 0 0 1 20 34)" fill="#FC6B00"/>
<rect width="2" height="2" transform="matrix(-1 0 0 1 20 36)" fill="#D63819"/>
<rect width="2" height="2" transform="matrix(-1 0 0 1 18 38)" fill="#D63819"/>
<rect width="2" height="2" transform="matrix(-1 0 0 1 18 36)" fill="#FC6B00"/>
<rect width="2" height="2" transform="matrix(-1 0 0 1 16 36)" fill="#FC6B00"/>
<rect width="2" height="2" transform="matrix(-1 0 0 1 16 34)" fill="#D63819"/>
<rect width="2" height="2" transform="matrix(-1 0 0 1 14 36)" fill="#D63819"/>
<rect width="2" height="2" transform="matrix(-1 0 0 1 14 34)" fill="#FC6B00"/>
<rect width="2" height="2" transform="matrix(-1 0 0 1 12 34)" fill="#D63819"/>
<rect width="2" height="2" transform="matrix(-1 0 0 1 10 32)" fill="#D63819"/>
<rect width="2" height="2" transform="matrix(-1 0 0 1 22 34)" fill="#00880E"/>
<rect width="2" height="2" transform="matrix(-1 0 0 1 24 34)" fill="#3F9F00"/>
<rect width="2" height="2" transform="matrix(-1 0 0 1 24 32)" fill="#00880E"/>
<rect width="2" height="2" transform="matrix(-1 0 0 1 26 34)" fill="#3F9F00"/>
<rect width="2" height="2" transform="matrix(-1 0 0 1 26 32)" fill="#00880E"/>
<rect width="2" height="2" transform="matrix(-1 0 0 1 28 34)" fill="#00880E"/>
<rect width="2" height="2" transform="matrix(-1 0 0 1 28 32)" fill="#3F9F00"/>
<rect width="2" height="2" transform="matrix(-1 0 0 1 30 34)" fill="#3F9F00"/>
<rect width="2" height="2" transform="matrix(-1 0 0 1 30 32)" fill="#3F9F00"/>
<rect width="2" height="2" transform="matrix(-1 0 0 1 32 34)" fill="#00880E"/>
<rect width="2" height="2" transform="matrix(-1 0 0 1 32 32)" fill="#00880E"/>
<rect width="2" height="2" transform="matrix(-1 0 0 1 34 34)" fill="#3F9F00"/>
<rect width="2" height="2" transform="matrix(-1 0 0 1 34 32)" fill="#00880E"/>
<rect width="2" height="2" transform="matrix(-1 0 0 1 36 34)" fill="#00880E"/>
<rect width="2" height="2" transform="matrix(-1 0 0 1 36 32)" fill="#3F9F00"/>
<rect width="2" height="2" transform="matrix(-1 0 0 1 38 34)" fill="#3F9F00"/>
<rect width="2" height="2" transform="matrix(-1 0 0 1 38 32)" fill="#00880E"/>
<rect width="2" height="2" transform="matrix(-1 0 0 1 40 34)" fill="#00880E"/>
<rect width="2" height="2" transform="matrix(-1 0 0 1 22 36)" fill="#00880E"/>
<rect width="2" height="2" transform="matrix(-1 0 0 1 20 38)" fill="#00880E"/>
<rect width="2" height="2" transform="matrix(-1 0 0 1 24 36)" fill="#00880E"/>
<rect width="2" height="2" transform="matrix(-1 0 0 1 26 36)" fill="#3F9F00"/>
<rect width="2" height="2" transform="matrix(-1 0 0 1 22 38)" fill="#3F9F00"/>
<rect width="2" height="2" transform="matrix(-1 0 0 1 24 38)" fill="#3F9F00"/>
<rect width="2" height="2" transform="matrix(-1 0 0 1 26 38)" fill="#00880E"/>
<rect width="2" height="2" transform="matrix(-1 0 0 1 28 38)" fill="#3F9F00"/>
<rect width="2" height="2" transform="matrix(-1 0 0 1 30 38)" fill="#00880E"/>
<rect width="2" height="2" transform="matrix(-1 0 0 1 32 38)" fill="#00880E"/>
<rect width="2" height="2" transform="matrix(-1 0 0 1 34 38)" fill="#3F9F00"/>
<rect width="2" height="2" transform="matrix(-1 0 0 1 36 38)" fill="#3F9F00"/>
<rect width="2" height="2" transform="matrix(-1 0 0 1 38 38)" fill="#00880E"/>
<rect width="2" height="2" transform="matrix(-1 0 0 1 40 38)" fill="#00880E"/>
<rect width="2" height="2" transform="matrix(-1 0 0 1 42 38)" fill="#00880E"/>
<rect width="2" height="2" transform="matrix(-1 0 0 1 28 36)" fill="#00880E"/>
<rect width="2" height="2" transform="matrix(-1 0 0 1 30 36)" fill="#00880E"/>
<rect width="2" height="2" transform="matrix(-1 0 0 1 32 36)" fill="#3F9F00"/>
<rect width="2" height="2" transform="matrix(-1 0 0 1 34 36)" fill="#00880E"/>
<rect width="2" height="2" transform="matrix(-1 0 0 1 36 36)" fill="#00880E"/>
<rect width="2" height="2" transform="matrix(-1 0 0 1 38 36)" fill="#00880E"/>
<rect width="2" height="2" transform="matrix(-1 0 0 1 40 36)" fill="#3F9F00"/>
<rect x="40" y="34" width="2" height="2" fill="#BE8C52"/>
<rect width="2" height="2" transform="matrix(-1 0 0 1 20 28)" fill="#FC6B00"/>
<rect x="40" y="28" width="2" height="2" fill="#BE8C52"/>
<rect x="44" y="28" width="2" height="2" fill="#EAC294"/>
<rect width="2" height="2" transform="matrix(-1 0 0 1 16 30)" fill="#FC6B00"/>
<rect width="2" height="2" transform="matrix(-1 0 0 1 20 30)" fill="#D63819"/>
<rect x="40" y="30" width="2" height="2" fill="#BE8C52"/>
<rect x="44" y="30" width="2" height="2" fill="#BE8C52"/>
<rect width="2" height="2" transform="matrix(-1 0 0 1 20 26)" fill="#D63819"/>
<rect x="40" y="26" width="2" height="2" fill="#EAC294"/>
<rect x="44" y="26" width="2" height="2" fill="#BE8C52"/>
<rect width="2" height="2" transform="matrix(-1 0 0 1 24 26)" fill="white"/>
<rect width="2" height="2" transform="matrix(-1 0 0 1 24 28)" fill="white"/>
<rect width="2" height="2" transform="matrix(-1 0 0 1 20 24)" fill="#FC6B00"/>
<rect x="40" y="24" width="2" height="2" fill="#BE8C52"/>
<rect width="2" height="2" transform="matrix(-1 0 0 1 24 24)" fill="white"/>
<rect width="2" height="2" transform="matrix(-1 0 0 1 22 28)" fill="#D63819"/>
<rect x="38" y="28" width="2" height="2" fill="#EAC294"/>
<rect x="50" y="28" width="2" height="2" fill="#BE8C52"/>
<rect x="48" y="28" width="2" height="2" fill="#EAC294"/>
<rect x="48" y="30" width="2" height="2" fill="#BE8C52"/>
<rect width="2" height="2" transform="matrix(-1 0 0 1 22 30)" fill="#FC6B00"/>
<rect x="38" y="30" width="2" height="2" fill="#BE8C52"/>
<rect width="2" height="2" transform="matrix(-1 0 0 1 24 30)" fill="#FC6B00"/>
<rect x="36" y="30" width="2" height="2" fill="#BE8C52"/>
<rect width="2" height="2" transform="matrix(-1 0 0 1 22 32)" fill="#FC6B00"/>
<rect x="38" y="32" width="2" height="2" fill="#EAC294"/>
<rect width="2" height="2" transform="matrix(-1 0 0 1 32 20)" fill="#FFD300"/>
<rect width="2" height="2" transform="matrix(-1 0 0 1 30 20)" fill="#FFD300"/>
<rect width="2" height="2" transform="matrix(-1 0 0 1 30 22)" fill="#FFD300"/>
<rect width="2" height="2" transform="matrix(-1 0 0 1 30 24)" fill="#FFD300"/>
<rect width="2" height="2" transform="matrix(-1 0 0 1 30 26)" fill="#FAA000"/>
<rect width="2" height="2" transform="matrix(-1 0 0 1 28 24)" fill="#FFD300"/>
<rect width="2" height="2" transform="matrix(-1 0 0 1 28 26)" fill="#FAA000"/>
<rect width="2" height="2" transform="matrix(-1 0 0 1 26 24)" fill="#FFD300"/>
<rect width="2" height="2" transform="matrix(-1 0 0 1 28 22)" fill="#FFF963"/>
<rect width="2" height="2" transform="matrix(-1 0 0 1 26 22)" fill="#FFD300"/>
<rect width="2" height="2" transform="matrix(-1 0 0 1 28 20)" fill="#FFD300"/>
<rect width="2" height="2" transform="matrix(-1 0 0 1 32 22)" fill="#FFD300"/>
<rect width="2" height="2" transform="matrix(-1 0 0 1 34 22)" fill="#FAA000"/>
<rect width="2" height="2" transform="matrix(-1 0 0 1 34 24)" fill="#FAA000"/>
<rect width="2" height="2" transform="matrix(-1 0 0 1 32 24)" fill="#FFD300"/>
<rect width="2" height="2" transform="matrix(-1 0 0 1 32 26)" fill="#FAA000"/>
<rect x="20" y="4" width="2" height="2" fill="#FFCBB8"/>
<rect x="20" y="2" width="2" height="2" fill="#FF7002"/>
<rect x="22" y="4" width="2" height="2" fill="#FFCBB8"/>
<rect x="22" y="2" width="2" height="2" fill="#FF7002"/>
<rect x="24" y="4" width="2" height="2" fill="#FFCBB8"/>
<rect x="24" y="2" width="2" height="2" fill="#FF7002"/>
<rect x="26" y="4" width="2" height="2" fill="#FFCBB8"/>
<rect x="26" y="2" width="2" height="2" fill="#FF7002"/>
<rect x="28" y="4" width="2" height="2" fill="#FFCBB8"/>
<rect x="28" y="2" width="2" height="2" fill="#FF7002"/>
<rect x="30" y="4" width="2" height="2" fill="#FFCBB8"/>
<rect x="30" y="2" width="2" height="2" fill="#FF7002"/>
<rect x="32" y="4" width="2" height="2" fill="#FFCBB8"/>
<rect x="32" y="2" width="2" height="2" fill="#FF7002"/>
<rect x="34" y="4" width="2" height="2" fill="#FFCBB8"/>
<rect x="34" y="2" width="2" height="2" fill="#FF7002"/>
<rect x="36" y="4" width="2" height="2" fill="#FFCBB8"/>
<rect x="36" y="2" width="2" height="2" fill="#FF7002"/>
<rect x="38" y="4" width="2" height="2" fill="#FFCBB8"/>
<rect x="38" y="2" width="2" height="2" fill="#FF7002"/>
<rect x="40" y="6" width="2" height="2" fill="#FFCBB8"/>
<rect x="44" y="8" width="2" height="2" fill="#FFCBB8"/>
<rect x="40" y="4" width="2" height="2" fill="#FFCBB8"/>
<rect x="40" y="2" width="2" height="2" fill="#FF7002"/>
<rect x="42" y="6" width="2" height="2" fill="#FFCBB8"/>
<rect x="42" y="4" width="2" height="2" fill="#FF7002"/>
<rect x="46" y="8" width="2" height="2" fill="#FFCBB8"/>
<rect x="46" y="6" width="2" height="2" fill="#FF7002"/>
<rect x="48" y="10" width="2" height="2" fill="#FFCBB8"/>
<rect x="50" y="12" width="2" height="2" fill="#FFCBB8"/>
<rect x="52" y="14" width="2" height="2" fill="#FFCBB8"/>
<rect x="54" y="16" width="2" height="2" fill="#FFCBB8"/>
<rect x="44" y="6" width="2" height="2" fill="#FFCBB8"/>
<rect x="44" y="4" width="2" height="2" fill="#FF7002"/>
<rect x="48" y="8" width="2" height="2" fill="#FFCBB8"/>
<rect x="48" y="6" width="2" height="2" fill="#FF7002"/>
<rect x="50" y="10" width="2" height="2" fill="#FFCBB8"/>
<rect x="50" y="8" width="2" height="2" fill="#FF7002"/>
<rect x="52" y="12" width="2" height="2" fill="#FFCBB8"/>
<rect x="52" y="10" width="2" height="2" fill="#FF7002"/>
<rect x="54" y="14" width="2" height="2" fill="#FFCBB8"/>
<rect x="54" y="12" width="2" height="2" fill="#FF7002"/>
<rect x="56" y="16" width="2" height="2" fill="#FFCBB8"/>
<rect x="58" y="16" width="2" height="2" fill="#FF7002"/>
<rect x="56" y="14" width="2" height="2" fill="#FF7002"/>
<rect x="56" y="18" width="2" height="2" fill="#FFCBB8"/>
<rect x="58" y="18" width="2" height="2" fill="#FF7002"/>
<rect x="56" y="20" width="2" height="2" fill="#FFCBB8"/>
<rect x="58" y="20" width="2" height="2" fill="#FF7002"/>
<rect x="56" y="22" width="2" height="2" fill="#FFCBB8"/>
<rect x="58" y="22" width="2" height="2" fill="#FF7002"/>
<rect x="56" y="24" width="2" height="2" fill="#FFCBB8"/>
<rect x="58" y="24" width="2" height="2" fill="#FF7002"/>
<rect x="56" y="26" width="2" height="2" fill="#FFCBB8"/>
<rect x="58" y="26" width="2" height="2" fill="#FF7002"/>
<rect x="56" y="28" width="2" height="2" fill="#FFCBB8"/>
<rect x="58" y="28" width="2" height="2" fill="#FF7002"/>
<rect x="56" y="30" width="2" height="2" fill="#FFCBB8"/>
<rect x="58" y="30" width="2" height="2" fill="#FF7002"/>
<rect x="56" y="32" width="2" height="2" fill="#FFCBB8"/>
<rect x="58" y="32" width="2" height="2" fill="#FF7002"/>
<rect x="56" y="34" width="2" height="2" fill="#FFCBB8"/>
<rect x="58" y="34" width="2" height="2" fill="#FF7002"/>
<rect x="56" y="36" width="2" height="2" fill="#FFCBB8"/>
<rect x="58" y="36" width="2" height="2" fill="#FF7002"/>
<rect x="56" y="38" width="2" height="2" fill="#FFCBB8"/>
<rect x="58" y="38" width="2" height="2" fill="#FF7002"/>
<rect x="54" y="38" width="2" height="2" fill="#FFCBB8"/>
<rect x="54" y="40" width="2" height="2" fill="#FFCBB8"/>
<rect x="56" y="40" width="2" height="2" fill="#FF7002"/>
<rect x="52" y="42" width="2" height="2" fill="#FFCBB8"/>
<rect x="50" y="44" width="2" height="2" fill="#FFCBB8"/>
<rect x="48" y="46" width="2" height="2" fill="#FFCBB8"/>
<rect x="46" y="48" width="2" height="2" fill="#FFCBB8"/>
<rect x="54" y="42" width="2" height="2" fill="#FFCBB8"/>
<rect x="56" y="42" width="2" height="2" fill="#FF7002"/>
<rect x="52" y="44" width="2" height="2" fill="#FFCBB8"/>
<rect x="54" y="44" width="2" height="2" fill="#FF7002"/>
<rect x="50" y="46" width="2" height="2" fill="#FFCBB8"/>
<rect x="52" y="46" width="2" height="2" fill="#FF7002"/>
<rect x="48" y="48" width="2" height="2" fill="#FFCBB8"/>
<rect x="50" y="48" width="2" height="2" fill="#FF7002"/>
<rect x="46" y="50" width="2" height="2" fill="#FFCBB8"/>
<rect x="46" y="52" width="2" height="2" fill="#FF7002"/>
<rect x="48" y="50" width="2" height="2" fill="#FF7002"/>
<rect x="42" y="52" width="2" height="2" fill="#FFCBB8"/>
<rect x="42" y="54" width="2" height="2" fill="#FF7002"/>
<rect x="38" y="54" width="2" height="2" fill="#FFCBB8"/>
<rect x="38" y="56" width="2" height="2" fill="#FF7002"/>
<rect x="44" y="50" width="2" height="2" fill="#FFCBB8"/>
<rect x="44" y="52" width="2" height="2" fill="#FF7002"/>
<rect x="40" y="52" width="2" height="2" fill="#FFCBB8"/>
<rect x="40" y="54" width="2" height="2" fill="#FF7002"/>
<rect x="36" y="54" width="2" height="2" fill="#FFCBB8"/>
<rect x="36" y="56" width="2" height="2" fill="#FF7002"/>
<rect x="42" y="50" width="2" height="2" fill="#FFCBB8"/>
<rect x="38" y="52" width="2" height="2" fill="#FFCBB8"/>
<rect x="34" y="54" width="2" height="2" fill="#FFCBB8"/>
<rect x="34" y="56" width="2" height="2" fill="#FF7002"/>
<rect x="32" y="54" width="2" height="2" fill="#FFCBB8"/>
<rect x="32" y="56" width="2" height="2" fill="#FF7002"/>
<rect x="30" y="54" width="2" height="2" fill="#FFCBB8"/>
<rect x="30" y="56" width="2" height="2" fill="#FF7002"/>
<rect x="28" y="54" width="2" height="2" fill="#FFCBB8"/>
<rect x="28" y="56" width="2" height="2" fill="#FF7002"/>
<rect x="26" y="54" width="2" height="2" fill="#FFCBB8"/>
<rect x="26" y="56" width="2" height="2" fill="#FF7002"/>
<rect x="24" y="54" width="2" height="2" fill="#FFCBB8"/>
<rect x="24" y="56" width="2" height="2" fill="#FF7002"/>
<rect x="20" y="52" width="2" height="2" fill="#FFCBB8"/>
<rect x="16" y="50" width="2" height="2" fill="#FFCBB8"/>
<rect x="22" y="54" width="2" height="2" fill="#FFCBB8"/>
<rect x="22" y="56" width="2" height="2" fill="#FF7002"/>
<rect x="18" y="52" width="2" height="2" fill="#FFCBB8"/>
<rect x="18" y="54" width="2" height="2" fill="#FF7002"/>
<rect x="14" y="50" width="2" height="2" fill="#FFCBB8"/>
<rect x="14" y="52" width="2" height="2" fill="#FF7002"/>
<rect x="12" y="48" width="2" height="2" fill="#FFCBB8"/>
<rect x="10" y="46" width="2" height="2" fill="#FFCBB8"/>
<rect x="8" y="44" width="2" height="2" fill="#FFCBB8"/>
<rect x="6" y="42" width="2" height="2" fill="#FFCBB8"/>
<rect x="4" y="40" width="2" height="2" fill="#FFCBB8"/>
<rect x="2" y="40" width="2" height="2" fill="#FF7002"/>
<rect x="20" y="54" width="2" height="2" fill="#FFCBB8"/>
<rect x="20" y="56" width="2" height="2" fill="#FF7002"/>
<rect x="16" y="52" width="2" height="2" fill="#FFCBB8"/>
<rect x="16" y="54" width="2" height="2" fill="#FF7002"/>
<rect x="12" y="50" width="2" height="2" fill="#FFCBB8"/>
<rect x="12" y="52" width="2" height="2" fill="#FF7002"/>
<rect x="10" y="48" width="2" height="2" fill="#FFCBB8"/>
<rect x="10" y="50" width="2" height="2" fill="#FF7002"/>
<rect x="8" y="46" width="2" height="2" fill="#FFCBB8"/>
<rect x="8" y="48" width="2" height="2" fill="#FF7002"/>
<rect x="6" y="44" width="2" height="2" fill="#FFCBB8"/>
<rect x="6" y="46" width="2" height="2" fill="#FF7002"/>
<rect x="4" y="42" width="2" height="2" fill="#FFCBB8"/>
<rect x="2" y="42" width="2" height="2" fill="#FF7002"/>
<rect x="4" y="44" width="2" height="2" fill="#FF7002"/>
<rect x="4" y="38" width="2" height="2" fill="#FFCBB8"/>
<rect x="2" y="38" width="2" height="2" fill="#FFCBB8"/>
<rect y="38" width="2" height="2" fill="#FF7002"/>
<rect x="2" y="36" width="2" height="2" fill="#FFCBB8"/>
<rect y="36" width="2" height="2" fill="#FF7002"/>
<rect x="2" y="34" width="2" height="2" fill="#FFCBB8"/>
<rect y="34" width="2" height="2" fill="#FF7002"/>
<rect x="2" y="32" width="2" height="2" fill="#FFCBB8"/>
<rect y="32" width="2" height="2" fill="#FF7002"/>
<rect x="2" y="30" width="2" height="2" fill="#FFCBB8"/>
<rect y="30" width="2" height="2" fill="#FF7002"/>
<rect x="2" y="28" width="2" height="2" fill="#FFCBB8"/>
<rect y="28" width="2" height="2" fill="#FF7002"/>
<rect x="2" y="26" width="2" height="2" fill="#FFCBB8"/>
<rect y="26" width="2" height="2" fill="#FF7002"/>
<rect x="2" y="24" width="2" height="2" fill="#FFCBB8"/>
<rect y="24" width="2" height="2" fill="#FF7002"/>
<rect x="2" y="22" width="2" height="2" fill="#FFCBB8"/>
<rect y="22" width="2" height="2" fill="#FF7002"/>
<rect x="2" y="20" width="2" height="2" fill="#FFCBB8"/>
<rect y="20" width="2" height="2" fill="#FF7002"/>
<rect x="2" y="18" width="2" height="2" fill="#FFCBB8"/>
<rect y="18" width="2" height="2" fill="#FF7002"/>
<rect x="2" y="16" width="2" height="2" fill="#FFCBB8"/>
<rect y="16" width="2" height="2" fill="#FF7002"/>
<rect x="4" y="14" width="2" height="2" fill="#FFCBB8"/>
<rect x="2" y="14" width="2" height="2" fill="#FF7002"/>
<rect x="6" y="12" width="2" height="2" fill="#FFCBB8"/>
<rect x="4" y="12" width="2" height="2" fill="#FF7002"/>
<rect x="8" y="10" width="2" height="2" fill="#FFCBB8"/>
<rect x="6" y="10" width="2" height="2" fill="#FF7002"/>
<rect x="10" y="8" width="2" height="2" fill="#FFCBB8"/>
<rect x="10" y="6" width="2" height="2" fill="#FF7002"/>
<rect x="8" y="8" width="2" height="2" fill="#FF7002"/>
<rect x="4" y="16" width="2" height="2" fill="#FFCBB8"/>
<rect x="6" y="14" width="2" height="2" fill="#FFCBB8"/>
<rect x="8" y="12" width="2" height="2" fill="#FFCBB8"/>
<rect x="10" y="10" width="2" height="2" fill="#FFCBB8"/>
<rect x="12" y="8" width="2" height="2" fill="#FFCBB8"/>
<rect x="12" y="6" width="2" height="2" fill="#FF7002"/>
<rect x="14" y="6" width="2" height="2" fill="#FFCBB8"/>
<rect x="14" y="4" width="2" height="2" fill="#FF7002"/>
<rect x="14" y="8" width="2" height="2" fill="#FFCBB8"/>
<rect x="16" y="6" width="2" height="2" fill="#FFCBB8"/>
<rect x="16" y="4" width="2" height="2" fill="#FF7002"/>
<rect x="18" y="6" width="2" height="2" fill="#FFCBB8"/>
<rect x="18" y="4" width="2" height="2" fill="#FFCBB8"/>
<rect x="18" y="2" width="2" height="2" fill="#FF7002"/>
</svg>
