<svg width="60" height="60" viewBox="0 0 60 60" fill="none" xmlns="http://www.w3.org/2000/svg">
<rect x="11" y="27" width="2" height="2" fill="#FFA202"/>
<rect x="29" y="27" width="2" height="2" fill="#FFA202"/>
<rect x="47" y="27" width="2" height="2" fill="#FFA202"/>
<rect x="11" y="25" width="2" height="2" fill="#FFA202"/>
<rect x="29" y="25" width="2" height="2" fill="#FFA202"/>
<rect x="47" y="25" width="2" height="2" fill="#FFA202"/>
<rect x="11" y="23" width="2" height="2" fill="black"/>
<rect x="29" y="23" width="2" height="2" fill="black"/>
<rect x="47" y="23" width="2" height="2" fill="black"/>
<rect x="11" y="21" width="2" height="2" fill="#FFCBB8"/>
<rect x="11" y="19" width="2" height="2" fill="#FF7002"/>
<rect x="11" y="39" width="2" height="2" fill="#FF7002"/>
<rect x="29" y="21" width="2" height="2" fill="#FFCBB8"/>
<rect x="29" y="19" width="2" height="2" fill="#FF7002"/>
<rect x="29" y="39" width="2" height="2" fill="#FF7002"/>
<rect x="47" y="21" width="2" height="2" fill="#FFCBB8"/>
<rect x="47" y="19" width="2" height="2" fill="#FF7002"/>
<rect x="47" y="39" width="2" height="2" fill="#FF7002"/>
<rect x="11" y="35" width="2" height="2" fill="black"/>
<rect x="29" y="35" width="2" height="2" fill="black"/>
<rect x="47" y="35" width="2" height="2" fill="black"/>
<rect x="11" y="33" width="2" height="2" fill="#FF7002"/>
<rect x="29" y="33" width="2" height="2" fill="#FF7002"/>
<rect x="47" y="33" width="2" height="2" fill="#FF7002"/>
<rect x="9" y="27" width="2" height="2" fill="#FFA202"/>
<rect x="27" y="27" width="2" height="2" fill="#FFA202"/>
<rect x="45" y="27" width="2" height="2" fill="#FFA202"/>
<rect x="7" y="27" width="2" height="2" fill="#FFC30B"/>
<rect x="25" y="27" width="2" height="2" fill="#FFC30B"/>
<rect x="43" y="27" width="2" height="2" fill="#FFC30B"/>
<rect x="7" y="25" width="2" height="2" fill="#FFC30B"/>
<rect x="25" y="25" width="2" height="2" fill="#FFC30B"/>
<rect x="43" y="25" width="2" height="2" fill="#FFC30B"/>
<rect x="9" y="25" width="2" height="2" fill="#FFC30B"/>
<rect x="27" y="25" width="2" height="2" fill="#FFC30B"/>
<rect x="45" y="25" width="2" height="2" fill="#FFC30B"/>
<rect x="9" y="23" width="2" height="2" fill="black"/>
<rect x="27" y="23" width="2" height="2" fill="black"/>
<rect x="45" y="23" width="2" height="2" fill="black"/>
<rect x="9" y="21" width="2" height="2" fill="#FFCBB8"/>
<rect x="9" y="19" width="2" height="2" fill="#FF7002"/>
<rect x="9" y="39" width="2" height="2" fill="#FF7002"/>
<rect x="27" y="21" width="2" height="2" fill="#FFCBB8"/>
<rect x="27" y="19" width="2" height="2" fill="#FF7002"/>
<rect x="27" y="39" width="2" height="2" fill="#FF7002"/>
<rect x="45" y="21" width="2" height="2" fill="#FFCBB8"/>
<rect x="45" y="19" width="2" height="2" fill="#FF7002"/>
<rect x="45" y="39" width="2" height="2" fill="#FF7002"/>
<rect x="9" y="35" width="2" height="2" fill="black"/>
<rect x="27" y="35" width="2" height="2" fill="black"/>
<rect x="45" y="35" width="2" height="2" fill="black"/>
<rect x="7" y="23" width="2" height="2" fill="black"/>
<rect x="25" y="23" width="2" height="2" fill="black"/>
<rect x="43" y="23" width="2" height="2" fill="black"/>
<rect x="7" y="21" width="2" height="2" fill="#FFCBB8"/>
<rect x="7" y="19" width="2" height="2" fill="#FF7002"/>
<rect x="7" y="39" width="2" height="2" fill="#FF7002"/>
<rect x="25" y="21" width="2" height="2" fill="#FFCBB8"/>
<rect x="25" y="19" width="2" height="2" fill="#FF7002"/>
<rect x="25" y="39" width="2" height="2" fill="#FF7002"/>
<rect x="43" y="21" width="2" height="2" fill="#FFCBB8"/>
<rect x="43" y="19" width="2" height="2" fill="#FF7002"/>
<rect x="43" y="39" width="2" height="2" fill="#FF7002"/>
<rect x="7" y="35" width="2" height="2" fill="black"/>
<rect x="25" y="35" width="2" height="2" fill="black"/>
<rect x="43" y="35" width="2" height="2" fill="black"/>
<rect x="9" y="33" width="2" height="2" fill="#FF7002"/>
<rect x="27" y="33" width="2" height="2" fill="#FF7002"/>
<rect x="45" y="33" width="2" height="2" fill="#FF7002"/>
<rect x="7" y="33" width="2" height="2" fill="#FF7002"/>
<rect x="25" y="33" width="2" height="2" fill="#FF7002"/>
<rect x="43" y="33" width="2" height="2" fill="#FF7002"/>
<rect x="11" y="29" width="2" height="2" fill="#FFA202"/>
<rect x="29" y="29" width="2" height="2" fill="#FFA202"/>
<rect x="47" y="29" width="2" height="2" fill="#FFA202"/>
<rect x="11" y="31" width="2" height="2" fill="#FF7002"/>
<rect x="29" y="31" width="2" height="2" fill="#FF7002"/>
<rect x="47" y="31" width="2" height="2" fill="#FF7002"/>
<rect x="9" y="29" width="2" height="2" fill="#FFA202"/>
<rect x="27" y="29" width="2" height="2" fill="#FFA202"/>
<rect x="45" y="29" width="2" height="2" fill="#FFA202"/>
<rect x="7" y="29" width="2" height="2" fill="#FFA202"/>
<rect x="25" y="29" width="2" height="2" fill="#FFA202"/>
<rect x="43" y="29" width="2" height="2" fill="#FFA202"/>
<rect x="9" y="31" width="2" height="2" fill="#FF7002"/>
<rect x="27" y="31" width="2" height="2" fill="#FF7002"/>
<rect x="45" y="31" width="2" height="2" fill="#FF7002"/>
<rect x="7" y="31" width="2" height="2" fill="#FF7002"/>
<rect x="25" y="31" width="2" height="2" fill="#FF7002"/>
<rect x="43" y="31" width="2" height="2" fill="#FF7002"/>
<rect x="13" y="27" width="2" height="2" fill="#FF7002"/>
<rect x="31" y="27" width="2" height="2" fill="#FF7002"/>
<rect x="49" y="27" width="2" height="2" fill="#FF7002"/>
<rect x="15" y="27" width="2" height="2" fill="#FF5601"/>
<rect x="33" y="27" width="2" height="2" fill="#FF5601"/>
<rect x="51" y="27" width="2" height="2" fill="#FF5601"/>
<rect x="17" y="27" width="2" height="2" fill="black"/>
<rect x="35" y="27" width="2" height="2" fill="black"/>
<rect x="53" y="27" width="2" height="2" fill="black"/>
<rect x="13" y="25" width="2" height="2" fill="#FF7002"/>
<rect x="31" y="25" width="2" height="2" fill="#FF7002"/>
<rect x="49" y="25" width="2" height="2" fill="#FF7002"/>
<rect x="13" y="23" width="2" height="2" fill="black"/>
<rect x="31" y="23" width="2" height="2" fill="black"/>
<rect x="49" y="23" width="2" height="2" fill="black"/>
<rect x="13" y="21" width="2" height="2" fill="#FFCBB8"/>
<rect x="13" y="19" width="2" height="2" fill="#FF7002"/>
<rect x="13" y="39" width="2" height="2" fill="#FF7002"/>
<rect x="31" y="21" width="2" height="2" fill="#FFCBB8"/>
<rect x="31" y="19" width="2" height="2" fill="#FF7002"/>
<rect x="31" y="39" width="2" height="2" fill="#FF7002"/>
<rect x="49" y="21" width="2" height="2" fill="#FFCBB8"/>
<rect x="49" y="19" width="2" height="2" fill="#FF7002"/>
<rect x="49" y="39" width="2" height="2" fill="#FF7002"/>
<rect x="13" y="35" width="2" height="2" fill="black"/>
<rect x="31" y="35" width="2" height="2" fill="black"/>
<rect x="49" y="35" width="2" height="2" fill="black"/>
<rect x="13" y="33" width="2" height="2" fill="#FF7002"/>
<rect x="31" y="33" width="2" height="2" fill="#FF7002"/>
<rect x="49" y="33" width="2" height="2" fill="#FF7002"/>
<rect x="15" y="25" width="2" height="2" fill="#FF5601"/>
<rect x="33" y="25" width="2" height="2" fill="#FF5601"/>
<rect x="51" y="25" width="2" height="2" fill="#FF5601"/>
<rect x="17" y="25" width="2" height="2" fill="black"/>
<rect x="35" y="25" width="2" height="2" fill="black"/>
<rect x="53" y="25" width="2" height="2" fill="black"/>
<rect x="15" y="23" width="2" height="2" fill="black"/>
<rect x="33" y="23" width="2" height="2" fill="black"/>
<rect x="51" y="23" width="2" height="2" fill="black"/>
<rect x="15" y="21" width="2" height="2" fill="#FFCBB8"/>
<rect x="15" y="19" width="2" height="2" fill="#FF7002"/>
<rect x="15" y="39" width="2" height="2" fill="#FF7002"/>
<rect x="33" y="21" width="2" height="2" fill="#FFCBB8"/>
<rect x="33" y="19" width="2" height="2" fill="#FF7002"/>
<rect x="33" y="39" width="2" height="2" fill="#FF7002"/>
<rect x="51" y="21" width="2" height="2" fill="#FFCBB8"/>
<rect x="51" y="19" width="2" height="2" fill="#FF7002"/>
<rect x="51" y="39" width="2" height="2" fill="#FF7002"/>
<rect x="15" y="35" width="2" height="2" fill="black"/>
<rect x="33" y="35" width="2" height="2" fill="black"/>
<rect x="51" y="35" width="2" height="2" fill="black"/>
<rect x="17" y="23" width="2" height="2" fill="black"/>
<rect x="35" y="23" width="2" height="2" fill="black"/>
<rect x="53" y="23" width="2" height="2" fill="black"/>
<rect x="17" y="21" width="2" height="2" fill="#FFCBB8"/>
<rect x="17" y="19" width="2" height="2" fill="#FF7002"/>
<rect x="17" y="39" width="2" height="2" fill="#FF7002"/>
<rect x="35" y="21" width="2" height="2" fill="#FFCBB8"/>
<rect x="35" y="19" width="2" height="2" fill="#FF7002"/>
<rect x="35" y="39" width="2" height="2" fill="#FF7002"/>
<rect x="53" y="21" width="2" height="2" fill="#FFCBB8"/>
<rect x="53" y="19" width="2" height="2" fill="#FF7002"/>
<rect x="53" y="39" width="2" height="2" fill="#FF7002"/>
<rect x="17" y="35" width="2" height="2" fill="black"/>
<rect x="35" y="35" width="2" height="2" fill="black"/>
<rect x="53" y="35" width="2" height="2" fill="black"/>
<rect x="19" y="21" width="2" height="2" fill="#FFCBB8"/>
<rect x="19" y="19" width="2" height="2" fill="#FF7002"/>
<rect x="19" y="39" width="2" height="2" fill="#FF7002"/>
<rect x="37" y="21" width="2" height="2" fill="#FFCBB8"/>
<rect x="37" y="19" width="2" height="2" fill="#FF7002"/>
<rect x="37" y="39" width="2" height="2" fill="#FF7002"/>
<rect x="55" y="21" width="2" height="2" fill="#FFCBB8"/>
<rect x="57" y="21" width="2" height="2" fill="#FF7002"/>
<rect x="1" y="21" width="2" height="2" fill="#FF7002"/>
<rect x="55" y="19" width="2" height="2" fill="#FF7002"/>
<rect x="55" y="39" width="2" height="2" fill="#FF7002"/>
<rect x="19" y="37" width="2" height="2" fill="#FFCBB8"/>
<rect x="37" y="37" width="2" height="2" fill="#FFCBB8"/>
<rect x="55" y="37" width="2" height="2" fill="#FFCBB8"/>
<rect x="57" y="37" width="2" height="2" fill="#FF7002"/>
<rect x="1" y="37" width="2" height="2" fill="#FF7002"/>
<rect x="17" y="37" width="2" height="2" fill="#FFCBB8"/>
<rect x="35" y="37" width="2" height="2" fill="#FFCBB8"/>
<rect x="53" y="37" width="2" height="2" fill="#FFCBB8"/>
<rect x="15" y="37" width="2" height="2" fill="#FFCBB8"/>
<rect x="33" y="37" width="2" height="2" fill="#FFCBB8"/>
<rect x="51" y="37" width="2" height="2" fill="#FFCBB8"/>
<rect x="13" y="37" width="2" height="2" fill="#FFCBB8"/>
<rect x="31" y="37" width="2" height="2" fill="#FFCBB8"/>
<rect x="49" y="37" width="2" height="2" fill="#FFCBB8"/>
<rect x="11" y="37" width="2" height="2" fill="#FFCBB8"/>
<rect x="29" y="37" width="2" height="2" fill="#FFCBB8"/>
<rect x="47" y="37" width="2" height="2" fill="#FFCBB8"/>
<rect x="9" y="37" width="2" height="2" fill="#FFCBB8"/>
<rect x="27" y="37" width="2" height="2" fill="#FFCBB8"/>
<rect x="45" y="37" width="2" height="2" fill="#FFCBB8"/>
<rect x="7" y="37" width="2" height="2" fill="#FFCBB8"/>
<rect x="25" y="37" width="2" height="2" fill="#FFCBB8"/>
<rect x="43" y="37" width="2" height="2" fill="#FFCBB8"/>
<rect x="5" y="37" width="2" height="2" fill="#FFCBB8"/>
<rect x="23" y="37" width="2" height="2" fill="#FFCBB8"/>
<rect x="41" y="37" width="2" height="2" fill="#FFCBB8"/>
<rect x="3" y="37" width="2" height="2" fill="#FFCBB8"/>
<rect x="21" y="37" width="2" height="2" fill="#FFCBB8"/>
<rect x="39" y="37" width="2" height="2" fill="#FFCBB8"/>
<rect x="3" y="35" width="2" height="2" fill="#FFCBB8"/>
<rect x="21" y="35" width="2" height="2" fill="#FFCBB8"/>
<rect x="39" y="35" width="2" height="2" fill="#FFCBB8"/>
<rect x="3" y="33" width="2" height="2" fill="#FFCBB8"/>
<rect x="21" y="33" width="2" height="2" fill="#FFCBB8"/>
<rect x="39" y="33" width="2" height="2" fill="#FFCBB8"/>
<rect x="3" y="31" width="2" height="2" fill="#FFCBB8"/>
<rect x="21" y="31" width="2" height="2" fill="#FFCBB8"/>
<rect x="39" y="31" width="2" height="2" fill="#FFCBB8"/>
<rect x="3" y="29" width="2" height="2" fill="#FFCBB8"/>
<rect x="21" y="29" width="2" height="2" fill="#FFCBB8"/>
<rect x="39" y="29" width="2" height="2" fill="#FFCBB8"/>
<rect x="3" y="27" width="2" height="2" fill="#FFCBB8"/>
<rect x="21" y="27" width="2" height="2" fill="#FFCBB8"/>
<rect x="39" y="27" width="2" height="2" fill="#FFCBB8"/>
<rect x="3" y="25" width="2" height="2" fill="#FFCBB8"/>
<rect x="21" y="25" width="2" height="2" fill="#FFCBB8"/>
<rect x="39" y="25" width="2" height="2" fill="#FFCBB8"/>
<rect x="3" y="23" width="2" height="2" fill="#FFCBB8"/>
<rect x="21" y="23" width="2" height="2" fill="#FFCBB8"/>
<rect x="39" y="23" width="2" height="2" fill="#FFCBB8"/>
<rect x="3" y="21" width="2" height="2" fill="#FFCBB8"/>
<rect x="3" y="19" width="2" height="2" fill="#FF7002"/>
<rect x="3" y="39" width="2" height="2" fill="#FF7002"/>
<rect x="21" y="21" width="2" height="2" fill="#FFCBB8"/>
<rect x="21" y="19" width="2" height="2" fill="#FF7002"/>
<rect x="21" y="39" width="2" height="2" fill="#FF7002"/>
<rect x="39" y="21" width="2" height="2" fill="#FFCBB8"/>
<rect x="39" y="19" width="2" height="2" fill="#FF7002"/>
<rect x="39" y="39" width="2" height="2" fill="#FF7002"/>
<rect x="5" y="21" width="2" height="2" fill="#FFCBB8"/>
<rect x="5" y="19" width="2" height="2" fill="#FF7002"/>
<rect x="5" y="39" width="2" height="2" fill="#FF7002"/>
<rect x="23" y="21" width="2" height="2" fill="#FFCBB8"/>
<rect x="23" y="19" width="2" height="2" fill="#FF7002"/>
<rect x="23" y="39" width="2" height="2" fill="#FF7002"/>
<rect x="41" y="21" width="2" height="2" fill="#FFCBB8"/>
<rect x="41" y="19" width="2" height="2" fill="#FF7002"/>
<rect x="41" y="39" width="2" height="2" fill="#FF7002"/>
<rect x="19" y="23" width="2" height="2" fill="#FFCBB8"/>
<rect x="37" y="23" width="2" height="2" fill="#FFCBB8"/>
<rect x="55" y="23" width="2" height="2" fill="#FFCBB8"/>
<rect x="57" y="23" width="2" height="2" fill="#FF7002"/>
<rect x="1" y="23" width="2" height="2" fill="#FF7002"/>
<rect x="5" y="23" width="2" height="2" fill="black"/>
<rect x="23" y="23" width="2" height="2" fill="black"/>
<rect x="41" y="23" width="2" height="2" fill="black"/>
<rect x="19" y="25" width="2" height="2" fill="#FFCBB8"/>
<rect x="37" y="25" width="2" height="2" fill="#FFCBB8"/>
<rect x="55" y="25" width="2" height="2" fill="#FFCBB8"/>
<rect x="57" y="25" width="2" height="2" fill="#FF7002"/>
<rect x="1" y="25" width="2" height="2" fill="#FF7002"/>
<rect x="5" y="25" width="2" height="2" fill="black"/>
<rect x="23" y="25" width="2" height="2" fill="black"/>
<rect x="41" y="25" width="2" height="2" fill="black"/>
<rect x="19" y="27" width="2" height="2" fill="#FFCBB8"/>
<rect x="37" y="27" width="2" height="2" fill="#FFCBB8"/>
<rect x="55" y="27" width="2" height="2" fill="#FFCBB8"/>
<rect x="57" y="27" width="2" height="2" fill="#FF7002"/>
<rect x="1" y="27" width="2" height="2" fill="#FF7002"/>
<rect x="5" y="27" width="2" height="2" fill="black"/>
<rect x="23" y="27" width="2" height="2" fill="black"/>
<rect x="41" y="27" width="2" height="2" fill="black"/>
<rect x="19" y="29" width="2" height="2" fill="#FFCBB8"/>
<rect x="37" y="29" width="2" height="2" fill="#FFCBB8"/>
<rect x="55" y="29" width="2" height="2" fill="#FFCBB8"/>
<rect x="57" y="29" width="2" height="2" fill="#FF7002"/>
<rect x="1" y="29" width="2" height="2" fill="#FF7002"/>
<rect x="5" y="29" width="2" height="2" fill="black"/>
<rect x="23" y="29" width="2" height="2" fill="black"/>
<rect x="41" y="29" width="2" height="2" fill="black"/>
<rect x="19" y="31" width="2" height="2" fill="#FFCBB8"/>
<rect x="37" y="31" width="2" height="2" fill="#FFCBB8"/>
<rect x="55" y="31" width="2" height="2" fill="#FFCBB8"/>
<rect x="57" y="31" width="2" height="2" fill="#FF7002"/>
<rect x="1" y="31" width="2" height="2" fill="#FF7002"/>
<rect x="5" y="31" width="2" height="2" fill="black"/>
<rect x="23" y="31" width="2" height="2" fill="black"/>
<rect x="41" y="31" width="2" height="2" fill="black"/>
<rect x="19" y="33" width="2" height="2" fill="#FFCBB8"/>
<rect x="37" y="33" width="2" height="2" fill="#FFCBB8"/>
<rect x="55" y="33" width="2" height="2" fill="#FFCBB8"/>
<rect x="57" y="33" width="2" height="2" fill="#FF7002"/>
<rect x="1" y="33" width="2" height="2" fill="#FF7002"/>
<rect x="5" y="33" width="2" height="2" fill="black"/>
<rect x="23" y="33" width="2" height="2" fill="black"/>
<rect x="41" y="33" width="2" height="2" fill="black"/>
<rect x="19" y="35" width="2" height="2" fill="#FFCBB8"/>
<rect x="37" y="35" width="2" height="2" fill="#FFCBB8"/>
<rect x="55" y="35" width="2" height="2" fill="#FFCBB8"/>
<rect x="57" y="35" width="2" height="2" fill="#FF7002"/>
<rect x="1" y="35" width="2" height="2" fill="#FF7002"/>
<rect x="5" y="35" width="2" height="2" fill="black"/>
<rect x="23" y="35" width="2" height="2" fill="black"/>
<rect x="41" y="35" width="2" height="2" fill="black"/>
<rect x="15" y="33" width="2" height="2" fill="#FF7002"/>
<rect x="33" y="33" width="2" height="2" fill="#FF7002"/>
<rect x="51" y="33" width="2" height="2" fill="#FF7002"/>
<rect x="17" y="33" width="2" height="2" fill="black"/>
<rect x="35" y="33" width="2" height="2" fill="black"/>
<rect x="53" y="33" width="2" height="2" fill="black"/>
<rect x="13" y="29" width="2" height="2" fill="#FF7002"/>
<rect x="31" y="29" width="2" height="2" fill="#FF7002"/>
<rect x="49" y="29" width="2" height="2" fill="#FF7002"/>
<rect x="15" y="29" width="2" height="2" fill="#FF5601"/>
<rect x="33" y="29" width="2" height="2" fill="#FF5601"/>
<rect x="51" y="29" width="2" height="2" fill="#FF5601"/>
<rect x="17" y="29" width="2" height="2" fill="black"/>
<rect x="35" y="29" width="2" height="2" fill="black"/>
<rect x="53" y="29" width="2" height="2" fill="black"/>
<rect x="13" y="31" width="2" height="2" fill="#FF7002"/>
<rect x="31" y="31" width="2" height="2" fill="#FF7002"/>
<rect x="49" y="31" width="2" height="2" fill="#FF7002"/>
<rect x="15" y="31" width="2" height="2" fill="#FF5601"/>
<rect x="33" y="31" width="2" height="2" fill="#FF5601"/>
<rect x="51" y="31" width="2" height="2" fill="#FF5601"/>
<rect x="17" y="31" width="2" height="2" fill="black"/>
<rect x="35" y="31" width="2" height="2" fill="black"/>
<rect x="53" y="31" width="2" height="2" fill="black"/>
</svg>
