<svg width="60" height="60" viewBox="0 0 60 60" fill="none" xmlns="http://www.w3.org/2000/svg">
<rect width="2" height="2" transform="matrix(-1 0 0 1 30 52)" fill="black"/>
<rect width="2" height="2" transform="matrix(-1 0 0 1 28 52)" fill="black"/>
<rect width="2" height="2" transform="matrix(-1 0 0 1 26 52)" fill="black"/>
<rect width="2" height="2" transform="matrix(-1 0 0 1 24 52)" fill="black"/>
<rect width="2" height="2" transform="matrix(-1 0 0 1 22 52)" fill="black"/>
<rect width="2" height="2" transform="matrix(-1 0 0 1 20 50)" fill="black"/>
<rect width="2" height="2" transform="matrix(-1 0 0 1 18 50)" fill="black"/>
<rect width="2" height="2" transform="matrix(-1 0 0 1 16 48)" fill="black"/>
<rect width="2" height="2" transform="matrix(-1 0 0 1 14 48)" fill="black"/>
<rect width="2" height="2" transform="matrix(-1 0 0 1 10 44)" fill="black"/>
<rect width="2" height="2" transform="matrix(-1 0 0 1 12 46)" fill="black"/>
<rect width="2" height="2" transform="matrix(-1 0 0 1 8 42)" fill="black"/>
<rect x="30" y="52" width="2" height="2" fill="black"/>
<rect x="32" y="52" width="2" height="2" fill="black"/>
<rect x="34" y="52" width="2" height="2" fill="black"/>
<rect x="36" y="52" width="2" height="2" fill="black"/>
<rect x="38" y="52" width="2" height="2" fill="black"/>
<rect x="40" y="50" width="2" height="2" fill="black"/>
<rect x="42" y="50" width="2" height="2" fill="black"/>
<rect x="44" y="48" width="2" height="2" fill="black"/>
<rect x="46" y="48" width="2" height="2" fill="black"/>
<rect x="50" y="44" width="2" height="2" fill="black"/>
<rect x="48" y="46" width="2" height="2" fill="black"/>
<rect x="52" y="42" width="2" height="2" fill="black"/>
<rect width="2" height="2" transform="matrix(-1 0 0 1 56 32)" fill="black"/>
<rect width="2" height="2" transform="matrix(-1 0 0 1 6 32)" fill="black"/>
<rect width="2" height="2" transform="matrix(-1 0 0 1 56 34)" fill="black"/>
<rect width="2" height="2" transform="matrix(-1 0 0 1 6 34)" fill="black"/>
<rect width="2" height="2" transform="matrix(-1 0 0 1 56 36)" fill="black"/>
<rect width="2" height="2" transform="matrix(-1 0 0 1 6 36)" fill="black"/>
<rect x="54" y="28" width="2" height="2" fill="black"/>
<rect x="4" y="28" width="2" height="2" fill="black"/>
<rect x="54" y="30" width="2" height="2" fill="black"/>
<rect x="4" y="30" width="2" height="2" fill="black"/>
<rect x="54" y="38" width="2" height="2" fill="black"/>
<rect x="4" y="38" width="2" height="2" fill="black"/>
<rect x="54" y="40" width="2" height="2" fill="black"/>
<rect x="4" y="40" width="2" height="2" fill="black"/>
<rect width="2" height="2" transform="matrix(-1 0 0 1 12 20)" fill="black"/>
<rect width="2" height="2" transform="matrix(-1 0 0 1 12 18)" fill="black"/>
<rect width="2" height="2" transform="matrix(-1 0 0 1 12 16)" fill="black"/>
<rect width="2" height="2" transform="matrix(-1 0 0 1 12 14)" fill="black"/>
<rect width="2" height="2" transform="matrix(-1 0 0 1 12 12)" fill="black"/>
<rect width="2" height="2" transform="matrix(-1 0 0 1 14 10)" fill="black"/>
<rect width="2" height="2" transform="matrix(-1 0 0 1 16 8)" fill="black"/>
<rect width="2" height="2" transform="matrix(-1 0 0 1 18 8)" fill="black"/>
<rect width="2" height="2" transform="matrix(-1 0 0 1 20 6)" fill="black"/>
<rect width="2" height="2" transform="matrix(-1 0 0 1 22 6)" fill="black"/>
<rect width="2" height="2" transform="matrix(-1 0 0 1 24 6)" fill="black"/>
<rect width="2" height="2" transform="matrix(-1 0 0 1 26 6)" fill="black"/>
<rect width="2" height="2" transform="matrix(-1 0 0 1 28 8)" fill="black"/>
<rect width="2" height="2" transform="matrix(-1 0 0 1 30 8)" fill="black"/>
<rect width="2" height="2" transform="matrix(-1 0 0 1 32 10)" fill="black"/>
<rect width="2" height="2" transform="matrix(-1 0 0 1 34 10)" fill="black"/>
<rect width="2" height="2" transform="matrix(-1 0 0 1 36 12)" fill="black"/>
<rect width="2" height="2" transform="matrix(-1 0 0 1 38 14)" fill="black"/>
<rect width="2" height="2" transform="matrix(-1 0 0 1 42 16)" fill="black"/>
<rect width="2" height="2" transform="matrix(-1 0 0 1 40 14)" fill="black"/>
<rect width="2" height="2" transform="matrix(-1 0 0 1 44 16)" fill="black"/>
<rect width="2" height="2" transform="matrix(-1 0 0 1 48 18)" fill="black"/>
<rect width="2" height="2" transform="matrix(-1 0 0 1 46 18)" fill="black"/>
<rect width="2" height="2" transform="matrix(-1 0 0 1 50 20)" fill="black"/>
<rect width="2" height="2" transform="matrix(-1 0 0 1 52 22)" fill="black"/>
<rect width="2" height="2" transform="matrix(-1 0 0 1 54 24)" fill="black"/>
<rect width="2" height="2" transform="matrix(-1 0 0 1 54 26)" fill="black"/>
<rect width="2" height="2" transform="matrix(-1 0 0 1 10 22)" fill="black"/>
<rect width="2" height="2" transform="matrix(-1 0 0 1 8 24)" fill="black"/>
<rect width="2" height="2" transform="matrix(-1 0 0 1 8 26)" fill="black"/>
<rect x="16" y="48" width="2" height="2" fill="#375360"/>
<rect x="16" y="46" width="2" height="2" fill="#A5B5BD"/>
<rect x="18" y="48" width="2" height="2" fill="#375360"/>
<rect x="18" y="46" width="2" height="2" fill="#A5B5BD"/>
<rect x="20" y="46" width="2" height="2" fill="#546E7A"/>
<rect x="20" y="44" width="2" height="2" fill="#546E7A"/>
<rect x="18" y="44" width="2" height="2" fill="#80A5B7"/>
<rect x="16" y="44" width="2" height="2" fill="#546E7A"/>
<rect x="40" y="44" width="2" height="2" fill="#546E7A"/>
<rect x="42" y="44" width="2" height="2" fill="#546E7A"/>
<rect x="20" y="42" width="2" height="2" fill="#80A5B7"/>
<rect x="18" y="42" width="2" height="2" fill="#546E7A"/>
<rect x="16" y="42" width="2" height="2" fill="#80A5B7"/>
<rect x="40" y="42" width="2" height="2" fill="#546E7A"/>
<rect x="42" y="42" width="2" height="2" fill="#546E7A"/>
<rect x="44" y="42" width="2" height="2" fill="#546E7A"/>
<rect x="46" y="42" width="2" height="2" fill="#546E7A"/>
<rect x="14" y="42" width="2" height="2" fill="#546E7A"/>
<rect x="12" y="42" width="2" height="2" fill="#546E7A"/>
<rect x="20" y="40" width="2" height="2" fill="#546E7A"/>
<rect x="18" y="40" width="2" height="2" fill="#80A5B7"/>
<rect x="16" y="40" width="2" height="2" fill="#546E7A"/>
<rect x="40" y="40" width="2" height="2" fill="#546E7A"/>
<rect x="42" y="40" width="2" height="2" fill="#546E7A"/>
<rect x="44" y="40" width="2" height="2" fill="#80A5B7"/>
<rect x="46" y="40" width="2" height="2" fill="#546E7A"/>
<rect x="14" y="40" width="2" height="2" fill="#546E7A"/>
<rect x="12" y="40" width="2" height="2" fill="#80A5B7"/>
<rect x="10" y="40" width="2" height="2" fill="#546E7A"/>
<rect x="48" y="40" width="2" height="2" fill="#546E7A"/>
<rect x="20" y="38" width="2" height="2" fill="#546E7A"/>
<rect x="18" y="38" width="2" height="2" fill="#546E7A"/>
<rect x="16" y="38" width="2" height="2" fill="#546E7A"/>
<rect x="40" y="38" width="2" height="2" fill="#546E7A"/>
<rect x="42" y="38" width="2" height="2" fill="#80A5B7"/>
<rect x="44" y="38" width="2" height="2" fill="#375360"/>
<rect x="46" y="38" width="2" height="2" fill="#375360"/>
<rect x="14" y="38" width="2" height="2" fill="#80A5B7"/>
<rect x="12" y="38" width="2" height="2" fill="#546E7A"/>
<rect x="10" y="38" width="2" height="2" fill="#80A5B7"/>
<rect x="48" y="38" width="2" height="2" fill="#375360"/>
<rect x="50" y="38" width="2" height="2" fill="#546E7A"/>
<rect x="8" y="38" width="2" height="2" fill="#546E7A"/>
<rect x="20" y="36" width="2" height="2" fill="#546E7A"/>
<rect x="18" y="36" width="2" height="2" fill="#546E7A"/>
<rect x="16" y="36" width="2" height="2" fill="#546E7A"/>
<rect x="40" y="36" width="2" height="2" fill="#496471"/>
<rect x="42" y="36" width="2" height="2" fill="#375360"/>
<rect x="14" y="36" width="2" height="2" fill="#546E7A"/>
<rect x="12" y="36" width="2" height="2" fill="#80A5B7"/>
<rect x="10" y="36" width="2" height="2" fill="#546E7A"/>
<rect x="48" y="36" width="2" height="2" fill="#375360"/>
<rect x="50" y="36" width="2" height="2" fill="#546E7A"/>
<rect x="8" y="36" width="2" height="2" fill="#546E7A"/>
<rect x="6" y="36" width="2" height="2" fill="#80A5B7"/>
<rect x="52" y="36" width="2" height="2" fill="#80A5B7"/>
<rect x="20" y="34" width="2" height="2" fill="#546E7A"/>
<rect x="18" y="34" width="2" height="2" fill="#546E7A"/>
<rect x="16" y="34" width="2" height="2" fill="#546E7A"/>
<rect x="40" y="34" width="2" height="2" fill="#375360"/>
<rect x="14" y="34" width="2" height="2" fill="#546E7A"/>
<rect x="12" y="34" width="2" height="2" fill="#546E7A"/>
<rect x="10" y="34" width="2" height="2" fill="#546E7A"/>
<rect x="48" y="34" width="2" height="2" fill="#375360"/>
<rect x="50" y="34" width="2" height="2" fill="#375360"/>
<rect x="8" y="34" width="2" height="2" fill="#80A5B7"/>
<rect x="6" y="34" width="2" height="2" fill="#546E7A"/>
<rect x="52" y="34" width="2" height="2" fill="#546E7A"/>
<rect x="20" y="32" width="2" height="2" fill="#546E7A"/>
<rect x="18" y="32" width="2" height="2" fill="#546E7A"/>
<rect x="16" y="32" width="2" height="2" fill="#546E7A"/>
<rect x="40" y="32" width="2" height="2" fill="#375360"/>
<rect x="46" y="32" width="2" height="2" fill="#375360"/>
<rect x="14" y="32" width="2" height="2" fill="#546E7A"/>
<rect x="12" y="32" width="2" height="2" fill="#546E7A"/>
<rect x="10" y="32" width="2" height="2" fill="#546E7A"/>
<rect x="8" y="32" width="2" height="2" fill="#546E7A"/>
<rect x="6" y="32" width="2" height="2" fill="#80A5B7"/>
<rect x="52" y="32" width="2" height="2" fill="#546E7A"/>
<rect x="20" y="30" width="2" height="2" fill="#375360"/>
<rect x="18" y="30" width="2" height="2" fill="#375360"/>
<rect x="16" y="30" width="2" height="2" fill="#546E7A"/>
<rect x="44" y="30" width="2" height="2" fill="#375360"/>
<rect x="14" y="30" width="2" height="2" fill="#546E7A"/>
<rect x="12" y="30" width="2" height="2" fill="#546E7A"/>
<rect x="10" y="30" width="2" height="2" fill="#546E7A"/>
<rect x="8" y="30" width="2" height="2" fill="#546E7A"/>
<rect x="6" y="30" width="2" height="2" fill="#546E7A"/>
<rect x="52" y="30" width="2" height="2" fill="#546E7A"/>
<rect x="16" y="28" width="2" height="2" fill="#375360"/>
<rect x="14" y="28" width="2" height="2" fill="#546E7A"/>
<rect x="12" y="28" width="2" height="2" fill="#546E7A"/>
<rect x="10" y="28" width="2" height="2" fill="#546E7A"/>
<rect x="50" y="28" width="2" height="2" fill="#496471"/>
<rect x="8" y="28" width="2" height="2" fill="#80A5B7"/>
<rect x="6" y="28" width="2" height="2" fill="#546E7A"/>
<rect x="52" y="28" width="2" height="2" fill="#80A5B7"/>
<rect x="46" y="26" width="2" height="2" fill="#496471"/>
<rect x="14" y="26" width="2" height="2" fill="#375360"/>
<rect x="12" y="26" width="2" height="2" fill="#546E7A"/>
<rect x="10" y="26" width="2" height="2" fill="#80A5B7"/>
<rect x="48" y="26" width="2" height="2" fill="#496471"/>
<rect x="50" y="26" width="2" height="2" fill="#546E7A"/>
<rect x="8" y="26" width="2" height="2" fill="#546E7A"/>
<rect x="42" y="24" width="2" height="2" fill="#496471"/>
<rect x="44" y="24" width="2" height="2" fill="#496471"/>
<rect x="46" y="24" width="2" height="2" fill="#546E7A"/>
<rect x="12" y="24" width="2" height="2" fill="#375360"/>
<rect x="10" y="24" width="2" height="2" fill="#546E7A"/>
<rect x="48" y="24" width="2" height="2" fill="#546E7A"/>
<rect x="50" y="24" width="2" height="2" fill="#80A5B7"/>
<rect x="8" y="24" width="2" height="2" fill="#80A5B7"/>
<rect x="40" y="22" width="2" height="2" fill="#496471"/>
<rect x="42" y="22" width="2" height="2" fill="#546E7A"/>
<rect x="44" y="22" width="2" height="2" fill="#546E7A"/>
<rect x="46" y="22" width="2" height="2" fill="#546E7A"/>
<rect x="10" y="22" width="2" height="2" fill="#546E7A"/>
<rect x="48" y="22" width="2" height="2" fill="#546E7A"/>
<rect x="40" y="20" width="2" height="2" fill="#496471"/>
<rect x="42" y="20" width="2" height="2" fill="#546E7A"/>
<rect x="44" y="20" width="2" height="2" fill="#546E7A"/>
<rect x="46" y="20" width="2" height="2" fill="#80A5B7"/>
<rect x="40" y="18" width="2" height="2" fill="#80A5B7"/>
<rect x="42" y="18" width="2" height="2" fill="#546E7A"/>
<rect x="22" y="46" width="2" height="2" fill="#80A5B7"/>
<rect x="22" y="44" width="2" height="2" fill="#546E7A"/>
<rect x="22" y="36" width="2" height="2" fill="#546E7A"/>
<rect x="24" y="36" width="2" height="2" fill="#546E7A"/>
<rect x="22" y="38" width="2" height="2" fill="#546E7A"/>
<rect x="26" y="34" width="2" height="2" fill="#546E7A"/>
<rect x="28" y="34" width="2" height="2" fill="#496471"/>
<rect x="30" y="34" width="2" height="2" fill="#496471"/>
<rect x="22" y="34" width="2" height="2" fill="#546E7A"/>
<rect x="22" y="32" width="2" height="2" fill="#375360"/>
<rect x="24" y="46" width="2" height="2" fill="#546E7A"/>
<rect x="24" y="44" width="2" height="2" fill="#80A5B7"/>
<rect x="24" y="34" width="2" height="2" fill="#546E7A"/>
<rect x="24" y="32" width="2" height="2" fill="#375360"/>
<rect x="26" y="46" width="2" height="2" fill="#80A5B7"/>
<rect x="26" y="32" width="2" height="2" fill="#375360"/>
<rect x="28" y="46" width="2" height="2" fill="#546E7A"/>
<rect x="30" y="46" width="2" height="2" fill="#546E7A"/>
<rect x="32" y="46" width="2" height="2" fill="#546E7A"/>
<rect x="32" y="44" width="2" height="2" fill="#546E7A"/>
<rect x="32" y="36" width="2" height="2" fill="#546E7A"/>
<rect x="32" y="38" width="2" height="2" fill="#546E7A"/>
<rect x="32" y="34" width="2" height="2" fill="#375360"/>
<rect x="34" y="46" width="2" height="2" fill="#546E7A"/>
<rect x="34" y="44" width="2" height="2" fill="#546E7A"/>
<rect x="34" y="42" width="2" height="2" fill="#80A5B7"/>
<rect x="34" y="40" width="2" height="2" fill="#546E7A"/>
<rect x="34" y="38" width="2" height="2" fill="#546E7A"/>
<rect x="34" y="36" width="2" height="2" fill="#546E7A"/>
<rect x="34" y="34" width="2" height="2" fill="#375360"/>
<rect x="34" y="32" width="2" height="2" fill="#375360"/>
<rect x="36" y="46" width="2" height="2" fill="#546E7A"/>
<rect x="36" y="44" width="2" height="2" fill="#80A5B7"/>
<rect x="36" y="42" width="2" height="2" fill="#546E7A"/>
<rect x="36" y="40" width="2" height="2" fill="#80A5B7"/>
<rect x="36" y="38" width="2" height="2" fill="#546E7A"/>
<rect x="36" y="36" width="2" height="2" fill="#546E7A"/>
<rect x="36" y="34" width="2" height="2" fill="#496471"/>
<rect x="36" y="32" width="2" height="2" fill="#496471"/>
<rect x="36" y="30" width="2" height="2" fill="#375360"/>
<rect x="38" y="46" width="2" height="2" fill="#546E7A"/>
<rect x="38" y="44" width="2" height="2" fill="#546E7A"/>
<rect x="38" y="42" width="2" height="2" fill="#80A5B7"/>
<rect x="38" y="40" width="2" height="2" fill="#546E7A"/>
<rect x="38" y="38" width="2" height="2" fill="#546E7A"/>
<rect x="38" y="36" width="2" height="2" fill="#496471"/>
<rect x="38" y="34" width="2" height="2" fill="#496471"/>
<rect x="38" y="32" width="2" height="2" fill="#496471"/>
<rect x="38" y="30" width="2" height="2" fill="#375360"/>
<rect x="38" y="18" width="2" height="2" fill="#496471"/>
<rect x="38" y="16" width="2" height="2" fill="#80A5B7"/>
<rect x="20" y="50" width="2" height="2" fill="#375360"/>
<rect x="20" y="48" width="2" height="2" fill="#A5B5BD"/>
<rect x="24" y="50" width="2" height="2" fill="#375360"/>
<rect x="24" y="48" width="2" height="2" fill="#A5B5BD"/>
<rect x="28" y="50" width="2" height="2" fill="#375360"/>
<rect x="28" y="48" width="2" height="2" fill="#A5B5BD"/>
<rect x="32" y="50" width="2" height="2" fill="#375360"/>
<rect x="32" y="48" width="2" height="2" fill="#A5B5BD"/>
<rect x="36" y="50" width="2" height="2" fill="#375360"/>
<rect x="36" y="48" width="2" height="2" fill="#A5B5BD"/>
<rect x="40" y="48" width="2" height="2" fill="#375360"/>
<rect x="40" y="46" width="2" height="2" fill="#A5B5BD"/>
<rect x="44" y="46" width="2" height="2" fill="#375360"/>
<rect x="44" y="44" width="2" height="2" fill="#A5B5BD"/>
<rect x="12" y="46" width="2" height="2" fill="#375360"/>
<rect x="12" y="44" width="2" height="2" fill="#A5B5BD"/>
<rect x="10" y="44" width="2" height="2" fill="#375360"/>
<rect x="10" y="42" width="2" height="2" fill="#A5B5BD"/>
<rect x="8" y="42" width="2" height="2" fill="#375360"/>
<rect x="8" y="40" width="2" height="2" fill="#A5B5BD"/>
<rect x="6" y="40" width="2" height="2" fill="#375360"/>
<rect x="6" y="38" width="2" height="2" fill="#A5B5BD"/>
<rect x="22" y="50" width="2" height="2" fill="#375360"/>
<rect x="22" y="48" width="2" height="2" fill="#A5B5BD"/>
<rect x="26" y="50" width="2" height="2" fill="#375360"/>
<rect x="26" y="48" width="2" height="2" fill="#A5B5BD"/>
<rect x="30" y="50" width="2" height="2" fill="#375360"/>
<rect x="30" y="48" width="2" height="2" fill="#A5B5BD"/>
<rect x="34" y="50" width="2" height="2" fill="#375360"/>
<rect x="34" y="48" width="2" height="2" fill="#A5B5BD"/>
<rect x="38" y="50" width="2" height="2" fill="#375360"/>
<rect x="38" y="48" width="2" height="2" fill="#A5B5BD"/>
<rect x="42" y="48" width="2" height="2" fill="#375360"/>
<rect x="42" y="46" width="2" height="2" fill="#A5B5BD"/>
<rect x="46" y="46" width="2" height="2" fill="#375360"/>
<rect x="46" y="44" width="2" height="2" fill="#A5B5BD"/>
<rect x="48" y="44" width="2" height="2" fill="#375360"/>
<rect x="48" y="42" width="2" height="2" fill="#A5B5BD"/>
<rect x="50" y="42" width="2" height="2" fill="#375360"/>
<rect x="50" y="40" width="2" height="2" fill="#A5B5BD"/>
<rect x="52" y="40" width="2" height="2" fill="#375360"/>
<rect x="52" y="38" width="2" height="2" fill="#A5B5BD"/>
<rect x="14" y="46" width="2" height="2" fill="#375360"/>
<rect x="14" y="44" width="2" height="2" fill="#A5B5BD"/>
<rect width="2" height="2" transform="matrix(-1 0 0 1 50 30)" fill="#FF7300"/>
<rect width="2" height="2" transform="matrix(-1 0 0 1 48 30)" fill="#FF7300"/>
<rect width="2" height="2" transform="matrix(-1 0 0 1 42 28)" fill="#FF7300"/>
<rect width="2" height="2" transform="matrix(-1 0 0 1 40 20)" fill="#FF7300"/>
<rect width="2" height="2" transform="matrix(-1 0 0 1 38 22)" fill="#FF7300"/>
<rect width="2" height="2" transform="matrix(-1 0 0 1 36 22)" fill="#FF7300"/>
<rect width="2" height="2" transform="matrix(-1 0 0 1 38 20)" fill="#FF7300"/>
<rect width="2" height="2" transform="matrix(-1 0 0 1 38 18)" fill="#FF7300"/>
<rect width="2" height="2" transform="matrix(-1 0 0 1 36 14)" fill="#FF7300"/>
<rect width="2" height="2" transform="matrix(-1 0 0 1 36 24)" fill="#FF7300"/>
<rect width="2" height="2" transform="matrix(-1 0 0 1 34 22)" fill="#FF7300"/>
<rect width="2" height="2" transform="matrix(-1 0 0 1 32 22)" fill="#FF7300"/>
<rect width="2" height="2" transform="matrix(-1 0 0 1 24 22)" fill="#FF7300"/>
<rect width="2" height="2" transform="matrix(-1 0 0 1 22 22)" fill="#FF7300"/>
<rect width="2" height="2" transform="matrix(-1 0 0 1 26 20)" fill="#FF7300"/>
<rect width="2" height="2" transform="matrix(-1 0 0 1 24 20)" fill="#FF7300"/>
<rect width="2" height="2" transform="matrix(-1 0 0 1 34 18)" fill="#FF7300"/>
<rect width="2" height="2" transform="matrix(-1 0 0 1 32 18)" fill="#FF7300"/>
<rect width="2" height="2" transform="matrix(-1 0 0 1 28 18)" fill="#FF7300"/>
<rect width="2" height="2" transform="matrix(-1 0 0 1 26 18)" fill="#FF7300"/>
<rect width="2" height="2" transform="matrix(-1 0 0 1 18 18)" fill="#FF7300"/>
<rect width="2" height="2" transform="matrix(-1 0 0 1 16 18)" fill="#FF7300"/>
<rect width="2" height="2" transform="matrix(-1 0 0 1 32 16)" fill="#FF7300"/>
<rect width="2" height="2" transform="matrix(-1 0 0 1 30 16)" fill="#FF7300"/>
<rect width="2" height="2" transform="matrix(-1 0 0 1 28 16)" fill="#FF7300"/>
<rect width="2" height="2" transform="matrix(-1 0 0 1 20 16)" fill="#FF7300"/>
<rect width="2" height="2" transform="matrix(-1 0 0 1 18 16)" fill="#FF7300"/>
<rect width="2" height="2" transform="matrix(-1 0 0 1 34 14)" fill="#FF7300"/>
<rect width="2" height="2" transform="matrix(-1 0 0 1 32 14)" fill="#FF7300"/>
<rect width="2" height="2" transform="matrix(-1 0 0 1 24 14)" fill="#FF7300"/>
<rect width="2" height="2" transform="matrix(-1 0 0 1 22 14)" fill="#FF7300"/>
<rect width="2" height="2" transform="matrix(-1 0 0 1 20 14)" fill="#FF7300"/>
<rect width="2" height="2" transform="matrix(-1 0 0 1 14 14)" fill="#FF7300"/>
<rect width="2" height="2" transform="matrix(-1 0 0 1 34 12)" fill="#FF7300"/>
<rect width="2" height="2" transform="matrix(-1 0 0 1 24 12)" fill="#FF7300"/>
<rect width="2" height="2" transform="matrix(-1 0 0 1 20 12)" fill="#FF7300"/>
<rect width="2" height="2" transform="matrix(-1 0 0 1 18 12)" fill="#FF7300"/>
<rect width="2" height="2" transform="matrix(-1 0 0 1 16 12)" fill="#FF7300"/>
<rect width="2" height="2" transform="matrix(-1 0 0 1 14 12)" fill="#FF7300"/>
<rect width="2" height="2" transform="matrix(-1 0 0 1 28 10)" fill="#FF7300"/>
<rect width="2" height="2" transform="matrix(-1 0 0 1 26 10)" fill="#FF7300"/>
<rect width="2" height="2" transform="matrix(-1 0 0 1 20 10)" fill="#FF7300"/>
<rect width="2" height="2" transform="matrix(-1 0 0 1 18 10)" fill="#FF7300"/>
<rect width="2" height="2" transform="matrix(-1 0 0 1 16 10)" fill="#FF7300"/>
<rect width="2" height="2" transform="matrix(-1 0 0 1 22 8)" fill="#FF7300"/>
<rect width="2" height="2" transform="matrix(-1 0 0 1 20 8)" fill="#FF7300"/>
<rect width="2" height="2" transform="matrix(-1 0 0 1 32 24)" fill="#FF7300"/>
<rect width="2" height="2" transform="matrix(-1 0 0 1 30 24)" fill="#FF7300"/>
<rect width="2" height="2" transform="matrix(-1 0 0 1 28 24)" fill="#FF7300"/>
<rect width="2" height="2" transform="matrix(-1 0 0 1 26 24)" fill="#FF7300"/>
<rect width="2" height="2" transform="matrix(-1 0 0 1 36 26)" fill="#FF7300"/>
<rect width="2" height="2" transform="matrix(-1 0 0 1 30 26)" fill="#FF7300"/>
<rect width="2" height="2" transform="matrix(-1 0 0 1 50 28)" fill="#FF7300"/>
<rect width="2" height="2" transform="matrix(-1 0 0 1 44 26)" fill="#FF7300"/>
<rect width="2" height="2" transform="matrix(-1 0 0 1 46 32)" fill="#FF7300"/>
<rect width="2" height="2" transform="matrix(-1 0 0 1 24 24)" fill="#FF7300"/>
<rect width="2" height="2" transform="matrix(-1 0 0 1 22 24)" fill="#FF7300"/>
<rect width="2" height="2" transform="matrix(-1 0 0 1 20 22)" fill="#FF7300"/>
<rect width="2" height="2" transform="matrix(-1 0 0 1 52 30)" fill="#F10000"/>
<rect width="2" height="2" transform="matrix(-1 0 0 1 52 32)" fill="#F10000"/>
<rect width="2" height="2" transform="matrix(-1 0 0 1 50 32)" fill="#F10000"/>
<rect width="2" height="2" transform="matrix(-1 0 0 1 48 36)" fill="#F10000"/>
<rect width="2" height="2" transform="matrix(-1 0 0 1 46 36)" fill="#F10000"/>
<rect width="2" height="2" transform="matrix(-1 0 0 1 44 34)" fill="#F10000"/>
<rect width="2" height="2" transform="matrix(-1 0 0 1 40 28)" fill="#F10000"/>
<rect width="2" height="2" transform="matrix(-1 0 0 1 38 28)" fill="#F10000"/>
<rect width="2" height="2" transform="matrix(-1 0 0 1 48 34)" fill="#F10000"/>
<rect width="2" height="2" transform="matrix(-1 0 0 1 46 34)" fill="#F10000"/>
<rect width="2" height="2" transform="matrix(-1 0 0 1 44 32)" fill="#F10000"/>
<rect width="2" height="2" transform="matrix(-1 0 0 1 34 28)" fill="#F10000"/>
<rect width="2" height="2" transform="matrix(-1 0 0 1 36 28)" fill="#F10000"/>
<rect width="2" height="2" transform="matrix(-1 0 0 1 32 28)" fill="#F10000"/>
<rect width="2" height="2" transform="matrix(-1 0 0 1 28 26)" fill="#F10000"/>
<rect width="2" height="2" transform="matrix(-1 0 0 1 30 28)" fill="#F10000"/>
<rect width="2" height="2" transform="matrix(-1 0 0 1 26 26)" fill="#F10000"/>
<rect width="2" height="2" transform="matrix(-1 0 0 1 18 20)" fill="#F10000"/>
<rect width="2" height="2" transform="matrix(-1 0 0 1 14 18)" fill="#F10000"/>
<rect width="2" height="2" transform="matrix(-1 0 0 1 16 20)" fill="#F10000"/>
<rect width="2" height="2" transform="matrix(-1 0 0 1 40 26)" fill="#FF4D00"/>
<rect width="2" height="2" transform="matrix(-1 0 0 1 36 20)" fill="#FF4D00"/>
<rect width="2" height="2" transform="matrix(-1 0 0 1 30 22)" fill="#FF4D00"/>
<rect width="2" height="2" transform="matrix(-1 0 0 1 22 20)" fill="#FF4D00"/>
<rect width="2" height="2" transform="matrix(-1 0 0 1 24 18)" fill="#FF4D00"/>
<rect width="2" height="2" transform="matrix(-1 0 0 1 16 16)" fill="#FF4D00"/>
<rect width="2" height="2" transform="matrix(-1 0 0 1 30 14)" fill="#FF4D00"/>
<rect width="2" height="2" transform="matrix(-1 0 0 1 26 14)" fill="#FF4D00"/>
<rect width="2" height="2" transform="matrix(-1 0 0 1 18 14)" fill="#FF4D00"/>
<rect width="2" height="2" transform="matrix(-1 0 0 1 32 12)" fill="#FF4D00"/>
<rect width="2" height="2" transform="matrix(-1 0 0 1 22 12)" fill="#FF4D00"/>
<rect width="2" height="2" transform="matrix(-1 0 0 1 24 10)" fill="#FF4D00"/>
<rect width="2" height="2" transform="matrix(-1 0 0 1 44 30)" fill="#FF4D00"/>
<rect width="2" height="2" transform="matrix(-1 0 0 1 42 26)" fill="#FF4D00"/>
<rect width="2" height="2" transform="matrix(-1 0 0 1 48 28)" fill="#FF4D00"/>
<rect width="2" height="2" transform="matrix(-1 0 0 1 36 30)" fill="#FFEDF9"/>
<rect width="2" height="2" transform="matrix(-1 0 0 1 34 30)" fill="#FFEDF9"/>
<rect width="2" height="2" transform="matrix(-1 0 0 1 32 30)" fill="#FFEDF9"/>
<rect width="2" height="2" transform="matrix(-1 0 0 1 30 30)" fill="#FFEDF9"/>
<rect width="2" height="2" transform="matrix(-1 0 0 1 28 28)" fill="#FFEDF9"/>
<rect width="2" height="2" transform="matrix(-1 0 0 1 26 28)" fill="#FFEDF9"/>
<rect width="2" height="2" transform="matrix(-1 0 0 1 22 26)" fill="#FFEDF9"/>
<rect width="2" height="2" transform="matrix(-1 0 0 1 18 24)" fill="#FFEDF9"/>
<rect width="2" height="2" transform="matrix(-1 0 0 1 16 22)" fill="#FFEDF9"/>
<rect width="2" height="2" transform="matrix(-1 0 0 1 18 22)" fill="#FFEDF9"/>
<rect width="2" height="2" transform="matrix(-1 0 0 1 20 24)" fill="#FFEDF9"/>
<rect width="2" height="2" transform="matrix(-1 0 0 1 24 26)" fill="#FFEDF9"/>
<rect width="2" height="2" transform="matrix(-1 0 0 1 14 20)" fill="#FFEDF9"/>
<rect width="2" height="2" transform="matrix(-1 0 0 1 32 32)" fill="#FEFEFE"/>
<rect width="2" height="2" transform="matrix(-1 0 0 1 34 32)" fill="#FEFEFE"/>
<rect width="2" height="2" transform="matrix(-1 0 0 1 30 32)" fill="#FEFEFE"/>
<rect width="2" height="2" transform="matrix(-1 0 0 1 24 28)" fill="#FEFEFE"/>
<rect width="2" height="2" transform="matrix(-1 0 0 1 20 26)" fill="#FEFEFE"/>
<rect width="2" height="2" transform="matrix(-1 0 0 1 28 30)" fill="#FEFEFE"/>
<rect width="2" height="2" transform="matrix(-1 0 0 1 26 30)" fill="#FEFEFE"/>
<rect width="2" height="2" transform="matrix(-1 0 0 1 24 30)" fill="#FEFEFE"/>
<rect width="2" height="2" transform="matrix(-1 0 0 1 22 28)" fill="#FEFEFE"/>
<rect width="2" height="2" transform="matrix(-1 0 0 1 20 28)" fill="#FEFEFE"/>
<rect width="2" height="2" transform="matrix(-1 0 0 1 18 26)" fill="#FEFEFE"/>
<rect width="2" height="2" transform="matrix(-1 0 0 1 16 24)" fill="#FEFEFE"/>
<rect width="2" height="2" transform="matrix(-1 0 0 1 14 22)" fill="#FEFEFE"/>
<rect width="2" height="2" transform="matrix(-1 0 0 1 46 28)" fill="white"/>
<rect width="2" height="2" transform="matrix(-1 0 0 1 44 28)" fill="white"/>
<rect width="2" height="2" transform="matrix(-1 0 0 1 42 24)" fill="white"/>
<rect width="2" height="2" transform="matrix(-1 0 0 1 38 26)" fill="white"/>
<rect width="2" height="2" transform="matrix(-1 0 0 1 40 22)" fill="white"/>
<rect width="2" height="2" transform="matrix(-1 0 0 1 36 18)" fill="white"/>
<rect width="2" height="2" transform="matrix(-1 0 0 1 38 16)" fill="white"/>
<rect width="2" height="2" transform="matrix(-1 0 0 1 36 16)" fill="white"/>
<rect width="2" height="2" transform="matrix(-1 0 0 1 34 24)" fill="white"/>
<rect width="2" height="2" transform="matrix(-1 0 0 1 28 22)" fill="white"/>
<rect width="2" height="2" transform="matrix(-1 0 0 1 26 22)" fill="white"/>
<rect width="2" height="2" transform="matrix(-1 0 0 1 34 20)" fill="white"/>
<rect width="2" height="2" transform="matrix(-1 0 0 1 32 20)" fill="white"/>
<rect width="2" height="2" transform="matrix(-1 0 0 1 30 20)" fill="white"/>
<rect width="2" height="2" transform="matrix(-1 0 0 1 28 20)" fill="white"/>
<rect width="2" height="2" transform="matrix(-1 0 0 1 20 20)" fill="white"/>
<rect width="2" height="2" transform="matrix(-1 0 0 1 30 18)" fill="white"/>
<rect width="2" height="2" transform="matrix(-1 0 0 1 22 18)" fill="white"/>
<rect width="2" height="2" transform="matrix(-1 0 0 1 20 18)" fill="white"/>
<rect width="2" height="2" transform="matrix(-1 0 0 1 34 16)" fill="white"/>
<rect width="2" height="2" transform="matrix(-1 0 0 1 26 16)" fill="white"/>
<rect width="2" height="2" transform="matrix(-1 0 0 1 24 16)" fill="white"/>
<rect width="2" height="2" transform="matrix(-1 0 0 1 22 16)" fill="white"/>
<rect width="2" height="2" transform="matrix(-1 0 0 1 14 16)" fill="white"/>
<rect width="2" height="2" transform="matrix(-1 0 0 1 28 14)" fill="white"/>
<rect width="2" height="2" transform="matrix(-1 0 0 1 16 14)" fill="white"/>
<rect width="2" height="2" transform="matrix(-1 0 0 1 30 12)" fill="white"/>
<rect width="2" height="2" transform="matrix(-1 0 0 1 28 12)" fill="white"/>
<rect width="2" height="2" transform="matrix(-1 0 0 1 26 12)" fill="white"/>
<rect width="2" height="2" transform="matrix(-1 0 0 1 30 10)" fill="white"/>
<rect width="2" height="2" transform="matrix(-1 0 0 1 22 10)" fill="white"/>
<rect width="2" height="2" transform="matrix(-1 0 0 1 26 8)" fill="white"/>
<rect width="2" height="2" transform="matrix(-1 0 0 1 24 8)" fill="white"/>
<rect width="2" height="2" transform="matrix(-1 0 0 1 42 30)" fill="white"/>
<rect width="2" height="2" transform="matrix(-1 0 0 1 40 24)" fill="white"/>
<rect width="2" height="2" transform="matrix(-1 0 0 1 38 24)" fill="white"/>
<rect width="2" height="2" transform="matrix(-1 0 0 1 34 26)" fill="white"/>
<rect width="2" height="2" transform="matrix(-1 0 0 1 32 26)" fill="white"/>
<rect width="2" height="2" transform="matrix(-1 0 0 1 46 26)" fill="white"/>
<rect x="22" y="42" width="2" height="2" fill="#496471"/>
<rect x="26" y="44" width="2" height="2" fill="#496471"/>
<rect x="28" y="44" width="2" height="2" fill="#496471"/>
<rect x="30" y="44" width="2" height="2" fill="#496471"/>
<rect x="32" y="42" width="2" height="2" fill="#496471"/>
<rect width="2" height="2" transform="matrix(-1 0 0 1 28 36)" fill="#B0DB78"/>
<rect width="2" height="2" transform="matrix(-1 0 0 1 30 36)" fill="#B0DB78"/>
<rect width="2" height="2" transform="matrix(-1 0 0 1 32 36)" fill="#B0DB78"/>
<rect width="2" height="2" transform="matrix(-1 0 0 1 26 38)" fill="#B0DB78"/>
<rect width="2" height="2" transform="matrix(-1 0 0 1 28 38)" fill="#B0DB78"/>
<rect width="2" height="2" transform="matrix(-1 0 0 1 30 38)" fill="#B0DB78"/>
<rect width="2" height="2" transform="matrix(-1 0 0 1 28 40)" fill="#B0DB78"/>
<rect width="2" height="2" transform="matrix(-1 0 0 1 30 40)" fill="#B0DB78"/>
<rect width="2" height="2" transform="matrix(-1 0 0 1 32 40)" fill="#B0DB78"/>
<rect width="2" height="2" transform="matrix(-1 0 0 1 34 40)" fill="#B0DB78"/>
<rect width="2" height="2" transform="matrix(-1 0 0 1 32 42)" fill="#B0DB78"/>
<rect width="2" height="2" transform="matrix(-1 0 0 1 32 38)" fill="#92BC5B"/>
<rect width="2" height="2" transform="matrix(-1 0 0 1 26 40)" fill="#92BC5B"/>
<rect width="2" height="2" transform="matrix(-1 0 0 1 24 40)" fill="#92BC5B"/>
<rect width="2" height="2" transform="matrix(-1 0 0 1 30 42)" fill="#92BC5B"/>
<rect width="2" height="2" transform="matrix(-1 0 0 1 26 42)" fill="#92BC5B"/>
<rect width="2" height="2" transform="matrix(-1 0 0 1 28 42)" fill="#92BC5B"/>
<rect x="18" y="4" width="2" height="2" fill="#FFCBB8"/>
<rect x="18" y="2" width="2" height="2" fill="#FF7002"/>
<rect x="20" y="4" width="2" height="2" fill="#FFCBB8"/>
<rect x="20" y="2" width="2" height="2" fill="#FF7002"/>
<rect x="22" y="4" width="2" height="2" fill="#FFCBB8"/>
<rect x="22" y="2" width="2" height="2" fill="#FF7002"/>
<rect x="24" y="4" width="2" height="2" fill="#FFCBB8"/>
<rect x="24" y="2" width="2" height="2" fill="#FF7002"/>
<rect x="26" y="4" width="2" height="2" fill="#FFCBB8"/>
<rect x="26" y="2" width="2" height="2" fill="#FF7002"/>
<rect x="26" y="6" width="2" height="2" fill="#FFCBB8"/>
<rect x="30" y="8" width="2" height="2" fill="#FFCBB8"/>
<rect x="36" y="12" width="2" height="2" fill="#FFCBB8"/>
<rect x="40" y="14" width="2" height="2" fill="#FFCBB8"/>
<rect x="44" y="16" width="2" height="2" fill="#FFCBB8"/>
<rect x="28" y="6" width="2" height="2" fill="#FFCBB8"/>
<rect x="28" y="4" width="2" height="2" fill="#FF7002"/>
<rect x="32" y="8" width="2" height="2" fill="#FFCBB8"/>
<rect x="32" y="6" width="2" height="2" fill="#FF7002"/>
<rect x="38" y="12" width="2" height="2" fill="#FFCBB8"/>
<rect x="38" y="10" width="2" height="2" fill="#FF7002"/>
<rect x="42" y="14" width="2" height="2" fill="#FFCBB8"/>
<rect x="42" y="12" width="2" height="2" fill="#FF7002"/>
<rect x="46" y="16" width="2" height="2" fill="#FFCBB8"/>
<rect x="46" y="14" width="2" height="2" fill="#FF7002"/>
<rect x="48" y="18" width="2" height="2" fill="#FFCBB8"/>
<rect x="50" y="20" width="2" height="2" fill="#FFCBB8"/>
<rect x="52" y="22" width="2" height="2" fill="#FFCBB8"/>
<rect x="54" y="24" width="2" height="2" fill="#FFCBB8"/>
<rect x="56" y="24" width="2" height="2" fill="#FF7002"/>
<rect x="34" y="10" width="2" height="2" fill="#FFCBB8"/>
<rect x="30" y="6" width="2" height="2" fill="#FFCBB8"/>
<rect x="30" y="4" width="2" height="2" fill="#FF7002"/>
<rect x="34" y="8" width="2" height="2" fill="#FFCBB8"/>
<rect x="34" y="6" width="2" height="2" fill="#FF7002"/>
<rect x="40" y="12" width="2" height="2" fill="#FFCBB8"/>
<rect x="40" y="10" width="2" height="2" fill="#FF7002"/>
<rect x="44" y="14" width="2" height="2" fill="#FFCBB8"/>
<rect x="44" y="12" width="2" height="2" fill="#FF7002"/>
<rect x="48" y="16" width="2" height="2" fill="#FFCBB8"/>
<rect x="48" y="14" width="2" height="2" fill="#FF7002"/>
<rect x="50" y="18" width="2" height="2" fill="#FFCBB8"/>
<rect x="50" y="16" width="2" height="2" fill="#FF7002"/>
<rect x="52" y="20" width="2" height="2" fill="#FFCBB8"/>
<rect x="52" y="18" width="2" height="2" fill="#FF7002"/>
<rect x="54" y="22" width="2" height="2" fill="#FFCBB8"/>
<rect x="56" y="22" width="2" height="2" fill="#FF7002"/>
<rect x="54" y="20" width="2" height="2" fill="#FF7002"/>
<rect x="54" y="26" width="2" height="2" fill="#FFCBB8"/>
<rect x="56" y="26" width="2" height="2" fill="#FFCBB8"/>
<rect x="58" y="26" width="2" height="2" fill="#FF7002"/>
<rect x="56" y="28" width="2" height="2" fill="#FFCBB8"/>
<rect x="58" y="28" width="2" height="2" fill="#FF7002"/>
<rect x="56" y="30" width="2" height="2" fill="#FFCBB8"/>
<rect x="58" y="30" width="2" height="2" fill="#FF7002"/>
<rect x="56" y="32" width="2" height="2" fill="#FFCBB8"/>
<rect x="58" y="32" width="2" height="2" fill="#FF7002"/>
<rect x="56" y="34" width="2" height="2" fill="#FFCBB8"/>
<rect x="58" y="34" width="2" height="2" fill="#FF7002"/>
<rect x="56" y="36" width="2" height="2" fill="#FFCBB8"/>
<rect x="58" y="36" width="2" height="2" fill="#FF7002"/>
<rect x="56" y="38" width="2" height="2" fill="#FFCBB8"/>
<rect x="58" y="38" width="2" height="2" fill="#FF7002"/>
<rect x="56" y="40" width="2" height="2" fill="#FFCBB8"/>
<rect x="58" y="40" width="2" height="2" fill="#FF7002"/>
<rect x="56" y="42" width="2" height="2" fill="#FFCBB8"/>
<rect x="58" y="42" width="2" height="2" fill="#FF7002"/>
<rect x="54" y="42" width="2" height="2" fill="#FFCBB8"/>
<rect x="54" y="44" width="2" height="2" fill="#FFCBB8"/>
<rect x="56" y="44" width="2" height="2" fill="#FF7002"/>
<rect x="52" y="46" width="2" height="2" fill="#FFCBB8"/>
<rect x="54" y="46" width="2" height="2" fill="#FF7002"/>
<rect x="50" y="48" width="2" height="2" fill="#FFCBB8"/>
<rect x="52" y="48" width="2" height="2" fill="#FF7002"/>
<rect x="48" y="50" width="2" height="2" fill="#FFCBB8"/>
<rect x="48" y="52" width="2" height="2" fill="#FF7002"/>
<rect x="50" y="50" width="2" height="2" fill="#FF7002"/>
<rect x="44" y="52" width="2" height="2" fill="#FFCBB8"/>
<rect x="44" y="54" width="2" height="2" fill="#FF7002"/>
<rect x="40" y="54" width="2" height="2" fill="#FFCBB8"/>
<rect x="40" y="56" width="2" height="2" fill="#FF7002"/>
<rect x="52" y="44" width="2" height="2" fill="#FFCBB8"/>
<rect x="50" y="46" width="2" height="2" fill="#FFCBB8"/>
<rect x="48" y="48" width="2" height="2" fill="#FFCBB8"/>
<rect x="46" y="50" width="2" height="2" fill="#FFCBB8"/>
<rect x="46" y="52" width="2" height="2" fill="#FF7002"/>
<rect x="42" y="52" width="2" height="2" fill="#FFCBB8"/>
<rect x="42" y="54" width="2" height="2" fill="#FF7002"/>
<rect x="38" y="54" width="2" height="2" fill="#FFCBB8"/>
<rect x="38" y="56" width="2" height="2" fill="#FF7002"/>
<rect x="44" y="50" width="2" height="2" fill="#FFCBB8"/>
<rect x="40" y="52" width="2" height="2" fill="#FFCBB8"/>
<rect x="36" y="54" width="2" height="2" fill="#FFCBB8"/>
<rect x="36" y="56" width="2" height="2" fill="#FF7002"/>
<rect x="34" y="54" width="2" height="2" fill="#FFCBB8"/>
<rect x="34" y="56" width="2" height="2" fill="#FF7002"/>
<rect x="32" y="54" width="2" height="2" fill="#FFCBB8"/>
<rect x="32" y="56" width="2" height="2" fill="#FF7002"/>
<rect x="30" y="54" width="2" height="2" fill="#FFCBB8"/>
<rect x="30" y="56" width="2" height="2" fill="#FF7002"/>
<rect x="28" y="54" width="2" height="2" fill="#FFCBB8"/>
<rect x="28" y="56" width="2" height="2" fill="#FF7002"/>
<rect x="26" y="54" width="2" height="2" fill="#FFCBB8"/>
<rect x="26" y="56" width="2" height="2" fill="#FF7002"/>
<rect x="24" y="54" width="2" height="2" fill="#FFCBB8"/>
<rect x="24" y="56" width="2" height="2" fill="#FF7002"/>
<rect x="22" y="54" width="2" height="2" fill="#FFCBB8"/>
<rect x="22" y="56" width="2" height="2" fill="#FF7002"/>
<rect x="20" y="54" width="2" height="2" fill="#FFCBB8"/>
<rect x="20" y="56" width="2" height="2" fill="#FF7002"/>
<rect x="18" y="54" width="2" height="2" fill="#FFCBB8"/>
<rect x="18" y="56" width="2" height="2" fill="#FF7002"/>
<rect x="18" y="52" width="2" height="2" fill="#FFCBB8"/>
<rect x="14" y="50" width="2" height="2" fill="#FFCBB8"/>
<rect x="16" y="52" width="2" height="2" fill="#FFCBB8"/>
<rect x="16" y="54" width="2" height="2" fill="#FF7002"/>
<rect x="12" y="50" width="2" height="2" fill="#FFCBB8"/>
<rect x="12" y="52" width="2" height="2" fill="#FF7002"/>
<rect x="10" y="48" width="2" height="2" fill="#FFCBB8"/>
<rect x="8" y="46" width="2" height="2" fill="#FFCBB8"/>
<rect x="6" y="44" width="2" height="2" fill="#FFCBB8"/>
<rect x="4" y="42" width="2" height="2" fill="#FFCBB8"/>
<rect x="14" y="52" width="2" height="2" fill="#FFCBB8"/>
<rect x="14" y="54" width="2" height="2" fill="#FF7002"/>
<rect x="10" y="50" width="2" height="2" fill="#FFCBB8"/>
<rect x="10" y="52" width="2" height="2" fill="#FF7002"/>
<rect x="8" y="48" width="2" height="2" fill="#FFCBB8"/>
<rect x="8" y="50" width="2" height="2" fill="#FF7002"/>
<rect x="6" y="46" width="2" height="2" fill="#FFCBB8"/>
<rect x="6" y="48" width="2" height="2" fill="#FF7002"/>
<rect x="4" y="44" width="2" height="2" fill="#FFCBB8"/>
<rect x="4" y="46" width="2" height="2" fill="#FF7002"/>
<rect x="2" y="42" width="2" height="2" fill="#FFCBB8"/>
<rect y="42" width="2" height="2" fill="#FF7002"/>
<rect x="2" y="44" width="2" height="2" fill="#FF7002"/>
<rect x="2" y="40" width="2" height="2" fill="#FFCBB8"/>
<rect y="40" width="2" height="2" fill="#FF7002"/>
<rect x="2" y="38" width="2" height="2" fill="#FFCBB8"/>
<rect y="38" width="2" height="2" fill="#FF7002"/>
<rect x="2" y="36" width="2" height="2" fill="#FFCBB8"/>
<rect y="36" width="2" height="2" fill="#FF7002"/>
<rect x="2" y="34" width="2" height="2" fill="#FFCBB8"/>
<rect y="34" width="2" height="2" fill="#FF7002"/>
<rect x="2" y="32" width="2" height="2" fill="#FFCBB8"/>
<rect y="32" width="2" height="2" fill="#FF7002"/>
<rect x="2" y="30" width="2" height="2" fill="#FFCBB8"/>
<rect y="30" width="2" height="2" fill="#FF7002"/>
<rect x="2" y="28" width="2" height="2" fill="#FFCBB8"/>
<rect y="28" width="2" height="2" fill="#FF7002"/>
<rect x="2" y="26" width="2" height="2" fill="#FFCBB8"/>
<rect y="26" width="2" height="2" fill="#FF7002"/>
<rect x="4" y="26" width="2" height="2" fill="#FFCBB8"/>
<rect x="4" y="24" width="2" height="2" fill="#FFCBB8"/>
<rect x="2" y="24" width="2" height="2" fill="#FF7002"/>
<rect x="4" y="22" width="2" height="2" fill="#FFCBB8"/>
<rect x="2" y="22" width="2" height="2" fill="#FF7002"/>
<rect x="6" y="22" width="2" height="2" fill="#FFCBB8"/>
<rect x="6" y="20" width="2" height="2" fill="#FFCBB8"/>
<rect x="4" y="20" width="2" height="2" fill="#FF7002"/>
<rect x="8" y="20" width="2" height="2" fill="#FFCBB8"/>
<rect x="8" y="18" width="2" height="2" fill="#FFCBB8"/>
<rect x="6" y="18" width="2" height="2" fill="#FF7002"/>
<rect x="8" y="16" width="2" height="2" fill="#FFCBB8"/>
<rect x="6" y="16" width="2" height="2" fill="#FF7002"/>
<rect x="8" y="14" width="2" height="2" fill="#FFCBB8"/>
<rect x="6" y="14" width="2" height="2" fill="#FF7002"/>
<rect x="8" y="12" width="2" height="2" fill="#FFCBB8"/>
<rect x="6" y="12" width="2" height="2" fill="#FF7002"/>
<rect x="8" y="10" width="2" height="2" fill="#FFCBB8"/>
<rect x="6" y="10" width="2" height="2" fill="#FF7002"/>
<rect x="10" y="10" width="2" height="2" fill="#FFCBB8"/>
<rect x="10" y="8" width="2" height="2" fill="#FFCBB8"/>
<rect x="8" y="8" width="2" height="2" fill="#FF7002"/>
<rect x="12" y="8" width="2" height="2" fill="#FFCBB8"/>
<rect x="12" y="6" width="2" height="2" fill="#FFCBB8"/>
<rect x="12" y="4" width="2" height="2" fill="#FF7002"/>
<rect x="10" y="6" width="2" height="2" fill="#FF7002"/>
<rect x="14" y="6" width="2" height="2" fill="#FFCBB8"/>
<rect x="14" y="4" width="2" height="2" fill="#FF7002"/>
<rect x="16" y="6" width="2" height="2" fill="#FFCBB8"/>
<rect x="16" y="4" width="2" height="2" fill="#FFCBB8"/>
<rect x="16" y="2" width="2" height="2" fill="#FF7002"/>
<rect x="36" y="10" width="2" height="2" fill="#FFCBB8"/>
<rect x="36" y="8" width="2" height="2" fill="#FF7002"/>
</svg>
