<svg width="64" height="64" viewBox="0 0 64 64" fill="none" xmlns="http://www.w3.org/2000/svg">
<rect width="2.13333" height="2.13333" transform="matrix(-1 0 0 1 32 55.4666)" fill="black"/>
<rect width="2.13333" height="2.13333" transform="matrix(-1 0 0 1 29.8667 55.4666)" fill="black"/>
<rect width="2.13333" height="2.13333" transform="matrix(-1 0 0 1 27.7334 55.4666)" fill="black"/>
<rect width="2.13333" height="2.13333" transform="matrix(-1 0 0 1 25.6001 55.4666)" fill="black"/>
<rect width="2.13333" height="2.13333" transform="matrix(-1 0 0 1 23.4668 55.4666)" fill="black"/>
<rect width="2.13333" height="2.13334" transform="matrix(-1 0 0 1 21.3335 53.3333)" fill="black"/>
<rect width="2.13333" height="2.13334" transform="matrix(-1 0 0 1 19.1997 53.3333)" fill="black"/>
<rect width="2.13333" height="2.13333" transform="matrix(-1 0 0 1 17.0664 51.2)" fill="black"/>
<rect width="2.13333" height="2.13333" transform="matrix(-1 0 0 1 14.9331 51.2)" fill="black"/>
<rect width="2.13333" height="2.13333" transform="matrix(-1 0 0 1 10.6665 46.9333)" fill="black"/>
<rect width="2.13333" height="2.13334" transform="matrix(-1 0 0 1 12.7998 49.0667)" fill="black"/>
<rect width="2.13333" height="2.13334" transform="matrix(-1 0 0 1 8.5332 44.7998)" fill="black"/>
<rect x="32" y="55.4666" width="2.13334" height="2.13333" fill="black"/>
<rect x="34.1333" y="55.4666" width="2.13333" height="2.13333" fill="black"/>
<rect x="36.2666" y="55.4666" width="2.13334" height="2.13333" fill="black"/>
<rect x="38.3999" y="55.4666" width="2.13333" height="2.13333" fill="black"/>
<rect x="40.5332" y="55.4666" width="2.13334" height="2.13333" fill="black"/>
<rect x="42.6665" y="53.3333" width="2.13333" height="2.13334" fill="black"/>
<rect x="44.7998" y="53.3333" width="2.13334" height="2.13334" fill="black"/>
<rect x="46.9331" y="51.2" width="2.13333" height="2.13333" fill="black"/>
<rect x="49.0664" y="51.2" width="2.13334" height="2.13333" fill="black"/>
<rect x="53.3335" y="46.9333" width="2.13334" height="2.13333" fill="black"/>
<rect x="51.1997" y="49.0667" width="2.13333" height="2.13334" fill="black"/>
<rect x="55.4668" y="44.7998" width="2.13333" height="2.13334" fill="black"/>
<rect width="2.13334" height="2.13333" transform="matrix(-1 0 0 1 59.7334 34.1333)" fill="#B0B6B8"/>
<rect width="2.13333" height="2.13333" transform="matrix(-1 0 0 1 6.3999 34.1333)" fill="black"/>
<rect width="2.13334" height="2.13334" transform="matrix(-1 0 0 1 59.7334 36.2666)" fill="#B0B6B8"/>
<rect width="2.13333" height="2.13334" transform="matrix(-1 0 0 1 6.3999 36.2666)" fill="black"/>
<rect width="2.13334" height="2.13333" transform="matrix(-1 0 0 1 59.7334 38.3999)" fill="black"/>
<rect width="2.13333" height="2.13333" transform="matrix(-1 0 0 1 6.3999 38.3999)" fill="black"/>
<rect x="57.6001" y="29.8665" width="2.13334" height="2.13333" fill="black"/>
<rect x="4.2666" y="29.8665" width="2.13333" height="2.13333" fill="black"/>
<rect x="57.6001" y="32" width="2.13334" height="2.13334" fill="#B0B6B8"/>
<rect x="59.7334" y="32" width="2.13333" height="2.13334" fill="black"/>
<rect x="59.7334" y="34.1333" width="2.13333" height="2.13333" fill="black"/>
<rect x="59.7334" y="36.2666" width="2.13333" height="2.13334" fill="black"/>
<rect x="4.2666" y="32" width="2.13333" height="2.13334" fill="black"/>
<rect x="57.6001" y="40.5332" width="2.13334" height="2.13334" fill="black"/>
<rect x="4.2666" y="40.5332" width="2.13333" height="2.13334" fill="black"/>
<rect x="57.6001" y="42.6665" width="2.13334" height="2.13333" fill="black"/>
<rect x="4.2666" y="42.6665" width="2.13333" height="2.13333" fill="black"/>
<rect width="2.13333" height="2.13333" transform="matrix(-1 0 0 1 12.7998 21.3333)" fill="black"/>
<rect width="2.13333" height="2.13333" transform="matrix(-1 0 0 1 14.9331 19.2)" fill="black"/>
<rect width="2.13333" height="2.13333" transform="matrix(-1 0 0 1 19.1997 17.0667)" fill="black"/>
<rect width="2.13333" height="2.13333" transform="matrix(-1 0 0 1 23.4668 14.9333)" fill="#525859"/>
<rect width="2.13333" height="2.13333" transform="matrix(-1 0 0 1 21.3335 14.9333)" fill="black"/>
<rect width="2.13333" height="2.13333" transform="matrix(-1 0 0 1 29.8667 14.9333)" fill="black"/>
<rect width="2.13333" height="2.13333" transform="matrix(-1 0 0 1 32 14.9333)" fill="black"/>
<rect width="2.13334" height="2.13333" transform="matrix(-1 0 0 1 34.1333 14.9333)" fill="black"/>
<rect width="2.13333" height="2.13333" transform="matrix(-1 0 0 1 32 6.3999)" fill="black"/>
<rect width="2.13333" height="2.13333" transform="matrix(-1 0 0 1 32 8.5332)" fill="#F5F5F5"/>
<rect width="2.13333" height="2.13333" transform="matrix(-1 0 0 1 32 10.6665)" fill="#DEE2E3"/>
<rect width="2.13333" height="2.13333" transform="matrix(-1 0 0 1 29.8667 10.6665)" fill="#F5F5F5"/>
<rect width="2.13333" height="2.13333" transform="matrix(-1 0 0 1 32 12.7998)" fill="#B0B6B8"/>
<rect width="2.13333" height="2.13333" transform="matrix(-1 0 0 1 29.8667 12.7998)" fill="#B0B6B8"/>
<rect width="2.13334" height="2.13333" transform="matrix(-1 0 0 1 34.1333 8.5332)" fill="#F5F5F5"/>
<rect width="2.13334" height="2.13333" transform="matrix(-1 0 0 1 34.1333 10.6665)" fill="#DEE2E3"/>
<rect width="2.13333" height="2.13333" transform="matrix(-1 0 0 1 36.2666 10.6665)" fill="#B0B6B8"/>
<rect width="2.13334" height="2.13333" transform="matrix(-1 0 0 1 34.1333 12.7998)" fill="#B0B6B8"/>
<rect width="2.13333" height="2.13333" transform="matrix(-1 0 0 1 36.2666 12.7998)" fill="#B0B6B8"/>
<rect width="2.13333" height="2.13333" transform="matrix(-1 0 0 1 36.2666 14.9333)" fill="black"/>
<rect width="2.13333" height="2.13333" transform="matrix(-1 0 0 1 36.2666 8.5332)" fill="black"/>
<rect width="2.13334" height="2.13333" transform="matrix(-1 0 0 1 38.3999 10.6665)" fill="black"/>
<rect width="2.13334" height="2.13333" transform="matrix(-1 0 0 1 38.3999 12.7998)" fill="black"/>
<rect width="2.13333" height="2.13333" transform="matrix(-1 0 0 1 40.5332 12.7998)" fill="#525859"/>
<rect width="2.13333" height="2.13333" transform="matrix(-1 0 0 1 40.5332 10.6665)" fill="black"/>
<rect width="2.13333" height="2.13333" transform="matrix(-1 0 0 1 44.7998 14.9333)" fill="black"/>
<rect width="2.13333" height="2.13333" transform="matrix(-1 0 0 1 17.0664 19.2)" fill="black"/>
<rect width="2.13333" height="2.13333" transform="matrix(-1 0 0 1 21.3335 17.0667)" fill="#525859"/>
<rect width="2.13333" height="2.13333" transform="matrix(-1 0 0 1 25.6001 12.7998)" fill="#525859"/>
<rect width="2.13333" height="2.13333" transform="matrix(-1 0 0 1 25.6001 10.6665)" fill="black"/>
<rect width="2.13333" height="2.13333" transform="matrix(-1 0 0 1 23.4668 12.7998)" fill="black"/>
<rect width="2.13333" height="2.13333" transform="matrix(-1 0 0 1 29.8667 8.5332)" fill="black"/>
<rect width="2.13333" height="2.13333" transform="matrix(-1 0 0 1 27.7334 10.6665)" fill="black"/>
<rect width="2.13333" height="2.13333" transform="matrix(-1 0 0 1 27.7334 12.7998)" fill="black"/>
<rect width="2.13334" height="2.13333" transform="matrix(-1 0 0 1 34.1333 6.3999)" fill="black"/>
<rect width="2.13334" height="2.13333" transform="matrix(-1 0 0 1 42.6665 14.9333)" fill="#525859"/>
<rect width="2.13334" height="2.13333" transform="matrix(-1 0 0 1 42.6665 12.7998)" fill="black"/>
<rect width="2.13334" height="2.13333" transform="matrix(-1 0 0 1 46.9331 17.0667)" fill="black"/>
<rect width="2.13334" height="2.13333" transform="matrix(-1 0 0 1 51.1997 19.2)" fill="black"/>
<rect width="2.13333" height="2.13333" transform="matrix(-1 0 0 1 49.0664 19.2)" fill="black"/>
<rect width="2.13333" height="2.13333" transform="matrix(-1 0 0 1 53.3335 21.3333)" fill="black"/>
<rect width="2.13334" height="2.13333" transform="matrix(-1 0 0 1 55.4668 23.4666)" fill="black"/>
<rect width="2.13333" height="2.13333" transform="matrix(-1 0 0 1 57.6001 25.5999)" fill="black"/>
<rect width="2.13333" height="2.13333" transform="matrix(-1 0 0 1 57.6001 27.7332)" fill="black"/>
<rect width="2.13333" height="2.13333" transform="matrix(-1 0 0 1 10.6665 23.4666)" fill="black"/>
<rect width="2.13333" height="2.13333" transform="matrix(-1 0 0 1 8.5332 25.5999)" fill="black"/>
<rect width="2.13333" height="2.13333" transform="matrix(-1 0 0 1 8.5332 27.7332)" fill="black"/>
<rect x="17.0664" y="51.2" width="2.13333" height="2.13333" fill="#B8BDBE"/>
<rect x="17.0664" y="49.0667" width="2.13333" height="2.13334" fill="#FFFAF3"/>
<rect x="19.1997" y="51.2" width="2.13333" height="2.13333" fill="#B8BDBE"/>
<rect x="19.1997" y="49.0667" width="2.13333" height="2.13334" fill="#FFFAF3"/>
<rect x="21.3335" y="49.0667" width="2.13333" height="2.13334" fill="#DEE2E3"/>
<rect x="21.3335" y="46.9333" width="2.13333" height="2.13333" fill="#DEE2E3"/>
<rect x="19.1997" y="46.9333" width="2.13333" height="2.13333" fill="#DEE2E3"/>
<rect x="17.0664" y="46.9333" width="2.13333" height="2.13333" fill="#DEE2E3"/>
<rect x="42.6665" y="46.9333" width="2.13333" height="2.13333" fill="#444444"/>
<rect x="44.7998" y="46.9333" width="2.13334" height="2.13333" fill="#B8BDBE"/>
<rect x="21.3335" y="44.7998" width="2.13333" height="2.13334" fill="#B8BDBE"/>
<rect x="19.1997" y="44.7998" width="2.13333" height="2.13334" fill="#DEE2E3"/>
<rect x="17.0664" y="44.7998" width="2.13333" height="2.13334" fill="#DEE2E3"/>
<rect x="42.6665" y="44.7998" width="2.13333" height="2.13334" fill="#B0B6B8"/>
<rect x="44.7998" y="44.7998" width="2.13334" height="2.13334" fill="#444444"/>
<rect x="46.9331" y="44.7998" width="2.13333" height="2.13334" fill="#B8BDBE"/>
<rect x="49.0664" y="44.7998" width="2.13334" height="2.13334" fill="#B8BDBE"/>
<rect x="14.9331" y="44.7998" width="2.13333" height="2.13334" fill="#DEE2E3"/>
<rect x="12.7998" y="44.7998" width="2.13333" height="2.13334" fill="#DEE2E3"/>
<rect x="21.3335" y="42.6665" width="2.13333" height="2.13333" fill="#525859"/>
<rect x="19.1997" y="42.6665" width="2.13333" height="2.13333" fill="#B8BDBE"/>
<rect x="17.0664" y="42.6665" width="2.13333" height="2.13333" fill="#B8BDBE"/>
<rect x="42.6665" y="42.6665" width="2.13333" height="2.13333" fill="#DEE2E3"/>
<rect x="44.7998" y="42.6665" width="2.13334" height="2.13333" fill="#B0B6B8"/>
<rect x="46.9331" y="42.6665" width="2.13333" height="2.13333" fill="#444444"/>
<rect x="49.0664" y="42.6665" width="2.13334" height="2.13333" fill="#444444"/>
<rect x="14.9331" y="42.6665" width="2.13333" height="2.13333" fill="#DEE2E3"/>
<rect x="12.7998" y="42.6665" width="2.13333" height="2.13333" fill="#DEE2E3"/>
<rect x="10.6665" y="42.6665" width="2.13333" height="2.13333" fill="#DEE2E3"/>
<rect x="51.1997" y="42.6665" width="2.13333" height="2.13333" fill="#B8BDBE"/>
<rect x="21.3335" y="40.5332" width="2.13333" height="2.13334" fill="#828687"/>
<rect x="19.1997" y="40.5332" width="2.13333" height="2.13334" fill="#525859"/>
<rect x="17.0664" y="40.5332" width="2.13333" height="2.13334" fill="#525859"/>
<rect x="42.6665" y="40.5332" width="2.13333" height="2.13334" fill="#444444"/>
<rect x="44.7998" y="40.5332" width="2.13334" height="2.13334" fill="#F5F5F5"/>
<rect x="46.9331" y="40.5332" width="2.13333" height="2.13334" fill="#B0B6B8"/>
<rect x="49.0664" y="40.5332" width="2.13334" height="2.13334" fill="#B0B6B8"/>
<rect x="14.9331" y="40.5332" width="2.13333" height="2.13334" fill="#B8BDBE"/>
<rect x="12.7998" y="40.5332" width="2.13333" height="2.13334" fill="#B8BDBE"/>
<rect x="10.6665" y="40.5332" width="2.13333" height="2.13334" fill="#DEE2E3"/>
<rect x="51.1997" y="40.5332" width="2.13333" height="2.13334" fill="#444444"/>
<rect x="53.3335" y="40.5332" width="2.13334" height="2.13334" fill="#444444"/>
<rect x="8.5332" y="40.5332" width="2.13333" height="2.13334" fill="#DEE2E3"/>
<rect x="21.3335" y="38.3999" width="2.13333" height="2.13333" fill="#DEE2E3"/>
<rect x="19.1997" y="38.3999" width="2.13333" height="2.13333" fill="#DEE2E3"/>
<rect x="17.0664" y="38.3999" width="2.13333" height="2.13333" fill="#F5F5F5"/>
<rect x="42.6665" y="38.3999" width="2.13333" height="2.13333" fill="#B0B6B8"/>
<rect x="44.7998" y="38.3999" width="2.13334" height="2.13333" fill="#444444"/>
<rect x="46.9331" y="38.3999" width="2.13333" height="2.13333" fill="#F5F5F5"/>
<rect x="49.0664" y="38.3999" width="2.13334" height="2.13333" fill="#DEE2E3"/>
<rect x="14.9331" y="38.3999" width="2.13333" height="2.13333" fill="#525859"/>
<rect x="12.7998" y="38.3999" width="2.13333" height="2.13333" fill="#525859"/>
<rect x="10.6665" y="38.3999" width="2.13333" height="2.13333" fill="#B8BDBE"/>
<rect x="51.1997" y="38.3999" width="2.13333" height="2.13333" fill="#B0B6B8"/>
<rect x="53.3335" y="38.3999" width="2.13334" height="2.13333" fill="#B0B6B8"/>
<rect x="8.5332" y="38.3999" width="2.13333" height="2.13333" fill="#DEE2E3"/>
<rect x="6.3999" y="38.3999" width="2.13333" height="2.13333" fill="#DEE2E3"/>
<rect x="55.4668" y="38.3999" width="2.13333" height="2.13333" fill="#444444"/>
<rect x="21.3335" y="36.2666" width="2.13333" height="2.13334" fill="#DEE2E3"/>
<rect x="19.1997" y="36.2666" width="2.13333" height="2.13334" fill="#DEE2E3"/>
<rect x="17.0664" y="36.2666" width="2.13333" height="2.13334" fill="#F5F5F5"/>
<rect x="42.6665" y="36.2666" width="2.13333" height="2.13334" fill="#DEE2E3"/>
<rect x="44.7998" y="36.2666" width="2.13334" height="2.13334" fill="#B0B6B8"/>
<rect x="46.9331" y="36.2666" width="2.13333" height="2.13334" fill="#444444"/>
<rect x="49.0664" y="36.2666" width="2.13334" height="2.13334" fill="#F5F5F5"/>
<rect x="14.9331" y="36.2666" width="2.13333" height="2.13334" fill="#F5F5F5"/>
<rect x="12.7998" y="36.2666" width="2.13333" height="2.13334" fill="#828687"/>
<rect x="10.6665" y="36.2666" width="2.13333" height="2.13334" fill="#525859"/>
<rect x="51.1997" y="36.2666" width="2.13333" height="2.13334" fill="#DEE2E3"/>
<rect x="53.3335" y="36.2666" width="2.13334" height="2.13334" fill="#DEE2E3"/>
<rect x="8.5332" y="36.2666" width="2.13333" height="2.13334" fill="#DEE2E3"/>
<rect x="6.3999" y="36.2666" width="2.13333" height="2.13334" fill="#DEE2E3"/>
<rect x="55.4668" y="36.2666" width="2.13333" height="2.13334" fill="#B0B6B8"/>
<rect x="21.3335" y="34.1333" width="2.13333" height="2.13333" fill="#DEE2E3"/>
<rect x="19.1997" y="34.1333" width="2.13333" height="2.13333" fill="#DEE2E3"/>
<rect x="17.0664" y="34.1333" width="2.13333" height="2.13333" fill="#F5F5F5"/>
<rect x="42.6665" y="34.1333" width="2.13333" height="2.13333" fill="#DEE2E3"/>
<rect x="44.7998" y="34.1333" width="2.13334" height="2.13333" fill="#B0B6B8"/>
<rect x="46.9331" y="34.1333" width="2.13333" height="2.13333" fill="#B0B6B8"/>
<rect x="49.0664" y="34.1333" width="2.13334" height="2.13333" fill="#444444"/>
<rect x="14.9331" y="34.1333" width="2.13333" height="2.13333" fill="#F5F5F5"/>
<rect x="12.7998" y="34.1333" width="2.13333" height="2.13333" fill="#828687"/>
<rect x="10.6665" y="34.1333" width="2.13333" height="2.13333" fill="#525859"/>
<rect x="51.1997" y="34.1333" width="2.13333" height="2.13333" fill="#F5F5F5"/>
<rect x="53.3335" y="34.1333" width="2.13334" height="2.13333" fill="#DEE2E3"/>
<rect x="8.5332" y="34.1333" width="2.13333" height="2.13333" fill="#DEE2E3"/>
<rect x="6.3999" y="34.1333" width="2.13333" height="2.13333" fill="#DEE2E3"/>
<rect x="55.4668" y="34.1333" width="2.13333" height="2.13333" fill="#DEE2E3"/>
<rect x="21.3335" y="32" width="2.13333" height="2.13334" fill="#DEE2E3"/>
<rect x="19.1997" y="32" width="2.13333" height="2.13334" fill="#DEE2E3"/>
<rect x="17.0664" y="32" width="2.13333" height="2.13334" fill="#F5F5F5"/>
<rect x="42.6665" y="32" width="2.13333" height="2.13334" fill="#DEE2E3"/>
<rect x="44.7998" y="32" width="2.13334" height="2.13334" fill="#B0B6B8"/>
<rect x="46.9331" y="32" width="2.13333" height="2.13334" fill="#B0B6B8"/>
<rect x="49.0664" y="32" width="2.13334" height="2.13334" fill="#828687"/>
<rect x="14.9331" y="32" width="2.13333" height="2.13334" fill="#F5F5F5"/>
<rect x="12.7998" y="32" width="2.13333" height="2.13334" fill="#828687"/>
<rect x="10.6665" y="32" width="2.13333" height="2.13334" fill="#525859"/>
<rect x="51.1997" y="32" width="2.13333" height="2.13334" fill="#444444"/>
<rect x="53.3335" y="32" width="2.13334" height="2.13334" fill="#F5F5F5"/>
<rect x="8.5332" y="32" width="2.13333" height="2.13334" fill="#DEE2E3"/>
<rect x="6.3999" y="32" width="2.13333" height="2.13334" fill="#DEE2E3"/>
<rect x="55.4668" y="32" width="2.13333" height="2.13334" fill="#F5F5F5"/>
<rect x="21.3335" y="29.8665" width="2.13333" height="2.13333" fill="#DEE2E3"/>
<rect x="19.1997" y="29.8665" width="2.13333" height="2.13333" fill="#DEE2E3"/>
<rect x="17.0664" y="29.8665" width="2.13333" height="2.13333" fill="#F5F5F5"/>
<rect x="42.6665" y="29.8665" width="2.13333" height="2.13333" fill="#DEE2E3"/>
<rect x="44.7998" y="29.8665" width="2.13334" height="2.13333" fill="#B0B6B8"/>
<rect x="46.9331" y="29.8665" width="2.13333" height="2.13333" fill="#B0B6B8"/>
<rect x="49.0664" y="29.8665" width="2.13334" height="2.13333" fill="#828687"/>
<rect x="14.9331" y="29.8665" width="2.13333" height="2.13333" fill="#F5F5F5"/>
<rect x="12.7998" y="29.8665" width="2.13333" height="2.13333" fill="#828687"/>
<rect x="10.6665" y="29.8665" width="2.13333" height="2.13333" fill="#525859"/>
<rect x="51.1997" y="29.8665" width="2.13333" height="2.13333" fill="#525859"/>
<rect x="53.3335" y="29.8665" width="2.13334" height="2.13333" fill="#444444"/>
<rect x="8.5332" y="29.8665" width="2.13333" height="2.13333" fill="#DEE2E3"/>
<rect x="6.3999" y="29.8665" width="2.13333" height="2.13333" fill="#DEE2E3"/>
<rect x="55.4668" y="29.8665" width="2.13333" height="2.13333" fill="#444444"/>
<rect x="21.3335" y="27.7332" width="2.13333" height="2.13333" fill="#DEE2E3"/>
<rect x="19.1997" y="27.7332" width="2.13333" height="2.13333" fill="#F5F5F5"/>
<rect x="17.0664" y="27.7332" width="2.13333" height="2.13333" fill="#F5F5F5"/>
<rect x="42.6665" y="27.7332" width="2.13333" height="2.13333" fill="#B0B6B8"/>
<rect x="44.7998" y="27.7332" width="2.13334" height="2.13333" fill="#B0B6B8"/>
<rect x="46.9331" y="27.7332" width="2.13333" height="2.13333" fill="#828687"/>
<rect x="49.0664" y="27.7332" width="2.13334" height="2.13333" fill="#525859"/>
<rect x="14.9331" y="27.7332" width="2.13333" height="2.13333" fill="#828687"/>
<rect x="12.7998" y="27.7332" width="2.13333" height="2.13333" fill="#525859"/>
<rect x="10.6665" y="27.7332" width="2.13333" height="2.13333" fill="#DEE2E3"/>
<rect x="51.1997" y="27.7332" width="2.13333" height="2.13333" fill="#B8BDBE"/>
<rect x="53.3335" y="27.7332" width="2.13334" height="2.13333" fill="#B8BDBE"/>
<rect x="8.5332" y="27.7332" width="2.13333" height="2.13333" fill="#DEE2E3"/>
<rect x="21.3335" y="25.5999" width="2.13333" height="2.13333" fill="#DEE2E3"/>
<rect x="19.1997" y="25.5999" width="2.13333" height="2.13333" fill="#F5F5F5"/>
<rect x="17.0664" y="25.5999" width="2.13333" height="2.13333" fill="#F5F5F5"/>
<rect x="42.6665" y="25.5999" width="2.13333" height="2.13333" fill="#B0B6B8"/>
<rect x="44.7998" y="25.5999" width="2.13334" height="2.13333" fill="#B0B6B8"/>
<rect x="46.9331" y="25.5999" width="2.13333" height="2.13333" fill="#828687"/>
<rect x="49.0664" y="25.5999" width="2.13334" height="2.13333" fill="#525859"/>
<rect x="14.9331" y="25.5999" width="2.13333" height="2.13333" fill="#828687"/>
<rect x="12.7998" y="25.5999" width="2.13333" height="2.13333" fill="#525859"/>
<rect x="10.6665" y="25.5999" width="2.13333" height="2.13333" fill="#DEE2E3"/>
<rect x="51.1997" y="25.5999" width="2.13333" height="2.13333" fill="#B8BDBE"/>
<rect x="53.3335" y="25.5999" width="2.13334" height="2.13333" fill="#B8BDBE"/>
<rect x="8.5332" y="25.5999" width="2.13333" height="2.13333" fill="#DEE2E3"/>
<rect x="21.3335" y="23.4666" width="2.13333" height="2.13333" fill="#F5F5F5"/>
<rect x="19.1997" y="23.4666" width="2.13333" height="2.13333" fill="#F5F5F5"/>
<rect x="17.0664" y="23.4666" width="2.13333" height="2.13333" fill="#828687"/>
<rect x="42.6665" y="23.4666" width="2.13333" height="2.13333" fill="#B0B6B8"/>
<rect x="44.7998" y="23.4666" width="2.13334" height="2.13333" fill="#828687"/>
<rect x="46.9331" y="23.4666" width="2.13333" height="2.13333" fill="#525859"/>
<rect x="49.0664" y="23.4666" width="2.13334" height="2.13333" fill="#B8BDBE"/>
<rect x="14.9331" y="23.4666" width="2.13333" height="2.13333" fill="#525859"/>
<rect x="12.7998" y="23.4666" width="2.13333" height="2.13333" fill="#DEE2E3"/>
<rect x="10.6665" y="23.4666" width="2.13333" height="2.13333" fill="#DEE2E3"/>
<rect x="51.1997" y="23.4666" width="2.13333" height="2.13333" fill="#B8BDBE"/>
<rect x="21.3335" y="21.3333" width="2.13333" height="2.13333" fill="#F5F5F5"/>
<rect x="19.1997" y="21.3333" width="2.13333" height="2.13333" fill="#F5F5F5"/>
<rect x="17.0664" y="21.3333" width="2.13333" height="2.13333" fill="#828687"/>
<rect x="42.6665" y="21.3333" width="2.13333" height="2.13333" fill="#B0B6B8"/>
<rect x="44.7998" y="21.3333" width="2.13334" height="2.13333" fill="#828687"/>
<rect x="46.9331" y="21.3333" width="2.13333" height="2.13333" fill="#525859"/>
<rect x="49.0664" y="21.3333" width="2.13334" height="2.13333" fill="#B8BDBE"/>
<rect x="14.9331" y="21.3333" width="2.13333" height="2.13333" fill="#525859"/>
<rect x="12.7998" y="21.3333" width="2.13333" height="2.13333" fill="#DEE2E3"/>
<rect x="21.3335" y="19.2" width="2.13333" height="2.13333" fill="#F5F5F5"/>
<rect x="19.1997" y="19.2" width="2.13333" height="2.13333" fill="#828687"/>
<rect x="17.0664" y="19.2" width="2.13333" height="2.13333" fill="#525859"/>
<rect x="42.6665" y="19.2" width="2.13333" height="2.13333" fill="#828687"/>
<rect x="44.7998" y="19.2" width="2.13334" height="2.13333" fill="#525859"/>
<rect x="21.3335" y="17.0667" width="2.13333" height="2.13333" fill="#828687"/>
<rect x="23.4668" y="49.0667" width="2.13333" height="2.13334" fill="#DEE2E3"/>
<rect x="23.4668" y="46.9333" width="2.13333" height="2.13333" fill="#DEE2E3"/>
<rect x="23.4668" y="44.7998" width="2.13333" height="2.13334" fill="#B8BDBE"/>
<rect x="23.4668" y="42.6665" width="2.13333" height="2.13333" fill="#525859"/>
<rect x="23.4668" y="40.5332" width="2.13333" height="2.13334" fill="#828687"/>
<rect x="23.4668" y="38.3999" width="2.13333" height="2.13333" fill="#DEE2E3"/>
<rect x="23.4668" y="36.2666" width="2.13333" height="2.13334" fill="#DEE2E3"/>
<rect x="23.4668" y="34.1333" width="2.13333" height="2.13333" fill="#DEE2E3"/>
<rect x="23.4668" y="32" width="2.13333" height="2.13334" fill="#DEE2E3"/>
<rect x="23.4668" y="29.8665" width="2.13333" height="2.13333" fill="#DEE2E3"/>
<rect x="23.4668" y="27.7332" width="2.13333" height="2.13333" fill="#DEE2E3"/>
<rect x="23.4668" y="25.5999" width="2.13333" height="2.13333" fill="#DEE2E3"/>
<rect x="23.4668" y="23.4666" width="2.13333" height="2.13333" fill="#DEE2E3"/>
<rect x="23.4668" y="21.3333" width="2.13333" height="2.13333" fill="#DEE2E3"/>
<rect x="23.4668" y="19.2" width="2.13333" height="2.13333" fill="#F5F5F5"/>
<rect x="23.4668" y="17.0667" width="2.13333" height="2.13333" fill="#F5F5F5"/>
<rect x="23.4668" y="14.9333" width="2.13333" height="2.13333" fill="#828687"/>
<rect x="25.6001" y="49.0667" width="2.13333" height="2.13334" fill="#DEE2E3"/>
<rect x="25.6001" y="46.9333" width="2.13333" height="2.13333" fill="#B8BDBE"/>
<rect x="25.6001" y="44.7998" width="2.13333" height="2.13334" fill="#525859"/>
<rect x="25.6001" y="42.6665" width="2.13333" height="2.13333" fill="#828687"/>
<rect x="25.6001" y="40.5332" width="2.13333" height="2.13334" fill="#B0B6B8"/>
<rect x="25.6001" y="38.3999" width="2.13333" height="2.13333" fill="#DEE2E3"/>
<rect x="25.6001" y="36.2666" width="2.13333" height="2.13334" fill="#DEE2E3"/>
<rect x="25.6001" y="34.1333" width="2.13333" height="2.13333" fill="#DEE2E3"/>
<rect x="25.6001" y="32" width="2.13333" height="2.13334" fill="#DEE2E3"/>
<rect x="25.6001" y="29.8665" width="2.13333" height="2.13333" fill="#DEE2E3"/>
<rect x="25.6001" y="27.7332" width="2.13333" height="2.13333" fill="#DEE2E3"/>
<rect x="25.6001" y="25.5999" width="2.13333" height="2.13333" fill="#DEE2E3"/>
<rect x="25.6001" y="23.4666" width="2.13333" height="2.13333" fill="#DEE2E3"/>
<rect x="25.6001" y="21.3333" width="2.13333" height="2.13333" fill="#DEE2E3"/>
<rect x="25.6001" y="19.2" width="2.13333" height="2.13333" fill="#DEE2E3"/>
<rect x="25.6001" y="17.0667" width="2.13333" height="2.13333" fill="#F5F5F5"/>
<rect x="25.6001" y="14.9333" width="2.13333" height="2.13333" fill="#F5F5F5"/>
<rect x="27.7334" y="49.0667" width="2.13333" height="2.13334" fill="#DEE2E3"/>
<rect x="27.7334" y="46.9333" width="2.13333" height="2.13333" fill="#B8BDBE"/>
<rect x="27.7334" y="44.7998" width="2.13333" height="2.13334" fill="#525859"/>
<rect x="27.7334" y="42.6665" width="2.13333" height="2.13333" fill="#828687"/>
<rect x="27.7334" y="40.5332" width="2.13333" height="2.13334" fill="#B0B6B8"/>
<rect x="27.7334" y="38.3999" width="2.13333" height="2.13333" fill="#DEE2E3"/>
<rect x="27.7334" y="36.2666" width="2.13333" height="2.13334" fill="#DEE2E3"/>
<rect x="27.7334" y="34.1333" width="2.13333" height="2.13333" fill="#DEE2E3"/>
<rect x="27.7334" y="32" width="2.13333" height="2.13334" fill="#DEE2E3"/>
<rect x="27.7334" y="29.8665" width="2.13333" height="2.13333" fill="#DEE2E3"/>
<rect x="27.7334" y="27.7332" width="2.13333" height="2.13333" fill="#DEE2E3"/>
<rect x="27.7334" y="25.5999" width="2.13333" height="2.13333" fill="#DEE2E3"/>
<rect x="27.7334" y="23.4666" width="2.13333" height="2.13333" fill="#DEE2E3"/>
<rect x="27.7334" y="21.3333" width="2.13333" height="2.13333" fill="#DEE2E3"/>
<rect x="27.7334" y="19.2" width="2.13333" height="2.13333" fill="#DEE2E3"/>
<rect x="27.7334" y="17.0667" width="2.13333" height="2.13333" fill="#B0B6B8"/>
<rect x="29.8667" y="49.0667" width="2.13333" height="2.13334" fill="#444444"/>
<rect x="29.8667" y="46.9333" width="2.13333" height="2.13333" fill="#B8BDBE"/>
<rect x="29.8667" y="44.7998" width="2.13333" height="2.13334" fill="#525859"/>
<rect x="29.8667" y="42.6665" width="2.13333" height="2.13333" fill="#828687"/>
<rect x="29.8667" y="40.5332" width="2.13333" height="2.13334" fill="#B0B6B8"/>
<rect x="29.8667" y="38.3999" width="2.13333" height="2.13333" fill="#DEE2E3"/>
<rect x="29.8667" y="36.2666" width="2.13333" height="2.13334" fill="#DEE2E3"/>
<rect x="29.8667" y="34.1333" width="2.13333" height="2.13333" fill="#DEE2E3"/>
<rect x="29.8667" y="32" width="2.13333" height="2.13334" fill="#DEE2E3"/>
<rect x="29.8667" y="29.8665" width="2.13333" height="2.13333" fill="#DEE2E3"/>
<rect x="29.8667" y="27.7332" width="2.13333" height="2.13333" fill="#DEE2E3"/>
<rect x="29.8667" y="25.5999" width="2.13333" height="2.13333" fill="#DEE2E3"/>
<rect x="29.8667" y="23.4666" width="2.13333" height="2.13333" fill="#DEE2E3"/>
<rect x="29.8667" y="21.3333" width="2.13333" height="2.13333" fill="#DEE2E3"/>
<rect x="29.8667" y="19.2" width="2.13333" height="2.13333" fill="#DEE2E3"/>
<rect x="29.8667" y="17.0667" width="2.13333" height="2.13333" fill="#B0B6B8"/>
<rect x="32" y="49.0667" width="2.13334" height="2.13334" fill="#444444"/>
<rect x="32" y="46.9333" width="2.13334" height="2.13333" fill="#B8BDBE"/>
<rect x="32" y="44.7998" width="2.13334" height="2.13334" fill="#525859"/>
<rect x="32" y="42.6665" width="2.13334" height="2.13333" fill="#828687"/>
<rect x="32" y="40.5332" width="2.13334" height="2.13334" fill="#B0B6B8"/>
<rect x="32" y="38.3999" width="2.13334" height="2.13333" fill="#DEE2E3"/>
<rect x="32" y="36.2666" width="2.13334" height="2.13334" fill="#DEE2E3"/>
<rect x="32" y="34.1333" width="2.13334" height="2.13333" fill="#DEE2E3"/>
<rect x="32" y="32" width="2.13334" height="2.13334" fill="#DEE2E3"/>
<rect x="32" y="29.8665" width="2.13334" height="2.13333" fill="#DEE2E3"/>
<rect x="32" y="27.7332" width="2.13334" height="2.13333" fill="#DEE2E3"/>
<rect x="32" y="25.5999" width="2.13334" height="2.13333" fill="#DEE2E3"/>
<rect x="32" y="23.4666" width="2.13334" height="2.13333" fill="#F5F5F5"/>
<rect x="32" y="21.3333" width="2.13334" height="2.13333" fill="#F5F5F5"/>
<rect x="32" y="19.2" width="2.13334" height="2.13333" fill="#F5F5F5"/>
<rect x="32" y="17.0667" width="2.13334" height="2.13333" fill="#DEE2E3"/>
<rect x="34.1333" y="49.0667" width="2.13333" height="2.13334" fill="#F5F5F5"/>
<rect x="34.1333" y="46.9333" width="2.13333" height="2.13333" fill="#444444"/>
<rect x="34.1333" y="44.7998" width="2.13333" height="2.13334" fill="#525859"/>
<rect x="34.1333" y="42.6665" width="2.13333" height="2.13333" fill="#828687"/>
<rect x="34.1333" y="40.5332" width="2.13333" height="2.13334" fill="#B0B6B8"/>
<rect x="34.1333" y="38.3999" width="2.13333" height="2.13333" fill="#F5F5F5"/>
<rect x="34.1333" y="36.2666" width="2.13333" height="2.13334" fill="#F5F5F5"/>
<rect x="34.1333" y="34.1333" width="2.13333" height="2.13333" fill="#F5F5F5"/>
<rect x="34.1333" y="32" width="2.13333" height="2.13334" fill="#F5F5F5"/>
<rect x="34.1333" y="29.8665" width="2.13333" height="2.13333" fill="#F5F5F5"/>
<rect x="34.1333" y="27.7332" width="2.13333" height="2.13333" fill="#F5F5F5"/>
<rect x="34.1333" y="25.5999" width="2.13333" height="2.13333" fill="#F5F5F5"/>
<rect x="34.1333" y="23.4666" width="2.13333" height="2.13333" fill="#F5F5F5"/>
<rect x="34.1333" y="21.3333" width="2.13333" height="2.13333" fill="#F5F5F5"/>
<rect x="34.1333" y="19.2" width="2.13333" height="2.13333" fill="#F5F5F5"/>
<rect x="34.1333" y="17.0667" width="2.13333" height="2.13333" fill="#DEE2E3"/>
<rect x="36.2666" y="49.0667" width="2.13334" height="2.13334" fill="#F5F5F5"/>
<rect x="36.2666" y="46.9333" width="2.13334" height="2.13333" fill="#444444"/>
<rect x="36.2666" y="44.7998" width="2.13334" height="2.13334" fill="#525859"/>
<rect x="36.2666" y="42.6665" width="2.13334" height="2.13333" fill="#828687"/>
<rect x="36.2666" y="40.5332" width="2.13334" height="2.13334" fill="#B0B6B8"/>
<rect x="36.2666" y="38.3999" width="2.13334" height="2.13333" fill="#F5F5F5"/>
<rect x="36.2666" y="36.2666" width="2.13334" height="2.13334" fill="#F5F5F5"/>
<rect x="36.2666" y="34.1333" width="2.13334" height="2.13333" fill="#F5F5F5"/>
<rect x="36.2666" y="32" width="2.13334" height="2.13334" fill="#F5F5F5"/>
<rect x="36.2666" y="29.8665" width="2.13334" height="2.13333" fill="#F5F5F5"/>
<rect x="36.2666" y="27.7332" width="2.13334" height="2.13333" fill="#F5F5F5"/>
<rect x="36.2666" y="25.5999" width="2.13334" height="2.13333" fill="#F5F5F5"/>
<rect x="36.2666" y="23.4666" width="2.13334" height="2.13333" fill="#DEE2E3"/>
<rect x="36.2666" y="21.3333" width="2.13334" height="2.13333" fill="#DEE2E3"/>
<rect x="36.2666" y="19.2" width="2.13334" height="2.13333" fill="#DEE2E3"/>
<rect x="36.2666" y="17.0667" width="2.13334" height="2.13333" fill="#B0B6B8"/>
<rect x="36.2666" y="14.9333" width="2.13334" height="2.13333" fill="#B0B6B8"/>
<rect x="38.3999" y="49.0667" width="2.13333" height="2.13334" fill="#B0B6B8"/>
<rect x="38.3999" y="46.9333" width="2.13333" height="2.13333" fill="#F5F5F5"/>
<rect x="38.3999" y="44.7998" width="2.13333" height="2.13334" fill="#444444"/>
<rect x="38.3999" y="42.6665" width="2.13333" height="2.13333" fill="#525859"/>
<rect x="38.3999" y="40.5332" width="2.13333" height="2.13334" fill="#828687"/>
<rect x="38.3999" y="38.3999" width="2.13333" height="2.13333" fill="#F5F5F5"/>
<rect x="38.3999" y="36.2666" width="2.13333" height="2.13334" fill="#F5F5F5"/>
<rect x="38.3999" y="34.1333" width="2.13333" height="2.13333" fill="#F5F5F5"/>
<rect x="38.3999" y="32" width="2.13333" height="2.13334" fill="#DEE2E3"/>
<rect x="38.3999" y="29.8665" width="2.13333" height="2.13333" fill="#DEE2E3"/>
<rect x="38.3999" y="27.7332" width="2.13333" height="2.13333" fill="#DEE2E3"/>
<rect x="38.3999" y="25.5999" width="2.13333" height="2.13333" fill="#DEE2E3"/>
<rect x="38.3999" y="23.4666" width="2.13333" height="2.13333" fill="#DEE2E3"/>
<rect x="38.3999" y="21.3333" width="2.13333" height="2.13333" fill="#DEE2E3"/>
<rect x="38.3999" y="19.2" width="2.13333" height="2.13333" fill="#B0B6B8"/>
<rect x="38.3999" y="17.0667" width="2.13333" height="2.13333" fill="#B0B6B8"/>
<rect x="38.3999" y="14.9333" width="2.13333" height="2.13333" fill="#828687"/>
<rect x="40.5332" y="49.0667" width="2.13334" height="2.13334" fill="#444444"/>
<rect x="40.5332" y="46.9333" width="2.13334" height="2.13333" fill="#B0B6B8"/>
<rect x="40.5332" y="44.7998" width="2.13334" height="2.13334" fill="#DEE2E3"/>
<rect x="40.5332" y="42.6665" width="2.13334" height="2.13333" fill="#444444"/>
<rect x="40.5332" y="40.5332" width="2.13334" height="2.13334" fill="#828687"/>
<rect x="40.5332" y="38.3999" width="2.13334" height="2.13333" fill="#DEE2E3"/>
<rect x="40.5332" y="36.2666" width="2.13334" height="2.13334" fill="#DEE2E3"/>
<rect x="40.5332" y="34.1333" width="2.13334" height="2.13333" fill="#DEE2E3"/>
<rect x="40.5332" y="32" width="2.13334" height="2.13334" fill="#DEE2E3"/>
<rect x="40.5332" y="29.8665" width="2.13334" height="2.13333" fill="#DEE2E3"/>
<rect x="40.5332" y="27.7332" width="2.13334" height="2.13333" fill="#DEE2E3"/>
<rect x="40.5332" y="25.5999" width="2.13334" height="2.13333" fill="#DEE2E3"/>
<rect x="40.5332" y="23.4666" width="2.13334" height="2.13333" fill="#B0B6B8"/>
<rect x="40.5332" y="21.3333" width="2.13334" height="2.13333" fill="#B0B6B8"/>
<rect x="40.5332" y="19.2" width="2.13334" height="2.13333" fill="#B0B6B8"/>
<rect x="40.5332" y="17.0667" width="2.13334" height="2.13333" fill="#828687"/>
<rect x="42.6665" y="17.0667" width="2.13333" height="2.13333" fill="#525859"/>
<rect x="21.3335" y="53.3333" width="2.13333" height="2.13334" fill="#B8BDBE"/>
<rect x="21.3335" y="51.2" width="2.13333" height="2.13333" fill="#FFFAF3"/>
<rect x="25.6001" y="53.3333" width="2.13333" height="2.13334" fill="#B8BDBE"/>
<rect x="25.6001" y="51.2" width="2.13333" height="2.13333" fill="#FFFAF3"/>
<rect x="29.8667" y="53.3333" width="2.13333" height="2.13334" fill="#444444"/>
<rect x="29.8667" y="51.2" width="2.13333" height="2.13333" fill="#F5F5F5"/>
<rect x="34.1333" y="53.3333" width="2.13333" height="2.13334" fill="#444444"/>
<rect x="34.1333" y="51.2" width="2.13333" height="2.13333" fill="#B0B6B8"/>
<rect x="38.3999" y="53.3333" width="2.13333" height="2.13334" fill="#B8BDBE"/>
<rect x="38.3999" y="51.2" width="2.13333" height="2.13333" fill="#444444"/>
<rect x="42.6665" y="51.2" width="2.13333" height="2.13333" fill="#B8BDBE"/>
<rect x="42.6665" y="49.0667" width="2.13333" height="2.13334" fill="#B8BDBE"/>
<rect x="46.9331" y="49.0667" width="2.13333" height="2.13334" fill="#B8BDBE"/>
<rect x="46.9331" y="46.9333" width="2.13333" height="2.13333" fill="#FFFAF3"/>
<rect x="12.7998" y="49.0667" width="2.13333" height="2.13334" fill="#B8BDBE"/>
<rect x="12.7998" y="46.9333" width="2.13333" height="2.13333" fill="#FFFAF3"/>
<rect x="10.6665" y="46.9333" width="2.13333" height="2.13333" fill="#B8BDBE"/>
<rect x="10.6665" y="44.7998" width="2.13333" height="2.13334" fill="#FFFAF3"/>
<rect x="8.5332" y="44.7998" width="2.13333" height="2.13334" fill="#B8BDBE"/>
<rect x="8.5332" y="42.6665" width="2.13333" height="2.13333" fill="#FFFAF3"/>
<rect x="6.3999" y="42.6665" width="2.13333" height="2.13333" fill="#B8BDBE"/>
<rect x="6.3999" y="40.5332" width="2.13333" height="2.13334" fill="#FFFAF3"/>
<rect x="23.4668" y="53.3333" width="2.13333" height="2.13334" fill="#B8BDBE"/>
<rect x="23.4668" y="51.2" width="2.13333" height="2.13333" fill="#FFFAF3"/>
<rect x="27.7334" y="53.3333" width="2.13333" height="2.13334" fill="#B8BDBE"/>
<rect x="27.7334" y="51.2" width="2.13333" height="2.13333" fill="#444444"/>
<rect x="32" y="53.3333" width="2.13334" height="2.13334" fill="#444444"/>
<rect x="32" y="51.2" width="2.13334" height="2.13333" fill="#F5F5F5"/>
<rect x="36.2666" y="53.3333" width="2.13334" height="2.13334" fill="#B8BDBE"/>
<rect x="36.2666" y="51.2" width="2.13334" height="2.13333" fill="#444444"/>
<rect x="40.5332" y="53.3333" width="2.13334" height="2.13334" fill="#B8BDBE"/>
<rect x="40.5332" y="51.2" width="2.13334" height="2.13333" fill="#B8BDBE"/>
<rect x="44.7998" y="51.2" width="2.13334" height="2.13333" fill="#B8BDBE"/>
<rect x="44.7998" y="49.0667" width="2.13334" height="2.13334" fill="#FFFAF3"/>
<rect x="49.0664" y="49.0667" width="2.13334" height="2.13334" fill="#B8BDBE"/>
<rect x="49.0664" y="46.9333" width="2.13334" height="2.13333" fill="#FFFAF3"/>
<rect x="51.1997" y="46.9333" width="2.13333" height="2.13333" fill="#B8BDBE"/>
<rect x="51.1997" y="44.7998" width="2.13333" height="2.13334" fill="#FFFAF3"/>
<rect x="53.3335" y="44.7998" width="2.13334" height="2.13334" fill="#B8BDBE"/>
<rect x="53.3335" y="42.6665" width="2.13334" height="2.13333" fill="#FFFAF3"/>
<rect x="55.4668" y="42.6665" width="2.13333" height="2.13333" fill="#B8BDBE"/>
<rect x="55.4668" y="40.5332" width="2.13333" height="2.13334" fill="#FFFAF3"/>
<rect x="14.9331" y="49.0667" width="2.13333" height="2.13334" fill="#B8BDBE"/>
<rect x="14.9331" y="46.9333" width="2.13333" height="2.13333" fill="#FFFAF3"/>
<rect x="29.8667" y="4.2666" width="2.13333" height="2.13333" fill="white"/>
<rect x="29.8667" y="2.1333" width="2.13333" height="2.13333" fill="#B0BEC5"/>
<rect x="32" y="4.2666" width="2.13334" height="2.13333" fill="white"/>
<rect x="32" y="2.1333" width="2.13334" height="2.13333" fill="#B0BEC5"/>
<rect x="34.1333" y="4.2666" width="2.13333" height="2.13333" fill="white"/>
<rect x="34.1333" y="2.1333" width="2.13333" height="2.13333" fill="#B0BEC5"/>
<rect x="34.1333" y="6.3999" width="2.13333" height="2.13333" fill="white"/>
<rect x="36.2666" y="8.53345" width="2.13334" height="2.13333" fill="white"/>
<rect x="36.2666" y="6.3999" width="2.13334" height="2.13333" fill="white"/>
<rect x="36.2666" y="4.2666" width="2.13334" height="2.13333" fill="#B0BEC5"/>
<rect x="38.3999" y="8.53345" width="2.13333" height="2.13333" fill="white"/>
<rect x="38.3999" y="6.3999" width="2.13333" height="2.13333" fill="#B0BEC5"/>
<rect x="40.5332" y="8.53345" width="2.13334" height="2.13333" fill="white"/>
<rect x="40.5332" y="6.3999" width="2.13334" height="2.13333" fill="#B0BEC5"/>
<rect x="40.5332" y="10.6667" width="2.13334" height="2.13333" fill="white"/>
<rect x="42.6665" y="12.8" width="2.13333" height="2.13333" fill="white"/>
<rect x="44.7998" y="14.9333" width="2.13334" height="2.13333" fill="white"/>
<rect x="46.9331" y="17.0667" width="2.13333" height="2.13333" fill="white"/>
<rect x="42.6665" y="10.6667" width="2.13333" height="2.13333" fill="white"/>
<rect x="42.6665" y="8.53345" width="2.13333" height="2.13333" fill="#B0BEC5"/>
<rect x="44.7998" y="12.8" width="2.13334" height="2.13333" fill="white"/>
<rect x="44.7998" y="10.6667" width="2.13334" height="2.13333" fill="#B0BEC5"/>
<rect x="46.9331" y="14.9333" width="2.13333" height="2.13333" fill="white"/>
<rect x="46.9331" y="12.8" width="2.13333" height="2.13333" fill="#B0BEC5"/>
<rect x="49.0669" y="17.0667" width="2.13334" height="2.13333" fill="white"/>
<rect x="49.0669" y="14.9333" width="2.13334" height="2.13333" fill="#B0BEC5"/>
<rect x="51.2002" y="19.2" width="2.13333" height="2.13333" fill="white"/>
<rect x="53.3335" y="21.3333" width="2.13334" height="2.13333" fill="white"/>
<rect x="55.4668" y="23.4666" width="2.13333" height="2.13333" fill="white"/>
<rect x="51.2002" y="17.0667" width="2.13333" height="2.13333" fill="white"/>
<rect x="51.2002" y="14.9333" width="2.13333" height="2.13333" fill="#B0BEC5"/>
<rect x="53.3335" y="19.2" width="2.13334" height="2.13333" fill="white"/>
<rect x="53.3335" y="17.0667" width="2.13334" height="2.13333" fill="#B0BEC5"/>
<rect x="55.4668" y="21.3333" width="2.13333" height="2.13333" fill="white"/>
<rect x="55.4668" y="19.2" width="2.13333" height="2.13333" fill="#B0BEC5"/>
<rect x="57.6001" y="23.4666" width="2.13334" height="2.13333" fill="white"/>
<rect x="57.6001" y="21.3333" width="2.13334" height="2.13333" fill="#B0BEC5"/>
<rect x="57.6001" y="25.6001" width="2.13334" height="2.13333" fill="white"/>
<rect x="57.6001" y="27.7334" width="2.13334" height="2.13333" fill="white"/>
<rect x="59.7334" y="29.8667" width="2.13333" height="2.13333" fill="white"/>
<rect x="59.7334" y="27.7334" width="2.13333" height="2.13333" fill="white"/>
<rect x="59.7334" y="25.6001" width="2.13333" height="2.13333" fill="#B0BEC5"/>
<rect x="61.8667" y="29.8667" width="2.13334" height="2.13333" fill="white"/>
<rect x="61.8667" y="27.7334" width="2.13334" height="2.13333" fill="#B0BEC5"/>
<rect x="61.8667" y="32" width="2.13334" height="2.13334" fill="white"/>
<rect x="61.8667" y="34.1333" width="2.13334" height="2.13333" fill="white"/>
<rect x="61.8667" y="36.2666" width="2.13334" height="2.13334" fill="white"/>
<rect x="61.8667" y="38.3999" width="2.13334" height="2.13333" fill="white"/>
<rect x="59.7334" y="38.3999" width="2.13333" height="2.13333" fill="white"/>
<rect x="59.7334" y="40.5334" width="2.13333" height="2.13334" fill="white"/>
<rect x="59.7334" y="42.6667" width="2.13333" height="2.13333" fill="white"/>
<rect x="59.7334" y="44.8" width="2.13333" height="2.13334" fill="white"/>
<rect x="57.6001" y="46.9333" width="2.13334" height="2.13333" fill="white"/>
<rect x="55.4668" y="49.0667" width="2.13333" height="2.13334" fill="white"/>
<rect x="53.3335" y="51.2" width="2.13334" height="2.13333" fill="white"/>
<rect x="51.2002" y="53.3333" width="2.13333" height="2.13334" fill="white"/>
<rect x="51.2002" y="55.4666" width="2.13333" height="2.13333" fill="#B0BEC5"/>
<rect x="46.9331" y="55.4666" width="2.13333" height="2.13333" fill="white"/>
<rect x="46.9331" y="57.6001" width="2.13333" height="2.13334" fill="#B0BEC5"/>
<rect x="42.6665" y="57.6001" width="2.13333" height="2.13334" fill="white"/>
<rect x="42.6665" y="59.7334" width="2.13333" height="2.13333" fill="#B0BEC5"/>
<rect x="57.6001" y="44.8" width="2.13334" height="2.13334" fill="white"/>
<rect x="55.4668" y="46.9333" width="2.13333" height="2.13333" fill="white"/>
<rect x="53.3335" y="49.0667" width="2.13334" height="2.13334" fill="white"/>
<rect x="51.2002" y="51.2" width="2.13333" height="2.13333" fill="white"/>
<rect x="49.0669" y="53.3333" width="2.13334" height="2.13334" fill="white"/>
<rect x="44.7998" y="55.4666" width="2.13334" height="2.13333" fill="white"/>
<rect x="44.7998" y="57.6001" width="2.13334" height="2.13334" fill="#B0BEC5"/>
<rect x="40.5332" y="57.6001" width="2.13334" height="2.13334" fill="white"/>
<rect x="40.5332" y="59.7334" width="2.13334" height="2.13333" fill="#B0BEC5"/>
<rect x="46.9331" y="53.3333" width="2.13333" height="2.13334" fill="white"/>
<rect x="42.6665" y="55.4666" width="2.13333" height="2.13333" fill="white"/>
<rect x="38.3999" y="57.6001" width="2.13333" height="2.13334" fill="white"/>
<rect x="38.3999" y="59.7334" width="2.13333" height="2.13333" fill="#B0BEC5"/>
<rect x="36.2666" y="57.6001" width="2.13334" height="2.13334" fill="white"/>
<rect x="36.2666" y="59.7334" width="2.13334" height="2.13333" fill="#B0BEC5"/>
<rect x="34.1333" y="57.6001" width="2.13333" height="2.13334" fill="white"/>
<rect x="34.1333" y="59.7334" width="2.13333" height="2.13333" fill="#B0BEC5"/>
<rect x="32" y="57.6001" width="2.13334" height="2.13334" fill="white"/>
<rect x="32" y="59.7334" width="2.13334" height="2.13333" fill="#B0BEC5"/>
<rect x="29.8667" y="57.6001" width="2.13333" height="2.13334" fill="white"/>
<rect x="29.8667" y="59.7334" width="2.13333" height="2.13333" fill="#B0BEC5"/>
<rect x="27.7334" y="57.6001" width="2.13333" height="2.13334" fill="white"/>
<rect x="27.7334" y="59.7334" width="2.13333" height="2.13333" fill="#B0BEC5"/>
<rect x="25.6001" y="57.6001" width="2.13333" height="2.13334" fill="white"/>
<rect x="25.6001" y="59.7334" width="2.13333" height="2.13333" fill="#B0BEC5"/>
<rect x="23.4668" y="57.6001" width="2.13333" height="2.13334" fill="white"/>
<rect x="23.4668" y="59.7334" width="2.13333" height="2.13333" fill="#B0BEC5"/>
<rect x="19.2002" y="55.4666" width="2.13333" height="2.13333" fill="white"/>
<rect x="14.9331" y="53.3333" width="2.13333" height="2.13334" fill="white"/>
<rect x="10.6665" y="51.2" width="2.13333" height="2.13333" fill="white"/>
<rect x="8.5332" y="49.0667" width="2.13333" height="2.13334" fill="white"/>
<rect x="6.3999" y="46.9333" width="2.13333" height="2.13333" fill="white"/>
<rect x="4.2666" y="44.8" width="2.13333" height="2.13334" fill="white"/>
<rect x="21.3335" y="57.6001" width="2.13333" height="2.13334" fill="white"/>
<rect x="21.3335" y="59.7334" width="2.13333" height="2.13333" fill="#B0BEC5"/>
<rect x="17.0669" y="55.4666" width="2.13333" height="2.13333" fill="white"/>
<rect x="17.0669" y="57.6001" width="2.13333" height="2.13334" fill="#B0BEC5"/>
<rect x="12.7998" y="53.3333" width="2.13333" height="2.13334" fill="white"/>
<rect x="12.7998" y="55.4666" width="2.13333" height="2.13333" fill="#B0BEC5"/>
<rect x="8.5332" y="51.2" width="2.13333" height="2.13333" fill="white"/>
<rect x="8.5332" y="53.3333" width="2.13333" height="2.13334" fill="#B0BEC5"/>
<rect x="6.3999" y="49.0667" width="2.13333" height="2.13334" fill="white"/>
<rect x="6.3999" y="51.2" width="2.13333" height="2.13333" fill="#B0BEC5"/>
<rect x="4.2666" y="46.9333" width="2.13333" height="2.13333" fill="white"/>
<rect x="4.2666" y="49.0667" width="2.13333" height="2.13334" fill="#B0BEC5"/>
<rect x="2.1333" y="44.8" width="2.13333" height="2.13334" fill="white"/>
<rect y="44.8" width="2.13333" height="2.13334" fill="#B0BEC5"/>
<rect x="2.1333" y="46.9333" width="2.13333" height="2.13333" fill="#B0BEC5"/>
<rect x="2.1333" y="42.6667" width="2.13333" height="2.13333" fill="white"/>
<rect y="42.6667" width="2.13333" height="2.13333" fill="#B0BEC5"/>
<rect x="2.1333" y="40.5334" width="2.13333" height="2.13334" fill="white"/>
<rect y="40.5334" width="2.13333" height="2.13334" fill="#B0BEC5"/>
<rect x="2.1333" y="38.3999" width="2.13333" height="2.13333" fill="white"/>
<rect y="38.3999" width="2.13333" height="2.13333" fill="#B0BEC5"/>
<rect x="2.1333" y="36.2666" width="2.13333" height="2.13334" fill="white"/>
<rect y="36.2666" width="2.13333" height="2.13334" fill="#B0BEC5"/>
<rect x="2.1333" y="34.1333" width="2.13333" height="2.13333" fill="white"/>
<rect y="34.1333" width="2.13333" height="2.13333" fill="#B0BEC5"/>
<rect x="2.1333" y="32" width="2.13333" height="2.13334" fill="white"/>
<rect y="32" width="2.13333" height="2.13334" fill="#B0BEC5"/>
<rect x="2.1333" y="29.8667" width="2.13333" height="2.13333" fill="white"/>
<rect y="29.8667" width="2.13333" height="2.13333" fill="#B0BEC5"/>
<rect x="2.1333" y="27.7334" width="2.13333" height="2.13333" fill="white"/>
<rect y="27.7334" width="2.13333" height="2.13333" fill="#B0BEC5"/>
<rect x="2.1333" y="25.6001" width="2.13333" height="2.13333" fill="#B0BEC5"/>
<rect x="4.2666" y="27.7334" width="2.13333" height="2.13333" fill="white"/>
<rect x="4.2666" y="25.6001" width="2.13333" height="2.13333" fill="white"/>
<rect x="4.2666" y="23.4666" width="2.13333" height="2.13333" fill="white"/>
<rect x="2.1333" y="23.4666" width="2.13333" height="2.13333" fill="#B0BEC5"/>
<rect x="4.2666" y="21.3333" width="2.13333" height="2.13333" fill="#B0BEC5"/>
<rect x="6.3999" y="21.3333" width="2.13333" height="2.13333" fill="white"/>
<rect x="6.3999" y="19.2" width="2.13333" height="2.13333" fill="#B0BEC5"/>
<rect x="8.5332" y="19.2" width="2.13333" height="2.13333" fill="white"/>
<rect x="8.5332" y="17.0667" width="2.13333" height="2.13333" fill="#B0BEC5"/>
<rect x="10.6665" y="17.0667" width="2.13333" height="2.13333" fill="white"/>
<rect x="10.6665" y="14.9333" width="2.13333" height="2.13333" fill="#B0BEC5"/>
<rect x="6.3999" y="23.4666" width="2.13333" height="2.13333" fill="white"/>
<rect x="8.5332" y="21.3333" width="2.13333" height="2.13333" fill="white"/>
<rect x="10.6665" y="19.2" width="2.13333" height="2.13333" fill="white"/>
<rect x="12.7998" y="17.0667" width="2.13333" height="2.13333" fill="white"/>
<rect x="12.7998" y="14.9333" width="2.13333" height="2.13333" fill="#B0BEC5"/>
<rect x="14.9331" y="14.9333" width="2.13333" height="2.13333" fill="white"/>
<rect x="14.9331" y="12.8" width="2.13333" height="2.13333" fill="#B0BEC5"/>
<rect x="17.0669" y="12.8" width="2.13333" height="2.13333" fill="white"/>
<rect x="17.0669" y="10.6667" width="2.13333" height="2.13333" fill="#B0BEC5"/>
<rect x="19.2002" y="10.6667" width="2.13333" height="2.13333" fill="white"/>
<rect x="19.2002" y="8.53345" width="2.13333" height="2.13333" fill="#B0BEC5"/>
<rect x="21.3335" y="8.53345" width="2.13333" height="2.13333" fill="white"/>
<rect x="21.3335" y="6.3999" width="2.13333" height="2.13333" fill="#B0BEC5"/>
<rect x="14.9331" y="17.0667" width="2.13333" height="2.13333" fill="white"/>
<rect x="17.0669" y="14.9333" width="2.13333" height="2.13333" fill="white"/>
<rect x="19.2002" y="12.8" width="2.13333" height="2.13333" fill="white"/>
<rect x="21.3335" y="10.6667" width="2.13333" height="2.13333" fill="white"/>
<rect x="23.4668" y="8.53345" width="2.13333" height="2.13333" fill="white"/>
<rect x="23.4668" y="6.3999" width="2.13333" height="2.13333" fill="#B0BEC5"/>
<rect x="25.6001" y="8.53345" width="2.13333" height="2.13333" fill="white"/>
<rect x="25.6001" y="6.3999" width="2.13333" height="2.13333" fill="white"/>
<rect x="25.6001" y="4.2666" width="2.13333" height="2.13333" fill="#B0BEC5"/>
<rect x="27.7334" y="6.3999" width="2.13333" height="2.13333" fill="white"/>
<rect x="27.7334" y="4.2666" width="2.13333" height="2.13333" fill="white"/>
<rect x="27.7334" y="2.1333" width="2.13333" height="2.13333" fill="#B0BEC5"/>
<rect x="19.2002" y="57.6001" width="2.13333" height="2.13334" fill="white"/>
<rect x="19.2002" y="59.7334" width="2.13333" height="2.13333" fill="#B0BEC5"/>
<rect x="14.9331" y="55.4666" width="2.13333" height="2.13333" fill="white"/>
<rect x="14.9331" y="57.6001" width="2.13333" height="2.13334" fill="#B0BEC5"/>
<rect x="10.6665" y="53.3333" width="2.13333" height="2.13334" fill="white"/>
<rect x="10.6665" y="55.4666" width="2.13333" height="2.13333" fill="#B0BEC5"/>
</svg>
