<svg width="24" height="24" viewBox="0 0 24 24" fill="none" xmlns="http://www.w3.org/2000/svg">
<rect x="1.5" y="10.5" width="1.5" height="1.5" fill="#37474F"/>
<rect x="3" y="9" width="1.5" height="1.5" fill="#37474F"/>
<rect x="4.5" y="7.5" width="1.5" height="1.5" fill="#37474F"/>
<rect x="6" y="6" width="1.5" height="1.5" fill="#37474F"/>
<rect x="7.5" y="4.5" width="1.5" height="1.5" fill="#37474F"/>
<rect x="9" y="3" width="1.5" height="1.5" fill="#37474F"/>
<rect x="10.5" y="1.5" width="1.5" height="1.5" fill="#37474F"/>
<rect x="10.5" y="3" width="1.5" height="1.5" fill="#FED750"/>
<rect x="9" y="4.5" width="1.5" height="1.5" fill="#FED750"/>
<rect x="7.5" y="6" width="1.5" height="1.5" fill="#FED750"/>
<rect x="6" y="7.5" width="1.5" height="1.5" fill="#FED750"/>
<rect x="4.5" y="9" width="1.5" height="1.5" fill="#FED750"/>
<rect x="3" y="10.5" width="1.5" height="1.5" fill="#FED750"/>
<rect x="3" y="12" width="1.5" height="1.5" fill="#FFA202"/>
<rect x="4.5" y="13.5" width="1.5" height="1.5" fill="#FFA202"/>
<rect x="6" y="15" width="1.5" height="1.5" fill="#FFA202"/>
<rect x="7.5" y="16.5" width="1.5" height="1.5" fill="#FFA202"/>
<rect x="9" y="18" width="1.5" height="1.5" fill="#FFA202"/>
<rect x="10.5" y="19.5" width="1.5" height="1.5" fill="#FFA202"/>
<rect x="12" y="1.5" width="1.5" height="1.5" fill="#37474F"/>
<rect x="12" y="3" width="1.5" height="1.5" fill="#FFA202"/>
<rect x="10.5" y="4.5" width="1.5" height="1.5" fill="#FFA202"/>
<rect x="9" y="6" width="1.5" height="1.5" fill="#FFA202"/>
<rect x="7.5" y="7.5" width="1.5" height="1.5" fill="#FFA202"/>
<rect x="6" y="9" width="1.5" height="1.5" fill="#FFA202"/>
<rect x="4.5" y="10.5" width="1.5" height="1.5" fill="#FFA202"/>
<rect x="6" y="10.5" width="1.5" height="1.5" fill="#FFA202"/>
<rect x="7.5" y="10.5" width="1.5" height="1.5" fill="#FFA202"/>
<rect x="9" y="10.5" width="1.5" height="1.5" fill="#FFA202"/>
<rect x="10.5" y="10.5" width="1.5" height="1.5" fill="#FFA202"/>
<rect x="12" y="10.5" width="1.5" height="1.5" fill="#FFA202"/>
<rect x="13.5" y="10.5" width="1.5" height="1.5" fill="#FFA202"/>
<rect x="15" y="10.5" width="1.5" height="1.5" fill="#FFA202"/>
<rect x="16.5" y="10.5" width="1.5" height="1.5" fill="#FFA202"/>
<rect x="18" y="10.5" width="1.5" height="1.5" fill="#FFA202"/>
<rect x="19.5" y="10.5" width="1.5" height="1.5" fill="#FFA202"/>
<rect x="4.5" y="12" width="1.5" height="1.5" fill="#FFA202"/>
<rect x="6" y="12" width="1.5" height="1.5" fill="#FF7002"/>
<rect x="7.5" y="12" width="1.5" height="1.5" fill="#FF7002"/>
<rect x="9" y="12" width="1.5" height="1.5" fill="#FF7002"/>
<rect x="10.5" y="12" width="1.5" height="1.5" fill="#FF7002"/>
<rect x="12" y="12" width="1.5" height="1.5" fill="#FF7002"/>
<rect x="13.5" y="12" width="1.5" height="1.5" fill="#FF7002"/>
<rect x="15" y="12" width="1.5" height="1.5" fill="#FF7002"/>
<rect x="16.5" y="12" width="1.5" height="1.5" fill="#FF7002"/>
<rect x="18" y="12" width="1.5" height="1.5" fill="#FF7002"/>
<rect x="19.5" y="12" width="1.5" height="1.5" fill="#FF7002"/>
<rect x="6" y="13.5" width="1.5" height="1.5" fill="#FF7002"/>
<rect x="7.5" y="15" width="1.5" height="1.5" fill="#FF7002"/>
<rect x="9" y="16.5" width="1.5" height="1.5" fill="#FF7002"/>
<rect x="10.5" y="18" width="1.5" height="1.5" fill="#FF7002"/>
<rect x="12" y="19.5" width="1.5" height="1.5" fill="#FF7002"/>
<rect x="13.5" y="1.5" width="1.5" height="1.5" fill="#37474F"/>
<rect x="13.5" y="3" width="1.5" height="1.5" fill="#37474F"/>
<rect x="12" y="4.5" width="1.5" height="1.5" fill="#37474F"/>
<rect x="10.5" y="6" width="1.5" height="1.5" fill="#37474F"/>
<rect x="9" y="7.5" width="1.5" height="1.5" fill="#37474F"/>
<rect x="7.5" y="9" width="1.5" height="1.5" fill="#FF7002"/>
<rect x="9" y="9" width="1.5" height="1.5" fill="#37474F"/>
<rect x="10.5" y="9" width="1.5" height="1.5" fill="#37474F"/>
<rect x="12" y="9" width="1.5" height="1.5" fill="#37474F"/>
<rect x="13.5" y="9" width="1.5" height="1.5" fill="#37474F"/>
<rect x="15" y="9" width="1.5" height="1.5" fill="#37474F"/>
<rect x="16.5" y="9" width="1.5" height="1.5" fill="#37474F"/>
<rect x="18" y="9" width="1.5" height="1.5" fill="#37474F"/>
<rect x="19.5" y="9" width="1.5" height="1.5" fill="#37474F"/>
<rect x="21" y="10.5" width="1.5" height="1.5" fill="#37474F"/>
<rect x="21" y="12" width="1.5" height="1.5" fill="#37474F"/>
<rect x="19.5" y="13.5" width="1.5" height="1.5" fill="#37474F"/>
<rect x="18" y="13.5" width="1.5" height="1.5" fill="#37474F"/>
<rect x="16.5" y="13.5" width="1.5" height="1.5" fill="#37474F"/>
<rect x="15" y="13.5" width="1.5" height="1.5" fill="#37474F"/>
<rect x="13.5" y="13.5" width="1.5" height="1.5" fill="#37474F"/>
<rect x="12" y="13.5" width="1.5" height="1.5" fill="#37474F"/>
<rect x="10.5" y="13.5" width="1.5" height="1.5" fill="#37474F"/>
<rect x="9" y="13.5" width="1.5" height="1.5" fill="#37474F"/>
<rect x="7.5" y="13.5" width="1.5" height="1.5" fill="#FF7002"/>
<rect x="9" y="15" width="1.5" height="1.5" fill="#37474F"/>
<rect x="10.5" y="16.5" width="1.5" height="1.5" fill="#37474F"/>
<rect x="12" y="18" width="1.5" height="1.5" fill="#37474F"/>
<rect x="13.5" y="19.5" width="1.5" height="1.5" fill="#37474F"/>
<rect x="13.5" y="21" width="1.5" height="1.5" fill="#37474F"/>
<rect x="12" y="21" width="1.5" height="1.5" fill="#37474F"/>
<rect x="1.5" y="12" width="1.5" height="1.5" fill="#37474F"/>
<rect x="3" y="13.5" width="1.5" height="1.5" fill="#37474F"/>
<rect x="3" y="13.5" width="1.5" height="1.5" fill="#37474F"/>
<rect x="4.5" y="15" width="1.5" height="1.5" fill="#37474F"/>
<rect x="6" y="16.5" width="1.5" height="1.5" fill="#37474F"/>
<rect x="7.5" y="18" width="1.5" height="1.5" fill="#37474F"/>
<rect x="9" y="19.5" width="1.5" height="1.5" fill="#37474F"/>
<rect x="10.5" y="21" width="1.5" height="1.5" fill="#37474F"/>
</svg>
