<svg width="1080" height="44" viewBox="0 0 1080 44" preserveAspectRatio="none"  fill="none" xmlns="http://www.w3.org/2000/svg">
<rect y="32" width="1080" height="4" fill="white"/>
<rect y="28" width="1080" height="4" fill="white"/>
<rect y="24" width="1080" height="4" fill="white"/>
<rect y="20" width="1080" height="4" fill="white"/>
<rect y="36" width="1080" height="4" fill="white"/>
<rect y="40" width="1080" height="4" fill="white"/>
<rect x="32" y="40" width="4" height="4" fill="#546E7A"/>
<rect x="28" y="40" width="4" height="4" fill="#37474F"/>
<rect x="32" y="36" width="4" height="4" fill="#546E7A"/>
<rect x="28" y="36" width="4" height="4" fill="#37474F"/>
<rect x="32" y="24" width="4" height="4" fill="#546E7A"/>
<rect x="32" y="28" width="4" height="4" fill="#546E7A"/>
<rect x="32" y="32" width="4" height="4" fill="#546E7A"/>
<rect x="32" y="20" width="4" height="4" fill="#546E7A"/>
<rect x="32" y="16" width="4" height="4" fill="#546E7A"/>
<rect x="32" y="12" width="4" height="4" fill="#546E7A"/>
<rect x="28" y="12" width="4" height="4" fill="#546E7A"/>
<rect x="28" y="8" width="4" height="4" fill="#546E7A"/>
<rect x="24" y="12" width="4" height="4" fill="#546E7A"/>
<rect x="24" y="8" width="4" height="4" fill="#546E7A"/>
<rect x="20" y="12" width="4" height="4" fill="#546E7A"/>
<rect x="20" y="16" width="4" height="4" fill="#546E7A"/>
<rect x="24" y="16" width="4" height="4" fill="#37474F"/>
<rect x="20" y="20" width="4" height="4" fill="#546E7A"/>
<rect x="24" y="20" width="4" height="4" fill="#37474F"/>
<rect x="36" y="40" width="4" height="4" fill="#546E7A"/>
<rect x="36" y="36" width="4" height="4" fill="#546E7A"/>
<rect x="36" y="24" width="4" height="4" fill="#546E7A"/>
<rect x="36" y="28" width="4" height="4" fill="#546E7A"/>
<rect x="36" y="32" width="4" height="4" fill="#546E7A"/>
<rect x="36" y="20" width="4" height="4" fill="#546E7A"/>
<rect x="36" y="16" width="4" height="4" fill="#546E7A"/>
<rect x="24" y="40" width="4" height="4" fill="#37474F"/>
<rect x="24" y="36" width="4" height="4" fill="#37474F"/>
<rect x="92" y="40" width="4" height="4" fill="#546E7A"/>
<rect x="88" y="40" width="4" height="4" fill="#37474F"/>
<rect x="92" y="36" width="4" height="4" fill="#546E7A"/>
<rect x="88" y="36" width="4" height="4" fill="#37474F"/>
<rect x="92" y="24" width="4" height="4" fill="#546E7A"/>
<rect x="92" y="28" width="4" height="4" fill="#546E7A"/>
<rect x="92" y="32" width="4" height="4" fill="#546E7A"/>
<rect x="92" y="20" width="4" height="4" fill="#546E7A"/>
<rect x="92" y="16" width="4" height="4" fill="#546E7A"/>
<rect x="92" y="12" width="4" height="4" fill="#546E7A"/>
<rect x="88" y="12" width="4" height="4" fill="#546E7A"/>
<rect x="88" y="8" width="4" height="4" fill="#546E7A"/>
<rect x="84" y="12" width="4" height="4" fill="#546E7A"/>
<rect x="84" y="8" width="4" height="4" fill="#546E7A"/>
<rect x="80" y="12" width="4" height="4" fill="#546E7A"/>
<rect x="80" y="16" width="4" height="4" fill="#546E7A"/>
<rect x="84" y="16" width="4" height="4" fill="#37474F"/>
<rect x="80" y="20" width="4" height="4" fill="#546E7A"/>
<rect x="84" y="20" width="4" height="4" fill="#37474F"/>
<rect x="96" y="40" width="4" height="4" fill="#546E7A"/>
<rect x="96" y="36" width="4" height="4" fill="#546E7A"/>
<rect x="96" y="24" width="4" height="4" fill="#546E7A"/>
<rect x="96" y="28" width="4" height="4" fill="#546E7A"/>
<rect x="96" y="32" width="4" height="4" fill="#546E7A"/>
<rect x="96" y="20" width="4" height="4" fill="#546E7A"/>
<rect x="96" y="16" width="4" height="4" fill="#546E7A"/>
<rect x="84" y="40" width="4" height="4" fill="#37474F"/>
<rect x="84" y="36" width="4" height="4" fill="#37474F"/>
<rect x="152" y="40" width="4" height="4" fill="#546E7A"/>
<rect x="148" y="40" width="4" height="4" fill="#37474F"/>
<rect x="152" y="36" width="4" height="4" fill="#546E7A"/>
<rect x="148" y="36" width="4" height="4" fill="#37474F"/>
<rect x="152" y="24" width="4" height="4" fill="#546E7A"/>
<rect x="152" y="28" width="4" height="4" fill="#546E7A"/>
<rect x="152" y="32" width="4" height="4" fill="#546E7A"/>
<rect x="152" y="20" width="4" height="4" fill="#546E7A"/>
<rect x="152" y="16" width="4" height="4" fill="#546E7A"/>
<rect x="152" y="12" width="4" height="4" fill="#546E7A"/>
<rect x="148" y="12" width="4" height="4" fill="#546E7A"/>
<rect x="148" y="8" width="4" height="4" fill="#546E7A"/>
<rect x="144" y="12" width="4" height="4" fill="#546E7A"/>
<rect x="144" y="8" width="4" height="4" fill="#546E7A"/>
<rect x="140" y="12" width="4" height="4" fill="#546E7A"/>
<rect x="140" y="16" width="4" height="4" fill="#546E7A"/>
<rect x="144" y="16" width="4" height="4" fill="#37474F"/>
<rect x="140" y="20" width="4" height="4" fill="#546E7A"/>
<rect x="144" y="20" width="4" height="4" fill="#37474F"/>
<rect x="156" y="40" width="4" height="4" fill="#546E7A"/>
<rect x="156" y="36" width="4" height="4" fill="#546E7A"/>
<rect x="156" y="24" width="4" height="4" fill="#546E7A"/>
<rect x="156" y="28" width="4" height="4" fill="#546E7A"/>
<rect x="156" y="32" width="4" height="4" fill="#546E7A"/>
<rect x="156" y="20" width="4" height="4" fill="#546E7A"/>
<rect x="156" y="16" width="4" height="4" fill="#546E7A"/>
<rect x="144" y="40" width="4" height="4" fill="#37474F"/>
<rect x="144" y="36" width="4" height="4" fill="#37474F"/>
<rect x="212" y="40" width="4" height="4" fill="#546E7A"/>
<rect x="208" y="40" width="4" height="4" fill="#37474F"/>
<rect x="212" y="36" width="4" height="4" fill="#546E7A"/>
<rect x="208" y="36" width="4" height="4" fill="#37474F"/>
<rect x="212" y="24" width="4" height="4" fill="#546E7A"/>
<rect x="212" y="28" width="4" height="4" fill="#546E7A"/>
<rect x="212" y="32" width="4" height="4" fill="#546E7A"/>
<rect x="212" y="20" width="4" height="4" fill="#546E7A"/>
<rect x="212" y="16" width="4" height="4" fill="#546E7A"/>
<rect x="212" y="12" width="4" height="4" fill="#546E7A"/>
<rect x="208" y="12" width="4" height="4" fill="#546E7A"/>
<rect x="208" y="8" width="4" height="4" fill="#546E7A"/>
<rect x="204" y="12" width="4" height="4" fill="#546E7A"/>
<rect x="204" y="8" width="4" height="4" fill="#546E7A"/>
<rect x="200" y="12" width="4" height="4" fill="#546E7A"/>
<rect x="200" y="16" width="4" height="4" fill="#546E7A"/>
<rect x="204" y="16" width="4" height="4" fill="#37474F"/>
<rect x="200" y="20" width="4" height="4" fill="#546E7A"/>
<rect x="204" y="20" width="4" height="4" fill="#37474F"/>
<rect x="216" y="40" width="4" height="4" fill="#546E7A"/>
<rect x="216" y="36" width="4" height="4" fill="#546E7A"/>
<rect x="216" y="24" width="4" height="4" fill="#546E7A"/>
<rect x="216" y="28" width="4" height="4" fill="#546E7A"/>
<rect x="216" y="32" width="4" height="4" fill="#546E7A"/>
<rect x="216" y="20" width="4" height="4" fill="#546E7A"/>
<rect x="216" y="16" width="4" height="4" fill="#546E7A"/>
<rect x="204" y="40" width="4" height="4" fill="#37474F"/>
<rect x="204" y="36" width="4" height="4" fill="#37474F"/>
<rect x="272" y="40" width="4" height="4" fill="#546E7A"/>
<rect x="268" y="40" width="4" height="4" fill="#37474F"/>
<rect x="272" y="36" width="4" height="4" fill="#546E7A"/>
<rect x="268" y="36" width="4" height="4" fill="#37474F"/>
<rect x="272" y="24" width="4" height="4" fill="#546E7A"/>
<rect x="272" y="28" width="4" height="4" fill="#546E7A"/>
<rect x="272" y="32" width="4" height="4" fill="#546E7A"/>
<rect x="272" y="20" width="4" height="4" fill="#546E7A"/>
<rect x="272" y="16" width="4" height="4" fill="#546E7A"/>
<rect x="272" y="12" width="4" height="4" fill="#546E7A"/>
<rect x="268" y="12" width="4" height="4" fill="#546E7A"/>
<rect x="268" y="8" width="4" height="4" fill="#546E7A"/>
<rect x="264" y="12" width="4" height="4" fill="#546E7A"/>
<rect x="264" y="8" width="4" height="4" fill="#546E7A"/>
<rect x="260" y="12" width="4" height="4" fill="#546E7A"/>
<rect x="260" y="16" width="4" height="4" fill="#546E7A"/>
<rect x="264" y="16" width="4" height="4" fill="#37474F"/>
<rect x="260" y="20" width="4" height="4" fill="#546E7A"/>
<rect x="264" y="20" width="4" height="4" fill="#37474F"/>
<rect x="276" y="40" width="4" height="4" fill="#546E7A"/>
<rect x="276" y="36" width="4" height="4" fill="#546E7A"/>
<rect x="276" y="24" width="4" height="4" fill="#546E7A"/>
<rect x="276" y="28" width="4" height="4" fill="#546E7A"/>
<rect x="276" y="32" width="4" height="4" fill="#546E7A"/>
<rect x="276" y="20" width="4" height="4" fill="#546E7A"/>
<rect x="276" y="16" width="4" height="4" fill="#546E7A"/>
<rect x="264" y="40" width="4" height="4" fill="#37474F"/>
<rect x="264" y="36" width="4" height="4" fill="#37474F"/>
<rect x="332" y="40" width="4" height="4" fill="#546E7A"/>
<rect x="328" y="40" width="4" height="4" fill="#37474F"/>
<rect x="332" y="36" width="4" height="4" fill="#546E7A"/>
<rect x="328" y="36" width="4" height="4" fill="#37474F"/>
<rect x="332" y="24" width="4" height="4" fill="#546E7A"/>
<rect x="332" y="28" width="4" height="4" fill="#546E7A"/>
<rect x="332" y="32" width="4" height="4" fill="#546E7A"/>
<rect x="332" y="20" width="4" height="4" fill="#546E7A"/>
<rect x="332" y="16" width="4" height="4" fill="#546E7A"/>
<rect x="332" y="12" width="4" height="4" fill="#546E7A"/>
<rect x="328" y="12" width="4" height="4" fill="#546E7A"/>
<rect x="328" y="8" width="4" height="4" fill="#546E7A"/>
<rect x="324" y="12" width="4" height="4" fill="#546E7A"/>
<rect x="324" y="8" width="4" height="4" fill="#546E7A"/>
<rect x="320" y="12" width="4" height="4" fill="#546E7A"/>
<rect x="320" y="16" width="4" height="4" fill="#546E7A"/>
<rect x="324" y="16" width="4" height="4" fill="#37474F"/>
<rect x="320" y="20" width="4" height="4" fill="#546E7A"/>
<rect x="324" y="20" width="4" height="4" fill="#37474F"/>
<rect x="336" y="40" width="4" height="4" fill="#546E7A"/>
<rect x="336" y="36" width="4" height="4" fill="#546E7A"/>
<rect x="336" y="24" width="4" height="4" fill="#546E7A"/>
<rect x="336" y="28" width="4" height="4" fill="#546E7A"/>
<rect x="336" y="32" width="4" height="4" fill="#546E7A"/>
<rect x="336" y="20" width="4" height="4" fill="#546E7A"/>
<rect x="336" y="16" width="4" height="4" fill="#546E7A"/>
<rect x="324" y="40" width="4" height="4" fill="#37474F"/>
<rect x="324" y="36" width="4" height="4" fill="#37474F"/>
<rect x="392" y="40" width="4" height="4" fill="#546E7A"/>
<rect x="388" y="40" width="4" height="4" fill="#37474F"/>
<rect x="392" y="36" width="4" height="4" fill="#546E7A"/>
<rect x="388" y="36" width="4" height="4" fill="#37474F"/>
<rect x="392" y="24" width="4" height="4" fill="#546E7A"/>
<rect x="392" y="28" width="4" height="4" fill="#546E7A"/>
<rect x="392" y="32" width="4" height="4" fill="#546E7A"/>
<rect x="392" y="20" width="4" height="4" fill="#546E7A"/>
<rect x="392" y="16" width="4" height="4" fill="#546E7A"/>
<rect x="392" y="12" width="4" height="4" fill="#546E7A"/>
<rect x="388" y="12" width="4" height="4" fill="#546E7A"/>
<rect x="388" y="8" width="4" height="4" fill="#546E7A"/>
<rect x="384" y="12" width="4" height="4" fill="#546E7A"/>
<rect x="384" y="8" width="4" height="4" fill="#546E7A"/>
<rect x="380" y="12" width="4" height="4" fill="#546E7A"/>
<rect x="380" y="16" width="4" height="4" fill="#546E7A"/>
<rect x="384" y="16" width="4" height="4" fill="#37474F"/>
<rect x="380" y="20" width="4" height="4" fill="#546E7A"/>
<rect x="384" y="20" width="4" height="4" fill="#37474F"/>
<rect x="396" y="40" width="4" height="4" fill="#546E7A"/>
<rect x="396" y="36" width="4" height="4" fill="#546E7A"/>
<rect x="396" y="24" width="4" height="4" fill="#546E7A"/>
<rect x="396" y="28" width="4" height="4" fill="#546E7A"/>
<rect x="396" y="32" width="4" height="4" fill="#546E7A"/>
<rect x="396" y="20" width="4" height="4" fill="#546E7A"/>
<rect x="396" y="16" width="4" height="4" fill="#546E7A"/>
<rect x="384" y="40" width="4" height="4" fill="#37474F"/>
<rect x="384" y="36" width="4" height="4" fill="#37474F"/>
<rect x="452" y="40" width="4" height="4" fill="#546E7A"/>
<rect x="448" y="40" width="4" height="4" fill="#37474F"/>
<rect x="452" y="36" width="4" height="4" fill="#546E7A"/>
<rect x="448" y="36" width="4" height="4" fill="#37474F"/>
<rect x="452" y="24" width="4" height="4" fill="#546E7A"/>
<rect x="452" y="28" width="4" height="4" fill="#546E7A"/>
<rect x="452" y="32" width="4" height="4" fill="#546E7A"/>
<rect x="452" y="20" width="4" height="4" fill="#546E7A"/>
<rect x="452" y="16" width="4" height="4" fill="#546E7A"/>
<rect x="452" y="12" width="4" height="4" fill="#546E7A"/>
<rect x="448" y="12" width="4" height="4" fill="#546E7A"/>
<rect x="448" y="8" width="4" height="4" fill="#546E7A"/>
<rect x="444" y="12" width="4" height="4" fill="#546E7A"/>
<rect x="444" y="8" width="4" height="4" fill="#546E7A"/>
<rect x="440" y="12" width="4" height="4" fill="#546E7A"/>
<rect x="440" y="16" width="4" height="4" fill="#546E7A"/>
<rect x="444" y="16" width="4" height="4" fill="#37474F"/>
<rect x="440" y="20" width="4" height="4" fill="#546E7A"/>
<rect x="444" y="20" width="4" height="4" fill="#37474F"/>
<rect x="456" y="40" width="4" height="4" fill="#546E7A"/>
<rect x="456" y="36" width="4" height="4" fill="#546E7A"/>
<rect x="456" y="24" width="4" height="4" fill="#546E7A"/>
<rect x="456" y="28" width="4" height="4" fill="#546E7A"/>
<rect x="456" y="32" width="4" height="4" fill="#546E7A"/>
<rect x="456" y="20" width="4" height="4" fill="#546E7A"/>
<rect x="456" y="16" width="4" height="4" fill="#546E7A"/>
<rect x="444" y="40" width="4" height="4" fill="#37474F"/>
<rect x="444" y="36" width="4" height="4" fill="#37474F"/>
<rect x="512" y="40" width="4" height="4" fill="#546E7A"/>
<rect x="508" y="40" width="4" height="4" fill="#37474F"/>
<rect x="512" y="36" width="4" height="4" fill="#546E7A"/>
<rect x="508" y="36" width="4" height="4" fill="#37474F"/>
<rect x="512" y="24" width="4" height="4" fill="#546E7A"/>
<rect x="512" y="28" width="4" height="4" fill="#546E7A"/>
<rect x="512" y="32" width="4" height="4" fill="#546E7A"/>
<rect x="512" y="20" width="4" height="4" fill="#546E7A"/>
<rect x="512" y="16" width="4" height="4" fill="#546E7A"/>
<rect x="512" y="12" width="4" height="4" fill="#546E7A"/>
<rect x="508" y="12" width="4" height="4" fill="#546E7A"/>
<rect x="508" y="8" width="4" height="4" fill="#546E7A"/>
<rect x="504" y="12" width="4" height="4" fill="#546E7A"/>
<rect x="504" y="8" width="4" height="4" fill="#546E7A"/>
<rect x="500" y="12" width="4" height="4" fill="#546E7A"/>
<rect x="500" y="16" width="4" height="4" fill="#546E7A"/>
<rect x="504" y="16" width="4" height="4" fill="#37474F"/>
<rect x="500" y="20" width="4" height="4" fill="#546E7A"/>
<rect x="504" y="20" width="4" height="4" fill="#37474F"/>
<rect x="516" y="40" width="4" height="4" fill="#546E7A"/>
<rect x="516" y="36" width="4" height="4" fill="#546E7A"/>
<rect x="516" y="24" width="4" height="4" fill="#546E7A"/>
<rect x="516" y="28" width="4" height="4" fill="#546E7A"/>
<rect x="516" y="32" width="4" height="4" fill="#546E7A"/>
<rect x="516" y="20" width="4" height="4" fill="#546E7A"/>
<rect x="516" y="16" width="4" height="4" fill="#546E7A"/>
<rect x="504" y="40" width="4" height="4" fill="#37474F"/>
<rect x="504" y="36" width="4" height="4" fill="#37474F"/>
<rect x="572" y="40" width="4" height="4" fill="#546E7A"/>
<rect x="568" y="40" width="4" height="4" fill="#37474F"/>
<rect x="572" y="36" width="4" height="4" fill="#546E7A"/>
<rect x="568" y="36" width="4" height="4" fill="#37474F"/>
<rect x="572" y="24" width="4" height="4" fill="#546E7A"/>
<rect x="572" y="28" width="4" height="4" fill="#546E7A"/>
<rect x="572" y="32" width="4" height="4" fill="#546E7A"/>
<rect x="572" y="20" width="4" height="4" fill="#546E7A"/>
<rect x="572" y="16" width="4" height="4" fill="#546E7A"/>
<rect x="572" y="12" width="4" height="4" fill="#546E7A"/>
<rect x="568" y="12" width="4" height="4" fill="#546E7A"/>
<rect x="568" y="8" width="4" height="4" fill="#546E7A"/>
<rect x="564" y="12" width="4" height="4" fill="#546E7A"/>
<rect x="564" y="8" width="4" height="4" fill="#546E7A"/>
<rect x="560" y="12" width="4" height="4" fill="#546E7A"/>
<rect x="560" y="16" width="4" height="4" fill="#546E7A"/>
<rect x="564" y="16" width="4" height="4" fill="#37474F"/>
<rect x="560" y="20" width="4" height="4" fill="#546E7A"/>
<rect x="564" y="20" width="4" height="4" fill="#37474F"/>
<rect x="576" y="40" width="4" height="4" fill="#546E7A"/>
<rect x="576" y="36" width="4" height="4" fill="#546E7A"/>
<rect x="576" y="24" width="4" height="4" fill="#546E7A"/>
<rect x="576" y="28" width="4" height="4" fill="#546E7A"/>
<rect x="576" y="32" width="4" height="4" fill="#546E7A"/>
<rect x="576" y="20" width="4" height="4" fill="#546E7A"/>
<rect x="576" y="16" width="4" height="4" fill="#546E7A"/>
<rect x="564" y="40" width="4" height="4" fill="#37474F"/>
<rect x="564" y="36" width="4" height="4" fill="#37474F"/>
<rect x="632" y="40" width="4" height="4" fill="#546E7A"/>
<rect x="628" y="40" width="4" height="4" fill="#37474F"/>
<rect x="632" y="36" width="4" height="4" fill="#546E7A"/>
<rect x="628" y="36" width="4" height="4" fill="#37474F"/>
<rect x="632" y="24" width="4" height="4" fill="#546E7A"/>
<rect x="632" y="28" width="4" height="4" fill="#546E7A"/>
<rect x="632" y="32" width="4" height="4" fill="#546E7A"/>
<rect x="632" y="20" width="4" height="4" fill="#546E7A"/>
<rect x="632" y="16" width="4" height="4" fill="#546E7A"/>
<rect x="632" y="12" width="4" height="4" fill="#546E7A"/>
<rect x="628" y="12" width="4" height="4" fill="#546E7A"/>
<rect x="628" y="8" width="4" height="4" fill="#546E7A"/>
<rect x="624" y="12" width="4" height="4" fill="#546E7A"/>
<rect x="624" y="8" width="4" height="4" fill="#546E7A"/>
<rect x="620" y="12" width="4" height="4" fill="#546E7A"/>
<rect x="620" y="16" width="4" height="4" fill="#546E7A"/>
<rect x="624" y="16" width="4" height="4" fill="#37474F"/>
<rect x="620" y="20" width="4" height="4" fill="#546E7A"/>
<rect x="624" y="20" width="4" height="4" fill="#37474F"/>
<rect x="636" y="40" width="4" height="4" fill="#546E7A"/>
<rect x="636" y="36" width="4" height="4" fill="#546E7A"/>
<rect x="636" y="24" width="4" height="4" fill="#546E7A"/>
<rect x="636" y="28" width="4" height="4" fill="#546E7A"/>
<rect x="636" y="32" width="4" height="4" fill="#546E7A"/>
<rect x="636" y="20" width="4" height="4" fill="#546E7A"/>
<rect x="636" y="16" width="4" height="4" fill="#546E7A"/>
<rect x="624" y="40" width="4" height="4" fill="#37474F"/>
<rect x="624" y="36" width="4" height="4" fill="#37474F"/>
<rect x="692" y="40" width="4" height="4" fill="#546E7A"/>
<rect x="688" y="40" width="4" height="4" fill="#37474F"/>
<rect x="692" y="36" width="4" height="4" fill="#546E7A"/>
<rect x="688" y="36" width="4" height="4" fill="#37474F"/>
<rect x="692" y="24" width="4" height="4" fill="#546E7A"/>
<rect x="692" y="28" width="4" height="4" fill="#546E7A"/>
<rect x="692" y="32" width="4" height="4" fill="#546E7A"/>
<rect x="692" y="20" width="4" height="4" fill="#546E7A"/>
<rect x="692" y="16" width="4" height="4" fill="#546E7A"/>
<rect x="692" y="12" width="4" height="4" fill="#546E7A"/>
<rect x="688" y="12" width="4" height="4" fill="#546E7A"/>
<rect x="688" y="8" width="4" height="4" fill="#546E7A"/>
<rect x="684" y="12" width="4" height="4" fill="#546E7A"/>
<rect x="684" y="8" width="4" height="4" fill="#546E7A"/>
<rect x="680" y="12" width="4" height="4" fill="#546E7A"/>
<rect x="680" y="16" width="4" height="4" fill="#546E7A"/>
<rect x="684" y="16" width="4" height="4" fill="#37474F"/>
<rect x="680" y="20" width="4" height="4" fill="#546E7A"/>
<rect x="684" y="20" width="4" height="4" fill="#37474F"/>
<rect x="696" y="40" width="4" height="4" fill="#546E7A"/>
<rect x="696" y="36" width="4" height="4" fill="#546E7A"/>
<rect x="696" y="24" width="4" height="4" fill="#546E7A"/>
<rect x="696" y="28" width="4" height="4" fill="#546E7A"/>
<rect x="696" y="32" width="4" height="4" fill="#546E7A"/>
<rect x="696" y="20" width="4" height="4" fill="#546E7A"/>
<rect x="696" y="16" width="4" height="4" fill="#546E7A"/>
<rect x="684" y="40" width="4" height="4" fill="#37474F"/>
<rect x="684" y="36" width="4" height="4" fill="#37474F"/>
<rect x="752" y="40" width="4" height="4" fill="#546E7A"/>
<rect x="748" y="40" width="4" height="4" fill="#37474F"/>
<rect x="752" y="36" width="4" height="4" fill="#546E7A"/>
<rect x="748" y="36" width="4" height="4" fill="#37474F"/>
<rect x="752" y="24" width="4" height="4" fill="#546E7A"/>
<rect x="752" y="28" width="4" height="4" fill="#546E7A"/>
<rect x="752" y="32" width="4" height="4" fill="#546E7A"/>
<rect x="752" y="20" width="4" height="4" fill="#546E7A"/>
<rect x="752" y="16" width="4" height="4" fill="#546E7A"/>
<rect x="752" y="12" width="4" height="4" fill="#546E7A"/>
<rect x="748" y="12" width="4" height="4" fill="#546E7A"/>
<rect x="748" y="8" width="4" height="4" fill="#546E7A"/>
<rect x="744" y="12" width="4" height="4" fill="#546E7A"/>
<rect x="744" y="8" width="4" height="4" fill="#546E7A"/>
<rect x="740" y="12" width="4" height="4" fill="#546E7A"/>
<rect x="740" y="16" width="4" height="4" fill="#546E7A"/>
<rect x="744" y="16" width="4" height="4" fill="#37474F"/>
<rect x="740" y="20" width="4" height="4" fill="#546E7A"/>
<rect x="744" y="20" width="4" height="4" fill="#37474F"/>
<rect x="756" y="40" width="4" height="4" fill="#546E7A"/>
<rect x="756" y="36" width="4" height="4" fill="#546E7A"/>
<rect x="756" y="24" width="4" height="4" fill="#546E7A"/>
<rect x="756" y="28" width="4" height="4" fill="#546E7A"/>
<rect x="756" y="32" width="4" height="4" fill="#546E7A"/>
<rect x="756" y="20" width="4" height="4" fill="#546E7A"/>
<rect x="756" y="16" width="4" height="4" fill="#546E7A"/>
<rect x="744" y="40" width="4" height="4" fill="#37474F"/>
<rect x="744" y="36" width="4" height="4" fill="#37474F"/>
<rect x="812" y="40" width="4" height="4" fill="#546E7A"/>
<rect x="808" y="40" width="4" height="4" fill="#37474F"/>
<rect x="812" y="36" width="4" height="4" fill="#546E7A"/>
<rect x="808" y="36" width="4" height="4" fill="#37474F"/>
<rect x="812" y="24" width="4" height="4" fill="#546E7A"/>
<rect x="812" y="28" width="4" height="4" fill="#546E7A"/>
<rect x="812" y="32" width="4" height="4" fill="#546E7A"/>
<rect x="812" y="20" width="4" height="4" fill="#546E7A"/>
<rect x="812" y="16" width="4" height="4" fill="#546E7A"/>
<rect x="812" y="12" width="4" height="4" fill="#546E7A"/>
<rect x="808" y="12" width="4" height="4" fill="#546E7A"/>
<rect x="808" y="8" width="4" height="4" fill="#546E7A"/>
<rect x="804" y="12" width="4" height="4" fill="#546E7A"/>
<rect x="804" y="8" width="4" height="4" fill="#546E7A"/>
<rect x="800" y="12" width="4" height="4" fill="#546E7A"/>
<rect x="800" y="16" width="4" height="4" fill="#546E7A"/>
<rect x="804" y="16" width="4" height="4" fill="#37474F"/>
<rect x="800" y="20" width="4" height="4" fill="#546E7A"/>
<rect x="804" y="20" width="4" height="4" fill="#37474F"/>
<rect x="816" y="40" width="4" height="4" fill="#546E7A"/>
<rect x="816" y="36" width="4" height="4" fill="#546E7A"/>
<rect x="816" y="24" width="4" height="4" fill="#546E7A"/>
<rect x="816" y="28" width="4" height="4" fill="#546E7A"/>
<rect x="816" y="32" width="4" height="4" fill="#546E7A"/>
<rect x="816" y="20" width="4" height="4" fill="#546E7A"/>
<rect x="816" y="16" width="4" height="4" fill="#546E7A"/>
<rect x="804" y="40" width="4" height="4" fill="#37474F"/>
<rect x="804" y="36" width="4" height="4" fill="#37474F"/>
<rect x="872" y="40" width="4" height="4" fill="#546E7A"/>
<rect x="868" y="40" width="4" height="4" fill="#37474F"/>
<rect x="864" y="40" width="4" height="4" fill="#37474F"/>
<rect x="872" y="36" width="4" height="4" fill="#546E7A"/>
<rect x="868" y="36" width="4" height="4" fill="#37474F"/>
<rect x="864" y="36" width="4" height="4" fill="#37474F"/>
<rect x="872" y="24" width="4" height="4" fill="#546E7A"/>
<rect x="872" y="28" width="4" height="4" fill="#546E7A"/>
<rect x="872" y="32" width="4" height="4" fill="#546E7A"/>
<rect x="872" y="20" width="4" height="4" fill="#546E7A"/>
<rect x="872" y="16" width="4" height="4" fill="#546E7A"/>
<rect x="872" y="12" width="4" height="4" fill="#546E7A"/>
<rect x="868" y="12" width="4" height="4" fill="#546E7A"/>
<rect x="868" y="8" width="4" height="4" fill="#546E7A"/>
<rect x="864" y="12" width="4" height="4" fill="#546E7A"/>
<rect x="864" y="8" width="4" height="4" fill="#546E7A"/>
<rect x="860" y="12" width="4" height="4" fill="#546E7A"/>
<rect x="860" y="16" width="4" height="4" fill="#546E7A"/>
<rect x="864" y="16" width="4" height="4" fill="#37474F"/>
<rect x="860" y="20" width="4" height="4" fill="#546E7A"/>
<rect x="864" y="20" width="4" height="4" fill="#37474F"/>
<rect x="876" y="40" width="4" height="4" fill="#546E7A"/>
<rect x="876" y="36" width="4" height="4" fill="#546E7A"/>
<rect x="876" y="24" width="4" height="4" fill="#546E7A"/>
<rect x="876" y="28" width="4" height="4" fill="#546E7A"/>
<rect x="876" y="32" width="4" height="4" fill="#546E7A"/>
<rect x="876" y="20" width="4" height="4" fill="#546E7A"/>
<rect x="876" y="16" width="4" height="4" fill="#546E7A"/>
<rect x="932" y="40" width="4" height="4" fill="#546E7A"/>
<rect x="928" y="40" width="4" height="4" fill="#37474F"/>
<rect x="932" y="36" width="4" height="4" fill="#546E7A"/>
<rect x="928" y="36" width="4" height="4" fill="#37474F"/>
<rect x="932" y="24" width="4" height="4" fill="#546E7A"/>
<rect x="932" y="28" width="4" height="4" fill="#546E7A"/>
<rect x="932" y="32" width="4" height="4" fill="#546E7A"/>
<rect x="932" y="20" width="4" height="4" fill="#546E7A"/>
<rect x="932" y="16" width="4" height="4" fill="#546E7A"/>
<rect x="932" y="12" width="4" height="4" fill="#546E7A"/>
<rect x="928" y="12" width="4" height="4" fill="#546E7A"/>
<rect x="928" y="8" width="4" height="4" fill="#546E7A"/>
<rect x="924" y="12" width="4" height="4" fill="#546E7A"/>
<rect x="924" y="8" width="4" height="4" fill="#546E7A"/>
<rect x="920" y="12" width="4" height="4" fill="#546E7A"/>
<rect x="920" y="16" width="4" height="4" fill="#546E7A"/>
<rect x="924" y="16" width="4" height="4" fill="#37474F"/>
<rect x="920" y="20" width="4" height="4" fill="#546E7A"/>
<rect x="924" y="20" width="4" height="4" fill="#37474F"/>
<rect x="936" y="40" width="4" height="4" fill="#546E7A"/>
<rect x="936" y="36" width="4" height="4" fill="#546E7A"/>
<rect x="936" y="24" width="4" height="4" fill="#546E7A"/>
<rect x="936" y="28" width="4" height="4" fill="#546E7A"/>
<rect x="936" y="32" width="4" height="4" fill="#546E7A"/>
<rect x="936" y="20" width="4" height="4" fill="#546E7A"/>
<rect x="936" y="16" width="4" height="4" fill="#546E7A"/>
<rect x="924" y="40" width="4" height="4" fill="#37474F"/>
<rect x="924" y="36" width="4" height="4" fill="#37474F"/>
<rect x="992" y="40" width="4" height="4" fill="#546E7A"/>
<rect x="988" y="40" width="4" height="4" fill="#37474F"/>
<rect x="992" y="36" width="4" height="4" fill="#546E7A"/>
<rect x="988" y="36" width="4" height="4" fill="#37474F"/>
<rect x="992" y="24" width="4" height="4" fill="#546E7A"/>
<rect x="992" y="28" width="4" height="4" fill="#546E7A"/>
<rect x="992" y="32" width="4" height="4" fill="#546E7A"/>
<rect x="992" y="20" width="4" height="4" fill="#546E7A"/>
<rect x="992" y="16" width="4" height="4" fill="#546E7A"/>
<rect x="992" y="12" width="4" height="4" fill="#546E7A"/>
<rect x="988" y="12" width="4" height="4" fill="#546E7A"/>
<rect x="988" y="8" width="4" height="4" fill="#546E7A"/>
<rect x="984" y="12" width="4" height="4" fill="#546E7A"/>
<rect x="984" y="8" width="4" height="4" fill="#546E7A"/>
<rect x="980" y="12" width="4" height="4" fill="#546E7A"/>
<rect x="980" y="16" width="4" height="4" fill="#546E7A"/>
<rect x="984" y="16" width="4" height="4" fill="#37474F"/>
<rect x="980" y="20" width="4" height="4" fill="#546E7A"/>
<rect x="984" y="20" width="4" height="4" fill="#37474F"/>
<rect x="996" y="40" width="4" height="4" fill="#546E7A"/>
<rect x="996" y="36" width="4" height="4" fill="#546E7A"/>
<rect x="996" y="24" width="4" height="4" fill="#546E7A"/>
<rect x="996" y="28" width="4" height="4" fill="#546E7A"/>
<rect x="996" y="32" width="4" height="4" fill="#546E7A"/>
<rect x="996" y="20" width="4" height="4" fill="#546E7A"/>
<rect x="996" y="16" width="4" height="4" fill="#546E7A"/>
<rect x="984" y="40" width="4" height="4" fill="#37474F"/>
<rect x="984" y="36" width="4" height="4" fill="#37474F"/>
<rect x="1052" y="40" width="4" height="4" fill="#546E7A"/>
<rect x="1048" y="40" width="4" height="4" fill="#37474F"/>
<rect x="1052" y="36" width="4" height="4" fill="#546E7A"/>
<rect x="1048" y="36" width="4" height="4" fill="#37474F"/>
<rect x="1052" y="24" width="4" height="4" fill="#546E7A"/>
<rect x="1052" y="28" width="4" height="4" fill="#546E7A"/>
<rect x="1052" y="32" width="4" height="4" fill="#546E7A"/>
<rect x="1052" y="20" width="4" height="4" fill="#546E7A"/>
<rect x="1052" y="16" width="4" height="4" fill="#546E7A"/>
<rect x="1052" y="12" width="4" height="4" fill="#546E7A"/>
<rect x="1048" y="12" width="4" height="4" fill="#546E7A"/>
<rect x="1048" y="8" width="4" height="4" fill="#546E7A"/>
<rect x="1044" y="12" width="4" height="4" fill="#546E7A"/>
<rect x="1044" y="8" width="4" height="4" fill="#546E7A"/>
<rect x="1040" y="12" width="4" height="4" fill="#546E7A"/>
<rect x="1040" y="16" width="4" height="4" fill="#546E7A"/>
<rect x="1044" y="16" width="4" height="4" fill="#37474F"/>
<rect x="1040" y="20" width="4" height="4" fill="#546E7A"/>
<rect x="1044" y="20" width="4" height="4" fill="#37474F"/>
<rect x="1056" y="40" width="4" height="4" fill="#546E7A"/>
<rect x="1056" y="36" width="4" height="4" fill="#546E7A"/>
<rect x="1056" y="24" width="4" height="4" fill="#546E7A"/>
<rect x="1056" y="28" width="4" height="4" fill="#546E7A"/>
<rect x="1056" y="32" width="4" height="4" fill="#546E7A"/>
<rect x="1056" y="20" width="4" height="4" fill="#546E7A"/>
<rect x="1056" y="16" width="4" height="4" fill="#546E7A"/>
<rect x="1044" y="40" width="4" height="4" fill="#37474F"/>
<rect x="1044" y="36" width="4" height="4" fill="#37474F"/>
</svg>
