<svg width="360" height="44" viewBox="0 0 360 44" fill="none" xmlns="http://www.w3.org/2000/svg">
<rect y="32" width="360" height="4" fill="white"/>
<rect y="36" width="360" height="4" fill="white"/>
<rect x="8" y="24" width="344" height="4" fill="white"/>
<rect y="40" width="360" height="4" fill="white"/>
<rect x="4" y="28" width="352" height="4" fill="white"/>
<rect x="32" y="40" width="4" height="4" fill="#546E7A"/>
<rect x="28" y="40" width="4" height="4" fill="#37474F"/>
<rect x="32" y="36" width="4" height="4" fill="#546E7A"/>
<rect x="28" y="36" width="4" height="4" fill="#37474F"/>
<rect x="32" y="24" width="4" height="4" fill="#546E7A"/>
<rect x="32" y="28" width="4" height="4" fill="#546E7A"/>
<rect x="32" y="32" width="4" height="4" fill="#546E7A"/>
<rect x="32" y="20" width="4" height="4" fill="#546E7A"/>
<rect x="32" y="16" width="4" height="4" fill="#546E7A"/>
<rect x="32" y="12" width="4" height="4" fill="#546E7A"/>
<rect x="28" y="12" width="4" height="4" fill="#546E7A"/>
<rect x="28" y="8" width="4" height="4" fill="#546E7A"/>
<rect x="24" y="12" width="4" height="4" fill="#546E7A"/>
<rect x="24" y="8" width="4" height="4" fill="#546E7A"/>
<rect x="20" y="12" width="4" height="4" fill="#546E7A"/>
<rect x="20" y="16" width="4" height="4" fill="#546E7A"/>
<rect x="24" y="16" width="4" height="4" fill="#37474F"/>
<rect x="20" y="20" width="4" height="4" fill="#546E7A"/>
<rect x="24" y="20" width="4" height="4" fill="#37474F"/>
<rect x="36" y="40" width="4" height="4" fill="#546E7A"/>
<rect x="36" y="36" width="4" height="4" fill="#546E7A"/>
<rect x="36" y="24" width="4" height="4" fill="#546E7A"/>
<rect x="36" y="28" width="4" height="4" fill="#546E7A"/>
<rect x="36" y="32" width="4" height="4" fill="#546E7A"/>
<rect x="36" y="20" width="4" height="4" fill="#546E7A"/>
<rect x="36" y="16" width="4" height="4" fill="#546E7A"/>
<rect x="24" y="40" width="4" height="4" fill="#37474F"/>
<rect x="24" y="36" width="4" height="4" fill="#37474F"/>
<rect x="92" y="40" width="4" height="4" fill="#546E7A"/>
<rect x="88" y="40" width="4" height="4" fill="#37474F"/>
<rect x="92" y="36" width="4" height="4" fill="#546E7A"/>
<rect x="88" y="36" width="4" height="4" fill="#37474F"/>
<rect x="92" y="24" width="4" height="4" fill="#546E7A"/>
<rect x="92" y="28" width="4" height="4" fill="#546E7A"/>
<rect x="92" y="32" width="4" height="4" fill="#546E7A"/>
<rect x="92" y="20" width="4" height="4" fill="#546E7A"/>
<rect x="92" y="16" width="4" height="4" fill="#546E7A"/>
<rect x="92" y="12" width="4" height="4" fill="#546E7A"/>
<rect x="88" y="12" width="4" height="4" fill="#546E7A"/>
<rect x="88" y="8" width="4" height="4" fill="#546E7A"/>
<rect x="84" y="12" width="4" height="4" fill="#546E7A"/>
<rect x="84" y="8" width="4" height="4" fill="#546E7A"/>
<rect x="80" y="12" width="4" height="4" fill="#546E7A"/>
<rect x="80" y="16" width="4" height="4" fill="#546E7A"/>
<rect x="84" y="16" width="4" height="4" fill="#37474F"/>
<rect x="80" y="20" width="4" height="4" fill="#546E7A"/>
<rect x="84" y="20" width="4" height="4" fill="#37474F"/>
<rect x="96" y="40" width="4" height="4" fill="#546E7A"/>
<rect x="96" y="36" width="4" height="4" fill="#546E7A"/>
<rect x="96" y="24" width="4" height="4" fill="#546E7A"/>
<rect x="96" y="28" width="4" height="4" fill="#546E7A"/>
<rect x="96" y="32" width="4" height="4" fill="#546E7A"/>
<rect x="96" y="20" width="4" height="4" fill="#546E7A"/>
<rect x="96" y="16" width="4" height="4" fill="#546E7A"/>
<rect x="84" y="40" width="4" height="4" fill="#37474F"/>
<rect x="84" y="36" width="4" height="4" fill="#37474F"/>
<rect x="152" y="40" width="4" height="4" fill="#546E7A"/>
<rect x="148" y="40" width="4" height="4" fill="#37474F"/>
<rect x="144" y="40" width="4" height="4" fill="#37474F"/>
<rect x="152" y="36" width="4" height="4" fill="#546E7A"/>
<rect x="148" y="36" width="4" height="4" fill="#37474F"/>
<rect x="144" y="36" width="4" height="4" fill="#37474F"/>
<rect x="152" y="24" width="4" height="4" fill="#546E7A"/>
<rect x="152" y="28" width="4" height="4" fill="#546E7A"/>
<rect x="152" y="32" width="4" height="4" fill="#546E7A"/>
<rect x="152" y="20" width="4" height="4" fill="#546E7A"/>
<rect x="152" y="16" width="4" height="4" fill="#546E7A"/>
<rect x="152" y="12" width="4" height="4" fill="#546E7A"/>
<rect x="148" y="12" width="4" height="4" fill="#546E7A"/>
<rect x="148" y="8" width="4" height="4" fill="#546E7A"/>
<rect x="144" y="12" width="4" height="4" fill="#546E7A"/>
<rect x="144" y="8" width="4" height="4" fill="#546E7A"/>
<rect x="140" y="12" width="4" height="4" fill="#546E7A"/>
<rect x="140" y="16" width="4" height="4" fill="#546E7A"/>
<rect x="144" y="16" width="4" height="4" fill="#37474F"/>
<rect x="140" y="20" width="4" height="4" fill="#546E7A"/>
<rect x="144" y="20" width="4" height="4" fill="#37474F"/>
<rect x="156" y="40" width="4" height="4" fill="#546E7A"/>
<rect x="156" y="36" width="4" height="4" fill="#546E7A"/>
<rect x="156" y="24" width="4" height="4" fill="#546E7A"/>
<rect x="156" y="28" width="4" height="4" fill="#546E7A"/>
<rect x="156" y="32" width="4" height="4" fill="#546E7A"/>
<rect x="156" y="20" width="4" height="4" fill="#546E7A"/>
<rect x="156" y="16" width="4" height="4" fill="#546E7A"/>
<rect x="212" y="40" width="4" height="4" fill="#546E7A"/>
<rect x="208" y="40" width="4" height="4" fill="#37474F"/>
<rect x="212" y="36" width="4" height="4" fill="#546E7A"/>
<rect x="208" y="36" width="4" height="4" fill="#37474F"/>
<rect x="212" y="24" width="4" height="4" fill="#546E7A"/>
<rect x="212" y="28" width="4" height="4" fill="#546E7A"/>
<rect x="212" y="32" width="4" height="4" fill="#546E7A"/>
<rect x="212" y="20" width="4" height="4" fill="#546E7A"/>
<rect x="212" y="16" width="4" height="4" fill="#546E7A"/>
<rect x="212" y="12" width="4" height="4" fill="#546E7A"/>
<rect x="208" y="12" width="4" height="4" fill="#546E7A"/>
<rect x="208" y="8" width="4" height="4" fill="#546E7A"/>
<rect x="204" y="12" width="4" height="4" fill="#546E7A"/>
<rect x="204" y="8" width="4" height="4" fill="#546E7A"/>
<rect x="200" y="12" width="4" height="4" fill="#546E7A"/>
<rect x="200" y="16" width="4" height="4" fill="#546E7A"/>
<rect x="204" y="16" width="4" height="4" fill="#37474F"/>
<rect x="200" y="20" width="4" height="4" fill="#546E7A"/>
<rect x="204" y="20" width="4" height="4" fill="#37474F"/>
<rect x="216" y="40" width="4" height="4" fill="#546E7A"/>
<rect x="216" y="36" width="4" height="4" fill="#546E7A"/>
<rect x="216" y="24" width="4" height="4" fill="#546E7A"/>
<rect x="216" y="28" width="4" height="4" fill="#546E7A"/>
<rect x="216" y="32" width="4" height="4" fill="#546E7A"/>
<rect x="216" y="20" width="4" height="4" fill="#546E7A"/>
<rect x="216" y="16" width="4" height="4" fill="#546E7A"/>
<rect x="204" y="40" width="4" height="4" fill="#37474F"/>
<rect x="204" y="36" width="4" height="4" fill="#37474F"/>
<rect x="272" y="40" width="4" height="4" fill="#546E7A"/>
<rect x="268" y="40" width="4" height="4" fill="#37474F"/>
<rect x="272" y="36" width="4" height="4" fill="#546E7A"/>
<rect x="268" y="36" width="4" height="4" fill="#37474F"/>
<rect x="272" y="24" width="4" height="4" fill="#546E7A"/>
<rect x="272" y="28" width="4" height="4" fill="#546E7A"/>
<rect x="272" y="32" width="4" height="4" fill="#546E7A"/>
<rect x="272" y="20" width="4" height="4" fill="#546E7A"/>
<rect x="272" y="16" width="4" height="4" fill="#546E7A"/>
<rect x="272" y="12" width="4" height="4" fill="#546E7A"/>
<rect x="268" y="12" width="4" height="4" fill="#546E7A"/>
<rect x="268" y="8" width="4" height="4" fill="#546E7A"/>
<rect x="264" y="12" width="4" height="4" fill="#546E7A"/>
<rect x="264" y="8" width="4" height="4" fill="#546E7A"/>
<rect x="260" y="12" width="4" height="4" fill="#546E7A"/>
<rect x="260" y="16" width="4" height="4" fill="#546E7A"/>
<rect x="264" y="16" width="4" height="4" fill="#37474F"/>
<rect x="260" y="20" width="4" height="4" fill="#546E7A"/>
<rect x="264" y="20" width="4" height="4" fill="#37474F"/>
<rect x="276" y="40" width="4" height="4" fill="#546E7A"/>
<rect x="276" y="36" width="4" height="4" fill="#546E7A"/>
<rect x="276" y="24" width="4" height="4" fill="#546E7A"/>
<rect x="276" y="28" width="4" height="4" fill="#546E7A"/>
<rect x="276" y="32" width="4" height="4" fill="#546E7A"/>
<rect x="276" y="20" width="4" height="4" fill="#546E7A"/>
<rect x="276" y="16" width="4" height="4" fill="#546E7A"/>
<rect x="264" y="40" width="4" height="4" fill="#37474F"/>
<rect x="264" y="36" width="4" height="4" fill="#37474F"/>
<rect x="332" y="40" width="4" height="4" fill="#546E7A"/>
<rect x="328" y="40" width="4" height="4" fill="#37474F"/>
<rect x="332" y="36" width="4" height="4" fill="#546E7A"/>
<rect x="328" y="36" width="4" height="4" fill="#37474F"/>
<rect x="332" y="24" width="4" height="4" fill="#546E7A"/>
<rect x="332" y="28" width="4" height="4" fill="#546E7A"/>
<rect x="332" y="32" width="4" height="4" fill="#546E7A"/>
<rect x="332" y="20" width="4" height="4" fill="#546E7A"/>
<rect x="332" y="16" width="4" height="4" fill="#546E7A"/>
<rect x="332" y="12" width="4" height="4" fill="#546E7A"/>
<rect x="328" y="12" width="4" height="4" fill="#546E7A"/>
<rect x="328" y="8" width="4" height="4" fill="#546E7A"/>
<rect x="324" y="12" width="4" height="4" fill="#546E7A"/>
<rect x="324" y="8" width="4" height="4" fill="#546E7A"/>
<rect x="320" y="12" width="4" height="4" fill="#546E7A"/>
<rect x="320" y="16" width="4" height="4" fill="#546E7A"/>
<rect x="324" y="16" width="4" height="4" fill="#37474F"/>
<rect x="320" y="20" width="4" height="4" fill="#546E7A"/>
<rect x="324" y="20" width="4" height="4" fill="#37474F"/>
<rect x="336" y="40" width="4" height="4" fill="#546E7A"/>
<rect x="336" y="36" width="4" height="4" fill="#546E7A"/>
<rect x="336" y="24" width="4" height="4" fill="#546E7A"/>
<rect x="336" y="28" width="4" height="4" fill="#546E7A"/>
<rect x="336" y="32" width="4" height="4" fill="#546E7A"/>
<rect x="336" y="20" width="4" height="4" fill="#546E7A"/>
<rect x="336" y="16" width="4" height="4" fill="#546E7A"/>
<rect x="324" y="40" width="4" height="4" fill="#37474F"/>
<rect x="324" y="36" width="4" height="4" fill="#37474F"/>
<rect y="28" width="4" height="4" fill="white"/>
<rect x="4" y="24" width="4" height="4" fill="white"/>
<rect x="8" y="20" width="4" height="4" fill="white"/>
<rect x="12" y="20" width="4" height="4" fill="white"/>
<rect x="16" y="20" width="4" height="4" fill="white"/>
<rect x="28" y="20" width="4" height="4" fill="white"/>
<rect x="40" y="20" width="4" height="4" fill="white"/>
<rect x="44" y="20" width="4" height="4" fill="white"/>
<rect x="48" y="20" width="4" height="4" fill="white"/>
<rect x="52" y="20" width="4" height="4" fill="white"/>
<rect x="56" y="20" width="4" height="4" fill="white"/>
<rect x="60" y="20" width="4" height="4" fill="white"/>
<rect x="64" y="20" width="4" height="4" fill="white"/>
<rect x="68" y="20" width="4" height="4" fill="white"/>
<rect x="72" y="20" width="4" height="4" fill="white"/>
<rect x="76" y="20" width="4" height="4" fill="white"/>
<rect x="88" y="20" width="4" height="4" fill="white"/>
<rect x="100" y="20" width="4" height="4" fill="white"/>
<rect x="104" y="20" width="4" height="4" fill="white"/>
<rect x="108" y="20" width="4" height="4" fill="white"/>
<rect x="112" y="20" width="4" height="4" fill="white"/>
<rect x="116" y="20" width="4" height="4" fill="white"/>
<rect x="120" y="20" width="4" height="4" fill="white"/>
<rect x="124" y="20" width="4" height="4" fill="white"/>
<rect x="128" y="20" width="4" height="4" fill="white"/>
<rect x="132" y="20" width="4" height="4" fill="white"/>
<rect x="136" y="20" width="4" height="4" fill="white"/>
<rect x="148" y="20" width="4" height="4" fill="white"/>
<rect x="160" y="20" width="4" height="4" fill="white"/>
<rect x="164" y="20" width="4" height="4" fill="white"/>
<rect x="168" y="20" width="4" height="4" fill="white"/>
<rect x="172" y="20" width="4" height="4" fill="white"/>
<rect x="176" y="20" width="4" height="4" fill="white"/>
<rect x="180" y="20" width="4" height="4" fill="white"/>
<rect x="184" y="20" width="4" height="4" fill="white"/>
<rect x="188" y="20" width="4" height="4" fill="white"/>
<rect x="192" y="20" width="4" height="4" fill="white"/>
<rect x="196" y="20" width="4" height="4" fill="white"/>
<rect x="208" y="20" width="4" height="4" fill="white"/>
<rect x="220" y="20" width="4" height="4" fill="white"/>
<rect x="228" y="20" width="4" height="4" fill="white"/>
<rect x="232" y="20" width="4" height="4" fill="white"/>
<rect x="236" y="20" width="4" height="4" fill="white"/>
<rect x="240" y="20" width="4" height="4" fill="white"/>
<rect x="244" y="20" width="4" height="4" fill="white"/>
<rect x="248" y="20" width="4" height="4" fill="white"/>
<rect x="252" y="20" width="4" height="4" fill="white"/>
<rect x="256" y="20" width="4" height="4" fill="white"/>
<rect x="268" y="20" width="4" height="4" fill="white"/>
<rect x="280" y="20" width="4" height="4" fill="white"/>
<rect x="284" y="20" width="4" height="4" fill="white"/>
<rect x="288" y="20" width="4" height="4" fill="white"/>
<rect x="292" y="20" width="4" height="4" fill="white"/>
<rect x="296" y="20" width="4" height="4" fill="white"/>
<rect x="300" y="20" width="4" height="4" fill="white"/>
<rect x="304" y="20" width="4" height="4" fill="white"/>
<rect x="308" y="20" width="4" height="4" fill="white"/>
<rect x="312" y="20" width="4" height="4" fill="white"/>
<rect x="316" y="20" width="4" height="4" fill="white"/>
<rect x="328" y="20" width="4" height="4" fill="white"/>
<rect x="340" y="20" width="4" height="4" fill="white"/>
<rect x="344" y="20" width="4" height="4" fill="white"/>
<rect x="348" y="20" width="4" height="4" fill="white"/>
<rect x="352" y="24" width="4" height="4" fill="white"/>
<rect x="356" y="28" width="4" height="4" fill="white"/>
<rect x="224" y="20" width="4" height="4" fill="white"/>
</svg>
