<svg width="100%" height="100%" viewBox="0 0 100% 20" fill="none" xmlns="http://www.w3.org/2000/svg">
<rect x="3.33334" width="10" height="16.6667" fill="white"/>
<rect x="16.6667" width="10" height="16.6667" fill="white"/>
<rect y="2.22223" width="1.11111" height="16.6667" fill="#37474F"/>
<rect x="2.2222" width="1.11111" height="16.6667" fill="#37474F"/>
<rect x="20" width="1.11111" height="8.05555" fill="#37474F"/>
<rect x="24.4444" width="1.11111" height="8.05555" fill="#37474F"/>
<rect x="26.6668" width="1.11111" height="16.6667" fill="#37474F"/>
<rect x="15.5556" y="2.22223" width="1.11111" height="12.2222" fill="#CFD8DB"/>
<rect x="13.3334" y="2.22223" width="1.11111" height="12.2222" fill="#CFD8DB"/>
<rect x="14.4444" y="2.22223" width="1.11111" height="12.2222" fill="#37474F"/>
<rect x="28.8888" y="2.22223" width="1.11111" height="16.6667" fill="#37474F"/>
<rect x="15.5556" y="1.1111" width="1.11111" height="1.11111" fill="#37474F"/>
<rect x="23.3332" y="5.55554" width="1.11111" height="1.11111" fill="#37474F"/>
<rect x="22.2223" y="4.44446" width="1.11111" height="1.11111" fill="#37474F"/>
<rect x="21.1112" y="5.55554" width="1.11111" height="1.11111" fill="#37474F"/>
<rect x="15.5556" y="14.4445" width="1.11111" height="1.11111" fill="#37474F"/>
<rect x="13.3334" y="1.1111" width="1.11111" height="1.11111" fill="#37474F"/>
<rect x="13.3334" y="14.4445" width="1.11111" height="1.11111" fill="#37474F"/>
<rect y="2.22223" width="2.22222" height="1.11111" fill="#37474F"/>
<rect x="27.7776" y="2.22223" width="2.22222" height="1.11111" fill="#37474F"/>
<rect x="3.33344" width="10" height="1.11111" fill="#37474F"/>
<rect x="3.33344" y="15.5555" width="10" height="1.11111" fill="#37474F"/>
<rect x="16.6666" width="10" height="1.11111" fill="#37474F"/>
<rect x="16.6666" y="15.5555" width="10" height="1.11111" fill="#37474F"/>
<rect y="18.8889" width="30" height="1.11111" fill="#37474F"/>
<rect x="27.7776" y="3.19446" width="1.11111" height="14.5833" fill="#FFA202"/>
<rect x="1.11115" y="3.19446" width="1.11111" height="14.5833" fill="#FFA202"/>
<rect x="2.2222" y="16.6667" width="25.5555" height="1.11111" fill="#FFA202"/>
<rect x="14.4444" y="14.4445" width="1.11111" height="1.11111" fill="#FF5601"/>
<rect x="13.3334" y="15.5555" width="3.33333" height="1.11111" fill="#FF5601"/>
<rect x="16.6666" y="16.6667" width="11.1111" height="1.11111" fill="#FF5601"/>
<rect x="2.2222" y="16.6667" width="11.1111" height="1.11111" fill="#FF5601"/>
<rect x="1.11115" y="17.7778" width="27.7778" height="1.11111" fill="#FFA202"/>
<rect x="21.1112" y="1.1111" width="1.11111" height="4.44444" fill="#FF5601"/>
<rect x="23.3332" y="1.1111" width="1.11111" height="4.44444" fill="#FF5601"/>
<rect x="22.2223" y="1.1111" width="1.11111" height="3.33333" fill="#FF5601"/>
<path d="M51.5 1.75H53V6.25H54.5V7.75H53V13.75H51.5V1.75ZM38 10.75V1.75H47V10.75H38ZM47 15.25H50V16.75H47V15.25ZM47 12.25V15.25H45.5V12.25H47ZM50 16.75H53V18.25H50V16.75ZM39.5 18.25V16.75H42.5V18.25H39.5ZM39.5 9.25H45.5V3.25H39.5V9.25ZM42.5 16.75V15.25H45.5V16.75H42.5Z" fill="#37474F"/>
<path d="M69.5 1.75H71V18.25H69.5V12.25H66.5V10.75H69.5V7.75H66.5V6.25H69.5V1.75ZM56 16.75V15.25H57.5V16.75H56ZM59 15.25H57.5V12.25H59V15.25ZM59 12.25V9.25H60.5V12.25H59ZM62 12.25V9.25H63.5V12.25H62ZM62 9.25H60.5V1.75H62V9.25ZM65 15.25H63.5V12.25H65V15.25ZM65 16.75V15.25H66.5V16.75H65Z" fill="#37474F"/>
<path d="M87.5 1.75H89V18.25H87.5V9.25H81.5V7.75H87.5V1.75ZM74 16.75V1.75H75.5V15.25H84.5V16.75H74Z" fill="#37474F"/>
<path d="M105.5 1.75H107V18.25H105.5V1.75ZM92 16.75V7.75H99.5V3.25H92V1.75H101V9.25H93.5V15.25H102.5V16.75H92Z" fill="#37474F"/>
</svg>
