<svg width="100%" height="100%" viewBox="0 0 80 80" fill="none" xmlns="http://www.w3.org/2000/svg">
<g clip-path="url(#clip0_2002_2745)">
<rect x="9.20023" y="13.6" width="26.4" height="44" fill="white"/>
<rect x="44.3998" y="13.6" width="26.4" height="44" fill="white"/>
<rect x="0.399994" y="19.4667" width="2.93333" height="44.0001" fill="#37474F"/>
<rect x="6.2663" y="13.6" width="2.93333" height="44.0001" fill="#37474F"/>
<rect x="53.2" y="13.6" width="2.93333" height="21.2667" fill="#37474F"/>
<rect x="64.9333" y="13.6" width="2.93333" height="21.2667" fill="#37474F"/>
<rect x="70.8" y="13.6" width="2.93333" height="44.0001" fill="#37474F"/>
<rect x="41.4668" y="19.4667" width="2.93333" height="32.2667" fill="#CFD8DB"/>
<rect x="35.6003" y="19.4667" width="2.93333" height="32.2667" fill="#CFD8DB"/>
<rect x="38.5332" y="19.4667" width="2.93333" height="32.2667" fill="#37474F"/>
<rect x="76.6666" y="19.4667" width="2.93333" height="44.0001" fill="#37474F"/>
<rect x="41.4668" y="16.5334" width="2.93333" height="2.93333" fill="#37474F"/>
<rect x="61.9999" y="28.2666" width="2.93333" height="2.93333" fill="#37474F"/>
<rect x="59.0667" y="25.3334" width="2.93333" height="2.93333" fill="#37474F"/>
<rect x="56.1334" y="28.2666" width="2.93333" height="2.93333" fill="#37474F"/>
<rect x="41.4668" y="51.7334" width="2.93333" height="2.93333" fill="#37474F"/>
<rect x="35.6003" y="16.5334" width="2.93333" height="2.93333" fill="#37474F"/>
<rect x="35.6003" y="51.7334" width="2.93333" height="2.93333" fill="#37474F"/>
<rect x="0.399994" y="19.4667" width="5.86667" height="2.93333" fill="#37474F"/>
<rect x="73.7327" y="19.4667" width="5.86667" height="2.93333" fill="#37474F"/>
<rect x="9.20038" y="13.6" width="26.4" height="2.93333" fill="#37474F"/>
<rect x="9.20038" y="54.6666" width="26.4" height="2.93333" fill="#37474F"/>
<rect x="44.3997" y="13.6" width="26.4" height="2.93333" fill="#37474F"/>
<rect x="44.3997" y="54.6666" width="26.4" height="2.93333" fill="#37474F"/>
<rect x="0.399994" y="63.4667" width="79.2" height="2.93333" fill="#37474F"/>
<rect x="73.7327" y="22.0334" width="2.93333" height="38.4999" fill="#FFA202"/>
<rect x="3.33325" y="22.0334" width="2.93333" height="38.4999" fill="#FFA202"/>
<rect x="6.2663" y="57.6001" width="67.4667" height="2.93333" fill="#FFA202"/>
<rect x="38.5332" y="51.7334" width="2.93333" height="2.93333" fill="#FF5601"/>
<rect x="35.6003" y="54.6666" width="8.8" height="2.93333" fill="#FF5601"/>
<rect x="44.3997" y="57.6001" width="29.3333" height="2.93333" fill="#FF5601"/>
<rect x="6.2663" y="57.6001" width="29.3333" height="2.93333" fill="#FF5601"/>
<rect x="3.33325" y="60.5333" width="73.3333" height="2.93333" fill="#FFA202"/>
<rect x="56.1334" y="16.5334" width="2.93333" height="11.7333" fill="#FF5601"/>
<rect x="61.9999" y="16.5334" width="2.93333" height="11.7333" fill="#FF5601"/>
<rect x="59.0667" y="16.5334" width="2.93333" height="8.8" fill="#FF5601"/>
</g>
<defs>
<clipPath id="clip0_2002_2745">
<rect width="80" height="80" fill="white"/>
</clipPath>
</defs>
</svg>
