<svg width="24" height="24" viewBox="0 0 32 32" fill="none" xmlns="http://www.w3.org/2000/svg">
<rect x="15" y="28" width="2" height="2" fill="#37474F"/>
<rect x="17" y="28" width="2" height="2" fill="#37474F"/>
<rect width="2" height="2" transform="matrix(-1 0 0 1 15 28)" fill="#37474F"/>
<rect x="19" y="28" width="2" height="2" fill="#37474F"/>
<rect width="2" height="2" transform="matrix(-1 0 0 1 13 28)" fill="#37474F"/>
<rect x="21" y="28" width="2" height="2" fill="#37474F"/>
<rect width="2" height="2" transform="matrix(-1 0 0 1 11 28)" fill="#37474F"/>
<rect x="23" y="28" width="2" height="2" fill="#37474F"/>
<rect width="2" height="2" transform="matrix(-1 0 0 1 9 28)" fill="#37474F"/>
<rect x="25" y="28" width="2" height="2" fill="#37474F"/>
<rect width="2" height="2" transform="matrix(-1 0 0 1 7 28)" fill="#37474F"/>
<rect x="25" y="26" width="2" height="2" fill="#37474F"/>
<rect width="2" height="2" transform="matrix(-1 0 0 1 7 26)" fill="#37474F"/>
<rect width="2" height="2" transform="matrix(-1 0 0 1 9 24)" fill="#37474F"/>
<rect x="23" y="24" width="2" height="2" fill="#37474F"/>
<rect width="2" height="2" transform="matrix(-1 0 0 1 11 22)" fill="#37474F"/>
<rect x="21" y="22" width="2" height="2" fill="#37474F"/>
<rect width="2" height="2" transform="matrix(-1 0 0 1 13 20)" fill="#37474F"/>
<rect x="19" y="20" width="2" height="2" fill="#37474F"/>
<rect width="2" height="2" transform="matrix(-1 0 0 1 15 20)" fill="#37474F"/>
<rect x="17" y="20" width="2" height="2" fill="#37474F"/>
<rect width="2" height="2" transform="matrix(-1 0 0 1 19 16)" fill="#37474F"/>
<rect x="13" y="16" width="2" height="2" fill="#37474F"/>
<rect x="15" y="16" width="2" height="2" fill="#37474F"/>
<rect width="2" height="2" transform="matrix(-1 0 0 1 21 14)" fill="#37474F"/>
<rect x="11" y="14" width="2" height="2" fill="#37474F"/>
<rect width="2" height="2" transform="matrix(-1 0 0 1 23 12)" fill="#37474F"/>
<rect x="9" y="12" width="2" height="2" fill="#37474F"/>
<rect width="2" height="2" transform="matrix(-1 0 0 1 23 10)" fill="#37474F"/>
<rect x="9" y="10" width="2" height="2" fill="#37474F"/>
<rect width="2" height="2" transform="matrix(-1 0 0 1 23 8)" fill="#37474F"/>
<rect x="9" y="8" width="2" height="2" fill="#37474F"/>
<rect width="2" height="2" transform="matrix(-1 0 0 1 21 6)" fill="#37474F"/>
<rect x="11" y="6" width="2" height="2" fill="#37474F"/>
<rect width="2" height="2" transform="matrix(-1 0 0 1 19 4)" fill="#37474F"/>
<rect x="13" y="4" width="2" height="2" fill="#37474F"/>
<rect x="15" y="4" width="2" height="2" fill="#37474F"/>
<rect x="15" y="20" width="2" height="2" fill="#37474F"/>
<rect x="13" y="6" width="2" height="2" fill="#FED750"/>
<rect x="13" y="8" width="2" height="2" fill="#FFA202"/>
<rect x="13" y="10" width="2" height="2" fill="#FFA202"/>
<rect x="13" y="12" width="2" height="2" fill="#FFA202"/>
<rect x="13" y="14" width="2" height="2" fill="#FF7002"/>
<rect x="13" y="22" width="2" height="2" fill="#FED750"/>
<rect x="13" y="24" width="2" height="2" fill="#FFA202"/>
<rect x="13" y="26" width="2" height="2" fill="#FF7002"/>
<rect x="11" y="22" width="2" height="2" fill="#FED750"/>
<rect x="11" y="24" width="2" height="2" fill="#FFA202"/>
<rect x="11" y="26" width="2" height="2" fill="#FF7002"/>
<rect x="9" y="24" width="2" height="2" fill="#FED750"/>
<rect x="9" y="26" width="2" height="2" fill="#FF7002"/>
<rect x="7" y="26" width="2" height="2" fill="#FED750"/>
<rect x="15" y="6" width="2" height="2" fill="#FED750"/>
<rect x="15" y="8" width="2" height="2" fill="#FFA202"/>
<rect x="15" y="10" width="2" height="2" fill="#FFA202"/>
<rect x="15" y="12" width="2" height="2" fill="#FFA202"/>
<rect x="15" y="14" width="2" height="2" fill="#FF7002"/>
<rect x="15" y="22" width="2" height="2" fill="#FED750"/>
<rect x="15" y="24" width="2" height="2" fill="#FFA202"/>
<rect x="15" y="26" width="2" height="2" fill="#FF7002"/>
<rect x="17" y="6" width="2" height="2" fill="#FED750"/>
<rect x="17" y="8" width="2" height="2" fill="#FFA202"/>
<rect x="19" y="8" width="2" height="2" fill="#FF7002"/>
<rect x="11" y="8" width="2" height="2" fill="#FED750"/>
<rect x="17" y="10" width="2" height="2" fill="#FFA202"/>
<rect x="19" y="10" width="2" height="2" fill="#FF7002"/>
<rect x="11" y="10" width="2" height="2" fill="#FED750"/>
<rect x="17" y="12" width="2" height="2" fill="#FFA202"/>
<rect x="19" y="12" width="2" height="2" fill="#FF7002"/>
<rect x="11" y="12" width="2" height="2" fill="#FED750"/>
<rect x="17" y="14" width="2" height="2" fill="#FF7002"/>
<rect x="17" y="22" width="2" height="2" fill="#FED750"/>
<rect x="17" y="24" width="2" height="2" fill="#FFA202"/>
<rect x="17" y="26" width="2" height="2" fill="#FF7002"/>
<rect x="21" y="26" width="2" height="2" fill="#FF7002"/>
<rect x="21" y="24" width="2" height="2" fill="#FFA202"/>
<rect x="19" y="22" width="2" height="2" fill="#FED750"/>
<rect x="19" y="24" width="2" height="2" fill="#FFA202"/>
<rect x="19" y="26" width="2" height="2" fill="#FF7002"/>
<rect x="23" y="26" width="2" height="2" fill="#FF7002"/>
</svg>
