<svg width="72" height="72" viewBox="0 0 72 72" fill="none" xmlns="http://www.w3.org/2000/svg">
<rect x="14" y="28" width="4" height="4" transform="rotate(180 14 28)" fill="#37474F"/>
<rect x="14" y="32" width="4" height="4" transform="rotate(180 14 32)" fill="#37474F"/>
<rect x="14" y="36" width="4" height="4" transform="rotate(180 14 36)" fill="#37474F"/>
<rect x="18" y="40" width="4" height="4" transform="rotate(180 18 40)" fill="#37474F"/>
<rect x="18" y="44" width="4" height="4" transform="rotate(180 18 44)" fill="#37474F"/>
<rect x="58" y="44" width="4" height="4" transform="rotate(180 58 44)" fill="#37474F"/>
<rect x="18" y="48" width="4" height="4" transform="rotate(180 18 48)" fill="#37474F"/>
<rect x="58" y="48" width="4" height="4" transform="rotate(180 58 48)" fill="#37474F"/>
<rect x="18" y="52" width="4" height="4" transform="rotate(180 18 52)" fill="#37474F"/>
<rect x="58" y="52" width="4" height="4" transform="rotate(180 58 52)" fill="#37474F"/>
<rect x="18" y="56" width="4" height="4" transform="rotate(180 18 56)" fill="#37474F"/>
<rect x="58" y="56" width="4" height="4" transform="rotate(180 58 56)" fill="#37474F"/>
<rect x="18" y="60" width="4" height="4" transform="rotate(180 18 60)" fill="#37474F"/>
<rect x="58" y="60" width="4" height="4" transform="rotate(180 58 60)" fill="#37474F"/>
<rect x="54" y="60" width="4" height="4" transform="rotate(180 54 60)" fill="#37474F"/>
<rect x="50" y="60" width="4" height="4" transform="rotate(180 50 60)" fill="#37474F"/>
<rect x="46" y="60" width="4" height="4" transform="rotate(180 46 60)" fill="#37474F"/>
<rect x="42" y="60" width="4" height="4" transform="rotate(180 42 60)" fill="#37474F"/>
<rect x="38" y="60" width="4" height="4" transform="rotate(180 38 60)" fill="#37474F"/>
<rect x="34" y="56" width="4" height="4" transform="rotate(180 34 56)" fill="#37474F"/>
<rect x="34" y="52" width="4" height="4" transform="rotate(180 34 52)" fill="#37474F"/>
<rect x="34" y="60" width="4" height="4" transform="rotate(180 34 60)" fill="#37474F"/>
<rect x="34" y="48" width="4" height="4" transform="rotate(180 34 48)" fill="#37474F"/>
<rect x="30" y="48" width="4" height="4" transform="rotate(180 30 48)" fill="#37474F"/>
<rect x="26" y="60" width="4" height="4" transform="rotate(180 26 60)" fill="#37474F"/>
<rect x="26" y="56" width="4" height="4" transform="rotate(180 26 56)" fill="#37474F"/>
<rect x="26" y="52" width="4" height="4" transform="rotate(180 26 52)" fill="#37474F"/>
<rect x="26" y="48" width="4" height="4" transform="rotate(180 26 48)" fill="#37474F"/>
<rect x="22" y="60" width="4" height="4" transform="rotate(180 22 60)" fill="#37474F"/>
<rect x="30" y="40" width="4" height="4" transform="rotate(180 30 40)" fill="#37474F"/>
<rect x="42" y="40" width="4" height="4" transform="rotate(180 42 40)" fill="#37474F"/>
<rect x="54" y="40" width="4" height="4" transform="rotate(180 54 40)" fill="#37474F"/>
<rect x="22" y="40" width="4" height="4" transform="rotate(180 22 40)" fill="#37474F"/>
<rect x="34" y="40" width="4" height="4" transform="rotate(180 34 40)" fill="#37474F"/>
<rect x="46" y="40" width="4" height="4" transform="rotate(180 46 40)" fill="#37474F"/>
<rect x="58" y="40" width="4" height="4" transform="rotate(180 58 40)" fill="#37474F"/>
<rect x="26" y="36" width="4" height="4" transform="rotate(180 26 36)" fill="#37474F"/>
<rect x="38" y="36" width="4" height="4" transform="rotate(180 38 36)" fill="#37474F"/>
<rect x="50" y="36" width="4" height="4" transform="rotate(180 50 36)" fill="#37474F"/>
<rect x="62" y="36" width="4" height="4" transform="rotate(180 62 36)" fill="#37474F"/>
<rect x="62" y="32" width="4" height="4" transform="rotate(180 62 32)" fill="#37474F"/>
<rect x="58" y="24" width="4" height="4" transform="rotate(180 58 24)" fill="#37474F"/>
<rect x="18" y="24" width="4" height="4" transform="rotate(180 18 24)" fill="#37474F"/>
<rect x="62" y="28" width="4" height="4" transform="rotate(180 62 28)" fill="#37474F"/>
<rect x="58" y="20" width="4" height="4" transform="rotate(180 58 20)" fill="#37474F"/>
<rect x="18" y="20" width="4" height="4" transform="rotate(180 18 20)" fill="#37474F"/>
<rect x="22" y="16" width="4" height="4" transform="rotate(180 22 16)" fill="#37474F"/>
<rect x="26" y="16" width="4" height="4" transform="rotate(180 26 16)" fill="#37474F"/>
<rect x="30" y="16" width="4" height="4" transform="rotate(180 30 16)" fill="#37474F"/>
<rect x="34" y="16" width="4" height="4" transform="rotate(180 34 16)" fill="#37474F"/>
<rect x="38" y="16" width="4" height="4" transform="rotate(180 38 16)" fill="#37474F"/>
<rect x="42" y="16" width="4" height="4" transform="rotate(180 42 16)" fill="#37474F"/>
<rect x="46" y="16" width="4" height="4" transform="rotate(180 46 16)" fill="#37474F"/>
<rect x="50" y="16" width="4" height="4" transform="rotate(180 50 16)" fill="#37474F"/>
<rect x="54" y="16" width="4" height="4" transform="rotate(180 54 16)" fill="#37474F"/>
<rect x="22" y="20" width="4" height="4" transform="rotate(180 22 20)" fill="#FED750"/>
<rect x="34" y="20" width="4" height="4" transform="rotate(180 34 20)" fill="#FED750"/>
<rect x="46" y="20" width="4" height="4" transform="rotate(180 46 20)" fill="#FED750"/>
<rect x="42" y="20" width="4" height="4" transform="rotate(180 42 20)" fill="#FED750"/>
<rect x="30" y="20" width="4" height="4" transform="rotate(180 30 20)" fill="#FED750"/>
<rect x="30" y="24" width="4" height="4" transform="rotate(180 30 24)" fill="#FFA202"/>
<rect width="4" height="4" transform="matrix(1 0 0 -1 50 20)" fill="#FFA202"/>
<rect x="22" y="24" width="4" height="4" transform="rotate(180 22 24)" fill="#FED750"/>
<rect x="34" y="24" width="4" height="4" transform="rotate(180 34 24)" fill="#FFA202"/>
<rect x="46" y="24" width="4" height="4" transform="rotate(180 46 24)" fill="#FFA202"/>
<rect x="42" y="24" width="4" height="4" transform="rotate(180 42 24)" fill="#FFA202"/>
<rect width="4" height="4" transform="matrix(1 0 0 -1 50 24)" fill="#FFA202"/>
<rect x="22" y="28" width="4" height="4" transform="rotate(180 22 28)" fill="#FFA202"/>
<rect x="34" y="28" width="4" height="4" transform="rotate(180 34 28)" fill="#FFA202"/>
<rect x="46" y="28" width="4" height="4" transform="rotate(180 46 28)" fill="#FFA202"/>
<rect width="4" height="4" transform="matrix(1 0 0 -1 50 28)" fill="#FFA202"/>
<rect x="18" y="28" width="4" height="4" transform="rotate(180 18 28)" fill="#FED750"/>
<rect x="30" y="28" width="4" height="4" transform="rotate(180 30 28)" fill="#FFA202"/>
<rect x="42" y="28" width="4" height="4" transform="rotate(180 42 28)" fill="#FFA202"/>
<rect width="4" height="4" transform="matrix(1 0 0 -1 54 28)" fill="#FFA202"/>
<rect x="22" y="32" width="4" height="4" transform="rotate(180 22 32)" fill="#FFA202"/>
<rect x="34" y="32" width="4" height="4" transform="rotate(180 34 32)" fill="#FFA202"/>
<rect x="46" y="32" width="4" height="4" transform="rotate(180 46 32)" fill="#FFA202"/>
<rect width="4" height="4" transform="matrix(1 0 0 -1 50 32)" fill="#FFA202"/>
<rect x="18" y="32" width="4" height="4" transform="rotate(180 18 32)" fill="#FFA202"/>
<rect x="30" y="32" width="4" height="4" transform="rotate(180 30 32)" fill="#FFA202"/>
<rect x="42" y="32" width="4" height="4" transform="rotate(180 42 32)" fill="#FFA202"/>
<rect width="4" height="4" transform="matrix(1 0 0 -1 54 32)" fill="#FFA202"/>
<rect x="22" y="36" width="4" height="4" transform="rotate(180 22 36)" fill="#FFA202"/>
<rect x="34" y="36" width="4" height="4" transform="rotate(180 34 36)" fill="#FFA202"/>
<rect x="46" y="36" width="4" height="4" transform="rotate(180 46 36)" fill="#FFA202"/>
<rect width="4" height="4" transform="matrix(1 0 0 -1 50 36)" fill="#FFA202"/>
<rect x="18" y="36" width="4" height="4" transform="rotate(180 18 36)" fill="#FFA202"/>
<rect x="30" y="36" width="4" height="4" transform="rotate(180 30 36)" fill="#FFA202"/>
<rect x="42" y="36" width="4" height="4" transform="rotate(180 42 36)" fill="#FFA202"/>
<rect width="4" height="4" transform="matrix(1 0 0 -1 54 36)" fill="#FFA202"/>
<rect x="42" y="56" width="4" height="4" transform="rotate(180 42 56)" fill="white"/>
<rect x="38" y="56" width="4" height="4" transform="rotate(180 38 56)" fill="white"/>
<rect x="42" y="52" width="4" height="4" transform="rotate(180 42 52)" fill="white"/>
<rect x="38" y="52" width="4" height="4" transform="rotate(180 38 52)" fill="white"/>
<rect x="14" y="60" width="4" height="4" transform="rotate(180 14 60)" fill="white"/>
<rect x="14" y="56" width="4" height="4" transform="rotate(180 14 56)" fill="white"/>
<rect x="14" y="52" width="4" height="4" transform="rotate(180 14 52)" fill="white"/>
<rect x="14" y="48" width="4" height="4" transform="rotate(180 14 48)" fill="white"/>
<rect x="14" y="44" width="4" height="4" transform="rotate(180 14 44)" fill="white"/>
<rect x="14" y="40" width="4" height="4" transform="rotate(180 14 40)" fill="white"/>
<rect x="10" y="36" width="4" height="4" transform="rotate(180 10 36)" fill="white"/>
<rect x="10" y="32" width="4" height="4" transform="rotate(180 10 32)" fill="white"/>
<rect x="10" y="28" width="4" height="4" transform="rotate(180 10 28)" fill="white"/>
<rect x="14" y="24" width="4" height="4" transform="rotate(180 14 24)" fill="white"/>
<rect x="14" y="20" width="4" height="4" transform="rotate(180 14 20)" fill="white"/>
<rect x="14" y="16" width="4" height="4" transform="rotate(180 14 16)" fill="white"/>
<rect x="18" y="16" width="4" height="4" transform="rotate(180 18 16)" fill="white"/>
<rect x="18" y="12" width="4" height="4" transform="rotate(180 18 12)" fill="white"/>
<rect x="22" y="12" width="4" height="4" transform="rotate(180 22 12)" fill="white"/>
<rect x="26" y="12" width="4" height="4" transform="rotate(180 26 12)" fill="white"/>
<rect x="30" y="12" width="4" height="4" transform="rotate(180 30 12)" fill="white"/>
<rect x="34" y="12" width="4" height="4" transform="rotate(180 34 12)" fill="white"/>
<rect x="38" y="12" width="4" height="4" transform="rotate(180 38 12)" fill="white"/>
<rect x="42" y="12" width="4" height="4" transform="rotate(180 42 12)" fill="white"/>
<rect x="46" y="12" width="4" height="4" transform="rotate(180 46 12)" fill="white"/>
<rect x="50" y="12" width="4" height="4" transform="rotate(180 50 12)" fill="white"/>
<rect x="54" y="12" width="4" height="4" transform="rotate(180 54 12)" fill="white"/>
<rect x="58" y="12" width="4" height="4" transform="rotate(180 58 12)" fill="white"/>
<rect x="58" y="16" width="4" height="4" transform="rotate(180 58 16)" fill="white"/>
<rect x="62" y="16" width="4" height="4" transform="rotate(180 62 16)" fill="white"/>
<rect x="62" y="20" width="4" height="4" transform="rotate(180 62 20)" fill="white"/>
<rect x="62" y="24" width="4" height="4" transform="rotate(180 62 24)" fill="white"/>
<rect x="66" y="24" width="4" height="4" transform="rotate(180 66 24)" fill="white"/>
<rect x="66" y="28" width="4" height="4" transform="rotate(180 66 28)" fill="white"/>
<rect x="66" y="32" width="4" height="4" transform="rotate(180 66 32)" fill="white"/>
<rect x="66" y="36" width="4" height="4" transform="rotate(180 66 36)" fill="white"/>
<rect x="66" y="40" width="4" height="4" transform="rotate(180 66 40)" fill="white"/>
<rect x="62" y="40" width="4" height="4" transform="rotate(180 62 40)" fill="white"/>
<rect x="62" y="44" width="4" height="4" transform="rotate(180 62 44)" fill="white"/>
<rect x="62" y="48" width="4" height="4" transform="rotate(180 62 48)" fill="white"/>
<rect x="62" y="52" width="4" height="4" transform="rotate(180 62 52)" fill="white"/>
<rect x="62" y="56" width="4" height="4" transform="rotate(180 62 56)" fill="white"/>
<rect x="62" y="60" width="4" height="4" transform="rotate(180 62 60)" fill="white"/>
<rect x="62" y="64" width="4" height="4" transform="rotate(180 62 64)" fill="white"/>
<rect x="58" y="64" width="4" height="4" transform="rotate(180 58 64)" fill="white"/>
<rect x="54" y="64" width="4" height="4" transform="rotate(180 54 64)" fill="white"/>
<rect x="50" y="64" width="4" height="4" transform="rotate(180 50 64)" fill="white"/>
<rect x="46" y="64" width="4" height="4" transform="rotate(180 46 64)" fill="white"/>
<rect x="42" y="64" width="4" height="4" transform="rotate(180 42 64)" fill="white"/>
<rect x="38" y="64" width="4" height="4" transform="rotate(180 38 64)" fill="white"/>
<rect x="34" y="64" width="4" height="4" transform="rotate(180 34 64)" fill="white"/>
<rect x="30" y="64" width="4" height="4" transform="rotate(180 30 64)" fill="white"/>
<rect x="30" y="60" width="4" height="4" transform="rotate(180 30 60)" fill="white"/>
<rect x="30" y="56" width="4" height="4" transform="rotate(180 30 56)" fill="white"/>
<rect x="30" y="52" width="4" height="4" transform="rotate(180 30 52)" fill="white"/>
<rect x="26" y="64" width="4" height="4" transform="rotate(180 26 64)" fill="white"/>
<rect x="22" y="64" width="4" height="4" transform="rotate(180 22 64)" fill="white"/>
<rect x="18" y="64" width="4" height="4" transform="rotate(180 18 64)" fill="white"/>
<rect x="14" y="64" width="4" height="4" transform="rotate(180 14 64)" fill="white"/>
<rect x="10" y="24" width="4" height="4" transform="rotate(180 10 24)" fill="white"/>
<rect x="10" y="40" width="4" height="4" transform="rotate(180 10 40)" fill="white"/>
<rect x="6" y="40" width="4" height="4" transform="rotate(180 6 40)" fill="#FFC30B"/>
<rect x="6" y="36" width="4" height="4" transform="rotate(180 6 36)" fill="#FFC30B"/>
<rect x="6" y="32" width="4" height="4" transform="rotate(180 6 32)" fill="#FFC30B"/>
<rect x="6" y="28" width="4" height="4" transform="rotate(180 6 28)" fill="#FFC30B"/>
<rect x="6" y="24" width="4" height="4" transform="rotate(180 6 24)" fill="#FFC30B"/>
<rect x="10" y="20" width="4" height="4" transform="rotate(180 10 20)" fill="#FFC30B"/>
<rect x="10" y="16" width="4" height="4" transform="rotate(180 10 16)" fill="#FFC30B"/>
<rect x="14" y="12" width="4" height="4" transform="rotate(180 14 12)" fill="#FFC30B"/>
<rect x="18" y="8" width="4" height="4" transform="rotate(180 18 8)" fill="#FFC30B"/>
<rect x="22" y="8" width="4" height="4" transform="rotate(180 22 8)" fill="#FFC30B"/>
<rect x="26" y="8" width="4" height="4" transform="rotate(180 26 8)" fill="#FFC30B"/>
<rect x="30" y="8" width="4" height="4" transform="rotate(180 30 8)" fill="#FFC30B"/>
<rect x="34" y="8" width="4" height="4" transform="rotate(180 34 8)" fill="#FFC30B"/>
<rect x="38" y="8" width="4" height="4" transform="rotate(180 38 8)" fill="#FFC30B"/>
<rect x="42" y="8" width="4" height="4" transform="rotate(180 42 8)" fill="#FFC30B"/>
<rect x="46" y="8" width="4" height="4" transform="rotate(180 46 8)" fill="#FFC30B"/>
<rect x="50" y="8" width="4" height="4" transform="rotate(180 50 8)" fill="#FFC30B"/>
<rect x="54" y="8" width="4" height="4" transform="rotate(180 54 8)" fill="#FFC30B"/>
<rect x="58" y="8" width="4" height="4" transform="rotate(180 58 8)" fill="#FFC30B"/>
<rect x="62" y="12" width="4" height="4" transform="rotate(180 62 12)" fill="#FFC30B"/>
<rect x="66" y="16" width="4" height="4" transform="rotate(180 66 16)" fill="#FFC30B"/>
<rect x="66" y="20" width="4" height="4" transform="rotate(180 66 20)" fill="#FFC30B"/>
<rect x="70" y="24" width="4" height="4" transform="rotate(180 70 24)" fill="#FFC30B"/>
<rect x="70" y="28" width="4" height="4" transform="rotate(180 70 28)" fill="#FFC30B"/>
<rect x="70" y="32" width="4" height="4" transform="rotate(180 70 32)" fill="#FFC30B"/>
<rect x="70" y="36" width="4" height="4" transform="rotate(180 70 36)" fill="#FFC30B"/>
<rect x="70" y="40" width="4" height="4" transform="rotate(180 70 40)" fill="#FFC30B"/>
<rect x="66" y="44" width="4" height="4" transform="rotate(180 66 44)" fill="#FFC30B"/>
<rect x="66" y="48" width="4" height="4" transform="rotate(180 66 48)" fill="#FFC30B"/>
<rect x="66" y="52" width="4" height="4" transform="rotate(180 66 52)" fill="#FFC30B"/>
<rect x="66" y="56" width="4" height="4" transform="rotate(180 66 56)" fill="#FFC30B"/>
<rect x="66" y="60" width="4" height="4" transform="rotate(180 66 60)" fill="#FFC30B"/>
<rect x="66" y="64" width="4" height="4" transform="rotate(180 66 64)" fill="#FFC30B"/>
<rect x="62" y="68" width="4" height="4" transform="rotate(180 62 68)" fill="#FFC30B"/>
<rect x="58" y="68" width="4" height="4" transform="rotate(180 58 68)" fill="#FFC30B"/>
<rect x="54" y="68" width="4" height="4" transform="rotate(180 54 68)" fill="#FFC30B"/>
<rect x="50" y="68" width="4" height="4" transform="rotate(180 50 68)" fill="#FFC30B"/>
<rect x="46" y="68" width="4" height="4" transform="rotate(180 46 68)" fill="#FFC30B"/>
<rect x="42" y="68" width="4" height="4" transform="rotate(180 42 68)" fill="#FFC30B"/>
<rect x="38" y="68" width="4" height="4" transform="rotate(180 38 68)" fill="#FFC30B"/>
<rect x="34" y="68" width="4" height="4" transform="rotate(180 34 68)" fill="#FFC30B"/>
<rect x="30" y="68" width="4" height="4" transform="rotate(180 30 68)" fill="#FFC30B"/>
<rect x="26" y="68" width="4" height="4" transform="rotate(180 26 68)" fill="#FFC30B"/>
<rect x="22" y="68" width="4" height="4" transform="rotate(180 22 68)" fill="#FFC30B"/>
<rect x="18" y="68" width="4" height="4" transform="rotate(180 18 68)" fill="#FFC30B"/>
<rect x="14" y="68" width="4" height="4" transform="rotate(180 14 68)" fill="#FFC30B"/>
<rect x="10" y="64" width="4" height="4" transform="rotate(180 10 64)" fill="#FFC30B"/>
<rect x="10" y="60" width="4" height="4" transform="rotate(180 10 60)" fill="#FFC30B"/>
<rect x="10" y="56" width="4" height="4" transform="rotate(180 10 56)" fill="#FFC30B"/>
<rect x="10" y="52" width="4" height="4" transform="rotate(180 10 52)" fill="#FFC30B"/>
<rect x="10" y="48" width="4" height="4" transform="rotate(180 10 48)" fill="#FFC30B"/>
<rect x="10" y="44" width="4" height="4" transform="rotate(180 10 44)" fill="#FFC30B"/>
<rect x="42" y="48" width="4" height="4" transform="rotate(180 42 48)" fill="white"/>
<rect x="38" y="48" width="4" height="4" transform="rotate(180 38 48)" fill="white"/>
<rect x="42" y="44" width="4" height="4" transform="rotate(180 42 44)" fill="#CFD8DB"/>
<rect x="26" y="44" width="4" height="4" transform="rotate(180 26 44)" fill="#CFD8DB"/>
<rect x="26" y="40" width="4" height="4" transform="rotate(180 26 40)" fill="#CFD8DB"/>
<rect x="22" y="44" width="4" height="4" transform="rotate(180 22 44)" fill="#CFD8DB"/>
<rect x="22" y="48" width="4" height="4" transform="rotate(180 22 48)" fill="white"/>
<rect x="22" y="52" width="4" height="4" transform="rotate(180 22 52)" fill="white"/>
<rect x="22" y="56" width="4" height="4" transform="rotate(180 22 56)" fill="white"/>
<rect x="46" y="56" width="4" height="4" transform="rotate(180 46 56)" fill="white"/>
<rect x="46" y="52" width="4" height="4" transform="rotate(180 46 52)" fill="white"/>
<rect x="46" y="48" width="4" height="4" transform="rotate(180 46 48)" fill="white"/>
<rect x="46" y="44" width="4" height="4" transform="rotate(180 46 44)" fill="#CFD8DB"/>
<rect x="30" y="44" width="4" height="4" transform="rotate(180 30 44)" fill="#CFD8DB"/>
<rect x="50" y="56" width="4" height="4" transform="rotate(180 50 56)" fill="white"/>
<rect x="50" y="52" width="4" height="4" transform="rotate(180 50 52)" fill="white"/>
<rect x="50" y="48" width="4" height="4" transform="rotate(180 50 48)" fill="white"/>
<rect x="50" y="44" width="4" height="4" transform="rotate(180 50 44)" fill="#CFD8DB"/>
<rect x="50" y="40" width="4" height="4" transform="rotate(180 50 40)" fill="#CFD8DB"/>
<rect x="34" y="44" width="4" height="4" transform="rotate(180 34 44)" fill="#CFD8DB"/>
<rect x="54" y="56" width="4" height="4" transform="rotate(180 54 56)" fill="white"/>
<rect x="54" y="52" width="4" height="4" transform="rotate(180 54 52)" fill="white"/>
<rect x="54" y="48" width="4" height="4" transform="rotate(180 54 48)" fill="white"/>
<rect x="54" y="44" width="4" height="4" transform="rotate(180 54 44)" fill="#CFD8DB"/>
<rect x="38" y="44" width="4" height="4" transform="rotate(180 38 44)" fill="#CFD8DB"/>
<rect x="38" y="40" width="4" height="4" transform="rotate(180 38 40)" fill="#CFD8DB"/>
<rect x="26" y="20" width="4" height="4" transform="rotate(180 26 20)" fill="white"/>
<rect x="38" y="20" width="4" height="4" transform="rotate(180 38 20)" fill="white"/>
<rect x="50" y="20" width="4" height="4" transform="rotate(180 50 20)" fill="white"/>
<rect x="26" y="24" width="4" height="4" transform="rotate(180 26 24)" fill="white"/>
<rect x="38" y="24" width="4" height="4" transform="rotate(180 38 24)" fill="white"/>
<rect x="50" y="24" width="4" height="4" transform="rotate(180 50 24)" fill="white"/>
<rect x="26" y="28" width="4" height="4" transform="rotate(180 26 28)" fill="white"/>
<rect x="38" y="28" width="4" height="4" transform="rotate(180 38 28)" fill="white"/>
<rect x="50" y="28" width="4" height="4" transform="rotate(180 50 28)" fill="white"/>
<rect x="26" y="32" width="4" height="4" transform="rotate(180 26 32)" fill="white"/>
<rect x="38" y="32" width="4" height="4" transform="rotate(180 38 32)" fill="white"/>
<rect x="50" y="32" width="4" height="4" transform="rotate(180 50 32)" fill="white"/>
</svg>
