<svg width="29" height="28" viewBox="0 0 29 28" fill="none" xmlns="http://www.w3.org/2000/svg">
<rect x="14.5" y="24.5" width="1.75" height="1.75" transform="rotate(180 14.5 24.5)" fill="#37474F"/>
<rect width="1.75" height="1.75" transform="matrix(1 0 0 -1 14.5 24.5)" fill="#37474F"/>
<rect x="12.75" y="22.75" width="1.75" height="1.75" transform="rotate(180 12.75 22.75)" fill="#37474F"/>
<rect width="1.75" height="1.75" transform="matrix(1 0 0 -1 16.25 22.75)" fill="#37474F"/>
<rect x="11" y="21" width="1.75" height="1.75" transform="rotate(180 11 21)" fill="#37474F"/>
<rect width="1.75" height="1.75" transform="matrix(1 0 0 -1 18 21)" fill="#37474F"/>
<rect x="9.25" y="19.25" width="1.75" height="1.75" transform="rotate(180 9.25 19.25)" fill="#37474F"/>
<rect width="1.75" height="1.75" transform="matrix(1 0 0 -1 19.75 19.25)" fill="#37474F"/>
<rect x="7.5" y="17.5" width="1.75" height="1.75" transform="rotate(180 7.5 17.5)" fill="#37474F"/>
<rect width="1.75" height="1.75" transform="matrix(1 0 0 -1 21.5 17.5)" fill="#37474F"/>
<rect x="5.75" y="15.75" width="1.75" height="1.75" transform="rotate(180 5.75 15.75)" fill="#37474F"/>
<rect width="1.75" height="1.75" transform="matrix(1 0 0 -1 23.25 15.75)" fill="#37474F"/>
<rect x="4" y="14" width="1.75" height="1.75" transform="rotate(180 4 14)" fill="#37474F"/>
<rect width="1.75" height="1.75" transform="matrix(1 0 0 -1 25 14)" fill="#37474F"/>
<rect x="4" y="12.25" width="1.75" height="1.75" transform="rotate(180 4 12.25)" fill="#37474F"/>
<rect width="1.75" height="1.75" transform="matrix(1 0 0 -1 25 12.25)" fill="#37474F"/>
<rect x="4" y="10.5" width="1.75" height="1.75" transform="rotate(180 4 10.5)" fill="#37474F"/>
<rect width="1.75" height="1.75" transform="matrix(1 0 0 -1 25 10.5)" fill="#37474F"/>
<rect x="4" y="8.75" width="1.75" height="1.75" transform="rotate(180 4 8.75)" fill="#37474F"/>
<rect width="1.75" height="1.75" transform="matrix(1 0 0 -1 25 8.75)" fill="#37474F"/>
<rect x="5.75" y="7" width="1.75" height="1.75" transform="rotate(180 5.75 7)" fill="#37474F"/>
<rect width="1.75" height="1.75" transform="matrix(1 0 0 -1 23.25 7)" fill="#37474F"/>
<rect x="7.5" y="7" width="1.75" height="1.75" transform="rotate(180 7.5 7)" fill="#FED750"/>
<rect width="1.75" height="1.75" transform="matrix(1 0 0 -1 21.5 7)" fill="#FED750"/>
<rect x="7.5" y="8.75" width="1.75" height="1.75" transform="rotate(180 7.5 8.75)" fill="#FFA202"/>
<rect width="1.75" height="1.75" transform="matrix(1 0 0 -1 21.5 8.75)" fill="#FFA202"/>
<rect x="5.75" y="8.75" width="1.75" height="1.75" transform="rotate(180 5.75 8.75)" fill="#FED750"/>
<rect width="1.75" height="1.75" transform="matrix(1 0 0 -1 23.25 8.75)" fill="#FF7002"/>
<rect x="7.5" y="10.5" width="1.75" height="1.75" transform="rotate(180 7.5 10.5)" fill="#FFA202"/>
<rect width="1.75" height="1.75" transform="matrix(1 0 0 -1 21.5 10.5)" fill="#FFA202"/>
<rect x="5.75" y="10.5" width="1.75" height="1.75" transform="rotate(180 5.75 10.5)" fill="#FED750"/>
<rect width="1.75" height="1.75" transform="matrix(1 0 0 -1 23.25 10.5)" fill="#FF7002"/>
<rect x="7.5" y="12.25" width="1.75" height="1.75" transform="rotate(180 7.5 12.25)" fill="#FFA202"/>
<rect width="1.75" height="1.75" transform="matrix(1 0 0 -1 21.5 12.25)" fill="#FFA202"/>
<rect x="5.75" y="12.25" width="1.75" height="1.75" transform="rotate(180 5.75 12.25)" fill="#FED750"/>
<rect width="1.75" height="1.75" transform="matrix(1 0 0 -1 23.25 12.25)" fill="#FF7002"/>
<rect x="7.5" y="14" width="1.75" height="1.75" transform="rotate(180 7.5 14)" fill="#FFA202"/>
<rect width="1.75" height="1.75" transform="matrix(1 0 0 -1 21.5 14)" fill="#FFA202"/>
<rect x="5.75" y="14" width="1.75" height="1.75" transform="rotate(180 5.75 14)" fill="#FED750"/>
<rect width="1.75" height="1.75" transform="matrix(1 0 0 -1 23.25 14)" fill="#FF7002"/>
<rect x="7.5" y="15.75" width="1.75" height="1.75" transform="rotate(180 7.5 15.75)" fill="#FFA202"/>
<rect width="1.75" height="1.75" transform="matrix(1 0 0 -1 21.5 15.75)" fill="#FF7002"/>
<rect x="9.25" y="7" width="1.75" height="1.75" transform="rotate(180 9.25 7)" fill="#FED750"/>
<rect width="1.75" height="1.75" transform="matrix(1 0 0 -1 19.75 7)" fill="#FED750"/>
<rect x="9.25" y="8.75" width="1.75" height="1.75" transform="rotate(180 9.25 8.75)" fill="#FFA202"/>
<rect width="1.75" height="1.75" transform="matrix(1 0 0 -1 19.75 8.75)" fill="#FFA202"/>
<rect x="9.25" y="10.5" width="1.75" height="1.75" transform="rotate(180 9.25 10.5)" fill="#FFA202"/>
<rect width="1.75" height="1.75" transform="matrix(1 0 0 -1 19.75 10.5)" fill="#FFA202"/>
<rect x="9.25" y="12.25" width="1.75" height="1.75" transform="rotate(180 9.25 12.25)" fill="#FFA202"/>
<rect width="1.75" height="1.75" transform="matrix(1 0 0 -1 19.75 12.25)" fill="#FFA202"/>
<rect x="9.25" y="14" width="1.75" height="1.75" transform="rotate(180 9.25 14)" fill="#FFA202"/>
<rect width="1.75" height="1.75" transform="matrix(1 0 0 -1 19.75 14)" fill="#FFA202"/>
<rect x="9.25" y="15.75" width="1.75" height="1.75" transform="rotate(180 9.25 15.75)" fill="#FFA202"/>
<rect width="1.75" height="1.75" transform="matrix(1 0 0 -1 19.75 15.75)" fill="#FFA202"/>
<rect x="9.25" y="17.5" width="1.75" height="1.75" transform="rotate(180 9.25 17.5)" fill="#FFA202"/>
<rect width="1.75" height="1.75" transform="matrix(1 0 0 -1 19.75 17.5)" fill="#FF7002"/>
<rect x="11" y="7" width="1.75" height="1.75" transform="rotate(180 11 7)" fill="#FED750"/>
<rect width="1.75" height="1.75" transform="matrix(1 0 0 -1 18 7)" fill="#FED750"/>
<rect x="11" y="8.75" width="1.75" height="1.75" transform="rotate(180 11 8.75)" fill="#FFA202"/>
<rect width="1.75" height="1.75" transform="matrix(1 0 0 -1 18 8.75)" fill="#FFA202"/>
<rect x="12.75" y="8.75" width="1.75" height="1.75" transform="rotate(180 12.75 8.75)" fill="#FFA202"/>
<rect width="1.75" height="1.75" transform="matrix(1 0 0 -1 16.25 8.75)" fill="#FED750"/>
<rect x="11" y="10.5" width="1.75" height="1.75" transform="rotate(180 11 10.5)" fill="#FFA202"/>
<rect width="1.75" height="1.75" transform="matrix(1 0 0 -1 18 10.5)" fill="#FFA202"/>
<rect x="12.75" y="10.5" width="1.75" height="1.75" transform="rotate(180 12.75 10.5)" fill="#FFA202"/>
<rect width="1.75" height="1.75" transform="matrix(1 0 0 -1 16.25 10.5)" fill="#FFA202"/>
<rect x="14.5" y="10.5" width="1.75" height="1.75" transform="rotate(180 14.5 10.5)" fill="#FFA202"/>
<rect width="1.75" height="1.75" transform="matrix(1 0 0 -1 14.5 10.5)" fill="#FED750"/>
<rect x="11" y="12.25" width="1.75" height="1.75" transform="rotate(180 11 12.25)" fill="#FFA202"/>
<rect width="1.75" height="1.75" transform="matrix(1 0 0 -1 18 12.25)" fill="#FFA202"/>
<rect x="12.75" y="12.25" width="1.75" height="1.75" transform="rotate(180 12.75 12.25)" fill="#FFA202"/>
<rect width="1.75" height="1.75" transform="matrix(1 0 0 -1 16.25 12.25)" fill="#FFA202"/>
<rect x="14.5" y="12.25" width="1.75" height="1.75" transform="rotate(180 14.5 12.25)" fill="#FFA202"/>
<rect width="1.75" height="1.75" transform="matrix(1 0 0 -1 14.5 12.25)" fill="#FFA202"/>
<rect x="11" y="14" width="1.75" height="1.75" transform="rotate(180 11 14)" fill="#FFA202"/>
<rect width="1.75" height="1.75" transform="matrix(1 0 0 -1 18 14)" fill="#FFA202"/>
<rect x="12.75" y="14" width="1.75" height="1.75" transform="rotate(180 12.75 14)" fill="#FFA202"/>
<rect width="1.75" height="1.75" transform="matrix(1 0 0 -1 16.25 14)" fill="#FFA202"/>
<rect x="14.5" y="14" width="1.75" height="1.75" transform="rotate(180 14.5 14)" fill="#FFA202"/>
<rect width="1.75" height="1.75" transform="matrix(1 0 0 -1 14.5 14)" fill="#FFA202"/>
<rect x="11" y="15.75" width="1.75" height="1.75" transform="rotate(180 11 15.75)" fill="#FFA202"/>
<rect width="1.75" height="1.75" transform="matrix(1 0 0 -1 18 15.75)" fill="#FFA202"/>
<rect x="11" y="17.5" width="1.75" height="1.75" transform="rotate(180 11 17.5)" fill="#FFA202"/>
<rect width="1.75" height="1.75" transform="matrix(1 0 0 -1 18 17.5)" fill="#FFA202"/>
<rect x="11" y="19.25" width="1.75" height="1.75" transform="rotate(180 11 19.25)" fill="#FFA202"/>
<rect width="1.75" height="1.75" transform="matrix(1 0 0 -1 18 19.25)" fill="#FF7002"/>
<rect x="12.75" y="15.75" width="1.75" height="1.75" transform="rotate(180 12.75 15.75)" fill="#FFA202"/>
<rect width="1.75" height="1.75" transform="matrix(1 0 0 -1 16.25 15.75)" fill="#FFA202"/>
<rect x="14.5" y="15.75" width="1.75" height="1.75" transform="rotate(180 14.5 15.75)" fill="#FFA202"/>
<rect width="1.75" height="1.75" transform="matrix(1 0 0 -1 14.5 15.75)" fill="#FFA202"/>
<rect x="12.75" y="17.5" width="1.75" height="1.75" transform="rotate(180 12.75 17.5)" fill="#FFA202"/>
<rect width="1.75" height="1.75" transform="matrix(1 0 0 -1 16.25 17.5)" fill="#FFA202"/>
<rect x="12.75" y="19.25" width="1.75" height="1.75" transform="rotate(180 12.75 19.25)" fill="#FFA202"/>
<rect width="1.75" height="1.75" transform="matrix(1 0 0 -1 16.25 19.25)" fill="#FFA202"/>
<rect x="12.75" y="21" width="1.75" height="1.75" transform="rotate(180 12.75 21)" fill="#FFA202"/>
<rect width="1.75" height="1.75" transform="matrix(1 0 0 -1 16.25 21)" fill="#FF7002"/>
<rect x="14.5" y="17.5" width="1.75" height="1.75" transform="rotate(180 14.5 17.5)" fill="#FFA202"/>
<rect width="1.75" height="1.75" transform="matrix(1 0 0 -1 14.5 17.5)" fill="#FFA202"/>
<rect x="14.5" y="19.25" width="1.75" height="1.75" transform="rotate(180 14.5 19.25)" fill="#FFA202"/>
<rect width="1.75" height="1.75" transform="matrix(1 0 0 -1 14.5 19.25)" fill="#FFA202"/>
<rect x="14.5" y="21" width="1.75" height="1.75" transform="rotate(180 14.5 21)" fill="#FFA202"/>
<rect width="1.75" height="1.75" transform="matrix(1 0 0 -1 14.5 21)" fill="#FFA202"/>
<rect x="14.5" y="22.75" width="1.75" height="1.75" transform="rotate(180 14.5 22.75)" fill="#FFA202"/>
<rect width="1.75" height="1.75" transform="matrix(1 0 0 -1 14.5 22.75)" fill="#FF7002"/>
<rect x="7.5" y="5.25" width="1.75" height="1.75" transform="rotate(180 7.5 5.25)" fill="#37474F"/>
<rect width="1.75" height="1.75" transform="matrix(1 0 0 -1 21.5 5.25)" fill="#37474F"/>
<rect x="9.25" y="5.25" width="1.75" height="1.75" transform="rotate(180 9.25 5.25)" fill="#37474F"/>
<rect width="1.75" height="1.75" transform="matrix(1 0 0 -1 19.75 5.25)" fill="#37474F"/>
<rect x="11" y="5.25" width="1.75" height="1.75" transform="rotate(180 11 5.25)" fill="#37474F"/>
<rect width="1.75" height="1.75" transform="matrix(1 0 0 -1 18 5.25)" fill="#37474F"/>
<rect x="12.75" y="7" width="1.75" height="1.75" transform="rotate(180 12.75 7)" fill="#37474F"/>
<rect width="1.75" height="1.75" transform="matrix(1 0 0 -1 16.25 7)" fill="#37474F"/>
<rect x="14.5" y="8.75" width="1.75" height="1.75" transform="rotate(180 14.5 8.75)" fill="#37474F"/>
<rect width="1.75" height="1.75" transform="matrix(1 0 0 -1 14.5 8.75)" fill="#37474F"/>
</svg>
