<svg width="16" height="16" viewBox="0 0 16 16" fill="none" xmlns="http://www.w3.org/2000/svg">
<rect x="2.5" y="6" width="1" height="1" transform="rotate(180 2.5 6)" fill="#37474F"/>
<rect x="2.5" y="7" width="1" height="1" transform="rotate(180 2.5 7)" fill="#37474F"/>
<rect x="2.5" y="8" width="1" height="1" transform="rotate(180 2.5 8)" fill="#37474F"/>
<rect x="3.5" y="9" width="1" height="1" transform="rotate(180 3.5 9)" fill="#37474F"/>
<rect x="3.5" y="10" width="1" height="1" transform="rotate(180 3.5 10)" fill="#37474F"/>
<rect x="13.5" y="10" width="1" height="1" transform="rotate(180 13.5 10)" fill="#37474F"/>
<rect x="3.5" y="11" width="1" height="1" transform="rotate(180 3.5 11)" fill="#37474F"/>
<rect x="13.5" y="11" width="1" height="1" transform="rotate(180 13.5 11)" fill="#37474F"/>
<rect x="3.5" y="12" width="1" height="1" transform="rotate(180 3.5 12)" fill="#37474F"/>
<rect x="13.5" y="12" width="1" height="1" transform="rotate(180 13.5 12)" fill="#37474F"/>
<rect x="3.5" y="13" width="1" height="1" transform="rotate(180 3.5 13)" fill="#37474F"/>
<rect x="13.5" y="13" width="1" height="1" transform="rotate(180 13.5 13)" fill="#37474F"/>
<rect x="3.5" y="14" width="1" height="1" transform="rotate(180 3.5 14)" fill="#37474F"/>
<rect x="13.5" y="14" width="1" height="1" transform="rotate(180 13.5 14)" fill="#37474F"/>
<rect x="12.5" y="14" width="1" height="1" transform="rotate(180 12.5 14)" fill="#37474F"/>
<rect x="11.5" y="14" width="1" height="1" transform="rotate(180 11.5 14)" fill="#37474F"/>
<rect x="10.5" y="14" width="1" height="1" transform="rotate(180 10.5 14)" fill="#37474F"/>
<rect x="9.5" y="14" width="1" height="1" transform="rotate(180 9.5 14)" fill="#37474F"/>
<rect x="8.5" y="14" width="1" height="1" transform="rotate(180 8.5 14)" fill="#37474F"/>
<rect x="7.5" y="13" width="1" height="1" transform="rotate(180 7.5 13)" fill="#37474F"/>
<rect x="7.5" y="12" width="1" height="1" transform="rotate(180 7.5 12)" fill="#37474F"/>
<rect x="7.5" y="14" width="1" height="1" transform="rotate(180 7.5 14)" fill="#37474F"/>
<rect x="7.5" y="11" width="1" height="1" transform="rotate(180 7.5 11)" fill="#37474F"/>
<rect x="6.5" y="11" width="1" height="1" transform="rotate(180 6.5 11)" fill="#37474F"/>
<rect x="5.5" y="14" width="1" height="1" transform="rotate(180 5.5 14)" fill="#37474F"/>
<rect x="5.5" y="13" width="1" height="1" transform="rotate(180 5.5 13)" fill="#37474F"/>
<rect x="5.5" y="12" width="1" height="1" transform="rotate(180 5.5 12)" fill="#37474F"/>
<rect x="5.5" y="11" width="1" height="1" transform="rotate(180 5.5 11)" fill="#37474F"/>
<rect x="4.5" y="14" width="1" height="1" transform="rotate(180 4.5 14)" fill="#37474F"/>
<rect x="6.5" y="9" width="1" height="1" transform="rotate(180 6.5 9)" fill="#37474F"/>
<rect x="9.5" y="9" width="1" height="1" transform="rotate(180 9.5 9)" fill="#37474F"/>
<rect x="12.5" y="9" width="1" height="1" transform="rotate(180 12.5 9)" fill="#37474F"/>
<rect x="4.5" y="9" width="1" height="1" transform="rotate(180 4.5 9)" fill="#37474F"/>
<rect x="7.5" y="9" width="1" height="1" transform="rotate(180 7.5 9)" fill="#37474F"/>
<rect x="10.5" y="9" width="1" height="1" transform="rotate(180 10.5 9)" fill="#37474F"/>
<rect x="13.5" y="9" width="1" height="1" transform="rotate(180 13.5 9)" fill="#37474F"/>
<rect x="5.5" y="8" width="1" height="1" transform="rotate(180 5.5 8)" fill="#37474F"/>
<rect x="8.5" y="8" width="1" height="1" transform="rotate(180 8.5 8)" fill="#37474F"/>
<rect x="11.5" y="8" width="1" height="1" transform="rotate(180 11.5 8)" fill="#37474F"/>
<rect x="14.5" y="8" width="1" height="1" transform="rotate(180 14.5 8)" fill="#37474F"/>
<rect x="14.5" y="7" width="1" height="1" transform="rotate(180 14.5 7)" fill="#37474F"/>
<rect x="13.5" y="5" width="1" height="1" transform="rotate(180 13.5 5)" fill="#37474F"/>
<rect x="3.5" y="5" width="1" height="1" transform="rotate(180 3.5 5)" fill="#37474F"/>
<rect x="14.5" y="6" width="1" height="1" transform="rotate(180 14.5 6)" fill="#37474F"/>
<rect x="13.5" y="4" width="1" height="1" transform="rotate(180 13.5 4)" fill="#37474F"/>
<rect x="3.5" y="4" width="1" height="1" transform="rotate(180 3.5 4)" fill="#37474F"/>
<rect x="4.5" y="3" width="1" height="1" transform="rotate(180 4.5 3)" fill="#37474F"/>
<rect x="5.5" y="3" width="1" height="1" transform="rotate(180 5.5 3)" fill="#37474F"/>
<rect x="6.5" y="3" width="1" height="1" transform="rotate(180 6.5 3)" fill="#37474F"/>
<rect x="7.5" y="3" width="1" height="1" transform="rotate(180 7.5 3)" fill="#37474F"/>
<rect x="8.5" y="3" width="1" height="1" transform="rotate(180 8.5 3)" fill="#37474F"/>
<rect x="9.5" y="3" width="1" height="1" transform="rotate(180 9.5 3)" fill="#37474F"/>
<rect x="10.5" y="3" width="1" height="1" transform="rotate(180 10.5 3)" fill="#37474F"/>
<rect x="11.5" y="3" width="1" height="1" transform="rotate(180 11.5 3)" fill="#37474F"/>
<rect x="12.5" y="3" width="1" height="1" transform="rotate(180 12.5 3)" fill="#37474F"/>
<rect x="4.5" y="4" width="1" height="1" transform="rotate(180 4.5 4)" fill="#FED750"/>
<rect x="7.5" y="4" width="1" height="1" transform="rotate(180 7.5 4)" fill="#FED750"/>
<rect x="10.5" y="4" width="1" height="1" transform="rotate(180 10.5 4)" fill="#FED750"/>
<rect x="9.5" y="4" width="1" height="1" transform="rotate(180 9.5 4)" fill="#FED750"/>
<rect x="6.5" y="4" width="1" height="1" transform="rotate(180 6.5 4)" fill="#FED750"/>
<rect x="6.5" y="5" width="1" height="1" transform="rotate(180 6.5 5)" fill="#FFA202"/>
<rect width="1" height="1" transform="matrix(1 0 0 -1 11.5 4)" fill="#FFA202"/>
<rect x="4.5" y="5" width="1" height="1" transform="rotate(180 4.5 5)" fill="#FED750"/>
<rect x="7.5" y="5" width="1" height="1" transform="rotate(180 7.5 5)" fill="#FFA202"/>
<rect x="10.5" y="5" width="1" height="1" transform="rotate(180 10.5 5)" fill="#FFA202"/>
<rect x="9.5" y="5" width="1" height="1" transform="rotate(180 9.5 5)" fill="#FFA202"/>
<rect width="1" height="1" transform="matrix(1 0 0 -1 11.5 5)" fill="#FFA202"/>
<rect x="4.5" y="6" width="1" height="1" transform="rotate(180 4.5 6)" fill="#FFA202"/>
<rect x="7.5" y="6" width="1" height="1" transform="rotate(180 7.5 6)" fill="#FFA202"/>
<rect x="10.5" y="6" width="1" height="1" transform="rotate(180 10.5 6)" fill="#FFA202"/>
<rect width="1" height="1" transform="matrix(1 0 0 -1 11.5 6)" fill="#FFA202"/>
<rect x="3.5" y="6" width="1" height="1" transform="rotate(180 3.5 6)" fill="#FED750"/>
<rect x="6.5" y="6" width="1" height="1" transform="rotate(180 6.5 6)" fill="#FFA202"/>
<rect x="9.5" y="6" width="1" height="1" transform="rotate(180 9.5 6)" fill="#FFA202"/>
<rect width="1" height="1" transform="matrix(1 0 0 -1 12.5 6)" fill="#FFA202"/>
<rect x="4.5" y="7" width="1" height="1" transform="rotate(180 4.5 7)" fill="#FFA202"/>
<rect x="7.5" y="7" width="1" height="1" transform="rotate(180 7.5 7)" fill="#FFA202"/>
<rect x="10.5" y="7" width="1" height="1" transform="rotate(180 10.5 7)" fill="#FFA202"/>
<rect width="1" height="1" transform="matrix(1 0 0 -1 11.5 7)" fill="#FFA202"/>
<rect x="3.5" y="7" width="1" height="1" transform="rotate(180 3.5 7)" fill="#FFA202"/>
<rect x="6.5" y="7" width="1" height="1" transform="rotate(180 6.5 7)" fill="#FFA202"/>
<rect x="9.5" y="7" width="1" height="1" transform="rotate(180 9.5 7)" fill="#FFA202"/>
<rect width="1" height="1" transform="matrix(1 0 0 -1 12.5 7)" fill="#FFA202"/>
<rect x="4.5" y="8" width="1" height="1" transform="rotate(180 4.5 8)" fill="#FFA202"/>
<rect x="7.5" y="8" width="1" height="1" transform="rotate(180 7.5 8)" fill="#FFA202"/>
<rect x="10.5" y="8" width="1" height="1" transform="rotate(180 10.5 8)" fill="#FFA202"/>
<rect width="1" height="1" transform="matrix(1 0 0 -1 11.5 8)" fill="#FFA202"/>
<rect x="3.5" y="8" width="1" height="1" transform="rotate(180 3.5 8)" fill="#FFA202"/>
<rect x="6.5" y="8" width="1" height="1" transform="rotate(180 6.5 8)" fill="#FFA202"/>
<rect x="9.5" y="8" width="1" height="1" transform="rotate(180 9.5 8)" fill="#FFA202"/>
<rect width="1" height="1" transform="matrix(1 0 0 -1 12.5 8)" fill="#FFA202"/>
<rect x="9.5" y="13" width="1" height="1" transform="rotate(180 9.5 13)" fill="white"/>
<rect x="8.5" y="13" width="1" height="1" transform="rotate(180 8.5 13)" fill="white"/>
<rect x="9.5" y="12" width="1" height="1" transform="rotate(180 9.5 12)" fill="white"/>
<rect x="8.5" y="12" width="1" height="1" transform="rotate(180 8.5 12)" fill="white"/>
<rect x="9.5" y="11" width="1" height="1" transform="rotate(180 9.5 11)" fill="white"/>
<rect x="8.5" y="11" width="1" height="1" transform="rotate(180 8.5 11)" fill="white"/>
<rect x="9.5" y="10" width="1" height="1" transform="rotate(180 9.5 10)" fill="#CFD8DB"/>
<rect x="5.5" y="10" width="1" height="1" transform="rotate(180 5.5 10)" fill="#CFD8DB"/>
<rect x="5.5" y="9" width="1" height="1" transform="rotate(180 5.5 9)" fill="#CFD8DB"/>
<rect x="4.5" y="10" width="1" height="1" transform="rotate(180 4.5 10)" fill="#CFD8DB"/>
<rect x="4.5" y="11" width="1" height="1" transform="rotate(180 4.5 11)" fill="white"/>
<rect x="4.5" y="12" width="1" height="1" transform="rotate(180 4.5 12)" fill="white"/>
<rect x="4.5" y="13" width="1" height="1" transform="rotate(180 4.5 13)" fill="white"/>
<rect x="10.5" y="13" width="1" height="1" transform="rotate(180 10.5 13)" fill="white"/>
<rect x="10.5" y="12" width="1" height="1" transform="rotate(180 10.5 12)" fill="white"/>
<rect x="10.5" y="11" width="1" height="1" transform="rotate(180 10.5 11)" fill="white"/>
<rect x="10.5" y="10" width="1" height="1" transform="rotate(180 10.5 10)" fill="#CFD8DB"/>
<rect x="6.5" y="10" width="1" height="1" transform="rotate(180 6.5 10)" fill="#CFD8DB"/>
<rect x="11.5" y="13" width="1" height="1" transform="rotate(180 11.5 13)" fill="white"/>
<rect x="11.5" y="12" width="1" height="1" transform="rotate(180 11.5 12)" fill="white"/>
<rect x="11.5" y="11" width="1" height="1" transform="rotate(180 11.5 11)" fill="white"/>
<rect x="11.5" y="10" width="1" height="1" transform="rotate(180 11.5 10)" fill="#CFD8DB"/>
<rect x="11.5" y="9" width="1" height="1" transform="rotate(180 11.5 9)" fill="#CFD8DB"/>
<rect x="7.5" y="10" width="1" height="1" transform="rotate(180 7.5 10)" fill="#CFD8DB"/>
<rect x="12.5" y="13" width="1" height="1" transform="rotate(180 12.5 13)" fill="white"/>
<rect x="12.5" y="12" width="1" height="1" transform="rotate(180 12.5 12)" fill="white"/>
<rect x="12.5" y="11" width="1" height="1" transform="rotate(180 12.5 11)" fill="white"/>
<rect x="12.5" y="10" width="1" height="1" transform="rotate(180 12.5 10)" fill="#CFD8DB"/>
<rect x="8.5" y="10" width="1" height="1" transform="rotate(180 8.5 10)" fill="#CFD8DB"/>
<rect x="8.5" y="9" width="1" height="1" transform="rotate(180 8.5 9)" fill="#CFD8DB"/>
<rect x="5.5" y="4" width="1" height="1" transform="rotate(180 5.5 4)" fill="white"/>
<rect x="8.5" y="4" width="1" height="1" transform="rotate(180 8.5 4)" fill="white"/>
<rect x="11.5" y="4" width="1" height="1" transform="rotate(180 11.5 4)" fill="white"/>
<rect x="5.5" y="5" width="1" height="1" transform="rotate(180 5.5 5)" fill="white"/>
<rect x="8.5" y="5" width="1" height="1" transform="rotate(180 8.5 5)" fill="white"/>
<rect x="11.5" y="5" width="1" height="1" transform="rotate(180 11.5 5)" fill="white"/>
<rect x="5.5" y="6" width="1" height="1" transform="rotate(180 5.5 6)" fill="white"/>
<rect x="8.5" y="6" width="1" height="1" transform="rotate(180 8.5 6)" fill="white"/>
<rect x="11.5" y="6" width="1" height="1" transform="rotate(180 11.5 6)" fill="white"/>
<rect x="5.5" y="7" width="1" height="1" transform="rotate(180 5.5 7)" fill="white"/>
<rect x="8.5" y="7" width="1" height="1" transform="rotate(180 8.5 7)" fill="white"/>
<rect x="11.5" y="7" width="1" height="1" transform="rotate(180 11.5 7)" fill="white"/>
</svg>
