<svg width="16" height="16" viewBox="0 0 16 16" fill="none" xmlns="http://www.w3.org/2000/svg">
<rect x="14" y="3" width="1" height="1" fill="#37474F"/>
<rect width="1" height="1" transform="matrix(1 0 0 -1 14 13)" fill="#37474F"/>
<rect width="1" height="1" transform="matrix(-1 0 0 1 2 3)" fill="#37474F"/>
<rect x="2" y="13" width="1" height="1" transform="rotate(180 2 13)" fill="#37474F"/>
<rect x="14" y="2" width="1" height="1" fill="#37474F"/>
<rect width="1" height="1" transform="matrix(1 0 0 -1 14 14)" fill="#37474F"/>
<rect width="1" height="1" transform="matrix(-1 0 0 1 2 2)" fill="#37474F"/>
<rect x="2" y="14" width="1" height="1" transform="rotate(180 2 14)" fill="#37474F"/>
<rect x="13" y="1" width="1" height="1" fill="#37474F"/>
<rect width="1" height="1" transform="matrix(1 0 0 -1 13 15)" fill="#37474F"/>
<rect width="1" height="1" transform="matrix(-1 0 0 1 3 1)" fill="#37474F"/>
<rect x="3" y="15" width="1" height="1" transform="rotate(180 3 15)" fill="#37474F"/>
<rect x="12" y="1" width="1" height="1" fill="#37474F"/>
<rect width="1" height="1" transform="matrix(1 0 0 -1 12 15)" fill="#37474F"/>
<rect width="1" height="1" transform="matrix(-1 0 0 1 4 1)" fill="#37474F"/>
<rect x="4" y="15" width="1" height="1" transform="rotate(180 4 15)" fill="#37474F"/>
<rect x="11" y="2" width="1" height="1" fill="#37474F"/>
<rect width="1" height="1" transform="matrix(1 0 0 -1 11 14)" fill="#37474F"/>
<rect width="1" height="1" transform="matrix(-1 0 0 1 5 2)" fill="#37474F"/>
<rect x="5" y="14" width="1" height="1" transform="rotate(180 5 14)" fill="#37474F"/>
<rect x="13" y="4" width="1" height="1" fill="#37474F"/>
<rect width="1" height="1" transform="matrix(1 0 0 -1 13 12)" fill="#37474F"/>
<rect width="1" height="1" transform="matrix(-1 0 0 1 3 4)" fill="#37474F"/>
<rect x="3" y="12" width="1" height="1" transform="rotate(180 3 12)" fill="#37474F"/>
<rect x="10" y="3" width="1" height="1" fill="#37474F"/>
<rect width="1" height="1" transform="matrix(1 0 0 -1 10 13)" fill="#37474F"/>
<rect width="1" height="1" transform="matrix(-1 0 0 1 6 3)" fill="#37474F"/>
<rect x="6" y="13" width="1" height="1" transform="rotate(180 6 13)" fill="#37474F"/>
<rect x="12" y="5" width="1" height="1" fill="#37474F"/>
<rect width="1" height="1" transform="matrix(1 0 0 -1 12 11)" fill="#37474F"/>
<rect width="1" height="1" transform="matrix(-1 0 0 1 4 5)" fill="#37474F"/>
<rect x="4" y="11" width="1" height="1" transform="rotate(180 4 11)" fill="#37474F"/>
<rect x="9" y="4" width="1" height="1" fill="#37474F"/>
<rect width="1" height="1" transform="matrix(1 0 0 -1 9 12)" fill="#37474F"/>
<rect width="1" height="1" transform="matrix(-1 0 0 1 7 4)" fill="#37474F"/>
<rect x="7" y="12" width="1" height="1" transform="rotate(180 7 12)" fill="#37474F"/>
<rect x="11" y="6" width="1" height="1" fill="#37474F"/>
<rect width="1" height="1" transform="matrix(1 0 0 -1 11 10)" fill="#37474F"/>
<rect width="1" height="1" transform="matrix(-1 0 0 1 5 6)" fill="#37474F"/>
<rect x="5" y="10" width="1" height="1" transform="rotate(180 5 10)" fill="#37474F"/>
<rect x="8" y="5" width="1" height="1" fill="#37474F"/>
<rect width="1" height="1" transform="matrix(1 0 0 -1 8 11)" fill="#37474F"/>
<rect width="1" height="1" transform="matrix(-1 0 0 1 8 5)" fill="#37474F"/>
<rect x="8" y="11" width="1" height="1" transform="rotate(180 8 11)" fill="#37474F"/>
<rect x="10" y="7" width="1" height="1" fill="#37474F"/>
<rect width="1" height="1" transform="matrix(1 0 0 -1 10 9)" fill="#37474F"/>
<rect width="1" height="1" transform="matrix(-1 0 0 1 6 7)" fill="#37474F"/>
<rect x="6" y="9" width="1" height="1" transform="rotate(180 6 9)" fill="#37474F"/>
<rect width="1" height="1" transform="matrix(-1 0 0 1 3 2)" fill="#FED750"/>
<rect width="1" height="1" transform="matrix(-1 0 0 1 3 3)" fill="#FED750"/>
<rect width="1" height="1" transform="matrix(-1 0 0 1 6 9)" fill="#FED750"/>
<rect width="1" height="1" transform="matrix(-1 0 0 1 5 10)" fill="#FED750"/>
<rect width="1" height="1" transform="matrix(-1 0 0 1 4 11)" fill="#FED750"/>
<rect width="1" height="1" transform="matrix(-1 0 0 1 3 12)" fill="#FED750"/>
<rect width="1" height="1" transform="matrix(-1 0 0 1 3 13)" fill="#FED750"/>
<rect width="1" height="1" transform="matrix(-1 0 0 1 10 5)" fill="#FED750"/>
<rect width="1" height="1" transform="matrix(-1 0 0 1 11 4)" fill="#FED750"/>
<rect width="1" height="1" transform="matrix(-1 0 0 1 12 3)" fill="#FED750"/>
<rect width="1" height="1" transform="matrix(-1 0 0 1 13 2)" fill="#FED750"/>
<rect width="1" height="1" transform="matrix(-1 0 0 1 4 2)" fill="#FED750"/>
<rect width="1" height="1" transform="matrix(-1 0 0 1 4 3)" fill="#FFA202"/>
<rect width="1" height="1" transform="matrix(-1 0 0 1 4 4)" fill="#FFA202"/>
<rect width="1" height="1" transform="matrix(-1 0 0 1 5 5)" fill="#FFA202"/>
<rect width="1" height="1" transform="matrix(-1 0 0 1 6 6)" fill="#FFA202"/>
<rect width="1" height="1" transform="matrix(-1 0 0 1 5 3)" fill="#FFA202"/>
<rect width="1" height="1" transform="matrix(-1 0 0 1 5 4)" fill="#FFA202"/>
<rect width="1" height="1" transform="matrix(-1 0 0 1 6 5)" fill="#FFA202"/>
<rect width="1" height="1" transform="matrix(-1 0 0 1 6 4)" fill="#FFA202"/>
<rect width="1" height="1" transform="matrix(-1 0 0 1 7 5)" fill="#FFA202"/>
<rect width="1" height="1" transform="matrix(-1 0 0 1 7 6)" fill="#FFA202"/>
<rect width="1" height="1" transform="matrix(-1 0 0 1 7 7)" fill="#FED750"/>
<rect width="1" height="1" transform="matrix(-1 0 0 1 7 8)" fill="#FED750"/>
<rect width="1" height="1" transform="matrix(-1 0 0 1 7 9)" fill="#FFA202"/>
<rect width="1" height="1" transform="matrix(-1 0 0 1 6 10)" fill="#FFA202"/>
<rect width="1" height="1" transform="matrix(-1 0 0 1 5 11)" fill="#FFA202"/>
<rect width="1" height="1" transform="matrix(-1 0 0 1 4 12)" fill="#FFA202"/>
<rect width="1" height="1" transform="matrix(-1 0 0 1 4 13)" fill="#FF7002"/>
<rect width="1" height="1" transform="matrix(-1 0 0 1 8 6)" fill="#FFA202"/>
<rect width="1" height="1" transform="matrix(-1 0 0 1 8 7)" fill="#FFA202"/>
<rect width="1" height="1" transform="matrix(-1 0 0 1 8 8)" fill="#FFA202"/>
<rect width="1" height="1" transform="matrix(-1 0 0 1 8 9)" fill="#FFA202"/>
<rect width="1" height="1" transform="matrix(-1 0 0 1 7 10)" fill="#FFA202"/>
<rect width="1" height="1" transform="matrix(-1 0 0 1 6 11)" fill="#FFA202"/>
<rect width="1" height="1" transform="matrix(-1 0 0 1 5 12)" fill="#FFA202"/>
<rect width="1" height="1" transform="matrix(-1 0 0 1 9 6)" fill="#FFA202"/>
<rect width="1" height="1" transform="matrix(-1 0 0 1 9 7)" fill="#FFA202"/>
<rect width="1" height="1" transform="matrix(-1 0 0 1 9 8)" fill="#FFA202"/>
<rect width="1" height="1" transform="matrix(-1 0 0 1 9 9)" fill="#FFA202"/>
<rect width="1" height="1" transform="matrix(-1 0 0 1 10 10)" fill="#FFA202"/>
<rect width="1" height="1" transform="matrix(-1 0 0 1 11 11)" fill="#FFA202"/>
<rect width="1" height="1" transform="matrix(-1 0 0 1 12 12)" fill="#FFA202"/>
<rect width="1" height="1" transform="matrix(-1 0 0 1 10 6)" fill="#FFA202"/>
<rect width="1" height="1" transform="matrix(-1 0 0 1 10 7)" fill="#FF7002"/>
<rect width="1" height="1" transform="matrix(-1 0 0 1 10 8)" fill="#FF7002"/>
<rect width="1" height="1" transform="matrix(-1 0 0 1 10 9)" fill="#FFA202"/>
<rect width="1" height="1" transform="matrix(-1 0 0 1 11 10)" fill="#FFA202"/>
<rect width="1" height="1" transform="matrix(-1 0 0 1 12 11)" fill="#FFA202"/>
<rect width="1" height="1" transform="matrix(-1 0 0 1 13 12)" fill="#FFA202"/>
<rect width="1" height="1" transform="matrix(-1 0 0 1 13 13)" fill="#FF7002"/>
<rect width="1" height="1" transform="matrix(-1 0 0 1 11 9)" fill="#FFA202"/>
<rect width="1" height="1" transform="matrix(-1 0 0 1 12 10)" fill="#FFA202"/>
<rect width="1" height="1" transform="matrix(-1 0 0 1 13 11)" fill="#FFA202"/>
<rect width="1" height="1" transform="matrix(-1 0 0 1 14 12)" fill="#FF7002"/>
<rect width="1" height="1" transform="matrix(-1 0 0 1 14 13)" fill="#FF7002"/>
<rect width="1" height="1" transform="matrix(-1 0 0 1 11 6)" fill="#FF7002"/>
<rect width="1" height="1" transform="matrix(-1 0 0 1 11 5)" fill="#FFA202"/>
<rect width="1" height="1" transform="matrix(-1 0 0 1 12 5)" fill="#FF7002"/>
<rect width="1" height="1" transform="matrix(-1 0 0 1 12 4)" fill="#FFA202"/>
<rect width="1" height="1" transform="matrix(-1 0 0 1 13 4)" fill="#FF7002"/>
<rect width="1" height="1" transform="matrix(-1 0 0 1 13 3)" fill="#FFA202"/>
<rect width="1" height="1" transform="matrix(-1 0 0 1 14 3)" fill="#FF7002"/>
<rect width="1" height="1" transform="matrix(-1 0 0 1 14 2)" fill="#FFA202"/>
</svg>
