<svg width="160" height="160" viewBox="0 0 160 160" fill="none" xmlns="http://www.w3.org/2000/svg">
<rect width="5.33333" height="5.33333" transform="matrix(-1 0 0 1 80 138.667)" fill="black"/>
<rect x="80" y="138.667" width="5.33333" height="5.33333" fill="black"/>
<rect width="5.33333" height="5.33333" transform="matrix(-1 0 0 1 74.6665 138.667)" fill="black"/>
<rect x="85.3335" y="138.667" width="5.33333" height="5.33333" fill="black"/>
<rect width="5.33333" height="5.33333" transform="matrix(-1 0 0 1 69.3335 138.667)" fill="black"/>
<rect x="90.6665" y="138.667" width="5.33333" height="5.33333" fill="black"/>
<rect width="5.33333" height="5.33333" transform="matrix(-1 0 0 1 64 138.667)" fill="black"/>
<rect x="96" y="138.667" width="5.33333" height="5.33333" fill="black"/>
<rect width="5.33333" height="5.33333" transform="matrix(-1 0 0 1 58.6665 133.333)" fill="black"/>
<rect x="101.333" y="133.333" width="5.33333" height="5.33333" fill="black"/>
<rect width="5.33333" height="5.33333" transform="matrix(-1 0 0 1 53.3335 133.333)" fill="black"/>
<rect x="106.667" y="133.333" width="5.33333" height="5.33333" fill="black"/>
<rect width="5.33333" height="5.33333" transform="matrix(-1 0 0 1 48 128)" fill="black"/>
<rect x="112" y="128" width="5.33333" height="5.33333" fill="black"/>
<rect width="5.33333" height="5.33333" transform="matrix(-1 0 0 1 42.6665 122.667)" fill="black"/>
<rect x="117.333" y="122.667" width="5.33333" height="5.33333" fill="black"/>
<rect width="5.33333" height="5.33333" transform="matrix(-1 0 0 1 37.3335 117.333)" fill="black"/>
<rect x="122.667" y="117.333" width="5.33333" height="5.33333" fill="black"/>
<rect width="5.33333" height="5.33333" transform="matrix(-1 0 0 1 80 16)" fill="black"/>
<rect x="80" y="16" width="5.33333" height="5.33333" fill="black"/>
<rect width="5.33333" height="5.33333" transform="matrix(-1 0 0 1 74.6665 16)" fill="black"/>
<rect x="85.3335" y="16" width="5.33333" height="5.33333" fill="black"/>
<rect width="5.33333" height="5.33333" transform="matrix(-1 0 0 1 69.3335 16)" fill="black"/>
<rect x="90.6665" y="16" width="5.33333" height="5.33333" fill="black"/>
<rect width="5.33333" height="5.33333" transform="matrix(-1 0 0 1 69.3335 16)" fill="black"/>
<rect x="90.6665" y="16" width="5.33333" height="5.33333" fill="black"/>
<rect width="5.33333" height="5.33333" transform="matrix(-1 0 0 1 64 16)" fill="black"/>
<rect x="96" y="16" width="5.33333" height="5.33333" fill="black"/>
<rect width="5.33333" height="5.33333" transform="matrix(-1 0 0 1 58.6665 16)" fill="black"/>
<rect x="101.333" y="16" width="5.33333" height="5.33333" fill="black"/>
<rect width="5.33333" height="5.33333" transform="matrix(-1 0 0 1 53.3335 21.3334)" fill="black"/>
<rect x="106.667" y="21.3334" width="5.33333" height="5.33333" fill="black"/>
<rect width="5.33333" height="5.33333" transform="matrix(-1 0 0 1 48 21.3334)" fill="black"/>
<rect x="112" y="21.3334" width="5.33333" height="5.33333" fill="black"/>
<rect width="5.33333" height="5.33333" transform="matrix(-1 0 0 1 42.6665 26.6666)" fill="black"/>
<rect x="117.333" y="26.6666" width="5.33333" height="5.33333" fill="black"/>
<rect width="5.33333" height="5.33333" transform="matrix(-1 0 0 1 37.3335 26.6666)" fill="black"/>
<rect x="32" y="117.333" width="5.33333" height="5.33333" transform="rotate(180 32 117.333)" fill="black"/>
<rect x="122.667" y="26.6666" width="5.33333" height="5.33333" fill="black"/>
<rect width="5.33333" height="5.33333" transform="matrix(1 0 0 -1 128 117.333)" fill="black"/>
<rect width="5.33333" height="5.33333" transform="matrix(-1 0 0 1 32 32)" fill="black"/>
<rect x="26.6665" y="112" width="5.33333" height="5.33333" transform="rotate(180 26.6665 112)" fill="black"/>
<rect width="5.33333" height="5.33333" transform="matrix(-1 0 0 1 26.6665 37.3333)" fill="black"/>
<rect x="26.6665" y="106.667" width="5.33333" height="5.33333" transform="rotate(180 26.6665 106.667)" fill="black"/>
<rect x="37.3335" y="101.333" width="5.33333" height="5.33333" transform="rotate(180 37.3335 101.333)" fill="black"/>
<rect x="133.333" y="96" width="5.33333" height="5.33333" transform="rotate(180 133.333 96)" fill="black"/>
<rect x="32" y="96" width="5.33333" height="5.33333" transform="rotate(180 32 96)" fill="black"/>
<rect width="5.33333" height="5.33333" transform="matrix(1 0 0 -1 122.667 101.333)" fill="black"/>
<rect x="42.6665" y="106.667" width="5.33333" height="5.33333" transform="rotate(180 42.6665 106.667)" fill="black"/>
<rect width="5.33333" height="5.33333" transform="matrix(1 0 0 -1 117.333 106.667)" fill="black"/>
<rect x="53.3335" y="112" width="5.33333" height="5.33333" transform="rotate(180 53.3335 112)" fill="black"/>
<rect width="5.33333" height="5.33333" transform="matrix(1 0 0 -1 106.667 112)" fill="black"/>
<rect x="64" y="112" width="5.33333" height="5.33333" transform="rotate(180 64 112)" fill="black"/>
<rect width="5.33333" height="5.33333" transform="matrix(1 0 0 -1 96 112)" fill="black"/>
<rect x="48" y="106.667" width="5.33333" height="5.33333" transform="rotate(180 48 106.667)" fill="black"/>
<rect width="5.33333" height="5.33333" transform="matrix(1 0 0 -1 112 106.667)" fill="black"/>
<rect x="58.6665" y="112" width="5.33333" height="5.33333" transform="rotate(180 58.6665 112)" fill="black"/>
<rect width="5.33333" height="5.33333" transform="matrix(1 0 0 -1 101.333 112)" fill="black"/>
<rect x="69.3335" y="112" width="5.33333" height="5.33333" transform="rotate(180 69.3335 112)" fill="black"/>
<rect width="5.33333" height="5.33333" transform="matrix(1 0 0 -1 90.6665 112)" fill="black"/>
<rect x="74.6665" y="112" width="5.33333" height="5.33333" transform="rotate(180 74.6665 112)" fill="black"/>
<rect width="5.33333" height="5.33333" transform="matrix(1 0 0 -1 85.3335 112)" fill="black"/>
<rect x="80" y="112" width="5.33333" height="5.33333" transform="rotate(180 80 112)" fill="black"/>
<rect width="5.33333" height="5.33333" transform="matrix(1 0 0 -1 80 112)" fill="black"/>
<rect x="133.333" y="37.3333" width="5.33333" height="5.33333" fill="black"/>
<rect width="5.33333" height="5.33333" transform="matrix(1 0 0 -1 133.333 106.667)" fill="black"/>
<rect x="128" y="32" width="5.33333" height="5.33333" fill="black"/>
<rect width="5.33333" height="5.33333" transform="matrix(1 0 0 -1 133.333 112)" fill="black"/>
<rect width="5.33333" height="5.33333" transform="matrix(-1 0 0 1 16 58.6667)" fill="black"/>
<rect width="5.33333" height="5.33333" transform="matrix(-1 0 0 1 16 53.3333)" fill="black"/>
<rect width="5.33333" height="5.33333" transform="matrix(-1 0 0 1 16 48)" fill="black"/>
<rect width="5.33333" height="5.33333" transform="matrix(-1 0 0 1 21.3335 42.6667)" fill="black"/>
<rect x="21.3335" y="101.333" width="5.33333" height="5.33333" transform="rotate(180 21.3335 101.333)" fill="black"/>
<rect x="144" y="58.6667" width="5.33333" height="5.33333" fill="black"/>
<rect x="144" y="53.3333" width="5.33333" height="5.33333" fill="black"/>
<rect x="144" y="48" width="5.33333" height="5.33333" fill="black"/>
<rect x="138.667" y="42.6667" width="5.33333" height="5.33333" fill="black"/>
<rect width="5.33333" height="5.33333" transform="matrix(1 0 0 -1 138.667 101.333)" fill="black"/>
<rect width="5.33333" height="5.33333" transform="matrix(-1 0 0 1 16 64)" fill="black"/>
<rect x="144" y="64" width="5.33333" height="5.33333" fill="black"/>
<rect width="5.33333" height="5.33333" transform="matrix(-1 0 0 1 16 69.3333)" fill="black"/>
<rect x="144" y="69.3333" width="5.33333" height="5.33333" fill="black"/>
<rect width="5.33333" height="5.33333" transform="matrix(-1 0 0 1 16 74.6667)" fill="black"/>
<rect x="144" y="74.6667" width="5.33333" height="5.33333" fill="black"/>
<rect width="5.33333" height="5.33333" transform="matrix(-1 0 0 1 16 80)" fill="black"/>
<rect width="5.33333" height="5.33333" transform="matrix(-1 0 0 1 16 90.6667)" fill="black"/>
<rect width="5.33333" height="5.33333" transform="matrix(-1 0 0 1 16 85.3333)" fill="black"/>
<rect x="144" y="90.6667" width="5.33333" height="5.33333" fill="black"/>
<rect x="144" y="85.3333" width="5.33333" height="5.33333" fill="black"/>
<rect x="144" y="80" width="5.33333" height="5.33333" fill="black"/>
<rect x="32" y="112" width="5.33333" height="5.33333" transform="rotate(180 32 112)" fill="#A89088"/>
<rect x="37.3335" y="117.333" width="5.33333" height="5.33333" transform="rotate(180 37.3335 117.333)" fill="#A89088"/>
<rect x="42.6665" y="122.667" width="5.33333" height="5.33333" transform="rotate(180 42.6665 122.667)" fill="#A89088"/>
<rect x="144" y="74.6667" width="5.33333" height="5.33333" transform="rotate(180 144 74.6667)" fill="#F1EAE7"/>
<rect x="144" y="69.3333" width="5.33333" height="5.33333" transform="rotate(180 144 69.3333)" fill="#F1EAE7"/>
<rect x="144" y="64" width="5.33333" height="5.33333" transform="rotate(180 144 64)" fill="#F1EAE7"/>
<rect x="144" y="58.6667" width="5.33333" height="5.33333" transform="rotate(180 144 58.6667)" fill="#F1EAE7"/>
<rect x="144" y="53.3333" width="5.33333" height="5.33333" transform="rotate(180 144 53.3333)" fill="#F1EAE7"/>
<rect x="138.667" y="48" width="5.33333" height="5.33333" transform="rotate(180 138.667 48)" fill="#F1EAE7"/>
<rect x="133.333" y="42.6667" width="5.33333" height="5.33333" transform="rotate(180 133.333 42.6667)" fill="#F1EAE7"/>
<rect x="128" y="37.3333" width="5.33333" height="5.33333" transform="rotate(180 128 37.3333)" fill="#F1EAE7"/>
<rect x="122.667" y="37.3333" width="5.33333" height="5.33333" transform="rotate(180 122.667 37.3333)" fill="#F1EAE7"/>
<rect x="117.333" y="32" width="5.33333" height="5.33333" transform="rotate(180 117.333 32)" fill="#F1EAE7"/>
<rect x="112" y="32" width="5.33333" height="5.33333" transform="rotate(180 112 32)" fill="#F1EAE7"/>
<rect x="106.667" y="26.6666" width="5.33333" height="5.33333" transform="rotate(180 106.667 26.6666)" fill="#F1EAE7"/>
<rect x="101.333" y="26.6666" width="5.33333" height="5.33333" transform="rotate(180 101.333 26.6666)" fill="#F1EAE7"/>
<rect x="96" y="26.6666" width="5.33333" height="5.33333" transform="rotate(180 96 26.6666)" fill="#F1EAE7"/>
<rect x="90.6665" y="26.6666" width="5.33333" height="5.33333" transform="rotate(180 90.6665 26.6666)" fill="#F1EAE7"/>
<rect x="85.3335" y="26.6666" width="5.33333" height="5.33333" transform="rotate(180 85.3335 26.6666)" fill="#F1EAE7"/>
<rect x="80" y="26.6666" width="5.33333" height="5.33333" transform="rotate(180 80 26.6666)" fill="#F1EAE7"/>
<rect x="74.6665" y="26.6666" width="5.33333" height="5.33333" transform="rotate(180 74.6665 26.6666)" fill="#F1EAE7"/>
<rect x="69.3335" y="26.6666" width="5.33333" height="5.33333" transform="rotate(180 69.3335 26.6666)" fill="#F1EAE7"/>
<rect x="64" y="26.6666" width="5.33333" height="5.33333" transform="rotate(180 64 26.6666)" fill="#F1EAE7"/>
<rect x="58.6665" y="26.6666" width="5.33333" height="5.33333" transform="rotate(180 58.6665 26.6666)" fill="#F1EAE7"/>
<rect x="53.3335" y="32" width="5.33333" height="5.33333" transform="rotate(180 53.3335 32)" fill="#F1EAE7"/>
<rect x="48" y="32" width="5.33333" height="5.33333" transform="rotate(180 48 32)" fill="#F1EAE7"/>
<rect x="42.6665" y="37.3333" width="5.33333" height="5.33333" transform="rotate(180 42.6665 37.3333)" fill="#F1EAE7"/>
<rect x="37.3335" y="37.3333" width="5.33333" height="5.33333" transform="rotate(180 37.3335 37.3333)" fill="#F1EAE7"/>
<rect x="32" y="42.6667" width="5.33333" height="5.33333" transform="rotate(180 32 42.6667)" fill="#F1EAE7"/>
<rect x="26.6665" y="48" width="5.33333" height="5.33333" transform="rotate(180 26.6665 48)" fill="#F1EAE7"/>
<rect x="21.3335" y="53.3333" width="5.33333" height="5.33333" transform="rotate(180 21.3335 53.3333)" fill="#F1EAE7"/>
<rect x="21.3335" y="58.6667" width="5.33333" height="5.33333" transform="rotate(180 21.3335 58.6667)" fill="#F1EAE7"/>
<rect x="21.3335" y="64" width="5.33333" height="5.33333" transform="rotate(180 21.3335 64)" fill="#F1EAE7"/>
<rect x="21.3335" y="69.3333" width="5.33333" height="5.33333" transform="rotate(180 21.3335 69.3333)" fill="#F1EAE7"/>
<rect x="21.3335" y="74.6667" width="5.33333" height="5.33333" transform="rotate(180 21.3335 74.6667)" fill="#F1EAE7"/>
<rect x="21.3335" y="80" width="5.33333" height="5.33333" transform="rotate(180 21.3335 80)" fill="#F1EAE7"/>
<rect x="21.3335" y="96" width="5.33333" height="5.33333" transform="rotate(180 21.3335 96)" fill="#A89088"/>
<rect x="26.6665" y="101.333" width="5.33333" height="5.33333" transform="rotate(180 26.6665 101.333)" fill="#A89088"/>
<rect x="32" y="106.667" width="5.33333" height="5.33333" transform="rotate(180 32 106.667)" fill="#A89088"/>
<rect x="37.3335" y="112" width="5.33333" height="5.33333" transform="rotate(180 37.3335 112)" fill="#A89088"/>
<rect x="42.6665" y="117.333" width="5.33333" height="5.33333" transform="rotate(180 42.6665 117.333)" fill="#A89088"/>
<rect x="48" y="117.333" width="5.33333" height="5.33333" transform="rotate(180 48 117.333)" fill="#A89088"/>
<rect x="48" y="122.667" width="5.33333" height="5.33333" transform="rotate(180 48 122.667)" fill="#A89088"/>
<rect x="53.3335" y="128" width="5.33333" height="5.33333" transform="rotate(180 53.3335 128)" fill="#A89088"/>
<rect x="53.3335" y="122.667" width="5.33333" height="5.33333" transform="rotate(180 53.3335 122.667)" fill="#A89088"/>
<rect x="58.6665" y="128" width="5.33333" height="5.33333" transform="rotate(180 58.6665 128)" fill="#A89088"/>
<rect x="58.6665" y="122.667" width="5.33333" height="5.33333" transform="rotate(180 58.6665 122.667)" fill="#A89088"/>
<rect x="64" y="128" width="5.33333" height="5.33333" transform="rotate(180 64 128)" fill="#A89088"/>
<rect x="64" y="122.667" width="5.33333" height="5.33333" transform="rotate(180 64 122.667)" fill="#A89088"/>
<rect x="69.3335" y="128" width="5.33333" height="5.33333" transform="rotate(180 69.3335 128)" fill="#A89088"/>
<rect x="69.3335" y="122.667" width="5.33333" height="5.33333" transform="rotate(180 69.3335 122.667)" fill="#A89088"/>
<rect x="74.6665" y="128" width="5.33333" height="5.33333" transform="rotate(180 74.6665 128)" fill="#A89088"/>
<rect x="74.6665" y="122.667" width="5.33333" height="5.33333" transform="rotate(180 74.6665 122.667)" fill="#A89088"/>
<rect x="80" y="128" width="5.33333" height="5.33333" transform="rotate(180 80 128)" fill="#A89088"/>
<rect x="80" y="122.667" width="5.33333" height="5.33333" transform="rotate(180 80 122.667)" fill="#A89088"/>
<rect x="85.3335" y="128" width="5.33333" height="5.33333" transform="rotate(180 85.3335 128)" fill="#A89088"/>
<rect x="85.3335" y="122.667" width="5.33333" height="5.33333" transform="rotate(180 85.3335 122.667)" fill="#A89088"/>
<rect x="90.6665" y="128" width="5.33333" height="5.33333" transform="rotate(180 90.6665 128)" fill="#A89088"/>
<rect x="90.6665" y="122.667" width="5.33333" height="5.33333" transform="rotate(180 90.6665 122.667)" fill="#A89088"/>
<rect x="96" y="122.667" width="5.33333" height="5.33333" transform="rotate(180 96 122.667)" fill="#A89088"/>
<rect x="48" y="128" width="5.33333" height="5.33333" transform="rotate(180 48 128)" fill="#A89088"/>
<rect x="53.3335" y="133.333" width="5.33333" height="5.33333" transform="rotate(180 53.3335 133.333)" fill="#A89088"/>
<rect x="58.6665" y="133.333" width="5.33333" height="5.33333" transform="rotate(180 58.6665 133.333)" fill="#A89088"/>
<rect x="64" y="133.333" width="5.33333" height="5.33333" transform="rotate(180 64 133.333)" fill="#A89088"/>
<rect x="64" y="138.667" width="5.33333" height="5.33333" transform="rotate(180 64 138.667)" fill="#A89088"/>
<rect x="69.3335" y="133.333" width="5.33333" height="5.33333" transform="rotate(180 69.3335 133.333)" fill="#A89088"/>
<rect x="69.3335" y="138.667" width="5.33333" height="5.33333" transform="rotate(180 69.3335 138.667)" fill="#A89088"/>
<rect x="74.6665" y="133.333" width="5.33333" height="5.33333" transform="rotate(180 74.6665 133.333)" fill="#A89088"/>
<rect x="74.6665" y="138.667" width="5.33333" height="5.33333" transform="rotate(180 74.6665 138.667)" fill="#A89088"/>
<rect x="80" y="133.333" width="5.33333" height="5.33333" transform="rotate(180 80 133.333)" fill="#A89088"/>
<rect x="80" y="138.667" width="5.33333" height="5.33333" transform="rotate(180 80 138.667)" fill="#A89088"/>
<rect x="85.3335" y="133.333" width="5.33333" height="5.33333" transform="rotate(180 85.3335 133.333)" fill="#A89088"/>
<rect x="96" y="128" width="5.33333" height="5.33333" transform="rotate(180 96 128)" fill="#A89088"/>
<rect x="85.3335" y="138.667" width="5.33333" height="5.33333" transform="rotate(180 85.3335 138.667)" fill="#A89088"/>
<rect x="90.6665" y="133.333" width="5.33333" height="5.33333" transform="rotate(180 90.6665 133.333)" fill="#A89088"/>
<rect x="106.667" y="122.667" width="5.33333" height="5.33333" transform="rotate(180 106.667 122.667)" fill="#A89088"/>
<rect x="106.667" y="117.333" width="5.33333" height="5.33333" transform="rotate(180 106.667 117.333)" fill="#F1EAE7"/>
<rect x="112" y="122.667" width="5.33333" height="5.33333" transform="rotate(180 112 122.667)" fill="#A89088"/>
<rect x="112" y="117.333" width="5.33333" height="5.33333" transform="rotate(180 112 117.333)" fill="#F1EAE7"/>
<rect x="117.333" y="117.333" width="5.33333" height="5.33333" transform="rotate(180 117.333 117.333)" fill="#A89088"/>
<rect x="117.333" y="112" width="5.33333" height="5.33333" transform="rotate(180 117.333 112)" fill="#F1EAE7"/>
<rect x="122.667" y="117.333" width="5.33333" height="5.33333" transform="rotate(180 122.667 117.333)" fill="#A89088"/>
<rect x="122.667" y="112" width="5.33333" height="5.33333" transform="rotate(180 122.667 112)" fill="#F1EAE7"/>
<rect x="128" y="106.667" width="5.33333" height="5.33333" transform="rotate(180 128 106.667)" fill="#F1EAE7"/>
<rect x="133.333" y="101.333" width="5.33333" height="5.33333" transform="rotate(180 133.333 101.333)" fill="#F1EAE7"/>
<rect x="138.667" y="96" width="5.33333" height="5.33333" transform="rotate(180 138.667 96)" fill="#F1EAE7"/>
<rect x="128" y="112" width="5.33333" height="5.33333" transform="rotate(180 128 112)" fill="#A89088"/>
<rect x="133.333" y="106.667" width="5.33333" height="5.33333" transform="rotate(180 133.333 106.667)" fill="#A89088"/>
<rect x="138.667" y="101.333" width="5.33333" height="5.33333" transform="rotate(180 138.667 101.333)" fill="#A89088"/>
<rect x="144" y="96" width="5.33333" height="5.33333" transform="rotate(180 144 96)" fill="#A89088"/>
<rect x="144" y="90.6667" width="5.33333" height="5.33333" transform="rotate(180 144 90.6667)" fill="#F1EAE7"/>
<rect x="144" y="85.3333" width="5.33333" height="5.33333" transform="rotate(180 144 85.3333)" fill="#F1EAE7"/>
<rect x="144" y="80" width="5.33333" height="5.33333" transform="rotate(180 144 80)" fill="#F1EAE7"/>
<rect x="138.667" y="80" width="5.33333" height="5.33333" transform="rotate(180 138.667 80)" fill="#D3CDC9"/>
<rect x="133.333" y="80" width="5.33333" height="5.33333" transform="rotate(180 133.333 80)" fill="#D3CDC9"/>
<rect x="128" y="80" width="5.33333" height="5.33333" transform="rotate(180 128 80)" fill="#D3CDC9"/>
<rect x="122.667" y="80" width="5.33333" height="5.33333" transform="rotate(180 122.667 80)" fill="#D3CDC9"/>
<rect x="117.333" y="80" width="5.33333" height="5.33333" transform="rotate(180 117.333 80)" fill="#D3CDC9"/>
<rect x="112" y="80" width="5.33333" height="5.33333" transform="rotate(180 112 80)" fill="#C7C0BB"/>
<rect x="106.667" y="80" width="5.33333" height="5.33333" transform="rotate(180 106.667 80)" fill="#C7C0BB"/>
<rect x="101.333" y="80" width="5.33333" height="5.33333" transform="rotate(180 101.333 80)" fill="#C7C0BB"/>
<rect x="96" y="80" width="5.33333" height="5.33333" transform="rotate(180 96 80)" fill="#8C7D78"/>
<rect x="90.6665" y="80" width="5.33333" height="5.33333" transform="rotate(180 90.6665 80)" fill="#FF7002"/>
<rect x="85.3335" y="80" width="5.33333" height="5.33333" transform="rotate(180 85.3335 80)" fill="#FFA202"/>
<rect x="80" y="80" width="5.33333" height="5.33333" transform="rotate(180 80 80)" fill="#FFA202"/>
<rect x="74.6665" y="80" width="5.33333" height="5.33333" transform="rotate(180 74.6665 80)" fill="#FFA202"/>
<rect x="69.3335" y="80" width="5.33333" height="5.33333" transform="rotate(180 69.3335 80)" fill="#C7C0BB"/>
<rect x="64" y="80" width="5.33333" height="5.33333" transform="rotate(180 64 80)" fill="#C7C0BB"/>
<rect x="58.6665" y="80" width="5.33333" height="5.33333" transform="rotate(180 58.6665 80)" fill="#C7C0BB"/>
<rect x="53.3335" y="80" width="5.33333" height="5.33333" transform="rotate(180 53.3335 80)" fill="#C7C0BB"/>
<rect x="48" y="80" width="5.33333" height="5.33333" transform="rotate(180 48 80)" fill="#D3CDC9"/>
<rect x="42.6665" y="80" width="5.33333" height="5.33333" transform="rotate(180 42.6665 80)" fill="#D3CDC9"/>
<rect x="37.3335" y="80" width="5.33333" height="5.33333" transform="rotate(180 37.3335 80)" fill="#D3CDC9"/>
<rect x="32" y="80" width="5.33333" height="5.33333" transform="rotate(180 32 80)" fill="#D3CDC9"/>
<rect x="26.6665" y="80" width="5.33333" height="5.33333" transform="rotate(180 26.6665 80)" fill="#D3CDC9"/>
<rect x="138.667" y="74.6667" width="5.33333" height="5.33333" transform="rotate(180 138.667 74.6667)" fill="#D3CDC9"/>
<rect x="133.333" y="74.6667" width="5.33333" height="5.33333" transform="rotate(180 133.333 74.6667)" fill="#D3CDC9"/>
<rect x="128" y="74.6667" width="5.33333" height="5.33333" transform="rotate(180 128 74.6667)" fill="#D3CDC9"/>
<rect x="122.667" y="74.6667" width="5.33333" height="5.33333" transform="rotate(180 122.667 74.6667)" fill="#D3CDC9"/>
<rect x="117.333" y="74.6667" width="5.33333" height="5.33333" transform="rotate(180 117.333 74.6667)" fill="#D3CDC9"/>
<rect x="112" y="74.6667" width="5.33333" height="5.33333" transform="rotate(180 112 74.6667)" fill="#D3CDC9"/>
<rect x="106.667" y="74.6667" width="5.33333" height="5.33333" transform="rotate(180 106.667 74.6667)" fill="#D3CDC9"/>
<rect x="101.333" y="74.6667" width="5.33333" height="5.33333" transform="rotate(180 101.333 74.6667)" fill="#D3CDC9"/>
<rect x="96" y="74.6667" width="5.33333" height="5.33333" transform="rotate(180 96 74.6667)" fill="#8C7D78"/>
<rect x="90.6665" y="74.6667" width="5.33333" height="5.33333" transform="rotate(180 90.6665 74.6667)" fill="#FF7002"/>
<rect x="85.3335" y="74.6667" width="5.33333" height="5.33333" transform="rotate(180 85.3335 74.6667)" fill="#FFA202"/>
<rect x="80" y="74.6667" width="5.33333" height="5.33333" transform="rotate(180 80 74.6667)" fill="#FFA202"/>
<rect x="74.6665" y="74.6667" width="5.33333" height="5.33333" transform="rotate(180 74.6665 74.6667)" fill="#FFA202"/>
<rect x="69.3335" y="74.6667" width="5.33333" height="5.33333" transform="rotate(180 69.3335 74.6667)" fill="#D3CDC9"/>
<rect x="64" y="74.6667" width="5.33333" height="5.33333" transform="rotate(180 64 74.6667)" fill="#D3CDC9"/>
<rect x="58.6665" y="74.6667" width="5.33333" height="5.33333" transform="rotate(180 58.6665 74.6667)" fill="#D3CDC9"/>
<rect x="53.3335" y="74.6667" width="5.33333" height="5.33333" transform="rotate(180 53.3335 74.6667)" fill="#D3CDC9"/>
<rect x="48" y="74.6667" width="5.33333" height="5.33333" transform="rotate(180 48 74.6667)" fill="#D3CDC9"/>
<rect x="42.6665" y="74.6667" width="5.33333" height="5.33333" transform="rotate(180 42.6665 74.6667)" fill="#D3CDC9"/>
<rect x="37.3335" y="74.6667" width="5.33333" height="5.33333" transform="rotate(180 37.3335 74.6667)" fill="#D3CDC9"/>
<rect x="32" y="74.6667" width="5.33333" height="5.33333" transform="rotate(180 32 74.6667)" fill="#D3CDC9"/>
<rect x="26.6665" y="74.6667" width="5.33333" height="5.33333" transform="rotate(180 26.6665 74.6667)" fill="#D3CDC9"/>
<rect x="138.667" y="69.3333" width="5.33333" height="5.33333" transform="rotate(180 138.667 69.3333)" fill="#D3CDC9"/>
<rect x="133.333" y="69.3333" width="5.33333" height="5.33333" transform="rotate(180 133.333 69.3333)" fill="#D3CDC9"/>
<rect x="128" y="69.3333" width="5.33333" height="5.33333" transform="rotate(180 128 69.3333)" fill="#D3CDC9"/>
<rect x="122.667" y="69.3333" width="5.33333" height="5.33333" transform="rotate(180 122.667 69.3333)" fill="#D3CDC9"/>
<rect x="117.333" y="69.3333" width="5.33333" height="5.33333" transform="rotate(180 117.333 69.3333)" fill="#D3CDC9"/>
<rect x="112" y="69.3333" width="5.33333" height="5.33333" transform="rotate(180 112 69.3333)" fill="#D3CDC9"/>
<rect x="106.667" y="69.3333" width="5.33333" height="5.33333" transform="rotate(180 106.667 69.3333)" fill="#D3CDC9"/>
<rect x="101.333" y="69.3333" width="5.33333" height="5.33333" transform="rotate(180 101.333 69.3333)" fill="#8C7D78"/>
<rect x="96" y="69.3333" width="5.33333" height="5.33333" transform="rotate(180 96 69.3333)" fill="#FF7002"/>
<rect x="90.6665" y="69.3333" width="5.33333" height="5.33333" transform="rotate(180 90.6665 69.3333)" fill="#FFA202"/>
<rect x="85.3335" y="69.3333" width="5.33333" height="5.33333" transform="rotate(180 85.3335 69.3333)" fill="#FFA202"/>
<rect x="80" y="69.3333" width="5.33333" height="5.33333" transform="rotate(180 80 69.3333)" fill="#FFA202"/>
<rect x="74.6665" y="69.3333" width="5.33333" height="5.33333" transform="rotate(180 74.6665 69.3333)" fill="#FFA202"/>
<rect x="69.3335" y="69.3333" width="5.33333" height="5.33333" transform="rotate(180 69.3335 69.3333)" fill="#FFA202"/>
<rect x="64" y="69.3333" width="5.33333" height="5.33333" transform="rotate(180 64 69.3333)" fill="#D3CDC9"/>
<rect x="58.6665" y="69.3333" width="5.33333" height="5.33333" transform="rotate(180 58.6665 69.3333)" fill="#D3CDC9"/>
<rect x="53.3335" y="69.3333" width="5.33333" height="5.33333" transform="rotate(180 53.3335 69.3333)" fill="#D3CDC9"/>
<rect x="48" y="69.3333" width="5.33333" height="5.33333" transform="rotate(180 48 69.3333)" fill="#D3CDC9"/>
<rect x="42.6665" y="69.3333" width="5.33333" height="5.33333" transform="rotate(180 42.6665 69.3333)" fill="#D3CDC9"/>
<rect x="37.3335" y="69.3333" width="5.33333" height="5.33333" transform="rotate(180 37.3335 69.3333)" fill="#D3CDC9"/>
<rect x="32" y="69.3333" width="5.33333" height="5.33333" transform="rotate(180 32 69.3333)" fill="#D3CDC9"/>
<rect x="26.6665" y="69.3333" width="5.33333" height="5.33333" transform="rotate(180 26.6665 69.3333)" fill="#D3CDC9"/>
<rect x="138.667" y="64" width="5.33333" height="5.33333" transform="rotate(180 138.667 64)" fill="#D3CDC9"/>
<rect x="133.333" y="64" width="5.33333" height="5.33333" transform="rotate(180 133.333 64)" fill="#D3CDC9"/>
<rect x="128" y="64" width="5.33333" height="5.33333" transform="rotate(180 128 64)" fill="#D3CDC9"/>
<rect x="122.667" y="64" width="5.33333" height="5.33333" transform="rotate(180 122.667 64)" fill="#D3CDC9"/>
<rect x="117.333" y="64" width="5.33333" height="5.33333" transform="rotate(180 117.333 64)" fill="#D3CDC9"/>
<rect x="112" y="64" width="5.33333" height="5.33333" transform="rotate(180 112 64)" fill="#D3CDC9"/>
<rect x="106.667" y="64" width="5.33333" height="5.33333" transform="rotate(180 106.667 64)" fill="#D3CDC9"/>
<rect x="101.333" y="64" width="5.33333" height="5.33333" transform="rotate(180 101.333 64)" fill="#8C7D78"/>
<rect x="96" y="64" width="5.33333" height="5.33333" transform="rotate(180 96 64)" fill="#FF7002"/>
<rect x="90.6665" y="64" width="5.33333" height="5.33333" transform="rotate(180 90.6665 64)" fill="#FFA202"/>
<rect x="85.3335" y="64" width="5.33333" height="5.33333" transform="rotate(180 85.3335 64)" fill="#FFA202"/>
<rect x="80" y="64" width="5.33333" height="5.33333" transform="rotate(180 80 64)" fill="#FFA202"/>
<rect x="74.6665" y="64" width="5.33333" height="5.33333" transform="rotate(180 74.6665 64)" fill="#FFA202"/>
<rect x="69.3335" y="64" width="5.33333" height="5.33333" transform="rotate(180 69.3335 64)" fill="#FFA202"/>
<rect x="64" y="64" width="5.33333" height="5.33333" transform="rotate(180 64 64)" fill="#D3CDC9"/>
<rect x="58.6665" y="64" width="5.33333" height="5.33333" transform="rotate(180 58.6665 64)" fill="#D3CDC9"/>
<rect x="53.3335" y="64" width="5.33333" height="5.33333" transform="rotate(180 53.3335 64)" fill="#D3CDC9"/>
<rect x="48" y="64" width="5.33333" height="5.33333" transform="rotate(180 48 64)" fill="#D3CDC9"/>
<rect x="42.6665" y="64" width="5.33333" height="5.33333" transform="rotate(180 42.6665 64)" fill="#D3CDC9"/>
<rect x="37.3335" y="64" width="5.33333" height="5.33333" transform="rotate(180 37.3335 64)" fill="#D3CDC9"/>
<rect x="32" y="64" width="5.33333" height="5.33333" transform="rotate(180 32 64)" fill="#D3CDC9"/>
<rect x="26.6665" y="64" width="5.33333" height="5.33333" transform="rotate(180 26.6665 64)" fill="#D3CDC9"/>
<rect x="138.667" y="58.6667" width="5.33333" height="5.33333" transform="rotate(180 138.667 58.6667)" fill="#D3CDC9"/>
<rect x="133.333" y="58.6667" width="5.33333" height="5.33333" transform="rotate(180 133.333 58.6667)" fill="#D3CDC9"/>
<rect x="128" y="58.6667" width="5.33333" height="5.33333" transform="rotate(180 128 58.6667)" fill="#D3CDC9"/>
<rect x="122.667" y="58.6667" width="5.33333" height="5.33333" transform="rotate(180 122.667 58.6667)" fill="#D3CDC9"/>
<rect x="117.333" y="58.6667" width="5.33333" height="5.33333" transform="rotate(180 117.333 58.6667)" fill="#D3CDC9"/>
<rect x="112" y="58.6667" width="5.33333" height="5.33333" transform="rotate(180 112 58.6667)" fill="#D3CDC9"/>
<rect x="106.667" y="58.6667" width="5.33333" height="5.33333" transform="rotate(180 106.667 58.6667)" fill="#D3CDC9"/>
<rect x="101.333" y="58.6667" width="5.33333" height="5.33333" transform="rotate(180 101.333 58.6667)" fill="#8C7D78"/>
<rect x="96" y="58.6667" width="5.33333" height="5.33333" transform="rotate(180 96 58.6667)" fill="#FF7002"/>
<rect x="90.6665" y="58.6667" width="5.33333" height="5.33333" transform="rotate(180 90.6665 58.6667)" fill="#FFF8E1"/>
<rect x="85.3335" y="58.6667" width="5.33333" height="5.33333" transform="rotate(180 85.3335 58.6667)" fill="#FFA202"/>
<rect x="80" y="58.6667" width="5.33333" height="5.33333" transform="rotate(180 80 58.6667)" fill="#FFA202"/>
<rect x="74.6665" y="58.6667" width="5.33333" height="5.33333" transform="rotate(180 74.6665 58.6667)" fill="#FFA202"/>
<rect x="69.3335" y="58.6667" width="5.33333" height="5.33333" transform="rotate(180 69.3335 58.6667)" fill="#FFA202"/>
<rect x="64" y="58.6667" width="5.33333" height="5.33333" transform="rotate(180 64 58.6667)" fill="#D3CDC9"/>
<rect x="58.6665" y="58.6667" width="5.33333" height="5.33333" transform="rotate(180 58.6665 58.6667)" fill="#D3CDC9"/>
<rect x="53.3335" y="58.6667" width="5.33333" height="5.33333" transform="rotate(180 53.3335 58.6667)" fill="#D3CDC9"/>
<rect x="48" y="58.6667" width="5.33333" height="5.33333" transform="rotate(180 48 58.6667)" fill="#D3CDC9"/>
<rect x="42.6665" y="58.6667" width="5.33333" height="5.33333" transform="rotate(180 42.6665 58.6667)" fill="#D3CDC9"/>
<rect x="37.3335" y="58.6667" width="5.33333" height="5.33333" transform="rotate(180 37.3335 58.6667)" fill="#D3CDC9"/>
<rect x="32" y="58.6667" width="5.33333" height="5.33333" transform="rotate(180 32 58.6667)" fill="#D3CDC9"/>
<rect x="26.6665" y="58.6667" width="5.33333" height="5.33333" transform="rotate(180 26.6665 58.6667)" fill="#D3CDC9"/>
<rect x="138.667" y="53.3333" width="5.33333" height="5.33333" transform="rotate(180 138.667 53.3333)" fill="#D3CDC9"/>
<rect x="133.333" y="53.3333" width="5.33333" height="5.33333" transform="rotate(180 133.333 53.3333)" fill="#D3CDC9"/>
<rect x="133.333" y="48" width="5.33333" height="5.33333" transform="rotate(180 133.333 48)" fill="#D3CDC9"/>
<rect x="128" y="53.3333" width="5.33333" height="5.33333" transform="rotate(180 128 53.3333)" fill="#D3CDC9"/>
<rect x="128" y="48" width="5.33333" height="5.33333" transform="rotate(180 128 48)" fill="#D3CDC9"/>
<rect x="128" y="42.6667" width="5.33333" height="5.33333" transform="rotate(180 128 42.6667)" fill="#D3CDC9"/>
<rect x="122.667" y="53.3333" width="5.33333" height="5.33333" transform="rotate(180 122.667 53.3333)" fill="#D3CDC9"/>
<rect x="122.667" y="48" width="5.33333" height="5.33333" transform="rotate(180 122.667 48)" fill="#D3CDC9"/>
<rect x="122.667" y="42.6667" width="5.33333" height="5.33333" transform="rotate(180 122.667 42.6667)" fill="#D3CDC9"/>
<rect x="117.333" y="53.3333" width="5.33333" height="5.33333" transform="rotate(180 117.333 53.3333)" fill="#D3CDC9"/>
<rect x="117.333" y="48" width="5.33333" height="5.33333" transform="rotate(180 117.333 48)" fill="#D3CDC9"/>
<rect x="117.333" y="42.6667" width="5.33333" height="5.33333" transform="rotate(180 117.333 42.6667)" fill="#D3CDC9"/>
<rect x="117.333" y="37.3333" width="5.33333" height="5.33333" transform="rotate(180 117.333 37.3333)" fill="#D3CDC9"/>
<rect x="112" y="53.3333" width="5.33333" height="5.33333" transform="rotate(180 112 53.3333)" fill="#D3CDC9"/>
<rect x="112" y="48" width="5.33333" height="5.33333" transform="rotate(180 112 48)" fill="#D3CDC9"/>
<rect x="112" y="42.6667" width="5.33333" height="5.33333" transform="rotate(180 112 42.6667)" fill="#D3CDC9"/>
<rect x="112" y="37.3333" width="5.33333" height="5.33333" transform="rotate(180 112 37.3333)" fill="#D3CDC9"/>
<rect x="106.667" y="53.3333" width="5.33333" height="5.33333" transform="rotate(180 106.667 53.3333)" fill="#D3CDC9"/>
<rect x="106.667" y="48" width="5.33333" height="5.33333" transform="rotate(180 106.667 48)" fill="#D3CDC9"/>
<rect x="106.667" y="42.6667" width="5.33333" height="5.33333" transform="rotate(180 106.667 42.6667)" fill="#D3CDC9"/>
<rect x="106.667" y="37.3333" width="5.33333" height="5.33333" transform="rotate(180 106.667 37.3333)" fill="#D3CDC9"/>
<rect x="106.667" y="32" width="5.33333" height="5.33333" transform="rotate(180 106.667 32)" fill="#D3CDC9"/>
<rect x="101.333" y="53.3333" width="5.33333" height="5.33333" transform="rotate(180 101.333 53.3333)" fill="#8C7D78"/>
<rect x="101.333" y="48" width="5.33333" height="5.33333" transform="rotate(180 101.333 48)" fill="#8C7D78"/>
<rect x="101.333" y="42.6667" width="5.33333" height="5.33333" transform="rotate(180 101.333 42.6667)" fill="#D3CDC9"/>
<rect x="101.333" y="37.3333" width="5.33333" height="5.33333" transform="rotate(180 101.333 37.3333)" fill="#D3CDC9"/>
<rect x="101.333" y="32" width="5.33333" height="5.33333" transform="rotate(180 101.333 32)" fill="#D3CDC9"/>
<rect x="96" y="53.3333" width="5.33333" height="5.33333" transform="rotate(180 96 53.3333)" fill="#FF7002"/>
<rect x="96" y="48" width="5.33333" height="5.33333" transform="rotate(180 96 48)" fill="#FF7002"/>
<rect x="96" y="42.6667" width="5.33333" height="5.33333" transform="rotate(180 96 42.6667)" fill="#8C7D78"/>
<rect x="96" y="37.3333" width="5.33333" height="5.33333" transform="rotate(180 96 37.3333)" fill="#D3CDC9"/>
<rect x="96" y="32" width="5.33333" height="5.33333" transform="rotate(180 96 32)" fill="#D3CDC9"/>
<rect x="90.6665" y="53.3333" width="5.33333" height="5.33333" transform="rotate(180 90.6665 53.3333)" fill="#FFF8E1"/>
<rect x="90.6665" y="42.6667" width="5.33333" height="5.33333" transform="rotate(180 90.6665 42.6667)" fill="#FF7002"/>
<rect x="90.6665" y="48" width="5.33333" height="5.33333" transform="rotate(180 90.6665 48)" fill="#FFA202"/>
<rect x="90.6665" y="37.3333" width="5.33333" height="5.33333" transform="rotate(180 90.6665 37.3333)" fill="#D3CDC9"/>
<rect x="90.6665" y="32" width="5.33333" height="5.33333" transform="rotate(180 90.6665 32)" fill="#D3CDC9"/>
<rect x="85.3335" y="53.3333" width="5.33333" height="5.33333" transform="rotate(180 85.3335 53.3333)" fill="#FFA202"/>
<rect x="85.3335" y="48" width="5.33333" height="5.33333" transform="rotate(180 85.3335 48)" fill="#FFA202"/>
<rect x="85.3335" y="42.6667" width="5.33333" height="5.33333" transform="rotate(180 85.3335 42.6667)" fill="#FFA202"/>
<rect x="85.3335" y="37.3333" width="5.33333" height="5.33333" transform="rotate(180 85.3335 37.3333)" fill="#D3CDC9"/>
<rect x="85.3335" y="32" width="5.33333" height="5.33333" transform="rotate(180 85.3335 32)" fill="#D3CDC9"/>
<rect x="80" y="53.3333" width="5.33333" height="5.33333" transform="rotate(180 80 53.3333)" fill="#FFA202"/>
<rect x="80" y="48" width="5.33333" height="5.33333" transform="rotate(180 80 48)" fill="#FFA202"/>
<rect x="80" y="42.6667" width="5.33333" height="5.33333" transform="rotate(180 80 42.6667)" fill="#FFA202"/>
<rect x="80" y="37.3333" width="5.33333" height="5.33333" transform="rotate(180 80 37.3333)" fill="#D3CDC9"/>
<rect x="80" y="32" width="5.33333" height="5.33333" transform="rotate(180 80 32)" fill="#D3CDC9"/>
<rect x="74.6665" y="53.3333" width="5.33333" height="5.33333" transform="rotate(180 74.6665 53.3333)" fill="#FFA202"/>
<rect x="74.6665" y="42.6667" width="5.33333" height="5.33333" transform="rotate(180 74.6665 42.6667)" fill="#FFF8E1"/>
<rect x="74.6665" y="48" width="5.33333" height="5.33333" transform="rotate(180 74.6665 48)" fill="#FFA202"/>
<rect x="74.6665" y="37.3333" width="5.33333" height="5.33333" transform="rotate(180 74.6665 37.3333)" fill="#D3CDC9"/>
<rect x="74.6665" y="32" width="5.33333" height="5.33333" transform="rotate(180 74.6665 32)" fill="#D3CDC9"/>
<rect x="69.3335" y="53.3333" width="5.33333" height="5.33333" transform="rotate(180 69.3335 53.3333)" fill="#FFA202"/>
<rect x="69.3335" y="48" width="5.33333" height="5.33333" transform="rotate(180 69.3335 48)" fill="#FFF8E1"/>
<rect x="69.3335" y="42.6667" width="5.33333" height="5.33333" transform="rotate(180 69.3335 42.6667)" fill="#D3CDC9"/>
<rect x="69.3335" y="37.3333" width="5.33333" height="5.33333" transform="rotate(180 69.3335 37.3333)" fill="#D3CDC9"/>
<rect x="69.3335" y="32" width="5.33333" height="5.33333" transform="rotate(180 69.3335 32)" fill="#D3CDC9"/>
<rect x="64" y="53.3333" width="5.33333" height="5.33333" transform="rotate(180 64 53.3333)" fill="#D3CDC9"/>
<rect x="64" y="48" width="5.33333" height="5.33333" transform="rotate(180 64 48)" fill="#D3CDC9"/>
<rect x="64" y="42.6667" width="5.33333" height="5.33333" transform="rotate(180 64 42.6667)" fill="#D3CDC9"/>
<rect x="64" y="37.3333" width="5.33333" height="5.33333" transform="rotate(180 64 37.3333)" fill="#D3CDC9"/>
<rect x="64" y="32" width="5.33333" height="5.33333" transform="rotate(180 64 32)" fill="#D3CDC9"/>
<rect x="58.6665" y="53.3333" width="5.33333" height="5.33333" transform="rotate(180 58.6665 53.3333)" fill="#D3CDC9"/>
<rect x="58.6665" y="48" width="5.33333" height="5.33333" transform="rotate(180 58.6665 48)" fill="#D3CDC9"/>
<rect x="58.6665" y="42.6667" width="5.33333" height="5.33333" transform="rotate(180 58.6665 42.6667)" fill="#D3CDC9"/>
<rect x="58.6665" y="37.3333" width="5.33333" height="5.33333" transform="rotate(180 58.6665 37.3333)" fill="#D3CDC9"/>
<rect x="58.6665" y="32" width="5.33333" height="5.33333" transform="rotate(180 58.6665 32)" fill="#D3CDC9"/>
<rect x="53.3335" y="53.3333" width="5.33333" height="5.33333" transform="rotate(180 53.3335 53.3333)" fill="#D3CDC9"/>
<rect x="53.3335" y="48" width="5.33333" height="5.33333" transform="rotate(180 53.3335 48)" fill="#D3CDC9"/>
<rect x="53.3335" y="42.6667" width="5.33333" height="5.33333" transform="rotate(180 53.3335 42.6667)" fill="#D3CDC9"/>
<rect x="53.3335" y="37.3333" width="5.33333" height="5.33333" transform="rotate(180 53.3335 37.3333)" fill="#D3CDC9"/>
<rect x="48" y="53.3333" width="5.33333" height="5.33333" transform="rotate(180 48 53.3333)" fill="#D3CDC9"/>
<rect x="48" y="48" width="5.33333" height="5.33333" transform="rotate(180 48 48)" fill="#D3CDC9"/>
<rect x="48" y="42.6667" width="5.33333" height="5.33333" transform="rotate(180 48 42.6667)" fill="#D3CDC9"/>
<rect x="48" y="37.3333" width="5.33333" height="5.33333" transform="rotate(180 48 37.3333)" fill="#D3CDC9"/>
<rect x="42.6665" y="53.3333" width="5.33333" height="5.33333" transform="rotate(180 42.6665 53.3333)" fill="#D3CDC9"/>
<rect x="42.6665" y="48" width="5.33333" height="5.33333" transform="rotate(180 42.6665 48)" fill="#D3CDC9"/>
<rect x="42.6665" y="42.6667" width="5.33333" height="5.33333" transform="rotate(180 42.6665 42.6667)" fill="#D3CDC9"/>
<rect x="37.3335" y="53.3333" width="5.33333" height="5.33333" transform="rotate(180 37.3335 53.3333)" fill="#D3CDC9"/>
<rect x="37.3335" y="48" width="5.33333" height="5.33333" transform="rotate(180 37.3335 48)" fill="#D3CDC9"/>
<rect x="37.3335" y="42.6667" width="5.33333" height="5.33333" transform="rotate(180 37.3335 42.6667)" fill="#D3CDC9"/>
<rect x="32" y="53.3333" width="5.33333" height="5.33333" transform="rotate(180 32 53.3333)" fill="#D3CDC9"/>
<rect x="32" y="48" width="5.33333" height="5.33333" transform="rotate(180 32 48)" fill="#D3CDC9"/>
<rect x="26.6665" y="53.3333" width="5.33333" height="5.33333" transform="rotate(180 26.6665 53.3333)" fill="#D3CDC9"/>
<rect x="138.667" y="85.3333" width="5.33333" height="5.33333" transform="rotate(180 138.667 85.3333)" fill="#D3CDC9"/>
<rect x="133.333" y="85.3333" width="5.33333" height="5.33333" transform="rotate(180 133.333 85.3333)" fill="#D3CDC9"/>
<rect x="128" y="85.3333" width="5.33333" height="5.33333" transform="rotate(180 128 85.3333)" fill="#D3CDC9"/>
<rect x="122.667" y="85.3333" width="5.33333" height="5.33333" transform="rotate(180 122.667 85.3333)" fill="#C7C0BB"/>
<rect x="117.333" y="85.3333" width="5.33333" height="5.33333" transform="rotate(180 117.333 85.3333)" fill="#C7C0BB"/>
<rect x="112" y="85.3333" width="5.33333" height="5.33333" transform="rotate(180 112 85.3333)" fill="#C7C0BB"/>
<rect x="106.667" y="85.3333" width="5.33333" height="5.33333" transform="rotate(180 106.667 85.3333)" fill="#C7C0BB"/>
<rect x="101.333" y="85.3333" width="5.33333" height="5.33333" transform="rotate(180 101.333 85.3333)" fill="#C7C0BB"/>
<rect x="96" y="85.3333" width="5.33333" height="5.33333" transform="rotate(180 96 85.3333)" fill="#8C7D78"/>
<rect x="90.6665" y="85.3333" width="5.33333" height="5.33333" transform="rotate(180 90.6665 85.3333)" fill="#FF7002"/>
<rect x="85.3335" y="85.3333" width="5.33333" height="5.33333" transform="rotate(180 85.3335 85.3333)" fill="#FFA202"/>
<rect x="80" y="85.3333" width="5.33333" height="5.33333" transform="rotate(180 80 85.3333)" fill="#FFA202"/>
<rect x="74.6665" y="85.3333" width="5.33333" height="5.33333" transform="rotate(180 74.6665 85.3333)" fill="#FFA202"/>
<rect x="69.3335" y="85.3333" width="5.33333" height="5.33333" transform="rotate(180 69.3335 85.3333)" fill="#C7C0BB"/>
<rect x="64" y="85.3333" width="5.33333" height="5.33333" transform="rotate(180 64 85.3333)" fill="#C7C0BB"/>
<rect x="58.6665" y="85.3333" width="5.33333" height="5.33333" transform="rotate(180 58.6665 85.3333)" fill="#C7C0BB"/>
<rect x="53.3335" y="85.3333" width="5.33333" height="5.33333" transform="rotate(180 53.3335 85.3333)" fill="#C7C0BB"/>
<rect x="48" y="85.3333" width="5.33333" height="5.33333" transform="rotate(180 48 85.3333)" fill="#C7C0BB"/>
<rect x="42.6665" y="85.3333" width="5.33333" height="5.33333" transform="rotate(180 42.6665 85.3333)" fill="#C7C0BB"/>
<rect x="37.3335" y="85.3333" width="5.33333" height="5.33333" transform="rotate(180 37.3335 85.3333)" fill="#D3CDC9"/>
<rect x="32" y="85.3333" width="5.33333" height="5.33333" transform="rotate(180 32 85.3333)" fill="#D3CDC9"/>
<rect x="26.6665" y="85.3333" width="5.33333" height="5.33333" transform="rotate(180 26.6665 85.3333)" fill="#D3CDC9"/>
<rect x="138.667" y="90.6667" width="5.33333" height="5.33333" transform="rotate(180 138.667 90.6667)" fill="#D3CDC9"/>
<rect x="133.333" y="90.6667" width="5.33333" height="5.33333" transform="rotate(180 133.333 90.6667)" fill="#C7C0BB"/>
<rect x="128" y="90.6667" width="5.33333" height="5.33333" transform="rotate(180 128 90.6667)" fill="#C7C0BB"/>
<rect x="128" y="96" width="5.33333" height="5.33333" transform="rotate(180 128 96)" fill="#C7C0BB"/>
<rect x="122.667" y="90.6667" width="5.33333" height="5.33333" transform="rotate(180 122.667 90.6667)" fill="#C7C0BB"/>
<rect x="122.667" y="96" width="5.33333" height="5.33333" transform="rotate(180 122.667 96)" fill="#C7C0BB"/>
<rect x="122.667" y="101.333" width="5.33333" height="5.33333" transform="rotate(180 122.667 101.333)" fill="#C7C0BB"/>
<rect x="117.333" y="90.6667" width="5.33333" height="5.33333" transform="rotate(180 117.333 90.6667)" fill="#C7C0BB"/>
<rect x="117.333" y="96" width="5.33333" height="5.33333" transform="rotate(180 117.333 96)" fill="#C7C0BB"/>
<rect x="117.333" y="101.333" width="5.33333" height="5.33333" transform="rotate(180 117.333 101.333)" fill="#C7C0BB"/>
<rect x="112" y="90.6667" width="5.33333" height="5.33333" transform="rotate(180 112 90.6667)" fill="#C7C0BB"/>
<rect x="112" y="96" width="5.33333" height="5.33333" transform="rotate(180 112 96)" fill="#C7C0BB"/>
<rect x="112" y="101.333" width="5.33333" height="5.33333" transform="rotate(180 112 101.333)" fill="#C7C0BB"/>
<rect x="112" y="106.667" width="5.33333" height="5.33333" transform="rotate(180 112 106.667)" fill="#C7C0BB"/>
<rect x="106.667" y="90.6667" width="5.33333" height="5.33333" transform="rotate(180 106.667 90.6667)" fill="#C7C0BB"/>
<rect x="106.667" y="96" width="5.33333" height="5.33333" transform="rotate(180 106.667 96)" fill="#C7C0BB"/>
<rect x="106.667" y="101.333" width="5.33333" height="5.33333" transform="rotate(180 106.667 101.333)" fill="#C7C0BB"/>
<rect x="106.667" y="106.667" width="5.33333" height="5.33333" transform="rotate(180 106.667 106.667)" fill="#C7C0BB"/>
<rect x="101.333" y="90.6667" width="5.33333" height="5.33333" transform="rotate(180 101.333 90.6667)" fill="#C7C0BB"/>
<rect x="101.333" y="96" width="5.33333" height="5.33333" transform="rotate(180 101.333 96)" fill="#C7C0BB"/>
<rect x="101.333" y="101.333" width="5.33333" height="5.33333" transform="rotate(180 101.333 101.333)" fill="#C7C0BB"/>
<rect x="101.333" y="106.667" width="5.33333" height="5.33333" transform="rotate(180 101.333 106.667)" fill="#C7C0BB"/>
<rect x="96" y="90.6667" width="5.33333" height="5.33333" transform="rotate(180 96 90.6667)" fill="#C7C0BB"/>
<rect x="96" y="96" width="5.33333" height="5.33333" transform="rotate(180 96 96)" fill="#C7C0BB"/>
<rect x="96" y="101.333" width="5.33333" height="5.33333" transform="rotate(180 96 101.333)" fill="#C7C0BB"/>
<rect x="96" y="106.667" width="5.33333" height="5.33333" transform="rotate(180 96 106.667)" fill="#8C7D78"/>
<rect x="90.6665" y="90.6667" width="5.33333" height="5.33333" transform="rotate(180 90.6665 90.6667)" fill="#8C7D78"/>
<rect x="90.6665" y="96" width="5.33333" height="5.33333" transform="rotate(180 90.6665 96)" fill="#C7C0BB"/>
<rect x="90.6665" y="101.333" width="5.33333" height="5.33333" transform="rotate(180 90.6665 101.333)" fill="#8C7D78"/>
<rect x="90.6665" y="106.667" width="5.33333" height="5.33333" transform="rotate(180 90.6665 106.667)" fill="#FF7002"/>
<rect x="85.3335" y="90.6667" width="5.33333" height="5.33333" transform="rotate(180 85.3335 90.6667)" fill="#FF7002"/>
<rect x="85.3335" y="96" width="5.33333" height="5.33333" transform="rotate(180 85.3335 96)" fill="#8C7D78"/>
<rect x="85.3335" y="101.333" width="5.33333" height="5.33333" transform="rotate(180 85.3335 101.333)" fill="#FFA202"/>
<rect x="85.3335" y="106.667" width="5.33333" height="5.33333" transform="rotate(180 85.3335 106.667)" fill="#FFA202"/>
<rect x="80" y="90.6667" width="5.33333" height="5.33333" transform="rotate(180 80 90.6667)" fill="#FF7002"/>
<rect x="80" y="96" width="5.33333" height="5.33333" transform="rotate(180 80 96)" fill="#8C7D78"/>
<rect x="80" y="101.333" width="5.33333" height="5.33333" transform="rotate(180 80 101.333)" fill="#FFF8E1"/>
<rect x="80" y="106.667" width="5.33333" height="5.33333" transform="rotate(180 80 106.667)" fill="#FFA202"/>
<rect x="74.6665" y="90.6667" width="5.33333" height="5.33333" transform="rotate(180 74.6665 90.6667)" fill="#C7C0BB"/>
<rect x="74.6665" y="96" width="5.33333" height="5.33333" transform="rotate(180 74.6665 96)" fill="#C7C0BB"/>
<rect x="74.6665" y="101.333" width="5.33333" height="5.33333" transform="rotate(180 74.6665 101.333)" fill="#C7C0BB"/>
<rect x="74.6665" y="106.667" width="5.33333" height="5.33333" transform="rotate(180 74.6665 106.667)" fill="#FFF8E1"/>
<rect x="69.3335" y="90.6667" width="5.33333" height="5.33333" transform="rotate(180 69.3335 90.6667)" fill="#C7C0BB"/>
<rect x="69.3335" y="96" width="5.33333" height="5.33333" transform="rotate(180 69.3335 96)" fill="#C7C0BB"/>
<rect x="69.3335" y="101.333" width="5.33333" height="5.33333" transform="rotate(180 69.3335 101.333)" fill="#C7C0BB"/>
<rect x="69.3335" y="106.667" width="5.33333" height="5.33333" transform="rotate(180 69.3335 106.667)" fill="#C7C0BB"/>
<rect x="64" y="90.6667" width="5.33333" height="5.33333" transform="rotate(180 64 90.6667)" fill="#C7C0BB"/>
<rect x="64" y="96" width="5.33333" height="5.33333" transform="rotate(180 64 96)" fill="#C7C0BB"/>
<rect x="64" y="101.333" width="5.33333" height="5.33333" transform="rotate(180 64 101.333)" fill="#C7C0BB"/>
<rect x="64" y="106.667" width="5.33333" height="5.33333" transform="rotate(180 64 106.667)" fill="#C7C0BB"/>
<rect x="58.6665" y="90.6667" width="5.33333" height="5.33333" transform="rotate(180 58.6665 90.6667)" fill="#C7C0BB"/>
<rect x="58.6665" y="96" width="5.33333" height="5.33333" transform="rotate(180 58.6665 96)" fill="#C7C0BB"/>
<rect x="58.6665" y="101.333" width="5.33333" height="5.33333" transform="rotate(180 58.6665 101.333)" fill="#C7C0BB"/>
<rect x="58.6665" y="106.667" width="5.33333" height="5.33333" transform="rotate(180 58.6665 106.667)" fill="#C7C0BB"/>
<rect x="53.3335" y="90.6667" width="5.33333" height="5.33333" transform="rotate(180 53.3335 90.6667)" fill="#C7C0BB"/>
<rect x="53.3335" y="96" width="5.33333" height="5.33333" transform="rotate(180 53.3335 96)" fill="#C7C0BB"/>
<rect x="53.3335" y="101.333" width="5.33333" height="5.33333" transform="rotate(180 53.3335 101.333)" fill="#C7C0BB"/>
<rect x="53.3335" y="106.667" width="5.33333" height="5.33333" transform="rotate(180 53.3335 106.667)" fill="#C7C0BB"/>
<rect x="48" y="90.6667" width="5.33333" height="5.33333" transform="rotate(180 48 90.6667)" fill="#C7C0BB"/>
<rect x="48" y="96" width="5.33333" height="5.33333" transform="rotate(180 48 96)" fill="#C7C0BB"/>
<rect x="48" y="101.333" width="5.33333" height="5.33333" transform="rotate(180 48 101.333)" fill="#C7C0BB"/>
<rect x="42.6665" y="90.6667" width="5.33333" height="5.33333" transform="rotate(180 42.6665 90.6667)" fill="#C7C0BB"/>
<rect x="42.6665" y="96" width="5.33333" height="5.33333" transform="rotate(180 42.6665 96)" fill="#C7C0BB"/>
<rect x="42.6665" y="101.333" width="5.33333" height="5.33333" transform="rotate(180 42.6665 101.333)" fill="#C7C0BB"/>
<rect x="37.3335" y="90.6667" width="5.33333" height="5.33333" transform="rotate(180 37.3335 90.6667)" fill="#C7C0BB"/>
<rect x="37.3335" y="96" width="5.33333" height="5.33333" transform="rotate(180 37.3335 96)" fill="#C7C0BB"/>
<rect x="32" y="90.6667" width="5.33333" height="5.33333" transform="rotate(180 32 90.6667)" fill="#C7C0BB"/>
<rect x="26.6665" y="90.6667" width="5.33333" height="5.33333" transform="rotate(180 26.6665 90.6667)" fill="#D3CDC9"/>
<rect x="101.333" y="128" width="5.33333" height="5.33333" transform="rotate(180 101.333 128)" fill="#A89088"/>
<rect x="101.333" y="122.667" width="5.33333" height="5.33333" transform="rotate(180 101.333 122.667)" fill="#A89088"/>
<rect x="106.667" y="128" width="5.33333" height="5.33333" transform="rotate(180 106.667 128)" fill="#A89088"/>
<rect x="112" y="128" width="5.33333" height="5.33333" transform="rotate(180 112 128)" fill="#A89088"/>
<rect x="117.333" y="122.667" width="5.33333" height="5.33333" transform="rotate(180 117.333 122.667)" fill="#A89088"/>
<rect x="122.667" y="122.667" width="5.33333" height="5.33333" transform="rotate(180 122.667 122.667)" fill="#A89088"/>
<rect x="128" y="117.333" width="5.33333" height="5.33333" transform="rotate(180 128 117.333)" fill="#A89088"/>
<rect x="133.333" y="112" width="5.33333" height="5.33333" transform="rotate(180 133.333 112)" fill="#A89088"/>
<rect x="90.6665" y="138.667" width="5.33333" height="5.33333" transform="rotate(180 90.6665 138.667)" fill="#A89088"/>
<rect x="96" y="133.333" width="5.33333" height="5.33333" transform="rotate(180 96 133.333)" fill="#A89088"/>
<rect x="96" y="138.667" width="5.33333" height="5.33333" transform="rotate(180 96 138.667)" fill="#A89088"/>
<rect x="101.333" y="133.333" width="5.33333" height="5.33333" transform="rotate(180 101.333 133.333)" fill="#A89088"/>
<rect x="101.333" y="138.667" width="5.33333" height="5.33333" transform="rotate(180 101.333 138.667)" fill="#A89088"/>
<rect x="106.667" y="133.333" width="5.33333" height="5.33333" transform="rotate(180 106.667 133.333)" fill="#A89088"/>
<rect x="112" y="133.333" width="5.33333" height="5.33333" transform="rotate(180 112 133.333)" fill="#A89088"/>
<rect x="117.333" y="128" width="5.33333" height="5.33333" transform="rotate(180 117.333 128)" fill="#A89088"/>
<rect x="26.6665" y="96" width="5.33333" height="5.33333" transform="rotate(180 26.6665 96)" fill="#F1EAE7"/>
<rect x="32" y="101.333" width="5.33333" height="5.33333" transform="rotate(180 32 101.333)" fill="#F1EAE7"/>
<rect x="37.3335" y="106.667" width="5.33333" height="5.33333" transform="rotate(180 37.3335 106.667)" fill="#F1EAE7"/>
<rect x="42.6665" y="112" width="5.33333" height="5.33333" transform="rotate(180 42.6665 112)" fill="#F1EAE7"/>
<rect x="48" y="112" width="5.33333" height="5.33333" transform="rotate(180 48 112)" fill="#F1EAE7"/>
<rect x="53.3335" y="117.333" width="5.33333" height="5.33333" transform="rotate(180 53.3335 117.333)" fill="#F1EAE7"/>
<rect x="58.6665" y="117.333" width="5.33333" height="5.33333" transform="rotate(180 58.6665 117.333)" fill="#F1EAE7"/>
<rect x="64" y="117.333" width="5.33333" height="5.33333" transform="rotate(180 64 117.333)" fill="#F1EAE7"/>
<rect x="69.3335" y="117.333" width="5.33333" height="5.33333" transform="rotate(180 69.3335 117.333)" fill="#F1EAE7"/>
<rect x="74.6665" y="117.333" width="5.33333" height="5.33333" transform="rotate(180 74.6665 117.333)" fill="#F1EAE7"/>
<rect x="80" y="117.333" width="5.33333" height="5.33333" transform="rotate(180 80 117.333)" fill="#F1EAE7"/>
<rect x="85.3335" y="117.333" width="5.33333" height="5.33333" transform="rotate(180 85.3335 117.333)" fill="#F1EAE7"/>
<rect x="90.6665" y="117.333" width="5.33333" height="5.33333" transform="rotate(180 90.6665 117.333)" fill="#F1EAE7"/>
<rect x="96" y="117.333" width="5.33333" height="5.33333" transform="rotate(180 96 117.333)" fill="#F1EAE7"/>
<rect x="101.333" y="117.333" width="5.33333" height="5.33333" transform="rotate(180 101.333 117.333)" fill="#F1EAE7"/>
<rect x="21.3335" y="85.3333" width="5.33333" height="5.33333" transform="rotate(180 21.3335 85.3333)" fill="#F1EAE7"/>
<rect x="21.3335" y="90.6667" width="5.33333" height="5.33333" transform="rotate(180 21.3335 90.6667)" fill="#F1EAE7"/>
<rect x="5.3335" y="85.3333" width="5.33333" height="5.33333" fill="white"/>
<rect x="5.3335" y="90.6667" width="5.33333" height="5.33333" fill="white"/>
<rect x="5.3335" y="96" width="5.33333" height="5.33333" fill="white"/>
<rect x="10.6665" y="101.333" width="5.33333" height="5.33333" fill="white"/>
<rect x="10.6665" y="96" width="5.33333" height="5.33333" fill="white"/>
<rect x="16" y="101.333" width="5.33333" height="5.33333" fill="white"/>
<rect x="16" y="106.667" width="5.33333" height="5.33333" fill="white"/>
<rect x="16" y="112" width="5.33333" height="5.33333" fill="white"/>
<rect x="21.3335" y="117.333" width="5.33333" height="5.33333" fill="white"/>
<rect x="26.6665" y="122.667" width="5.33333" height="5.33333" fill="white"/>
<rect x="32" y="128" width="5.33333" height="5.33333" fill="white"/>
<rect x="37.3335" y="133.333" width="5.33333" height="5.33333" fill="white"/>
<rect x="42.6665" y="138.667" width="5.33333" height="5.33333" fill="white"/>
<rect x="21.3335" y="112" width="5.33333" height="5.33333" fill="white"/>
<rect x="26.6665" y="117.333" width="5.33333" height="5.33333" fill="white"/>
<rect x="32" y="122.667" width="5.33333" height="5.33333" fill="white"/>
<rect x="37.3335" y="128" width="5.33333" height="5.33333" fill="white"/>
<rect x="42.6665" y="133.333" width="5.33333" height="5.33333" fill="white"/>
<rect x="48" y="138.667" width="5.33333" height="5.33333" fill="white"/>
<rect x="53.3335" y="144" width="5.33333" height="5.33333" fill="white"/>
<rect x="64" y="144" width="5.33333" height="5.33333" fill="white"/>
<rect x="74.6665" y="144" width="5.33333" height="5.33333" fill="white"/>
<rect x="85.3335" y="144" width="5.33333" height="5.33333" fill="white"/>
<rect x="96" y="144" width="5.33333" height="5.33333" fill="white"/>
<rect x="101.333" y="138.667" width="5.33333" height="5.33333" fill="white"/>
<rect x="53.3335" y="138.667" width="5.33333" height="5.33333" fill="white"/>
<rect x="58.6665" y="144" width="5.33333" height="5.33333" fill="white"/>
<rect x="69.3335" y="144" width="5.33333" height="5.33333" fill="white"/>
<rect x="80" y="144" width="5.33333" height="5.33333" fill="white"/>
<rect x="90.6665" y="144" width="5.33333" height="5.33333" fill="white"/>
<rect x="101.333" y="144" width="5.33333" height="5.33333" fill="white"/>
<rect x="106.667" y="138.667" width="5.33333" height="5.33333" fill="white"/>
<rect x="112" y="133.333" width="5.33333" height="5.33333" fill="white"/>
<rect x="117.333" y="128" width="5.33333" height="5.33333" fill="white"/>
<rect x="122.667" y="122.667" width="5.33333" height="5.33333" fill="white"/>
<rect x="128" y="117.333" width="5.33333" height="5.33333" fill="white"/>
<rect x="133.333" y="112" width="5.33333" height="5.33333" fill="white"/>
<rect x="138.667" y="106.667" width="5.33333" height="5.33333" fill="white"/>
<rect x="112" y="138.667" width="5.33333" height="5.33333" fill="white"/>
<rect x="117.333" y="133.333" width="5.33333" height="5.33333" fill="white"/>
<rect x="122.667" y="128" width="5.33333" height="5.33333" fill="white"/>
<rect x="128" y="122.667" width="5.33333" height="5.33333" fill="white"/>
<rect x="133.333" y="117.333" width="5.33333" height="5.33333" fill="white"/>
<rect x="138.667" y="112" width="5.33333" height="5.33333" fill="white"/>
<rect x="144" y="96" width="5.33333" height="5.33333" fill="white"/>
<rect x="149.333" y="96" width="5.33333" height="5.33333" fill="white"/>
<rect x="149.333" y="90.6667" width="5.33333" height="5.33333" fill="white"/>
<rect x="149.333" y="85.3333" width="5.33333" height="5.33333" fill="white"/>
<rect x="149.333" y="80" width="5.33333" height="5.33333" fill="white"/>
<rect x="149.333" y="74.6667" width="5.33333" height="5.33333" fill="white"/>
<rect x="149.333" y="69.3333" width="5.33333" height="5.33333" fill="white"/>
<rect x="149.333" y="64" width="5.33333" height="5.33333" fill="white"/>
<rect x="149.333" y="58.6667" width="5.33333" height="5.33333" fill="white"/>
<rect x="149.333" y="53.3333" width="5.33333" height="5.33333" fill="white"/>
<rect x="149.333" y="48" width="5.33333" height="5.33333" fill="white"/>
<rect x="149.333" y="42.6667" width="5.33333" height="5.33333" fill="white"/>
<rect x="144" y="37.3333" width="5.33333" height="5.33333" fill="white"/>
<rect x="138.667" y="32" width="5.33333" height="5.33333" fill="white"/>
<rect x="133.333" y="26.6666" width="5.33333" height="5.33333" fill="white"/>
<rect x="128" y="21.3334" width="5.33333" height="5.33333" fill="white"/>
<rect x="117.333" y="16" width="5.33333" height="5.33333" fill="white"/>
<rect x="106.667" y="10.6666" width="5.33333" height="5.33333" fill="white"/>
<rect x="90.6665" y="10.6666" width="5.33333" height="5.33333" fill="white"/>
<rect x="74.6665" y="10.6666" width="5.33333" height="5.33333" fill="white"/>
<rect x="58.6665" y="10.6666" width="5.33333" height="5.33333" fill="white"/>
<rect x="48" y="16" width="5.33333" height="5.33333" fill="white"/>
<rect x="37.3335" y="21.3334" width="5.33333" height="5.33333" fill="white"/>
<rect x="26.6665" y="26.6666" width="5.33333" height="5.33333" fill="white"/>
<rect x="21.3335" y="32" width="5.33333" height="5.33333" fill="white"/>
<rect x="16" y="37.3333" width="5.33333" height="5.33333" fill="white"/>
<rect x="10.6665" y="42.6667" width="5.33333" height="5.33333" fill="white"/>
<rect x="144" y="42.6667" width="5.33333" height="5.33333" fill="white"/>
<rect x="138.667" y="37.3333" width="5.33333" height="5.33333" fill="white"/>
<rect x="133.333" y="32" width="5.33333" height="5.33333" fill="white"/>
<rect x="128" y="26.6666" width="5.33333" height="5.33333" fill="white"/>
<rect x="122.667" y="21.3334" width="5.33333" height="5.33333" fill="white"/>
<rect x="112" y="16" width="5.33333" height="5.33333" fill="white"/>
<rect x="101.333" y="10.6666" width="5.33333" height="5.33333" fill="white"/>
<rect x="85.3335" y="10.6666" width="5.33333" height="5.33333" fill="white"/>
<rect x="69.3335" y="10.6666" width="5.33333" height="5.33333" fill="white"/>
<rect x="53.3335" y="10.6666" width="5.33333" height="5.33333" fill="white"/>
<rect x="42.6665" y="16" width="5.33333" height="5.33333" fill="white"/>
<rect x="32" y="21.3334" width="5.33333" height="5.33333" fill="white"/>
<rect x="21.3335" y="26.6666" width="5.33333" height="5.33333" fill="white"/>
<rect x="16" y="32" width="5.33333" height="5.33333" fill="white"/>
<rect x="10.6665" y="37.3333" width="5.33333" height="5.33333" fill="white"/>
<rect x="5.3335" y="42.6667" width="5.33333" height="5.33333" fill="white"/>
<rect x="5.3335" y="48" width="5.33333" height="5.33333" fill="white"/>
<rect x="5.3335" y="53.3333" width="5.33333" height="5.33333" fill="white"/>
<rect x="5.3335" y="58.6667" width="5.33333" height="5.33333" fill="white"/>
<rect x="5.3335" y="64" width="5.33333" height="5.33333" fill="white"/>
<rect x="5.3335" y="69.3333" width="5.33333" height="5.33333" fill="white"/>
<rect x="5.3335" y="74.6667" width="5.33333" height="5.33333" fill="white"/>
<rect x="5.3335" y="80" width="5.33333" height="5.33333" fill="white"/>
<rect x="117.333" y="21.3334" width="5.33333" height="5.33333" fill="white"/>
<rect x="106.667" y="16" width="5.33333" height="5.33333" fill="white"/>
<rect x="96" y="10.6666" width="5.33333" height="5.33333" fill="white"/>
<rect x="80" y="10.6666" width="5.33333" height="5.33333" fill="white"/>
<rect x="64" y="10.6666" width="5.33333" height="5.33333" fill="white"/>
<rect x="48" y="10.6666" width="5.33333" height="5.33333" fill="white"/>
<rect x="37.3335" y="16" width="5.33333" height="5.33333" fill="white"/>
<rect x="26.6665" y="21.3334" width="5.33333" height="5.33333" fill="white"/>
<rect x="144" y="101.333" width="5.33333" height="5.33333" fill="white"/>
<rect x="138.667" y="101.333" width="5.33333" height="5.33333" fill="white"/>
<rect x="154.667" y="80" width="5.33333" height="5.33333" fill="#FFCB29"/>
<rect x="154.667" y="85.3333" width="5.33333" height="5.33333" fill="#FFCB29"/>
<rect x="154.667" y="90.6667" width="5.33333" height="5.33333" fill="#FFCB29"/>
<rect x="154.667" y="96" width="5.33333" height="5.33333" fill="#FFCB29"/>
<rect x="149.333" y="101.333" width="5.33333" height="5.33333" fill="#FFCB29"/>
<rect x="144" y="106.667" width="5.33333" height="5.33333" fill="#FFCB29"/>
<rect x="144" y="112" width="5.33333" height="5.33333" fill="#FFCB29"/>
<rect x="138.667" y="117.333" width="5.33333" height="5.33333" fill="#FFCB29"/>
<rect x="133.333" y="122.667" width="5.33333" height="5.33333" fill="#FFCB29"/>
<rect x="128" y="128" width="5.33333" height="5.33333" fill="#FFCB29"/>
<rect x="122.667" y="133.333" width="5.33333" height="5.33333" fill="#FFCB29"/>
<rect x="112" y="144" width="5.33333" height="5.33333" fill="#FFCB29"/>
<rect x="117.333" y="138.667" width="5.33333" height="5.33333" fill="#FFCB29"/>
<rect x="101.333" y="149.333" width="5.33333" height="5.33333" fill="#FFCB29"/>
<rect x="106.667" y="144" width="5.33333" height="5.33333" fill="#FFCB29"/>
<rect x="90.6665" y="149.333" width="5.33333" height="5.33333" fill="#FFCB29"/>
<rect x="80" y="149.333" width="5.33333" height="5.33333" fill="#FFCB29"/>
<rect x="69.3335" y="149.333" width="5.33333" height="5.33333" fill="#FFCB29"/>
<rect x="58.6665" y="149.333" width="5.33333" height="5.33333" fill="#FFCB29"/>
<rect x="96" y="149.333" width="5.33333" height="5.33333" fill="#FFCB29"/>
<rect x="85.3335" y="149.333" width="5.33333" height="5.33333" fill="#FFCB29"/>
<rect x="74.6665" y="149.333" width="5.33333" height="5.33333" fill="#FFCB29"/>
<rect x="64" y="149.333" width="5.33333" height="5.33333" fill="#FFCB29"/>
<rect x="53.3335" y="149.333" width="5.33333" height="5.33333" fill="#FFCB29"/>
<rect x="48" y="144" width="5.33333" height="5.33333" fill="#FFCB29"/>
<rect x="42.6665" y="144" width="5.33333" height="5.33333" fill="#FFCB29"/>
<rect x="37.3335" y="138.667" width="5.33333" height="5.33333" fill="#FFCB29"/>
<rect x="32" y="133.333" width="5.33333" height="5.33333" fill="#FFCB29"/>
<rect x="26.6665" y="128" width="5.33333" height="5.33333" fill="#FFCB29"/>
<rect x="21.3335" y="122.667" width="5.33333" height="5.33333" fill="#FFCB29"/>
<rect x="10.6665" y="112" width="5.33333" height="5.33333" fill="#FFCB29"/>
<rect x="16" y="117.333" width="5.33333" height="5.33333" fill="#FFCB29"/>
<rect x="5.3335" y="101.333" width="5.33333" height="5.33333" fill="#FFCB29"/>
<rect x="10.6665" y="106.667" width="5.33333" height="5.33333" fill="#FFCB29"/>
<rect y="90.6667" width="5.33333" height="5.33333" fill="#FFCB29"/>
<rect y="96" width="5.33333" height="5.33333" fill="#FFCB29"/>
<rect y="85.3333" width="5.33333" height="5.33333" fill="#FFCB29"/>
<rect y="80" width="5.33333" height="5.33333" fill="#FFCB29"/>
<rect y="74.6667" width="5.33333" height="5.33333" fill="#FFCB29"/>
<rect y="69.3333" width="5.33333" height="5.33333" fill="#FFCB29"/>
<rect y="64" width="5.33333" height="5.33333" fill="#FFCB29"/>
<rect y="58.6667" width="5.33333" height="5.33333" fill="#FFCB29"/>
<rect y="53.3333" width="5.33333" height="5.33333" fill="#FFCB29"/>
<rect y="48" width="5.33333" height="5.33333" fill="#FFCB29"/>
<rect y="42.6667" width="5.33333" height="5.33333" fill="#FFCB29"/>
<rect x="5.3335" y="37.3333" width="5.33333" height="5.33333" fill="#FFCB29"/>
<rect x="10.6665" y="32" width="5.33333" height="5.33333" fill="#FFCB29"/>
<rect x="16" y="26.6666" width="5.33333" height="5.33333" fill="#FFCB29"/>
<rect x="21.3335" y="21.3334" width="5.33333" height="5.33333" fill="#FFCB29"/>
<rect x="26.6665" y="16" width="5.33333" height="5.33333" fill="#FFCB29"/>
<rect x="37.3335" y="10.6666" width="5.33333" height="5.33333" fill="#FFCB29"/>
<rect x="48" y="5.33337" width="5.33333" height="5.33333" fill="#FFCB29"/>
<rect x="64" y="5.33337" width="5.33333" height="5.33333" fill="#FFCB29"/>
<rect x="80" y="5.33337" width="5.33333" height="5.33333" fill="#FFCB29"/>
<rect x="96" y="5.33337" width="5.33333" height="5.33333" fill="#FFCB29"/>
<rect x="32" y="16" width="5.33333" height="5.33333" fill="#FFCB29"/>
<rect x="42.6665" y="10.6666" width="5.33333" height="5.33333" fill="#FFCB29"/>
<rect x="53.3335" y="5.33337" width="5.33333" height="5.33333" fill="#FFCB29"/>
<rect x="69.3335" y="5.33337" width="5.33333" height="5.33333" fill="#FFCB29"/>
<rect x="85.3335" y="5.33337" width="5.33333" height="5.33333" fill="#FFCB29"/>
<rect x="101.333" y="5.33337" width="5.33333" height="5.33333" fill="#FFCB29"/>
<rect x="112" y="10.6666" width="5.33333" height="5.33333" fill="#FFCB29"/>
<rect x="122.667" y="16" width="5.33333" height="5.33333" fill="#FFCB29"/>
<rect x="58.6665" y="5.33337" width="5.33333" height="5.33333" fill="#FFCB29"/>
<rect x="74.6665" y="5.33337" width="5.33333" height="5.33333" fill="#FFCB29"/>
<rect x="90.6665" y="5.33337" width="5.33333" height="5.33333" fill="#FFCB29"/>
<rect x="106.667" y="5.33337" width="5.33333" height="5.33333" fill="#FFCB29"/>
<rect x="117.333" y="10.6666" width="5.33333" height="5.33333" fill="#FFCB29"/>
<rect x="128" y="16" width="5.33333" height="5.33333" fill="#FFCB29"/>
<rect x="133.333" y="21.3334" width="5.33333" height="5.33333" fill="#FFCB29"/>
<rect x="138.667" y="26.6666" width="5.33333" height="5.33333" fill="#FFCB29"/>
<rect x="144" y="32" width="5.33333" height="5.33333" fill="#FFCB29"/>
<rect x="154.667" y="42.6667" width="5.33333" height="5.33333" fill="#FFCB29"/>
<rect x="149.333" y="37.3333" width="5.33333" height="5.33333" fill="#FFCB29"/>
<rect x="154.667" y="48" width="5.33333" height="5.33333" fill="#FFCB29"/>
<rect x="154.667" y="53.3333" width="5.33333" height="5.33333" fill="#FFCB29"/>
<rect x="154.667" y="58.6667" width="5.33333" height="5.33333" fill="#FFCB29"/>
<rect x="154.667" y="64" width="5.33333" height="5.33333" fill="#FFCB29"/>
<rect x="154.667" y="69.3333" width="5.33333" height="5.33333" fill="#FFCB29"/>
<rect x="154.667" y="74.6667" width="5.33333" height="5.33333" fill="#FFCB29"/>
</svg>
