<svg width="120" height="120" viewBox="0 0 120 120" fill="none" xmlns="http://www.w3.org/2000/svg">
<rect x="18" y="24" width="35.9992" height="59.9986" fill="white"/>
<rect x="65.9971" y="24" width="35.9992" height="59.9986" fill="white"/>
<rect x="6" y="32.0002" width="3.9999" height="59.9986" fill="#37474F"/>
<rect x="14.001" y="24" width="3.9999" height="59.9986" fill="#37474F"/>
<rect x="77.9971" y="24" width="3.9999" height="28.9993" fill="white"/>
<rect x="93.9951" y="24" width="3.9999" height="28.9993" fill="white"/>
<rect x="102" y="24" width="3.99998" height="27.9998" fill="#37474F"/>
<rect x="62" y="32.0002" width="3.9999" height="43.999" fill="#CFD8DB"/>
<rect x="53.999" y="32.0002" width="3.9999" height="43.999" fill="#CFD8DB"/>
<rect x="57.998" y="32.0002" width="3.9999" height="43.999" fill="#37474F"/>
<rect x="109.999" y="32.0002" width="3.99998" height="23.9999" fill="#37474F"/>
<rect x="62" y="27.9996" width="3.9999" height="3.99991" fill="#37474F"/>
<rect x="90" y="44" width="3.9999" height="3.99991" fill="white"/>
<rect x="86" y="39.9999" width="3.9999" height="3.99991" fill="white"/>
<rect x="81.999" y="44" width="3.9999" height="3.99991" fill="white"/>
<rect x="62" y="75.9988" width="3.9999" height="3.99991" fill="#37474F"/>
<rect x="53.999" y="27.9996" width="3.9999" height="3.99991" fill="#37474F"/>
<rect x="53.999" y="75.9988" width="3.9999" height="3.99991" fill="#37474F"/>
<rect x="6" y="32.0002" width="7.99981" height="3.99991" fill="#37474F"/>
<rect x="105.999" y="32.0002" width="7.99981" height="3.99991" fill="#37474F"/>
<rect x="18" y="24" width="35.9992" height="3.99991" fill="#37474F"/>
<rect x="18" y="79.9993" width="35.9992" height="3.99991" fill="#37474F"/>
<rect x="65.9971" y="24" width="35.9992" height="3.99991" fill="#37474F"/>
<rect x="6" y="92.0001" width="67.9996" height="3.99998" fill="#37474F"/>
<rect x="105.999" y="35.0001" width="3.99998" height="16.9999" fill="#FFA202"/>
<rect x="9.99902" y="35.4997" width="3.9999" height="52.4987" fill="#FFA202"/>
<rect x="14.001" y="83.9995" width="55.9997" height="3.99998" fill="#FFA202"/>
<rect x="57.998" y="75.9988" width="3.9999" height="3.99991" fill="#FF5601"/>
<rect x="53.999" y="79.9993" width="11.9997" height="3.99991" fill="#FF5601"/>
<rect x="65.999" y="83.9995" width="3.99998" height="3.99998" fill="#FF5601"/>
<rect x="14.001" y="83.998" width="39.999" height="3.99991" fill="#FF5601"/>
<rect x="9.99902" y="87.9995" width="59.9996" height="3.99998" fill="#FFA202"/>
<rect x="81.999" y="27.9996" width="3.9999" height="15.9996" fill="white"/>
<rect x="90" y="27.9996" width="3.9999" height="15.9996" fill="white"/>
<rect x="86" y="27.9996" width="3.9999" height="11.9997" fill="white"/>
<rect x="21.998" y="32.0002" width="27.9998" height="3.99998" fill="#37474F"/>
<rect x="21.998" y="39.9999" width="27.9998" height="3.99998" fill="#37474F"/>
<rect x="21.998" y="48.0001" width="27.9998" height="3.99998" fill="#37474F"/>
<rect x="21.998" y="56.0002" width="27.9998" height="3.99998" fill="#37474F"/>
<rect x="21.998" y="63.9995" width="19.9999" height="3.99998" fill="#37474F"/>
<rect width="3.99998" height="3.99998" transform="matrix(-1 0 0 1 94.001 56.0001)" fill="white"/>
<rect width="3.99998" height="3.99998" transform="matrix(-1 0 0 1 94.001 88.0006)" fill="white"/>
<rect width="3.99998" height="3.99998" transform="matrix(-1 0 0 1 94.001 84.0011)" fill="white"/>
<rect width="3.99998" height="3.99998" transform="matrix(-1 0 0 1 94.001 76.0006)" fill="white"/>
<rect width="3.99998" height="3.99998" transform="matrix(-1 0 0 1 94.001 60.0011)" fill="white"/>
<rect width="3.99998" height="3.99998" transform="matrix(-1 0 0 1 98.001 60.0011)" fill="white"/>
<rect width="3.99998" height="3.99998" transform="matrix(-1 0 0 1 98.001 64.0006)" fill="white"/>
<rect width="3.99998" height="3.99998" transform="matrix(-1 0 0 1 98.001 68.0006)" fill="white"/>
<rect width="3.99998" height="3.99998" transform="matrix(-1 0 0 1 98.001 72.0006)" fill="white"/>
<rect width="3.99998" height="3.99998" transform="matrix(-1 0 0 1 98.001 76.0006)" fill="white"/>
<rect width="3.99998" height="3.99998" transform="matrix(-1 0 0 1 98.001 80.0006)" fill="white"/>
<rect width="3.99998" height="3.99998" transform="matrix(-1 0 0 1 98.001 84.0011)" fill="white"/>
<rect width="3.99998" height="3.99998" transform="matrix(-1 0 0 1 102.003 60.0011)" fill="white"/>
<rect width="3.99998" height="3.99998" transform="matrix(-1 0 0 1 102.003 64.0006)" fill="white"/>
<rect width="3.99998" height="3.99998" transform="matrix(-1 0 0 1 106.001 64.0006)" fill="white"/>
<rect width="3.99998" height="3.99998" transform="matrix(-1 0 0 1 102.003 68.0006)" fill="white"/>
<rect width="3.99998" height="3.99998" transform="matrix(-1 0 0 1 106.001 68.0006)" fill="white"/>
<rect width="3.99998" height="3.99998" transform="matrix(-1 0 0 1 102.003 72.0006)" fill="white"/>
<rect width="3.99998" height="3.99998" transform="matrix(-1 0 0 1 106.001 72.0006)" fill="white"/>
<rect width="3.99998" height="3.99998" transform="matrix(-1 0 0 1 102.003 76.0006)" fill="white"/>
<rect width="3.99998" height="3.99998" transform="matrix(-1 0 0 1 106.001 76.0006)" fill="white"/>
<rect width="3.99998" height="3.99998" transform="matrix(-1 0 0 1 102.003 80.0006)" fill="white"/>
<rect width="3.99998" height="3.99998" transform="matrix(-1 0 0 1 106.001 80.0006)" fill="white"/>
<rect width="3.99998" height="3.99998" transform="matrix(-1 0 0 1 102.003 84.0011)" fill="white"/>
<rect width="3.99998" height="3.99998" transform="matrix(-1 0 0 1 90.0029 60.0011)" fill="white"/>
<rect width="3.99998" height="3.99998" transform="matrix(-1 0 0 1 90.0029 64.0006)" fill="white"/>
<rect width="3.99998" height="3.99998" transform="matrix(-1 0 0 1 90.0029 68.0006)" fill="white"/>
<rect width="3.99998" height="3.99998" transform="matrix(-1 0 0 1 90.0029 72.0006)" fill="white"/>
<rect width="3.99998" height="3.99998" transform="matrix(-1 0 0 1 90.0029 76.0006)" fill="white"/>
<rect width="3.99998" height="3.99998" transform="matrix(-1 0 0 1 90.0029 80.0006)" fill="white"/>
<rect width="3.99998" height="3.99998" transform="matrix(-1 0 0 1 90.0029 84.0011)" fill="white"/>
<rect width="3.99998" height="3.99998" transform="matrix(-1 0 0 1 86.001 60.0011)" fill="white"/>
<rect width="3.99998" height="3.99998" transform="matrix(-1 0 0 1 86.001 64.0006)" fill="white"/>
<rect width="3.99998" height="3.99998" transform="matrix(-1 0 0 1 82.0029 64.0006)" fill="white"/>
<rect width="3.99998" height="3.99998" transform="matrix(-1 0 0 1 86.001 68.0006)" fill="white"/>
<rect width="3.99998" height="3.99998" transform="matrix(-1 0 0 1 82.0029 68.0006)" fill="white"/>
<rect width="3.99998" height="3.99998" transform="matrix(-1 0 0 1 86.001 72.0006)" fill="white"/>
<rect width="3.99998" height="3.99998" transform="matrix(-1 0 0 1 82.0029 72.0006)" fill="white"/>
<rect width="3.99998" height="3.99998" transform="matrix(-1 0 0 1 78.001 72.0006)" fill="white"/>
<rect width="3.99998" height="3.99998" transform="matrix(-1 0 0 1 110.001 72.0006)" fill="white"/>
<rect width="3.99998" height="3.99998" transform="matrix(-1 0 0 1 86.001 76.0006)" fill="white"/>
<rect width="3.99998" height="3.99998" transform="matrix(-1 0 0 1 82.0029 76.0006)" fill="white"/>
<rect width="3.99998" height="3.99998" transform="matrix(-1 0 0 1 86.001 80.0006)" fill="white"/>
<rect width="3.99998" height="3.99998" transform="matrix(-1 0 0 1 82.0029 80.0006)" fill="white"/>
<rect width="3.99998" height="3.99998" transform="matrix(-1 0 0 1 86.001 84.0011)" fill="white"/>
<rect x="94.002" y="56.0003" width="3.99998" height="3.99998" fill="#E53835"/>
<rect width="3.99998" height="3.99998" transform="matrix(-1 0 0 1 90.0029 56.0003)" fill="#E53835"/>
<rect width="3.99998" height="3.99998" transform="matrix(-1 0 0 1 94.002 52.0007)" fill="#E53835"/>
<rect width="3.99998" height="3.99998" transform="matrix(-1 0 0 1 94.002 56.0003)" fill="#E53835" fill-opacity="0.1"/>
<rect width="3.99998" height="3.99998" transform="matrix(-1 0 0 1 94.002 88.0005)" fill="#E53835" fill-opacity="0.1"/>
<rect width="3.99998" height="3.99998" transform="matrix(-1 0 0 1 94.002 84.0009)" fill="#E53835" fill-opacity="0.1"/>
<rect width="3.99998" height="3.99998" transform="matrix(-1 0 0 1 94.002 76.0007)" fill="#E53835" fill-opacity="0.1"/>
<rect width="3.99998" height="3.99998" transform="matrix(-1 0 0 1 94.002 60.0009)" fill="#E53835" fill-opacity="0.1"/>
<rect width="3.99998" height="3.99998" transform="matrix(-1 0 0 1 98.001 60.0009)" fill="#E53835" fill-opacity="0.1"/>
<rect width="3.99998" height="3.99998" transform="matrix(-1 0 0 1 98.001 64.0005)" fill="#E53835" fill-opacity="0.1"/>
<rect width="3.99998" height="3.99998" transform="matrix(-1 0 0 1 98.001 68.0005)" fill="#E53835" fill-opacity="0.1"/>
<rect width="3.99998" height="3.99998" transform="matrix(-1 0 0 1 98.001 72.0006)" fill="#E53835" fill-opacity="0.1"/>
<rect width="3.99998" height="3.99998" transform="matrix(-1 0 0 1 98.001 76.0007)" fill="#E53835" fill-opacity="0.1"/>
<rect width="3.99998" height="3.99998" transform="matrix(-1 0 0 1 98.001 80.0004)" fill="#E53835" fill-opacity="0.1"/>
<rect width="3.99998" height="3.99998" transform="matrix(-1 0 0 1 98.001 84.0009)" fill="#E53835" fill-opacity="0.1"/>
<rect width="3.99998" height="3.99998" transform="matrix(-1 0 0 1 102.003 60.0009)" fill="#E53835" fill-opacity="0.1"/>
<rect width="3.99998" height="3.99998" transform="matrix(-1 0 0 1 102.003 64.0005)" fill="#E53835" fill-opacity="0.1"/>
<rect width="3.99998" height="3.99998" transform="matrix(-1 0 0 1 106.002 64.0005)" fill="#E53835" fill-opacity="0.1"/>
<rect width="3.99998" height="3.99998" transform="matrix(-1 0 0 1 102.003 68.0005)" fill="#E53835" fill-opacity="0.1"/>
<rect width="3.99998" height="3.99998" transform="matrix(-1 0 0 1 106.002 68.0005)" fill="#E53835" fill-opacity="0.1"/>
<rect width="3.99998" height="3.99998" transform="matrix(-1 0 0 1 102.003 72.0006)" fill="#E53835" fill-opacity="0.1"/>
<rect width="3.99998" height="3.99998" transform="matrix(-1 0 0 1 106.002 72.0006)" fill="#E53835" fill-opacity="0.1"/>
<rect width="3.99998" height="3.99998" transform="matrix(-1 0 0 1 102.003 76.0007)" fill="#E53835" fill-opacity="0.1"/>
<rect width="3.99998" height="3.99998" transform="matrix(-1 0 0 1 106.002 76.0007)" fill="#E53835" fill-opacity="0.1"/>
<rect width="3.99998" height="3.99998" transform="matrix(-1 0 0 1 102.003 80.0004)" fill="#E53835" fill-opacity="0.1"/>
<rect width="3.99998" height="3.99998" transform="matrix(-1 0 0 1 106.002 80.0004)" fill="#E53835" fill-opacity="0.1"/>
<rect width="3.99998" height="3.99998" transform="matrix(-1 0 0 1 102.003 84.0009)" fill="#E53835" fill-opacity="0.1"/>
<rect width="3.99998" height="3.99998" transform="matrix(-1 0 0 1 90.0029 60.0009)" fill="#E53835" fill-opacity="0.1"/>
<rect width="3.99998" height="3.99998" transform="matrix(-1 0 0 1 90.0029 64.0005)" fill="#E53835" fill-opacity="0.1"/>
<rect width="3.99998" height="3.99998" transform="matrix(-1 0 0 1 90.0029 68.0005)" fill="#E53835" fill-opacity="0.1"/>
<rect width="3.99998" height="3.99998" transform="matrix(-1 0 0 1 90.0029 72.0006)" fill="#E53835" fill-opacity="0.1"/>
<rect width="3.99998" height="3.99998" transform="matrix(-1 0 0 1 90.0029 76.0007)" fill="#E53835" fill-opacity="0.1"/>
<rect width="3.99998" height="3.99998" transform="matrix(-1 0 0 1 90.0029 80.0004)" fill="#E53835" fill-opacity="0.1"/>
<rect width="3.99998" height="3.99998" transform="matrix(-1 0 0 1 90.0029 84.0009)" fill="#E53835" fill-opacity="0.1"/>
<rect width="3.99998" height="3.99998" transform="matrix(-1 0 0 1 86.001 60.0009)" fill="#E53835" fill-opacity="0.1"/>
<rect width="3.99998" height="3.99998" transform="matrix(-1 0 0 1 86.001 64.0005)" fill="#E53835" fill-opacity="0.1"/>
<rect width="3.99998" height="3.99998" transform="matrix(-1 0 0 1 82.002 64.0005)" fill="#E53835" fill-opacity="0.1"/>
<rect width="3.99998" height="3.99998" transform="matrix(-1 0 0 1 86.001 68.0005)" fill="#E53835" fill-opacity="0.1"/>
<rect width="3.99998" height="3.99998" transform="matrix(-1 0 0 1 82.002 68.0005)" fill="#E53835" fill-opacity="0.1"/>
<rect width="3.99998" height="3.99998" transform="matrix(-1 0 0 1 86.001 72.0006)" fill="#E53835" fill-opacity="0.1"/>
<rect width="3.99998" height="3.99998" transform="matrix(-1 0 0 1 82.002 72.0006)" fill="#E53835" fill-opacity="0.1"/>
<rect width="3.99998" height="3.99998" transform="matrix(-1 0 0 1 78.002 72.0006)" fill="#E53835" fill-opacity="0.1"/>
<rect width="3.99998" height="3.99998" transform="matrix(-1 0 0 1 110 72.0006)" fill="#E53835" fill-opacity="0.1"/>
<rect width="3.99998" height="3.99998" transform="matrix(-1 0 0 1 86.001 76.0007)" fill="#E53835" fill-opacity="0.1"/>
<rect width="3.99998" height="3.99998" transform="matrix(-1 0 0 1 82.002 76.0007)" fill="#E53835" fill-opacity="0.1"/>
<rect width="3.99998" height="3.99998" transform="matrix(-1 0 0 1 86.001 80.0004)" fill="#E53835" fill-opacity="0.1"/>
<rect width="3.99998" height="3.99998" transform="matrix(-1 0 0 1 82.002 80.0004)" fill="#E53835" fill-opacity="0.1"/>
<rect width="3.99998" height="3.99998" transform="matrix(-1 0 0 1 86.001 84.0009)" fill="#E53835" fill-opacity="0.1"/>
<rect width="3.99998" height="3.99998" transform="matrix(-1 0 0 1 94.002 92.0001)" fill="#E53835"/>
<rect x="98.001" y="56.0003" width="3.99998" height="3.99998" fill="#E53835"/>
<rect width="3.99998" height="3.99998" transform="matrix(-1 0 0 1 86.001 56.0003)" fill="#E53835"/>
<rect x="102.003" y="60.0009" width="3.99998" height="3.99998" fill="#E53835"/>
<rect width="3.99998" height="3.99998" transform="matrix(-1 0 0 1 82.002 60.0009)" fill="#E53835"/>
<rect x="94.002" y="52.0007" width="3.99998" height="3.99998" fill="#E53835"/>
<rect width="3.99998" height="3.99998" transform="matrix(-1 0 0 1 90.0029 52.0007)" fill="#E53835"/>
<rect x="94.002" y="92.0001" width="3.99998" height="3.99998" fill="#E53835"/>
<rect width="3.99998" height="3.99998" transform="matrix(-1 0 0 1 90.0029 92.0001)" fill="#E53835"/>
<rect x="102.003" y="56.0003" width="3.99998" height="3.99998" fill="#E53835"/>
<rect width="3.99998" height="3.99998" transform="matrix(-1 0 0 1 82.002 56.0003)" fill="#E53835"/>
<rect x="106.002" y="60.0009" width="3.99998" height="3.99998" fill="#E53835"/>
<rect width="3.99998" height="3.99998" transform="matrix(-1 0 0 1 78.002 60.0009)" fill="#E53835"/>
<rect x="106.002" y="64.0005" width="3.99998" height="3.99998" fill="#E53835"/>
<rect width="3.99998" height="3.99998" transform="matrix(-1 0 0 1 78.002 64.0005)" fill="#E53835"/>
<rect x="106.002" y="68.0005" width="3.99998" height="3.99998" fill="#E53835"/>
<rect width="3.99998" height="3.99998" transform="matrix(-1 0 0 1 78.002 68.0005)" fill="#E53835"/>
<rect x="110" y="68.0005" width="3.99998" height="3.99998" fill="#E53835"/>
<rect width="3.99998" height="3.99998" transform="matrix(-1 0 0 1 74.001 68.0005)" fill="#E53835"/>
<rect x="110" y="72.0006" width="3.99998" height="3.99998" fill="#E53835"/>
<rect width="3.99998" height="3.99998" transform="matrix(-1 0 0 1 74.001 72.0006)" fill="#E53835"/>
<rect x="110" y="76.0007" width="3.99998" height="3.99998" fill="#E53835"/>
<rect width="3.99998" height="3.99998" transform="matrix(-1 0 0 1 74.001 76.0007)" fill="#E53835"/>
<rect x="106.002" y="76.0007" width="3.99998" height="3.99998" fill="#E53835"/>
<rect width="3.99998" height="3.99998" transform="matrix(-1 0 0 1 78.002 76.0007)" fill="#E53835"/>
<rect x="106.002" y="80.0004" width="3.99998" height="3.99998" fill="#E53835"/>
<rect width="3.99998" height="3.99998" transform="matrix(-1 0 0 1 78.002 80.0004)" fill="#E53835"/>
<rect x="106.002" y="84.0009" width="3.99998" height="3.99998" fill="#E53835"/>
<rect width="3.99998" height="3.99998" transform="matrix(-1 0 0 1 78.002 84.0009)" fill="#E53835"/>
<rect x="102.003" y="84.0009" width="3.99998" height="3.99998" fill="#E53835"/>
<rect width="3.99998" height="3.99998" transform="matrix(-1 0 0 1 82.002 84.0009)" fill="#E53835"/>
<rect x="102.003" y="88.0005" width="3.99998" height="3.99998" fill="#E53835"/>
<rect width="3.99998" height="3.99998" transform="matrix(-1 0 0 1 82.002 88.0005)" fill="#E53835"/>
<rect x="98.001" y="88.0005" width="3.99998" height="3.99998" fill="#E53835"/>
<rect width="3.99998" height="3.99998" transform="matrix(-1 0 0 1 86.001 88.0005)" fill="#E53835"/>
<rect x="94.002" y="88.0005" width="3.99998" height="3.99998" fill="#E53835"/>
<rect width="3.99998" height="3.99998" transform="matrix(-1 0 0 1 90.0029 88.0005)" fill="#E53835"/>
<rect x="90.0029" y="64.0005" width="3.99998" height="3.99998" fill="#E53835"/>
<rect x="90.0029" y="68.0009" width="3.99998" height="3.99998" fill="#E53835"/>
<rect x="90.0029" y="72.0005" width="3.99998" height="3.99998" fill="#E53835"/>
<rect x="90.0029" y="80.0007" width="3.99998" height="3.99998" fill="#E53835"/>
<rect width="3.99998" height="3.99998" transform="matrix(-1 0 0 1 74 84)" fill="white"/>
<rect width="3.99998" height="3.99998" transform="matrix(-1 0 0 1 74 88)" fill="white"/>
<rect width="3.99998" height="3.99998" transform="matrix(-1 0 0 1 78 88)" fill="white"/>
<rect width="3.99998" height="3.99998" transform="matrix(-1 0 0 1 78 92)" fill="white"/>
<rect width="3.99998" height="3.99998" transform="matrix(-1 0 0 1 82 92)" fill="white"/>
<rect width="3.99998" height="3.99998" transform="matrix(-1 0 0 1 86 92)" fill="white"/>
<rect width="3.99998" height="3.99998" transform="matrix(-1 0 0 1 86 96)" fill="white"/>
<rect width="3.99998" height="3.99998" transform="matrix(-1 0 0 1 90 96)" fill="white"/>
<rect width="3.99998" height="3.99998" transform="matrix(-1 0 0 1 94 96)" fill="white"/>
<rect width="3.99998" height="3.99998" transform="matrix(-1 0 0 1 98 96)" fill="white"/>
<rect width="3.99998" height="3.99998" transform="matrix(-1 0 0 1 102 96)" fill="white"/>
<rect width="3.99998" height="3.99998" transform="matrix(-1 0 0 1 102 92)" fill="white"/>
<rect width="3.99998" height="3.99998" transform="matrix(-1 0 0 1 106 92)" fill="white"/>
<rect width="3.99998" height="3.99998" transform="matrix(-1 0 0 1 110 92)" fill="white"/>
<rect width="3.99998" height="3.99998" transform="matrix(-1 0 0 1 110 88)" fill="white"/>
<rect width="3.99998" height="3.99998" transform="matrix(-1 0 0 1 114 88)" fill="white"/>
<rect width="3.99998" height="3.99998" transform="matrix(-1 0 0 1 114 84)" fill="white"/>
<rect width="3.99998" height="3.99998" transform="matrix(-1 0 0 1 114 80)" fill="white"/>
<rect width="3.99998" height="3.99998" transform="matrix(-1 0 0 1 118 80)" fill="white"/>
<rect width="3.99998" height="3.99998" transform="matrix(-1 0 0 1 118 76)" fill="white"/>
<rect width="3.99998" height="3.99998" transform="matrix(-1 0 0 1 118 72)" fill="white"/>
<rect width="3.99998" height="3.99998" transform="matrix(-1 0 0 1 118 68)" fill="white"/>
<rect width="3.99998" height="3.99998" transform="matrix(-1 0 0 1 118 64)" fill="white"/>
<rect width="3.99998" height="3.99998" transform="matrix(-1 0 0 1 114 64)" fill="white"/>
<rect width="3.99998" height="3.99998" transform="matrix(-1 0 0 1 114 60)" fill="white"/>
<rect width="3.99998" height="3.99998" transform="matrix(-1 0 0 1 114 56)" fill="white"/>
<rect width="3.99998" height="3.99998" transform="matrix(-1 0 0 1 118 56)" fill="white"/>
<rect width="3.99998" height="3.99998" transform="matrix(-1 0 0 1 118 52)" fill="white"/>
<rect width="3.99998" height="3.99998" transform="matrix(-1 0 0 1 118 48)" fill="white"/>
<rect width="3.99998" height="3.99998" transform="matrix(-1 0 0 1 118 44)" fill="white"/>
<rect width="3.99998" height="3.99998" transform="matrix(-1 0 0 1 118 40)" fill="white"/>
<rect width="3.99998" height="3.99998" transform="matrix(-1 0 0 1 118 36)" fill="white"/>
<rect width="3.99998" height="3.99998" transform="matrix(-1 0 0 1 118 32)" fill="white"/>
<rect width="3.99998" height="3.99998" transform="matrix(-1 0 0 1 118 28)" fill="white"/>
<rect width="3.99998" height="3.99998" transform="matrix(-1 0 0 1 114 28)" fill="white"/>
<rect width="3.99998" height="3.99998" transform="matrix(-1 0 0 1 110 28)" fill="white"/>
<rect width="3.99998" height="3.99998" transform="matrix(-1 0 0 1 110 24)" fill="white"/>
<rect width="3.99998" height="3.99998" transform="matrix(-1 0 0 1 110 20)" fill="white"/>
<rect width="3.99998" height="3.99998" transform="matrix(-1 0 0 1 106 20)" fill="white"/>
<rect width="3.99998" height="3.99998" transform="matrix(-1 0 0 1 102 20)" fill="white"/>
<rect width="3.99998" height="3.99998" transform="matrix(-1 0 0 1 98 20)" fill="white"/>
<rect width="3.99998" height="3.99998" transform="matrix(-1 0 0 1 94 20)" fill="white"/>
<rect width="3.99998" height="3.99998" transform="matrix(-1 0 0 1 90 20)" fill="white"/>
<rect width="3.99998" height="3.99998" transform="matrix(-1 0 0 1 86 20)" fill="white"/>
<rect width="3.99998" height="3.99998" transform="matrix(-1 0 0 1 82 20)" fill="white"/>
<rect width="3.99998" height="3.99998" transform="matrix(-1 0 0 1 78 20)" fill="white"/>
<rect width="3.99998" height="3.99998" transform="matrix(-1 0 0 1 74 20)" fill="white"/>
<rect width="3.99998" height="3.99998" transform="matrix(-1 0 0 1 70 20)" fill="white"/>
<rect width="3.99998" height="3.99998" transform="matrix(-1 0 0 1 66 20)" fill="white"/>
<rect width="3.99998" height="3.99998" transform="matrix(-1 0 0 1 66 24)" fill="white"/>
<rect width="3.99998" height="3.99998" transform="matrix(-1 0 0 1 62 20)" fill="white"/>
<rect width="3.99998" height="3.99998" transform="matrix(-1 0 0 1 62 24)" fill="white"/>
<rect width="3.99998" height="3.99998" transform="matrix(-1 0 0 1 62 28)" fill="white"/>
<rect width="3.99998" height="3.99998" transform="matrix(-1 0 0 1 58 20)" fill="white"/>
<rect width="3.99998" height="3.99998" transform="matrix(-1 0 0 1 58 24)" fill="white"/>
<rect width="3.99998" height="3.99998" transform="matrix(-1 0 0 1 54 20)" fill="white"/>
<rect width="3.99998" height="3.99998" transform="matrix(-1 0 0 1 50 20)" fill="white"/>
<rect width="3.99998" height="3.99998" transform="matrix(-1 0 0 1 46 20)" fill="white"/>
<rect width="3.99998" height="3.99998" transform="matrix(-1 0 0 1 42 20)" fill="white"/>
<rect width="3.99998" height="3.99998" transform="matrix(-1 0 0 1 38 20)" fill="white"/>
<rect width="3.99998" height="3.99998" transform="matrix(-1 0 0 1 34 20)" fill="white"/>
<rect width="3.99998" height="3.99998" transform="matrix(-1 0 0 1 30 20)" fill="white"/>
<rect width="3.99998" height="3.99998" transform="matrix(-1 0 0 1 26 20)" fill="white"/>
<rect width="3.99998" height="3.99998" transform="matrix(-1 0 0 1 22 20)" fill="white"/>
<rect width="3.99998" height="3.99998" transform="matrix(-1 0 0 1 18 20)" fill="white"/>
<rect width="3.99998" height="3.99998" transform="matrix(-1 0 0 1 14 20)" fill="white"/>
<rect width="3.99998" height="3.99998" transform="matrix(-1 0 0 1 14 24)" fill="white"/>
<rect width="3.99998" height="3.99998" transform="matrix(-1 0 0 1 14 28)" fill="white"/>
<rect width="3.99998" height="3.99998" transform="matrix(-1 0 0 1 10 28)" fill="white"/>
<rect width="3.99998" height="3.99998" transform="matrix(-1 0 0 1 6 28)" fill="white"/>
<rect width="3.99998" height="3.99998" transform="matrix(-1 0 0 1 6 32)" fill="white"/>
<rect width="3.99998" height="3.99998" transform="matrix(-1 0 0 1 6 36)" fill="white"/>
<rect width="3.99998" height="3.99998" transform="matrix(-1 0 0 1 6 40)" fill="white"/>
<rect width="3.99998" height="3.99998" transform="matrix(-1 0 0 1 6 44)" fill="white"/>
<rect width="3.99998" height="3.99998" transform="matrix(-1 0 0 1 6 48)" fill="white"/>
<rect width="3.99998" height="3.99998" transform="matrix(-1 0 0 1 6 52)" fill="white"/>
<rect width="3.99998" height="3.99998" transform="matrix(-1 0 0 1 6 56)" fill="white"/>
<rect width="3.99998" height="3.99998" transform="matrix(-1 0 0 1 6 60)" fill="white"/>
<rect width="3.99998" height="3.99998" transform="matrix(-1 0 0 1 6 64)" fill="white"/>
<rect width="3.99998" height="3.99998" transform="matrix(-1 0 0 1 6 68)" fill="white"/>
<rect width="3.99998" height="3.99998" transform="matrix(-1 0 0 1 6 72)" fill="white"/>
<rect width="3.99998" height="3.99998" transform="matrix(-1 0 0 1 6 76)" fill="white"/>
<rect width="3.99998" height="3.99998" transform="matrix(-1 0 0 1 6 80)" fill="white"/>
<rect width="3.99998" height="3.99998" transform="matrix(-1 0 0 1 6 84)" fill="white"/>
<rect width="3.99998" height="3.99998" transform="matrix(-1 0 0 1 6 88)" fill="white"/>
<rect width="3.99998" height="3.99998" transform="matrix(-1 0 0 1 6 92)" fill="white"/>
<rect width="3.99998" height="3.99998" transform="matrix(-1 0 0 1 6 96)" fill="white"/>
<rect width="3.99998" height="3.99998" transform="matrix(-1 0 0 1 10 96)" fill="white"/>
<rect width="3.99998" height="3.99998" transform="matrix(-1 0 0 1 14 96)" fill="white"/>
<rect width="3.99998" height="3.99998" transform="matrix(-1 0 0 1 18 96)" fill="white"/>
<rect width="3.99998" height="3.99998" transform="matrix(-1 0 0 1 22 96)" fill="white"/>
<rect width="3.99998" height="3.99998" transform="matrix(-1 0 0 1 26 96)" fill="white"/>
<rect width="3.99998" height="3.99998" transform="matrix(-1 0 0 1 30 96)" fill="white"/>
<rect width="3.99998" height="3.99998" transform="matrix(-1 0 0 1 34 96)" fill="white"/>
<rect width="3.99998" height="3.99998" transform="matrix(-1 0 0 1 38 96)" fill="white"/>
<rect width="3.99998" height="3.99998" transform="matrix(-1 0 0 1 42 96)" fill="white"/>
<rect width="3.99998" height="3.99998" transform="matrix(-1 0 0 1 46 96)" fill="white"/>
<rect width="3.99998" height="3.99998" transform="matrix(-1 0 0 1 50 96)" fill="white"/>
<rect width="3.99998" height="3.99998" transform="matrix(-1 0 0 1 54 96)" fill="white"/>
<rect width="3.99998" height="3.99998" transform="matrix(-1 0 0 1 58 96)" fill="white"/>
<rect width="3.99998" height="3.99998" transform="matrix(-1 0 0 1 62 96)" fill="white"/>
<rect width="3.99998" height="3.99998" transform="matrix(-1 0 0 1 66 96)" fill="white"/>
<rect width="3.99998" height="3.99998" transform="matrix(-1 0 0 1 70 96)" fill="white"/>
<rect width="3.99998" height="3.99998" transform="matrix(-1 0 0 1 74 96)" fill="white"/>
<rect width="3.99998" height="3.99998" transform="matrix(-1 0 0 1 78 96)" fill="white"/>
<rect width="3.99998" height="3.99998" transform="matrix(-1 0 0 1 110 56)" fill="white"/>
<rect width="3.99998" height="3.99998" transform="matrix(-1 0 0 1 110 52)" fill="white"/>
<rect width="3.99998" height="3.99998" transform="matrix(-1 0 0 1 106 52)" fill="white"/>
</svg>
