<svg width="120" height="120" viewBox="0 0 120 120" fill="none" xmlns="http://www.w3.org/2000/svg">
<rect width="3.99998" height="3.99998" transform="matrix(-1 0 0 1 84 80)" fill="#CFD8DB"/>
<rect width="3.99998" height="3.99998" transform="matrix(-1 0 0 1 92 80)" fill="#37474F"/>
<rect width="3.99998" height="3.99998" transform="matrix(-1 0 0 1 88 80)" fill="#37474F"/>
<rect x="64" y="80" width="3.99998" height="3.99998" fill="#37474F"/>
<rect x="60" y="80" width="3.99998" height="3.99998" fill="#37474F"/>
<rect width="3.99998" height="3.99998" transform="matrix(-1 0 0 1 96 80)" fill="#37474F"/>
<rect width="3.99998" height="3.99998" transform="matrix(-1 0 0 1 100 80)" fill="#37474F"/>
<rect x="56" y="80" width="3.99998" height="3.99998" fill="#37474F"/>
<rect width="3.99998" height="3.99998" transform="matrix(-1 0 0 1 104 76)" fill="#37474F"/>
<rect x="52" y="76" width="3.99998" height="3.99998" fill="#37474F"/>
<rect width="3.99998" height="3.99998" transform="matrix(-1 0 0 1 108 72)" fill="#37474F"/>
<rect x="48" y="72" width="3.99998" height="3.99998" fill="#37474F"/>
<rect width="3.99998" height="3.99998" transform="matrix(-1 0 0 1 108 64)" fill="#37474F"/>
<rect width="3.99998" height="3.99998" transform="matrix(-1 0 0 1 108 68)" fill="#37474F"/>
<rect x="48" y="64" width="3.99998" height="3.99998" fill="#37474F"/>
<rect x="48" y="68" width="3.99998" height="3.99998" fill="#37474F"/>
<rect width="3.99998" height="3.99998" transform="matrix(-1 0 0 1 108 60)" fill="#37474F"/>
<rect x="48" y="60" width="3.99998" height="3.99998" fill="#37474F"/>
<rect width="3.99998" height="3.99998" transform="matrix(-1 0 0 1 108 56)" fill="#37474F"/>
<rect x="48" y="56" width="3.99998" height="3.99998" fill="#37474F"/>
<rect width="3.99998" height="3.99998" transform="matrix(-1 0 0 1 108 52)" fill="#37474F"/>
<rect x="48" y="52" width="3.99998" height="3.99998" fill="#37474F"/>
<rect width="3.99998" height="3.99998" transform="matrix(-1 0 0 1 104 48)" fill="#37474F"/>
<rect x="52" y="48" width="3.99998" height="3.99998" fill="#37474F"/>
<rect width="3.99998" height="3.99998" transform="matrix(-1 0 0 1 100 44)" fill="#37474F"/>
<rect x="56" y="44" width="3.99998" height="3.99998" fill="#37474F"/>
<rect x="56" y="48" width="3.99998" height="3.99998" fill="#CFD8DB"/>
<rect x="64" y="40" width="3.99998" height="3.99998" fill="#90A4AE"/>
<rect x="60" y="40" width="3.99998" height="3.99998" fill="#90A4AE"/>
<rect x="56" y="40" width="3.99998" height="3.99998" fill="#90A4AE"/>
<rect x="52" y="40" width="3.99998" height="3.99998" fill="#90A4AE"/>
<rect x="52" y="44" width="3.99998" height="3.99998" fill="#90A4AE"/>
<rect x="48" y="40" width="3.99998" height="3.99998" fill="#90A4AE"/>
<rect x="48" y="44" width="3.99998" height="3.99998" fill="#90A4AE"/>
<rect x="48" y="48" width="3.99998" height="3.99998" fill="#90A4AE"/>
<rect x="44" y="40" width="3.99998" height="3.99998" fill="#90A4AE"/>
<rect x="44" y="44" width="3.99998" height="3.99998" fill="#90A4AE"/>
<rect x="44" y="48" width="3.99998" height="3.99998" fill="#90A4AE"/>
<rect x="44" y="52" width="3.99998" height="3.99998" fill="#90A4AE"/>
<rect x="44" y="56" width="3.99998" height="3.99998" fill="#90A4AE"/>
<rect x="44" y="60" width="3.99998" height="3.99998" fill="#90A4AE"/>
<rect x="40" y="40" width="3.99998" height="3.99998" fill="#90A4AE"/>
<rect x="40" y="44" width="3.99998" height="3.99998" fill="#90A4AE"/>
<rect x="40" y="48" width="3.99998" height="3.99998" fill="#90A4AE"/>
<rect x="40" y="52" width="3.99998" height="3.99998" fill="#90A4AE"/>
<rect x="40" y="56" width="3.99998" height="3.99998" fill="#90A4AE"/>
<rect x="40" y="60" width="3.99998" height="3.99998" fill="#90A4AE"/>
<rect x="36" y="40" width="3.99998" height="3.99998" fill="#90A4AE"/>
<rect x="36" y="44" width="3.99998" height="3.99998" fill="#90A4AE"/>
<rect x="36" y="48" width="3.99998" height="3.99998" fill="#90A4AE"/>
<rect x="36" y="52" width="3.99998" height="3.99998" fill="#90A4AE"/>
<rect x="36" y="56" width="3.99998" height="3.99998" fill="#90A4AE"/>
<rect x="36" y="60" width="3.99998" height="3.99998" fill="#90A4AE"/>
<rect x="32" y="40" width="3.99998" height="3.99998" fill="#90A4AE"/>
<rect x="32" y="44" width="3.99998" height="3.99998" fill="#90A4AE"/>
<rect x="32" y="48" width="3.99998" height="3.99998" fill="#90A4AE"/>
<rect x="32" y="52" width="3.99998" height="3.99998" fill="#90A4AE"/>
<rect x="32" y="56" width="3.99998" height="3.99998" fill="#90A4AE"/>
<rect x="32" y="60" width="3.99998" height="3.99998" fill="#90A4AE"/>
<rect x="28" y="40" width="3.99998" height="3.99998" fill="#90A4AE"/>
<rect x="24" y="40" width="3.99998" height="3.99998" fill="#90A4AE"/>
<rect x="28" y="44" width="3.99998" height="3.99998" fill="#90A4AE"/>
<rect x="24" y="44" width="3.99998" height="3.99998" fill="#90A4AE"/>
<rect x="28" y="48" width="3.99998" height="3.99998" fill="#90A4AE"/>
<rect x="24" y="48" width="3.99998" height="3.99998" fill="#90A4AE"/>
<rect x="28" y="52" width="3.99998" height="3.99998" fill="#90A4AE"/>
<rect x="24" y="52" width="3.99998" height="3.99998" fill="#90A4AE"/>
<rect x="28" y="56" width="3.99998" height="3.99998" fill="#90A4AE"/>
<rect x="24" y="56" width="3.99998" height="3.99998" fill="#90A4AE"/>
<rect x="28" y="60" width="3.99998" height="3.99998" fill="#90A4AE"/>
<rect x="24" y="60" width="3.99998" height="3.99998" fill="#90A4AE"/>
<rect x="20" y="40" width="3.99998" height="3.99998" fill="#90A4AE"/>
<rect x="20" y="44" width="3.99998" height="3.99998" fill="#90A4AE"/>
<rect x="20" y="48" width="3.99998" height="3.99998" fill="#90A4AE"/>
<rect x="20" y="52" width="3.99998" height="3.99998" fill="#90A4AE"/>
<rect x="20" y="56" width="3.99998" height="3.99998" fill="#90A4AE"/>
<rect x="64" y="32" width="3.99998" height="3.99998" fill="#90A4AE"/>
<rect x="64" y="36" width="3.99998" height="3.99998" fill="#90A4AE"/>
<rect x="60" y="32" width="3.99998" height="3.99998" fill="#90A4AE"/>
<rect x="60" y="36" width="3.99998" height="3.99998" fill="#90A4AE"/>
<rect x="60" y="28" width="3.99998" height="3.99998" fill="#90A4AE"/>
<rect x="56" y="32" width="3.99998" height="3.99998" fill="#90A4AE"/>
<rect x="56" y="36" width="3.99998" height="3.99998" fill="#90A4AE"/>
<rect x="56" y="28" width="3.99998" height="3.99998" fill="#90A4AE"/>
<rect x="52" y="32" width="3.99998" height="3.99998" fill="#90A4AE"/>
<rect x="52" y="36" width="3.99998" height="3.99998" fill="#90A4AE"/>
<rect x="52" y="28" width="3.99998" height="3.99998" fill="#90A4AE"/>
<rect x="48" y="32" width="3.99998" height="3.99998" fill="#90A4AE"/>
<rect x="48" y="36" width="3.99998" height="3.99998" fill="#90A4AE"/>
<rect x="48" y="28" width="3.99998" height="3.99998" fill="#90A4AE"/>
<rect x="44" y="32" width="3.99998" height="3.99998" fill="#90A4AE"/>
<rect x="44" y="36" width="3.99998" height="3.99998" fill="#90A4AE"/>
<rect x="44" y="28" width="3.99998" height="3.99998" fill="#90A4AE"/>
<rect x="40" y="32" width="3.99998" height="3.99998" fill="#90A4AE"/>
<rect x="40" y="36" width="3.99998" height="3.99998" fill="#90A4AE"/>
<rect x="40" y="28" width="3.99998" height="3.99998" fill="#90A4AE"/>
<rect x="36" y="32" width="3.99998" height="3.99998" fill="#90A4AE"/>
<rect x="36" y="36" width="3.99998" height="3.99998" fill="#90A4AE"/>
<rect x="36" y="28" width="3.99998" height="3.99998" fill="#90A4AE"/>
<rect x="32" y="32" width="3.99998" height="3.99998" fill="#90A4AE"/>
<rect x="32" y="36" width="3.99998" height="3.99998" fill="#90A4AE"/>
<rect x="32" y="28" width="3.99998" height="3.99998" fill="#90A4AE"/>
<rect x="28" y="32" width="3.99998" height="3.99998" fill="#90A4AE"/>
<rect x="28" y="36" width="3.99998" height="3.99998" fill="#90A4AE"/>
<rect x="24" y="32" width="3.99998" height="3.99998" fill="#90A4AE"/>
<rect x="24" y="36" width="3.99998" height="3.99998" fill="#90A4AE"/>
<rect x="28" y="28" width="3.99998" height="3.99998" fill="#90A4AE"/>
<rect x="24" y="28" width="3.99998" height="3.99998" fill="#90A4AE"/>
<rect x="20" y="32" width="3.99998" height="3.99998" fill="#90A4AE"/>
<rect x="20" y="36" width="3.99998" height="3.99998" fill="#90A4AE"/>
<rect x="60" y="48" width="3.99998" height="3.99998" fill="#CFD8DB"/>
<rect x="64" y="48" width="3.99998" height="3.99998" fill="#CFD8DB"/>
<rect x="68" y="48" width="3.99998" height="3.99998" fill="#CFD8DB"/>
<rect x="72" y="48" width="3.99998" height="3.99998" fill="#CFD8DB"/>
<rect x="80" y="52" width="3.99998" height="3.99998" fill="#CFD8DB"/>
<rect x="76" y="52" width="3.99998" height="3.99998" fill="#CFD8DB"/>
<rect x="80" y="56" width="3.99998" height="3.99998" fill="#CFD8DB"/>
<rect x="76" y="56" width="3.99998" height="3.99998" fill="#37474F"/>
<rect x="76" y="54" width="3.99998" height="3.99998" fill="#37474F"/>
<rect x="80" y="60" width="3.99998" height="3.99998" fill="#CFD8DB"/>
<rect x="76" y="60" width="3.99998" height="3.99998" fill="#37474F"/>
<rect x="80" y="64" width="3.99998" height="3.99998" fill="#CFD8DB"/>
<rect x="76" y="64" width="3.99998" height="3.99998" fill="#37474F"/>
<rect x="80" y="68" width="3.99998" height="3.99998" fill="#CFD8DB"/>
<rect x="76" y="68" width="3.99998" height="3.99998" fill="#CFD8DB"/>
<rect x="80" y="72" width="3.99998" height="3.99998" fill="#CFD8DB"/>
<rect x="76" y="72" width="3.99998" height="3.99998" fill="#37474F"/>
<rect x="72" y="76" width="3.99998" height="3.99998" fill="#CFD8DB"/>
<rect x="80" y="48" width="3.99998" height="3.99998" fill="#CFD8DB"/>
<rect x="76" y="48" width="3.99998" height="3.99998" fill="#CFD8DB"/>
<rect x="88" y="52" width="3.99998" height="3.99998" fill="#CFD8DB"/>
<rect x="84" y="52" width="3.99998" height="3.99998" fill="#CFD8DB"/>
<rect x="88" y="56" width="3.99998" height="3.99998" fill="#CFD8DB"/>
<rect x="84" y="56" width="3.99998" height="3.99998" fill="#CFD8DB"/>
<rect x="88" y="60" width="3.99998" height="3.99998" fill="#CFD8DB"/>
<rect x="84" y="60" width="3.99998" height="3.99998" fill="#CFD8DB"/>
<rect x="88" y="64" width="3.99998" height="3.99998" fill="#CFD8DB"/>
<rect x="84" y="64" width="3.99998" height="3.99998" fill="#CFD8DB"/>
<rect x="88" y="68" width="3.99998" height="3.99998" fill="#CFD8DB"/>
<rect x="84" y="68" width="3.99998" height="3.99998" fill="#CFD8DB"/>
<rect x="88" y="72" width="3.99998" height="3.99998" fill="#CFD8DB"/>
<rect x="84" y="72" width="3.99998" height="3.99998" fill="#CFD8DB"/>
<rect x="80" y="76" width="3.99998" height="3.99998" fill="#CFD8DB"/>
<rect x="76" y="76" width="3.99998" height="3.99998" fill="#CFD8DB"/>
<rect x="56" y="76" width="3.99998" height="3.99998" fill="#CFD8DB"/>
<rect x="56" y="72" width="3.99998" height="3.99998" fill="#CFD8DB"/>
<rect x="52" y="72" width="3.99998" height="3.99998" fill="#CFD8DB"/>
<rect x="56" y="64" width="3.99998" height="3.99998" fill="#CFD8DB"/>
<rect x="56" y="68" width="3.99998" height="3.99998" fill="#CFD8DB"/>
<rect x="52" y="64" width="3.99998" height="3.99998" fill="#CFD8DB"/>
<rect x="52" y="68" width="3.99998" height="3.99998" fill="#CFD8DB"/>
<rect x="56" y="60" width="3.99998" height="3.99998" fill="#CFD8DB"/>
<rect x="52" y="60" width="3.99998" height="3.99998" fill="#CFD8DB"/>
<rect x="56" y="56" width="3.99998" height="3.99998" fill="#CFD8DB"/>
<rect x="52" y="56" width="3.99998" height="3.99998" fill="#CFD8DB"/>
<rect x="56" y="52" width="3.99998" height="3.99998" fill="#CFD8DB"/>
<rect x="52" y="52" width="3.99998" height="3.99998" fill="#CFD8DB"/>
<rect x="88" y="48" width="3.99998" height="3.99998" fill="#CFD8DB"/>
<rect x="84" y="48" width="3.99998" height="3.99998" fill="#CFD8DB"/>
<rect x="92" y="52" width="3.99998" height="3.99998" fill="#CFD8DB"/>
<rect x="92" y="56" width="3.99998" height="3.99998" fill="#CFD8DB"/>
<rect x="92" y="60" width="3.99998" height="3.99998" fill="#CFD8DB"/>
<rect x="92" y="64" width="3.99998" height="3.99998" fill="#CFD8DB"/>
<rect x="92" y="68" width="3.99998" height="3.99998" fill="#CFD8DB"/>
<rect x="92" y="72" width="3.99998" height="3.99998" fill="#CFD8DB"/>
<rect x="88" y="76" width="3.99998" height="3.99998" fill="#CFD8DB"/>
<rect x="84" y="76" width="3.99998" height="3.99998" fill="#CFD8DB"/>
<rect x="60" y="76" width="3.99998" height="3.99998" fill="#CFD8DB"/>
<rect x="60" y="72" width="3.99998" height="3.99998" fill="#CFD8DB"/>
<rect x="60" y="64" width="3.99998" height="3.99998" fill="#CFD8DB"/>
<rect x="60" y="68" width="3.99998" height="3.99998" fill="#CFD8DB"/>
<rect x="60" y="60" width="3.99998" height="3.99998" fill="#CFD8DB"/>
<rect x="60" y="56" width="3.99998" height="3.99998" fill="#CFD8DB"/>
<rect x="60" y="52" width="3.99998" height="3.99998" fill="#CFD8DB"/>
<rect x="92" y="48" width="3.99998" height="3.99998" fill="#CFD8DB"/>
<rect x="96" y="52" width="3.99998" height="3.99998" fill="#CFD8DB"/>
<rect x="96" y="56" width="3.99998" height="3.99998" fill="#CFD8DB"/>
<rect x="96" y="60" width="3.99998" height="3.99998" fill="#CFD8DB"/>
<rect x="96" y="64" width="3.99998" height="3.99998" fill="#CFD8DB"/>
<rect x="96" y="68" width="3.99998" height="3.99998" fill="#CFD8DB"/>
<rect x="96" y="72" width="3.99998" height="3.99998" fill="#CFD8DB"/>
<rect x="92" y="76" width="3.99998" height="3.99998" fill="#CFD8DB"/>
<rect x="64" y="76" width="3.99998" height="3.99998" fill="#CFD8DB"/>
<rect x="64" y="72" width="3.99998" height="3.99998" fill="#CFD8DB"/>
<rect x="64" y="64" width="3.99998" height="3.99998" fill="#CFD8DB"/>
<rect x="64" y="68" width="3.99998" height="3.99998" fill="#CFD8DB"/>
<rect x="64" y="60" width="3.99998" height="3.99998" fill="#CFD8DB"/>
<rect x="64" y="56" width="3.99998" height="3.99998" fill="#CFD8DB"/>
<rect x="64" y="52" width="3.99998" height="3.99998" fill="#CFD8DB"/>
<rect x="96" y="48" width="3.99998" height="3.99998" fill="#CFD8DB"/>
<rect x="100" y="52" width="3.99998" height="3.99998" fill="#CFD8DB"/>
<rect x="100" y="56" width="3.99998" height="3.99998" fill="#CFD8DB"/>
<rect x="100" y="60" width="3.99998" height="3.99998" fill="#CFD8DB"/>
<rect x="100" y="64" width="3.99998" height="3.99998" fill="#CFD8DB"/>
<rect x="100" y="68" width="3.99998" height="3.99998" fill="#CFD8DB"/>
<rect x="100" y="72" width="3.99998" height="3.99998" fill="#CFD8DB"/>
<rect x="96" y="76" width="3.99998" height="3.99998" fill="#CFD8DB"/>
<rect x="68" y="76" width="3.99998" height="3.99998" fill="#CFD8DB"/>
<rect x="68" y="72" width="3.99998" height="3.99998" fill="#CFD8DB"/>
<rect x="68" y="64" width="3.99998" height="3.99998" fill="#CFD8DB"/>
<rect x="68" y="68" width="3.99998" height="3.99998" fill="#CFD8DB"/>
<rect x="72" y="64" width="3.99998" height="3.99998" fill="#CFD8DB"/>
<rect x="72" y="68" width="3.99998" height="3.99998" fill="#CFD8DB"/>
<rect x="72" y="80" width="3.99998" height="3.99998" fill="#CFD8DB"/>
<rect x="68" y="80" width="3.99998" height="3.99998" fill="#37474F"/>
<rect x="76" y="80" width="3.99998" height="3.99998" fill="#CFD8DB"/>
<rect x="68" y="60" width="3.99998" height="3.99998" fill="#CFD8DB"/>
<rect x="68" y="56" width="3.99998" height="3.99998" fill="#CFD8DB"/>
<rect x="68" y="52" width="3.99998" height="3.99998" fill="#CFD8DB"/>
<rect width="3.99998" height="3.99998" transform="matrix(-1 0 0 1 96 44)" fill="#37474F"/>
<rect x="60" y="44" width="3.99998" height="3.99998" fill="#37474F"/>
<rect width="3.99998" height="3.99998" transform="matrix(-1 0 0 1 92 44)" fill="#37474F"/>
<rect width="3.99998" height="3.99998" transform="matrix(-1 0 0 1 88 44)" fill="#37474F"/>
<rect x="64" y="44" width="3.99998" height="3.99998" fill="#37474F"/>
<rect x="68" y="44" width="3.99998" height="3.99998" fill="#37474F"/>
<rect x="72" y="44" width="3.99998" height="3.99998" fill="#37474F"/>
<rect x="72" y="52" width="3.99998" height="3.99998" fill="#CFD8DB"/>
<rect x="72" y="56" width="3.99998" height="3.99998" fill="#CFD8DB"/>
<rect x="72" y="60" width="3.99998" height="3.99998" fill="#CFD8DB"/>
<rect x="72" y="72" width="3.99998" height="3.99998" fill="#CFD8DB"/>
<rect x="80" y="44" width="3.99998" height="3.99998" fill="#37474F"/>
<rect x="76" y="44" width="3.99998" height="3.99998" fill="#37474F"/>
<rect x="36" y="64" width="3.99998" height="3.99998" fill="#37474F"/>
<rect x="40" y="64" width="3.99998" height="3.99998" fill="#37474F"/>
<rect x="44" y="64" width="3.99998" height="3.99998" fill="#37474F"/>
<rect x="32" y="64" width="3.99998" height="3.99998" fill="#37474F"/>
<rect x="28" y="64" width="3.99998" height="3.99998" fill="#37474F"/>
<rect x="20" y="60" width="3.99998" height="3.99998" fill="#37474F"/>
<rect x="24" y="64" width="3.99998" height="3.99998" fill="#37474F"/>
<rect x="16" y="56" width="3.99998" height="3.99998" fill="#37474F"/>
<rect x="16" y="52" width="3.99998" height="3.99998" fill="#37474F"/>
<rect x="16" y="48" width="3.99998" height="3.99998" fill="#37474F"/>
<rect x="16" y="44" width="3.99998" height="3.99998" fill="#37474F"/>
<rect x="16" y="32" width="3.99998" height="3.99998" fill="#37474F"/>
<rect x="16" y="36" width="3.99998" height="3.99998" fill="#37474F"/>
<rect x="16" y="40" width="3.99998" height="3.99998" fill="#37474F"/>
<rect width="3.99998" height="3.99998" transform="matrix(-1 0 0 1 72 32)" fill="#37474F"/>
<rect width="3.99998" height="3.99998" transform="matrix(-1 0 0 1 72 36)" fill="#37474F"/>
<rect width="3.99998" height="3.99998" transform="matrix(-1 0 0 1 72 40)" fill="#37474F"/>
<rect x="20" y="28" width="3.99998" height="3.99998" fill="#37474F"/>
<rect x="24" y="24" width="3.99998" height="3.99998" fill="#37474F"/>
<rect width="3.99998" height="3.99998" transform="matrix(-1 0 0 1 68 28)" fill="#37474F"/>
<rect x="28" y="24" width="3.99998" height="3.99998" fill="#37474F"/>
<rect width="3.99998" height="3.99998" transform="matrix(-1 0 0 1 64 24)" fill="#37474F"/>
<rect x="32" y="24" width="3.99998" height="3.99998" fill="#37474F"/>
<rect width="3.99998" height="3.99998" transform="matrix(-1 0 0 1 60 24)" fill="#37474F"/>
<rect x="36" y="24" width="3.99998" height="3.99998" fill="#37474F"/>
<rect width="3.99998" height="3.99998" transform="matrix(-1 0 0 1 56 24)" fill="#37474F"/>
<rect width="3.99998" height="3.99998" transform="matrix(-1 0 0 1 52 24)" fill="#37474F"/>
<rect width="3.99998" height="3.99998" transform="matrix(-1 0 0 1 48 24)" fill="#37474F"/>
<rect width="3.99998" height="3.99998" transform="matrix(-1 0 0 1 44 24)" fill="#37474F"/>
<rect width="3.99998" height="3.99998" transform="matrix(-1 0 0 1 108 76)" fill="white"/>
<rect width="3.99998" height="3.99998" transform="matrix(-1 0 0 1 108 80)" fill="white"/>
<rect width="3.99998" height="3.99998" transform="matrix(-1 0 0 1 104 84)" fill="white"/>
<rect width="3.99998" height="3.99998" transform="matrix(-1 0 0 1 96 84)" fill="white"/>
<rect width="3.99998" height="3.99998" transform="matrix(-1 0 0 1 104 80)" fill="white"/>
<rect width="3.99998" height="3.99998" transform="matrix(-1 0 0 1 100 84)" fill="white"/>
<rect width="3.99998" height="3.99998" transform="matrix(-1 0 0 1 92 84)" fill="white"/>
<rect width="3.99998" height="3.99998" transform="matrix(-1 0 0 1 68 84)" fill="white"/>
<rect width="3.99998" height="3.99998" transform="matrix(-1 0 0 1 76 84)" fill="#37474F"/>
<rect width="3.99998" height="3.99998" transform="matrix(-1 0 0 1 76 88)" fill="#37474F"/>
<rect width="3.99998" height="3.99998" transform="matrix(-1 0 0 1 76 92)" fill="#37474F"/>
<rect width="3.99998" height="3.99998" transform="matrix(-1 0 0 1 80 88)" fill="#37474F"/>
<rect width="3.99998" height="3.99998" transform="matrix(-1 0 0 1 84 84)" fill="#37474F"/>
<rect x="76" y="84" width="3.99998" height="3.99998" fill="#CFD8DB"/>
<rect width="3.99998" height="3.99998" transform="matrix(-1 0 0 1 88 84)" fill="white"/>
<rect width="3.99998" height="3.99998" transform="matrix(-1 0 0 1 84 92)" fill="white"/>
<rect width="3.99998" height="3.99998" transform="matrix(-1 0 0 1 80 96)" fill="white"/>
<rect width="3.99998" height="3.99998" transform="matrix(-1 0 0 1 88 88)" fill="white"/>
<rect width="3.99998" height="3.99998" transform="matrix(-1 0 0 1 84 88)" fill="white"/>
<rect width="3.99998" height="3.99998" transform="matrix(-1 0 0 1 80 92)" fill="white"/>
<rect width="3.99998" height="3.99998" transform="matrix(-1 0 0 1 76 96)" fill="white"/>
<rect width="3.99998" height="3.99998" transform="matrix(-1 0 0 1 72 96)" fill="white"/>
<rect width="3.99998" height="3.99998" transform="matrix(-1 0 0 1 72 92)" fill="white"/>
<rect width="3.99998" height="3.99998" transform="matrix(-1 0 0 1 72 88)" fill="white"/>
<rect width="3.99998" height="3.99998" transform="matrix(-1 0 0 1 72 84)" fill="white"/>
<rect width="3.99998" height="3.99998" transform="matrix(-1 0 0 1 64 84)" fill="white"/>
<rect width="3.99998" height="3.99998" transform="matrix(-1 0 0 1 60 84)" fill="white"/>
<rect width="3.99998" height="3.99998" transform="matrix(-1 0 0 1 56 84)" fill="white"/>
<rect width="3.99998" height="3.99998" transform="matrix(-1 0 0 1 56 80)" fill="white"/>
<rect width="3.99998" height="3.99998" transform="matrix(-1 0 0 1 52 80)" fill="white"/>
<rect width="3.99998" height="3.99998" transform="matrix(-1 0 0 1 52 76)" fill="white"/>
<rect width="3.99998" height="3.99998" transform="matrix(-1 0 0 1 48 76)" fill="white"/>
<rect width="3.99998" height="3.99998" transform="matrix(-1 0 0 1 48 72)" fill="white"/>
<rect width="3.99998" height="3.99998" transform="matrix(-1 0 0 1 44 68)" fill="white"/>
<rect width="3.99998" height="3.99998" transform="matrix(-1 0 0 1 48 68)" fill="white"/>
<rect width="3.99998" height="3.99998" transform="matrix(-1 0 0 1 40 68)" fill="white"/>
<rect width="3.99998" height="3.99998" transform="matrix(-1 0 0 1 36 68)" fill="white"/>
<rect width="3.99998" height="3.99998" transform="matrix(-1 0 0 1 32 68)" fill="white"/>
<rect width="3.99998" height="3.99998" transform="matrix(-1 0 0 1 24 68)" fill="white"/>
<rect width="3.99998" height="3.99998" transform="matrix(-1 0 0 1 28 68)" fill="white"/>
<rect width="3.99998" height="3.99998" transform="matrix(-1 0 0 1 24 64)" fill="white"/>
<rect width="3.99998" height="3.99998" transform="matrix(-1 0 0 1 20 64)" fill="white"/>
<rect width="3.99998" height="3.99998" transform="matrix(-1 0 0 1 20 60)" fill="white"/>
<rect width="3.99998" height="3.99998" transform="matrix(-1 0 0 1 16 60)" fill="white"/>
<rect width="3.99998" height="3.99998" transform="matrix(-1 0 0 1 16 56)" fill="white"/>
<rect width="3.99998" height="3.99998" transform="matrix(-1 0 0 1 16 52)" fill="white"/>
<rect width="3.99998" height="3.99998" transform="matrix(-1 0 0 1 16 48)" fill="white"/>
<rect width="3.99998" height="3.99998" transform="matrix(-1 0 0 1 16 44)" fill="white"/>
<rect width="3.99998" height="3.99998" transform="matrix(-1 0 0 1 16 40)" fill="white"/>
<rect width="3.99998" height="3.99998" transform="matrix(-1 0 0 1 16 32)" fill="white"/>
<rect width="3.99998" height="3.99998" transform="matrix(-1 0 0 1 16 36)" fill="white"/>
<rect width="3.99998" height="3.99998" transform="matrix(-1 0 0 1 16 28)" fill="white"/>
<rect width="3.99998" height="3.99998" transform="matrix(-1 0 0 1 20 24)" fill="white"/>
<rect width="3.99998" height="3.99998" transform="matrix(-1 0 0 1 24 20)" fill="white"/>
<rect width="3.99998" height="3.99998" transform="matrix(-1 0 0 1 28 20)" fill="white"/>
<rect width="3.99998" height="3.99998" transform="matrix(-1 0 0 1 36 20)" fill="white"/>
<rect width="3.99998" height="3.99998" transform="matrix(-1 0 0 1 44 20)" fill="white"/>
<rect width="3.99998" height="3.99998" transform="matrix(-1 0 0 1 52 20)" fill="white"/>
<rect width="3.99998" height="3.99998" transform="matrix(-1 0 0 1 60 20)" fill="white"/>
<rect width="3.99998" height="3.99998" transform="matrix(-1 0 0 1 20 28)" fill="white"/>
<rect width="3.99998" height="3.99998" transform="matrix(-1 0 0 1 24 24)" fill="white"/>
<rect width="3.99998" height="3.99998" transform="matrix(-1 0 0 1 32 20)" fill="white"/>
<rect width="3.99998" height="3.99998" transform="matrix(-1 0 0 1 40 20)" fill="white"/>
<rect width="3.99998" height="3.99998" transform="matrix(-1 0 0 1 48 20)" fill="white"/>
<rect width="3.99998" height="3.99998" transform="matrix(-1 0 0 1 56 20)" fill="white"/>
<rect width="3.99998" height="3.99998" transform="matrix(-1 0 0 1 64 20)" fill="white"/>
<rect width="3.99998" height="3.99998" transform="matrix(-1 0 0 1 68 24)" fill="white"/>
<rect width="3.99998" height="3.99998" transform="matrix(-1 0 0 1 72 28)" fill="white"/>
<rect width="3.99998" height="3.99998" transform="matrix(-1 0 0 1 76 32)" fill="white"/>
<rect width="3.99998" height="3.99998" transform="matrix(-1 0 0 1 76 36)" fill="white"/>
<rect width="3.99998" height="3.99998" transform="matrix(-1 0 0 1 68 20)" fill="white"/>
<rect width="3.99998" height="3.99998" transform="matrix(-1 0 0 1 72 24)" fill="white"/>
<rect width="3.99998" height="3.99998" transform="matrix(-1 0 0 1 76 28)" fill="white"/>
<rect width="3.99998" height="3.99998" transform="matrix(-1 0 0 1 76 40)" fill="white"/>
<rect width="3.99998" height="3.99998" transform="matrix(-1 0 0 1 84 40)" fill="white"/>
<rect width="3.99998" height="3.99998" transform="matrix(-1 0 0 1 80 40)" fill="white"/>
<rect width="3.99998" height="3.99998" transform="matrix(-1 0 0 1 92 40)" fill="white"/>
<rect width="3.99998" height="3.99998" transform="matrix(-1 0 0 1 88 40)" fill="white"/>
<rect width="3.99998" height="3.99998" transform="matrix(-1 0 0 1 96 40)" fill="white"/>
<rect width="3.99998" height="3.99998" transform="matrix(-1 0 0 1 100 40)" fill="white"/>
<rect width="3.99998" height="3.99998" transform="matrix(-1 0 0 1 104 44)" fill="white"/>
<rect width="3.99998" height="3.99998" transform="matrix(-1 0 0 1 108 48)" fill="white"/>
<rect width="3.99998" height="3.99998" transform="matrix(-1 0 0 1 104 40)" fill="white"/>
<rect width="3.99998" height="3.99998" transform="matrix(-1 0 0 1 108 44)" fill="white"/>
<rect width="3.99998" height="3.99998" transform="matrix(-1 0 0 1 112 48)" fill="white"/>
<rect width="3.99998" height="3.99998" transform="matrix(-1 0 0 1 112 52)" fill="white"/>
<rect width="3.99998" height="3.99998" transform="matrix(-1 0 0 1 112 56)" fill="white"/>
<rect width="3.99998" height="3.99998" transform="matrix(-1 0 0 1 112 60)" fill="white"/>
<rect width="3.99998" height="3.99998" transform="matrix(-1 0 0 1 112 64)" fill="white"/>
<rect width="3.99998" height="3.99998" transform="matrix(-1 0 0 1 112 68)" fill="white"/>
<rect width="3.99998" height="3.99998" transform="matrix(-1 0 0 1 112 72)" fill="white"/>
<rect width="3.99998" height="3.99998" transform="matrix(-1 0 0 1 112 76)" fill="white"/>
</svg>
