<svg width="24" height="24" viewBox="0 0 24 24" fill="none" xmlns="http://www.w3.org/2000/svg">
<rect x="2.3999" y="19.2" width="2.4" height="2.4" fill="#78909C"/>
<rect y="21.6001" width="2.4" height="2.4" fill="#78909C"/>
<rect x="4.7998" y="16.8" width="2.4" height="2.4" fill="#FF7002"/>
<rect x="2.3999" y="14.3999" width="2.4" height="2.4" fill="#FF7002"/>
<rect y="12" width="2.4" height="2.4" fill="#FF7002"/>
<rect x="2.3999" y="12" width="2.4" height="2.4" fill="#FFC30B"/>
<rect x="4.7998" y="9.6001" width="2.4" height="2.4" fill="#FFC30B"/>
<rect x="4.7998" y="12" width="2.4" height="2.4" fill="#FFA202"/>
<rect x="4.7998" y="14.3999" width="2.4" height="2.4" fill="#FFA202"/>
<rect x="7.2002" y="14.3999" width="2.4" height="2.4" fill="#FFA202"/>
<rect x="7.2002" y="12" width="2.4" height="2.4" fill="#FFA202"/>
<rect x="9.6001" y="12" width="2.4" height="2.4" fill="#FFA202"/>
<rect x="9.6001" y="9.6001" width="2.4" height="2.4" fill="#FFC30B"/>
<rect x="12" y="9.6001" width="2.4" height="2.4" fill="#FFA202"/>
<rect x="12" y="7.19995" width="2.4" height="2.4" fill="#FFC30B"/>
<rect x="14.3999" y="7.19995" width="2.4" height="2.4" fill="#FF9103"/>
<rect x="14.3999" y="4.80005" width="2.4" height="2.4" fill="#FFA202"/>
<rect x="12" y="2.3999" width="2.4" height="2.4" fill="#FFC30B"/>
<rect x="16.7998" y="7.19995" width="2.4" height="2.4" fill="#FF9103"/>
<rect x="16.7998" y="4.80005" width="2.4" height="2.4" fill="#FFA202"/>
<rect x="14.3999" y="2.3999" width="2.4" height="2.4" fill="#FFC30B"/>
<rect x="19.2002" y="7.19995" width="2.4" height="2.4" fill="#FF9103"/>
<rect x="19.2002" y="9.6001" width="2.4" height="2.4" fill="#FF9103"/>
<rect x="9.6001" y="14.3999" width="2.4" height="2.4" fill="#FF9103"/>
<rect x="12" y="14.3999" width="2.4" height="2.4" fill="#FF9103"/>
<rect x="12" y="16.8" width="2.4" height="2.4" fill="#FF9103"/>
<rect x="9.6001" y="16.8" width="2.4" height="2.4" fill="#FF9103"/>
<rect x="2.3999" y="9.6001" width="2.4" height="2.4" fill="#FF7002"/>
<rect x="4.7998" y="7.19995" width="2.4" height="2.4" fill="#FF7002"/>
<rect x="7.2002" y="9.6001" width="2.4" height="2.4" fill="#FF7002"/>
<rect x="9.6001" y="7.19995" width="2.4" height="2.4" fill="#FF7002"/>
<rect x="12" y="4.80005" width="2.4" height="2.4" fill="#FF7002"/>
<rect x="9.6001" y="2.3999" width="2.4" height="2.4" fill="#FF7002"/>
<rect x="12" width="2.4" height="2.4" fill="#FF7002"/>
<rect x="14.3999" width="2.4" height="2.4" fill="#FF7002"/>
<rect x="16.7998" y="2.3999" width="2.4" height="2.4" fill="#FF7002"/>
<rect x="19.2002" y="4.80005" width="2.4" height="2.4" fill="#FF7002"/>
<rect x="21.6001" y="7.19995" width="2.4" height="2.4" fill="#FF7002"/>
<rect x="21.6001" y="9.6001" width="2.4" height="2.4" fill="#FF7002"/>
<rect x="19.2002" y="12" width="2.4" height="2.4" fill="#FF7002"/>
<rect x="16.7998" y="9.6001" width="2.4" height="2.4" fill="#FF7002"/>
<rect x="14.3999" y="9.6001" width="2.4" height="2.4" fill="#FF7002"/>
<rect x="12" y="12" width="2.4" height="2.4" fill="#FF7002"/>
<rect x="14.3999" y="14.3999" width="2.4" height="2.4" fill="#FF7002"/>
<rect x="14.3999" y="16.8" width="2.4" height="2.4" fill="#FF7002"/>
<rect x="12" y="19.2" width="2.4" height="2.4" fill="#FF7002"/>
<rect x="9.6001" y="19.2" width="2.4" height="2.4" fill="#FF7002"/>
<rect x="7.2002" y="16.8" width="2.4" height="2.4" fill="#FF7002"/>
</svg>
