<svg width="16" height="16" viewBox="0 0 16 16" fill="none" xmlns="http://www.w3.org/2000/svg">
<rect x="6" y="2" width="1" height="1" fill="#37474F"/>
<rect x="6" y="3" width="1" height="1" fill="#FED750"/>
<rect x="6" y="4" width="1" height="1" fill="#FFA202"/>
<rect x="6" y="12" width="1" height="1" fill="#FFA202"/>
<rect x="6" y="13" width="1" height="1" fill="#FF7002"/>
<rect width="1" height="1" transform="matrix(1 0 0 -1 6 15)" fill="#37474F"/>
<rect x="5" y="2" width="1" height="1" fill="#37474F"/>
<rect x="5" y="3" width="1" height="1" fill="#FED750"/>
<rect x="5" y="4" width="1" height="1" fill="#FFA202"/>
<rect x="4" y="4" width="1" height="1" fill="#FED750"/>
<rect x="5" y="12" width="1" height="1" fill="#FFA202"/>
<rect x="5" y="11" width="1" height="1" fill="#FF7002"/>
<rect x="4" y="11" width="1" height="1" fill="#FFA202"/>
<rect x="4" y="10" width="1" height="1" fill="#FF7002"/>
<rect x="3" y="10" width="1" height="1" fill="#FFA202"/>
<rect x="3" y="9" width="1" height="1" fill="#FF7002"/>
<rect x="3" y="8" width="1" height="1" fill="#FF7002"/>
<rect x="3" y="7" width="1" height="1" fill="#FF7002"/>
<rect x="3" y="6" width="1" height="1" fill="#FFA202"/>
<rect x="3" y="5" width="1" height="1" fill="#FED750"/>
<rect x="4" y="6" width="1" height="1" fill="#FFA202"/>
<rect x="4" y="5" width="1" height="1" fill="#FFA202"/>
<rect x="5" y="5" width="1" height="1" fill="#FFA202"/>
<rect x="2" y="10" width="1" height="1" fill="#FFA202"/>
<rect x="2" y="9" width="1" height="1" fill="#FFA202"/>
<rect x="2" y="8" width="1" height="1" fill="#FFA202"/>
<rect x="2" y="7" width="1" height="1" fill="#FFA202"/>
<rect x="2" y="6" width="1" height="1" fill="#FED750"/>
<rect x="3" y="11" width="1" height="1" fill="#FFA202"/>
<rect x="4" y="12" width="1" height="1" fill="#FFA202"/>
<rect x="5" y="13" width="1" height="1" fill="#FF7002"/>
<rect width="1" height="1" transform="matrix(1 0 0 -1 5 15)" fill="#37474F"/>
<rect x="4" y="3" width="1" height="1" fill="#37474F"/>
<rect width="1" height="1" transform="matrix(1 0 0 -1 4 14)" fill="#37474F"/>
<rect x="3" y="4" width="1" height="1" fill="#37474F"/>
<rect width="1" height="1" transform="matrix(1 0 0 -1 3 13)" fill="#37474F"/>
<rect x="2" y="5" width="1" height="1" fill="#37474F"/>
<rect width="1" height="1" transform="matrix(1 0 0 -1 2 12)" fill="#37474F"/>
<rect width="1" height="1" transform="matrix(1 0 0 -1 1 11)" fill="#37474F"/>
<rect x="1" y="6" width="1" height="1" fill="#37474F"/>
<rect x="1" y="7" width="1" height="1" fill="#37474F"/>
<rect x="1" y="8" width="1" height="1" fill="#37474F"/>
<rect x="1" y="9" width="1" height="1" fill="#37474F"/>
<rect x="7" y="2" width="1" height="1" fill="#37474F"/>
<rect x="7" y="3" width="1" height="1" fill="#FED750"/>
<rect x="7" y="4" width="1" height="1" fill="#FFA202"/>
<rect x="7" y="12" width="1" height="1" fill="#FFA202"/>
<rect x="7" y="13" width="1" height="1" fill="#FF7002"/>
<rect width="1" height="1" transform="matrix(1 0 0 -1 7 15)" fill="#37474F"/>
<rect x="8" y="2" width="1" height="1" fill="#37474F"/>
<rect x="8" y="3" width="1" height="1" fill="#FED750"/>
<rect x="8" y="4" width="1" height="1" fill="#FFA202"/>
<rect x="8" y="12" width="1" height="1" fill="#FFA202"/>
<rect x="8" y="13" width="1" height="1" fill="#FF7002"/>
<rect width="1" height="1" transform="matrix(1 0 0 -1 8 15)" fill="#37474F"/>
<rect x="9" y="2" width="1" height="1" fill="#37474F"/>
<rect x="9" y="3" width="1" height="1" fill="#FED750"/>
<rect x="9" y="4" width="1" height="1" fill="#FFA202"/>
<rect x="9" y="12" width="1" height="1" fill="#FFA202"/>
<rect x="9" y="13" width="1" height="1" fill="#FF7002"/>
<rect width="1" height="1" transform="matrix(1 0 0 -1 9 15)" fill="#37474F"/>
<rect x="10" y="2" width="1" height="1" fill="#37474F"/>
<rect x="10" y="3" width="1" height="1" fill="#FFA202"/>
<rect x="10" y="4" width="1" height="1" fill="#FFA202"/>
<rect x="11" y="4" width="1" height="1" fill="#FFA202"/>
<rect x="10" y="5" width="1" height="1" fill="#FFA202"/>
<rect x="11" y="5" width="1" height="1" fill="#FFA202"/>
<rect x="11" y="6" width="1" height="1" fill="#FFA202"/>
<rect x="11" y="7" width="1" height="1" fill="#FF7002"/>
<rect x="10" y="7" width="1" height="1" fill="#FF7002"/>
<rect x="12" y="5" width="1" height="1" fill="#FFA202"/>
<rect x="12" y="6" width="1" height="1" fill="#FFA202"/>
<rect x="12" y="7" width="1" height="1" fill="#FF7002"/>
<rect x="13" y="5" width="1" height="1" fill="#FF7002"/>
<rect x="13" y="6" width="1" height="1" fill="#FF7002"/>
<rect x="13" y="7" width="1" height="1" fill="#FF7002"/>
<rect x="13" y="4" width="1" height="1" fill="#FF7002"/>
<rect x="10" y="12" width="1" height="1" fill="#FFA202"/>
<rect x="11" y="12" width="1" height="1" fill="#FF7002"/>
<rect x="10" y="11" width="1" height="1" fill="#FFA202"/>
<rect x="11" y="11" width="1" height="1" fill="#FFA202"/>
<rect x="12" y="11" width="1" height="1" fill="#FF7002"/>
<rect x="10" y="13" width="1" height="1" fill="#FF7002"/>
<rect width="1" height="1" transform="matrix(1 0 0 -1 10 15)" fill="#37474F"/>
<rect x="11" y="3" width="1" height="1" fill="#37474F"/>
<rect width="1" height="1" transform="matrix(1 0 0 -1 11 14)" fill="#37474F"/>
<rect x="12" y="4" width="1" height="1" fill="#37474F"/>
<rect width="1" height="1" transform="matrix(1 0 0 -1 12 13)" fill="#37474F"/>
<rect x="13" y="3" width="1" height="1" fill="#37474F"/>
<rect x="14" y="4" width="1" height="1" fill="#37474F"/>
<rect x="14" y="3" width="1" height="1" fill="#37474F"/>
<rect x="14" y="5" width="1" height="1" fill="#37474F"/>
<rect x="14" y="6" width="1" height="1" fill="#37474F"/>
<rect x="14" y="7" width="1" height="1" fill="#37474F"/>
<rect x="14" y="8" width="1" height="1" fill="#37474F"/>
<rect x="13" y="8" width="1" height="1" fill="#37474F"/>
<rect x="12" y="8" width="1" height="1" fill="#37474F"/>
<rect x="11" y="8" width="1" height="1" fill="#37474F"/>
<rect x="10" y="8" width="1" height="1" fill="#37474F"/>
<rect x="9" y="8" width="1" height="1" fill="#37474F"/>
<rect x="9" y="7" width="1" height="1" fill="#37474F"/>
<rect x="10" y="6" width="1" height="1" fill="#37474F"/>
<rect width="1" height="1" transform="matrix(1 0 0 -1 10 11)" fill="#37474F"/>
<rect width="1" height="1" transform="matrix(1 0 0 -1 11 11)" fill="#37474F"/>
<rect width="1" height="1" transform="matrix(1 0 0 -1 12 11)" fill="#37474F"/>
<rect width="1" height="1" transform="matrix(1 0 0 -1 13 11)" fill="#37474F"/>
<rect width="1" height="1" transform="matrix(1 0 0 -1 13 12)" fill="#37474F"/>
<rect x="9" y="5" width="1" height="1" fill="#37474F"/>
<rect width="1" height="1" transform="matrix(1 0 0 -1 9 12)" fill="#37474F"/>
<rect x="8" y="5" width="1" height="1" fill="#37474F"/>
<rect width="1" height="1" transform="matrix(1 0 0 -1 8 12)" fill="#37474F"/>
<rect x="7" y="5" width="1" height="1" fill="#37474F"/>
<rect width="1" height="1" transform="matrix(1 0 0 -1 7 12)" fill="#37474F"/>
<rect x="6" y="5" width="1" height="1" fill="#37474F"/>
<rect width="1" height="1" transform="matrix(1 0 0 -1 6 12)" fill="#37474F"/>
<rect x="5" y="6" width="1" height="1" fill="#37474F"/>
<rect width="1" height="1" transform="matrix(1 0 0 -1 5 11)" fill="#37474F"/>
<rect x="4" y="7" width="1" height="1" fill="#37474F"/>
<rect x="4" y="8" width="1" height="1" fill="#37474F"/>
<rect x="4" y="9" width="1" height="1" fill="#37474F"/>
</svg>
