<svg width="12" height="12" viewBox="0 0 12 12" fill="none" xmlns="http://www.w3.org/2000/svg">
<rect x="0.75" y="1.5" width="0.75" height="0.75" fill="#37474F"/>
<rect x="0.75" y="2.25" width="0.75" height="0.75" fill="#37474F"/>
<rect x="0.75" y="3" width="0.75" height="0.75" fill="#37474F"/>
<rect x="0.75" y="3.75" width="0.75" height="0.75" fill="#37474F"/>
<rect x="0.75" y="4.5" width="0.75" height="0.75" fill="#37474F"/>
<rect x="0.75" y="5.25" width="0.75" height="0.75" fill="#37474F"/>
<rect x="0.75" y="6" width="0.75" height="0.75" fill="#37474F"/>
<rect x="0.75" y="6.75" width="0.75" height="0.75" fill="#37474F"/>
<rect x="0.75" y="7.5" width="0.75" height="0.75" fill="#37474F"/>
<rect x="0.75" y="8.25" width="0.75" height="0.75" fill="#37474F"/>
<rect x="0.75" y="9" width="0.75" height="0.75" fill="#37474F"/>
<rect x="0.75" y="9.75" width="0.75" height="0.75" fill="#37474F"/>
<rect x="0.75" y="10.5" width="0.75" height="0.75" fill="#37474F"/>
<rect x="1.5" y="10.5" width="0.75" height="0.75" fill="#37474F"/>
<rect x="2.25" y="10.5" width="0.75" height="0.75" fill="#37474F"/>
<rect x="3" y="10.5" width="0.75" height="0.75" fill="#37474F"/>
<rect x="3.75" y="10.5" width="0.75" height="0.75" fill="#37474F"/>
<rect x="4.5" y="10.5" width="0.75" height="0.75" fill="#37474F"/>
<rect x="5.25" y="10.5" width="0.75" height="0.75" fill="#37474F"/>
<rect x="6" y="10.5" width="0.75" height="0.75" fill="#37474F"/>
<rect x="6.75" y="10.5" width="0.75" height="0.75" fill="#37474F"/>
<rect x="7.5" y="10.5" width="0.75" height="0.75" fill="#37474F"/>
<rect x="7.5" y="9.75" width="0.75" height="0.75" fill="#37474F"/>
<rect x="7.5" y="9" width="0.75" height="0.75" fill="#37474F"/>
<rect x="7.5" y="8.25" width="0.75" height="0.75" fill="#37474F"/>
<rect x="1.5" y="1.5" width="0.75" height="0.75" fill="#37474F"/>
<rect x="2.25" y="1.5" width="0.75" height="0.75" fill="#37474F"/>
<rect x="2.25" y="3" width="0.75" height="0.75" fill="#37474F"/>
<rect x="2.25" y="4.5" width="0.75" height="0.75" fill="#37474F"/>
<rect x="2.25" y="9" width="0.75" height="0.75" fill="#37474F"/>
<rect x="3" y="1.5" width="0.75" height="0.75" fill="#37474F"/>
<rect x="3" y="3" width="0.75" height="0.75" fill="#37474F"/>
<rect x="3" y="4.5" width="0.75" height="0.75" fill="#37474F"/>
<rect x="3" y="9" width="0.75" height="0.75" fill="#37474F"/>
<rect x="3.75" y="1.5" width="0.75" height="0.75" fill="#37474F"/>
<rect x="3.75" y="3" width="0.75" height="0.75" fill="#37474F"/>
<rect x="3.75" y="4.5" width="0.75" height="0.75" fill="#37474F"/>
<rect x="3.75" y="9" width="0.75" height="0.75" fill="#37474F"/>
<rect x="4.5" y="1.5" width="0.75" height="0.75" fill="#37474F"/>
<rect x="4.5" y="3" width="0.75" height="0.75" fill="#37474F"/>
<rect x="4.5" y="4.5" width="0.75" height="0.75" fill="#37474F"/>
<rect x="4.5" y="9" width="0.75" height="0.75" fill="#37474F"/>
<rect x="4.5" y="8.25" width="0.75" height="0.75" fill="#37474F"/>
<rect x="4.5" y="7.5" width="0.75" height="0.75" fill="#37474F"/>
<rect x="5.25" y="6.75" width="0.75" height="0.75" fill="#37474F"/>
<rect x="6" y="6" width="0.75" height="0.75" fill="#37474F"/>
<rect x="6.75" y="5.25" width="0.75" height="0.75" fill="#37474F"/>
<rect x="8.25" y="3.75" width="0.75" height="0.75" fill="#37474F"/>
<rect x="9" y="3" width="0.75" height="0.75" fill="#37474F"/>
<rect x="9.75" y="3" width="0.75" height="0.75" fill="#37474F"/>
<rect x="10.5" y="3.75" width="0.75" height="0.75" fill="#37474F"/>
<rect x="10.5" y="4.5" width="0.75" height="0.75" fill="#37474F"/>
<rect x="9.75" y="5.25" width="0.75" height="0.75" fill="#37474F"/>
<rect x="9" y="6" width="0.75" height="0.75" fill="#37474F"/>
<rect x="8.25" y="6.75" width="0.75" height="0.75" fill="#37474F"/>
<rect x="7.5" y="7.5" width="0.75" height="0.75" fill="#37474F"/>
<rect x="6.75" y="8.25" width="0.75" height="0.75" fill="#37474F"/>
<rect x="6" y="7.5" width="0.75" height="0.75" fill="#37474F"/>
<rect x="6.75" y="6.75" width="0.75" height="0.75" fill="#FFA202"/>
<rect x="7.5" y="6" width="0.75" height="0.75" fill="#FFA202"/>
<rect x="8.25" y="5.25" width="0.75" height="0.75" fill="#FFA202"/>
<rect x="9" y="4.5" width="0.75" height="0.75" fill="#FFA202"/>
<rect x="9" y="3.75" width="0.75" height="0.75" fill="#FED750"/>
<rect x="1.5" y="2.25" width="0.75" height="0.75" fill="#EDEFF1"/>
<rect x="1.5" y="3" width="0.75" height="0.75" fill="#EDEFF1"/>
<rect x="1.5" y="4.5" width="0.75" height="0.75" fill="#EDEFF1"/>
<rect x="1.5" y="5.25" width="0.75" height="0.75" fill="#EDEFF1"/>
<rect x="1.5" y="6" width="0.75" height="0.75" fill="#EDEFF1"/>
<rect x="1.5" y="6.75" width="0.75" height="0.75" fill="#EDEFF1"/>
<rect x="1.5" y="7.5" width="0.75" height="0.75" fill="#EDEFF1"/>
<rect x="1.5" y="8.25" width="0.75" height="0.75" fill="#EDEFF1"/>
<rect x="1.5" y="9" width="0.75" height="0.75" fill="#EDEFF1"/>
<rect x="1.5" y="9.75" width="0.75" height="0.75" fill="#CFD8DB"/>
<rect x="2.25" y="9.75" width="0.75" height="0.75" fill="#CFD8DB"/>
<rect x="3" y="9.75" width="0.75" height="0.75" fill="#CFD8DB"/>
<rect x="3.75" y="9.75" width="0.75" height="0.75" fill="#CFD8DB"/>
<rect x="4.5" y="9.75" width="0.75" height="0.75" fill="#CFD8DB"/>
<rect x="5.25" y="9.75" width="0.75" height="0.75" fill="#CFD8DB"/>
<rect x="6" y="9.75" width="0.75" height="0.75" fill="#CFD8DB"/>
<rect x="6.75" y="9.75" width="0.75" height="0.75" fill="#CFD8DB"/>
<path d="M6.75 9H7.5V9.75H6.75V9Z" fill="#CFD8DB"/>
<rect x="2.25" y="5.25" width="0.75" height="0.75" fill="#EDEFF1"/>
<rect x="2.25" y="6" width="0.75" height="0.75" fill="#EDEFF1"/>
<rect x="2.25" y="6.75" width="0.75" height="0.75" fill="#EDEFF1"/>
<rect x="2.25" y="7.5" width="0.75" height="0.75" fill="#EDEFF1"/>
<rect x="2.25" y="8.25" width="0.75" height="0.75" fill="#EDEFF1"/>
<rect x="3" y="5.25" width="0.75" height="0.75" fill="#EDEFF1"/>
<rect x="3" y="6" width="0.75" height="0.75" fill="#EDEFF1"/>
<rect x="3" y="6.75" width="0.75" height="0.75" fill="#EDEFF1"/>
<rect x="3" y="7.5" width="0.75" height="0.75" fill="#EDEFF1"/>
<rect x="3" y="8.25" width="0.75" height="0.75" fill="#EDEFF1"/>
<rect x="3.75" y="5.25" width="0.75" height="0.75" fill="#EDEFF1"/>
<rect x="3.75" y="6" width="0.75" height="0.75" fill="#EDEFF1"/>
<rect x="3.75" y="6.75" width="0.75" height="0.75" fill="#EDEFF1"/>
<rect x="3.75" y="7.5" width="0.75" height="0.75" fill="#EDEFF1"/>
<rect x="3.75" y="8.25" width="0.75" height="0.75" fill="#EDEFF1"/>
<rect x="4.5" y="5.25" width="0.75" height="0.75" fill="#EDEFF1"/>
<rect x="4.5" y="6" width="0.75" height="0.75" fill="#EDEFF1"/>
<rect x="4.5" y="6.75" width="0.75" height="0.75" fill="#EDEFF1"/>
<rect x="5.25" y="5.25" width="0.75" height="0.75" fill="#EDEFF1"/>
<rect x="5.25" y="6" width="0.75" height="0.75" fill="#EDEFF1"/>
<rect x="6" y="5.25" width="0.75" height="0.75" fill="#EDEFF1"/>
<rect x="1.5" y="3.75" width="0.75" height="0.75" fill="#EDEFF1"/>
<rect x="2.25" y="2.25" width="0.75" height="0.75" fill="#EDEFF1"/>
<rect x="2.25" y="3.75" width="0.75" height="0.75" fill="#EDEFF1"/>
<rect x="3" y="2.25" width="0.75" height="0.75" fill="#EDEFF1"/>
<rect x="3" y="3.75" width="0.75" height="0.75" fill="#EDEFF1"/>
<rect x="3.75" y="2.25" width="0.75" height="0.75" fill="#EDEFF1"/>
<rect x="3.75" y="3.75" width="0.75" height="0.75" fill="#EDEFF1"/>
<rect x="4.5" y="2.25" width="0.75" height="0.75" fill="#EDEFF1"/>
<rect x="4.5" y="3.75" width="0.75" height="0.75" fill="#EDEFF1"/>
<rect x="5.25" y="2.25" width="0.75" height="0.75" fill="#EDEFF1"/>
<rect x="5.25" y="3.75" width="0.75" height="0.75" fill="#EDEFF1"/>
<rect x="6" y="2.25" width="0.75" height="0.75" fill="#EDEFF1"/>
<rect x="6" y="3.75" width="0.75" height="0.75" fill="#EDEFF1"/>
<rect x="6.75" y="2.25" width="0.75" height="0.75" fill="#EDEFF1"/>
<rect x="6.75" y="3" width="0.75" height="0.75" fill="#EDEFF1"/>
<rect x="6.75" y="4.5" width="0.75" height="0.75" fill="#EDEFF1"/>
<rect x="6.75" y="3.75" width="0.75" height="0.75" fill="#EDEFF1"/>
<rect x="6" y="6.75" width="0.75" height="0.75" fill="#FED750"/>
<rect x="5.25" y="7.5" width="0.75" height="0.75" fill="#FFF8E1"/>
<rect x="5.25" y="8.25" width="0.75" height="0.75" fill="#FFF8E1"/>
<rect x="6" y="8.25" width="0.75" height="0.75" fill="#FFE183"/>
<rect x="6.75" y="6" width="0.75" height="0.75" fill="#FED750"/>
<rect x="7.5" y="5.25" width="0.75" height="0.75" fill="#FED750"/>
<rect x="8.25" y="4.5" width="0.75" height="0.75" fill="#FED750"/>
<rect x="6.75" y="7.5" width="0.75" height="0.75" fill="#FF7002"/>
<rect x="7.5" y="6.75" width="0.75" height="0.75" fill="#FF7002"/>
<rect x="8.25" y="6" width="0.75" height="0.75" fill="#FF7002"/>
<rect x="9" y="5.25" width="0.75" height="0.75" fill="#FF7002"/>
<rect x="9.75" y="4.5" width="0.75" height="0.75" fill="#FF7002"/>
<rect x="9.75" y="3.75" width="0.75" height="0.75" fill="#FFA202"/>
<rect x="5.25" y="1.5" width="0.75" height="0.75" fill="#37474F"/>
<rect x="5.25" y="3" width="0.75" height="0.75" fill="#37474F"/>
<rect x="5.25" y="4.5" width="0.75" height="0.75" fill="#37474F"/>
<rect x="5.25" y="9" width="0.75" height="0.75" fill="#37474F"/>
<rect x="6" y="1.5" width="0.75" height="0.75" fill="#37474F"/>
<rect x="6" y="3" width="0.75" height="0.75" fill="#37474F"/>
<rect x="6" y="4.5" width="0.75" height="0.75" fill="#37474F"/>
<rect x="6" y="9" width="0.75" height="0.75" fill="#37474F"/>
<rect x="6.75" y="1.5" width="0.75" height="0.75" fill="#37474F"/>
<rect x="7.5" y="1.5" width="0.75" height="0.75" fill="#37474F"/>
<rect x="7.5" y="2.25" width="0.75" height="0.75" fill="#37474F"/>
<rect x="7.5" y="3" width="0.75" height="0.75" fill="#37474F"/>
<rect x="7.5" y="3.75" width="0.75" height="0.75" fill="#37474F"/>
<rect x="7.5" y="4.5" width="0.75" height="0.75" fill="#37474F"/>
</svg>
