<svg width="16" height="16" viewBox="0 0 16 16" fill="none" xmlns="http://www.w3.org/2000/svg">
<path d="M9.33366 2.66667H8.00033V1.33334H9.33366V2.66667Z" fill="#37474F"/>
<path d="M9.33366 10.6667H8.00033V12H9.33366V10.6667Z" fill="#37474F"/>
<path d="M8.66699 12H7.33366V13.3333H8.66699V12Z" fill="#37474F"/>
<path d="M8.66699 13.3333H7.33366V14.6667H8.66699V13.3333Z" fill="#37474F"/>
<path d="M6.66699 2.66667H8.00033V1.33334H6.66699V2.66667Z" fill="#37474F"/>
<path d="M6.66699 10.6667H8.00033V12H6.66699V10.6667Z" fill="#37474F"/>
<path d="M10.667 4H9.33366V2.66667H10.667V4Z" fill="#37474F"/>
<path d="M10.667 9.33334H9.33366V10.6667H10.667V9.33334Z" fill="#37474F"/>
<path d="M5.33366 4H6.66699V2.66667H5.33366V4Z" fill="#37474F"/>
<path d="M5.33366 9.33334H6.66699V10.6667H5.33366V9.33334Z" fill="#37474F"/>
<path d="M12.0003 5.33334H10.667V4H12.0003V5.33334Z" fill="#37474F"/>
<path d="M12.0003 8H10.667V9.33334H12.0003V8Z" fill="#37474F"/>
<path d="M4.00033 5.33334H5.33366V4H4.00033V5.33334Z" fill="#37474F"/>
<path d="M4.00033 8H5.33366V9.33334H4.00033V8Z" fill="#37474F"/>
<path d="M13.3337 5.33334H12.0003V4H13.3337V5.33334Z" fill="#37474F"/>
<path d="M13.3337 8H12.0003V9.33334H13.3337V8Z" fill="#37474F"/>
<path d="M2.66699 5.33334H4.00033V4H2.66699V5.33334Z" fill="#37474F"/>
<path d="M2.66699 8H4.00033V9.33334H2.66699V8Z" fill="#37474F"/>
<path d="M13.3337 6.66667H12.0003V5.33334H13.3337V6.66667Z" fill="#37474F"/>
<path d="M13.3337 6.66667H12.0003V8H13.3337V6.66667Z" fill="#37474F"/>
<path d="M2.66699 6.66667H4.00033V5.33334H2.66699V6.66667Z" fill="#37474F"/>
<path d="M2.66699 6.66667H4.00033V8H2.66699V6.66667Z" fill="#37474F"/>
<path d="M10.667 2.66667H9.33366V1.33334H10.667V2.66667Z" fill="#37474F"/>
<path d="M10.667 10.6667H9.33366V12H10.667V10.6667Z" fill="#37474F"/>
<path d="M5.33366 2.66667H6.66699V1.33334H5.33366V2.66667Z" fill="#37474F"/>
<path d="M5.33366 10.6667H6.66699V12H5.33366V10.6667Z" fill="#37474F"/>
<path d="M12.0003 4H10.667V2.66667H12.0003V4Z" fill="#37474F"/>
<path d="M12.0003 9.33334H10.667V10.6667H12.0003V9.33334Z" fill="#37474F"/>
<path d="M4.00033 4H5.33366V2.66667H4.00033V4Z" fill="#37474F"/>
<path d="M4.00033 9.33334H5.33366V10.6667H4.00033V9.33334Z" fill="#37474F"/>
<path d="M6.66667 2.66667H9.33333V4.00001H6.66667V2.66667Z" fill="#FFAA8A"/>
<path d="M5.33333 4.00001H8V5.33334H5.33333V4.00001Z" fill="#FFAA8A"/>
<path d="M8 4.00001H10.6667V5.33334H8V4.00001Z" fill="#FFAA8A"/>
<path d="M4 5.33334H12V6.66667H4V5.33334Z" fill="#FFAA8A"/>
<path d="M6.66667 10.6667H9.33333V9.33334H6.66667V10.6667Z" fill="#FFAA8A"/>
<path d="M5.33333 9.33334H8V8.00001H5.33333V9.33334Z" fill="#FFAA8A"/>
<path d="M8 9.33334H10.6667V8.00001H8V9.33334Z" fill="#FFAA8A"/>
<path d="M4 8.00001H12V6.66667H4V8.00001Z" fill="#FFAA8A"/>
<rect x="6.66699" y="4" width="1.33333" height="1.33333" fill="white"/>
<path d="M5.33398 4.00001H6.66732V5.33334H5.33398V4.00001Z" fill="#FFCBB8"/>
<path d="M6.66732 5.33334H8.00065V6.66667H6.66732V5.33334Z" fill="#FFCBB8"/>
<path d="M8.00065 4.00001H9.33398V5.33334H8.00065V4.00001Z" fill="#FFCBB8"/>
<path d="M6.66732 2.66667H8.00065V4.00001H6.66732V2.66667Z" fill="#FFCBB8"/>
<path d="M6.66699 9.33334H9.33366V10.6667H6.66699V9.33334Z" fill="#FF5601"/>
<path d="M9.33366 8H10.667V9.33334H9.33366V8Z" fill="#FF5601"/>
<path d="M10.667 6.66667H12.0003V8H10.667V6.66667Z" fill="#FF5601"/>
<path d="M8.00033 8H9.33366V9.33334H8.00033V8Z" fill="#FF5601"/>
<path d="M9.33366 6.66667H10.667V8H9.33366V6.66667Z" fill="#FF5601"/>
<path d="M10.667 5.33334H12.0003V6.66667H10.667V5.33334Z" fill="#FF5601"/>
</svg>
