<svg width="24" height="24" viewBox="0 0 24 24" fill="none" xmlns="http://www.w3.org/2000/svg">
<path d="M16 5H14V7H16V5Z" fill="#37474F"/>
<path d="M8 5H10V7H8V5Z" fill="#37474F"/>
<path d="M14 3H12V5H14V3Z" fill="#37474F"/>
<path d="M10 3H12V5H10V3Z" fill="#37474F"/>
<path d="M16 13H14V11H16V13Z" fill="#37474F"/>
<path d="M8 13H10V11H8V13Z" fill="#37474F"/>
<path d="M14 15H12V13H14V15Z" fill="#37474F"/>
<path d="M10 15H12V13H10V15Z" fill="#37474F"/>
<path d="M4 21H6V19H4V21Z" fill="#37474F"/>
<path d="M6 19H8V17H6V19Z" fill="#37474F"/>
<path d="M8 19H10V17H8V19Z" fill="#37474F"/>
<path d="M10 19H12V17H10V19Z" fill="#37474F"/>
<path d="M12 19H14V17H12V19Z" fill="#37474F"/>
<path d="M14 19H16V17H14V19Z" fill="#37474F"/>
<path d="M16 19H18V17H16V19Z" fill="#37474F"/>
<path d="M18 21H20V19H18V21Z" fill="#37474F"/>
<path d="M18 7H16V9H18V7Z" fill="#37474F"/>
<path d="M6 7H8V9H6V7Z" fill="#37474F"/>
<path d="M18 11H16V9H18V11Z" fill="#37474F"/>
<path d="M6 11H8V9H6V11Z" fill="#37474F"/>
<path d="M14 5H10V7H14V5Z" fill="#FFAA8A"/>
<path d="M14 13H10V11H14V13Z" fill="#FFAA8A"/>
<path d="M16 7H8V9H16V7Z" fill="#FFAA8A"/>
<path d="M16 11H8V9H16V11Z" fill="#FFAA8A"/>
<path d="M6 19H18V21H6V19Z" fill="#FFAA8A"/>
<path d="M6 19H8V21H6V19Z" fill="#FFCBB8"/>
<path d="M8 9H10V11H8V9Z" fill="#FFCBB8"/>
<path d="M10 7H12V9H10V7Z" fill="#FFCBB8"/>
<path d="M12 5H14V7H12V5Z" fill="#FFCBB8"/>
<path d="M8 7H10V9H8V7Z" fill="white"/>
<path d="M10 5H12V7H10V5Z" fill="white"/>
<path d="M12 11H14V13H12V11Z" fill="#FF5601"/>
<path d="M16 19H18V21H16V19Z" fill="#FF5601"/>
<path d="M14 9H16V11H14V9Z" fill="#FF5601"/>
</svg>
