<svg width="100%" height="100%" viewBox="0 0 24 24" fill="none" xmlns="http://www.w3.org/2000/svg">
<path d="M12.3097 7.98776C12.9715 7.98776 13.8012 7.52657 14.2952 6.91165C14.7427 6.35437 15.0689 5.57611 15.0689 4.79785C15.0689 4.69216 15.0596 4.58647 15.0409 4.5C14.3045 4.52882 13.419 5.00923 12.8876 5.65298C12.4681 6.14299 12.086 6.91165 12.086 7.69952C12.086 7.81482 12.1046 7.93011 12.1139 7.96855C12.1605 7.97815 12.2351 7.98776 12.3097 7.98776ZM9.97925 19.6136C10.8835 19.6136 11.2843 18.9891 12.4122 18.9891C13.5588 18.9891 13.8105 19.5944 14.8172 19.5944C15.8053 19.5944 16.4672 18.6528 17.0917 17.7304C17.7909 16.6735 18.0798 15.6359 18.0985 15.5878C18.0332 15.5686 16.1409 14.7711 16.1409 12.5324C16.1409 10.5916 17.6324 9.71723 17.7163 9.64997C16.7282 8.18953 15.2274 8.1511 14.8172 8.1511C13.7079 8.1511 12.8037 8.84289 12.2351 8.84289C11.6199 8.84289 10.8089 8.18953 9.84874 8.18953C8.02168 8.18953 6.16666 9.74606 6.16666 12.6862C6.16666 14.5117 6.85646 16.4429 7.70474 17.692C8.43184 18.7489 9.06572 19.6136 9.97925 19.6136Z" fill="white"/>
</svg>
