<svg width="32" height="32" viewBox="0 0 32 32" fill="none" xmlns="http://www.w3.org/2000/svg">
<rect x="12" y="12" width="4" height="4" fill="#FFA202"/>
<rect x="12" y="8" width="4" height="4" fill="#FFA202"/>
<rect x="12" y="4" width="4" height="4" fill="#FFC30B"/>
<rect x="12" width="4" height="4" fill="#37474F"/>
<rect x="12" y="28" width="4" height="4" fill="#37474F"/>
<rect x="12" y="24" width="4" height="4" fill="#FF5601"/>
<rect x="8" y="12" width="4" height="4" fill="#FFA202"/>
<rect x="4" y="12" width="4" height="4" fill="#FFC30B"/>
<rect x="8" y="8" width="4" height="4" fill="#FFA202"/>
<rect x="4" y="8" width="4" height="4" fill="#FFC30B"/>
<rect x="8" y="4" width="4" height="4" fill="#FFC30B"/>
<rect x="8" width="4" height="4" fill="#37474F"/>
<rect x="8" y="28" width="4" height="4" fill="#37474F"/>
<rect x="4" y="4" width="4" height="4" fill="#FFC30B"/>
<rect x="4" width="4" height="4" fill="#37474F"/>
<rect x="4" y="28" width="4" height="4" fill="#37474F"/>
<rect x="8" y="24" width="4" height="4" fill="#FF5601"/>
<rect x="4" y="24" width="4" height="4" fill="#FF5601"/>
<rect x="12" y="16" width="4" height="4" fill="#FFA202"/>
<rect x="12" y="20" width="4" height="4" fill="#FF7002"/>
<rect x="8" y="16" width="4" height="4" fill="#FFA202"/>
<rect x="4" y="16" width="4" height="4" fill="#FFA202"/>
<rect x="8" y="20" width="4" height="4" fill="#FF7002"/>
<rect x="4" y="20" width="4" height="4" fill="#FF7002"/>
<rect x="16" y="12" width="4" height="4" fill="#FFA202"/>
<rect x="20" y="12" width="4" height="4" fill="#FF7002"/>
<rect x="24" y="12" width="4" height="4" fill="#FF5601"/>
<rect x="16" y="8" width="4" height="4" fill="#FFA202"/>
<rect x="16" y="4" width="4" height="4" fill="#FFA202"/>
<rect x="16" width="4" height="4" fill="#37474F"/>
<rect x="16" y="28" width="4" height="4" fill="#37474F"/>
<rect x="16" y="24" width="4" height="4" fill="#FF5601"/>
<rect x="20" y="8" width="4" height="4" fill="#FF7002"/>
<rect x="24" y="8" width="4" height="4" fill="#FF5601"/>
<rect x="20" y="4" width="4" height="4" fill="#FF7002"/>
<rect x="20" width="4" height="4" fill="#37474F"/>
<rect x="20" y="28" width="4" height="4" fill="#37474F"/>
<rect x="24" y="4" width="4" height="4" fill="#FF5601"/>
<rect x="24" width="4" height="4" fill="#37474F"/>
<rect x="24" y="28" width="4" height="4" fill="#37474F"/>
<rect x="28" width="4" height="4" fill="#37474F"/>
<rect width="4" height="4" fill="#37474F"/>
<rect x="28" y="4" width="4" height="4" fill="#37474F"/>
<rect y="4" width="4" height="4" fill="#37474F"/>
<rect x="28" y="8" width="4" height="4" fill="#37474F"/>
<rect y="8" width="4" height="4" fill="#37474F"/>
<rect x="28" y="12" width="4" height="4" fill="#37474F"/>
<rect y="12" width="4" height="4" fill="#37474F"/>
<rect x="28" y="16" width="4" height="4" fill="#37474F"/>
<rect y="16" width="4" height="4" fill="#37474F"/>
<rect x="28" y="20" width="4" height="4" fill="#37474F"/>
<rect y="20" width="4" height="4" fill="#37474F"/>
<rect x="28" y="24" width="4" height="4" fill="#37474F"/>
<rect y="24" width="4" height="4" fill="#37474F"/>
<rect x="28" y="28" width="4" height="4" fill="#37474F"/>
<rect y="28" width="4" height="4" fill="#37474F"/>
<rect x="20" y="24" width="4" height="4" fill="#FF5601"/>
<rect x="24" y="24" width="4" height="4" fill="#FF5601"/>
<rect x="16" y="16" width="4" height="4" fill="#FFA202"/>
<rect x="20" y="16" width="4" height="4" fill="#FF7002"/>
<rect x="24" y="16" width="4" height="4" fill="#FF5601"/>
<rect x="16" y="20" width="4" height="4" fill="#FF7002"/>
<rect x="20" y="20" width="4" height="4" fill="#FF7002"/>
<rect x="24" y="20" width="4" height="4" fill="#FF5601"/>
</svg>
